<svg width="32" height="32" viewBox="0 0 32 32" fill="none" xmlns="http://www.w3.org/2000/svg">
<path d="M24.3532 6.14336C21.4094 3.19961 16.6157 3.19961 13.675 6.14336L5.51878 14.2934C5.46565 14.3465 5.43753 14.4184 5.43753 14.4934C5.43753 14.5684 5.46565 14.6402 5.51878 14.6934L6.6719 15.8465C6.72461 15.899 6.79596 15.9284 6.87034 15.9284C6.94472 15.9284 7.01607 15.899 7.06878 15.8465L15.225 7.69648C16.2375 6.68398 17.5844 6.12773 19.0157 6.12773C20.4469 6.12773 21.7938 6.68398 22.8032 7.69648C23.8157 8.70898 24.3719 10.0559 24.3719 11.484C24.3719 12.9152 23.8157 14.259 22.8032 15.2715L14.4907 23.5809L13.1438 24.9277C11.8844 26.1871 9.83753 26.1871 8.57815 24.9277C7.96878 24.3184 7.6344 23.509 7.6344 22.6465C7.6344 21.784 7.96878 20.9746 8.57815 20.3652L16.825 12.1215C17.0344 11.9152 17.3094 11.7996 17.6032 11.7996H17.6063C17.9 11.7996 18.1719 11.9152 18.3782 12.1215C18.5875 12.3309 18.7 12.6059 18.7 12.8996C18.7 13.1902 18.5844 13.4652 18.3782 13.6715L11.6375 20.4059C11.5844 20.459 11.5563 20.5309 11.5563 20.6059C11.5563 20.6809 11.5844 20.7527 11.6375 20.8059L12.7907 21.959C12.8434 22.0115 12.9147 22.0409 12.9891 22.0409C13.0635 22.0409 13.1348 22.0115 13.1875 21.959L19.925 15.2215C20.5469 14.5996 20.8875 13.7746 20.8875 12.8965C20.8875 12.0184 20.5438 11.1902 19.925 10.5715C18.6407 9.28711 16.5532 9.29023 15.2688 10.5715L14.4688 11.3746L7.02503 18.8152C6.51981 19.3175 6.11934 19.915 5.84683 20.5733C5.57432 21.2315 5.43519 21.9372 5.43753 22.6496C5.43753 24.0965 6.00315 25.4559 7.02503 26.4777C8.0844 27.534 9.4719 28.0621 10.8594 28.0621C12.2469 28.0621 13.6344 27.534 14.6907 26.4777L24.3532 16.8215C25.775 15.3965 26.5625 13.4996 26.5625 11.484C26.5657 9.46523 25.7782 7.56836 24.3532 6.14336Z" fill="#3F3F46"/>
</svg>
