<svg width="28" height="29" viewBox="0 0 28 29" fill="none" xmlns="http://www.w3.org/2000/svg">
<path d="M21.309 5.87715C18.7332 3.30137 14.5387 3.30137 11.9657 5.87715L4.82893 13.0084C4.78245 13.0549 4.75784 13.1178 4.75784 13.1834C4.75784 13.249 4.78245 13.3119 4.82893 13.3584L5.83792 14.3674C5.88404 14.4133 5.94647 14.4391 6.01155 14.4391C6.07663 14.4391 6.13906 14.4133 6.18518 14.3674L13.3219 7.23613C14.2078 6.35019 15.3864 5.86348 16.6387 5.86348C17.891 5.86348 19.0696 6.35019 19.9528 7.23613C20.8387 8.12207 21.3254 9.30059 21.3254 10.5502C21.3254 11.8025 20.8387 12.9783 19.9528 13.8643L12.6793 21.135L11.5008 22.3135C10.3989 23.4154 8.60784 23.4154 7.50588 22.3135C6.97268 21.7803 6.6801 21.0721 6.6801 20.3174C6.6801 19.5627 6.97268 18.8545 7.50588 18.3213L14.7219 11.108C14.9051 10.9275 15.1457 10.8264 15.4028 10.8264H15.4055C15.6625 10.8264 15.9004 10.9275 16.0809 11.108C16.2641 11.2912 16.3625 11.5318 16.3625 11.7889C16.3625 12.0432 16.2614 12.2838 16.0809 12.4643L10.1828 18.3568C10.1364 18.4033 10.1117 18.4662 10.1117 18.5318C10.1117 18.5975 10.1364 18.6604 10.1828 18.7068L11.1918 19.7158C11.2379 19.7617 11.3004 19.7875 11.3655 19.7875C11.4305 19.7875 11.493 19.7617 11.5391 19.7158L17.4344 13.8205C17.9785 13.2764 18.2766 12.5545 18.2766 11.7861C18.2766 11.0178 17.9758 10.2932 17.4344 9.75176C16.3106 8.62793 14.484 8.63066 13.3602 9.75176L12.6602 10.4545L6.1469 16.965C5.70484 17.4045 5.35442 17.9274 5.11597 18.5033C4.87753 19.0792 4.7558 19.6968 4.75784 20.3201C4.75784 21.5861 5.25276 22.7756 6.1469 23.6697C7.07385 24.5939 8.28792 25.0561 9.50198 25.0561C10.716 25.0561 11.9301 24.5939 12.8543 23.6697L21.309 15.2205C22.5532 13.9736 23.2422 12.3139 23.2422 10.5502C23.2449 8.78379 22.5559 7.12402 21.309 5.87715Z" fill="#333333"/>
</svg>
