<svg width="30" height="31" viewBox="0 0 30 31" fill="none" xmlns="http://www.w3.org/2000/svg">
<path d="M23.4375 7.0625H3.75C3.00408 7.0625 2.28871 7.35882 1.76126 7.88626C1.23382 8.41371 0.9375 9.12908 0.9375 9.875V21.125C0.9375 21.8709 1.23382 22.5863 1.76126 23.1137C2.28871 23.6412 3.00408 23.9375 3.75 23.9375H23.4375C24.1834 23.9375 24.8988 23.6412 25.4262 23.1137C25.9537 22.5863 26.25 21.8709 26.25 21.125V9.875C26.25 9.12908 25.9537 8.41371 25.4262 7.88626C24.8988 7.35882 24.1834 7.0625 23.4375 7.0625ZM24.375 21.125C24.375 21.3736 24.2762 21.6121 24.1004 21.7879C23.9246 21.9637 23.6861 22.0625 23.4375 22.0625H3.75C3.50136 22.0625 3.2629 21.9637 3.08709 21.7879C2.91127 21.6121 2.8125 21.3736 2.8125 21.125V9.875C2.8125 9.62636 2.91127 9.3879 3.08709 9.21209C3.2629 9.03627 3.50136 8.9375 3.75 8.9375H23.4375C23.6861 8.9375 23.9246 9.03627 24.1004 9.21209C24.2762 9.3879 24.375 9.62636 24.375 9.875V21.125ZM30 11.75V19.25C30 19.4986 29.9012 19.7371 29.7254 19.9129C29.5496 20.0887 29.3111 20.1875 29.0625 20.1875C28.8139 20.1875 28.5754 20.0887 28.3996 19.9129C28.2238 19.7371 28.125 19.4986 28.125 19.25V11.75C28.125 11.5014 28.2238 11.2629 28.3996 11.0871C28.5754 10.9113 28.8139 10.8125 29.0625 10.8125C29.3111 10.8125 29.5496 10.9113 29.7254 11.0871C29.9012 11.2629 30 11.5014 30 11.75Z" fill="#71717A"/>
</svg>
