<svg width="20" height="20" viewBox="0 0 20 20" fill="none" xmlns="http://www.w3.org/2000/svg">
<path d="M12.5 6.25C12.5 6.08424 12.5658 5.92527 12.6831 5.80806C12.8003 5.69085 12.9592 5.625 13.125 5.625H18.125C18.2908 5.625 18.4497 5.69085 18.5669 5.80806C18.6842 5.92527 18.75 6.08424 18.75 6.25C18.75 6.41576 18.6842 6.57473 18.5669 6.69194C18.4497 6.80915 18.2908 6.875 18.125 6.875H13.125C12.9592 6.875 12.8003 6.80915 12.6831 6.69194C12.5658 6.57473 12.5 6.41576 12.5 6.25ZM10.625 12.3438C10.625 13.214 10.2793 14.0486 9.66394 14.6639C9.04859 15.2793 8.21399 15.625 7.34375 15.625H2.5C2.33424 15.625 2.17527 15.5592 2.05806 15.4419C1.94085 15.3247 1.875 15.1658 1.875 15V5C1.875 4.83424 1.94085 4.67527 2.05806 4.55806C2.17527 4.44085 2.33424 4.375 2.5 4.375H7.03125C7.62902 4.37564 8.21267 4.55671 8.70583 4.89453C9.19899 5.23235 9.57868 5.71117 9.79522 6.26834C10.0118 6.82551 10.055 7.43507 9.91943 8.01726C9.78382 8.59944 9.47562 9.12712 9.03516 9.53125C9.52027 9.82307 9.92162 10.2354 10.2002 10.7283C10.4788 11.2211 10.6251 11.7776 10.625 12.3438ZM3.125 9.0625H7.03125C7.48709 9.0625 7.92426 8.88142 8.24659 8.55909C8.56892 8.23676 8.75 7.79959 8.75 7.34375C8.75 6.88791 8.56892 6.45074 8.24659 6.12841C7.92426 5.80608 7.48709 5.625 7.03125 5.625H3.125V9.0625ZM9.375 12.3438C9.375 12.077 9.32246 11.8129 9.22038 11.5664C9.1183 11.32 8.96868 11.0961 8.78006 10.9074C8.59144 10.7188 8.36752 10.5692 8.12108 10.4671C7.87463 10.365 7.6105 10.3125 7.34375 10.3125H3.125V14.375H7.34375C7.6105 14.375 7.87463 14.3225 8.12108 14.2204C8.36752 14.1183 8.59144 13.9687 8.78006 13.7801C8.96868 13.5914 9.1183 13.3675 9.22038 13.1211C9.32246 12.8746 9.375 12.6105 9.375 12.3438ZM19.375 11.875C19.375 12.0408 19.3092 12.1997 19.1919 12.3169C19.0747 12.4342 18.9158 12.5 18.75 12.5H13.2031C13.3208 12.956 13.5649 13.3696 13.9073 13.693C14.2497 14.0164 14.6765 14.2365 15.1385 14.3279C15.6005 14.4193 16.079 14.3784 16.5187 14.2098C16.9585 14.0412 17.3417 13.7519 17.6242 13.375C17.6735 13.3093 17.7353 13.254 17.8059 13.2122C17.8766 13.1704 17.9548 13.143 18.0361 13.1314C18.1174 13.1198 18.2002 13.1244 18.2797 13.1448C18.3592 13.1652 18.4339 13.2011 18.4996 13.2504C18.5653 13.2997 18.6206 13.3614 18.6624 13.4321C18.7042 13.5028 18.7316 13.581 18.7432 13.6623C18.7548 13.7436 18.7502 13.8263 18.7298 13.9059C18.7094 13.9854 18.6735 14.0601 18.6242 14.1258C18.0897 14.8379 17.3193 15.3366 16.4508 15.5327C15.5822 15.7288 14.6723 15.6094 13.8837 15.1959C13.0951 14.7825 12.4794 14.1019 12.1466 13.276C11.8139 12.4501 11.7859 11.5328 12.0677 10.6881C12.3494 9.8435 12.9225 9.12667 13.6844 8.6659C14.4463 8.20513 15.3473 8.0305 16.2262 8.17325C17.1051 8.31599 17.9045 8.76681 18.4814 9.44502C19.0583 10.1232 19.3751 10.9846 19.375 11.875ZM18.0469 11.25C17.9092 10.7122 17.5964 10.2356 17.1579 9.89523C16.7194 9.55485 16.1801 9.3701 15.625 9.3701C15.0699 9.3701 14.5306 9.55485 14.0921 9.89523C13.6536 10.2356 13.3408 10.7122 13.2031 11.25H18.0469Z" fill="white"/>
</svg>
