<svg width="34" height="34" viewBox="0 0 34 34" fill="none" xmlns="http://www.w3.org/2000/svg">
<path d="M29.4582 23.367C28.7211 22.0973 27.6254 18.5048 27.6254 13.8125C27.6254 10.9946 26.506 8.29206 24.5134 6.29949C22.5209 4.30692 19.8183 3.1875 17.0004 3.1875C14.1825 3.1875 11.48 4.30692 9.4874 6.29949C7.49483 8.29206 6.37541 10.9946 6.37541 13.8125C6.37541 18.5061 5.27838 22.0973 4.54127 23.367C4.35304 23.6898 4.25325 24.0565 4.25197 24.4302C4.25068 24.8039 4.34795 25.1713 4.53397 25.4953C4.71998 25.8194 4.98816 26.0887 5.31146 26.2761C5.63476 26.4634 6.00175 26.5622 6.37541 26.5625H11.7955C12.0406 27.762 12.6925 28.84 13.641 29.6142C14.5894 30.3884 15.7761 30.8113 17.0004 30.8113C18.2247 30.8113 19.4114 30.3884 20.3599 29.6142C21.3083 28.84 21.9602 27.762 22.2053 26.5625H27.6254C27.999 26.562 28.3658 26.463 28.6889 26.2756C29.012 26.0881 29.28 25.8188 29.4659 25.4948C29.6517 25.1707 29.7489 24.8034 29.7475 24.4299C29.7462 24.0563 29.6464 23.6897 29.4582 23.367ZM17.0004 28.6875C16.3414 28.6873 15.6987 28.4828 15.1607 28.1023C14.6227 27.7217 14.2159 27.1838 13.9962 26.5625H20.0046C19.785 27.1838 19.3781 27.7217 18.8401 28.1023C18.3021 28.4828 17.6594 28.6873 17.0004 28.6875Z" fill="white"/>
</svg>
