<svg width="24" height="25" viewBox="0 0 24 25" fill="none" xmlns="http://www.w3.org/2000/svg">
<path d="M14.25 20C14.25 20.5967 14.0129 21.169 13.591 21.591C13.169 22.0129 12.5967 22.25 12 22.25C11.4033 22.25 10.831 22.0129 10.409 21.591C9.98705 21.169 9.75 20.5967 9.75 20C9.75 19.4033 9.98705 18.831 10.409 18.409C10.831 17.9871 11.4033 17.75 12 17.75C12.5967 17.75 13.169 17.9871 13.591 18.409C14.0129 18.831 14.25 19.4033 14.25 20ZM14.25 12.5C14.25 13.0967 14.0129 13.669 13.591 14.091C13.169 14.5129 12.5967 14.75 12 14.75C11.4033 14.75 10.831 14.5129 10.409 14.091C9.98705 13.669 9.75 13.0967 9.75 12.5C9.75 11.9033 9.98705 11.331 10.409 10.909C10.831 10.4871 11.4033 10.25 12 10.25C12.5967 10.25 13.169 10.4871 13.591 10.909C14.0129 11.331 14.25 11.9033 14.25 12.5V12.5ZM14.25 5C14.25 5.59674 14.0129 6.16903 13.591 6.59099C13.169 7.01295 12.5967 7.25 12 7.25C11.4033 7.25 10.831 7.01295 10.409 6.59099C9.98705 6.16903 9.75 5.59674 9.75 5C9.75 4.40326 9.98705 3.83097 10.409 3.40901C10.831 2.98705 11.4033 2.75 12 2.75C12.5967 2.75 13.169 2.98705 13.591 3.40901C14.0129 3.83097 14.25 4.40326 14.25 5V5Z" fill="black"/>
</svg>
