<svg width="40" height="41" viewBox="0 0 40 41" fill="none" xmlns="http://www.w3.org/2000/svg">
<path d="M23.75 33C23.75 33.9946 23.3549 34.9484 22.6517 35.6517C21.9484 36.3549 20.9946 36.75 20 36.75C19.0054 36.75 18.0516 36.3549 17.3483 35.6517C16.6451 34.9484 16.25 33.9946 16.25 33C16.25 32.0054 16.6451 31.0516 17.3483 30.3483C18.0516 29.6451 19.0054 29.25 20 29.25C20.9946 29.25 21.9484 29.6451 22.6517 30.3483C23.3549 31.0516 23.75 32.0054 23.75 33ZM23.75 20.5C23.75 21.4946 23.3549 22.4484 22.6517 23.1517C21.9484 23.8549 20.9946 24.25 20 24.25C19.0054 24.25 18.0516 23.8549 17.3483 23.1517C16.6451 22.4484 16.25 21.4946 16.25 20.5C16.25 19.5054 16.6451 18.5516 17.3483 17.8483C18.0516 17.1451 19.0054 16.75 20 16.75C20.9946 16.75 21.9484 17.1451 22.6517 17.8483C23.3549 18.5516 23.75 19.5054 23.75 20.5ZM23.75 8C23.75 8.99456 23.3549 9.94839 22.6517 10.6517C21.9484 11.3549 20.9946 11.75 20 11.75C19.0054 11.75 18.0516 11.3549 17.3483 10.6517C16.6451 9.94839 16.25 8.99456 16.25 8C16.25 7.00544 16.6451 6.05161 17.3483 5.34835C18.0516 4.64509 19.0054 4.25 20 4.25C20.9946 4.25 21.9484 4.64509 22.6517 5.34835C23.3549 6.05161 23.75 7.00544 23.75 8Z" fill="black"/>
</svg>
