<svg width="209" height="60" viewBox="0 0 209 60" fill="none" xmlns="http://www.w3.org/2000/svg">
<path d="M58.7617 9.20003C57.3203 8.31458 49.1668 3.89844 30.1522 3.89844C12.8836 3.89844 4.75915 7.51908 4.42184 7.67296C4.10785 7.81659 3.91793 8.13838 3.94612 8.4789C5.33469 25.2198 17.9862 46.517 28.9314 55.9049C29.0851 56.037 29.278 56.1042 29.4716 56.1042C29.6281 56.1042 29.7847 56.0604 29.9224 55.9713C36.1829 51.9287 41.8835 45.5885 48.4065 35.4141C54.0923 26.5456 59.1509 13.7547 59.1509 9.89183C59.1509 9.61021 59.0036 9.34846 58.7617 9.20003ZM52.5791 8.34456C49.1433 7.97154 44.7301 7.59777 40.8366 7.59777H40.2466C32.5684 7.59028 25.9501 7.59142 15.3691 12.5868C15.1678 12.6819 15.0137 12.8537 14.9429 13.0629C14.872 13.2726 14.8901 13.5012 14.9927 13.697C21.4956 26.0822 29.0639 34.6268 30.9506 36.6686C30.0994 38.0009 29.1887 39.3322 28.2105 40.6397C18.6084 33.5126 9.64278 17.2685 5.86498 8.85787C8.20656 7.9985 16.1515 5.52774 30.1522 5.52774C41.0407 5.52774 48.2214 6.97619 52.5791 8.34456ZM31.8517 35.2251C30.056 33.2485 25.1883 27.6182 20.1837 19.4857C23.1326 18.8359 31.1788 17.2473 40.0667 17.0505C39.2207 19.7598 36.616 27.366 31.8517 35.2251ZM6.40566 13.7974C11.056 23.0207 19.2412 36.3978 27.9074 42.4369C28.0515 42.5371 28.2174 42.5857 28.3816 42.5857C28.6312 42.5857 28.8771 42.4743 29.0389 42.2639C37.0211 31.8846 40.9552 19.818 41.7958 17.0292C41.8163 17.0292 41.8368 17.0288 41.8574 17.0288C44.6588 17.0288 46.4294 17.244 47.3233 17.3936C46.9205 19.8272 45.3402 27.8516 40.9989 35.6624C36.6143 43.5506 31.0458 51.6221 29.3283 54.0696C19.9585 45.6588 9.53389 28.7017 6.40566 13.7974ZM47.0139 34.5422C42.039 42.3015 37.574 47.7664 32.9843 51.6528C35.5098 47.9181 39.2805 42.1381 42.4438 36.4467C47.7669 26.8698 49.0215 17.2567 49.0722 16.8521C49.1226 16.4539 48.8714 16.0789 48.4806 15.9686C48.3984 15.9452 46.4121 15.3995 41.8574 15.3995C31.5242 15.3995 21.9232 17.4146 19.2946 18.0144C18.4757 16.6373 17.6578 15.1992 16.854 13.6974C26.6521 9.22154 32.952 9.20883 40.2458 9.22708H40.8366C47.2082 9.22708 55.0224 10.2482 57.4463 10.5881C56.9073 14.6245 52.3532 26.2134 47.0139 34.5422Z" fill="black"/>
<path d="M79.606 24.8779C82.2461 25.5982 84.0116 27.311 84.0116 30.6084C84.0116 34.5141 81.6144 37.0913 76.6743 37.0913H67.0371V13.9609H74.6173C79.6708 13.9609 82.3271 16.3619 82.3271 20.2997C82.3271 22.3326 81.4363 23.9975 79.606 24.8779ZM74.6659 17.9469H71.718V23.3892H74.8765C76.9497 23.3892 77.8568 22.1727 77.8568 20.6041C77.8568 19.0674 76.8363 17.9469 74.6659 17.9469ZM75.7672 32.9772C78.3912 32.9772 79.2982 31.5846 79.2982 30.0799C79.2982 28.5432 78.4073 27.0866 75.67 27.0866H71.7179V32.9772H75.7672ZM102.707 18.187H94.0253V23.4374H101.719V27.6152H94.0253V32.8495H102.707V37.0914H89.1341V13.961H102.707V18.187ZM126.067 13.9606L118.373 26.0138V37.0909H113.498V26.1261L105.756 13.9606H111.133L115.911 21.836L120.706 13.9606H126.067ZM140.518 37.4111C133.635 37.4111 128.548 32.769 128.548 25.5177C128.548 18.2505 133.634 13.6406 140.518 13.6406C147.386 13.6406 152.472 18.2506 152.472 25.5177C152.472 32.7689 147.386 37.4111 140.518 37.4111ZM140.518 33.0091C144.552 33.0091 147.645 30.2079 147.645 25.5179C147.645 20.8439 144.552 18.0586 140.518 18.0586C136.485 18.0586 133.392 20.8438 133.392 25.5179C133.392 30.208 136.485 33.0091 140.518 33.0091ZM173.727 13.9606H178.57V37.0909H172.95L162.583 20.5555V37.0909H157.741V13.9606H163.296L173.727 30.4001L173.727 13.9606ZM185.425 37.0909V13.9606H193.896C201.363 13.9606 205.056 18.6026 205.056 25.518C205.056 32.449 201.363 37.0909 193.896 37.0909H185.425ZM190.284 32.8491H193.653C197.962 32.8491 199.938 30.1919 199.938 25.5179C199.938 20.8439 197.962 18.1867 193.653 18.1867H190.284V32.8491Z" fill="black"/>
<path d="M82.4619 45.5257C81.5518 45.5257 80.8398 45.0661 80.8398 44.0334V41.3693H81.7011V43.917C81.7011 44.5412 82.037 44.7738 82.4619 44.7738C82.8896 44.7738 83.2284 44.5384 83.2284 43.917V41.3693H84.0896V44.0334C84.0896 45.0661 83.3748 45.5257 82.4619 45.5257ZM87.9107 41.3694H88.7691V45.469H87.7729L85.9356 42.5381V45.469H85.0772V41.3694H86.0619L87.9107 44.283V41.3694ZM89.8428 45.469V41.3694H90.704V45.469H89.8428ZM95.8801 45.6392L95.1624 45.9087L94.6313 45.3186C94.3385 45.4519 93.9998 45.5257 93.6323 45.5257C92.3978 45.5257 91.4849 44.7029 91.4849 43.4177C91.4849 42.1296 92.3978 41.3125 93.6323 41.3125C94.8667 41.3125 95.7797 42.1296 95.7797 43.4177C95.7797 44.0277 95.5758 44.5327 95.2285 44.8958L95.8801 45.6392ZM92.3433 43.4177C92.3433 44.2915 92.9031 44.7852 93.6323 44.7852C94.3615 44.7852 94.9213 44.2915 94.9213 43.4177C94.9213 42.5893 94.3615 42.0956 93.6323 42.0956C92.9031 42.0956 92.3433 42.5893 92.3433 43.4177ZM98.151 45.5257C97.2409 45.5257 96.5289 45.0661 96.5289 44.0334V41.3693H97.3902V43.917C97.3902 44.5412 97.7261 44.7738 98.151 44.7738C98.5787 44.7738 98.9175 44.5384 98.9175 43.917V41.3693H99.7787V44.0334C99.7787 45.0661 99.0639 45.5257 98.151 45.5257ZM103.172 42.1183H101.633V43.0489H102.997V43.7894H101.633V44.7172H103.172V45.469H100.766V41.3694H103.172V42.1183ZM108.363 45.469L108.061 44.6235H106.319L106.017 45.469H105.136L106.663 41.3694H107.717L109.244 45.469H108.363ZM106.571 43.9114H107.808L107.191 42.1722L106.571 43.9114ZM111.592 41.3694C112.405 41.3694 112.91 41.9652 112.91 42.6943C112.91 43.4405 112.405 43.9994 111.592 43.9994H110.728V45.469H109.867V41.3695L111.592 41.3694ZM111.449 43.2872C111.879 43.2872 112.08 43.0517 112.08 42.6829C112.08 42.3282 111.879 42.0814 111.449 42.0814H110.728V43.2872H111.449ZM115.359 41.3694C116.171 41.3694 116.676 41.9652 116.676 42.6943C116.676 43.4405 116.171 43.9994 115.359 43.9994H114.495V45.469H113.633V41.3695L115.359 41.3694ZM115.215 43.2872C115.646 43.2872 115.847 43.0517 115.847 42.6829C115.847 42.3282 115.646 42.0814 115.215 42.0814H114.495V43.2872H115.215ZM119.59 45.469L118.511 43.6645H118.261V45.469H117.4V41.3694H118.904C119.843 41.3694 120.239 41.9169 120.239 42.595C120.239 43.1454 119.923 43.5029 119.361 43.6221L120.609 45.4691L119.59 45.469ZM118.261 42.0756V43.0544H118.769C119.229 43.0544 119.415 42.8615 119.415 42.5664C119.415 42.2742 119.229 42.0756 118.769 42.0756L118.261 42.0756ZM123.078 45.5257C121.858 45.5257 120.957 44.7029 120.957 43.4177C120.957 42.1296 121.858 41.3125 123.078 41.3125C124.296 41.3125 125.197 42.1296 125.197 43.4177C125.197 44.7029 124.296 45.5257 123.078 45.5257ZM123.078 44.7455C123.793 44.7455 124.342 44.249 124.342 43.4177C124.342 42.5893 123.793 42.0956 123.078 42.0956C122.364 42.0956 121.815 42.5893 121.815 43.4177C121.815 44.249 122.364 44.7455 123.078 44.7455ZM128.766 45.469L128.464 44.6235H126.722L126.42 45.469H125.539L127.066 41.3694H128.12L129.647 45.469H128.766ZM126.974 43.9114H128.211L127.594 42.1722L126.974 43.9114ZM132.107 45.5257C130.887 45.5257 129.986 44.7057 129.986 43.4177C129.986 42.1296 130.887 41.3125 132.107 41.3125C133.032 41.3125 133.772 41.7806 134.068 42.558L133.264 42.8474C133.08 42.3708 132.641 42.0956 132.107 42.0956C131.392 42.0956 130.844 42.5892 130.844 43.4177C130.844 44.2461 131.392 44.7426 132.107 44.7426C132.641 44.7426 133.08 44.4646 133.264 43.9879L134.068 44.2773C133.772 45.0547 133.032 45.5257 132.107 45.5257ZM137.39 41.3694H138.251V45.469H137.39V43.7837H135.636V45.469H134.774V41.3694H135.636V43.0433H137.39V41.3694ZM139.795 46.513H139.204L139.563 44.6575H140.412L139.795 46.513ZM144.317 45.5257C143.407 45.5257 142.695 45.0661 142.695 44.0334V41.3693H143.556V43.917C143.556 44.5412 143.892 44.7738 144.317 44.7738C144.745 44.7738 145.083 44.5384 145.083 43.917V41.3693H145.945V44.0334C145.945 45.0661 145.23 45.5257 144.317 45.5257ZM149.766 41.3694H150.624V45.469H149.628L147.791 42.5381V45.469H146.932V41.3694H147.917L149.766 44.283V41.3694ZM151.698 45.469V41.3694H152.559V45.469H151.698ZM157.735 45.6392L157.017 45.9087L156.486 45.3186C156.193 45.4519 155.855 45.5257 155.487 45.5257C154.253 45.5257 153.34 44.7029 153.34 43.4177C153.34 42.1296 154.253 41.3125 155.487 41.3125C156.722 41.3125 157.635 42.1296 157.635 43.4177C157.635 44.0277 157.431 44.5327 157.083 44.8958L157.735 45.6392ZM154.198 43.4177C154.198 44.2915 154.758 44.7852 155.487 44.7852C156.216 44.7852 156.776 44.2915 156.776 43.4177C156.776 42.5893 156.216 42.0956 155.487 42.0956C154.758 42.0956 154.198 42.5893 154.198 43.4177ZM160.006 45.5257C159.096 45.5257 158.384 45.0661 158.384 44.0334V41.3693H159.245V43.917C159.245 44.5412 159.581 44.7738 160.006 44.7738C160.434 44.7738 160.772 44.5384 160.772 43.917V41.3693H161.634V44.0334C161.634 45.0661 160.919 45.5257 160.006 45.5257ZM165.027 42.1183H163.488V43.0489H164.852V43.7894H163.488V44.7172H165.027V45.469H162.621V41.3694H165.027V42.1183ZM169.632 45.469L168.552 43.6645H168.303V45.469H167.441V41.3694H168.946C169.884 41.3694 170.281 41.9169 170.281 42.595C170.281 43.1454 169.965 43.5029 169.402 43.6221L170.651 45.4691L169.632 45.469ZM168.303 42.0756V43.0544H168.811C169.27 43.0544 169.457 42.8615 169.457 42.5664C169.457 42.2742 169.27 42.0756 168.811 42.0756L168.303 42.0756ZM173.688 42.1183H172.15V43.0489H173.513V43.7894H172.15V44.7172H173.688V45.469H171.283V41.3694H173.688V42.1183ZM175.953 45.5257C175.063 45.5257 174.369 45.103 174.242 44.3341L175.132 44.1326C175.19 44.5923 175.531 44.8306 175.988 44.8306C176.338 44.8306 176.617 44.6774 176.614 44.3312C176.611 43.9454 176.151 43.8234 175.646 43.6702C175.038 43.4829 174.386 43.2616 174.386 42.5069C174.386 41.7437 175.017 41.3125 175.85 41.3125C176.579 41.3125 177.314 41.6047 177.481 42.3906L176.648 42.5949C176.571 42.1863 176.292 42.0076 175.902 42.0076C175.554 42.0076 175.259 42.1494 175.259 42.4871C175.259 42.802 175.666 42.907 176.137 43.046C176.763 43.2332 177.504 43.4715 177.504 44.2886C177.504 45.1596 176.766 45.5257 175.953 45.5257ZM179.835 45.5257C178.925 45.5257 178.213 45.0661 178.213 44.0334V41.3693H179.074V43.917C179.074 44.5412 179.41 44.7738 179.835 44.7738C180.263 44.7738 180.601 44.5384 180.601 43.917V41.3693H181.463V44.0334C181.463 45.0661 180.748 45.5257 179.835 45.5257ZM183.311 44.7171H184.612V45.469H182.45V41.3694H183.311V44.7171ZM187.675 41.3694V42.1184H186.69V45.469H185.838V42.1184H184.847V41.3694H187.675ZM189.705 45.5257C188.815 45.5257 188.12 45.103 187.994 44.3341L188.884 44.1326C188.941 44.5923 189.283 44.8306 189.739 44.8306C190.089 44.8306 190.368 44.6774 190.365 44.3312C190.362 43.9454 189.903 43.8234 189.397 43.6702C188.789 43.4829 188.137 43.2616 188.137 42.5069C188.137 41.7437 188.769 41.3125 189.601 41.3125C190.331 41.3125 191.065 41.6047 191.232 42.3906L190.399 42.5949C190.322 42.1863 190.043 42.0076 189.653 42.0076C189.306 42.0076 189.01 42.1494 189.01 42.4871C189.01 42.802 189.418 42.907 189.888 43.046C190.514 43.2332 191.255 43.4715 191.255 44.2886C191.255 45.1596 190.517 45.5257 189.705 45.5257Z" fill="black"/>
</svg>
