<svg width="152" height="44" viewBox="0 0 152 44" fill="none" xmlns="http://www.w3.org/2000/svg">
<path d="M42.735 6.87133C41.6868 6.22737 35.757 3.01562 21.9282 3.01562C9.36919 3.01562 3.46049 5.64882 3.21517 5.76074C2.98682 5.86519 2.84869 6.09922 2.86919 6.34687C3.87907 18.5221 13.0802 34.0109 21.0403 40.8385C21.1521 40.9346 21.2923 40.9834 21.4332 40.9834C21.547 40.9834 21.6609 40.9516 21.761 40.8868C26.3141 37.9467 30.46 33.3357 35.204 25.9361C39.3391 19.4863 43.0181 10.1838 43.0181 7.37446C43.0181 7.16964 42.911 6.97928 42.735 6.87133ZM38.2386 6.24917C35.7398 5.97788 32.5303 5.70605 29.6987 5.70605H29.2695C23.6854 5.7006 18.8721 5.70143 11.1768 9.33442C11.0304 9.40356 10.9183 9.52852 10.8668 9.68066C10.8153 9.83317 10.8285 9.99947 10.9031 10.1418C15.6324 19.1493 21.1367 25.3635 22.5088 26.8485C21.8898 27.8174 21.2274 28.7856 20.516 29.7366C13.5327 24.5532 7.01222 12.7393 4.26473 6.62249C5.9677 5.99749 11.7458 4.20057 21.9282 4.20057C29.847 4.20057 35.0694 5.25399 38.2386 6.24917ZM23.1642 25.7987C21.8582 24.3611 18.3181 20.2663 14.6783 14.3518C16.823 13.8792 22.6748 12.7239 29.1387 12.5808C28.5234 14.5512 26.6291 20.083 23.1642 25.7987ZM4.65795 10.2149C8.04002 16.9227 13.9929 26.6515 20.2956 31.0436C20.4004 31.1165 20.521 31.1518 20.6404 31.1518C20.822 31.1518 21.0008 31.0708 21.1185 30.9178C26.9237 23.3692 29.7849 14.5935 30.3962 12.5653C30.4112 12.5653 30.426 12.5649 30.441 12.5649C32.4784 12.5649 33.7661 12.7215 34.4163 12.8303C34.1233 14.6002 32.974 20.4361 29.8166 26.1167C26.6279 31.8535 22.5781 37.7238 21.329 39.5037C14.5145 33.3868 6.93303 21.0544 4.65795 10.2149ZM34.1912 25.302C30.5731 30.9451 27.3259 34.9196 23.9879 37.7461C25.8246 35.0299 28.5669 30.8263 30.8675 26.6871C34.7388 19.7221 35.6513 12.7307 35.6882 12.4365C35.7248 12.1469 35.5421 11.8741 35.2579 11.794C35.1981 11.7769 33.7536 11.38 30.441 11.38C22.9259 11.38 15.9435 12.8455 14.0318 13.2818C13.4361 12.2803 12.8413 11.2344 12.2567 10.1421C19.3826 6.88697 23.9644 6.87773 29.2689 6.891H29.6987C34.3325 6.891 40.0155 7.63367 41.7784 7.88085C41.3864 10.8164 38.0743 19.2447 34.1912 25.302Z" fill="white"/>
<path d="M57.8949 18.2741C59.815 18.798 61.099 20.0436 61.099 22.4418C61.099 25.2823 59.3556 27.1566 55.7628 27.1566H48.7539V10.3345H54.2668C57.9421 10.3345 59.8739 12.0807 59.8739 14.9445C59.8739 16.423 59.2261 17.6339 57.8949 18.2741ZM54.3021 13.2334H52.1582V17.1915H54.4553C55.9631 17.1915 56.6227 16.3067 56.6227 15.1659C56.6227 14.0483 55.8806 13.2334 54.3021 13.2334ZM55.1031 24.1645C57.0114 24.1645 57.671 23.1517 57.671 22.0574C57.671 20.9398 57.0232 19.8805 55.0324 19.8805H52.1582V24.1645H55.1031ZM74.6957 13.408H68.3816V17.2265H73.977V20.2649H68.3816V24.0716H74.6957V27.1566H64.8245V10.3345H74.6957V13.408ZM91.6845 10.3342L86.0892 19.1002V27.1563H82.5435V19.1819L76.9129 10.3342H80.8237L84.2987 16.0618L87.7855 10.3342H91.6845ZM102.195 27.3892C97.1885 27.3892 93.4894 24.0131 93.4894 18.7394C93.4894 13.4542 97.1883 10.1016 102.195 10.1016C107.189 10.1016 110.888 13.4543 110.888 18.7394C110.888 24.013 107.189 27.3892 102.195 27.3892ZM102.195 24.1878C105.128 24.1878 107.378 22.1505 107.378 18.7396C107.378 15.3403 105.128 13.3146 102.195 13.3146C99.2617 13.3146 97.0118 15.3402 97.0118 18.7396C97.0118 22.1505 99.2617 24.1878 102.195 24.1878ZM126.347 10.3342H129.869V27.1563H125.781L118.242 15.1306V27.1563H114.72V10.3342H118.76L126.346 22.2903L126.347 10.3342ZM134.854 27.1563V10.3342H141.015C146.446 10.3342 149.131 13.7103 149.131 18.7396C149.131 23.7804 146.446 27.1563 141.015 27.1563H134.854ZM138.388 24.0713H140.838C143.972 24.0713 145.409 22.1389 145.409 18.7396C145.409 15.3403 143.972 13.4078 140.838 13.4078H138.388V24.0713Z" fill="white"/>
<path d="M59.9707 33.2887C59.3088 33.2887 58.791 32.9545 58.791 32.2034V30.2659H59.4174V32.1188C59.4174 32.5728 59.6617 32.742 59.9707 32.742C60.2818 32.742 60.5281 32.5707 60.5281 32.1188V30.2659H61.1545V32.2034C61.1545 32.9545 60.6346 33.2887 59.9707 33.2887ZM63.9335 30.266H64.5578V33.2475H63.8333L62.497 31.116V33.2475H61.8728V30.266H62.5889L63.9335 32.385V30.266ZM65.3386 33.2475V30.266H65.965V33.2475H65.3386ZM69.7294 33.3713L69.2074 33.5673L68.8212 33.1381C68.6082 33.2351 68.3619 33.2887 68.0946 33.2887C67.1968 33.2887 66.5329 32.6904 66.5329 31.7556C66.5329 30.8189 67.1968 30.2246 68.0946 30.2246C68.9924 30.2246 69.6563 30.8189 69.6563 31.7556C69.6563 32.1993 69.5081 32.5665 69.2555 32.8307L69.7294 33.3713ZM67.1571 31.7557C67.1571 32.3912 67.5643 32.7502 68.0946 32.7502C68.6249 32.7502 69.0321 32.3912 69.0321 31.7557C69.0321 31.1532 68.6249 30.7941 68.0946 30.7941C67.5643 30.7941 67.1571 31.1532 67.1571 31.7557ZM71.3809 33.2887C70.7191 33.2887 70.2013 32.9545 70.2013 32.2034V30.2659H70.8276V32.1188C70.8276 32.5728 71.0719 32.742 71.3809 32.742C71.692 32.742 71.9384 32.5707 71.9384 32.1188V30.2659H72.5647V32.2034C72.5647 32.9545 72.0449 33.2887 71.3809 33.2887ZM75.0327 30.8107H73.9136V31.4875H74.9053V32.026H73.9136V32.7007H75.0327V33.2475H73.283V30.266H75.0327V30.8107ZM78.8076 33.2475L78.5884 32.6326H77.321L77.1018 33.2475H76.4608L77.5716 30.266H78.3378L79.4486 33.2475H78.8076ZM77.5047 32.1147H78.4045L77.9557 30.8498L77.5047 32.1147ZM81.1564 30.266C81.7472 30.266 82.1147 30.6993 82.1147 31.2296C82.1147 31.7722 81.7472 32.1787 81.1564 32.1787H80.5279V33.2475H79.9015V30.266L81.1564 30.266ZM81.052 31.6607C81.3651 31.6607 81.5113 31.4895 81.5113 31.2212C81.5113 30.9633 81.3651 30.7838 81.052 30.7838H80.5279V31.6607H81.052ZM83.8957 30.266C84.4865 30.266 84.854 30.6993 84.854 31.2296C84.854 31.7722 84.4865 32.1787 83.8957 32.1787H83.2672V33.2475H82.6408V30.266L83.8957 30.266ZM83.7913 31.6607C84.1044 31.6607 84.2506 31.4895 84.2506 31.2212C84.2506 30.9633 84.1044 30.7838 83.7913 30.7838H83.2672V31.6607H83.7913ZM86.9732 33.2475L86.1881 31.9352H86.0065V33.2475H85.3801V30.266H86.4742C87.1569 30.266 87.445 30.6642 87.445 31.1574C87.445 31.5576 87.2154 31.8176 86.8061 31.9043L87.7144 33.2476L86.9732 33.2475ZM86.0065 30.7796V31.4915H86.3761C86.7101 31.4915 86.8458 31.3512 86.8458 31.1366C86.8458 30.924 86.7101 30.7796 86.3761 30.7796L86.0065 30.7796ZM89.51 33.2887C88.6226 33.2887 87.967 32.6904 87.967 31.7557C87.967 30.8189 88.6226 30.2246 89.51 30.2246C90.3952 30.2246 91.0508 30.8189 91.0508 31.7557C91.0508 32.6904 90.3952 33.2887 89.51 33.2887ZM89.51 32.7213C90.0298 32.7213 90.4286 32.3602 90.4286 31.7557C90.4286 31.1532 90.0299 30.7941 89.51 30.7941C88.9901 30.7941 88.5913 31.1532 88.5913 31.7557C88.5913 32.3602 88.9901 32.7213 89.51 32.7213ZM93.6461 33.2475L93.4269 32.6326H92.1596L91.9404 33.2475H91.2994L92.4101 30.266H93.1764L94.2871 33.2475H93.6461ZM92.3432 32.1147H93.2431L92.7942 30.8498L92.3432 32.1147ZM96.0763 33.2887C95.189 33.2887 94.5334 32.6924 94.5334 31.7557C94.5334 30.8189 95.189 30.2246 96.0763 30.2246C96.7486 30.2246 97.2873 30.5651 97.5024 31.1304L96.9177 31.3409C96.7841 30.9943 96.4647 30.7941 96.0763 30.7941C95.5565 30.7941 95.1577 31.1531 95.1577 31.7556C95.1577 32.3582 95.5564 32.7192 96.0763 32.7192C96.4647 32.7192 96.7841 32.517 96.9177 32.1704L97.5024 32.3808C97.2873 32.9462 96.7486 33.2887 96.0763 33.2887ZM99.9181 30.266H100.544V33.2475H99.9181V32.0218H98.6424V33.2475H98.016V30.266H98.6424V31.4834H99.9181V30.266ZM101.668 34.0068H101.238L101.499 32.6574H102.117L101.668 34.0068ZM104.956 33.2887C104.294 33.2887 103.776 32.9545 103.776 32.2034V30.2659H104.403V32.1188C104.403 32.5728 104.647 32.742 104.956 32.742C105.267 32.742 105.514 32.5707 105.514 32.1188V30.2659H106.14V32.2034C106.14 32.9545 105.62 33.2887 104.956 33.2887ZM108.919 30.266H109.543V33.2475H108.819L107.482 31.116V33.2475H106.858V30.266H107.574L108.919 32.385V30.266ZM110.324 33.2475V30.266H110.95V33.2475H110.324ZM114.715 33.3713L114.193 33.5673L113.807 33.1381C113.594 33.2351 113.347 33.2887 113.08 33.2887C112.182 33.2887 111.518 32.6904 111.518 31.7556C111.518 30.8189 112.182 30.2246 113.08 30.2246C113.978 30.2246 114.642 30.8189 114.642 31.7556C114.642 32.1993 114.494 32.5665 114.241 32.8307L114.715 33.3713ZM112.143 31.7557C112.143 32.3912 112.55 32.7502 113.08 32.7502C113.61 32.7502 114.017 32.3912 114.017 31.7557C114.017 31.1532 113.61 30.7941 113.08 30.7941C112.55 30.7941 112.143 31.1532 112.143 31.7557ZM116.366 33.2887C115.704 33.2887 115.187 32.9545 115.187 32.2034V30.2659H115.813V32.1188C115.813 32.5728 116.057 32.742 116.366 32.742C116.677 32.742 116.924 32.5707 116.924 32.1188V30.2659H117.55V32.2034C117.55 32.9545 117.03 33.2887 116.366 33.2887ZM120.018 30.8107H118.899V31.4875H119.891V32.026H118.899V32.7007H120.018V33.2475H118.268V30.266H120.018V30.8107ZM123.367 33.2475L122.582 31.9352H122.4V33.2475H121.774V30.266H122.868C123.551 30.266 123.839 30.6642 123.839 31.1574C123.839 31.5576 123.609 31.8176 123.2 31.9043L124.108 33.2476L123.367 33.2475ZM122.4 30.7796V31.4915H122.77C123.104 31.4915 123.24 31.3512 123.24 31.1366C123.24 30.924 123.104 30.7796 122.77 30.7796L122.4 30.7796ZM126.317 30.8107H125.198V31.4875H126.19V32.026H125.198V32.7007H126.317V33.2475H124.568V30.266H126.317V30.8107ZM127.965 33.2887C127.317 33.2887 126.812 32.9813 126.72 32.4221L127.367 32.2756C127.409 32.6099 127.658 32.7832 127.99 32.7832C128.244 32.7832 128.447 32.6718 128.445 32.42C128.443 32.1394 128.109 32.0507 127.741 31.9393C127.298 31.8031 126.825 31.6421 126.825 31.0933C126.825 30.5382 127.284 30.2246 127.889 30.2246C128.42 30.2246 128.954 30.4371 129.075 31.0087L128.47 31.1572C128.413 30.8601 128.211 30.7301 127.927 30.7301C127.674 30.7301 127.459 30.8333 127.459 31.0788C127.459 31.3079 127.756 31.3842 128.098 31.4853C128.553 31.6215 129.092 31.7948 129.092 32.3891C129.092 33.0225 128.555 33.2887 127.965 33.2887ZM130.787 33.2887C130.125 33.2887 129.608 32.9545 129.608 32.2034V30.2659H130.234V32.1188C130.234 32.5728 130.478 32.742 130.787 32.742C131.098 32.742 131.345 32.5707 131.345 32.1188V30.2659H131.971V32.2034C131.971 32.9545 131.451 33.2887 130.787 33.2887ZM133.316 32.7007H134.262V33.2475H132.689V30.266H133.316V32.7007ZM136.489 30.266V30.8107H135.773V33.2475H135.153V30.8107H134.433V30.266H136.489ZM137.965 33.2887C137.318 33.2887 136.813 32.9813 136.721 32.4221L137.368 32.2756C137.41 32.6099 137.659 32.7832 137.99 32.7832C138.245 32.7832 138.448 32.6718 138.446 32.42C138.444 32.1394 138.109 32.0507 137.742 31.9393C137.299 31.8031 136.825 31.6421 136.825 31.0933C136.825 30.5382 137.285 30.2246 137.89 30.2246C138.421 30.2246 138.955 30.4371 139.076 31.0087L138.471 31.1572C138.414 30.8601 138.212 30.7301 137.928 30.7301C137.675 30.7301 137.46 30.8333 137.46 31.0788C137.46 31.3079 137.757 31.3842 138.099 31.4853C138.554 31.6215 139.093 31.7948 139.093 32.3891C139.093 33.0225 138.556 33.2887 137.965 33.2887Z" fill="white"/>
</svg>
