<svg width="152" height="44" viewBox="0 0 152 44" fill="none" xmlns="http://www.w3.org/2000/svg">
<path d="M42.735 6.69164C41.6868 6.04768 35.757 2.83594 21.9282 2.83594C9.36919 2.83594 3.46049 5.46913 3.21517 5.58105C2.98682 5.6855 2.84869 5.91953 2.86919 6.16718C3.87907 18.3424 13.0802 33.8312 21.0403 40.6588C21.1521 40.7549 21.2923 40.8038 21.4332 40.8038C21.547 40.8038 21.6609 40.7719 21.761 40.7071C26.3141 37.767 30.46 33.156 35.204 25.7565C39.3391 19.3066 43.0181 10.0041 43.0181 7.19477C43.0181 6.98995 42.911 6.79959 42.735 6.69164ZM38.2386 6.06948C35.7398 5.79819 32.5303 5.52636 29.6987 5.52636H29.2695C23.6854 5.52091 18.8721 5.52174 11.1768 9.15473C11.0304 9.22388 10.9183 9.34883 10.8668 9.50098C10.8153 9.65348 10.8285 9.81979 10.9031 9.96216C15.6324 18.9696 21.1367 25.1838 22.5088 26.6688C21.8898 27.6377 21.2274 28.606 20.516 29.5569C13.5327 24.3735 7.01222 12.5596 4.26473 6.4428C5.9677 5.8178 11.7458 4.02088 21.9282 4.02088C29.847 4.02089 35.0694 5.0743 38.2386 6.06948ZM23.1642 25.619C21.8582 24.1814 18.3181 20.0867 14.6783 14.1722C16.823 13.6995 22.6748 12.5442 29.1387 12.4011C28.5234 14.3715 26.6291 19.9033 23.1642 25.619ZM4.65795 10.0352C8.04002 16.743 13.9929 26.4718 20.2956 30.8639C20.4004 30.9368 20.521 30.9721 20.6404 30.9721C20.822 30.9721 21.0008 30.8911 21.1185 30.7381C26.9237 23.1895 29.7849 14.4138 30.3962 12.3856C30.4112 12.3856 30.426 12.3853 30.441 12.3853C32.4784 12.3853 33.7661 12.5418 34.4163 12.6506C34.1233 14.4205 32.974 20.2564 29.8166 25.937C26.6279 31.6738 22.5781 37.5441 21.329 39.3241C14.5145 33.2071 6.93303 20.8747 4.65795 10.0352ZM34.1912 25.1223C30.5731 30.7654 27.3259 34.7399 23.9879 37.5664C25.8246 34.8502 28.5669 30.6466 30.8675 26.5074C34.7388 19.5424 35.6513 12.551 35.6882 12.2568C35.7248 11.9672 35.5421 11.6944 35.2579 11.6143C35.1981 11.5972 33.7536 11.2003 30.441 11.2003C22.9259 11.2003 15.9435 12.6659 14.0318 13.1021C13.4361 12.1006 12.8413 11.0547 12.2567 9.96245C19.3826 6.70728 23.9644 6.69804 29.2689 6.71131H29.6987C34.3325 6.71131 40.0155 7.45398 41.7784 7.70116C41.3864 10.6367 38.0743 19.065 34.1912 25.1223Z" fill="white"/>
<path d="M57.8949 18.0944C59.815 18.6183 61.099 19.864 61.099 22.2621C61.099 25.1026 59.3556 26.9769 55.7628 26.9769H48.7539V10.1548H54.2668C57.9421 10.1548 59.8739 11.901 59.8739 14.7648C59.8739 16.2433 59.2261 17.4542 57.8949 18.0944ZM54.3021 13.0537H52.1582V17.0118H54.4553C55.9631 17.0118 56.6227 16.127 56.6227 14.9862C56.6227 13.8686 55.8806 13.0537 54.3021 13.0537ZM55.1031 23.9848C57.0114 23.9848 57.671 22.972 57.671 21.8777C57.671 20.7601 57.0232 19.7008 55.0324 19.7008H52.1582V23.9848H55.1031ZM74.6957 13.2283H68.3816V17.0468H73.977V20.0852H68.3816V23.892H74.6957V26.977H64.8245V10.1549H74.6957V13.2283ZM91.6845 10.1546L86.0892 18.9205V26.9767H82.5435V19.0022L76.9129 10.1546H80.8237L84.2987 15.8822L87.7855 10.1546H91.6845ZM102.195 27.2095C97.1885 27.2095 93.4894 23.8334 93.4894 18.5597C93.4894 13.2745 97.1883 9.92188 102.195 9.92188C107.189 9.92188 110.888 13.2746 110.888 18.5597C110.888 23.8333 107.189 27.2095 102.195 27.2095ZM102.195 24.0081C105.128 24.0081 107.378 21.9708 107.378 18.5599C107.378 15.1606 105.128 13.1349 102.195 13.1349C99.2617 13.1349 97.0118 15.1605 97.0118 18.5599C97.0118 21.9709 99.2617 24.0081 102.195 24.0081ZM126.347 10.1546H129.869V26.9767H125.781L118.242 14.9509V26.9767H114.72V10.1546H118.76L126.346 22.1106L126.347 10.1546ZM134.854 26.9767V10.1546H141.015C146.446 10.1546 149.131 13.5306 149.131 18.5599C149.131 23.6007 146.446 26.9767 141.015 26.9767H134.854ZM138.388 23.8917H140.838C143.972 23.8917 145.409 21.9592 145.409 18.5599C145.409 15.1606 143.972 13.2281 140.838 13.2281H138.388V23.8917Z" fill="white"/>
<path d="M59.9707 33.111C59.3088 33.111 58.791 32.7768 58.791 32.0257V30.0882H59.4174V31.9411C59.4174 32.395 59.6617 32.5642 59.9707 32.5642C60.2818 32.5642 60.5281 32.393 60.5281 31.9411V30.0882H61.1545V32.0257C61.1545 32.7768 60.6346 33.111 59.9707 33.111ZM63.9335 30.0882H64.5578V33.0697H63.8333L62.497 30.9383V33.0697H61.8728V30.0882H62.5889L63.9335 32.2073V30.0882ZM65.3386 33.0697V30.0882H65.965V33.0697H65.3386ZM69.7294 33.1936L69.2074 33.3896L68.8212 32.9604C68.6082 33.0574 68.3619 33.111 68.0946 33.111C67.1968 33.111 66.5329 32.5126 66.5329 31.5779C66.5329 30.6411 67.1968 30.0469 68.0946 30.0469C68.9924 30.0469 69.6563 30.6411 69.6563 31.5779C69.6563 32.0215 69.5081 32.3888 69.2555 32.6529L69.7294 33.1936ZM67.1571 31.5779C67.1571 32.2135 67.5643 32.5725 68.0946 32.5725C68.6249 32.5725 69.0321 32.2135 69.0321 31.5779C69.0321 30.9754 68.6249 30.6164 68.0946 30.6164C67.5643 30.6164 67.1571 30.9754 67.1571 31.5779ZM71.3809 33.111C70.7191 33.111 70.2013 32.7768 70.2013 32.0257V30.0882H70.8276V31.9411C70.8276 32.395 71.0719 32.5642 71.3809 32.5642C71.692 32.5642 71.9384 32.393 71.9384 31.9411V30.0882H72.5647V32.0257C72.5647 32.7768 72.0449 33.111 71.3809 33.111ZM75.0327 30.6329H73.9136V31.3097H74.9053V31.8483H73.9136V32.523H75.0327V33.0698H73.283V30.0883H75.0327V30.6329ZM78.8076 33.0697L78.5884 32.4549H77.321L77.1018 33.0697H76.4608L77.5716 30.0882H78.3378L79.4486 33.0697H78.8076ZM77.5047 31.937H78.4045L77.9557 30.6721L77.5047 31.937ZM81.1564 30.0882C81.7472 30.0882 82.1147 30.5215 82.1147 31.0518C82.1147 31.5945 81.7472 32.001 81.1564 32.001H80.5279V33.0698H79.9015V30.0883L81.1564 30.0882ZM81.052 31.483C81.3651 31.483 81.5113 31.3117 81.5113 31.0435C81.5113 30.7856 81.3651 30.6061 81.052 30.6061H80.5279V31.483H81.052ZM83.8957 30.0882C84.4865 30.0882 84.854 30.5215 84.854 31.0518C84.854 31.5945 84.4865 32.001 83.8957 32.001H83.2672V33.0698H82.6408V30.0883L83.8957 30.0882ZM83.7913 31.483C84.1044 31.483 84.2506 31.3117 84.2506 31.0435C84.2506 30.7856 84.1044 30.6061 83.7913 30.6061H83.2672V31.483H83.7913ZM86.9732 33.0697L86.1881 31.7574H86.0065V33.0697H85.3801V30.0882H86.4742C87.1569 30.0882 87.445 30.4865 87.445 30.9796C87.445 31.3799 87.2154 31.6399 86.8061 31.7266L87.7144 33.0698L86.9732 33.0697ZM86.0065 30.6019V31.3137H86.3761C86.7101 31.3137 86.8458 31.1734 86.8458 30.9588C86.8458 30.7463 86.7101 30.6019 86.3761 30.6019L86.0065 30.6019ZM89.51 33.111C88.6226 33.111 87.967 32.5126 87.967 31.5779C87.967 30.6411 88.6226 30.0469 89.51 30.0469C90.3952 30.0469 91.0508 30.6411 91.0508 31.5779C91.0508 32.5126 90.3952 33.111 89.51 33.111ZM89.51 32.5436C90.0298 32.5436 90.4286 32.1825 90.4286 31.5779C90.4286 30.9754 90.0299 30.6164 89.51 30.6164C88.9901 30.6164 88.5913 30.9754 88.5913 31.5779C88.5913 32.1825 88.9901 32.5436 89.51 32.5436ZM93.6461 33.0697L93.4269 32.4549H92.1596L91.9404 33.0697H91.2994L92.4101 30.0882H93.1764L94.2871 33.0697H93.6461ZM92.3432 31.937H93.2431L92.7942 30.6721L92.3432 31.937ZM96.0763 33.111C95.189 33.111 94.5334 32.5147 94.5334 31.5779C94.5334 30.6411 95.189 30.0469 96.0763 30.0469C96.7486 30.0469 97.2873 30.3873 97.5024 30.9527L96.9177 31.1632C96.7841 30.8165 96.4647 30.6164 96.0763 30.6164C95.5565 30.6164 95.1577 30.9754 95.1577 31.5779C95.1577 32.1804 95.5564 32.5415 96.0763 32.5415C96.4647 32.5415 96.7841 32.3393 96.9177 31.9926L97.5024 32.2031C97.2873 32.7685 96.7486 33.111 96.0763 33.111ZM99.9181 30.0882H100.544V33.0697H99.9181V31.8441H98.6424V33.0697H98.016V30.0882H98.6424V31.3056H99.9181V30.0882ZM101.668 33.8291H101.238L101.499 32.4796H102.117L101.668 33.8291ZM104.956 33.111C104.294 33.111 103.776 32.7768 103.776 32.0257V30.0882H104.403V31.9411C104.403 32.395 104.647 32.5642 104.956 32.5642C105.267 32.5642 105.514 32.393 105.514 31.9411V30.0882H106.14V32.0257C106.14 32.7768 105.62 33.111 104.956 33.111ZM108.919 30.0882H109.543V33.0697H108.819L107.482 30.9383V33.0697H106.858V30.0882H107.574L108.919 32.2073V30.0882ZM110.324 33.0697V30.0882H110.95V33.0697H110.324ZM114.715 33.1936L114.193 33.3896L113.807 32.9604C113.594 33.0574 113.347 33.111 113.08 33.111C112.182 33.111 111.518 32.5126 111.518 31.5779C111.518 30.6411 112.182 30.0469 113.08 30.0469C113.978 30.0469 114.642 30.6411 114.642 31.5779C114.642 32.0215 114.494 32.3888 114.241 32.6529L114.715 33.1936ZM112.143 31.5779C112.143 32.2135 112.55 32.5725 113.08 32.5725C113.61 32.5725 114.017 32.2135 114.017 31.5779C114.017 30.9754 113.61 30.6164 113.08 30.6164C112.55 30.6164 112.143 30.9754 112.143 31.5779ZM116.366 33.111C115.704 33.111 115.187 32.7768 115.187 32.0257V30.0882H115.813V31.9411C115.813 32.395 116.057 32.5642 116.366 32.5642C116.677 32.5642 116.924 32.393 116.924 31.9411V30.0882H117.55V32.0257C117.55 32.7768 117.03 33.111 116.366 33.111ZM120.018 30.6329H118.899V31.3097H119.891V31.8483H118.899V32.523H120.018V33.0698H118.268V30.0883H120.018V30.6329ZM123.367 33.0697L122.582 31.7574H122.4V33.0697H121.774V30.0882H122.868C123.551 30.0882 123.839 30.4865 123.839 30.9796C123.839 31.3799 123.609 31.6399 123.2 31.7266L124.108 33.0698L123.367 33.0697ZM122.4 30.6019V31.3137H122.77C123.104 31.3137 123.24 31.1734 123.24 30.9588C123.24 30.7463 123.104 30.6019 122.77 30.6019L122.4 30.6019ZM126.317 30.6329H125.198V31.3097H126.19V31.8483H125.198V32.523H126.317V33.0698H124.568V30.0883H126.317V30.6329ZM127.965 33.111C127.317 33.111 126.812 32.8036 126.72 32.2444L127.367 32.0979C127.409 32.4321 127.658 32.6055 127.99 32.6055C128.244 32.6055 128.447 32.494 128.445 32.2423C128.443 31.9617 128.109 31.873 127.741 31.7615C127.298 31.6254 126.825 31.4644 126.825 30.9156C126.825 30.3605 127.284 30.0469 127.889 30.0469C128.42 30.0469 128.954 30.2594 129.075 30.831L128.47 30.9795C128.413 30.6824 128.211 30.5524 127.927 30.5524C127.674 30.5524 127.459 30.6556 127.459 30.9011C127.459 31.1301 127.756 31.2065 128.098 31.3076C128.553 31.4438 129.092 31.6171 129.092 32.2113C129.092 32.8448 128.555 33.111 127.965 33.111ZM130.787 33.111C130.125 33.111 129.608 32.7768 129.608 32.0257V30.0882H130.234V31.9411C130.234 32.395 130.478 32.5642 130.787 32.5642C131.098 32.5642 131.345 32.393 131.345 31.9411V30.0882H131.971V32.0257C131.971 32.7768 131.451 33.111 130.787 33.111ZM133.316 32.5229H134.262V33.0697H132.689V30.0882H133.316V32.5229ZM136.489 30.0882V30.633H135.773V33.0698H135.153V30.633H134.433V30.0882H136.489ZM137.965 33.111C137.318 33.111 136.813 32.8036 136.721 32.2444L137.368 32.0979C137.41 32.4321 137.659 32.6055 137.99 32.6055C138.245 32.6055 138.448 32.494 138.446 32.2423C138.444 31.9617 138.109 31.873 137.742 31.7615C137.299 31.6254 136.825 31.4644 136.825 30.9156C136.825 30.3605 137.285 30.0469 137.89 30.0469C138.421 30.0469 138.955 30.2594 139.076 30.831L138.471 30.9795C138.414 30.6824 138.212 30.5524 137.928 30.5524C137.675 30.5524 137.46 30.6556 137.46 30.9011C137.46 31.1301 137.757 31.2065 138.099 31.3076C138.554 31.4438 139.093 31.6171 139.093 32.2113C139.093 32.8448 138.556 33.111 137.965 33.111Z" fill="white"/>
</svg>
