<svg width="18" height="18" viewBox="0 0 18 18" fill="none" xmlns="http://www.w3.org/2000/svg">
<path d="M15.0233 7.14828L9.39828 12.7733C9.34604 12.8256 9.284 12.8671 9.21572 12.8954C9.14743 12.9237 9.07423 12.9383 9.00031 12.9383C8.92639 12.9383 8.8532 12.9237 8.78491 12.8954C8.71662 12.8671 8.65458 12.8256 8.60234 12.7733L2.97734 7.14828C2.8718 7.04273 2.8125 6.89958 2.8125 6.75031C2.8125 6.60105 2.8718 6.45789 2.97734 6.35234C3.08289 6.2468 3.22605 6.1875 3.37531 6.1875C3.52458 6.1875 3.66773 6.2468 3.77328 6.35234L9.00031 11.5801L14.2273 6.35234C14.2796 6.30008 14.3417 6.25863 14.4099 6.23034C14.4782 6.20206 14.5514 6.1875 14.6253 6.1875C14.6992 6.1875 14.7724 6.20206 14.8407 6.23034C14.909 6.25863 14.971 6.30008 15.0233 6.35234C15.0755 6.40461 15.117 6.46665 15.1453 6.53493C15.1736 6.60322 15.1881 6.6764 15.1881 6.75031C15.1881 6.82422 15.1736 6.89741 15.1453 6.96569C15.117 7.03398 15.0755 7.09602 15.0233 7.14828Z" fill="white"/>
</svg>
