<svg width="30" height="30" viewBox="0 0 30 30" fill="none" xmlns="http://www.w3.org/2000/svg">
<path d="M21.2888 15.6638L11.9138 25.0388C11.8267 25.1259 11.7233 25.195 11.6095 25.2421C11.4957 25.2893 11.3737 25.3135 11.2505 25.3135C11.1273 25.3135 11.0054 25.2893 10.8916 25.2421C10.7777 25.195 10.6743 25.1259 10.5872 25.0388C10.5001 24.9517 10.431 24.8483 10.3839 24.7345C10.3368 24.6207 10.3125 24.4987 10.3125 24.3755C10.3125 24.2523 10.3368 24.1304 10.3839 24.0166C10.431 23.9028 10.5001 23.7993 10.5872 23.7122L19.3001 15.0005L10.5872 6.2888C10.4113 6.11289 10.3125 5.8743 10.3125 5.62552C10.3125 5.37674 10.4113 5.13815 10.5872 4.96224C10.7632 4.78633 11.0017 4.6875 11.2505 4.6875C11.4993 4.6875 11.7379 4.78633 11.9138 4.96224L21.2888 14.3372C21.376 14.4243 21.4451 14.5277 21.4923 14.6415C21.5395 14.7553 21.5638 14.8773 21.5638 15.0005C21.5638 15.1237 21.5395 15.2457 21.4923 15.3595C21.4451 15.4733 21.376 15.5767 21.2888 15.6638Z" fill="#CBD5E1"/>
</svg>
