<svg width="30" height="30" viewBox="0 0 30 30" fill="none" xmlns="http://www.w3.org/2000/svg">
<path d="M19.414 23.7122C19.5011 23.7993 19.5702 23.9028 19.6174 24.0166C19.6645 24.1304 19.6888 24.2523 19.6888 24.3755C19.6888 24.4987 19.6645 24.6207 19.6174 24.7345C19.5702 24.8483 19.5011 24.9517 19.414 25.0388C19.3269 25.1259 19.2235 25.195 19.1097 25.2421C18.9959 25.2893 18.8739 25.3135 18.7507 25.3135C18.6276 25.3135 18.5056 25.2893 18.3918 25.2421C18.278 25.195 18.1746 25.1259 18.0875 25.0388L8.71246 15.6638C8.62529 15.5767 8.55614 15.4733 8.50896 15.3595C8.46178 15.2457 8.4375 15.1237 8.4375 15.0005C8.4375 14.8773 8.46178 14.7553 8.50896 14.6415C8.55614 14.5277 8.62529 14.4243 8.71246 14.3372L18.0875 4.96224C18.2634 4.78633 18.502 4.6875 18.7507 4.6875C18.9995 4.6875 19.2381 4.78633 19.414 4.96224C19.5899 5.13815 19.6888 5.37674 19.6888 5.62552C19.6888 5.8743 19.5899 6.11289 19.414 6.2888L10.7011 15.0005L19.414 23.7122Z" fill="#CBD5E1"/>
</svg>
