<svg width="16" height="17" viewBox="0 0 16 17" fill="none" xmlns="http://www.w3.org/2000/svg">
<path d="M13.354 6.68606L8.35403 11.6861C8.30759 11.7325 8.25245 11.7694 8.19175 11.7946C8.13105 11.8198 8.06599 11.8327 8.00028 11.8327C7.93457 11.8327 7.86951 11.8198 7.80881 11.7946C7.74811 11.7694 7.69296 11.7325 7.64653 11.6861L2.64653 6.68606C2.55271 6.59224 2.5 6.46499 2.5 6.33231C2.5 6.19963 2.55271 6.07238 2.64653 5.97856C2.74035 5.88474 2.8676 5.83203 3.00028 5.83203C3.13296 5.83203 3.26021 5.88474 3.35403 5.97856L8.00028 10.6254L12.6465 5.97856C12.693 5.9321 12.7481 5.89525 12.8088 5.87011C12.8695 5.84497 12.9346 5.83203 13.0003 5.83203C13.066 5.83203 13.131 5.84497 13.1917 5.87011C13.2524 5.89525 13.3076 5.9321 13.354 5.97856C13.4005 6.02501 13.4373 6.08016 13.4625 6.14086C13.4876 6.20156 13.5006 6.26661 13.5006 6.33231C13.5006 6.39801 13.4876 6.46306 13.4625 6.52376C13.4373 6.58445 13.4005 6.6396 13.354 6.68606Z" fill="black"/>
</svg>
