<svg width="21" height="20" viewBox="0 0 21 20" fill="none" xmlns="http://www.w3.org/2000/svg">
<path d="M17.1925 7.94254L10.9425 14.1925C10.8845 14.2506 10.8156 14.2967 10.7397 14.3282C10.6638 14.3597 10.5825 14.3758 10.5003 14.3758C10.4182 14.3758 10.3369 14.3597 10.261 14.3282C10.1851 14.2967 10.1162 14.2506 10.0582 14.1925L3.80816 7.94254C3.69088 7.82526 3.625 7.6662 3.625 7.50035C3.625 7.3345 3.69088 7.17544 3.80816 7.05816C3.92544 6.94088 4.0845 6.875 4.25035 6.875C4.4162 6.875 4.57526 6.94088 4.69253 7.05816L10.5003 12.8668L16.3082 7.05816C16.3662 7.00009 16.4352 6.95403 16.511 6.9226C16.5869 6.89117 16.6682 6.875 16.7503 6.875C16.8325 6.875 16.9138 6.89117 16.9897 6.9226C17.0655 6.95403 17.1345 7.00009 17.1925 7.05816C17.2506 7.11623 17.2967 7.18517 17.3281 7.26104C17.3595 7.33691 17.3757 7.41823 17.3757 7.50035C17.3757 7.58247 17.3595 7.66379 17.3281 7.73966C17.2967 7.81553 17.2506 7.88447 17.1925 7.94254Z" fill="white"/>
</svg>
