<svg width="19" height="18" viewBox="0 0 19 18" fill="none" xmlns="http://www.w3.org/2000/svg">
<path d="M15.6893 7.14828L10.0643 12.7733C10.0121 12.8256 9.95002 12.8671 9.88173 12.8954C9.81345 12.9237 9.74025 12.9383 9.66633 12.9383C9.59241 12.9383 9.51921 12.9237 9.45092 12.8954C9.38264 12.8671 9.3206 12.8256 9.26836 12.7733L3.64336 7.14828C3.53781 7.04273 3.47852 6.89958 3.47852 6.75031C3.47852 6.60105 3.53781 6.45789 3.64336 6.35234C3.74891 6.2468 3.89206 6.1875 4.04133 6.1875C4.1906 6.1875 4.33375 6.2468 4.4393 6.35234L9.66633 11.5801L14.8934 6.35234C14.9456 6.30008 15.0077 6.25863 15.0759 6.23034C15.1442 6.20206 15.2174 6.1875 15.2913 6.1875C15.3652 6.1875 15.4384 6.20206 15.5067 6.23034C15.575 6.25863 15.637 6.30008 15.6893 6.35234C15.7416 6.40461 15.783 6.46665 15.8113 6.53493C15.8396 6.60322 15.8541 6.6764 15.8541 6.75031C15.8541 6.82422 15.8396 6.89741 15.8113 6.96569C15.783 7.03398 15.7416 7.09602 15.6893 7.14828Z" fill="black"/>
</svg>
