<svg width="14" height="15" viewBox="0 0 14 15" fill="none" xmlns="http://www.w3.org/2000/svg">
<path d="M11.6848 6.05977L7.30977 10.4348C7.26914 10.4755 7.22089 10.5077 7.16778 10.5297C7.11467 10.5518 7.05774 10.5631 7.00024 10.5631C6.94275 10.5631 6.88582 10.5518 6.83271 10.5297C6.7796 10.5077 6.73134 10.4755 6.69071 10.4348L2.31571 6.05977C2.23362 5.97768 2.1875 5.86634 2.1875 5.75024C2.1875 5.63415 2.23362 5.5228 2.31571 5.44071C2.3978 5.35862 2.50915 5.3125 2.62524 5.3125C2.74134 5.3125 2.85268 5.35862 2.93477 5.44071L7.00024 9.50673L11.0657 5.44071C11.1064 5.40006 11.1546 5.36782 11.2077 5.34582C11.2608 5.32382 11.3178 5.3125 11.3752 5.3125C11.4327 5.3125 11.4897 5.32382 11.5428 5.34582C11.5959 5.36782 11.6441 5.40006 11.6848 5.44071C11.7254 5.48136 11.7577 5.52962 11.7797 5.58273C11.8017 5.63584 11.813 5.69276 11.813 5.75024C11.813 5.80773 11.8017 5.86465 11.7797 5.91776C11.7577 5.97087 11.7254 6.01913 11.6848 6.05977Z" fill="#71717A"/>
</svg>
