<svg width="385" height="246" viewBox="0 0 385 246" fill="none" xmlns="http://www.w3.org/2000/svg">
<path d="M3.53711 203.98V226.456H36.4074H72.6586V203.98H3.53711Z" fill="#F5F5F5"/>
<path d="M0.640625 197.697V203.982H75.0749V197.697H36.4088H0.640625Z" fill="#E0E0E0"/>
<path d="M37.8572 226.457H72.6594V203.982H75.0743V197.697H36.4082V203.4L37.8572 226.457Z" fill="#E0E0E0"/>
<path d="M27.2265 207.604H13.209V210.984H27.2265V207.604Z" fill="#E0E0E0"/>
<path d="M29.4009 215.213H11.4043V222.359H29.4009V215.213Z" fill="white"/>
<path d="M14.1738 175.25V197.725H47.0386H83.2898V175.25H14.1738Z" fill="#F5F5F5"/>
<path d="M11.2715 168.963V175.247H85.7113V168.963H47.0397H11.2715Z" fill="#E0E0E0"/>
<path d="M48.488 197.722H83.2902V175.247H85.7106V168.963H47.0391V174.665L48.488 197.722Z" fill="#E0E0E0"/>
<path d="M37.8593 178.871H23.8418V182.252H37.8593V178.871Z" fill="#E0E0E0"/>
<path d="M40.0318 186.49H22.0352V193.636H40.0318V186.49Z" fill="white"/>
<path d="M56.6782 4.05273H5.50391V78.2291H56.6782V4.05273Z" fill="#E0E0E0"/>
<path d="M54.1098 4.05273H2.93555V78.2291H54.1098V4.05273Z" fill="#F5F5F5"/>
<path d="M47.7525 12.0879H9.29492V70.1941H47.7525V12.0879Z" fill="white"/>
<path d="M47.7529 70.1922C47.7529 70.1922 47.7529 70.0934 47.7529 69.9067C47.7529 69.7201 47.7529 69.4402 47.7529 69.0835C47.7529 68.3535 47.7529 67.2833 47.7529 65.8947C47.7529 63.1121 47.7529 59.0506 47.72 53.9244C47.72 43.683 47.6816 29.1715 47.6596 12.086L47.7859 12.2122H9.33381L9.47102 12.075C9.47102 33.9959 9.47102 54.2043 9.47102 70.1812L9.36125 70.0714L37.3523 70.1263L45.0855 70.1537H47.1163C47.5773 70.1537 47.8188 70.1537 47.8188 70.1537H47.1382H45.1294H37.4456L9.38321 70.2141H9.27344V70.1043C9.27344 54.1275 9.27344 33.919 9.27344 11.9982V11.8555H9.41614H47.8682H47.9944V12.0915C47.9944 29.2099 47.9505 43.7488 47.934 54.0177C47.934 59.1274 47.934 63.1779 47.8956 65.9551C47.8956 67.3327 47.8956 68.3919 47.8956 69.1164C47.8956 69.4677 47.8956 69.7421 47.8956 69.9287C47.8956 70.1153 47.7529 70.1922 47.7529 70.1922Z" fill="#E0E0E0"/>
<path d="M54.2573 4.05273C53.9918 4.52179 53.6851 4.96628 53.3408 5.38094C52.748 6.17128 51.9028 7.2525 50.9423 8.42154C49.9818 9.59058 49.0762 10.6169 48.4121 11.3633C48.0797 11.7781 47.7125 12.1637 47.3145 12.5159C47.6024 12.0621 47.9293 11.6342 48.2914 11.2371L50.7283 8.2514L53.1871 5.26019C53.5093 4.82838 53.8673 4.42447 54.2573 4.05273Z" fill="#E0E0E0"/>
<path d="M47.9297 70.0059C49.8408 73.0461 52.0908 75.8595 54.6366 78.3922L47.9297 70.0059Z" fill="white"/>
<path d="M54.6581 78.3934C54.2301 78.0829 53.838 77.7258 53.489 77.3287C51.7051 75.5081 50.1107 73.5111 48.7305 71.3682C48.4225 70.9399 48.1613 70.48 47.9512 69.9961C48.296 70.3935 48.6115 70.8153 48.8952 71.2584C49.444 72.0488 50.2508 73.1355 51.1729 74.2935C52.0949 75.4516 52.9841 76.4889 53.6317 77.186C54.002 77.5636 54.345 77.9671 54.6581 78.3934Z" fill="#E0E0E0"/>
<path d="M2.92383 78.1676L9.62522 69.8965L2.92383 78.1676Z" fill="white"/>
<path d="M9.63071 69.8965C8.62655 71.3595 7.54564 72.7683 6.39252 74.1171C5.3084 75.5274 4.15055 76.8794 2.92383 78.1676C3.93105 76.7053 5.01374 75.2966 6.1675 73.947C7.25082 72.5376 8.40678 71.1856 9.63071 69.8965Z" fill="#E0E0E0"/>
<path d="M2.92383 4.05273C4.09322 5.28742 5.19263 6.58655 6.21689 7.94404C7.30386 9.23995 8.31716 10.5959 9.252 12.0055C8.09762 10.7681 7.01115 9.46913 5.99736 8.11418C4.9015 6.81587 3.87554 5.46013 2.92383 4.05273Z" fill="#E0E0E0"/>
<path d="M35.7724 23.8809H22.8965V60.4449H35.7724V23.8809Z" fill="#E0E0E0"/>
<path d="M332.779 218.596C331.571 217.559 328.871 214.271 330.951 210.446C331.714 209.041 333.338 208.349 334.793 207.729C336.247 207.109 337.8 206.576 339.019 205.534C341.308 203.585 341.939 200.347 343.459 197.751C345.204 194.765 348.459 192.532 351.9 192.685C355.841 192.866 359.129 196.083 360.616 199.754C362.103 203.426 362.158 207.499 362.191 211.461C362.191 213.657 362.109 216.121 360.501 217.603C359.019 218.969 356.785 218.986 354.776 218.92L333.24 218.261" fill="#F5F5F5"/>
<path d="M373.971 159.383H317.336L327.539 220.211C327.749 221.479 328.316 222.662 329.172 223.621C330.028 224.58 331.138 225.276 332.374 225.628L332.572 225.683C332.742 225.722 332.901 225.782 333.077 225.809C333.456 225.887 333.842 225.931 334.229 225.941V226.002L334.509 225.958H359.756C360.222 225.957 360.687 225.911 361.145 225.82C362.617 225.592 363.975 224.887 365.009 223.813C366.042 222.74 366.696 221.357 366.869 219.876L371.809 177.961L372.028 176.315H372.001L373.944 159.696L373.971 159.383ZM363.285 198.181H357.478L358.066 180.53H364.8L363.285 198.181ZM365.36 180.53H370.925L368.85 198.181H363.851L365.36 180.53ZM348.757 217.752L348.401 202.418H356.77L356.26 217.752H348.757ZM339.707 202.418H347.841L348.192 217.752H340.898L339.707 202.418ZM340.333 217.752H333.516C332.868 213.614 332.023 208.23 331.112 202.418H339.142L340.333 217.752ZM339.367 198.181L337.994 180.53H347.325L347.731 198.181H339.367ZM348.291 198.181L347.885 180.53H357.478L356.93 198.181H348.291ZM347.791 176.293L347.413 159.948H358.17L357.621 176.293H347.791ZM347.242 176.293H337.676L336.408 159.948H346.836L347.242 176.293ZM337.116 176.293H326.996C326.639 174.037 326.299 171.902 325.991 169.976C324.937 163.389 324.542 160.881 324.345 159.948H335.87L337.116 176.293ZM337.446 180.53L338.818 198.181H330.448C330.168 196.391 329.899 194.58 329.597 192.769C328.939 188.598 328.285 184.432 327.665 180.53H337.446ZM329.883 198.181H324.394L321.43 180.53H327.078C327.962 185.985 328.939 192.056 329.877 198.181H329.883ZM330.552 202.418C331.381 207.725 332.199 212.956 332.951 217.752H327.704L325.13 202.418H330.552ZM356.831 217.752L357.341 202.418H362.928L361.622 217.752H356.831ZM358.208 176.293L358.757 159.948H366.562L365.162 176.293H358.208ZM323.79 159.948C324.015 161.128 325.047 167.561 326.43 176.293H320.744L318 159.948H323.79ZM366.562 217.752H362.171L363.516 202.418H368.384L366.562 217.752ZM371.425 176.293H365.711L367.105 159.948H373.34L371.425 176.293Z" fill="#E0E0E0"/>
<path d="M375.233 8.02734V57.835H303.697L301.117 8.3786L375.233 8.02734Z" fill="#E0E0E0"/>
<path d="M301.117 8.37643V57.7285L372.654 57.7285V8.37643L301.117 8.37643Z" fill="white"/>
<path d="M372.992 58.0717H300.775V8.03906H372.992V58.0717ZM301.456 57.3912H372.295V8.71963H301.456V57.3912Z" fill="#E0E0E0"/>
<path d="M364.904 14.5078H308.867V51.5987H364.904V14.5078Z" fill="white"/>
<path d="M364.904 14.5079H364.63H363.834H360.755L349.229 14.5518L308.889 14.6342L309.048 14.4695C309.048 25.8032 309.048 38.3607 309.048 51.5549L308.873 51.3793L364.91 51.4122L364.773 51.5549C364.8 40.2652 364.827 31.0117 364.844 24.5683C364.844 21.3465 364.871 18.8328 364.882 17.104C364.882 16.2514 364.882 15.5983 364.882 15.1446C364.882 14.7 364.882 14.464 364.882 14.464C364.882 14.464 364.882 14.6781 364.882 15.1172C364.882 15.5562 364.882 16.2148 364.882 17.0491C364.882 18.767 364.882 21.2752 364.915 24.4804C364.915 30.9458 364.959 40.2323 364.992 51.5549V51.6976H364.849L308.812 51.7306H308.637V51.6098C308.637 38.4376 308.637 25.858 308.637 14.5244V14.3652H308.801L349.246 14.4421L360.771 14.486H363.818H364.591L364.904 14.5079Z" fill="#E0E0E0"/>
<path d="M301.117 8.25195C301.558 8.46544 301.971 8.73275 302.346 9.04778C303.082 9.59662 304.075 10.3266 305.151 11.1883C306.226 12.05 307.176 12.8622 307.84 13.4715C308.226 13.7756 308.571 14.1279 308.866 14.5198C308.801 14.5966 307.077 13.1751 304.931 11.4627C302.785 9.7503 301.056 8.31781 301.117 8.25195Z" fill="#E0E0E0"/>
<path d="M372.652 8.37627C372.712 8.45311 371.005 9.88559 368.887 11.5815C366.768 13.2775 364.962 14.5837 364.902 14.5069C364.842 14.43 366.548 12.9975 368.667 11.3016C370.786 9.60568 372.591 8.29943 372.652 8.37627Z" fill="#E0E0E0"/>
<path d="M372.597 57.7333L364.611 51.2734L372.597 57.7333Z" fill="white"/>
<path d="M364.611 51.2765C364.677 51.1997 366.51 52.5827 368.71 54.3665C370.911 56.1502 372.651 57.6596 372.591 57.7364C372.53 57.8132 370.692 56.4301 368.491 54.6409C366.29 52.8517 364.556 51.3478 364.611 51.2765Z" fill="#E0E0E0"/>
<path d="M301.117 57.7301C301.056 57.6532 302.725 56.2317 304.843 54.5578C306.962 52.8838 308.724 51.5885 308.784 51.6654C308.845 51.7422 307.182 53.1637 305.063 54.8377C302.944 56.5117 301.177 57.8069 301.117 57.7301Z" fill="#E0E0E0"/>
<path d="M320.244 26.0621V38.4824H355.507V26.0621H320.244Z" fill="#E0E0E0"/>
<path d="M373.971 226.455C373.971 226.532 291.469 226.598 189.718 226.598C87.968 226.598 5.44922 226.532 5.44922 226.455C5.44922 226.378 87.9351 226.312 189.718 226.312C291.501 226.312 373.971 226.373 373.971 226.455Z" fill="#263238"/>
<path d="M50.7711 34.5957H330.001C330.982 34.5957 331.923 34.9854 332.617 35.6792C333.311 36.3729 333.7 37.3138 333.7 38.2949V216.505C333.699 218.624 332.857 220.655 331.358 222.154C329.86 223.652 327.828 224.494 325.709 224.496H54.5142C52.3934 224.496 50.3594 223.653 48.8597 222.154C47.3601 220.654 46.5176 218.62 46.5176 216.499V38.8438C46.519 37.7166 46.9678 36.6361 47.7654 35.8396C48.5629 35.0431 49.644 34.5957 50.7711 34.5957Z" fill="#455A64"/>
<path d="M34.5098 210.457H345.65V219.557C345.65 221.554 344.856 223.469 343.444 224.881C342.032 226.294 340.117 227.087 338.12 227.087H42.0399C40.0428 227.087 38.1275 226.294 36.7153 224.881C35.3031 223.469 34.5098 221.554 34.5098 219.557V210.457Z" fill="#455A64"/>
<path d="M325.189 42.1309H54.2246V202.509H325.189V42.1309Z" fill="#F5F5F5"/>
<path d="M161.797 210.457L165.661 216.599H219.991L223.575 210.457H161.797Z" fill="#263238"/>
<path d="M333.751 210.396H46.5625V211.313H333.751V210.396Z" fill="#263238"/>
<path d="M130.947 34.5966H101.111V24.0808C101.111 16.6659 107.121 10.3926 114.536 10.3926L130.947 10.6505V34.5966Z" fill="#E0E0E0"/>
<path d="M113.895 10.3729C113.895 10.3729 130.876 8.83069 130.876 30.9766V203.231H264.135V24.7143C264.134 22.7902 263.754 20.8851 263.017 19.108C262.279 17.3309 261.198 15.7167 259.836 14.3577C258.474 12.9987 256.858 11.9215 255.079 11.1879C253.3 10.4542 251.394 10.0784 249.47 10.0821L113.895 10.3729Z" fill="white"/>
<path d="M113.894 10.3755L212.483 10.0571L236.358 9.99127L249.052 9.95285C251.276 9.89178 253.485 10.3322 255.516 11.2415C257.546 12.1508 259.346 13.5055 260.781 15.2053C262.25 16.9551 263.293 19.0217 263.827 21.2426C263.968 21.8006 264.072 22.3671 264.14 22.9385C264.217 23.4874 264.212 24.0856 264.25 24.6619C264.25 25.8071 264.25 26.9597 264.25 28.1196C264.25 32.7409 264.25 37.4372 264.25 42.2084C264.25 51.74 264.25 61.5442 264.25 71.621C264.25 111.873 264.25 156.143 264.25 202.575V203.377H264.107H130.848H130.716V203.245C130.716 143.607 130.754 92.9656 130.771 57.2523C130.771 48.3171 130.771 40.3149 130.771 33.3391C130.771 31.5938 130.771 29.9143 130.672 28.3062C130.576 26.7629 130.363 25.229 130.036 23.7179C129.72 22.3408 129.283 20.9945 128.729 19.6948C128.208 18.5341 127.568 17.4305 126.819 16.4018C125.537 14.6909 123.894 13.2836 122.006 12.28C120.627 11.5504 119.147 11.0289 117.615 10.7322C116.686 10.5433 115.742 10.4368 114.794 10.4139C114.157 10.4139 113.828 10.4139 113.828 10.4139C114.15 10.3947 114.472 10.3947 114.794 10.4139C115.745 10.4297 116.693 10.5289 117.626 10.7103C119.157 11.0032 120.637 11.521 122.017 12.247C123.918 13.2473 125.573 14.657 126.863 16.3743C127.619 17.4028 128.266 18.5063 128.795 19.6674C129.354 20.9722 129.797 22.324 130.118 23.7069C130.45 25.2233 130.666 26.7626 130.765 28.3117C130.886 29.9253 130.87 31.6048 130.87 33.3501C130.87 40.3259 130.87 48.3281 130.87 57.2633C130.87 92.9985 130.897 143.64 130.919 203.256L130.787 203.13H264.047L263.904 203.272V202.614C263.904 156.165 263.904 111.912 263.904 71.6594C263.904 61.5936 263.904 51.7894 263.904 42.2469V28.1196C263.871 25.809 264.074 23.4928 263.493 21.2975C262.992 19.1323 262.003 17.1103 260.6 15.3864C259.191 13.7131 257.424 12.3789 255.428 11.4828C253.433 10.5868 251.261 10.152 249.074 10.2108H236.352L212.439 10.2492L113.894 10.3755Z" fill="#263238"/>
<path d="M187.917 62.6525C187.917 62.7293 179.811 62.7952 169.805 62.7952C159.8 62.7952 151.693 62.7293 151.693 62.6525C151.693 62.5756 159.794 62.5098 169.805 62.5098C179.816 62.5098 187.917 62.5866 187.917 62.6525Z" fill="#263238"/>
<path d="M196.029 66.9767C196.029 67.059 186.111 67.1194 173.872 67.1194C161.633 67.1194 151.721 67.059 151.721 66.9767C151.721 66.8944 161.638 66.834 173.872 66.834C186.106 66.834 196.029 66.8998 196.029 66.9767Z" fill="#263238"/>
<path d="M198.937 84.0197C198.937 84.0965 188.696 84.1624 176.061 84.1624C163.427 84.1624 153.186 84.0965 153.186 84.0197C153.186 83.9428 163.427 83.877 176.061 83.877C188.696 83.877 198.937 83.9373 198.937 84.0197Z" fill="#263238"/>
<path d="M228.821 100.629C228.821 100.706 211.697 100.772 190.577 100.772C169.458 100.772 152.334 100.706 152.334 100.629C152.334 100.552 169.452 100.486 190.577 100.486C211.702 100.486 228.821 100.547 228.821 100.629Z" fill="#263238"/>
<path d="M228.821 105.578C228.821 105.661 211.697 105.721 190.577 105.721C169.458 105.721 152.334 105.661 152.334 105.578C152.334 105.496 169.452 105.436 190.577 105.436C211.702 105.436 228.821 105.501 228.821 105.578Z" fill="#263238"/>
<path d="M228.821 110.533C228.821 110.616 211.697 110.676 190.577 110.676C169.458 110.676 152.334 110.616 152.334 110.533C152.334 110.451 169.452 110.391 190.577 110.391C211.702 110.391 228.821 110.456 228.821 110.533Z" fill="#263238"/>
<path d="M228.821 115.49C228.821 115.567 211.697 115.633 190.577 115.633C169.458 115.633 152.334 115.567 152.334 115.49C152.334 115.414 169.452 115.348 190.577 115.348C211.702 115.348 228.821 115.414 228.821 115.49Z" fill="#263238"/>
<path d="M228.821 120.445C228.821 120.522 211.697 120.588 190.577 120.588C169.458 120.588 152.334 120.522 152.334 120.445C152.334 120.369 169.452 120.303 190.577 120.303C211.702 120.303 228.821 120.363 228.821 120.445Z" fill="#263238"/>
<path d="M181.34 125.402C181.34 125.479 174.842 125.545 166.834 125.545C158.827 125.545 152.334 125.479 152.334 125.402C152.334 125.326 158.827 125.26 166.834 125.26C174.842 125.26 181.34 125.32 181.34 125.402Z" fill="#263238"/>
<path d="M164.399 37.0557C164.395 36.6309 164.478 36.2098 164.645 35.8189C164.812 35.4281 165.057 35.076 165.367 34.7847C165.676 34.4934 166.042 34.2693 166.442 34.1265C166.842 33.9836 167.268 33.9252 167.692 33.9547C168.174 33.9287 168.657 34.0142 169.101 34.2046C169.546 34.3949 169.94 34.685 170.255 35.0524L169.185 36.0239C169.02 35.8074 168.807 35.6318 168.564 35.5109C168.32 35.39 168.052 35.327 167.779 35.3268C167.328 35.3268 166.895 35.5061 166.576 35.8252C166.257 36.1442 166.078 36.577 166.078 37.0283C166.078 37.4795 166.257 37.9123 166.576 38.2313C166.895 38.5504 167.328 38.7297 167.779 38.7297C168.052 38.7295 168.32 38.6665 168.564 38.5456C168.807 38.4247 169.02 38.2491 169.185 38.0326L170.255 38.9986C169.943 39.371 169.55 39.6663 169.105 39.8615C168.66 40.0566 168.177 40.1464 167.692 40.1237C167.271 40.1531 166.848 40.0955 166.45 39.9547C166.052 39.8138 165.688 39.5927 165.379 39.305C165.07 39.0173 164.824 38.6691 164.655 38.2822C164.486 37.8952 164.399 37.4778 164.399 37.0557Z" fill="#263238"/>
<path d="M175.765 38.7304V40.0311H170.984V34.0762H175.655V35.3769H172.647V36.3813H175.298V37.6437H172.647V38.7414L175.765 38.7304Z" fill="#263238"/>
<path d="M179.305 38.4395H178.388V40.0202H176.703V34.0762H179.447C181.094 34.0762 182.093 34.9159 182.093 36.2715C182.107 36.6653 182.004 37.0545 181.795 37.3889C181.587 37.7234 181.284 37.988 180.924 38.1486L182.214 40.0202H180.408L179.305 38.4395ZM179.305 35.3934H178.372V37.1387H179.305C180.002 37.1387 180.353 36.8149 180.353 36.2715C180.353 35.7282 180.018 35.4044 179.321 35.4044L179.305 35.3934Z" fill="#263238"/>
<path d="M184.179 35.4099H182.352V34.0762H187.686V35.4099H185.864V40.0311H184.179V35.4099Z" fill="#263238"/>
<path d="M188.318 34.0762H190.003V40.0311H188.318V34.0762Z" fill="#263238"/>
<path d="M192.888 35.3769V36.6887H195.517V37.9894H192.888V40.0311H191.203V34.0762H195.874V35.3769H192.888Z" fill="#263238"/>
<path d="M196.666 34.0762H198.351V40.0311H196.666V34.0762Z" fill="#263238"/>
<path d="M199.244 37.0553C199.241 36.6307 199.325 36.21 199.492 35.8195C199.659 35.4291 199.905 35.0773 200.214 34.7862C200.523 34.4951 200.889 34.2709 201.289 34.1278C201.689 33.9847 202.114 33.9256 202.537 33.9543C203.019 33.9284 203.501 34.0139 203.944 34.2043C204.388 34.3946 204.782 34.6847 205.095 35.052L204.025 36.0235C203.86 35.8067 203.648 35.6309 203.404 35.51C203.16 35.389 202.892 35.3262 202.62 35.3264C202.168 35.3264 201.736 35.5057 201.417 35.8248C201.097 36.1439 200.918 36.5766 200.918 37.0279C200.918 37.4791 201.097 37.9119 201.417 38.2309C201.736 38.55 202.168 38.7293 202.62 38.7293C202.892 38.7295 203.16 38.6667 203.404 38.5457C203.648 38.4248 203.86 38.249 204.025 38.0322L205.095 38.9982C204.784 39.3705 204.392 39.6658 203.948 39.861C203.504 40.0562 203.022 40.146 202.537 40.1233C200.633 40.1508 199.244 38.8665 199.244 37.0553Z" fill="#263238"/>
<path d="M209.717 38.8731H207.204L206.732 40.0311H205.014L207.643 34.0762H209.289L211.924 40.0311H210.173L209.717 38.8731ZM209.229 37.6327L208.46 35.7282L207.692 37.6327H209.229Z" fill="#263238"/>
<path d="M213.388 35.4099H211.561V34.0762H216.895V35.4099H215.073V40.0311H213.388V35.4099Z" fill="#263238"/>
<path d="M217.521 34.0762H219.206V40.0311H217.521V34.0762Z" fill="#263238"/>
<path d="M220.102 37.0541C220.102 35.2649 221.507 33.9531 223.395 33.9531C225.283 33.9531 226.688 35.2649 226.688 37.0541C226.688 38.8433 225.283 40.1496 223.395 40.1496C221.507 40.1496 220.102 38.8378 220.102 37.0541ZM225.041 37.0541C225.023 36.7407 224.913 36.4394 224.726 36.1875C224.539 35.9356 224.282 35.7441 223.987 35.6365C223.692 35.529 223.372 35.5102 223.066 35.5824C222.76 35.6546 222.483 35.8146 222.267 36.0428C222.051 36.271 221.907 36.5573 221.852 36.8664C221.798 37.1756 221.834 37.494 221.958 37.7824C222.082 38.0709 222.288 38.3167 222.55 38.4896C222.812 38.6626 223.119 38.755 223.433 38.7555C223.651 38.7553 223.867 38.7102 224.067 38.6231C224.267 38.536 224.447 38.4088 224.596 38.2492C224.744 38.0897 224.859 37.9012 224.932 37.6957C225.004 37.4901 225.034 37.2717 225.019 37.0541H225.041Z" fill="#263238"/>
<path d="M233.272 34.0762V40.0311H231.883L229.254 36.8588V40.0311H227.607V34.0762H228.991L231.619 37.2485V34.0762H233.272Z" fill="#263238"/>
<path d="M240.024 146.318C240.024 146.395 232.428 146.461 223.064 146.461C213.701 146.461 206.1 146.395 206.1 146.318C206.1 146.242 213.696 146.176 223.064 146.176C232.433 146.176 240.024 146.242 240.024 146.318Z" fill="#263238"/>
<path d="M240.024 151.105C240.024 151.182 232.428 151.248 223.064 151.248C213.701 151.248 206.1 151.182 206.1 151.105C206.1 151.028 213.679 150.951 223.07 150.951C232.461 150.951 240.024 151.028 240.024 151.105Z" fill="#263238"/>
<path d="M237.774 171.9C237.766 171.819 237.766 171.738 237.774 171.658C237.774 171.488 237.747 171.257 237.725 170.961C237.725 170.807 237.714 170.637 237.692 170.451C237.692 170.258 237.631 170.055 237.599 169.836C237.531 169.324 237.426 168.818 237.286 168.321C236.94 166.947 236.384 165.635 235.639 164.43C233.898 161.516 231.195 159.302 227.996 158.167C224.797 157.031 221.303 157.047 218.115 158.211C217.463 158.446 216.829 158.725 216.216 159.046C215.594 159.388 214.997 159.771 214.426 160.193C213.847 160.625 213.297 161.094 212.78 161.598C212.268 162.13 211.791 162.694 211.353 163.288C210.447 164.504 209.744 165.859 209.273 167.3C208.27 170.283 208.27 173.511 209.273 176.493C209.744 177.934 210.447 179.289 211.353 180.505C211.791 181.099 212.268 181.664 212.78 182.196C213.297 182.7 213.847 183.169 214.426 183.601C215.546 184.449 216.79 185.119 218.115 185.588C220.559 186.475 223.196 186.696 225.754 186.23C227.793 185.849 229.727 185.04 231.43 183.856C233.133 182.673 234.566 181.141 235.634 179.364C236.379 178.159 236.934 176.846 237.28 175.472C237.421 174.976 237.526 174.47 237.593 173.958C237.626 173.738 237.664 173.535 237.686 173.348C237.708 173.162 237.686 172.986 237.719 172.833C237.719 172.536 237.758 172.284 237.769 172.136C237.76 172.057 237.76 171.978 237.769 171.9C237.776 171.978 237.776 172.057 237.769 172.136V172.838C237.769 172.992 237.769 173.167 237.769 173.354C237.769 173.541 237.719 173.749 237.686 173.974C237.631 174.489 237.536 175 237.401 175.5C237.073 176.89 236.532 178.221 235.798 179.446C234.051 182.416 231.32 184.681 228.078 185.848C224.836 187.015 221.288 187.01 218.049 185.835C217.384 185.598 216.737 185.315 216.111 184.989C215.476 184.645 214.867 184.254 214.289 183.82C213.694 183.383 213.13 182.906 212.599 182.393C212.076 181.852 211.59 181.276 211.144 180.67C210.219 179.431 209.502 178.05 209.02 176.581C207.996 173.542 207.996 170.251 209.02 167.212C209.503 165.744 210.22 164.363 211.144 163.123C211.591 162.518 212.078 161.944 212.604 161.406C213.133 160.891 213.696 160.413 214.289 159.973C215.954 158.744 217.859 157.878 219.88 157.432C221.901 156.985 223.993 156.969 226.021 157.383C228.049 157.796 229.967 158.632 231.651 159.835C233.336 161.037 234.748 162.58 235.798 164.364C236.531 165.59 237.072 166.92 237.401 168.31C237.536 168.812 237.632 169.324 237.686 169.841C237.719 170.066 237.752 170.269 237.769 170.456C237.785 170.643 237.769 170.818 237.769 170.977V171.675C237.777 171.749 237.779 171.825 237.774 171.9Z" fill="black"/>
<path d="M232.252 174.076C233.46 168.998 230.322 163.902 225.244 162.694C220.166 161.487 215.071 164.624 213.863 169.702C212.655 174.78 215.792 179.876 220.87 181.084C225.948 182.291 231.044 179.154 232.252 174.076Z" fill="black"/>
<path d="M244.084 163.76L243.689 163.979L242.509 164.605L237.97 166.971L230.797 170.708C230.067 171.088 229.278 171.34 228.464 171.455C228.021 171.51 227.57 171.472 227.143 171.341C226.715 171.21 226.32 170.991 225.983 170.697C225.625 170.387 225.371 169.976 225.253 169.517C225.186 169.278 225.18 169.026 225.234 168.783C225.289 168.541 225.403 168.316 225.566 168.129C225.909 167.754 226.383 167.526 226.889 167.492C227.154 167.456 227.424 167.507 227.658 167.638C227.891 167.769 228.076 167.972 228.184 168.216V168.255C228.198 169.84 227.634 171.375 226.598 172.574C226.057 173.222 225.387 173.752 224.632 174.13C223.876 174.507 223.051 174.725 222.207 174.77C221.318 174.817 220.427 174.686 219.589 174.383C218.751 174.081 217.982 173.613 217.328 173.008C216.621 172.388 216.129 171.56 215.923 170.642C215.828 170.159 215.894 169.658 216.11 169.215C216.329 168.762 216.708 168.406 217.174 168.216C217.416 168.124 217.677 168.094 217.933 168.129C218.19 168.165 218.433 168.265 218.64 168.419C219.035 168.735 219.324 169.164 219.469 169.649C219.625 170.118 219.701 170.609 219.694 171.103C219.716 171.348 219.716 171.594 219.694 171.839C219.682 172.086 219.651 172.332 219.6 172.574C219.214 174.57 218.128 176.363 216.538 177.629C215.736 178.293 214.804 178.783 213.803 179.066C212.801 179.35 211.751 179.421 210.72 179.276C208.596 178.919 206.689 177.76 205.396 176.037C204.641 175.072 204.119 173.945 203.87 172.744C203.601 171.551 203.695 170.305 204.139 169.166C204.381 168.596 204.79 168.113 205.314 167.783C205.845 167.455 206.478 167.336 207.092 167.448C207.393 167.516 207.674 167.65 207.917 167.84C208.16 168.03 208.358 168.271 208.497 168.546C208.765 169.066 208.961 169.62 209.079 170.192C209.594 172.411 209.453 174.732 208.673 176.872C207.934 178.932 206.51 180.676 204.639 181.811C202.858 182.897 200.766 183.355 198.695 183.112C197.707 182.992 196.751 182.683 195.879 182.201C195.036 181.726 194.291 181.094 193.684 180.34C192.511 178.923 191.869 177.142 191.867 175.302C191.885 174.436 192.072 173.583 192.416 172.788C192.564 172.395 192.791 172.037 193.084 171.735C193.377 171.434 193.729 171.196 194.117 171.037C194.513 170.914 194.934 170.903 195.336 171.005C195.713 171.128 196.056 171.337 196.34 171.614C196.87 172.147 197.266 172.798 197.498 173.513C197.737 174.173 197.861 174.869 197.866 175.571C197.866 175.911 197.866 176.24 197.866 176.57C197.866 176.899 197.839 177.217 197.806 177.53C197.6 179.686 196.971 181.781 195.956 183.694C195.318 184.9 194.529 186.019 193.607 187.025C193.294 187.371 193.031 187.613 192.855 187.777C192.679 187.942 192.586 188.019 192.586 188.019C192.586 188.019 192.668 187.925 192.839 187.755C193.009 187.585 193.256 187.338 193.563 186.987C194.46 185.969 195.23 184.847 195.857 183.644C196.845 181.738 197.452 179.658 197.647 177.519C197.679 177.206 197.696 176.888 197.701 176.564C197.707 176.24 197.701 175.911 197.701 175.576C197.692 174.893 197.567 174.216 197.334 173.573C197.114 172.891 196.738 172.269 196.236 171.756C195.973 171.505 195.656 171.317 195.308 171.208C194.947 171.117 194.567 171.128 194.211 171.241C193.849 171.392 193.523 171.617 193.252 171.9C192.981 172.183 192.771 172.519 192.636 172.887C192.315 173.656 192.146 174.48 192.136 175.313C192.147 177.099 192.775 178.827 193.914 180.203C194.507 180.945 195.24 181.562 196.072 182.02C196.903 182.477 197.817 182.766 198.761 182.871C200.775 183.102 202.809 182.654 204.54 181.597C206.36 180.487 207.743 178.783 208.453 176.773C209.214 174.684 209.35 172.418 208.843 170.253C208.733 169.705 208.548 169.175 208.294 168.677C208.175 168.435 208.003 168.222 207.791 168.054C207.58 167.886 207.333 167.767 207.07 167.706C206.527 167.607 205.966 167.717 205.5 168.013C205.023 168.309 204.652 168.749 204.441 169.27C204.017 170.353 203.929 171.539 204.189 172.673C204.43 173.832 204.935 174.919 205.665 175.851C206.915 177.512 208.753 178.631 210.802 178.979C211.796 179.114 212.807 179.041 213.771 178.765C214.735 178.488 215.63 178.013 216.401 177.371C217.94 176.149 218.991 174.416 219.364 172.486C219.452 172.02 219.489 171.545 219.474 171.07C219.483 170.604 219.412 170.14 219.265 169.698C219.136 169.268 218.882 168.887 218.536 168.601C218.364 168.473 218.162 168.391 217.95 168.362C217.738 168.333 217.522 168.359 217.323 168.436C216.92 168.603 216.592 168.912 216.401 169.303C216.209 169.695 216.152 170.138 216.236 170.565C216.437 171.419 216.901 172.187 217.564 172.761C218.19 173.344 218.927 173.796 219.732 174.09C220.536 174.383 221.391 174.511 222.246 174.468C223.055 174.425 223.846 174.216 224.571 173.854C225.295 173.491 225.937 172.983 226.455 172.36C227.46 171.205 228.01 169.725 228.003 168.194V168.233C227.913 168.026 227.755 167.855 227.556 167.749C227.357 167.642 227.128 167.606 226.905 167.646C226.458 167.67 226.037 167.867 225.731 168.194C225.588 168.357 225.489 168.553 225.441 168.763C225.393 168.974 225.398 169.194 225.456 169.402C225.56 169.828 225.794 170.212 226.126 170.5C226.44 170.777 226.809 170.985 227.21 171.108C227.61 171.231 228.032 171.267 228.448 171.213C229.242 171.108 230.013 170.867 230.725 170.5L237.915 166.839L242.487 164.528L243.678 163.93L244.084 163.76Z" fill="#263238"/>
<path d="M194.919 28.3654C194.919 28.4477 183.311 28.5135 168.991 28.5135C154.672 28.5135 143.059 28.4477 143.059 28.3654C143.059 28.283 154.667 28.2227 168.991 28.2227C183.316 28.2227 194.919 28.2885 194.919 28.3654Z" fill="#E0E0E0"/>
<path d="M203.565 28.3654C202.373 28.5629 201.157 28.5629 199.965 28.3654C201.157 28.1751 202.373 28.1751 203.565 28.3654Z" fill="#E0E0E0"/>
<path d="M255.188 28.3654C255.188 28.4477 244.595 28.5135 231.538 28.5135C218.481 28.5135 207.889 28.4477 207.889 28.3654C207.889 28.283 218.47 28.2227 231.538 28.2227C244.606 28.2227 255.188 28.2885 255.188 28.3654Z" fill="#E0E0E0"/>
<path d="M194.919 42.795C194.919 42.8774 183.311 42.9377 168.991 42.9377C154.672 42.9377 143.059 42.8774 143.059 42.795C143.059 42.7127 154.667 42.6523 168.991 42.6523C183.316 42.6523 194.919 42.7182 194.919 42.795Z" fill="#E0E0E0"/>
<path d="M203.565 42.795C202.373 42.9853 201.157 42.9853 199.965 42.795C201.157 42.6048 202.373 42.6048 203.565 42.795Z" fill="#E0E0E0"/>
<path d="M255.188 42.795C255.188 42.8774 244.595 42.9377 231.538 42.9377C218.481 42.9377 207.889 42.8774 207.889 42.795C207.889 42.7127 218.47 42.6523 231.538 42.6523C244.606 42.6523 255.188 42.7182 255.188 42.795Z" fill="#E0E0E0"/>
<path d="M242.498 99.9082L228.892 131.527C228.827 131.674 228.808 131.838 228.838 131.996C228.868 132.155 228.945 132.3 229.059 132.414C229.173 132.527 229.319 132.604 229.477 132.632C229.636 132.661 229.799 132.641 229.946 132.575L240.435 127.943C240.538 127.896 240.649 127.871 240.763 127.87C240.876 127.869 240.988 127.892 241.092 127.938C241.196 127.983 241.289 128.051 241.365 128.135C241.441 128.219 241.498 128.318 241.532 128.426L245.072 139.046C245.127 139.203 245.228 139.338 245.363 139.434C245.498 139.53 245.659 139.581 245.824 139.581C245.99 139.581 246.151 139.53 246.286 139.434C246.42 139.338 246.522 139.203 246.576 139.046L259.37 104.941L242.498 99.9082Z" fill="black"/>
<path d="M260.232 105.194L266.747 138.991C266.778 139.149 266.855 139.294 266.969 139.408C267.083 139.521 267.228 139.598 267.387 139.627C267.545 139.657 267.708 139.638 267.855 139.574C268.003 139.509 268.127 139.402 268.213 139.266L274.283 129.546C274.342 129.451 274.42 129.37 274.512 129.308C274.604 129.245 274.708 129.202 274.817 129.182C274.927 129.162 275.039 129.165 275.148 129.191C275.256 129.217 275.358 129.265 275.446 129.332L284.343 136.132C284.475 136.231 284.634 136.287 284.798 136.293C284.963 136.298 285.125 136.253 285.263 136.163C285.401 136.073 285.508 135.943 285.569 135.79C285.631 135.637 285.643 135.469 285.605 135.309L277.011 99.9082L260.232 105.194Z" fill="black"/>
<g opacity="0.3">
<path d="M242.498 99.9062L228.892 131.525C228.827 131.672 228.808 131.836 228.838 131.994C228.868 132.153 228.945 132.298 229.059 132.412C229.173 132.525 229.319 132.602 229.477 132.63C229.636 132.659 229.799 132.639 229.946 132.573L240.435 127.941C240.538 127.894 240.649 127.869 240.763 127.868C240.876 127.867 240.988 127.89 241.092 127.936C241.196 127.981 241.289 128.049 241.365 128.133C241.441 128.217 241.498 128.316 241.532 128.424L245.072 139.044C245.127 139.201 245.228 139.336 245.363 139.432C245.498 139.528 245.659 139.579 245.824 139.579C245.99 139.579 246.151 139.528 246.286 139.432C246.42 139.336 246.522 139.201 246.576 139.044L259.37 104.939L242.498 99.9062Z" fill="black"/>
</g>
<g opacity="0.3">
<path d="M260.232 105.192L266.747 138.989C266.778 139.147 266.855 139.292 266.969 139.406C267.083 139.519 267.228 139.596 267.387 139.625C267.545 139.655 267.708 139.636 267.855 139.572C268.003 139.507 268.127 139.4 268.213 139.264L274.283 129.544C274.342 129.449 274.42 129.368 274.512 129.306C274.604 129.243 274.708 129.2 274.817 129.18C274.927 129.16 275.039 129.163 275.148 129.189C275.256 129.215 275.358 129.263 275.446 129.33L284.343 136.13C284.475 136.229 284.634 136.285 284.798 136.291C284.963 136.297 285.125 136.251 285.263 136.161C285.401 136.071 285.508 135.941 285.569 135.788C285.631 135.635 285.643 135.467 285.605 135.307L277.011 99.9062L260.232 105.192Z" fill="black"/>
</g>
<path d="M260.891 44.5067L265.359 41.2246L268.871 45.5111L274.014 43.4474L276.346 48.4748L281.846 47.7504L282.85 53.2004L288.355 53.8645L287.976 59.3969L293.141 61.4056L291.401 66.669L295.902 69.9072L292.911 74.5724L296.467 78.8205L292.4 82.5965L294.793 87.5965L289.919 90.2419L290.99 95.681L285.611 97.0311L285.293 102.563L279.749 102.536L278.064 107.816L272.702 106.411L269.755 111.103L264.914 108.409L260.891 112.223L256.873 108.409L252.033 111.103L249.085 106.411L243.723 107.816L242.038 102.536L236.495 102.563L236.176 97.0311L230.798 95.681L231.868 90.2419L226.994 87.5965L229.382 82.5965L225.32 78.8205L228.877 74.5724L225.886 69.9072L230.386 66.669L228.641 61.4056L233.811 59.3969L233.432 53.8645L238.937 53.2004L239.942 47.7504L245.441 48.4748L247.774 43.4474L252.916 45.5111L256.423 41.2246L260.891 44.5067Z" fill="black"/>
<path d="M278.646 94.4798C288.452 84.6739 288.452 68.7753 278.646 58.9694C268.841 49.1635 252.942 49.1635 243.136 58.9694C233.33 68.7753 233.33 84.6739 243.136 94.4798C252.942 104.286 268.841 104.286 278.646 94.4798Z" fill="white"/>
<path d="M266.368 70.7737L273.102 71.7617C273.351 71.7979 273.586 71.9033 273.779 72.0659C273.971 72.2286 274.115 72.4419 274.193 72.6819C274.27 72.9219 274.279 73.1788 274.218 73.4236C274.157 73.6683 274.029 73.8912 273.848 74.0668L268.969 78.8143C268.811 78.9668 268.694 79.1556 268.626 79.3642C268.558 79.5727 268.542 79.7947 268.579 80.0108L269.726 86.7341C269.769 86.9824 269.741 87.2374 269.646 87.4706C269.55 87.7037 269.392 87.9056 269.188 88.0535C268.984 88.2013 268.743 88.2892 268.492 88.3073C268.241 88.3253 267.99 88.2728 267.767 88.1556L261.73 84.9778C261.536 84.875 261.32 84.8212 261.101 84.8212C260.882 84.8212 260.666 84.875 260.473 84.9778L254.436 88.1392C254.213 88.2553 253.961 88.3068 253.711 88.2878C253.46 88.2689 253.219 88.1802 253.016 88.0319C252.813 87.8835 252.655 87.6813 252.561 87.4482C252.466 87.215 252.439 86.9601 252.482 86.7122L253.64 80.0053C253.677 79.7897 253.662 79.5682 253.595 79.3599C253.528 79.1515 253.411 78.9624 253.256 78.8088L248.382 74.0503C248.201 73.8743 248.073 73.6511 248.012 73.4059C247.951 73.1607 247.961 72.9035 248.039 72.6634C248.118 72.4233 248.262 72.2099 248.455 72.0476C248.649 71.8853 248.884 71.7806 249.134 71.7452L255.874 70.7737C256.09 70.7438 256.296 70.661 256.473 70.5328C256.65 70.4045 256.793 70.2347 256.889 70.0383L259.913 63.9351C260.025 63.7095 260.197 63.5196 260.411 63.3868C260.625 63.254 260.872 63.1836 261.123 63.1836C261.375 63.1836 261.622 63.254 261.836 63.3868C262.049 63.5196 262.222 63.7095 262.334 63.9351L265.336 70.0493C265.435 70.2452 265.582 70.4136 265.761 70.5399C265.941 70.6662 266.149 70.7465 266.368 70.7737Z" fill="black"/>
<path d="M358.443 96.6722C358.443 96.6722 351.901 123.472 322.609 117.331C322.609 117.331 331.1 90.1903 358.443 96.6722Z" fill="#263238"/>
<path d="M344.306 137.256C344.306 137.256 330.859 157.306 308.631 143.442C308.631 143.442 323.779 123.7 344.306 137.256Z" fill="#263238"/>
<path d="M322.868 167.844C322.868 167.844 303.253 184.523 284.449 163.848C284.482 163.848 305.739 147.976 322.868 167.844Z" fill="#263238"/>
<path d="M302.093 102.996C302.093 102.996 323.849 113.452 313.29 137.414C313.29 137.414 291.616 125.23 302.093 102.996Z" fill="#263238"/>
<path d="M297.375 131.889C297.375 131.889 308.226 146.537 292.051 159.122C292.051 159.122 281.892 143.321 297.375 131.889Z" fill="#263238"/>
<path d="M347.698 65.3301C347.698 65.3301 350.195 87.0533 326.732 90.533C326.743 90.533 325.585 68.0194 347.698 65.3301Z" fill="#263238"/>
<path d="M314.048 43.375C314.048 43.375 333.022 51.3003 324.783 73.5614C324.783 73.5175 305.766 64.0225 314.048 43.375Z" fill="#263238"/>
<path d="M302.594 75.0898C302.594 75.0898 327.72 77.9548 325.508 105.304C325.508 105.304 299.85 100.704 302.594 75.0898Z" fill="#263238"/>
<path d="M266.836 170.55C266.836 170.55 266.94 170.512 267.154 170.451L268.093 170.204C268.922 169.985 270.145 169.694 271.693 169.189C276.066 167.835 280.295 166.052 284.317 163.865C290.287 160.603 295.798 156.563 300.705 151.851C303.607 149.079 306.312 146.108 308.801 142.96L310.689 140.424L311.638 139.145C311.945 138.706 312.225 138.25 312.527 137.8L314.3 135.056L315.947 132.191C316.215 131.708 316.495 131.231 316.759 130.753C317.022 130.276 317.247 129.765 317.489 129.277C317.972 128.294 318.46 127.328 318.927 126.352C319.393 125.375 319.761 124.376 320.178 123.399C320.381 122.91 320.601 122.427 320.787 121.939L321.336 120.457L322.384 117.537C322.675 116.555 322.933 115.578 323.246 114.617C323.389 114.134 323.532 113.657 323.669 113.179C323.806 112.702 323.905 112.219 324.026 111.741L324.69 108.909C326.124 102.258 326.752 95.4583 326.561 88.6569C326.411 84.074 325.901 79.5101 325.035 75.0071C324.69 73.4155 324.388 72.1915 324.207 71.3573C324.113 70.9457 324.042 70.6328 323.993 70.4078C323.943 70.1828 323.932 70.084 323.932 70.084C323.932 70.084 323.965 70.1883 324.02 70.4023L324.262 71.3463C324.465 72.1751 324.81 73.399 325.145 74.9852C327.435 86.2028 327.367 97.7739 324.948 108.964C324.728 109.897 324.507 110.845 324.284 111.807C324.168 112.285 324.075 112.773 323.932 113.251C323.79 113.728 323.652 114.211 323.51 114.694L322.648 117.619L321.6 120.55C321.424 121.044 321.248 121.538 321.051 122.038C320.853 122.537 320.645 123.015 320.436 123.509L319.185 126.472C318.718 127.449 318.224 128.421 317.747 129.403L317.011 130.885C316.742 131.368 316.462 131.845 316.194 132.328L314.547 135.204L312.763 137.949C312.461 138.399 312.181 138.854 311.869 139.293L310.914 140.583L309.02 143.124C306.531 146.286 303.822 149.268 300.914 152.048C295.985 156.766 290.448 160.803 284.448 164.052C280.4 166.227 276.141 167.987 271.737 169.304C270.184 169.793 268.949 170.067 268.115 170.265L267.171 170.49L266.836 170.55Z" fill="#263238"/>
<path d="M295.02 143.699C295.049 143.903 295.049 144.11 295.02 144.314C294.987 144.704 294.927 145.274 294.845 145.96C294.675 147.36 294.384 149.286 293.972 151.4C293.56 153.513 293.099 155.412 292.732 156.767C292.545 157.448 292.391 157.997 292.271 158.375C292.223 158.575 292.151 158.769 292.057 158.952C292.07 158.747 292.105 158.545 292.161 158.348C292.265 157.903 292.391 157.36 292.534 156.701C292.852 155.335 293.281 153.436 293.692 151.328C294.104 149.221 294.422 147.305 294.642 145.917C294.746 145.269 294.839 144.72 294.911 144.27C294.928 144.077 294.965 143.885 295.02 143.699Z" fill="#455A64"/>
<path d="M300.366 165.455C300.159 165.464 299.953 165.446 299.751 165.401L298.104 165.154C296.699 164.945 294.751 164.671 292.616 164.418C290.481 164.166 288.505 163.985 287.089 163.869L285.41 163.721C285.202 163.714 284.996 163.684 284.795 163.633C285.001 163.607 285.209 163.607 285.415 163.633C285.816 163.633 286.392 163.633 287.1 163.688C288.527 163.76 290.486 163.908 292.649 164.16C294.811 164.413 296.754 164.709 298.137 164.983C298.84 165.115 299.4 165.23 299.784 165.318C299.983 165.34 300.178 165.386 300.366 165.455Z" fill="#455A64"/>
<path d="M326.81 138.877C326.575 138.959 326.332 139.018 326.085 139.052L324.098 139.442C322.419 139.777 320.108 140.26 317.573 140.869C315.037 141.478 312.759 142.115 311.113 142.587L309.164 143.136C308.931 143.218 308.69 143.276 308.445 143.311C308.662 143.189 308.892 143.094 309.131 143.026C309.581 142.861 310.229 142.642 311.058 142.378C312.704 141.857 314.96 141.193 317.501 140.578C320.042 139.964 322.369 139.508 324.087 139.228C324.933 139.085 325.619 138.987 326.096 138.926C326.332 138.886 326.571 138.869 326.81 138.877Z" fill="#455A64"/>
<path d="M307.605 118.322C307.775 118.528 307.924 118.751 308.05 118.986C308.33 119.425 308.698 120.084 309.12 120.891C311.321 125.187 312.667 129.869 313.083 134.678C313.16 135.594 313.193 136.324 313.193 136.873C313.218 137.14 313.218 137.408 313.193 137.675C313.138 137.413 313.109 137.146 313.105 136.879C313.077 136.368 313.012 135.627 312.907 134.711C312.388 129.945 311.055 125.304 308.967 120.99C308.566 120.161 308.231 119.502 307.984 119.047C307.835 118.818 307.708 118.575 307.605 118.322Z" fill="#455A64"/>
<path d="M336.75 105.826C336.572 105.98 336.379 106.116 336.174 106.232L334.56 107.281C333.21 108.181 331.377 109.476 329.456 111.024C327.535 112.571 325.889 114.108 324.731 115.244L323.369 116.605C323.214 116.782 323.041 116.942 322.854 117.083C322.98 116.886 323.125 116.702 323.287 116.534C323.584 116.188 324.028 115.7 324.588 115.113C326.059 113.582 327.624 112.145 329.275 110.81C330.923 109.474 332.651 108.24 334.451 107.116C335.148 106.688 335.713 106.359 336.097 106.139C336.301 106.009 336.521 105.904 336.75 105.826Z" fill="#455A64"/>
<path d="M309.311 85.9844C309.386 86.0294 309.456 86.0828 309.519 86.1435L310.068 86.6375C310.546 87.0711 311.226 87.7352 312.044 88.52C313.691 90.1336 315.886 92.4333 318.169 95.1062C320.452 97.779 322.373 100.32 323.707 102.197C324.371 103.136 324.898 103.904 325.249 104.442L325.65 105.068C325.738 105.216 325.782 105.293 325.771 105.298C325.705 105.241 325.648 105.174 325.601 105.101L325.156 104.508L323.542 102.312C322.17 100.468 320.249 97.9547 317.95 95.2873C315.65 92.6199 313.504 90.2983 311.912 88.6518L309.991 86.7363L309.476 86.1874C309.36 86.0612 309.305 85.9954 309.311 85.9844Z" fill="#455A64"/>
<path d="M339.576 72.3887C339.412 72.6307 339.229 72.8583 339.027 73.0692L337.501 74.8695C336.222 76.3952 334.504 78.5412 332.737 81.011C330.97 83.4808 329.499 85.8024 328.467 87.5093L327.293 89.5291C327.159 89.7858 327.003 90.0301 326.826 90.259C326.928 89.9884 327.051 89.726 327.194 89.4742C327.446 88.9802 327.836 88.2722 328.33 87.4051C329.318 85.6707 330.772 83.3271 332.545 80.8464C334.318 78.3656 336.069 76.2306 337.386 74.7377C338.045 73.9858 338.593 73.3931 338.983 72.9924C339.163 72.7749 339.362 72.5729 339.576 72.3887Z" fill="#455A64"/>
<path d="M316.863 51.7656C317.013 52.0235 317.145 52.2912 317.258 52.5669C317.494 53.0829 317.807 53.8403 318.224 54.7623C319.02 56.6394 320.074 59.2628 321.155 62.1882C322.236 65.1135 323.142 67.7864 323.762 69.7348C324.075 70.7063 324.311 71.4966 324.476 72.0454C324.572 72.3264 324.645 72.6146 324.695 72.9071C324.56 72.6416 324.45 72.3642 324.366 72.0784L323.57 69.7952C322.906 67.8687 321.968 65.2068 320.886 62.287C319.805 59.3671 318.784 56.7382 318.038 54.8392C317.676 53.9226 317.379 53.1926 317.154 52.5834C317.03 52.3213 316.933 52.0473 316.863 51.7656Z" fill="#455A64"/>
<path d="M29.8184 90.703C29.8184 90.703 36.0038 116.027 63.6821 110.225C63.6656 110.225 55.6415 84.5779 29.8184 90.703Z" fill="#263238"/>
<path d="M43.1777 129.059C43.1777 129.059 55.8835 148.005 76.8768 134.904C76.8768 134.904 62.5629 116.249 43.1777 129.059Z" fill="#263238"/>
<path d="M63.418 157.96C63.418 157.96 81.9579 173.729 99.7131 154.19C99.7131 154.19 79.6089 139.184 63.418 157.96Z" fill="#263238"/>
<path d="M83.0563 96.6875C83.0563 96.6875 62.4966 106.567 72.4746 129.207C72.4691 129.207 92.9739 117.697 83.0563 96.6875Z" fill="#263238"/>
<path d="M87.5127 123.984C87.5127 123.984 77.2603 137.826 92.5401 149.72C92.5401 149.72 102.145 134.791 87.5127 123.984Z" fill="#263238"/>
<path d="M39.9614 61.0879C39.9614 61.0879 37.6013 81.6147 59.7747 84.9023C59.7747 84.9023 60.8504 63.629 39.9614 61.0879Z" fill="#263238"/>
<path d="M71.7624 40.3145C71.7624 40.3145 53.8261 47.8062 61.6142 68.8544C61.6142 68.8269 79.5834 59.8423 71.7624 40.3145Z" fill="#263238"/>
<path d="M82.5847 70.3086C82.5847 70.3086 58.8362 73.0199 60.9273 98.8485C60.9273 98.8595 85.1807 94.5181 82.5847 70.3086Z" fill="#263238"/>
<path d="M121.579 162.272L121.255 162.211L120.317 162.003C119.493 161.811 118.275 161.553 116.733 161.097C112.363 159.88 108.108 158.285 104.016 156.328C101.182 154.989 98.4331 153.479 95.7833 151.805C92.7334 149.899 89.8227 147.779 87.0731 145.461C84.0254 142.907 81.1794 140.121 78.5606 137.129L76.5628 134.72C75.9151 133.891 75.3004 133.029 74.6583 132.179C74.3399 131.751 74.0216 131.317 73.6978 130.889L72.8142 129.544C72.2324 128.633 71.6122 127.733 71.0469 126.8C69.9492 124.89 68.8515 123.035 67.9459 121.092C66.958 119.199 66.1786 117.25 65.3663 115.34C59.6388 101.101 58.2003 85.4969 61.228 70.4502C61.5574 68.8805 61.8921 67.6785 62.0842 66.8553C62.1885 66.4546 62.2654 66.1418 62.3202 65.9222C62.3751 65.7027 62.4136 65.6094 62.4136 65.6094C62.4136 65.6094 62.4136 65.7192 62.3477 65.9332C62.2818 66.1472 62.2324 66.482 62.1391 66.8662C61.9635 67.695 61.6452 68.9024 61.3323 70.4721C60.4948 74.9195 60.0194 79.4275 59.9108 83.9518C59.753 94.6535 61.696 105.282 65.6298 115.236C66.4366 117.129 67.2159 119.078 68.2039 120.966C69.0985 122.898 70.2181 124.747 71.2884 126.652C71.8372 127.585 72.4684 128.48 73.0502 129.396L73.9338 130.746L74.8888 132.031C75.5254 132.881 76.1402 133.743 76.7823 134.566L78.7746 136.965C83.752 142.651 89.523 147.59 95.9095 151.63C102.385 155.723 109.406 158.881 116.766 161.01C118.297 161.482 119.51 161.756 120.333 161.965L121.261 162.206L121.579 162.272Z" fill="#263238"/>
<path d="M89.7372 135.143C89.7973 135.321 89.8396 135.505 89.8634 135.691C89.9348 136.12 90.0171 136.635 90.1159 137.245C90.3244 138.556 90.6318 140.368 91.016 142.36C91.4002 144.352 91.8063 146.141 92.1137 147.437C92.2509 148.035 92.3661 148.534 92.4649 148.973C92.5192 149.152 92.5506 149.336 92.5582 149.522C92.4695 149.348 92.4013 149.164 92.3552 148.973C92.2454 148.622 92.0917 148.101 91.9161 147.459C91.5648 146.174 91.1367 144.385 90.7416 142.387C90.3464 140.39 90.083 138.545 89.9238 137.245C89.8415 136.586 89.7866 136.048 89.7591 135.675C89.7308 135.499 89.7234 135.32 89.7372 135.143Z" fill="#455A64"/>
<path d="M84.7031 155.702C84.88 155.63 85.064 155.576 85.252 155.543C85.6142 155.46 86.1521 155.35 86.8107 155.224C88.1334 154.977 89.972 154.675 92.0137 154.445C94.0554 154.214 95.9105 154.066 97.2552 154.006C97.9303 153.973 98.4736 153.951 98.8468 153.951C99.0418 153.925 99.2392 153.925 99.4341 153.951C99.2461 154.002 99.0525 154.029 98.8578 154.033L97.2717 154.176C95.9325 154.291 94.0829 154.467 92.0467 154.725C90.0105 154.983 88.2047 155.224 86.8436 155.422L85.2684 155.647C85.0832 155.69 84.8931 155.708 84.7031 155.702Z" fill="#455A64"/>
<path d="M59.6973 130.576C59.933 130.568 60.1689 130.588 60.3998 130.636C60.8498 130.691 61.4975 130.785 62.2933 130.916C63.8959 131.18 66.0913 131.608 68.4952 132.19C70.8992 132.771 73.0452 133.397 74.5874 133.897C75.3558 134.143 75.976 134.358 76.4041 134.511C76.6287 134.578 76.8458 134.668 77.0517 134.78C76.8173 134.753 76.587 134.697 76.3657 134.615L74.527 134.067C72.9738 133.622 70.8223 133.029 68.4239 132.448C66.0254 131.866 63.8465 131.41 62.2604 131.092L60.3833 130.724C60.1505 130.696 59.9209 130.646 59.6973 130.576Z" fill="#455A64"/>
<path d="M77.8478 111.164C77.759 111.401 77.6488 111.628 77.5185 111.845C77.288 112.273 76.9696 112.898 76.5909 113.683C75.6098 115.717 74.802 117.831 74.176 120C73.5567 122.172 73.1179 124.392 72.8643 126.636C72.771 127.498 72.7051 128.2 72.6777 128.683C72.674 128.936 72.6445 129.188 72.5899 129.435C72.5585 129.184 72.5493 128.93 72.5624 128.678C72.5624 128.189 72.5899 127.487 72.6612 126.62C72.8591 124.351 73.2745 122.107 73.9016 119.918C74.5298 117.732 75.3699 115.613 76.4098 113.59C76.8105 112.816 77.1562 112.201 77.4197 111.79C77.5385 111.566 77.6821 111.356 77.8478 111.164Z" fill="#455A64"/>
<path d="M50.3066 99.3613C50.5154 99.4378 50.7158 99.5353 50.9049 99.6522C51.2836 99.8553 51.8215 100.168 52.4801 100.574C54.1817 101.635 55.8166 102.799 57.3758 104.059C58.9329 105.322 60.4103 106.681 61.7994 108.126C62.3483 108.675 62.7489 109.142 63.0289 109.471C63.1841 109.64 63.322 109.824 63.4405 110.02C63.2587 109.888 63.0929 109.735 62.9465 109.564L61.6513 108.264C60.5536 107.166 59.0058 105.75 57.1891 104.273C55.3725 102.797 53.6381 101.584 52.3648 100.739L50.8445 99.74C50.6509 99.6354 50.4704 99.5083 50.3066 99.3613Z" fill="#455A64"/>
<path d="M76.2339 80.6055C76.0374 80.8534 75.8228 81.0864 75.5918 81.3025L73.7861 83.1411C72.2768 84.6944 70.2241 86.8897 68.0726 89.4089C65.9212 91.9281 64.088 94.3046 62.7873 96.05L61.2615 98.1191C61.0865 98.3804 60.892 98.6281 60.6797 98.86C60.8216 98.579 60.9849 98.3092 61.1682 98.0532C61.4975 97.5428 61.9969 96.8128 62.6226 95.9292C63.8849 94.151 65.7016 91.7525 67.8586 89.2223C70.0155 86.6922 72.0792 84.5407 73.6434 82.9984C74.4228 82.2355 75.0594 81.6263 75.515 81.2202C75.7395 80.9982 75.9798 80.7928 76.2339 80.6055Z" fill="#455A64"/>
<path d="M47.6348 67.7578C47.8477 67.9235 48.046 68.1071 48.2275 68.3067C48.5952 68.6854 49.1112 69.2452 49.7314 69.9532C51.3554 71.8093 52.8832 73.7474 54.3087 75.76C55.9552 78.1035 57.3603 80.3209 58.2933 81.9564C58.7598 82.7742 59.1221 83.4438 59.391 83.9158C59.5298 84.153 59.6455 84.403 59.7368 84.6622C59.5704 84.4439 59.4218 84.2127 59.2922 83.9707L58.1451 82.0607C57.1682 80.4526 55.7741 78.2627 54.1056 75.9246C52.4372 73.5865 50.8126 71.5613 49.6051 70.1178C49.0563 69.4263 48.5458 68.8555 48.1726 68.4164C47.9706 68.2165 47.7903 67.9957 47.6348 67.7578Z" fill="#455A64"/>
<path d="M69.104 48.2676C69.0348 48.54 68.943 48.8062 68.8296 49.0634C68.6155 49.6122 68.3356 50.3312 67.9953 51.1929C67.2928 52.9876 66.3488 55.4739 65.306 58.2346C64.2632 60.9953 63.396 63.509 62.7484 65.3312C62.441 66.2038 62.1995 66.9283 61.9964 67.4881C61.9179 67.7575 61.8131 68.0185 61.6836 68.2675C61.7285 67.9915 61.7965 67.7198 61.8867 67.4552C62.0349 66.9063 62.2654 66.1873 62.5563 65.2598C63.1435 63.4212 63.9942 60.869 65.0206 58.1248C66.0469 55.3806 67.0403 52.8888 67.7922 51.1106C68.1709 50.2215 68.4838 49.508 68.7088 49.014C68.8168 48.7533 68.9491 48.5034 69.104 48.2676Z" fill="#455A64"/>
<path d="M121.549 74.1119C125.55 74.6333 126.143 78.7332 127.625 82.1744C129.107 85.6157 131.944 88.6783 134.129 91.7573C135.281 93.4038 136.873 94.8473 137.268 96.7792C137.702 98.799 136.78 100.89 136.346 102.948C135.912 105.006 136.22 107.526 138.196 108.437C137.974 108.696 137.695 108.9 137.38 109.032C137.066 109.165 136.725 109.222 136.384 109.2C136.384 110.149 135.468 110.967 134.469 111.241C133.462 111.442 132.425 111.43 131.423 111.208C131.692 111.839 131.121 112.602 130.413 112.855C129.694 113.051 128.936 113.051 128.218 112.855C127.504 112.652 126.757 112.598 126.022 112.696C124.376 113.052 123.415 114.891 121.769 115.122C119.507 115.451 117.883 112.558 115.649 113.063C114.601 113.299 113.904 114.216 113.042 114.842C112.18 115.467 110.726 115.308 110.298 114.408C109.101 115.917 107.252 117.383 105.303 117.783C105.443 117.454 105.481 117.09 105.414 116.738C105.346 116.386 105.176 116.063 104.925 115.808C103.856 116.68 102.573 117.249 101.209 117.454C101.619 117.078 101.942 116.617 102.156 116.103C102.37 115.59 102.47 115.036 102.449 114.479C101.99 114.84 101.455 115.091 100.885 115.214C100.314 115.336 99.7229 115.327 99.1563 115.187C101.165 114.04 101.352 111.373 100.649 109.37C99.9466 107.366 98.5745 105.572 98.3111 103.459C98.0202 101.159 100.72 98.2501 100.194 95.9944C99.3813 92.5147 99.4417 90.3961 99.5844 87.147C99.6777 85.023 100.616 83.1349 101.549 81.1536C102.642 78.6994 104.513 76.6738 106.873 75.3907C108.997 74.1943 112.06 73.0966 114.491 73.0417C118.827 72.9484 120.589 72.8112 124.019 75.1053" fill="#263238"/>
<path d="M108.189 102.444C106.765 99.68 105.584 96.7968 104.66 93.8276C103.733 90.8445 103.563 87.6776 104.166 84.6125C104.27 84.157 105.264 81.034 105.736 81.0176C106.07 81.0176 105.582 83.8551 105.79 84.124C107.761 86.6597 108.644 89.9143 108.815 93.1196C108.953 96.2433 108.743 99.3727 108.189 102.45" fill="#263238"/>
<path d="M127.147 128.733C122.356 129.281 110.83 124.243 110.188 119.468L106.302 90.7307C105.018 83.0468 108.415 75.9118 116.138 74.8142L116.857 74.7538C120.348 74.4732 123.817 75.5182 126.572 77.6806C129.328 79.8431 131.167 82.9642 131.725 86.4222C132.822 93.0907 133.92 100.467 134.156 104.073C134.661 111.532 127.301 113.288 127.301 113.288C127.301 113.288 127.488 115.012 127.757 117.19C128.366 122.086 127.586 127.454 127.147 128.716V128.733Z" fill="#FFBE9D"/>
<path d="M127.301 113.288C123.856 113.556 120.407 112.83 117.361 111.197C117.361 111.197 120.149 116.614 127.531 115.347L127.301 113.288Z" fill="#EB996E"/>
<path d="M128.947 92.9089C128.972 93.1855 128.888 93.4608 128.712 93.6761C128.537 93.8914 128.285 94.0297 128.009 94.0615C127.874 94.084 127.736 94.0791 127.603 94.0471C127.471 94.015 127.346 93.9565 127.236 93.875C127.126 93.7936 127.034 93.6908 126.965 93.5729C126.896 93.455 126.852 93.3243 126.834 93.1888C126.81 92.9123 126.894 92.637 127.069 92.4217C127.245 92.2064 127.497 92.0681 127.773 92.0363C127.908 92.0129 128.046 92.0173 128.179 92.049C128.312 92.0807 128.437 92.1391 128.547 92.2207C128.657 92.3023 128.749 92.4054 128.818 92.5237C128.887 92.642 128.931 92.7731 128.947 92.9089Z" fill="#263238"/>
<path d="M130.403 89.8364C130.282 89.9845 129.431 89.4522 128.284 89.5455C127.137 89.6388 126.347 90.2809 126.209 90.1492C126.072 90.0175 126.259 89.8309 126.605 89.54C127.071 89.1544 127.647 88.9242 128.251 88.8814C128.846 88.8303 129.443 88.9706 129.952 89.282C130.326 89.5235 130.463 89.765 130.403 89.8364Z" fill="#263238"/>
<path d="M118.18 93.7482C118.198 94.0239 118.111 94.2963 117.937 94.5109C117.763 94.7256 117.515 94.8668 117.241 94.9062C117.107 94.928 116.969 94.9225 116.837 94.8901C116.704 94.8578 116.579 94.7992 116.47 94.7179C116.36 94.6365 116.268 94.534 116.199 94.4165C116.13 94.299 116.085 94.1688 116.067 94.0336C116.049 93.7579 116.135 93.4855 116.309 93.2708C116.483 93.0561 116.732 92.915 117.005 92.8755C117.14 92.8546 117.277 92.8606 117.409 92.8932C117.542 92.9259 117.666 92.9846 117.775 93.0658C117.885 93.147 117.977 93.2492 118.046 93.3663C118.116 93.4835 118.161 93.6133 118.18 93.7482Z" fill="#263238"/>
<path d="M119.196 90.9991C119.075 91.1473 118.219 90.6204 117.077 90.7137C115.936 90.807 115.135 91.4492 115.003 91.3175C114.871 91.1857 115.047 90.9991 115.392 90.7027C115.859 90.3179 116.435 90.0894 117.039 90.0496C117.636 89.9977 118.234 90.1381 118.746 90.4503C119.119 90.6918 119.278 90.9333 119.196 90.9991Z" fill="#263238"/>
<path d="M124.015 99.476C124.602 99.2367 125.218 99.0744 125.848 98.993C126.139 98.9382 126.397 98.8558 126.441 98.6528C126.443 98.3487 126.351 98.0514 126.177 97.802L125.134 95.6451C123.68 92.5716 122.599 90.0304 122.725 89.9755C122.851 89.9206 124.13 92.363 125.584 95.4365L126.594 97.6319C126.806 97.9704 126.891 98.3727 126.836 98.768C126.802 98.8744 126.744 98.9717 126.667 99.0526C126.59 99.1334 126.496 99.1956 126.391 99.2345C126.231 99.29 126.066 99.3269 125.897 99.3443C125.278 99.4673 124.645 99.5116 124.015 99.476Z" fill="#263238"/>
<path d="M118.727 86.7342C118.595 87.0361 117.459 86.8166 116.104 86.8989C114.748 86.9812 113.634 87.2776 113.475 86.9867C113.403 86.8495 113.612 86.5641 114.067 86.2897C114.677 85.9584 115.353 85.769 116.046 85.7358C116.739 85.7025 117.43 85.8262 118.068 86.0976C118.573 86.3226 118.809 86.5806 118.727 86.7342Z" fill="#263238"/>
<path d="M129.919 87.1811C129.705 87.461 128.75 87.2799 127.625 87.3732C126.5 87.4665 125.573 87.7464 125.331 87.4939C125.221 87.3732 125.331 87.0988 125.737 86.8134C126.282 86.4617 126.907 86.2536 127.554 86.2085C128.2 86.1634 128.848 86.2828 129.436 86.5554C129.854 86.7859 130.013 87.0439 129.919 87.1811Z" fill="#263238"/>
<path d="M107.356 96.2015C107.224 96.1575 102.114 95.1038 102.685 100.181C103.256 105.257 108.239 103.644 108.234 103.474C108.228 103.304 107.356 96.2015 107.356 96.2015Z" fill="#FFBE9D"/>
<path d="M106.467 101.745C106.467 101.745 106.385 101.817 106.242 101.905C106.042 102.016 105.806 102.047 105.584 101.992C105.035 101.855 104.486 101.054 104.343 100.137C104.283 99.7027 104.321 99.2603 104.453 98.842C104.482 98.6781 104.55 98.5239 104.653 98.3927C104.755 98.2616 104.888 98.1577 105.04 98.0901C105.139 98.0521 105.247 98.0494 105.347 98.0824C105.447 98.1155 105.533 98.1822 105.589 98.2712C105.677 98.4084 105.655 98.5127 105.682 98.5182C105.71 98.5236 105.781 98.4194 105.715 98.2163C105.674 98.0926 105.591 97.9876 105.479 97.9199C105.328 97.8292 105.146 97.8016 104.974 97.8431C104.771 97.9093 104.588 98.0261 104.442 98.1826C104.296 98.3391 104.192 98.5301 104.14 98.7377C103.975 99.2018 103.924 99.6988 103.992 100.187C104.14 101.207 104.771 102.108 105.529 102.239C105.67 102.265 105.815 102.258 105.953 102.219C106.09 102.18 106.218 102.11 106.325 102.014C106.467 101.872 106.484 101.751 106.467 101.745Z" fill="#EB996E"/>
<path d="M127.415 78.4044C128.184 77.8555 125.396 75.4845 123.266 74.8149C120.044 73.7995 115.28 73.5141 112.558 74.6557C109.265 76.0279 106.68 78.0531 105.352 81.3462C104.093 84.6839 103.747 88.2965 104.347 91.8126C104.436 92.8991 104.815 93.9417 105.445 94.8313C106.29 95.8686 107.739 96.4119 107.865 97.9652C107.901 98.5349 108.157 99.0684 108.579 99.4525C109.633 100.325 110.654 99.2604 111.065 98.267C111.938 96.143 111.773 93.75 111.614 91.4614C111.576 89.825 111.268 88.206 110.703 86.67C110.352 85.8522 109.858 85.1003 109.55 84.266C109.373 83.8585 109.286 83.4173 109.295 82.9729C109.305 82.5286 109.411 82.0915 109.605 81.6919C109.704 81.533 109.818 81.3841 109.946 81.2474C110.578 80.5425 111.387 80.0186 112.288 79.7293C113.19 79.4399 114.153 79.3956 115.077 79.6008C118.057 80.2649 123.129 81.1815 124.287 80.0564C125.933 78.4098 126.279 77.4768 126.279 77.4768L127.415 78.4044Z" fill="#263238"/>
<path d="M120.95 100.454C120.884 100.454 120.873 100.756 121.027 101.184C121.238 101.748 121.623 102.23 122.125 102.562C122.607 102.883 123.145 103.112 123.711 103.237C124.133 103.336 124.408 103.347 124.43 103.281C124.452 103.215 124.221 103.067 123.837 102.88C123.35 102.663 122.88 102.408 122.432 102.117C121.411 101.464 121.109 100.411 120.95 100.454Z" fill="#263238"/>
<path d="M107.521 96.8672C107.565 96.955 107.604 97.0483 107.648 97.1526C107.648 97.1636 107.598 97.0483 107.521 96.8672Z" fill="black"/>
<path d="M105.78 96.0651C105.78 96.0651 106.631 94.9674 107.52 96.8445C106.461 94.3527 99.4193 76.3341 118.728 73.9576C118.728 73.9576 111.752 72.7282 107.548 76.1969C107.548 76.2189 98.9967 81.3286 105.78 96.0651Z" fill="#455A64"/>
<path d="M142.702 187.053L97.8229 187.663C97.8229 187.663 85.2708 182.41 81.8241 182.268C78.3773 182.125 71.5277 182.564 68.3609 187.663C65.0678 192.932 64.6342 202.224 74.7165 208.974C84.5408 215.56 129.453 221.631 135.638 221.049L146.955 205.835C146.955 205.835 147.076 193.349 146.955 192.75C146.835 192.152 144.936 186.806 144.936 186.806L142.702 187.053Z" fill="#263238"/>
<path d="M115.835 208.131L92.5801 216.764L103.178 245.754C105.884 244.569 105.961 227.543 105.961 227.543L121.087 222.604L115.835 208.131Z" fill="black"/>
<g opacity="0.6">
<path d="M103.943 218.12C103.757 217.872 103.486 217.703 103.182 217.643C102.878 217.583 102.563 217.638 102.296 217.796C102.038 217.973 101.858 218.244 101.796 218.551C101.733 218.859 101.793 219.178 101.962 219.442C102.16 219.705 102.449 219.885 102.773 219.947C103.096 220.009 103.431 219.948 103.712 219.777C103.958 219.565 104.111 219.265 104.141 218.942C104.171 218.619 104.074 218.297 103.872 218.043" fill="white"/>
</g>
<path d="M92.5801 216.762L94.9291 215.895L104.259 244.067C104.259 244.067 104.172 245.565 103.206 245.752L92.5801 216.762Z" fill="#263238"/>
<path d="M106.281 227.96C106.138 228.004 105.82 227.318 105.106 226.791C104.393 226.264 103.668 226.105 103.674 225.957C103.679 225.808 104.579 225.715 105.425 226.374C106.27 227.032 106.424 227.938 106.281 227.96Z" fill="#263238"/>
<path d="M106.138 231.454C106.012 231.536 105.546 231.015 104.772 230.751C103.998 230.488 103.317 230.581 103.268 230.439C103.218 230.296 103.992 229.89 104.947 230.257C105.902 230.625 106.27 231.405 106.138 231.454Z" fill="#263238"/>
<path d="M103.129 234.512C103.053 234.397 103.678 233.964 104.595 234.018C105.511 234.073 106.055 234.65 105.956 234.754C105.857 234.858 105.297 234.6 104.551 234.545C103.804 234.49 103.195 234.65 103.129 234.512Z" fill="#263238"/>
<path d="M109.607 226.45C109.453 226.45 109.415 225.72 109.058 224.941C108.701 224.162 108.229 223.629 108.323 223.509C108.416 223.388 109.14 223.805 109.535 224.733C109.931 225.66 109.744 226.483 109.607 226.45Z" fill="#263238"/>
<path d="M112.793 224.495C112.733 224.495 112.442 223.99 112.245 223.041C112.148 222.483 112.119 221.915 112.157 221.35C112.18 221.015 112.226 220.681 112.294 220.351C112.327 220.16 112.388 219.975 112.475 219.803C112.541 219.672 112.649 219.568 112.781 219.506C112.914 219.445 113.063 219.429 113.205 219.462C113.329 219.497 113.444 219.56 113.539 219.647C113.634 219.733 113.708 219.841 113.754 219.962C113.821 220.138 113.863 220.323 113.88 220.511C113.986 221.42 113.86 222.342 113.512 223.189C113.134 224.089 112.689 224.512 112.645 224.473C112.601 224.435 112.898 223.924 113.161 223.063C113.313 222.556 113.4 222.032 113.419 221.504C113.427 221.194 113.41 220.884 113.37 220.576C113.337 220.242 113.244 219.978 113.079 219.951C113.019 219.951 112.997 219.951 112.925 220.039C112.864 220.172 112.82 220.312 112.793 220.456C112.725 220.76 112.674 221.068 112.64 221.378C112.591 221.911 112.591 222.447 112.64 222.98C112.725 223.481 112.776 223.987 112.793 224.495Z" fill="#263238"/>
<path d="M112.52 224.39C112.482 224.352 112.888 223.885 113.782 223.495C114.306 223.277 114.863 223.147 115.429 223.111C115.768 223.095 116.108 223.112 116.444 223.161C116.664 223.168 116.879 223.233 117.066 223.349C117.254 223.464 117.408 223.626 117.515 223.819C117.561 223.949 117.569 224.089 117.537 224.222C117.505 224.356 117.434 224.477 117.333 224.571C117.193 224.71 117.032 224.826 116.856 224.917C116.55 225.084 116.221 225.205 115.879 225.274C115.306 225.394 114.711 225.37 114.15 225.202C113.195 224.911 112.811 224.385 112.855 224.352C113.305 224.546 113.767 224.711 114.238 224.846C114.747 224.942 115.272 224.927 115.775 224.802C116.065 224.731 116.344 224.62 116.603 224.472C116.894 224.313 117.097 224.105 117.026 224C116.955 223.896 116.653 223.698 116.362 223.671C116.059 223.619 115.753 223.593 115.445 223.594C114.918 223.604 114.395 223.689 113.892 223.847C113.047 224.116 112.569 224.461 112.52 224.39Z" fill="#263238"/>
<path d="M135.018 204.545L157.521 214.973L144.678 243.035C142.071 241.647 143.333 224.666 143.333 224.666L128.641 218.568L135.018 204.545Z" fill="black"/>
<g opacity="0.6">
<path d="M146.088 215.44C146.293 215.215 146.573 215.071 146.876 215.036C147.178 215.001 147.483 215.076 147.735 215.248C147.973 215.445 148.126 215.725 148.164 216.031C148.202 216.337 148.121 216.646 147.938 216.894C147.72 217.14 147.419 217.296 147.092 217.333C146.766 217.369 146.438 217.283 146.171 217.092C145.945 216.858 145.818 216.545 145.818 216.219C145.818 215.894 145.945 215.581 146.171 215.347" fill="white"/>
</g>
<path d="M157.521 214.982L155.249 213.928L143.762 241.282C143.762 241.282 143.734 242.786 144.678 243.044L157.521 214.982Z" fill="#263238"/>
<path d="M142.98 225.043C143.123 225.098 143.496 224.44 144.248 223.946C145 223.452 145.736 223.397 145.741 223.227C145.747 223.057 144.858 222.919 143.963 223.507C143.068 224.094 142.843 225.043 142.98 225.043Z" fill="#263238"/>
<path d="M142.878 228.563C142.993 228.657 143.498 228.168 144.294 227.971C145.09 227.773 145.76 227.916 145.814 227.779C145.869 227.641 145.139 227.197 144.168 227.466C143.196 227.735 142.724 228.503 142.878 228.563Z" fill="#263238"/>
<path d="M145.622 231.851C145.709 231.736 145.111 231.237 144.2 231.242C143.289 231.248 142.696 231.758 142.784 231.868C142.872 231.978 143.454 231.764 144.206 231.769C144.957 231.775 145.534 231.978 145.622 231.851Z" fill="#263238"/>
<path d="M139.788 223.305C139.942 223.305 140.041 222.586 140.447 221.84C140.853 221.093 141.375 220.594 141.292 220.468C141.21 220.342 140.453 220.704 139.986 221.565C139.52 222.427 139.651 223.322 139.788 223.305Z" fill="#263238"/>
<path d="M136.762 221.108C136.822 221.136 137.151 220.636 137.398 219.703C137.542 219.155 137.617 218.591 137.623 218.024C137.624 217.688 137.604 217.353 137.563 217.019C137.548 216.821 137.502 216.627 137.426 216.443C137.369 216.309 137.269 216.197 137.142 216.126C137.015 216.054 136.868 216.027 136.723 216.048C136.597 216.073 136.478 216.128 136.376 216.207C136.274 216.286 136.192 216.387 136.136 216.504C136.055 216.678 136 216.863 135.971 217.052C135.905 217.385 135.87 217.723 135.867 218.062C135.866 218.634 135.953 219.202 136.125 219.747C136.239 220.263 136.505 220.733 136.888 221.097C136.965 221.054 136.679 220.549 136.487 219.648C136.375 219.131 136.329 218.602 136.35 218.073C136.367 217.763 136.408 217.455 136.471 217.151C136.531 216.822 136.647 216.564 136.811 216.547C136.877 216.547 136.899 216.547 136.954 216.652C137.007 216.787 137.04 216.93 137.053 217.074C137.1 217.385 137.129 217.699 137.141 218.013C137.154 218.547 137.12 219.082 137.036 219.61C136.913 220.103 136.821 220.604 136.762 221.108Z" fill="#263238"/>
<path d="M137.043 221.021C137.087 220.982 136.72 220.472 135.858 220.027C135.342 219.764 134.786 219.591 134.211 219.517C133.875 219.473 133.535 219.461 133.196 219.484C132.982 219.477 132.769 219.523 132.577 219.619C132.386 219.715 132.221 219.857 132.098 220.033C132.044 220.159 132.027 220.298 132.048 220.434C132.069 220.57 132.129 220.698 132.219 220.801C132.349 220.949 132.501 221.077 132.669 221.18C132.961 221.373 133.281 221.52 133.619 221.613C134.179 221.778 134.771 221.801 135.342 221.679C136.325 221.465 136.747 220.966 136.703 220.933C136.238 221.089 135.763 221.215 135.282 221.312C134.769 221.371 134.25 221.317 133.761 221.152C133.477 221.059 133.207 220.926 132.96 220.757C132.68 220.576 132.494 220.351 132.576 220.258C132.658 220.165 132.971 219.983 133.256 219.972C133.563 219.945 133.872 219.945 134.179 219.972C134.704 220.021 135.22 220.145 135.71 220.34C136.544 220.708 136.989 221.087 137.043 221.021Z" fill="#263238"/>
<path d="M144.936 186.812C144.936 186.812 164.316 179.573 171.451 180.512C175.441 181.061 181.676 184.079 182.153 189.194C182.631 194.31 181.379 201.143 174.469 204.474C167.56 207.806 140.046 220.155 133.509 222.037C126.972 223.92 110.661 228.393 110.661 228.393L104.486 210.775C104.486 210.775 138.279 199.074 140.062 197.762C141.846 196.45 146.363 194.672 146.363 194.672L144.936 186.812Z" fill="#263238"/>
<path d="M77.5645 189.216L77.7017 189.177L78.0913 189.062C78.4316 188.958 78.9366 188.81 79.6007 188.65C80.3988 188.455 81.2093 188.314 82.0266 188.228C83.111 188.129 84.2022 188.129 85.2867 188.228C86.6027 188.337 87.9034 188.585 89.167 188.969C89.87 189.178 90.5546 189.444 91.2142 189.765L93.3218 190.796C96.2252 192.18 99.4579 193.601 102.91 194.962C109.815 197.706 116.445 199.046 121.17 200.116C123.541 200.665 125.462 201.071 126.779 201.389L128.305 201.746L128.7 201.839H128.838L128.706 201.795L128.311 201.685C127.97 201.592 127.46 201.449 126.801 201.285C125.484 200.95 123.574 200.495 121.203 199.951C116.483 198.853 109.869 197.503 102.987 194.748C99.5402 193.387 96.3075 191.976 93.4041 190.599L91.2856 189.605C90.615 189.284 89.9193 189.018 89.2054 188.81C87.9307 188.429 86.6187 188.186 85.2922 188.085C84.1968 187.985 83.0945 187.985 81.9991 188.085C81.1769 188.181 80.3626 188.335 79.5622 188.546C78.9036 188.716 78.3987 188.875 78.0639 188.991L77.6797 189.133C77.6383 189.156 77.5996 189.184 77.5645 189.216Z" fill="#455A64"/>
<path d="M78.5801 186.657C78.5801 186.69 79.1728 186.585 80.1223 186.481C81.3563 186.35 82.5986 186.316 83.838 186.377C85.0801 186.442 86.3152 186.606 87.5317 186.865C88.4648 187.063 89.0356 187.227 89.0411 187.194C88.9194 187.129 88.7904 187.077 88.6569 187.041C88.2968 186.916 87.9304 186.809 87.5592 186.722C85.1194 186.113 82.5844 185.982 80.0949 186.338C79.6229 186.404 79.2387 186.475 78.9972 186.541C78.8542 186.564 78.7143 186.602 78.5801 186.657Z" fill="#455A64"/>
<path d="M153.092 191.938C153.092 191.971 153.641 191.554 154.579 190.977C157.004 189.476 159.724 188.515 162.554 188.162C163.652 188.03 164.321 188.014 164.316 187.975C164.157 187.959 163.997 187.959 163.838 187.975C163.404 187.973 162.97 187.993 162.537 188.035C159.666 188.312 156.906 189.286 154.497 190.873C154.041 191.18 153.679 191.422 153.443 191.641C153.315 191.727 153.198 191.826 153.092 191.938Z" fill="#455A64"/>
<path d="M143.366 218.266L143.212 218.326L142.773 218.513C142.384 218.667 141.818 218.936 141.061 219.226C139.552 219.825 137.318 220.648 134.475 221.586C128.75 223.458 120.518 225.84 110.671 228.321L110.787 228.381C108.948 223.288 106.945 217.662 104.793 211.751L104.733 211.883L112.142 208.837L153.201 191.938C154.875 190.171 156.412 188.612 157.856 187.35C159.076 186.27 160.379 185.289 161.752 184.413C162.617 183.87 163.509 183.371 164.425 182.92L165.144 182.586L165.386 182.465L165.139 182.569L164.409 182.887C163.484 183.323 162.584 183.811 161.714 184.347C160.329 185.215 159.015 186.191 157.784 187.267C156.33 188.524 154.782 190.077 153.103 191.839C143.097 195.944 128.405 201.971 112.021 208.672L104.601 211.724L104.508 211.762L104.541 211.855C106.681 217.767 108.712 223.381 110.551 228.48L110.578 228.557H110.666C120.512 226.054 128.734 223.645 134.453 221.746C137.312 220.785 139.541 219.951 141.039 219.331C141.791 219.034 142.356 218.754 142.74 218.59L143.174 218.387L143.366 218.266Z" fill="#455A64"/>
<path d="M95.456 125.045C95.456 125.045 89.8798 128.261 88.7492 132.037C88.0576 134.331 82.8546 163.667 82.0313 169.452C81.208 175.237 82.9424 179.523 85.4122 181.444C87.882 183.365 95.3572 185.917 95.3572 185.917L105.879 189.326L108.892 181.642L98.8808 167.257L99.8468 157.564L95.456 125.045Z" fill="black"/>
<path d="M106.428 119.98L109.908 117.411C109.908 117.411 114.442 122.049 119.65 121.5C124.859 120.951 127.943 116.967 127.943 116.967L143.475 120.134C144.518 120.342 146.417 121.001 148.234 123.597C150.265 126.495 159.875 139.338 159.875 139.338H166.604C167.514 139.338 168.407 139.587 169.186 140.057C169.966 140.527 170.602 141.2 171.027 142.005C172.175 144.2 173.552 147.12 173.42 148.333C173.19 150.38 173.585 156.017 170.841 157.762C169.968 158.311 166.845 159.991 164.43 159.881C160.857 159.711 156.708 157.85 154.321 156.182C152.295 154.766 147.592 149.876 145.781 147.949V147.976L144.617 188.723L103.909 187.581L95.457 125.046C95.457 125.046 106.017 119.98 106.428 119.98Z" fill="black"/>
<path d="M145.923 130.896C145.868 130.896 145.764 135.946 145.687 142.175C145.61 148.405 145.599 153.454 145.66 153.454C145.72 153.454 145.824 148.41 145.896 142.175C145.967 135.94 145.984 130.896 145.923 130.896Z" fill="#263238"/>
<path d="M90.5293 163.831C90.5293 163.831 90.8751 163.885 91.4898 164.001C92.3571 164.174 93.2022 164.445 94.009 164.808C95.2066 165.344 96.3345 166.024 97.3679 166.833C98.637 167.831 99.821 168.932 100.908 170.126C102.071 171.383 103.136 172.629 104.135 173.732C105.01 174.721 105.935 175.665 106.907 176.558C107.564 177.153 108.261 177.703 108.992 178.205C109.25 178.391 109.464 178.512 109.602 178.6C109.67 178.648 109.744 178.688 109.821 178.721C109.763 178.66 109.697 178.608 109.624 178.567C109.492 178.463 109.289 178.331 109.042 178.139C108.33 177.608 107.651 177.036 107.006 176.427C106.188 175.664 105.266 174.692 104.261 173.584C103.257 172.475 102.214 171.224 101.045 169.961C99.949 168.763 98.7517 167.661 97.4667 166.668C96.4172 165.858 95.2703 165.184 94.0529 164.659C93.2325 164.306 92.3716 164.055 91.4898 163.913C91.25 163.872 91.0082 163.844 90.7653 163.831C90.6869 163.822 90.6077 163.822 90.5293 163.831Z" fill="#263238"/>
<path d="M89.6074 161.071C89.6074 161.11 90.2221 161.197 91.1936 161.466C93.7369 162.166 96.0444 163.539 97.873 165.44C98.5755 166.164 98.9707 166.669 98.9707 166.647C98.9092 166.513 98.8298 166.387 98.7347 166.274C98.5029 165.945 98.2499 165.632 97.9773 165.336C96.1845 163.352 93.836 161.954 91.2375 161.324C90.8478 161.224 90.4517 161.15 90.052 161.104C89.9053 161.078 89.7563 161.067 89.6074 161.071Z" fill="#263238"/>
<g opacity="0.3">
<path d="M165.38 153.92C163.223 154.507 160.633 151.406 158.673 149.463C157.658 148.454 156.599 147.378 156.225 145.995C155.956 144.831 156.074 143.611 156.56 142.521C156.925 141.537 157.406 140.601 157.993 139.732C157.817 141.406 157.4 143.975 157.965 146.077C158.437 147.828 159.546 149.227 160.709 150.55C161.873 151.873 163.454 153.421 165.364 153.92" fill="black"/>
</g>
<path d="M156.18 152.147C156.224 152.147 155.972 151.433 155.769 150.264C155.655 149.58 155.589 148.889 155.571 148.195C155.563 147.347 155.621 146.499 155.747 145.659C155.885 144.823 156.09 143.999 156.362 143.195C156.592 142.54 156.869 141.901 157.19 141.285C157.739 140.237 158.195 139.639 158.162 139.639C158.035 139.758 157.922 139.893 157.827 140.039C157.701 140.198 157.585 140.365 157.481 140.539C157.329 140.762 157.187 140.993 157.059 141.23C156.717 141.843 156.423 142.482 156.18 143.14C155.894 143.952 155.679 144.788 155.538 145.638C155.412 146.489 155.359 147.351 155.379 148.212C155.406 148.914 155.488 149.613 155.626 150.303C155.676 150.599 155.752 150.852 155.813 151.093C155.861 151.29 155.92 151.484 155.988 151.675C156.04 151.837 156.104 151.995 156.18 152.147Z" fill="#263238"/>
<path d="M126.247 118.568C126.247 118.623 126.697 118.903 127.196 119.347C127.696 119.792 128.058 120.214 128.058 120.176C127.883 119.79 127.629 119.444 127.314 119.16C126.998 118.877 126.627 118.662 126.225 118.529L126.247 118.568Z" fill="#263238"/>
<path d="M122.021 121.006C121.977 121.05 122.383 121.489 122.712 122.136C123.042 122.784 123.168 123.371 123.234 123.366C123.258 122.901 123.141 122.44 122.899 122.043C122.721 121.615 122.414 121.252 122.021 121.006Z" fill="#263238"/>
<path d="M114.756 123.557C114.947 123.168 115.104 122.762 115.222 122.344C115.403 121.949 115.542 121.535 115.634 121.109C115.12 121.828 114.816 122.676 114.756 123.557Z" fill="#263238"/>
<path d="M110.084 121.351C110.144 121.351 110.304 120.654 110.765 119.902C111.226 119.15 111.774 118.678 111.731 118.629C111.242 118.897 110.845 119.304 110.589 119.798C110.273 120.256 110.098 120.795 110.084 121.351Z" fill="#263238"/>
<path d="M96.6769 134.543C96.622 134.543 97.3081 140.119 98.2192 146.974C99.1302 153.829 99.9041 159.384 99.9645 159.378C100.025 159.373 99.3333 153.802 98.4222 146.947C97.5111 140.092 96.7373 134.537 96.6769 134.543Z" fill="#263238"/>
<path d="M157.695 143.557C157.675 143.748 157.675 143.941 157.695 144.133C157.708 144.358 157.735 144.581 157.777 144.803C157.805 144.934 157.827 145.071 157.849 145.22C157.871 145.368 157.926 145.516 157.969 145.675C158.165 146.431 158.433 147.166 158.771 147.871C159.19 148.726 159.69 149.541 160.264 150.302C160.851 151.055 161.519 151.741 162.256 152.349C162.862 152.841 163.535 153.246 164.254 153.551C164.407 153.617 164.55 153.683 164.693 153.732L165.099 153.848L165.456 153.946C165.565 153.946 165.67 153.974 165.763 153.985C165.945 154.015 166.128 154.032 166.312 154.034C165.618 153.897 164.94 153.691 164.287 153.419C163.594 153.096 162.945 152.687 162.355 152.201C161.635 151.595 160.982 150.914 160.406 150.17C159.841 149.422 159.344 148.625 158.919 147.788C158.583 147.097 158.304 146.379 158.085 145.642C157.761 144.363 157.75 143.551 157.695 143.557Z" fill="#263238"/>
<g opacity="0.3">
<path d="M97.9867 190.134C96.2579 189.3 95.8682 187.061 95.6926 185.151C95.1766 179.552 94.6589 173.956 94.1393 168.361C93.8978 165.727 93.7826 162.725 95.6377 160.842C97.3336 159.124 100.028 159.02 102.438 159.026C117.339 159.069 130.5 159.509 145.401 159.574L144.644 185.645L97.9867 190.134Z" fill="black"/>
</g>
<path d="M151.824 163.572L150.238 193.808C150.207 194.369 149.962 194.897 149.553 195.283C149.145 195.669 148.604 195.884 148.042 195.883L99.8865 195.971C99.3228 195.971 98.7804 195.755 98.3717 195.367C97.963 194.979 97.7194 194.448 97.6912 193.885L95.8525 164.16C95.7922 162.93 96.6703 161.284 97.9217 161.262H149.606C149.906 161.258 150.204 161.317 150.481 161.433C150.758 161.549 151.008 161.72 151.215 161.937C151.423 162.154 151.584 162.41 151.689 162.692C151.794 162.973 151.839 163.273 151.824 163.572Z" fill="#E0E0E0"/>
<path d="M151.824 163.574C151.826 163.538 151.826 163.501 151.824 163.464C151.833 163.351 151.833 163.237 151.824 163.124C151.766 162.741 151.609 162.379 151.367 162.077C151.125 161.774 150.807 161.541 150.446 161.401C150.074 161.265 149.678 161.209 149.282 161.236H146.357L127.696 161.203L100.018 161.176H98.0533C97.7038 161.16 97.3575 161.25 97.0599 161.434C96.7685 161.621 96.5182 161.865 96.3244 162.153C95.9315 162.726 95.7211 163.406 95.7207 164.101C95.7591 164.776 95.803 165.457 95.8414 166.137C96.0061 168.881 96.1817 171.626 96.3519 174.463C96.7031 180.122 97.0654 185.989 97.4496 191.977L97.5209 193.074C97.5538 193.453 97.5484 193.815 97.6142 194.211C97.6916 194.594 97.8652 194.951 98.1187 195.249C98.3722 195.546 98.6972 195.775 99.0632 195.912C99.4261 196.038 99.8104 196.09 100.194 196.066H103.487H112.131L128.476 196.027L143.267 195.994H146.681H147.515C147.799 195.998 148.083 195.986 148.366 195.956C148.923 195.879 149.433 195.6 149.799 195.172C150.164 194.744 150.359 194.197 150.347 193.634C150.375 193.085 150.402 192.591 150.43 192.076C150.484 191.044 150.534 190.039 150.583 189.057C150.984 181.192 151.308 174.825 151.527 170.396C151.637 168.201 151.719 166.494 151.774 165.33C151.802 164.754 151.824 164.315 151.835 164.013C151.846 163.711 151.835 163.563 151.835 163.563L151.802 164.013C151.802 164.315 151.758 164.754 151.725 165.33C151.659 166.494 151.56 168.195 151.439 170.396C151.198 174.787 150.852 181.159 150.424 189.024C150.375 190.006 150.32 191.016 150.265 192.043C150.239 192.559 150.212 193.08 150.183 193.607C150.189 194.127 150.01 194.633 149.678 195.034C149.335 195.436 148.856 195.698 148.333 195.769C148.063 195.789 147.791 195.789 147.521 195.769H143.262H128.47H112.126H103.481H100.188C99.8314 195.794 99.4732 195.747 99.1345 195.632C98.8009 195.506 98.5046 195.297 98.2733 195.026C98.042 194.754 97.8832 194.428 97.8118 194.079C97.7514 193.739 97.7514 193.343 97.724 192.981L97.6526 191.883C97.2794 185.885 96.9172 180.028 96.5549 174.37C96.3793 171.543 96.2037 168.761 96.0061 166.044C95.9677 165.363 95.9238 164.688 95.8854 164.013C95.8808 163.361 96.072 162.722 96.4342 162.18C96.5936 161.906 96.823 161.679 97.0988 161.523C97.3746 161.367 97.6869 161.287 98.0039 161.291H99.9688H127.641L146.302 161.258H149.228C149.616 161.225 150.007 161.276 150.375 161.406C150.677 161.525 150.948 161.713 151.165 161.955C151.47 162.272 151.673 162.674 151.747 163.108C151.781 163.262 151.806 163.417 151.824 163.574Z" fill="#263238"/>
<path d="M120.621 178.334C120.621 178.895 120.788 179.443 121.099 179.91C121.411 180.377 121.854 180.74 122.373 180.955C122.891 181.17 123.462 181.226 124.012 181.117C124.563 181.007 125.068 180.737 125.465 180.34C125.862 179.943 126.132 179.438 126.242 178.887C126.351 178.337 126.295 177.766 126.08 177.248C125.865 176.729 125.502 176.286 125.035 175.974C124.568 175.663 124.02 175.496 123.459 175.496C122.707 175.498 121.986 175.797 121.454 176.329C120.922 176.861 120.623 177.582 120.621 178.334Z" fill="white"/>
<path d="M120.623 178.332C120.65 178.332 120.623 178.079 120.754 177.651C120.922 177.045 121.287 176.511 121.792 176.136C122.2 175.831 122.684 175.644 123.192 175.599C123.699 175.553 124.21 175.649 124.666 175.877C125.121 176.105 125.505 176.455 125.773 176.889C126.041 177.322 126.183 177.822 126.183 178.332C126.183 178.734 126.094 179.131 125.924 179.496C125.753 179.86 125.505 180.183 125.196 180.44C124.887 180.698 124.525 180.884 124.136 180.987C123.747 181.089 123.34 181.104 122.944 181.032C122.522 180.957 122.124 180.784 121.781 180.527C121.276 180.152 120.911 179.619 120.744 179.012C120.628 178.584 120.639 178.332 120.612 178.332C120.603 178.392 120.603 178.453 120.612 178.513C120.613 178.688 120.633 178.863 120.672 179.034C120.817 179.673 121.18 180.242 121.698 180.642C122.057 180.92 122.477 181.108 122.922 181.191C123.436 181.291 123.967 181.252 124.459 181.076C125.008 180.883 125.485 180.527 125.826 180.055C126.176 179.582 126.376 179.014 126.398 178.426C126.42 177.838 126.264 177.257 125.95 176.759C125.636 176.261 125.179 175.87 124.639 175.636C124.098 175.403 123.5 175.338 122.922 175.45C122.477 175.533 122.057 175.721 121.698 175.999C121.179 176.401 120.816 176.972 120.672 177.613C120.633 177.784 120.613 177.959 120.612 178.134C120.605 178.2 120.609 178.267 120.623 178.332Z" fill="#263238"/>
<path d="M150.204 166.932C150.144 166.932 149.908 172.008 149.656 178.276C149.403 184.544 149.277 189.632 149.337 189.632C149.398 189.632 149.628 184.555 149.886 178.287C150.144 172.019 150.259 166.932 150.204 166.932Z" fill="#263238"/>
<path d="M164.678 127.486C164.958 127.244 163.729 122.497 163.729 122.497C163.729 122.497 166.994 117.167 167.082 115.449C167.17 113.731 165.792 110.202 165.792 110.202L156.418 107.793C156.418 107.793 153.41 113.386 152.807 115.362C152.203 117.337 153.855 124.055 153.855 124.055L155.441 127.496C155.441 127.496 160.216 131.267 164.678 127.486Z" fill="#FFBE9D"/>
<path d="M167.059 116.476C167.426 115.801 167.755 115.106 168.047 114.396C168.64 112.985 169.37 111.608 168.047 110.817C167.842 110.682 167.609 110.592 167.366 110.554C167.123 110.516 166.874 110.531 166.637 110.598C166.637 110.598 166.84 109.412 166.132 108.951C165.927 108.822 165.694 108.743 165.452 108.722C165.211 108.701 164.968 108.738 164.743 108.83C164.743 108.83 164.963 107.184 163.947 106.454C163.564 106.202 163.119 106.061 162.66 106.048C162.202 106.034 161.749 106.148 161.351 106.377C161.351 106.377 162.158 99.0665 162.23 98.6933C162.482 97.2718 161.961 96.015 160.545 96.3662C160.023 96.4925 159.738 97.0413 159.129 99.4233C158.519 101.805 157.542 105.867 157.542 105.867C157.542 105.867 155.896 108.726 155.122 110.257C154.348 111.789 152.806 115.34 152.68 116.295C152.345 118.715 153.777 121.92 153.777 121.92L163.739 122.469C163.739 122.469 166.681 117.167 167.059 116.476Z" fill="#FFBE9D"/>
<path d="M166.439 110.912C166.157 111.259 165.9 111.626 165.671 112.01L164.881 113.212C164.716 113.447 164.573 113.697 164.452 113.958C164.312 114.254 164.272 114.587 164.337 114.908C164.366 115.076 164.439 115.233 164.549 115.363C164.659 115.494 164.802 115.592 164.963 115.649C165.264 115.723 165.583 115.684 165.858 115.539C166.091 115.421 166.313 115.284 166.522 115.127C166.719 114.985 166.9 114.853 167.07 114.721C167.394 114.469 167.647 114.255 167.811 114.101C167.976 113.947 168.069 113.854 168.058 113.843C168.047 113.832 167.647 114.134 166.961 114.606C166.585 114.89 166.186 115.143 165.77 115.363C165.537 115.481 165.271 115.512 165.018 115.451C164.891 115.406 164.779 115.328 164.693 115.225C164.607 115.121 164.55 114.997 164.529 114.864C164.476 114.586 164.511 114.298 164.628 114.041C164.743 113.788 164.878 113.545 165.034 113.316L165.781 112.092C166.033 111.718 166.254 111.323 166.439 110.912Z" fill="#EB996E"/>
<path d="M158.245 111.785C158.335 111.261 158.299 110.723 158.141 110.215C158.052 109.693 157.839 109.2 157.521 108.777C157.466 108.805 157.746 109.441 157.938 110.265C158.13 111.088 158.207 111.785 158.245 111.785Z" fill="#EB996E"/>
<path d="M154.32 113.917C155.238 113.026 156.396 112.422 157.652 112.178C158.903 111.938 160.184 111.89 161.45 112.035C162.46 112.123 163.645 112.386 164.079 113.292C164.512 114.197 163.985 115.432 163.085 115.965C162.14 116.435 161.071 116.598 160.028 116.431C158.995 116.261 157.944 116.218 156.9 116.305" fill="#FFBE9D"/>
<path d="M156.9 116.308C156.9 116.308 157.18 116.308 157.685 116.308C158.4 116.339 159.112 116.407 159.82 116.511C160.317 116.574 160.818 116.594 161.319 116.572C161.902 116.554 162.476 116.41 162.998 116.149C163.585 115.845 164.031 115.326 164.244 114.7C164.359 114.367 164.383 114.009 164.315 113.663C164.232 113.308 164.04 112.987 163.766 112.746C163.215 112.315 162.549 112.055 161.851 112C161.222 111.927 160.59 111.889 159.957 111.884C158.882 111.864 157.811 112.028 156.791 112.367C156.102 112.599 155.458 112.946 154.886 113.394C154.735 113.516 154.59 113.646 154.452 113.783C154.359 113.882 154.315 113.937 154.321 113.943C154.326 113.948 154.529 113.751 154.935 113.454C155.515 113.041 156.156 112.721 156.834 112.505C157.846 112.196 158.9 112.052 159.957 112.077C160.581 112.087 161.204 112.13 161.823 112.203C162.479 112.255 163.104 112.497 163.624 112.9C163.866 113.114 164.036 113.398 164.112 113.712C164.173 114.022 164.15 114.342 164.046 114.64C163.852 115.216 163.443 115.695 162.905 115.979C162.409 116.232 161.864 116.377 161.308 116.401C160.817 116.425 160.325 116.413 159.837 116.363C159.123 116.269 158.405 116.223 157.685 116.226C157.49 116.233 157.296 116.251 157.103 116.281C156.966 116.281 156.9 116.297 156.9 116.308Z" fill="#EB996E"/>
<path d="M166.368 111.029C165.32 112.621 164.392 114.372 163.509 116.062C163.298 116.578 162.953 117.027 162.51 117.363C162.131 117.593 161.193 117.171 160.775 117.028L163.651 110.48" fill="#FFBE9D"/>
<path d="M163.651 110.48C163.553 110.636 163.469 110.799 163.399 110.969L162.762 112.341C162.213 113.505 161.494 115.14 160.682 116.984L160.633 117.089L160.743 117.127C161.071 117.259 161.406 117.372 161.747 117.467C161.891 117.503 162.038 117.525 162.186 117.533C162.266 117.537 162.345 117.528 162.422 117.506C162.5 117.487 162.573 117.451 162.636 117.401C162.868 117.234 163.066 117.023 163.218 116.781C163.514 116.315 163.723 115.848 163.959 115.42C164.409 114.547 164.821 113.774 165.183 113.12C165.545 112.467 165.841 111.951 166.055 111.595C166.173 111.419 166.277 111.236 166.368 111.046C166.223 111.216 166.094 111.4 165.984 111.595C165.754 111.94 165.435 112.445 165.056 113.087C164.678 113.73 164.25 114.504 163.789 115.371C163.547 115.799 163.328 116.276 163.048 116.71C162.903 116.927 162.716 117.114 162.499 117.259C162.388 117.317 162.265 117.349 162.14 117.355C162.015 117.361 161.89 117.339 161.774 117.292C161.439 117.197 161.11 117.086 160.786 116.957L160.847 117.1C161.659 115.244 162.367 113.603 162.867 112.423L163.443 111.024C163.529 110.849 163.599 110.668 163.651 110.48Z" fill="#EB996E"/>
<path d="M164.43 108.532C163.504 110.852 162.579 113.171 161.653 115.491C161.483 115.996 161.231 116.469 160.906 116.891C160.74 117.098 160.525 117.261 160.281 117.367C160.038 117.473 159.772 117.519 159.507 117.5C159.152 117.407 158.839 117.198 158.616 116.907C158.393 116.616 158.274 116.259 158.277 115.892C158.299 115.159 158.475 114.439 158.793 113.779C159.627 111.664 160.293 109.488 160.786 107.27" fill="#FFBE9D"/>
<path d="M160.788 107.27C160.754 107.336 160.73 107.406 160.716 107.478L160.552 108.093C160.409 108.642 160.2 109.399 159.909 110.343C159.619 111.287 159.234 112.401 158.757 113.636C158.465 114.267 158.268 114.939 158.175 115.628C158.149 116.007 158.223 116.385 158.389 116.726C158.553 117.095 158.851 117.388 159.223 117.544C159.413 117.612 159.615 117.639 159.815 117.623C160.016 117.607 160.211 117.548 160.387 117.451C160.722 117.268 161.004 117.001 161.205 116.677C161.539 116.073 161.82 115.441 162.044 114.789C162.522 113.576 162.95 112.484 163.312 111.551L164.152 109.355C164.24 109.114 164.311 108.916 164.366 108.757C164.396 108.688 164.418 108.617 164.432 108.543C164.387 108.603 164.352 108.67 164.328 108.74C164.262 108.9 164.174 109.092 164.075 109.328L163.186 111.479C162.813 112.407 162.368 113.493 161.88 114.701C161.653 115.339 161.374 115.958 161.046 116.55C160.862 116.843 160.607 117.083 160.305 117.248C160.155 117.333 159.989 117.385 159.817 117.4C159.646 117.415 159.473 117.393 159.311 117.335C158.99 117.195 158.732 116.941 158.587 116.622C158.434 116.31 158.368 115.963 158.395 115.617C158.477 114.949 158.662 114.297 158.943 113.686C159.415 112.462 159.778 111.336 160.041 110.392C160.305 109.448 160.508 108.658 160.628 108.12C160.683 107.846 160.727 107.637 160.755 107.495C160.776 107.421 160.787 107.346 160.788 107.27Z" fill="#EB996E"/>
<path d="M170.814 144.503C170.561 143.581 164.228 124.849 164.228 124.849L153.756 123.598L158.037 139.734C158.037 139.734 157.373 143.834 158.037 146.259C158.701 148.685 164.074 155.288 166.818 153.702C169.563 152.116 171.061 145.425 170.814 144.503Z" fill="#FFBE9D"/>
<path d="M158.014 121.938C158.216 121.963 158.422 121.937 158.612 121.861C159.083 121.715 159.515 121.466 159.878 121.133C160.242 120.8 160.527 120.391 160.714 119.935C160.804 119.752 160.847 119.551 160.84 119.348C160.579 119.959 160.206 120.517 159.743 120.994C159.231 121.415 158.644 121.735 158.014 121.938Z" fill="#EB996E"/>
</svg>
