<svg width="16" height="16" viewBox="0 0 16 16" fill="none" xmlns="http://www.w3.org/2000/svg">
<path d="M15.5 8C15.5004 7.47811 15.375 6.96382 15.1346 6.5006C14.8942 6.03738 14.5458 5.63888 14.1188 5.33878C13.6919 5.03868 13.1989 4.84582 12.6816 4.77651C12.1644 4.7072 11.638 4.76347 11.1471 4.94058C10.6562 5.11768 10.2151 5.4104 9.86126 5.79399C9.50739 6.17757 9.25109 6.64074 9.11405 7.14431C8.97701 7.64788 8.96325 8.17705 9.07395 8.68706C9.18464 9.19707 9.41653 9.67292 9.75 10.0744V13.75C9.7497 13.8818 9.78413 14.0114 9.84983 14.1256C9.91553 14.2399 10.0102 14.3348 10.1242 14.4008C10.2383 14.4668 10.3678 14.5017 10.4996 14.5017C10.6314 14.5018 10.7609 14.4671 10.875 14.4012L12.25 13.6138L13.6281 14.4012C13.7422 14.4664 13.8713 14.5004 14.0027 14.4999C14.134 14.4995 14.2629 14.4645 14.3765 14.3986C14.4901 14.3326 14.5844 14.238 14.6499 14.1242C14.7155 14.0104 14.75 13.8813 14.75 13.75V10.0744C15.2352 9.49211 15.5007 8.75796 15.5 8ZM12.25 6.25C12.5961 6.25 12.9345 6.35264 13.2222 6.54493C13.51 6.73722 13.7343 7.01053 13.8668 7.3303C13.9992 7.65007 14.0339 8.00194 13.9664 8.34141C13.8989 8.68087 13.7322 8.9927 13.4874 9.23744C13.2427 9.48218 12.9309 9.64885 12.5914 9.71637C12.2519 9.7839 11.9001 9.74924 11.5803 9.61679C11.2605 9.48434 10.9872 9.26003 10.7949 8.97225C10.6026 8.68446 10.5 8.34612 10.5 8C10.5 7.53587 10.6844 7.09075 11.0126 6.76256C11.3408 6.43437 11.7859 6.25 12.25 6.25ZM12.625 12.0988C12.5117 12.0341 12.3836 12.0001 12.2531 12.0001C12.1227 12.0001 11.9945 12.0341 11.8813 12.0988L11.25 12.4575V11.0919C11.9 11.3027 12.6 11.3027 13.25 11.0919V12.4575L12.625 12.0988ZM8.75 12C8.75 12.1989 8.67098 12.3897 8.53033 12.5303C8.38968 12.671 8.19891 12.75 8 12.75H2.5C2.16848 12.75 1.85054 12.6183 1.61612 12.3839C1.3817 12.1495 1.25 11.8315 1.25 11.5V3.5C1.25 3.16848 1.3817 2.85054 1.61612 2.61612C1.85054 2.3817 2.16848 2.25 2.5 2.25H13.5C13.8315 2.25 14.1495 2.3817 14.3839 2.61612C14.6183 2.85054 14.75 3.16848 14.75 3.5C14.7503 3.67712 14.6878 3.84862 14.5738 3.98412C14.4597 4.11962 14.3014 4.21038 14.1268 4.24032C13.9522 4.27027 13.7727 4.23746 13.62 4.14772C13.4673 4.05797 13.3513 3.91708 13.2925 3.75H2.75V11.25H8C8.19891 11.25 8.38968 11.329 8.53033 11.4697C8.67098 11.6103 8.75 11.8011 8.75 12ZM8 8.75C8 8.94891 7.92098 9.13968 7.78033 9.28033C7.63968 9.42098 7.44891 9.5 7.25 9.5H4.75C4.55109 9.5 4.36032 9.42098 4.21967 9.28033C4.07902 9.13968 4 8.94891 4 8.75C4 8.55109 4.07902 8.36032 4.21967 8.21967C4.36032 8.07902 4.55109 8 4.75 8H7.25C7.44891 8 7.63968 8.07902 7.78033 8.21967C7.92098 8.36032 8 8.55109 8 8.75ZM8 6.25C8 6.44891 7.92098 6.63968 7.78033 6.78033C7.63968 6.92098 7.44891 7 7.25 7H4.75C4.55109 7 4.36032 6.92098 4.21967 6.78033C4.07902 6.63968 4 6.44891 4 6.25C4 6.05109 4.07902 5.86032 4.21967 5.71967C4.36032 5.57902 4.55109 5.5 4.75 5.5H7.25C7.44891 5.5 7.63968 5.57902 7.78033 5.71967C7.92098 5.86032 8 6.05109 8 6.25Z" fill="#71717A"/>
</svg>
