<svg width="18" height="18" viewBox="0 0 18 18" fill="none" xmlns="http://www.w3.org/2000/svg">
<path d="M15.1875 3.375H2.81252C2.51415 3.375 2.228 3.49353 2.01702 3.7045C1.80605 3.91548 1.68752 4.20163 1.68752 4.5V15.75C1.68625 15.9644 1.74687 16.1747 1.86211 16.3555C1.97734 16.5364 2.14231 16.6801 2.33721 16.7695C2.48614 16.8387 2.64832 16.8747 2.81252 16.875C3.07662 16.8744 3.33195 16.7802 3.53322 16.6092C3.53658 16.607 3.53965 16.6044 3.54236 16.6015L5.8008 14.625H15.1875C15.4859 14.625 15.772 14.5065 15.983 14.2955C16.194 14.0845 16.3125 13.7984 16.3125 13.5V4.5C16.3125 4.20163 16.194 3.91548 15.983 3.7045C15.772 3.49353 15.4859 3.375 15.1875 3.375ZM15.1875 13.5H5.8008C5.53588 13.4999 5.27941 13.5933 5.07658 13.7637L5.06814 13.7714L2.81252 15.75V4.5H15.1875V13.5ZM6.18752 7.875C6.18752 7.72582 6.24678 7.58274 6.35227 7.47725C6.45776 7.37176 6.60084 7.3125 6.75002 7.3125H11.25C11.3992 7.3125 11.5423 7.37176 11.6478 7.47725C11.7533 7.58274 11.8125 7.72582 11.8125 7.875C11.8125 8.02418 11.7533 8.16726 11.6478 8.27275C11.5423 8.37824 11.3992 8.4375 11.25 8.4375H6.75002C6.60084 8.4375 6.45776 8.37824 6.35227 8.27275C6.24678 8.16726 6.18752 8.02418 6.18752 7.875ZM6.18752 10.125C6.18752 9.97582 6.24678 9.83274 6.35227 9.72725C6.45776 9.62176 6.60084 9.5625 6.75002 9.5625H11.25C11.3992 9.5625 11.5423 9.62176 11.6478 9.72725C11.7533 9.83274 11.8125 9.97582 11.8125 10.125C11.8125 10.2742 11.7533 10.4173 11.6478 10.5227C11.5423 10.6282 11.3992 10.6875 11.25 10.6875H6.75002C6.60084 10.6875 6.45776 10.6282 6.35227 10.5227C6.24678 10.4173 6.18752 10.2742 6.18752 10.125Z" fill="black"/>
</svg>
