<svg width="37" height="36" viewBox="0 0 37 36" fill="none" xmlns="http://www.w3.org/2000/svg">
<path d="M19.0625 3.375C15.3341 3.37909 11.7597 4.86199 9.12333 7.49833C6.48699 10.1347 5.00409 13.7091 5 17.4375V29.2964C5.00074 29.8806 5.23315 30.4407 5.64624 30.8538C6.05933 31.2669 6.61939 31.4993 7.20359 31.5H19.0625C22.7921 31.5 26.369 30.0184 29.0062 27.3812C31.6434 24.744 33.125 21.1671 33.125 17.4375C33.125 13.7079 31.6434 10.131 29.0062 7.49381C26.369 4.85658 22.7921 3.375 19.0625 3.375ZM23 21.375H14C13.7016 21.375 13.4155 21.2565 13.2045 21.0455C12.9935 20.8345 12.875 20.5484 12.875 20.25C12.875 19.9516 12.9935 19.6655 13.2045 19.4545C13.4155 19.2435 13.7016 19.125 14 19.125H23C23.2984 19.125 23.5845 19.2435 23.7955 19.4545C24.0065 19.6655 24.125 19.9516 24.125 20.25C24.125 20.5484 24.0065 20.8345 23.7955 21.0455C23.5845 21.2565 23.2984 21.375 23 21.375ZM23 16.875H14C13.7016 16.875 13.4155 16.7565 13.2045 16.5455C12.9935 16.3345 12.875 16.0484 12.875 15.75C12.875 15.4516 12.9935 15.1655 13.2045 14.9545C13.4155 14.7435 13.7016 14.625 14 14.625H23C23.2984 14.625 23.5845 14.7435 23.7955 14.9545C24.0065 15.1655 24.125 15.4516 24.125 15.75C24.125 16.0484 24.0065 16.3345 23.7955 16.5455C23.5845 16.7565 23.2984 16.875 23 16.875Z" fill="black"/>
</svg>
