<svg width="15" height="14" viewBox="0 0 15 14" fill="none" xmlns="http://www.w3.org/2000/svg">
<path d="M12.3125 2.625H2.68752C2.45545 2.625 2.23289 2.71719 2.0688 2.88128C1.9047 3.04538 1.81252 3.26794 1.81252 3.5V12.25C1.81153 12.4168 1.85867 12.5803 1.9483 12.721C2.03793 12.8616 2.16624 12.9734 2.31783 13.043C2.43367 13.0968 2.5598 13.1247 2.68752 13.125C2.89292 13.1245 3.09152 13.0513 3.24806 12.9183C3.25067 12.9166 3.25306 12.9146 3.25517 12.9123L5.01173 11.375H12.3125C12.5446 11.375 12.7671 11.2828 12.9312 11.1187C13.0953 10.9546 13.1875 10.7321 13.1875 10.5V3.5C13.1875 3.26794 13.0953 3.04538 12.9312 2.88128C12.7671 2.71719 12.5446 2.625 12.3125 2.625ZM12.3125 10.5H5.01173C4.80568 10.4999 4.60621 10.5725 4.44845 10.7051L4.44189 10.7111L2.68752 12.25V3.5H12.3125V10.5ZM5.31252 6.125C5.31252 6.00897 5.35861 5.89769 5.44066 5.81564C5.5227 5.73359 5.63398 5.6875 5.75002 5.6875H9.25002C9.36605 5.6875 9.47733 5.73359 9.55937 5.81564C9.64142 5.89769 9.68752 6.00897 9.68752 6.125C9.68752 6.24103 9.64142 6.35231 9.55937 6.43436C9.47733 6.51641 9.36605 6.5625 9.25002 6.5625H5.75002C5.63398 6.5625 5.5227 6.51641 5.44066 6.43436C5.35861 6.35231 5.31252 6.24103 5.31252 6.125ZM5.31252 7.875C5.31252 7.75897 5.35861 7.64769 5.44066 7.56564C5.5227 7.48359 5.63398 7.4375 5.75002 7.4375H9.25002C9.36605 7.4375 9.47733 7.48359 9.55937 7.56564C9.64142 7.64769 9.68752 7.75897 9.68752 7.875C9.68752 7.99103 9.64142 8.10231 9.55937 8.18436C9.47733 8.26641 9.36605 8.3125 9.25002 8.3125H5.75002C5.63398 8.3125 5.5227 8.26641 5.44066 8.18436C5.35861 8.10231 5.31252 7.99103 5.31252 7.875Z" fill="white"/>
</svg>
