<svg width="24" height="24" viewBox="0 0 24 24" fill="none" xmlns="http://www.w3.org/2000/svg">
<path d="M20.3125 11.6251V11.625C20.3125 9.51984 19.4762 7.50091 17.9877 6.01234C16.4991 4.52377 14.4802 3.6875 12.375 3.6875C10.2698 3.6875 8.25091 4.52377 6.76234 6.01234C5.27377 7.50091 4.4375 9.51984 4.4375 11.625V19.5V19.5625H4.5H12.375H12.3751C14.4795 19.5602 16.4971 18.7233 17.9852 17.2352C19.4733 15.7471 20.3102 13.7295 20.3125 11.6251ZM15.6875 10.5C15.6875 10.6823 15.6151 10.8572 15.4861 10.9861C15.3572 11.1151 15.1823 11.1875 15 11.1875H9C8.81766 11.1875 8.6428 11.1151 8.51386 10.9861C8.38493 10.8572 8.3125 10.6823 8.3125 10.5C8.3125 10.3177 8.38493 10.1428 8.51386 10.0139C8.6428 9.88493 8.81766 9.8125 9 9.8125H15C15.1823 9.8125 15.3572 9.88493 15.4861 10.0139C15.6151 10.1428 15.6875 10.3177 15.6875 10.5ZM9 12.8125H15C15.1823 12.8125 15.3572 12.8849 15.4861 13.0139C15.6151 13.1428 15.6875 13.3177 15.6875 13.5C15.6875 13.6823 15.6151 13.8572 15.4861 13.9861C15.3572 14.1151 15.1823 14.1875 15 14.1875H9C8.81766 14.1875 8.6428 14.1151 8.51386 13.9861C8.38493 13.8572 8.3125 13.6823 8.3125 13.5C8.3125 13.3177 8.38493 13.1428 8.51386 13.0139C8.6428 12.8849 8.81766 12.8125 9 12.8125ZM21.6875 11.6249C21.6848 14.0939 20.7028 16.4611 18.9569 18.2069C17.2111 19.9528 14.8439 20.9348 12.3749 20.9375H4.46914C4.09622 20.937 3.73871 20.7887 3.47502 20.525C3.21133 20.2613 3.06298 19.9038 3.0625 19.5309L3.0625 11.625C3.0625 9.15517 4.04364 6.7865 5.79007 5.04007C7.5365 3.29364 9.90517 2.3125 12.375 2.3125C14.8448 2.3125 17.2135 3.29364 18.9599 5.04007C20.7063 6.78648 21.6875 9.15513 21.6875 11.6249Z" fill="white" stroke="white" stroke-width="0.125"/>
</svg>
