<svg width="14" height="14" viewBox="0 0 14 14" fill="none" xmlns="http://www.w3.org/2000/svg">
<path d="M11.8125 2.625H2.18752C1.95545 2.625 1.73289 2.71719 1.5688 2.88128C1.4047 3.04538 1.31252 3.26794 1.31252 3.5V12.25C1.31151 12.4169 1.35871 12.5805 1.44845 12.7211C1.53819 12.8618 1.66664 12.9736 1.81838 13.043C1.934 13.0968 2.05997 13.1248 2.18752 13.125C2.39292 13.1245 2.59152 13.0513 2.74806 12.9183C2.75067 12.9166 2.75306 12.9146 2.75517 12.9123L4.51173 11.375H11.8125C12.0446 11.375 12.2671 11.2828 12.4312 11.1187C12.5953 10.9546 12.6875 10.7321 12.6875 10.5V3.5C12.6875 3.26794 12.5953 3.04538 12.4312 2.88128C12.2671 2.71719 12.0446 2.625 11.8125 2.625ZM8.75002 8.3125H5.25002C5.13398 8.3125 5.0227 8.26641 4.94066 8.18436C4.85861 8.10231 4.81252 7.99103 4.81252 7.875C4.81252 7.75897 4.85861 7.64769 4.94066 7.56564C5.0227 7.48359 5.13398 7.4375 5.25002 7.4375H8.75002C8.86605 7.4375 8.97733 7.48359 9.05938 7.56564C9.14142 7.64769 9.18752 7.75897 9.18752 7.875C9.18752 7.99103 9.14142 8.10231 9.05938 8.18436C8.97733 8.26641 8.86605 8.3125 8.75002 8.3125ZM8.75002 6.5625H5.25002C5.13398 6.5625 5.0227 6.51641 4.94066 6.43436C4.85861 6.35231 4.81252 6.24103 4.81252 6.125C4.81252 6.00897 4.85861 5.89769 4.94066 5.81564C5.0227 5.73359 5.13398 5.6875 5.25002 5.6875H8.75002C8.86605 5.6875 8.97733 5.73359 9.05938 5.81564C9.14142 5.89769 9.18752 6.00897 9.18752 6.125C9.18752 6.24103 9.14142 6.35231 9.05938 6.43436C8.97733 6.51641 8.86605 6.5625 8.75002 6.5625Z" fill="black"/>
</svg>
