<svg width="14" height="14" viewBox="0 0 14 14" fill="none" xmlns="http://www.w3.org/2000/svg">
<path d="M9.49703 5.37797C9.53771 5.4186 9.56998 5.46685 9.592 5.51996C9.61401 5.57308 9.62534 5.63001 9.62534 5.6875C9.62534 5.74499 9.61401 5.80192 9.592 5.85504C9.56998 5.90815 9.53771 5.9564 9.49703 5.99703L6.43453 9.05953C6.3939 9.10021 6.34565 9.13248 6.29254 9.1545C6.23942 9.17651 6.18249 9.18784 6.125 9.18784C6.06751 9.18784 6.01058 9.17651 5.95746 9.1545C5.90435 9.13248 5.8561 9.10021 5.81547 9.05953L4.50297 7.74703C4.42088 7.66494 4.37476 7.5536 4.37476 7.4375C4.37476 7.3214 4.42088 7.21006 4.50297 7.12797C4.58506 7.04588 4.6964 6.99976 4.8125 6.99976C4.9286 6.99976 5.03994 7.04588 5.12203 7.12797L6.125 8.13148L8.87797 5.37797C8.9186 5.33729 8.96685 5.30502 9.01996 5.28301C9.07308 5.26099 9.13001 5.24966 9.1875 5.24966C9.24499 5.24966 9.30192 5.26099 9.35504 5.28301C9.40815 5.30502 9.4564 5.33729 9.49703 5.37797ZM12.25 2.625V11.375C12.25 11.6071 12.1578 11.8296 11.9937 11.9937C11.8296 12.1578 11.6071 12.25 11.375 12.25H2.625C2.39294 12.25 2.17038 12.1578 2.00628 11.9937C1.84219 11.8296 1.75 11.6071 1.75 11.375V2.625C1.75 2.39294 1.84219 2.17038 2.00628 2.00628C2.17038 1.84219 2.39294 1.75 2.625 1.75H11.375C11.6071 1.75 11.8296 1.84219 11.9937 2.00628C12.1578 2.17038 12.25 2.39294 12.25 2.625ZM11.375 11.375V2.625H2.625V11.375H11.375Z" fill="#3F3F46"/>
</svg>
