<svg width="42" height="43" viewBox="0 0 42 43" fill="none" xmlns="http://www.w3.org/2000/svg">
<path d="M15.2985 15.6935C13.4208 17.2895 12.733 20.1997 14.3535 22.5342C15.8763 24.7239 17.7774 26.6244 19.9675 28.1465C22.302 29.767 25.2123 29.0793 26.8083 27.2015L26.8258 27.2102C28.864 28.155 31.0276 28.8016 33.25 29.13V33.75H33.243C19.2885 33.7693 8.73427 23.0943 8.75002 9.257V9.25H13.37V9.25175C13.699 11.4743 14.3465 13.6372 15.2898 15.6742L15.2985 15.6918V15.6935ZM33.25 37.25H35C35.4642 37.25 35.9093 37.0656 36.2375 36.7374C36.5656 36.4093 36.75 35.9641 36.75 35.5V27.6215C36.7504 27.2017 36.5998 26.7957 36.3258 26.4777C36.0518 26.1596 35.6725 25.9507 35.2573 25.889L33.7628 25.6685C31.8722 25.3879 30.0317 24.8375 28.2975 24.034L26.9798 23.4233C26.6097 23.2518 26.1915 23.215 25.7972 23.3192C25.4029 23.4233 25.0574 23.6619 24.8203 23.9937L24.2235 24.8285C23.7003 25.5618 22.701 25.784 21.9643 25.2712C20.1171 23.9872 18.5135 22.3842 17.2288 20.5375C16.716 19.799 16.94 18.7998 17.6715 18.2783L18.5063 17.6833C18.8385 17.4461 19.0774 17.1003 19.1815 16.7056C19.2857 16.3109 19.2487 15.8922 19.0768 15.522L18.4643 14.2025C17.6616 12.4682 17.1118 10.6277 16.8315 8.73725L16.6093 7.24275C16.5476 6.8275 16.3386 6.44827 16.0206 6.17424C15.7025 5.90021 15.2966 5.74964 14.8768 5.75H7.00002C6.53589 5.75 6.09077 5.93438 5.76258 6.26256C5.43439 6.59075 5.25002 7.03587 5.25002 7.5V9.25175C5.23252 25.014 17.3425 37.2728 33.2483 37.25H33.25Z" fill="black"/>
</svg>
