<svg width="24" height="25" viewBox="0 0 24 25" fill="none" xmlns="http://www.w3.org/2000/svg">
<path d="M8.74201 9.182C7.66901 10.094 7.27601 11.757 8.20201 13.091C9.07219 14.3422 10.1585 15.4282 11.41 16.298C12.744 17.224 14.407 16.831 15.319 15.758L15.329 15.763C16.4937 16.3029 17.7301 16.6723 19 16.86V19.5H18.996C11.022 19.511 4.99101 13.411 5.00001 5.504V5.5H7.64001V5.501C7.82801 6.771 8.19801 8.007 8.73701 9.171L8.74201 9.181V9.182ZM19 21.5H20C20.2652 21.5 20.5196 21.3946 20.7071 21.2071C20.8947 21.0196 21 20.7652 21 20.5V15.998C21.0002 15.7581 20.9142 15.5261 20.7576 15.3444C20.601 15.1627 20.3843 15.0433 20.147 15.008L19.293 14.882C18.2127 14.7217 17.161 14.4071 16.17 13.948L15.417 13.599C15.2056 13.501 14.9665 13.48 14.7412 13.5395C14.5159 13.5991 14.3185 13.7354 14.183 13.925L13.842 14.402C13.543 14.821 12.972 14.948 12.551 14.655C11.4955 13.9213 10.5791 13.0053 9.84501 11.95C9.55201 11.528 9.68001 10.957 10.098 10.659L10.575 10.319C10.7649 10.1835 10.9014 9.98586 10.9609 9.76033C11.0204 9.5348 10.9992 9.29556 10.901 9.084L10.551 8.33C10.0923 7.33895 9.77815 6.28724 9.61801 5.207L9.49101 4.353C9.45575 4.11571 9.33636 3.89901 9.15462 3.74242C8.97288 3.58583 8.74091 3.49979 8.50101 3.5H4.00001C3.73479 3.5 3.48044 3.60536 3.2929 3.79289C3.10537 3.98043 3.00001 4.23478 3.00001 4.5V5.501C2.99001 14.508 9.91001 21.513 18.999 21.5H19Z" fill="black"/>
</svg>
