<svg width="16" height="16" viewBox="0 0 16 16" fill="none" xmlns="http://www.w3.org/2000/svg">
<path d="M13 1.75H3C2.66848 1.75 2.35054 1.8817 2.11612 2.11612C1.8817 2.35054 1.75 2.66848 1.75 3V13C1.75 13.3315 1.8817 13.6495 2.11612 13.8839C2.35054 14.1183 2.66848 14.25 3 14.25H13C13.3315 14.25 13.6495 14.1183 13.8839 13.8839C14.1183 13.6495 14.25 13.3315 14.25 13V3C14.25 2.66848 14.1183 2.35054 13.8839 2.11612C13.6495 1.8817 13.3315 1.75 13 1.75ZM3.25 3.25H4.75V9.5C4.54012 9.65741 4.38508 9.87687 4.30686 10.1273C4.22863 10.3777 4.23118 10.6464 4.31415 10.8953C4.39711 11.1442 4.55628 11.3607 4.76911 11.5141C4.98194 11.6675 5.23765 11.75 5.5 11.75C5.76235 11.75 6.01806 11.6675 6.23089 11.5141C6.44372 11.3607 6.60289 11.1442 6.68585 10.8953C6.76882 10.6464 6.77137 10.3777 6.69314 10.1273C6.61492 9.87687 6.45988 9.65741 6.25 9.5V7.8125L8.75 10.3125V12.75H3.25V3.25ZM12.75 12.75H10.25V10C10.2501 9.90148 10.2307 9.80391 10.1931 9.71286C10.1555 9.62182 10.1003 9.53908 10.0306 9.46937L6.25 5.6875V3.25H7.75V4.5C7.74992 4.59852 7.76926 4.69609 7.8069 4.78714C7.84454 4.87818 7.89975 4.96092 7.96938 5.03062L9.26375 6.32438C9.22494 6.58664 9.2698 6.85447 9.39196 7.08977C9.51412 7.32508 9.70736 7.51588 9.9442 7.63504C10.181 7.7542 10.4494 7.79566 10.7112 7.75352C10.9729 7.71138 11.2147 7.58779 11.4022 7.40032C11.5897 7.21284 11.7133 6.97104 11.7554 6.70929C11.7975 6.44753 11.7561 6.17916 11.6369 5.94232C11.5178 5.70549 11.327 5.51225 11.0916 5.39009C10.8563 5.26793 10.5885 5.22306 10.3263 5.26188L9.25 4.1875V3.25H12.75V12.75Z" fill="#71717A"/>
</svg>
