<svg width="21" height="24" viewBox="0 0 21 24" fill="none" xmlns="http://www.w3.org/2000/svg">
<g opacity="0.1">
<mask id="mask0_2668_18409" style="mask-type:luminance" maskUnits="userSpaceOnUse" x="0" y="0" width="21" height="24">
<path d="M20.8345 0H0.941406V24H20.8345V0Z" fill="white"/>
</mask>
<g mask="url(#mask0_2668_18409)">
<path fill-rule="evenodd" clip-rule="evenodd" d="M10.8879 4.03739C10.1692 4.03739 9.58652 4.74034 9.58652 5.60748H6.24002C6.24002 2.51056 8.32096 0 10.8879 0C13.4549 0 15.5358 2.51056 15.5358 5.60748C15.5358 8.7044 13.4549 11.2149 10.8879 11.2149V7.17757C11.6067 7.17757 12.1893 6.47461 12.1893 5.60748C12.1893 4.74034 11.6067 4.03739 10.8879 4.03739ZM17.4879 12C17.4879 11.1329 16.9053 10.4299 16.1865 10.4299V6.39252C18.7535 6.39252 20.8345 8.90308 20.8345 12C20.8345 15.097 18.7535 17.6075 16.1865 17.6075C13.6195 17.6075 11.5386 15.097 11.5386 12H14.8851C14.8851 12.8671 15.4678 13.5701 16.1865 13.5701C16.9053 13.5701 17.4879 12.8671 17.4879 12ZM5.58932 13.5701C4.87056 13.5701 4.2879 12.8671 4.2879 12C4.2879 11.1329 4.87056 10.4299 5.58932 10.4299C6.30806 10.4299 6.89073 11.1329 6.89073 12H10.2372C10.2372 8.90308 8.15629 6.39252 5.58932 6.39252C3.02235 6.39252 0.941406 8.90308 0.941406 12C0.941406 15.097 3.02235 17.6075 5.58932 17.6075V13.5701ZM10.8879 19.9626C11.6067 19.9626 12.1893 19.2596 12.1893 18.3925H15.5358C15.5358 21.4895 13.4549 24 10.8879 24C8.32096 24 6.24002 21.4895 6.24002 18.3925C6.24002 15.2956 8.32096 12.785 10.8879 12.785V16.8224C10.1692 16.8224 9.58652 17.5254 9.58652 18.3925C9.58652 19.2596 10.1692 19.9626 10.8879 19.9626Z" fill="#3D3D3D"/>
</g>
</g>
</svg>
