<svg width="24" height="24" viewBox="0 0 24 24" fill="none" xmlns="http://www.w3.org/2000/svg">
<g opacity="0.1">
<mask id="mask0_2306_7881" style="mask-type:luminance" maskUnits="userSpaceOnUse" x="0" y="0" width="24" height="24">
<path d="M24 0H0V24H24V0Z" fill="white"/>
</mask>
<g mask="url(#mask0_2306_7881)">
<path fill-rule="evenodd" clip-rule="evenodd" d="M22.6729 12C23.1323 12 23.5772 11.9383 24 11.8228C23.6639 11.7519 23.3154 11.7146 22.9583 11.7146H17.0226C16.0422 11.7146 15.1273 11.4337 14.3543 10.948C14.5232 9.95875 14.9896 9.01039 15.7532 8.24675L19.5469 4.45313C19.8718 4.12829 20.1427 3.77003 20.36 3.38942C20.0722 3.57695 19.7994 3.79699 19.5469 4.04956L15.3497 8.24675C14.6564 8.93999 13.8109 9.38821 12.9209 9.59142C12.3408 8.7724 12 7.77205 12 6.6921V1.32712C12 0.867728 11.9383 0.422748 11.8228 0C11.7519 0.336085 11.7146 0.684559 11.7146 1.04174V6.97747C11.7146 7.95786 11.4337 8.87266 10.948 9.64574C9.95876 9.47672 9.01039 9.01038 8.24675 8.24674L4.45313 4.45313C4.12829 4.12829 3.77003 3.85724 3.38942 3.64001C3.57695 3.92778 3.79699 4.20056 4.04956 4.45313L8.24675 8.65032C8.93999 9.34357 9.38822 10.1891 9.59142 11.0792C8.7724 11.6592 7.77205 12 6.6921 12H1.32712C0.867726 12 0.422747 12.0617 0 12.1772C0.336088 12.248 0.684563 12.2854 1.04175 12.2854H6.97747C7.95787 12.2854 8.87266 12.5663 9.64574 13.052C9.47672 14.0412 9.01039 14.9896 8.24675 15.7532L4.45313 19.5469C4.1283 19.8718 3.85726 20.23 3.64002 20.6106C3.92779 20.423 4.20056 20.203 4.45313 19.9505L8.65032 15.7532C9.34356 15.06 10.1891 14.6118 11.0792 14.4085C11.6592 15.2276 12 16.228 12 17.308V22.6729C12 23.1323 12.0617 23.5772 12.1772 24C12.248 23.6639 12.2854 23.3154 12.2854 22.9583V17.0225C12.2854 16.0421 12.5663 15.1273 13.052 14.3543C14.0412 14.5232 14.9896 14.9896 15.7532 15.7532L19.5469 19.5469C19.8718 19.8718 20.23 20.1427 20.6106 20.36C20.423 20.0722 20.203 19.7994 19.9505 19.5469L15.7532 15.3497C15.06 14.6564 14.6118 13.8109 14.4086 12.9209C15.2276 12.3408 16.228 12 17.308 12H22.6729Z" fill="#3D3D3D"/>
</g>
</g>
</svg>
