<svg width="34" height="24" viewBox="0 0 34 24" fill="none" xmlns="http://www.w3.org/2000/svg">
<g opacity="0.1">
<mask id="mask0_2309_8001" style="mask-type:luminance" maskUnits="userSpaceOnUse" x="13" y="0" width="21" height="24">
<path d="M33.8345 0H13.9414V24H33.8345V0Z" fill="white"/>
</mask>
<g mask="url(#mask0_2309_8001)">
<path fill-rule="evenodd" clip-rule="evenodd" d="M23.8879 4.03739C23.1692 4.03739 22.5865 4.74034 22.5865 5.60748H19.24C19.24 2.51056 21.321 0 23.8879 0C26.4549 0 28.5358 2.51056 28.5358 5.60748C28.5358 8.7044 26.4549 11.2149 23.8879 11.2149V7.17757C24.6067 7.17757 25.1893 6.47461 25.1893 5.60748C25.1893 4.74034 24.6067 4.03739 23.8879 4.03739ZM30.4879 12C30.4879 11.1329 29.9053 10.4299 29.1865 10.4299V6.39252C31.7535 6.39252 33.8345 8.90308 33.8345 12C33.8345 15.097 31.7535 17.6075 29.1865 17.6075C26.6195 17.6075 24.5386 15.097 24.5386 12H27.8851C27.8851 12.8671 28.4678 13.5701 29.1865 13.5701C29.9053 13.5701 30.4879 12.8671 30.4879 12ZM18.5893 13.5701C17.8706 13.5701 17.2879 12.8671 17.2879 12C17.2879 11.1329 17.8706 10.4299 18.5893 10.4299C19.3081 10.4299 19.8907 11.1329 19.8907 12H23.2372C23.2372 8.90308 21.1563 6.39252 18.5893 6.39252C16.0223 6.39252 13.9414 8.90308 13.9414 12C13.9414 15.097 16.0223 17.6075 18.5893 17.6075V13.5701ZM23.8879 19.9626C24.6067 19.9626 25.1893 19.2596 25.1893 18.3925H28.5358C28.5358 21.4895 26.4549 24 23.8879 24C21.321 24 19.24 21.4895 19.24 18.3925C19.24 15.2956 21.321 12.785 23.8879 12.785V16.8224C23.1692 16.8224 22.5865 17.5254 22.5865 18.3925C22.5865 19.2596 23.1692 19.9626 23.8879 19.9626Z" fill="#3D3D3D"/>
</g>
</g>
</svg>
