<svg width="21" height="24" viewBox="0 0 21 24" fill="none" xmlns="http://www.w3.org/2000/svg">
<g opacity="0.1">
<mask id="mask0_2309_7964" style="mask-type:luminance" maskUnits="userSpaceOnUse" x="0" y="0" width="20" height="24">
<path d="M19.3228 0H0.425781V24H19.3228V0Z" fill="white"/>
</mask>
<g mask="url(#mask0_2309_7964)">
<path fill-rule="evenodd" clip-rule="evenodd" d="M18.2779 12C18.6396 12 18.9899 11.9383 19.3228 11.8228C19.0581 11.7519 18.7838 11.7146 18.5026 11.7146H13.829C13.057 11.7146 12.3367 11.4337 11.728 10.948C11.861 9.95875 12.2282 9.01039 12.8295 8.24675L15.8165 4.45313C16.0723 4.12829 16.2857 3.77003 16.4568 3.38942C16.2301 3.57695 16.0153 3.79699 15.8165 4.04956L12.5117 8.24675C11.9659 8.93999 11.3002 9.38821 10.5994 9.59142C10.1426 8.7724 9.87429 7.77205 9.87429 6.6921V1.32712C9.87429 0.867728 9.82573 0.422748 9.73477 0C9.67896 0.336085 9.6496 0.684559 9.6496 1.04174V6.97747C9.6496 7.95786 9.42842 8.87266 9.04598 9.64574C8.26707 9.47672 7.52034 9.01038 6.91907 8.24674L3.93206 4.45313C3.67629 4.12829 3.39421 3.85724 3.09453 3.64001C3.24218 3.92778 3.41544 4.20056 3.6143 4.45313L6.91907 8.65032C7.46491 9.34357 7.81784 10.1891 7.97783 11.0792C7.33295 11.6592 6.5453 12 5.69498 12H1.47072C1.10901 12 0.758642 12.0617 0.425781 12.1772C0.690408 12.248 0.964789 12.2854 1.24603 12.2854H5.91967C6.69161 12.2854 7.41189 12.5663 8.0206 13.052C7.88752 14.0412 7.52034 14.9896 6.91907 15.7532L3.93206 19.5469C3.6763 19.8718 3.46289 20.23 3.29184 20.6106C3.51843 20.423 3.7332 20.203 3.93206 19.9505L7.23683 15.7532C7.78267 15.06 8.44839 14.6118 9.14924 14.4085C9.60591 15.2276 9.87429 16.228 9.87429 17.308V22.6729C9.87429 23.1323 9.92285 23.5772 10.0138 24C10.0696 23.6639 10.099 23.3154 10.099 22.9583V17.0225C10.099 16.0421 10.3202 15.1273 10.7026 14.3543C11.4815 14.5232 12.2282 14.9896 12.8295 15.7532L15.8165 19.5469C16.0723 19.8718 16.3544 20.1427 16.6541 20.36C16.5064 20.0722 16.3331 19.7994 16.1343 19.5469L12.8295 15.3497C12.2837 14.6564 11.9308 13.8109 11.7708 12.9209C12.4156 12.3408 13.2033 12 14.0536 12H18.2779Z" fill="#3D3D3D"/>
</g>
</g>
</svg>
