<svg width="24" height="24" viewBox="0 0 24 24" fill="none" xmlns="http://www.w3.org/2000/svg">
<g opacity="0.1">
<mask id="mask0_2306_7886" style="mask-type:luminance" maskUnits="userSpaceOnUse" x="0" y="0" width="24" height="24">
<path d="M24 0H0V24H24V0Z" fill="white"/>
</mask>
<g mask="url(#mask0_2306_7886)">
<path fill-rule="evenodd" clip-rule="evenodd" d="M0 0C0 6.62742 5.37258 12 12 12C5.37258 12 0 17.3726 0 24H1.44C1.44 18.1679 6.16787 13.44 12 13.44C17.8321 13.44 22.56 18.1679 22.56 24H24C24 17.3726 18.6274 12 12 12C18.6274 12 24 6.62742 24 0H22.56C22.56 5.83213 17.8321 10.56 12 10.56C6.16787 10.56 1.44 5.83213 1.44 0H0ZM2.88 0C2.88 5.03683 6.96317 9.12 12 9.12C17.0369 9.12 21.12 5.03683 21.12 0H19.68C19.68 4.24154 16.2415 7.68 12 7.68C7.75846 7.68 4.32 4.24154 4.32 0H2.88ZM5.76 0C5.76 3.44626 8.55374 6.24 12 6.24C15.4463 6.24 18.24 3.44626 18.24 0H16.8C16.8 2.65097 14.6509 4.8 12 4.8C9.34903 4.8 7.2 2.65097 7.2 0H5.76ZM12 14.88C17.0369 14.88 21.12 18.9631 21.12 24H19.68C19.68 19.7585 16.2415 16.32 12 16.32C7.75846 16.32 4.32 19.7585 4.32 24H2.88C2.88 18.9631 6.96317 14.88 12 14.88ZM12 17.76C15.4463 17.76 18.24 20.5537 18.24 24H16.8C16.8 21.3491 14.6509 19.2 12 19.2C9.34903 19.2 7.2 21.3491 7.2 24H5.76C5.76 20.5537 8.55374 17.76 12 17.76Z" fill="#3D3D3D"/>
</g>
</g>
</svg>
