<svg width="22" height="24" viewBox="0 0 22 24" fill="none" xmlns="http://www.w3.org/2000/svg">
<g opacity="0.1">
<mask id="mask0_2309_7996" style="mask-type:luminance" maskUnits="userSpaceOnUse" x="1" y="0" width="21" height="24">
<path d="M21.4692 0H1.57617V24H21.4692V0Z" fill="white"/>
</mask>
<g mask="url(#mask0_2309_7996)">
<path fill-rule="evenodd" clip-rule="evenodd" d="M1.57617 0C1.57617 6.62742 6.02938 12 11.5227 12C6.02938 12 1.57617 17.3726 1.57617 24H2.76975C2.76975 18.1679 6.68858 13.44 11.5227 13.44C16.3568 13.44 20.2756 18.1679 20.2756 24H21.4692C21.4692 17.3726 17.016 12 11.5227 12C17.016 12 21.4692 6.62742 21.4692 0H20.2756C20.2756 5.83213 16.3568 10.56 11.5227 10.56C6.68858 10.56 2.76975 5.83213 2.76975 0H1.57617ZM3.96334 0C3.96334 5.03683 7.34778 9.12 11.5227 9.12C15.6976 9.12 19.0821 5.03683 19.0821 0H17.8885C17.8885 4.24154 15.0384 7.68 11.5227 7.68C8.00698 7.68 5.15692 4.24154 5.15692 0H3.96334ZM6.3505 0C6.3505 3.44626 8.66617 6.24 11.5227 6.24C14.3792 6.24 16.6949 3.44626 16.6949 0H15.5013C15.5013 2.65097 13.72 4.8 11.5227 4.8C9.32537 4.8 7.54409 2.65097 7.54409 0H6.3505ZM11.5227 14.88C15.6976 14.88 19.0821 18.9631 19.0821 24H17.8885C17.8885 19.7585 15.0384 16.32 11.5227 16.32C8.00698 16.32 5.15692 19.7585 5.15692 24H3.96334C3.96334 18.9631 7.34778 14.88 11.5227 14.88ZM11.5227 17.76C14.3792 17.76 16.6949 20.5537 16.6949 24H15.5013C15.5013 21.3491 13.72 19.2 11.5227 19.2C9.32537 19.2 7.54409 21.3491 7.54409 24H6.3505C6.3505 20.5537 8.66617 17.76 11.5227 17.76Z" fill="#3D3D3D"/>
</g>
</g>
</svg>
