<svg width="24" height="24" viewBox="0 0 24 24" fill="none" xmlns="http://www.w3.org/2000/svg">
<g opacity="0.1">
<mask id="mask0_2309_7899" style="mask-type:luminance" maskUnits="userSpaceOnUse" x="0" y="0" width="24" height="24">
<path d="M24 0H0V24H24V0Z" fill="white"/>
</mask>
<g mask="url(#mask0_2309_7899)">
<path fill-rule="evenodd" clip-rule="evenodd" d="M12 4.03739C11.1329 4.03739 10.4299 4.74034 10.4299 5.60748H6.39252C6.39252 2.51056 8.90308 0 12 0C15.097 0 17.6075 2.51056 17.6075 5.60748C17.6075 8.7044 15.097 11.2149 12 11.2149V7.17757C12.8671 7.17757 13.5701 6.47461 13.5701 5.60748C13.5701 4.74034 12.8671 4.03739 12 4.03739ZM19.9626 12C19.9626 11.1329 19.2596 10.4299 18.3925 10.4299V6.39252C21.4895 6.39252 24 8.90308 24 12C24 15.097 21.4895 17.6075 18.3925 17.6075C15.2956 17.6075 12.785 15.097 12.785 12H16.8224C16.8224 12.8671 17.5254 13.5701 18.3925 13.5701C19.2596 13.5701 19.9626 12.8671 19.9626 12ZM5.60748 13.5701C4.74034 13.5701 4.03739 12.8671 4.03739 12C4.03739 11.1329 4.74034 10.4299 5.60748 10.4299C6.47461 10.4299 7.17757 11.1329 7.17757 12H11.2149C11.2149 8.90308 8.7044 6.39252 5.60748 6.39252C2.51056 6.39252 0 8.90308 0 12C0 15.097 2.51056 17.6075 5.60748 17.6075V13.5701ZM12 19.9626C12.8671 19.9626 13.5701 19.2596 13.5701 18.3925H17.6075C17.6075 21.4895 15.097 24 12 24C8.90308 24 6.39252 21.4895 6.39252 18.3925C6.39252 15.2956 8.90308 12.785 12 12.785V16.8224C11.1329 16.8224 10.4299 17.5254 10.4299 18.3925C10.4299 19.2596 11.1329 19.9626 12 19.9626Z" fill="#3D3D3D"/>
</g>
</g>
</svg>
