<svg width="21" height="24" viewBox="0 0 21 24" fill="none" xmlns="http://www.w3.org/2000/svg">
<g opacity="0.1">
<mask id="mask0_2668_18404" style="mask-type:luminance" maskUnits="userSpaceOnUse" x="0" y="0" width="21" height="24">
<path d="M20.4712 0H0.578125V24H20.4712V0Z" fill="white"/>
</mask>
<g mask="url(#mask0_2668_18404)">
<path fill-rule="evenodd" clip-rule="evenodd" d="M0.578125 0C0.578125 6.62742 5.03133 12 10.5246 12C5.03133 12 0.578125 17.3726 0.578125 24H1.77171C1.77171 18.1679 5.69053 13.44 10.5246 13.44C15.3588 13.44 19.2776 18.1679 19.2776 24H20.4712C20.4712 17.3726 16.0179 12 10.5246 12C16.0179 12 20.4712 6.62742 20.4712 0H19.2776C19.2776 5.83213 15.3588 10.56 10.5246 10.56C5.69053 10.56 1.77171 5.83213 1.77171 0H0.578125ZM2.96529 0C2.96529 5.03683 6.34974 9.12 10.5246 9.12C14.6996 9.12 18.084 5.03683 18.084 0H16.8904C16.8904 4.24154 14.0403 7.68 10.5246 7.68C7.00893 7.68 4.15887 4.24154 4.15887 0H2.96529ZM5.35246 0C5.35246 3.44626 7.66813 6.24 10.5246 6.24C13.3812 6.24 15.6968 3.44626 15.6968 0H14.5033C14.5033 2.65097 12.7219 4.8 10.5246 4.8C8.32732 4.8 6.54604 2.65097 6.54604 0H5.35246ZM10.5246 14.88C14.6996 14.88 18.084 18.9631 18.084 24H16.8904C16.8904 19.7585 14.0403 16.32 10.5246 16.32C7.00893 16.32 4.15887 19.7585 4.15887 24H2.96529C2.96529 18.9631 6.34974 14.88 10.5246 14.88ZM10.5246 17.76C13.3812 17.76 15.6968 20.5537 15.6968 24H14.5033C14.5033 21.3491 12.7219 19.2 10.5246 19.2C8.32732 19.2 6.54604 21.3491 6.54604 24H5.35246C5.35246 20.5537 7.66813 17.76 10.5246 17.76Z" fill="#3D3D3D"/>
</g>
</g>
</svg>
