<svg width="33" height="33" viewBox="0 0 33 33" fill="none" xmlns="http://www.w3.org/2000/svg">
<circle cx="16.5" cy="16.666" r="16" fill="#71717A"/>
<path d="M24.4425 12.7336L14.4425 22.7336C14.3845 22.7917 14.3156 22.8378 14.2397 22.8692C14.1638 22.9007 14.0825 22.9169 14.0003 22.9169C13.9182 22.9169 13.8369 22.9007 13.761 22.8692C13.6851 22.8378 13.6162 22.7917 13.5582 22.7336L9.18316 18.3586C9.06588 18.2413 9 18.0822 9 17.9164C9 17.7505 9.06588 17.5915 9.18316 17.4742C9.30044 17.3569 9.4595 17.291 9.62535 17.291C9.7912 17.291 9.95026 17.3569 10.0675 17.4742L14.0003 21.4078L23.5582 11.8492C23.6754 11.7319 23.8345 11.666 24.0003 11.666C24.1662 11.666 24.3253 11.7319 24.4425 11.8492C24.5598 11.9665 24.6257 12.1255 24.6257 12.2914C24.6257 12.4572 24.5598 12.6163 24.4425 12.7336Z" fill="white"/>
</svg>
