<svg width="32" height="33" viewBox="0 0 32 33" fill="none" xmlns="http://www.w3.org/2000/svg">
<circle cx="16" cy="16.5" r="16" fill="#737373"/>
<path d="M23.9425 12.5675L13.9425 22.5675C13.8845 22.6256 13.8156 22.6717 13.7397 22.7032C13.6638 22.7347 13.5825 22.7508 13.5003 22.7508C13.4182 22.7508 13.3369 22.7347 13.261 22.7032C13.1851 22.6717 13.1162 22.6256 13.0582 22.5675L8.68316 18.1925C8.56588 18.0753 8.5 17.9162 8.5 17.7503C8.5 17.5845 8.56588 17.4254 8.68316 17.3082C8.80044 17.1909 8.9595 17.125 9.12535 17.125C9.2912 17.125 9.45026 17.1909 9.56753 17.3082L13.5003 21.2418L23.0582 11.6832C23.1754 11.5659 23.3345 11.5 23.5003 11.5C23.6662 11.5 23.8253 11.5659 23.9425 11.6832C24.0598 11.8004 24.1257 11.9595 24.1257 12.1253C24.1257 12.2912 24.0598 12.4503 23.9425 12.5675Z" fill="white"/>
</svg>
