<svg width="25" height="24" viewBox="0 0 25 24" fill="none" xmlns="http://www.w3.org/2000/svg">
<path d="M21.125 4.5V8.25C21.125 8.54837 21.0065 8.83452 20.7955 9.0455C20.5845 9.25647 20.2984 9.375 20 9.375C19.7016 9.375 19.4155 9.25647 19.2045 9.0455C18.9935 8.83452 18.875 8.54837 18.875 8.25V5.625H16.25C15.9516 5.625 15.6655 5.50647 15.4545 5.2955C15.2435 5.08452 15.125 4.79837 15.125 4.5C15.125 4.20163 15.2435 3.91548 15.4545 3.7045C15.6655 3.49353 15.9516 3.375 16.25 3.375H20C20.2984 3.375 20.5845 3.49353 20.7955 3.7045C21.0065 3.91548 21.125 4.20163 21.125 4.5ZM8.75 18.375H6.125V15.75C6.125 15.4516 6.00647 15.1655 5.7955 14.9545C5.58452 14.7435 5.29837 14.625 5 14.625C4.70163 14.625 4.41548 14.7435 4.2045 14.9545C3.99353 15.1655 3.875 15.4516 3.875 15.75V19.5C3.875 19.7984 3.99353 20.0845 4.2045 20.2955C4.41548 20.5065 4.70163 20.625 5 20.625H8.75C9.04837 20.625 9.33452 20.5065 9.5455 20.2955C9.75647 20.0845 9.875 19.7984 9.875 19.5C9.875 19.2016 9.75647 18.9155 9.5455 18.7045C9.33452 18.4935 9.04837 18.375 8.75 18.375ZM20 14.625C19.7016 14.625 19.4155 14.7435 19.2045 14.9545C18.9935 15.1655 18.875 15.4516 18.875 15.75V18.375H16.25C15.9516 18.375 15.6655 18.4935 15.4545 18.7045C15.2435 18.9155 15.125 19.2016 15.125 19.5C15.125 19.7984 15.2435 20.0845 15.4545 20.2955C15.6655 20.5065 15.9516 20.625 16.25 20.625H20C20.2984 20.625 20.5845 20.5065 20.7955 20.2955C21.0065 20.0845 21.125 19.7984 21.125 19.5V15.75C21.125 15.4516 21.0065 15.1655 20.7955 14.9545C20.5845 14.7435 20.2984 14.625 20 14.625ZM8.75 3.375H5C4.70163 3.375 4.41548 3.49353 4.2045 3.7045C3.99353 3.91548 3.875 4.20163 3.875 4.5V8.25C3.875 8.54837 3.99353 8.83452 4.2045 9.0455C4.41548 9.25647 4.70163 9.375 5 9.375C5.29837 9.375 5.58452 9.25647 5.7955 9.0455C6.00647 8.83452 6.125 8.54837 6.125 8.25V5.625H8.75C9.04837 5.625 9.33452 5.50647 9.5455 5.2955C9.75647 5.08452 9.875 4.79837 9.875 4.5C9.875 4.20163 9.75647 3.91548 9.5455 3.7045C9.33452 3.49353 9.04837 3.375 8.75 3.375Z" fill="white"/>
</svg>
