<svg width="31" height="21" viewBox="0 0 31 21" fill="none" xmlns="http://www.w3.org/2000/svg">
<path d="M13.1572 13.9014H11.4609L12.5219 7.52344H14.2181L13.1572 13.9014Z" fill="#00579F"/>
<path d="M19.3051 7.68169C18.9706 7.55264 18.4399 7.41016 17.7837 7.41016C16.1086 7.41016 14.929 8.2786 14.9218 9.52022C14.9078 10.4363 15.7663 10.9451 16.4084 11.2505C17.0647 11.5627 17.2877 11.7664 17.2877 12.0446C17.2811 12.4719 16.7574 12.6688 16.2691 12.6688C15.5918 12.6688 15.229 12.5673 14.6775 12.3296L14.4542 12.2277L14.2168 13.6594C14.6146 13.8356 15.3476 13.992 16.1086 13.9988C17.8884 13.9988 19.0472 13.1438 19.0609 11.8207C19.0677 11.0946 18.6144 10.5383 17.6371 10.0837C17.0438 9.79185 16.6805 9.59507 16.6805 9.29648C16.6874 9.02504 16.9878 8.74701 17.6575 8.74701C18.2089 8.73339 18.6141 8.86226 18.921 8.99122L19.0744 9.05895L19.3051 7.68169Z" fill="#00579F"/>
<path d="M21.5619 11.6419C21.7016 11.2755 22.2391 9.85743 22.2391 9.85743C22.2321 9.87104 22.3785 9.48425 22.4623 9.24681L22.5809 9.79637C22.5809 9.79637 22.9021 11.3231 22.9718 11.6419C22.7067 11.6419 21.8969 11.6419 21.5619 11.6419ZM23.6557 7.52344H22.3437C21.9391 7.52344 21.6317 7.63869 21.4571 8.05262L18.9375 13.9013H20.7173C20.7173 13.9013 21.0104 13.1142 21.0733 12.9446C21.2686 12.9446 23 12.9446 23.2512 12.9446C23.2999 13.1685 23.4536 13.9013 23.4536 13.9013H25.0242L23.6557 7.52344Z" fill="#00579F"/>
<path d="M10.0434 7.52344L8.3822 11.8726L8.20067 10.9906C7.89355 9.97277 6.93035 8.86696 5.85547 8.31713L7.37707 13.8947H9.17083L11.8371 7.52344H10.0434Z" fill="#00579F"/>
<path d="M6.84104 7.52344H4.1119L4.08398 7.65231C6.21288 8.18158 7.6228 9.45738 8.20208 10.9908L7.60879 8.05957C7.51112 7.65222 7.21095 7.53687 6.84104 7.52344Z" fill="#FAA61A"/>
</svg>
