<svg width="46" height="32" viewBox="0 0 46 32" fill="none" xmlns="http://www.w3.org/2000/svg">
<rect y="0.5" width="46" height="31" rx="4" fill="#F3FBFF"/>
<path d="M20.0245 23.4536L20.3064 21.6937L19.6784 21.6794H16.6797L18.7637 8.69276C18.77 8.65355 18.7911 8.617 18.8219 8.59104C18.8526 8.56509 18.892 8.55078 18.933 8.55078H23.9893C25.668 8.55078 26.8263 8.89408 27.4312 9.57167C27.7147 9.88955 27.8953 10.2217 27.9827 10.5873C28.0743 10.9708 28.076 11.4291 27.9864 11.988L27.9799 12.0288V12.3869L28.2636 12.5448C28.5024 12.6693 28.692 12.8118 28.8376 12.975C29.0802 13.2468 29.2371 13.5922 29.3034 14.0017C29.3718 14.4229 29.3492 14.9241 29.2371 15.4915C29.1077 16.1442 28.8985 16.7126 28.6161 17.1778C28.3562 17.6064 28.0252 17.9618 27.6323 18.2374C27.2571 18.4991 26.8113 18.6978 26.3073 18.825C25.8188 18.9499 25.262 19.013 24.6513 19.013H24.2578C23.9764 19.013 23.703 19.1126 23.4886 19.2912C23.2735 19.4734 23.131 19.7223 23.0874 19.9947L23.0578 20.1531L22.5597 23.2549L22.537 23.3688C22.5311 23.4049 22.5209 23.4229 22.5058 23.4351C22.4923 23.4461 22.4729 23.4536 22.454 23.4536H20.0245Z" fill="#253B80"/>
<path d="M28.5298 12.0703C28.5148 12.1651 28.4975 12.2621 28.4781 12.3617C27.8112 15.7263 25.53 16.8887 22.6163 16.8887H21.1328C20.7765 16.8887 20.4763 17.143 20.4207 17.4884L19.6612 22.2226L19.4461 23.5645C19.4099 23.7913 19.5879 23.9958 19.8207 23.9958H22.452C22.7635 23.9958 23.0281 23.7733 23.0772 23.4713L23.1031 23.3398L23.5985 20.2501L23.6303 20.0807C23.6788 19.7777 23.944 19.5552 24.2555 19.5552H24.6491C27.1983 19.5552 29.194 18.538 29.7772 15.5944C30.0209 14.3648 29.8947 13.3381 29.25 12.616C29.0549 12.3982 28.8128 12.2176 28.5298 12.0703Z" fill="#179BD7"/>
<path d="M27.8315 11.7977C27.7297 11.7686 27.6245 11.7421 27.5166 11.7183C27.4083 11.6949 27.2972 11.6743 27.183 11.6563C26.783 11.5927 26.3448 11.5625 25.8752 11.5625H21.9121C21.8145 11.5625 21.7218 11.5842 21.6388 11.6234C21.456 11.7098 21.3202 11.8798 21.2873 12.088L20.4441 17.3361L20.4199 17.4892C20.4755 17.1438 20.7757 16.8895 21.132 16.8895H22.6155C25.5292 16.8895 27.8105 15.7266 28.4773 12.3625C28.4972 12.2629 28.5139 12.1659 28.529 12.0711C28.3603 11.9831 28.1775 11.9079 27.9808 11.8438C27.9324 11.8279 27.8822 11.8126 27.8315 11.7977Z" fill="#222D65"/>
<path d="M21.2899 12.0866C21.3228 11.8784 21.4587 11.7084 21.6414 11.6225C21.725 11.5833 21.8172 11.5616 21.9146 11.5616H25.8779C26.3475 11.5616 26.7857 11.5918 27.1856 11.6554C27.2999 11.6734 27.411 11.694 27.5193 11.7173C27.6272 11.7412 27.7322 11.7677 27.8342 11.7968C27.8848 11.8117 27.9349 11.827 27.9839 11.8424C28.1807 11.9065 28.3635 11.9822 28.5322 12.0697C28.7306 10.8263 28.5306 9.97966 27.8466 9.21306C27.0925 8.36912 25.7313 8.00781 23.9896 8.00781H18.9331C18.5773 8.00781 18.2739 8.2621 18.2188 8.60805L16.1128 21.7282C16.0712 21.9877 16.275 22.222 16.5413 22.222H19.663L20.4468 17.3347L21.2899 12.0866Z" fill="#253B80"/>
</svg>
