<svg width="47" height="32" viewBox="0 0 47 32" fill="none" xmlns="http://www.w3.org/2000/svg">
<rect x="0.5" y="0.5" width="46" height="31" rx="4" fill="#F3FBFF"/>
<path d="M20.5245 23.4536L20.8064 21.6937L20.1784 21.6794H17.1797L19.2637 8.69276C19.27 8.65355 19.2911 8.617 19.3219 8.59104C19.3526 8.56509 19.392 8.55078 19.433 8.55078H24.4893C26.168 8.55078 27.3263 8.89408 27.9312 9.57167C28.2147 9.88955 28.3953 10.2217 28.4827 10.5873C28.5743 10.9708 28.576 11.4291 28.4864 11.988L28.4799 12.0288V12.3869L28.7636 12.5448C29.0024 12.6693 29.192 12.8118 29.3376 12.975C29.5802 13.2468 29.7371 13.5922 29.8034 14.0017C29.8718 14.4229 29.8492 14.9241 29.7371 15.4915C29.6077 16.1442 29.3985 16.7126 29.1161 17.1778C28.8562 17.6064 28.5252 17.9618 28.1323 18.2374C27.7571 18.4991 27.3113 18.6978 26.8073 18.825C26.3188 18.9499 25.762 19.013 25.1513 19.013H24.7578C24.4764 19.013 24.203 19.1126 23.9886 19.2912C23.7735 19.4734 23.631 19.7223 23.5874 19.9947L23.5578 20.1531L23.0597 23.2549L23.037 23.3688C23.0311 23.4049 23.0209 23.4229 23.0058 23.4351C22.9923 23.4461 22.9729 23.4536 22.954 23.4536H20.5245Z" fill="#253B80"/>
<path d="M29.0298 12.0703C29.0148 12.1651 28.9975 12.2621 28.9781 12.3617C28.3112 15.7263 26.03 16.8887 23.1163 16.8887H21.6328C21.2765 16.8887 20.9763 17.143 20.9207 17.4884L20.1612 22.2226L19.9461 23.5645C19.9099 23.7913 20.0879 23.9958 20.3207 23.9958H22.952C23.2635 23.9958 23.5281 23.7733 23.5772 23.4713L23.6031 23.3398L24.0985 20.2501L24.1303 20.0807C24.1788 19.7777 24.444 19.5552 24.7555 19.5552H25.1491C27.6983 19.5552 29.694 18.538 30.2772 15.5944C30.5209 14.3648 30.3947 13.3381 29.75 12.616C29.5549 12.3982 29.3128 12.2176 29.0298 12.0703Z" fill="#179BD7"/>
<path d="M28.3315 11.7977C28.2297 11.7686 28.1245 11.7421 28.0166 11.7183C27.9083 11.6949 27.7972 11.6743 27.683 11.6563C27.283 11.5927 26.8448 11.5625 26.3752 11.5625H22.4121C22.3145 11.5625 22.2218 11.5842 22.1388 11.6234C21.956 11.7098 21.8202 11.8798 21.7873 12.088L20.9441 17.3361L20.9199 17.4892C20.9755 17.1438 21.2757 16.8895 21.632 16.8895H23.1155C26.0292 16.8895 28.3105 15.7266 28.9773 12.3625C28.9972 12.2629 29.0139 12.1659 29.029 12.0711C28.8603 11.9831 28.6775 11.9079 28.4808 11.8438C28.4324 11.8279 28.3822 11.8126 28.3315 11.7977Z" fill="#222D65"/>
<path d="M21.7899 12.0866C21.8228 11.8784 21.9587 11.7084 22.1414 11.6225C22.225 11.5833 22.3172 11.5616 22.4146 11.5616H26.3779C26.8475 11.5616 27.2857 11.5918 27.6856 11.6554C27.7999 11.6734 27.911 11.694 28.0193 11.7173C28.1272 11.7412 28.2322 11.7677 28.3342 11.7968C28.3848 11.8117 28.4349 11.827 28.4839 11.8424C28.6807 11.9065 28.8635 11.9822 29.0322 12.0697C29.2306 10.8263 29.0306 9.97966 28.3466 9.21306C27.5925 8.36912 26.2313 8.00781 24.4896 8.00781H19.4331C19.0773 8.00781 18.7739 8.2621 18.7188 8.60805L16.6128 21.7282C16.5712 21.9877 16.775 22.222 17.0413 22.222H20.163L20.9468 17.3347L21.7899 12.0866Z" fill="#253B80"/>
</svg>
