<svg width="20" height="20" viewBox="0 0 20 20" fill="none" xmlns="http://www.w3.org/2000/svg">
<path d="M18.75 10.625V15.625C18.75 15.9565 18.6183 16.2745 18.3839 16.5089C18.1495 16.7433 17.8315 16.875 17.5 16.875H2.5C2.16848 16.875 1.85054 16.7433 1.61612 16.5089C1.3817 16.2745 1.25 15.9565 1.25 15.625V10.625C1.25 10.2935 1.3817 9.97554 1.61612 9.74112C1.85054 9.5067 2.16848 9.375 2.5 9.375H5.625C5.79076 9.375 5.94973 9.44085 6.06694 9.55806C6.18415 9.67527 6.25 9.83424 6.25 10C6.25 10.1658 6.18415 10.3247 6.06694 10.4419C5.94973 10.5592 5.79076 10.625 5.625 10.625H2.5V15.625H17.5V10.625H14.375C14.2092 10.625 14.0503 10.5592 13.9331 10.4419C13.8158 10.3247 13.75 10.1658 13.75 10C13.75 9.83424 13.8158 9.67527 13.9331 9.55806C14.0503 9.44085 14.2092 9.375 14.375 9.375H17.5C17.8315 9.375 18.1495 9.5067 18.3839 9.74112C18.6183 9.97554 18.75 10.2935 18.75 10.625ZM9.55781 10.4422C9.61586 10.5003 9.68479 10.5464 9.76066 10.5779C9.83654 10.6093 9.91787 10.6255 10 10.6255C10.0821 10.6255 10.1635 10.6093 10.2393 10.5779C10.3152 10.5464 10.3841 10.5003 10.4422 10.4422L14.1922 6.69219C14.3095 6.57491 14.3753 6.41585 14.3753 6.25C14.3753 6.08415 14.3095 5.92509 14.1922 5.80781C14.0749 5.69054 13.9159 5.62465 13.75 5.62465C13.5841 5.62465 13.4251 5.69054 13.3078 5.80781L10.625 8.49141V1.875C10.625 1.70924 10.5592 1.55027 10.4419 1.43306C10.3247 1.31585 10.1658 1.25 10 1.25C9.83424 1.25 9.67527 1.31585 9.55806 1.43306C9.44085 1.55027 9.375 1.70924 9.375 1.875V8.49141L6.69219 5.80781C6.57491 5.69054 6.41585 5.62465 6.25 5.62465C6.08415 5.62465 5.92509 5.69054 5.80781 5.80781C5.69054 5.92509 5.62465 6.08415 5.62465 6.25C5.62465 6.41585 5.69054 6.57491 5.80781 6.69219L9.55781 10.4422ZM15.625 13.125C15.625 12.9396 15.57 12.7583 15.467 12.6042C15.364 12.45 15.2176 12.3298 15.0463 12.2589C14.875 12.1879 14.6865 12.1693 14.5046 12.2055C14.3227 12.2417 14.1557 12.331 14.0246 12.4621C13.8935 12.5932 13.8042 12.7602 13.768 12.9421C13.7318 13.124 13.7504 13.3125 13.8214 13.4838C13.8923 13.6551 14.0125 13.8015 14.1667 13.9045C14.3208 14.0075 14.5021 14.0625 14.6875 14.0625C14.9361 14.0625 15.1746 13.9637 15.3504 13.7879C15.5262 13.6121 15.625 13.3736 15.625 13.125Z" fill="black"/>
</svg>
