<svg width="30" height="30" viewBox="0 0 30 30" fill="none" xmlns="http://www.w3.org/2000/svg">
<path d="M28.125 15.9375V23.4375C28.125 23.9348 27.9275 24.4117 27.5758 24.7633C27.2242 25.115 26.7473 25.3125 26.25 25.3125H3.75C3.25272 25.3125 2.77581 25.115 2.42417 24.7633C2.07254 24.4117 1.875 23.9348 1.875 23.4375V15.9375C1.875 15.4402 2.07254 14.9633 2.42417 14.6117C2.77581 14.26 3.25272 14.0625 3.75 14.0625H8.4375C8.68614 14.0625 8.9246 14.1613 9.10041 14.3371C9.27623 14.5129 9.375 14.7514 9.375 15C9.375 15.2486 9.27623 15.4871 9.10041 15.6629C8.9246 15.8387 8.68614 15.9375 8.4375 15.9375H3.75V23.4375H26.25V15.9375H21.5625C21.3139 15.9375 21.0754 15.8387 20.8996 15.6629C20.7238 15.4871 20.625 15.2486 20.625 15C20.625 14.7514 20.7238 14.5129 20.8996 14.3371C21.0754 14.1613 21.3139 14.0625 21.5625 14.0625H26.25C26.7473 14.0625 27.2242 14.26 27.5758 14.6117C27.9275 14.9633 28.125 15.4402 28.125 15.9375ZM14.3367 15.6633C14.4238 15.7504 14.5272 15.8196 14.641 15.8668C14.7548 15.914 14.8768 15.9382 15 15.9382C15.1232 15.9382 15.2452 15.914 15.359 15.8668C15.4728 15.8196 15.5762 15.7504 15.6633 15.6633L21.2883 10.0383C21.4642 9.86237 21.563 9.62378 21.563 9.375C21.563 9.12622 21.4642 8.88763 21.2883 8.71172C21.1124 8.53581 20.8738 8.43698 20.625 8.43698C20.3762 8.43698 20.1376 8.53581 19.9617 8.71172L15.9375 12.7371V2.8125C15.9375 2.56386 15.8387 2.3254 15.6629 2.14959C15.4871 1.97377 15.2486 1.875 15 1.875C14.7514 1.875 14.5129 1.97377 14.3371 2.14959C14.1613 2.3254 14.0625 2.56386 14.0625 2.8125V12.7371L10.0383 8.71172C9.86237 8.53581 9.62378 8.43698 9.375 8.43698C9.12622 8.43698 8.88763 8.53581 8.71172 8.71172C8.53581 8.88763 8.43698 9.12622 8.43698 9.375C8.43698 9.62378 8.53581 9.86237 8.71172 10.0383L14.3367 15.6633ZM23.4375 19.6875C23.4375 19.4094 23.355 19.1375 23.2005 18.9062C23.046 18.675 22.8264 18.4947 22.5694 18.3883C22.3124 18.2819 22.0297 18.254 21.7569 18.3083C21.4841 18.3625 21.2335 18.4965 21.0369 18.6931C20.8402 18.8898 20.7063 19.1404 20.652 19.4132C20.5978 19.6859 20.6256 19.9687 20.732 20.2256C20.8385 20.4826 21.0187 20.7022 21.25 20.8568C21.4812 21.0113 21.7531 21.0938 22.0312 21.0938C22.4042 21.0938 22.7619 20.9456 23.0256 20.6819C23.2893 20.4181 23.4375 20.0605 23.4375 19.6875Z" fill="black"/>
</svg>
