<svg width="500" height="532" viewBox="0 0 500 532" fill="none" xmlns="http://www.w3.org/2000/svg">
<path d="M486.551 64.1586C487.64 72.1769 481.879 77.7874 469.933 79.5137L445.911 82.9209L439.77 36.5263L462.528 33.2554C474.224 31.5746 480.594 35.72 481.541 42.8751C481.855 44.9701 481.584 47.1148 480.761 49.0538C479.939 50.9928 478.599 52.6445 476.903 53.8121C482.162 54.9479 485.81 58.5254 486.551 64.1586ZM453.479 44.2607L454.645 53.2102L463.291 51.9609C467.483 51.359 469.443 49.5191 469.051 46.5435C468.659 43.5679 466.296 42.4094 462.104 43.0114L453.479 44.2607ZM473.647 64.5221C473.233 61.342 470.739 60.1495 466.416 60.7741L455.864 62.2847L457.116 71.6999L467.712 70.178C471.981 69.5647 474.071 67.7021 473.647 64.5221Z" fill="#E0E0E0"/>
<path d="M70.7269 331.555H22.3887V339.539H70.7269V331.555Z" fill="#EBEBEB"/>
<path d="M70.7269 360.629H22.3887V368.613H70.7269V360.629Z" fill="#EBEBEB"/>
<path d="M46.5524 346.602H22.3887V354.586H46.5524V346.602Z" fill="#EBEBEB"/>
<path d="M198.688 399.243H161.588V367.465H180.808V374.166H168.024V392.542H192.263V385.864H198.688V399.243Z" fill="#EBEBEB"/>
<path d="M220.087 399.243H204.275V392.542H213.662V374.166H189.411V382.729H182.986V367.465H220.087V399.243Z" fill="#EBEBEB"/>
<path d="M491.529 129.906H497.943L488.959 176.744H482.545L491.529 129.906Z" fill="#EBEBEB"/>
<path d="M8.18945 74.7773H108.263V226.102H8.87549L8.18945 74.7773Z" fill="#E0E0E0"/>
<path d="M0.676636 225.387H99.8359L99.8359 75.4819H0.676636L0.676636 225.387Z" fill="white"/>
<path d="M100.52 74.7773V226.102H0V74.7773H100.52ZM99.1593 224.694V76.197H1.36118V224.682L99.1593 224.694Z" fill="#E0E0E0"/>
<path d="M87.5184 91.7227H13.002V209.157H87.5184V91.7227Z" fill="white"/>
<path d="M13.0027 91.7211C13.0027 91.7211 13.0027 91.9256 13.0027 92.3004C13.0027 92.6751 13.0027 93.2544 13.0027 93.9699C13.0027 95.4577 13.0027 97.6269 13.0027 100.421C13.0027 106.099 13.0572 114.265 13.0898 124.623C13.0898 145.328 13.1878 174.595 13.2532 209.155L12.9265 208.815H87.4321L87.0836 209.19C87.0836 164.896 87.0836 124.01 87.1489 91.7552L87.4321 92.0505L33.2135 91.9029L18.3059 91.7893H14.3748H13.0027C13.0027 91.7893 13.4383 91.7893 14.3094 91.7893H18.197L33.1264 91.7098L87.5736 91.5508H87.8568V91.8461C87.8568 124.146 87.8568 164.987 87.933 209.28V209.655H87.5627H13.0572H12.7305V209.314C12.7958 174.709 12.8503 145.316 12.8938 124.555C12.8938 114.231 12.9591 106.054 12.9809 100.432C12.9809 97.661 12.9809 95.5258 12.9809 94.0494C12.9809 93.3566 12.9809 92.8114 12.9809 92.4253C12.9809 92.0391 13.0027 91.7211 13.0027 91.7211Z" fill="#E0E0E0"/>
<path d="M0.402344 225.388C0.841078 224.469 1.37807 223.604 2.00309 222.81C3.09204 221.277 4.573 219.199 6.35887 216.938C8.14474 214.678 9.72371 212.702 10.9542 211.26C11.5616 210.451 12.2682 209.73 13.0559 209.113C13.2083 209.25 10.3553 212.861 6.91423 217.359C3.47317 221.856 0.554796 225.525 0.402344 225.388Z" fill="#E0E0E0"/>
<path d="M0.686334 75.4915C0.838787 75.3666 3.72449 78.8987 7.122 83.3735C10.5195 87.8482 13.1547 91.5961 13.0023 91.7211C12.8498 91.846 9.96414 88.3139 6.56663 83.8391C3.16913 79.3643 0.555661 75.6164 0.686334 75.4915Z" fill="#E0E0E0"/>
<path d="M99.8563 75.6055L86.8652 92.3234Z" fill="white"/>
<path d="M86.8653 92.3265C86.7129 92.2016 89.5006 88.3515 93.0832 83.7404C96.6658 79.1293 99.704 75.4837 99.8565 75.6086C100.009 75.7335 97.2212 79.5836 93.6386 84.2061C90.056 88.8285 87.0178 92.4287 86.8653 92.3265Z" fill="#E0E0E0"/>
<path d="M99.8447 225.385C99.6814 225.521 96.8283 221.978 93.4744 217.582C90.1204 213.187 87.4961 209.405 87.6703 209.326C87.8445 209.246 90.6758 212.733 94.0406 217.128C97.4055 221.523 99.9972 225.305 99.8447 225.385Z" fill="#E0E0E0"/>
<path d="M55.0679 152.156H41.9353L40.3672 155.926C39.9218 156.902 39.6629 157.959 39.6049 159.038C39.5754 159.519 39.6762 159.998 39.8957 160.422C40.1152 160.846 40.4447 161.197 40.8463 161.434C42.01 161.886 43.2418 162.117 44.4834 162.116V163.172H32.1348V162.116C33.3803 161.945 34.5327 161.336 35.4016 160.39C36.7644 158.625 37.8656 156.657 38.6684 154.552L51.9536 123.66H52.4763L65.8594 155.461C66.5938 157.525 67.6579 159.445 69.0064 161.139C69.7456 161.779 70.6705 162.139 71.6308 162.161V163.218H53.6414V162.161H54.3819C55.4307 162.253 56.4832 162.037 57.4201 161.537C57.6176 161.387 57.776 161.188 57.8806 160.958C57.9853 160.727 58.0328 160.474 58.019 160.219C58.0163 159.861 57.9612 159.504 57.8556 159.163C57.8556 158.993 57.5507 158.277 57.0389 157.028L55.0679 152.156ZM54.1314 150.043L48.6105 136.721L42.9153 150.043H54.1314Z" fill="#E0E0E0"/>
<path d="M215.523 517.621C213.759 516.042 209.817 511.034 212.856 505.207C213.944 503.072 216.34 502.016 218.474 501.073C220.684 500.296 222.767 499.17 224.649 497.734C227.992 494.77 228.917 489.841 231.182 485.877C233.731 481.334 238.478 477.927 243.509 478.177C249.259 478.45 254.061 483.345 256.239 488.932C258.417 494.52 258.482 500.733 258.537 506.763C258.537 510.102 258.417 513.862 256.065 516.122C253.887 518.2 250.62 518.223 247.702 518.132L216.166 517.121" fill="#F5F5F5"/>
<path d="M275.667 427.469H192.973L207.869 520.11C208.179 522.039 209.006 523.837 210.255 525.296C211.504 526.756 213.123 527.816 214.926 528.356L215.22 528.446C215.47 528.503 215.699 528.594 215.96 528.639C216.513 528.754 217.074 528.823 217.637 528.844V528.935L218.04 528.867H254.901C255.581 528.865 256.26 528.792 256.926 528.651C259.084 528.302 261.072 527.224 262.585 525.583C264.098 523.941 265.052 521.827 265.3 519.565L272.476 455.726L272.803 453.193L275.645 427.912L275.667 427.469ZM260.073 486.527H251.58L252.44 459.644H262.24L260.073 486.527ZM263.101 459.644H271.224L268.197 486.527H260.89L263.101 459.644ZM238.85 516.328L238.338 492.978H250.556L249.816 516.328H238.85ZM225.641 492.978H237.51L238.033 516.328H227.383L225.641 492.978ZM226.556 516.328H216.603C215.655 510.025 214.425 501.836 213.085 492.978H224.813L226.556 516.328ZM225.162 486.527L223.158 459.644H236.781L237.369 486.527H225.162ZM238.229 486.527L237.63 459.644H251.656L250.763 486.527H238.229ZM237.489 453.193L236.857 428.286H252.571L251.776 453.193H237.489ZM236.672 453.193H222.701L220.85 428.286H236.095L236.672 453.193ZM221.884 453.193H207.074C206.552 449.786 206.062 446.492 205.615 443.573C204.069 433.499 203.492 429.717 203.165 428.286H219.989L221.884 453.193ZM222.363 459.644L224.334 486.527H212.116C211.703 483.801 211.289 481.041 210.875 478.281C209.917 471.933 208.958 465.584 208.055 459.644H222.363ZM211.289 486.527H203.307L198.951 459.644H207.194C208.545 467.946 209.884 477.202 211.289 486.527ZM212.258 492.978C213.477 501.053 214.675 509.025 215.764 516.328H208.142L204.385 492.978H212.258ZM250.632 516.328L251.373 492.978H259.54L257.634 516.328H250.632ZM252.647 453.193L253.442 428.286H264.843L262.807 453.193H252.647ZM202.392 428.286C202.719 430.092 204.221 439.894 206.247 453.193H197.949L193.942 428.286H202.392ZM264.843 516.328H258.451L260.367 492.978H267.467L264.843 516.328ZM271.943 453.193H263.623L265.66 428.286H274.752L271.943 453.193Z" fill="#E0E0E0"/>
<path d="M500 531.557C500 531.727 388.514 531.852 251.023 531.852C113.533 531.852 2.02539 531.727 2.02539 531.557C2.02539 531.387 113.479 531.262 251.023 531.262C388.568 531.262 500 531.398 500 531.557Z" fill="#263238"/>
<path d="M417.076 27.8828H59.2383V315.733H417.076V27.8828Z" fill="white"/>
<path d="M387.655 209.977H80.2676V219.63H387.655V209.977Z" fill="#EBEBEB"/>
<path d="M387.501 197.176H80.1133V206.829H387.501V197.176Z" fill="#EBEBEB"/>
<path d="M387.501 184.207H80.1133V193.861H387.501V184.207Z" fill="#EBEBEB"/>
<path d="M387.501 171.234H80.1133V180.888H387.501V171.234Z" fill="#EBEBEB"/>
<path d="M387.655 223.23H80.2676V232.884H387.655V223.23Z" fill="#EBEBEB"/>
<path d="M387.655 235.734H80.2676V245.388H387.655V235.734Z" fill="#EBEBEB"/>
<path d="M387.655 248.75H80.2676V258.404H387.655V248.75Z" fill="#EBEBEB"/>
<path d="M387.655 261.117H80.2676V270.771H387.655V261.117Z" fill="#EBEBEB"/>
<path d="M387.655 273.008H80.2676V282.662H387.655V273.008Z" fill="#EBEBEB"/>
<path d="M387.655 286.523H80.2676V296.177H387.655V286.523Z" fill="#EBEBEB"/>
<path d="M417.436 27.6016H59.2383V49.0214H417.436V27.6016Z" fill="black"/>
<path d="M84.2736 71.1881H82.0957V70.3477H87.4424V71.1881H85.2645V77.0939H84.3498L84.2736 71.1881Z" fill="#263238"/>
<path d="M87.3232 74.539C87.3146 74.0115 87.4566 73.4933 87.7313 73.0503C88.006 72.6073 88.4009 72.2596 88.8657 72.0515C89.3304 71.8434 89.8441 71.7842 90.3412 71.8816C90.8383 71.9789 91.2964 72.2284 91.6572 72.5982C92.0179 72.968 92.2649 73.4414 92.3668 73.9581C92.4687 74.4749 92.4209 75.0115 92.2294 75.4998C92.0379 75.9881 91.7114 76.4058 91.2914 76.6999C90.8715 76.994 90.3771 77.1511 89.8713 77.1512C89.5364 77.1669 89.2019 77.1105 88.8888 76.9853C88.5757 76.8602 88.2908 76.6692 88.0516 76.424C87.8125 76.1789 87.6244 75.885 87.4991 75.5607C87.3738 75.2363 87.3139 74.8885 87.3232 74.539ZM91.5156 74.539C91.5028 74.2012 91.3953 73.8749 91.2063 73.6003C91.0173 73.3258 90.7551 73.1151 90.4524 72.9945C90.1497 72.8739 89.8197 72.8486 89.5033 72.9218C89.1869 72.995 88.8981 73.1635 88.6727 73.4063C88.4472 73.6491 88.2951 73.9555 88.2351 74.2877C88.1752 74.6198 88.21 74.963 88.3353 75.2747C88.4606 75.5864 88.6709 75.8529 88.9401 76.0411C89.2093 76.2293 89.5255 76.3309 89.8496 76.3334C90.0752 76.3419 90.3001 76.3009 90.5096 76.2129C90.719 76.125 90.9084 75.9921 91.0655 75.8229C91.2226 75.6538 91.3439 75.452 91.4214 75.2308C91.4989 75.0096 91.531 74.7739 91.5156 74.539Z" fill="#263238"/>
<path d="M95.6974 72.5962C95.6959 72.5103 95.7109 72.4249 95.7414 72.345C95.772 72.2651 95.8175 72.1924 95.8753 72.1311C95.933 72.0698 96.002 72.0211 96.078 71.9878C96.154 71.9546 96.2356 71.9375 96.3181 71.9375C96.4856 71.9375 96.6462 72.0069 96.7647 72.1304C96.8831 72.254 96.9496 72.4215 96.9496 72.5962C96.9496 72.7709 96.8831 72.9385 96.7647 73.062C96.6462 73.1855 96.4856 73.2549 96.3181 73.2549C96.2356 73.255 96.154 73.2378 96.078 73.2046C96.002 73.1714 95.933 73.1227 95.8753 73.0613C95.8175 73 95.772 72.9273 95.7414 72.8474C95.7109 72.7676 95.6959 72.6822 95.6974 72.5962ZM95.6974 76.4804C95.6959 76.3945 95.7109 76.309 95.7414 76.2292C95.772 76.1493 95.8175 76.0766 95.8753 76.0153C95.933 75.954 96.002 75.9053 96.078 75.872C96.154 75.8388 96.2356 75.8217 96.3181 75.8217C96.4 75.8216 96.4811 75.8388 96.5566 75.8722C96.632 75.9056 96.7002 75.9544 96.7571 76.0159C96.8141 76.0774 96.8585 76.1502 96.8878 76.23C96.9172 76.3098 96.9308 76.395 96.9279 76.4804C96.9308 76.5664 96.9172 76.6521 96.888 76.7325C96.8588 76.8129 96.8145 76.8865 96.7578 76.9489C96.701 77.0113 96.6328 77.0612 96.5574 77.0958C96.4819 77.1305 96.4005 77.149 96.3181 77.1505C96.1571 77.1506 96.0025 77.0855 95.8867 76.969C95.7709 76.8525 95.703 76.6936 95.6974 76.5258V76.4804Z" fill="#263238"/>
<path d="M80.2676 110.724L80.6052 109.986C81.2033 110.489 81.9493 110.761 82.7177 110.758C83.8066 110.758 84.2967 110.304 84.2967 109.725C84.2967 108.1 80.4309 109.123 80.4309 106.647C80.4309 105.625 81.1932 104.739 82.8702 104.739C83.596 104.728 84.3099 104.933 84.9283 105.329L84.6234 106.102C84.1007 105.749 83.4924 105.56 82.8702 105.556C81.7812 105.556 81.3239 106.033 81.3239 106.613C81.3239 108.237 85.1896 107.226 85.1896 109.668C85.1896 110.69 84.4056 111.564 82.7177 111.564C81.8318 111.593 80.9645 111.295 80.2676 110.724Z" fill="#263238"/>
<path d="M90.9391 106.441V111.484H90.1115V110.723C89.9207 110.987 89.6716 111.2 89.3854 111.342C89.0991 111.484 88.7841 111.553 88.4672 111.541C88.1845 111.571 87.8988 111.536 87.6311 111.436C87.3633 111.337 87.1203 111.176 86.9199 110.966C86.7194 110.755 86.5666 110.501 86.4726 110.221C86.3785 109.942 86.3457 109.644 86.3764 109.349V106.441H87.2585V109.235C87.2585 110.235 87.7376 110.723 88.5652 110.723C88.774 110.737 88.9832 110.702 89.1776 110.621C89.372 110.541 89.5469 110.416 89.6896 110.256C89.8322 110.097 89.9392 109.906 90.0027 109.698C90.0663 109.49 90.0848 109.27 90.0571 109.054V106.441H90.9391Z" fill="#263238"/>
<path d="M97.5795 108.965C97.5963 109.305 97.5451 109.645 97.4289 109.964C97.3127 110.282 97.1342 110.572 96.9047 110.815C96.6752 111.057 96.3998 111.247 96.096 111.373C95.7922 111.498 95.4667 111.556 95.1402 111.543C94.8069 111.559 94.4749 111.49 94.1732 111.341C93.8714 111.193 93.609 110.969 93.4088 110.691V111.486H92.5703V104.422H93.4415V107.193C93.6443 106.929 93.9036 106.719 94.1987 106.579C94.4938 106.439 94.8163 106.373 95.1402 106.387C95.4671 106.372 95.7934 106.429 96.098 106.553C96.4025 106.678 96.6786 106.868 96.9085 107.111C97.1383 107.354 97.3168 107.644 97.4323 107.964C97.5479 108.283 97.598 108.624 97.5795 108.965ZM96.6974 108.965C96.6825 108.632 96.5742 108.31 96.3858 108.041C96.1975 107.771 95.9375 107.566 95.6381 107.449C95.3386 107.332 95.0128 107.309 94.7012 107.384C94.3895 107.458 94.1056 107.626 93.8847 107.867C93.6639 108.109 93.5157 108.412 93.4586 108.74C93.4015 109.068 93.438 109.407 93.5636 109.713C93.6891 110.02 93.8982 110.281 94.1649 110.465C94.4317 110.649 94.7443 110.748 95.064 110.748C95.2869 110.755 95.5087 110.713 95.715 110.625C95.9214 110.537 96.1076 110.404 96.2617 110.236C96.4157 110.068 96.5341 109.868 96.6092 109.649C96.6843 109.43 96.7143 109.197 96.6974 108.965Z" fill="#263238"/>
<path d="M97.123 113.087L97.4062 112.383C97.608 112.546 97.8585 112.631 98.114 112.621C98.5822 112.621 98.8436 112.315 98.8436 111.735V106.443H99.7147V111.735C99.7397 111.956 99.7173 112.18 99.6492 112.39C99.5811 112.6 99.469 112.793 99.321 112.952C99.1731 113.112 98.9929 113.236 98.7936 113.314C98.5942 113.392 98.3807 113.423 98.1684 113.405C97.7958 113.423 97.4279 113.311 97.123 113.087ZM98.6802 104.875C98.6817 104.795 98.6983 104.715 98.7291 104.642C98.76 104.568 98.8045 104.501 98.8601 104.445C98.9158 104.389 98.9814 104.345 99.0533 104.316C99.1252 104.286 99.2019 104.272 99.2792 104.274C99.3923 104.278 99.5016 104.317 99.5937 104.386C99.6857 104.455 99.7562 104.55 99.7966 104.66C99.837 104.771 99.8453 104.891 99.8207 105.006C99.796 105.121 99.7394 105.227 99.6579 105.308C99.5763 105.39 99.4735 105.446 99.3622 105.467C99.2509 105.488 99.136 105.475 99.0318 105.429C98.9276 105.383 98.8387 105.306 98.7762 105.207C98.7137 105.109 98.6803 104.994 98.6802 104.875Z" fill="#263238"/>
<path d="M105.748 109.269H101.827C101.885 109.702 102.098 110.095 102.423 110.37C102.749 110.644 103.163 110.778 103.581 110.745C103.842 110.755 104.102 110.705 104.343 110.599C104.583 110.493 104.799 110.334 104.975 110.132L105.465 110.723C105.222 110.997 104.924 111.212 104.593 111.353C104.262 111.494 103.905 111.558 103.548 111.541C103.211 111.568 102.872 111.521 102.553 111.403C102.234 111.284 101.943 111.098 101.697 110.855C101.452 110.612 101.258 110.318 101.129 109.992C100.999 109.666 100.937 109.315 100.945 108.962C100.932 108.624 100.985 108.287 101.102 107.972C101.219 107.656 101.397 107.369 101.624 107.128C101.852 106.887 102.125 106.698 102.426 106.572C102.727 106.446 103.05 106.386 103.374 106.396C103.699 106.385 104.024 106.446 104.325 106.575C104.627 106.703 104.9 106.896 105.125 107.141C105.351 107.386 105.525 107.678 105.636 107.998C105.747 108.317 105.792 108.657 105.769 108.996C105.759 109.065 105.748 109.178 105.748 109.269ZM101.817 108.61H104.92C104.887 108.205 104.71 107.826 104.422 107.551C104.135 107.275 103.759 107.122 103.368 107.122C102.978 107.122 102.602 107.275 102.314 107.551C102.027 107.826 101.849 108.205 101.817 108.61Z" fill="#263238"/>
<path d="M106.52 108.962C106.512 108.614 106.573 108.268 106.7 107.946C106.827 107.624 107.017 107.333 107.258 107.091C107.499 106.85 107.785 106.664 108.098 106.544C108.412 106.424 108.746 106.374 109.079 106.396C109.469 106.373 109.858 106.46 110.205 106.648C110.552 106.836 110.844 107.117 111.05 107.463L110.386 107.918C110.247 107.687 110.052 107.498 109.82 107.37C109.589 107.243 109.33 107.181 109.068 107.191C108.64 107.226 108.24 107.429 107.949 107.759C107.657 108.088 107.495 108.52 107.495 108.968C107.495 109.416 107.657 109.848 107.949 110.178C108.24 110.507 108.64 110.71 109.068 110.746C109.33 110.756 109.589 110.694 109.82 110.566C110.052 110.438 110.247 110.25 110.386 110.019L111.05 110.462C110.852 110.82 110.564 111.116 110.216 111.316C109.869 111.516 109.476 111.613 109.079 111.597C108.741 111.618 108.402 111.565 108.084 111.441C107.767 111.316 107.478 111.123 107.237 110.875C106.995 110.626 106.807 110.328 106.683 109.998C106.56 109.669 106.504 109.316 106.52 108.962Z" fill="#263238"/>
<path d="M114.97 111.188C114.658 111.433 114.273 111.558 113.881 111.54C113.676 111.565 113.468 111.541 113.272 111.471C113.076 111.401 112.898 111.286 112.751 111.134C112.604 110.983 112.491 110.799 112.421 110.596C112.351 110.393 112.325 110.176 112.346 109.961V107.19H111.529V106.44H112.346V105.305H113.228V106.44H114.611V107.19H113.228V109.927C113.213 110.037 113.222 110.149 113.254 110.256C113.286 110.362 113.341 110.459 113.414 110.539C113.488 110.62 113.578 110.683 113.677 110.722C113.777 110.762 113.884 110.777 113.99 110.768C114.238 110.772 114.48 110.688 114.676 110.529L114.97 111.188Z" fill="#263238"/>
<path d="M117.965 107.065C117.963 106.98 117.979 106.895 118.009 106.816C118.04 106.737 118.086 106.665 118.143 106.604C118.201 106.544 118.27 106.496 118.346 106.464C118.422 106.432 118.504 106.417 118.586 106.418C118.666 106.418 118.746 106.435 118.82 106.468C118.894 106.5 118.961 106.549 119.017 106.609C119.073 106.669 119.117 106.741 119.145 106.819C119.174 106.898 119.187 106.982 119.185 107.065C119.187 107.15 119.174 107.234 119.146 107.313C119.117 107.392 119.073 107.465 119.018 107.526C118.962 107.587 118.895 107.636 118.821 107.67C118.747 107.704 118.667 107.723 118.586 107.724C118.503 107.724 118.422 107.707 118.346 107.674C118.27 107.641 118.201 107.592 118.143 107.531C118.085 107.469 118.04 107.397 118.009 107.317C117.978 107.237 117.963 107.151 117.965 107.065ZM117.965 110.916C117.963 110.83 117.979 110.745 118.009 110.666C118.04 110.587 118.086 110.515 118.143 110.454C118.201 110.394 118.27 110.346 118.346 110.314C118.422 110.282 118.504 110.267 118.586 110.268C118.666 110.268 118.746 110.285 118.82 110.318C118.894 110.351 118.961 110.399 119.017 110.459C119.073 110.52 119.117 110.591 119.145 110.67C119.174 110.748 119.187 110.832 119.185 110.916C119.187 110.999 119.174 111.083 119.145 111.162C119.117 111.24 119.073 111.312 119.017 111.372C118.961 111.432 118.894 111.48 118.82 111.513C118.746 111.546 118.666 111.563 118.586 111.563C118.504 111.564 118.422 111.549 118.346 111.517C118.27 111.485 118.201 111.437 118.143 111.377C118.086 111.316 118.04 111.244 118.009 111.165C117.979 111.086 117.963 111.001 117.965 110.916Z" fill="#263238"/>
<path d="M71.8382 38.3105C71.8382 38.7598 71.7105 39.1989 71.4712 39.5725C71.2319 39.946 70.8917 40.2372 70.4938 40.4091C70.0958 40.581 69.6579 40.626 69.2354 40.5383C68.813 40.4507 68.4249 40.2344 68.1203 39.9167C67.8157 39.599 67.6083 39.1943 67.5243 38.7537C67.4402 38.313 67.4834 37.8563 67.6482 37.4413C67.813 37.0262 68.0922 36.6715 68.4503 36.4219C68.8085 36.1723 69.2296 36.0391 69.6603 36.0391C70.2379 36.0391 70.7919 36.2784 71.2003 36.7044C71.6087 37.1303 71.8382 37.7081 71.8382 38.3105Z" fill="white"/>
<path d="M79.7542 38.3105C79.7542 38.7598 79.6265 39.1989 79.3872 39.5725C79.1479 39.946 78.8077 40.2372 78.4098 40.4091C78.0118 40.581 77.5739 40.626 77.1514 40.5383C76.729 40.4507 76.3409 40.2344 76.0363 39.9167C75.7317 39.599 75.5243 39.1943 75.4403 38.7537C75.3563 38.313 75.3994 37.8563 75.5642 37.4413C75.7291 37.0262 76.0082 36.6715 76.3664 36.4219C76.7245 36.1723 77.1456 36.0391 77.5763 36.0391C78.1539 36.0391 78.7079 36.2784 79.1163 36.7044C79.5248 37.1303 79.7542 37.7081 79.7542 38.3105Z" fill="white"/>
<path d="M87.6722 38.3105C87.6722 38.7598 87.5445 39.1989 87.3051 39.5725C87.0658 39.946 86.7257 40.2372 86.3277 40.4091C85.9298 40.581 85.4919 40.626 85.0694 40.5383C84.6469 40.4507 84.2589 40.2344 83.9543 39.9167C83.6497 39.599 83.4423 39.1943 83.3583 38.7537C83.2742 38.313 83.3174 37.8563 83.4822 37.4413C83.647 37.0262 83.9262 36.6715 84.2843 36.4219C84.6425 36.1723 85.0635 36.0391 85.4943 36.0391C86.0719 36.0391 86.6259 36.2784 87.0343 36.7044C87.4427 37.1303 87.6722 37.7081 87.6722 38.3105Z" fill="white"/>
<path d="M142.837 151.768C142.837 151.768 142.837 151.666 142.837 151.495V150.734C142.837 150.03 142.837 149.053 142.837 147.804C142.837 145.237 142.837 141.546 142.739 136.89L142.902 137.049L78.6542 137.185L78.9373 136.89V144.42C78.9373 146.896 78.9373 149.349 78.9373 151.745L78.6324 151.484L124.368 151.62L137.904 151.7H141.563H142.521H142.858H142.553H141.639H138.034L124.564 151.779L78.6542 151.904H78.3711V136.912L78.6542 136.617L142.902 136.742H143.065V136.912C143.065 141.603 143 145.34 142.978 147.929C142.978 149.167 142.978 150.132 142.978 150.814V151.484C142.946 151.586 142.899 151.682 142.837 151.768Z" fill="#263238"/>
<path d="M182.474 151.771C182.46 151.677 182.46 151.581 182.474 151.487C182.474 151.271 182.474 151.01 182.474 150.703C182.474 149.965 182.474 148.977 182.42 147.716C182.42 145.115 182.365 141.424 182.311 136.893L182.518 137.097L147.367 137.188L147.65 136.893V144.513C147.65 147.012 147.65 149.42 147.65 151.748L147.378 151.464L172.5 151.6L179.839 151.68H181.821H182.529C182.315 151.696 182.1 151.696 181.886 151.68H179.959L172.685 151.759L147.378 151.895H147.105V144.377C147.105 143.139 147.105 141.878 147.105 140.595V136.756L147.389 136.461L182.54 136.54H182.736V136.756C182.736 141.299 182.649 145.07 182.627 147.705C182.627 148.943 182.627 149.976 182.627 150.646C182.627 151.316 182.485 151.782 182.474 151.771Z" fill="#263238"/>
<path d="M85.2207 142.398H82.9121V141.523H88.4875V142.398H86.1789V148.542H85.2207V142.398Z" fill="#263238"/>
<path d="M89.1094 141.593C89.1093 141.508 89.1258 141.423 89.1578 141.345C89.1898 141.266 89.2367 141.195 89.2956 141.136C89.3546 141.076 89.4244 141.03 89.5009 140.999C89.5774 140.969 89.6591 140.954 89.741 140.957C89.8205 140.954 89.8999 140.968 89.9743 140.997C90.0488 141.027 90.1169 141.071 90.1747 141.128C90.2325 141.185 90.2788 141.254 90.3109 141.33C90.343 141.406 90.3603 141.488 90.3617 141.571C90.3416 141.729 90.267 141.875 90.1518 141.98C90.0366 142.085 89.8887 142.143 89.7355 142.143C89.5823 142.143 89.4344 142.085 89.3192 141.98C89.204 141.875 89.1294 141.729 89.1094 141.571V141.593ZM89.2727 143.24H90.1983V148.555H89.2727V143.24Z" fill="#263238"/>
<path d="M94.8256 148.25C94.5128 148.498 94.1296 148.63 93.7367 148.625C93.5193 148.651 93.299 148.627 93.0919 148.553C92.8849 148.479 92.6965 148.357 92.5406 148.197C92.3848 148.036 92.2656 147.841 92.1918 147.626C92.1179 147.412 92.0914 147.182 92.1142 146.955V144.036H91.2539V143.241H92.1142V142.105H93.0398V143.241H94.499V144.036H93.0398V146.944C93.0398 147.523 93.3229 147.841 93.8347 147.841C94.0976 147.843 94.354 147.756 94.5643 147.591L94.8256 148.25Z" fill="#263238"/>
<path d="M95.9355 141.117H96.862V148.556H95.9355V141.117Z" fill="#263238"/>
<path d="M103.209 146.217H99.0714C99.1287 146.675 99.3531 147.092 99.6979 147.382C100.043 147.672 100.481 147.812 100.923 147.773C101.197 147.785 101.471 147.735 101.725 147.625C101.979 147.515 102.207 147.348 102.393 147.137L102.905 147.762C102.65 148.05 102.337 148.278 101.989 148.427C101.641 148.576 101.266 148.643 100.89 148.625C100.535 148.652 100.178 148.601 99.8422 148.475C99.5068 148.35 99.2004 148.152 98.9428 147.895C98.6853 147.638 98.4822 147.328 98.3468 146.984C98.2114 146.64 98.1466 146.27 98.1567 145.899C98.1416 145.542 98.1972 145.186 98.3199 144.853C98.4426 144.519 98.6298 144.216 98.8699 143.961C99.1099 143.706 99.3977 143.506 99.7153 143.372C100.033 143.239 100.373 143.175 100.716 143.185C101.059 143.176 101.4 143.242 101.717 143.378C102.034 143.515 102.32 143.719 102.557 143.978C102.793 144.237 102.976 144.545 103.092 144.881C103.208 145.218 103.256 145.576 103.231 145.933C103.229 146.028 103.222 146.123 103.209 146.217ZM99.0714 145.524H102.338C102.275 145.12 102.076 144.753 101.776 144.488C101.477 144.223 101.097 144.077 100.705 144.077C100.312 144.077 99.9324 144.223 99.6332 144.488C99.334 144.753 99.1349 145.12 99.0714 145.524Z" fill="#263238"/>
<path d="M132.611 143.684H138.72L135.671 146.875L132.611 143.684Z" fill="#263238"/>
<path d="M171.422 143.684H177.531L174.471 146.875L171.422 143.684Z" fill="#263238"/>
<path d="M405.448 302.742C405.448 301.004 405.361 236.415 405.23 129.838L405.448 130.054L72.3618 130.134L72.6449 129.838C72.6449 190.781 72.6449 249.283 72.6449 302.742L72.3727 302.458L405.481 302.742L72.3727 303.014H72.1113V302.742C72.1113 249.283 72.1113 190.781 72.1113 129.838V129.543H72.4162L405.503 129.622H405.644V129.838C405.524 236.415 405.448 301.004 405.448 302.742Z" fill="#E0E0E0"/>
<path d="M405.447 123.241C405.447 123.241 405.447 122.559 405.447 121.276C405.447 119.993 405.447 118.073 405.447 115.597C405.447 110.589 405.447 103.207 405.382 93.7005L405.501 93.814L71.9031 93.9957L72.1863 93.7005V123.229L71.9031 122.934L308.705 123.059L379.595 123.139H398.804H403.792C404.881 123.139 405.512 123.139 405.512 123.139H403.835H398.881H379.737L308.955 123.229L71.9467 123.354H71.5547V93.3711H71.8487L405.447 93.5642H405.556V93.6777C405.556 103.218 405.501 110.611 405.49 115.643C405.49 118.13 405.49 120.038 405.49 121.321C405.49 122.605 405.447 123.241 405.447 123.241Z" fill="#E0E0E0"/>
<path d="M405.447 87.4204C405.447 87.4204 405.447 86.7504 405.447 85.4556C405.447 84.1609 405.447 82.2529 405.447 79.777C405.447 74.7684 405.447 67.3975 405.382 57.8915L405.501 58.0051L71.9031 58.1868L72.1863 57.8915V87.4204L71.9031 87.1252L308.705 87.2501L379.595 87.3409H398.804H403.792H405.512H403.835H398.881H379.737L308.955 87.4318L71.9467 87.5567H71.5547V57.5508H71.8487L405.447 57.7325H405.556V57.8574C405.556 67.3862 405.501 74.7911 405.49 79.8111C405.49 82.3097 405.49 84.2063 405.49 85.4897C405.49 86.7731 405.447 87.4204 405.447 87.4204Z" fill="#E0E0E0"/>
<path d="M318.723 138.208C318.197 138.189 317.684 138.383 317.293 138.749C316.901 139.116 316.66 139.626 316.621 140.173V147.873C316.741 148.593 317.1 149.246 317.636 149.717C318.172 150.187 318.85 150.445 319.55 150.445C320.251 150.445 320.929 150.187 321.465 149.717C322.001 149.246 322.36 148.593 322.48 147.873V141.661H321.902V147.612C321.846 148.228 321.571 148.8 321.132 149.216C320.693 149.631 320.122 149.862 319.529 149.862C318.936 149.862 318.364 149.631 317.925 149.216C317.486 148.8 317.211 148.228 317.155 147.612V140.241C317.155 139.817 317.316 139.409 317.604 139.109C317.892 138.809 318.283 138.64 318.69 138.64C319.097 138.64 319.488 138.809 319.776 139.109C320.064 139.409 320.225 139.817 320.225 140.241V146.488C320.17 146.679 320.057 146.847 319.903 146.966C319.749 147.086 319.562 147.15 319.371 147.15C319.179 147.15 318.992 147.086 318.838 146.966C318.684 146.847 318.571 146.679 318.516 146.488V141.672H317.95V146.272V146.488C318.019 146.822 318.197 147.122 318.452 147.337C318.708 147.552 319.026 147.669 319.354 147.669C319.683 147.669 320.001 147.552 320.257 147.337C320.512 147.122 320.689 146.822 320.759 146.488V146.363C320.759 146.363 320.759 146.295 320.759 146.261V140.128C320.708 139.602 320.471 139.114 320.095 138.759C319.719 138.405 319.23 138.208 318.723 138.208Z" fill="#263238"/>
<path d="M241.005 141.605H232.609V142.991H241.005V141.605Z" fill="#263238"/>
<path d="M241.005 146.656H232.609V148.042H241.005V146.656Z" fill="#263238"/>
<path d="M236.813 144.215H232.609V145.6H236.813V144.215Z" fill="#263238"/>
<path d="M272.531 141.605H264.135V142.991H272.531V141.605Z" fill="#263238"/>
<path d="M272.531 146.656H264.135V148.042H272.531V146.656Z" fill="#263238"/>
<path d="M272.531 144.215H268.328V145.6H272.531V144.215Z" fill="#263238"/>
<path d="M256.98 141.605H248.584V142.991H256.98V141.605Z" fill="#263238"/>
<path d="M256.98 146.656H248.584V148.042H256.98V146.656Z" fill="#263238"/>
<path d="M256.98 144.215H248.584V145.6H256.98V144.215Z" fill="#263238"/>
<path d="M293.559 147.59H286.688V141.707H290.248V142.945H287.885V146.341H292.372V145.114H293.559V147.59Z" fill="#263238"/>
<path d="M297.511 147.59H294.592V146.341H296.324V142.945H291.837V144.535H290.65V141.707H297.511V147.59Z" fill="#263238"/>
<path d="M300.299 144.184H303.958L302.128 145.955L300.299 144.184Z" fill="#263238"/>
<path d="M217.604 144.785V141.48H218.692V144.74C218.692 145.944 219.215 146.466 220.119 146.466C221.023 146.466 221.535 145.944 221.535 144.74V141.48H222.558V144.785C222.581 145.136 222.534 145.488 222.42 145.819C222.307 146.15 222.13 146.453 221.9 146.71C221.67 146.966 221.391 147.171 221.082 147.311C220.773 147.451 220.44 147.523 220.103 147.523C219.766 147.523 219.432 147.451 219.123 147.311C218.814 147.171 218.536 146.966 218.306 146.71C218.075 146.453 217.898 146.15 217.785 145.819C217.672 145.488 217.625 145.136 217.647 144.785H217.604Z" fill="#263238"/>
<path d="M208.185 140.82H209.121L207.804 147.635H206.867L208.185 140.82Z" fill="#263238"/>
<path d="M199.375 145.808C199.375 146.943 198.439 147.682 196.675 147.682H193.146V140.867H196.49C198.21 140.867 199.059 141.605 199.059 142.662C199.063 142.97 198.982 143.273 198.826 143.535C198.669 143.796 198.444 144.006 198.177 144.138C198.524 144.242 198.829 144.462 199.045 144.763C199.262 145.064 199.377 145.431 199.375 145.808ZM195.019 142.241V143.536H196.294C196.914 143.536 197.23 143.32 197.23 142.877C197.23 142.434 196.914 142.219 196.294 142.219L195.019 142.241ZM197.546 145.592C197.546 145.126 197.208 144.899 196.577 144.899H195.019V146.285H196.566C197.165 146.262 197.502 146.035 197.502 145.569L197.546 145.592Z" fill="#263238"/>
<path d="M227.524 152.176C227.244 149.571 227.149 146.948 227.241 144.328C227.149 141.705 227.244 139.078 227.524 136.469C227.811 139.077 227.906 141.705 227.808 144.328C227.906 146.948 227.811 149.571 227.524 152.176Z" fill="#E0E0E0"/>
<path d="M277.43 152.176C277.144 149.571 277.049 146.948 277.147 144.328C277.049 141.705 277.143 139.077 277.43 136.469C277.711 139.078 277.805 141.705 277.714 144.328C277.805 146.948 277.71 149.571 277.43 152.176Z" fill="#E0E0E0"/>
<path d="M307.638 152.497C307.358 149.891 307.263 147.268 307.354 144.649C307.262 142.029 307.357 139.406 307.638 136.801C307.918 139.406 308.013 142.029 307.921 144.649C308.012 147.268 307.918 149.891 307.638 152.497Z" fill="#E0E0E0"/>
<path d="M330.507 152.031C330.227 149.426 330.132 146.803 330.223 144.183C330.132 141.56 330.226 138.933 330.507 136.324C330.801 138.932 330.899 141.56 330.801 144.183C330.899 146.803 330.8 149.427 330.507 152.031Z" fill="#E0E0E0"/>
<path d="M223.658 148.202C221.423 148.595 219.141 148.595 216.906 148.202C219.141 147.808 221.423 147.808 223.658 148.202Z" fill="#263238"/>
<path d="M157.647 140.82V147.634H156.721V141.649H155.24V140.797L157.647 140.82Z" fill="#263238"/>
<path d="M163.68 146.806V147.658H158.976V146.942L161.644 144.262C162.34 143.558 162.471 143.126 162.471 142.706C162.471 142.002 161.992 141.57 161.077 141.57C160.762 141.553 160.448 141.61 160.157 141.738C159.867 141.866 159.608 142.061 159.4 142.308L158.758 141.741C159.059 141.394 159.43 141.122 159.844 140.943C160.259 140.764 160.706 140.684 161.153 140.707C162.526 140.707 163.397 141.434 163.397 142.604C163.384 143.024 163.28 143.437 163.091 143.809C162.902 144.181 162.634 144.503 162.308 144.75L160.304 146.761L163.68 146.806Z" fill="#263238"/>
<path d="M405.447 159.561C405.447 159.72 330.745 159.856 238.62 159.856C146.496 159.856 71.7832 159.72 71.7832 159.561C71.7832 159.402 146.463 159.266 238.62 159.266C330.778 159.266 405.447 159.436 405.447 159.561Z" fill="#E0E0E0"/>
<path d="M384.866 176.791C384.866 176.95 317.036 177.086 233.372 177.086C149.708 177.086 81.8672 176.95 81.8672 176.791C81.8672 176.632 149.741 176.473 233.372 176.473C317.003 176.473 384.866 176.62 384.866 176.791Z" fill="#263238"/>
<path d="M384.866 189.588C384.866 189.759 317.036 189.884 233.372 189.884C149.708 189.884 81.8672 189.759 81.8672 189.588C81.8672 189.418 149.687 189.293 233.372 189.293C317.057 189.293 384.866 189.429 384.866 189.588Z" fill="#263238"/>
<path d="M384.866 202.401C384.866 202.56 317.036 202.696 233.372 202.696C149.708 202.696 81.8672 202.594 81.8672 202.401C81.8672 202.208 149.687 202.105 233.372 202.105C317.057 202.105 384.866 202.23 384.866 202.401Z" fill="#263238"/>
<path d="M384.866 215.198C384.866 215.368 317.036 215.493 233.372 215.493C149.708 215.493 81.8672 215.368 81.8672 215.198C81.8672 215.027 149.687 214.902 233.372 214.902C317.057 214.902 384.866 215.084 384.866 215.198Z" fill="#263238"/>
<path d="M384.866 228.01C384.866 228.169 317.036 228.305 233.372 228.305C149.708 228.305 81.8672 228.169 81.8672 228.01C81.8672 227.851 149.687 227.715 233.372 227.715C317.057 227.715 384.866 227.84 384.866 228.01Z" fill="#263238"/>
<path d="M384.866 240.811C384.866 240.981 317.036 241.106 233.372 241.106C149.708 241.106 81.8672 240.981 81.8672 240.811C81.8672 240.641 149.687 240.516 233.372 240.516C317.057 240.516 384.866 240.652 384.866 240.811Z" fill="#263238"/>
<path d="M384.866 253.62C384.866 253.779 317.036 253.915 233.372 253.915C149.708 253.915 81.8672 253.779 81.8672 253.62C81.8672 253.46 149.687 253.324 233.372 253.324C317.057 253.324 384.866 253.449 384.866 253.62Z" fill="#263238"/>
<path d="M385.083 265.967C385.083 266.126 317.252 266.262 233.589 266.262C149.925 266.262 82.084 266.126 82.084 265.967C82.084 265.808 149.903 265.672 233.589 265.672C317.274 265.672 385.083 265.808 385.083 265.967Z" fill="#263238"/>
<path d="M385.302 278.311C385.302 278.481 317.471 278.606 233.818 278.606C150.166 278.606 82.3027 278.481 82.3027 278.311C82.3027 278.141 150.122 278.016 233.818 278.016C317.515 278.016 385.302 278.152 385.302 278.311Z" fill="#263238"/>
<path d="M82.5312 290.659C82.5312 290.5 150.362 290.363 234.014 290.363C317.667 290.363 385.519 290.5 385.519 290.659C385.519 290.818 317.7 290.954 234.014 290.954C150.329 290.954 82.5312 290.829 82.5312 290.659Z" fill="#263238"/>
<path d="M417.077 315.734C417.077 313.713 416.99 201.764 416.848 27.8837L417.077 28.1335H59.2716L59.5548 27.8383C59.5548 131.53 59.5548 229.635 59.5548 315.689L59.3043 315.427L417.142 315.689L59.3043 315.961H59.043V315.689C59.043 229.635 59.043 131.53 59.043 27.8383V27.543H59.3588L417.077 27.6906H417.317V27.9291C417.175 201.764 417.077 313.713 417.077 315.734Z" fill="#263238"/>
<path d="M277.148 117.267V142.026C277.148 144.219 277.984 146.322 279.47 147.873C280.957 149.423 282.973 150.294 285.076 150.294H314.173C314.595 150.294 315.012 150.397 315.39 150.594C315.768 150.791 316.097 151.077 316.35 151.43L323.472 167.614L332.053 151.714C332.312 151.412 332.629 151.17 332.984 151.003C333.338 150.837 333.722 150.75 334.111 150.749H364.602C366.7 150.722 368.703 149.828 370.171 148.263C371.639 146.698 372.451 144.59 372.431 142.401V117.108C372.431 116.022 372.226 114.947 371.826 113.943C371.427 112.94 370.842 112.029 370.105 111.262C369.367 110.495 368.492 109.887 367.529 109.474C366.566 109.06 365.534 108.849 364.493 108.852L285.109 108.999C284.065 108.995 283.03 109.205 282.065 109.619C281.099 110.032 280.221 110.641 279.482 111.409C278.742 112.177 278.155 113.09 277.755 114.095C277.355 115.101 277.148 116.179 277.148 117.267Z" fill="black"/>
<path d="M297.118 138.649H292.152V133.766L303.586 120.739L303.815 120.682C304.424 120.426 305.086 120.341 305.736 120.437C306.386 120.532 307.001 120.805 307.517 121.227C308.966 122.613 308.606 125.146 308.519 125.429V125.679L297.118 138.649ZM293.851 136.934H296.443L306.995 124.896C307.068 124.478 307.059 124.048 306.967 123.634C306.875 123.22 306.703 122.83 306.461 122.488C306.179 122.291 305.855 122.169 305.517 122.131C305.18 122.094 304.839 122.142 304.523 122.272L293.851 134.424V136.934Z" fill="white"/>
<path d="M329.418 135.357V137.049H319.977V123.488H329.156V125.169H321.839V129.337H328.372V131.041H321.839V135.413L329.418 135.357Z" fill="white"/>
<path d="M341.396 122.671V137.049H339.686V135.414C339.284 135.983 338.753 136.44 338.142 136.745C337.531 137.05 336.857 137.193 336.18 137.163C334.887 137.1 333.668 136.521 332.775 135.545C331.881 134.569 331.383 133.271 331.383 131.922C331.383 130.572 331.881 129.275 332.775 128.299C333.668 127.323 334.887 126.743 336.18 126.68C336.837 126.656 337.49 126.792 338.088 127.078C338.685 127.364 339.21 127.792 339.621 128.327V122.648L341.396 122.671ZM339.632 131.916C339.591 131.253 339.366 130.617 338.983 130.085C338.601 129.554 338.078 129.151 337.478 128.926C336.879 128.701 336.23 128.664 335.61 128.818C334.991 128.973 334.428 129.314 333.992 129.798C333.555 130.282 333.264 130.888 333.154 131.542C333.044 132.197 333.119 132.871 333.372 133.481C333.624 134.091 334.041 134.611 334.573 134.976C335.105 135.342 335.728 135.538 336.365 135.539C336.81 135.537 337.25 135.44 337.658 135.254C338.066 135.068 338.433 134.797 338.737 134.458C339.041 134.118 339.275 133.718 339.425 133.281C339.575 132.844 339.638 132.379 339.61 131.916H339.632Z" fill="white"/>
<path d="M344.455 123.603C344.454 123.44 344.484 123.277 344.544 123.126C344.604 122.975 344.692 122.839 344.804 122.724C344.916 122.61 345.049 122.52 345.194 122.46C345.34 122.4 345.496 122.372 345.653 122.376C345.957 122.361 346.255 122.472 346.482 122.684C346.708 122.897 346.845 123.195 346.862 123.512C346.866 123.678 346.838 123.844 346.779 123.999C346.72 124.153 346.63 124.293 346.517 124.41C346.404 124.527 346.269 124.619 346.12 124.679C345.971 124.74 345.812 124.768 345.653 124.761C345.501 124.768 345.35 124.742 345.208 124.687C345.066 124.632 344.935 124.549 344.824 124.441C344.713 124.334 344.623 124.204 344.559 124.06C344.496 123.917 344.461 123.761 344.455 123.603ZM344.771 126.772H346.546V136.993H344.771V126.772Z" fill="white"/>
<path d="M355.487 136.447C354.862 136.941 354.092 137.194 353.309 137.162C352.891 137.212 352.468 137.164 352.071 137.02C351.673 136.877 351.312 136.642 351.013 136.334C350.714 136.026 350.485 135.651 350.344 135.238C350.202 134.825 350.151 134.384 350.195 133.948V128.27H348.518V126.736H350.195V124.465H351.97V126.736H354.801V128.27H351.97V133.835C351.94 134.059 351.959 134.287 352.024 134.503C352.09 134.718 352.201 134.916 352.349 135.082C352.497 135.247 352.678 135.376 352.88 135.459C353.082 135.542 353.299 135.577 353.516 135.561C354.02 135.564 354.51 135.392 354.91 135.073L355.487 136.447Z" fill="white"/>
<path d="M105.441 499.813C102.588 499.665 101.75 495.474 102.817 492.714C103.884 489.955 105.964 487.501 105.997 484.526C105.997 481.948 104.45 479.608 104.298 477.03C104.026 472.385 108.338 468.592 108.523 463.946C108.665 460.312 106.247 456.859 106.835 453.282C107.456 449.443 111.3 446.933 112.182 443.14C113.118 439.119 110.44 434.849 111.463 430.851C112.487 426.854 116.995 423.923 116.353 419.857C115.974 418.549 115.527 417.264 115.013 416.007C114.207 412.975 115.797 409.795 117.725 407.364C119.652 404.934 122.015 402.821 123.169 399.88C125.01 395.428 123.736 389.999 125.892 385.706C127.699 382.14 131.707 379.732 132.208 375.734C134.233 379.335 132.208 383.912 132.708 388.068C133.013 390.771 134.364 393.213 135.18 395.803C136.011 398.45 136.305 401.249 136.045 404.021C135.784 406.793 134.975 409.479 133.667 411.907C131.924 415.099 129.246 418.12 129.376 421.788C129.54 426.229 133.808 429.454 134.56 433.827C135.649 440.085 129.246 445.718 130.128 451.999C130.356 453.623 131.064 455.156 131.217 456.791C131.663 462.356 125.619 466.286 124.683 471.794C124.008 475.837 126.251 480.017 125.325 484.015C124.607 487.093 122.059 489.852 122.679 492.953C123.109 494.25 123.656 495.501 124.313 496.689C124.802 497.905 124.959 499.238 124.767 500.541C124.575 501.844 124.041 503.066 123.224 504.072C122.375 505.047 121.251 505.716 120.014 505.981C118.777 506.246 117.491 506.095 116.342 505.548" fill="black"/>
<g opacity="0.5">
<path d="M124.347 496.748C123.69 495.559 123.143 494.308 122.713 493.012C122.093 489.911 124.641 487.151 125.36 484.073C126.285 480.076 124.042 475.896 124.717 471.853C125.643 466.345 131.686 462.415 131.251 456.85C131.109 455.214 130.401 453.681 130.162 452.057C129.28 445.765 135.672 440.132 134.594 433.885C133.842 429.513 129.585 426.287 129.41 421.847C129.28 418.178 131.959 415.157 133.701 411.966C135.009 409.537 135.818 406.852 136.079 404.079C136.34 401.307 136.045 398.509 135.215 395.861C134.398 393.272 133.037 390.83 132.743 388.127C132.285 383.97 134.267 379.393 132.242 375.793C131.741 379.791 127.733 382.198 125.926 385.765C123.748 390.058 125.044 395.487 123.203 399.939C122.016 402.835 119.653 404.993 117.759 407.423C115.864 409.853 114.241 413.034 115.047 416.066C115.561 417.323 116.008 418.608 116.387 419.916C117.029 423.982 112.521 426.912 111.497 430.91C110.474 434.908 113.152 439.178 112.216 443.198C111.334 446.992 107.49 449.502 106.869 453.341C106.281 456.918 108.699 460.371 108.557 464.005C108.372 468.65 104.06 472.443 104.332 477.089C104.484 479.667 106.053 482.006 106.031 484.584C106.031 487.56 103.853 490.013 102.851 492.773C101.849 495.533 102.622 499.724 105.475 499.871L116.43 505.618C117.579 506.165 118.865 506.316 120.102 506.051C121.339 505.786 122.463 505.117 123.312 504.142C124.122 503.129 124.648 501.902 124.83 500.597C125.013 499.292 124.846 497.96 124.347 496.748Z" fill="white"/>
</g>
<path d="M120.633 493.989C119.878 492.661 119.5 491.137 119.544 489.594C119.838 487.89 122.593 486.402 123.279 483.517C124.161 479.77 122.56 473.16 123.279 469.378C124.204 464.255 129.29 460.882 129.083 455.749C129.018 454.25 129.224 450.252 129.083 448.775C128.538 443.04 133.373 439.19 132.666 433.489C132.176 429.514 128.223 424.846 128.212 420.768C128.212 417.361 130.531 414.442 132.067 411.387C134.394 406.804 135.015 401.484 133.809 396.452C133.21 394.124 132.165 391.91 132.001 389.502C131.74 385.708 133.526 381.347 132.001 378.145C131.468 381.87 128.07 384.357 126.469 387.764C124.553 391.864 125.446 396.77 123.791 400.995C122.702 403.744 120.698 405.89 119.021 408.264C117.344 410.638 115.939 413.659 116.516 416.407C116.906 417.523 117.237 418.661 117.507 419.814C117.921 423.528 114.099 426.527 113.152 430.274C112.204 434.022 114.241 437.77 113.369 441.541C112.531 445.084 109.199 449.9 108.567 453.477C107.968 456.816 110.865 458.986 110.636 462.325C110.353 466.629 106.28 471.819 106.28 476.078C106.28 478.441 108.23 479.202 108.132 481.575C108.012 484.312 105.812 489.764 104.865 492.376C104.351 493.556 104.143 494.856 104.264 496.146C104.384 497.436 104.828 498.67 105.551 499.724L117.791 506.062C123.137 503.438 122.898 497.884 120.633 493.989Z" fill="black"/>
<path d="M128.855 397.609C128.87 397.703 128.87 397.799 128.855 397.893C128.855 398.109 128.855 398.382 128.855 398.722C128.855 399.461 128.855 400.528 128.724 401.914C128.622 403.608 128.254 405.273 127.635 406.843C126.916 408.717 125.392 410.398 123.954 412.328C123.176 413.314 122.581 414.442 122.201 415.656C121.816 416.98 121.669 418.366 121.765 419.745C121.896 422.63 122.746 425.628 123.148 428.899C123.392 430.587 123.337 432.308 122.985 433.975C122.779 434.84 122.456 435.67 122.027 436.44C121.557 437.171 121.128 437.929 120.742 438.711C120.193 440.386 120.166 442.199 120.666 443.89C120.84 444.788 121.036 445.696 121.145 446.639C121.239 447.596 121.214 448.562 121.069 449.512C120.729 451.367 120.162 453.169 119.381 454.873C118.654 456.508 118.025 458.188 117.497 459.904C117.039 461.54 116.894 463.253 117.072 464.947C117.309 466.623 117.368 468.322 117.246 470.012C116.958 471.6 116.436 473.133 115.7 474.555C115.019 475.863 114.5 477.256 114.154 478.7C113.642 481.517 114.404 484.22 114.35 486.719C114.208 488.962 113.734 491.169 112.945 493.26C112.378 494.827 111.976 496.453 111.747 498.11C111.62 499.158 111.724 500.222 112.052 501.222C112.303 501.892 112.499 502.221 112.466 502.244C112.27 501.931 112.103 501.601 111.965 501.256C111.588 500.249 111.446 499.163 111.551 498.087C111.738 496.411 112.103 494.762 112.64 493.17C113.396 491.103 113.84 488.927 113.958 486.719C113.958 485.492 113.794 484.22 113.664 482.869C113.463 481.457 113.463 480.021 113.664 478.61C114.197 475.657 116.277 473.124 116.702 469.933C116.812 468.276 116.75 466.612 116.517 464.969C116.323 463.201 116.467 461.41 116.941 459.7C117.878 456.213 119.914 453.044 120.502 449.365C120.638 448.459 120.66 447.539 120.568 446.627C120.47 445.719 120.274 444.822 120.099 443.924C119.578 442.125 119.62 440.2 120.219 438.427C120.614 437.643 121.054 436.885 121.537 436.156C121.94 435.426 122.248 434.643 122.452 433.828C122.788 432.216 122.843 430.554 122.615 428.921C122.234 425.707 121.384 422.675 121.265 419.733C121.176 418.302 121.342 416.866 121.755 415.497C122.159 414.254 122.779 413.099 123.584 412.09C125.076 410.148 126.579 408.524 127.297 406.718C127.924 405.178 128.317 403.546 128.463 401.88C128.604 400.517 128.637 399.438 128.68 398.711C128.68 398.37 128.68 398.098 128.68 397.882C128.68 397.666 128.855 397.609 128.855 397.609Z" fill="#263238"/>
<path d="M87.9556 501.291C83.97 501.893 81.705 496.328 82.4564 492.205C83.2078 488.082 85.4619 484.085 84.7214 479.951C84.0789 476.373 81.2803 473.579 80.3656 470.047C78.7649 463.687 83.7414 457.213 82.7722 450.74C82.0208 445.674 77.763 441.574 77.6324 436.452C77.5344 430.876 82.2277 426.333 82.4128 420.836C82.6524 414.976 77.8175 409.842 78.1986 404.004C78.5798 398.167 84.0354 392.829 82.0753 387.366C81.4328 385.56 80.0389 384.152 79.2113 382.426C77.2948 378.45 78.6669 373.601 80.7032 369.683C82.7395 365.764 85.4401 362.096 86.333 357.735C87.6942 351.045 84.5036 343.89 86.333 337.292C87.8902 331.829 92.8667 327.354 92.4529 321.664C96.2207 326.082 94.6308 333.021 96.3949 338.62C97.4838 342.278 100.032 345.276 101.84 348.626C103.69 352.049 104.839 355.835 105.214 359.745C105.589 363.655 105.181 367.604 104.018 371.341C102.439 376.259 99.5202 381.199 100.664 386.253C102.068 392.352 108.82 395.6 111.009 401.449C114.145 409.819 106.762 419.45 109.647 427.923C110.388 430.103 111.825 432.011 112.391 434.249C114.482 441.824 107.132 449.013 107.295 456.884C107.426 462.687 111.651 467.844 111.39 473.636C111.215 478.111 108.406 482.722 110.083 486.776C110.813 488.559 112.261 489.888 113.35 491.501C114.35 493.039 114.922 494.836 115.002 496.692C115.083 498.548 114.669 500.392 113.807 502.018C112.889 503.613 111.507 504.861 109.862 505.582C108.217 506.303 106.395 506.459 104.66 506.027" fill="black"/>
<g opacity="0.5">
<path d="M113.338 491.567C112.249 489.955 110.822 488.626 110.071 486.843C108.394 482.731 111.16 478.177 111.378 473.702C111.617 467.91 107.414 462.754 107.283 456.95C107.12 449.068 114.47 441.891 112.38 434.315C111.759 432.044 110.376 430.17 109.636 427.989C106.75 419.517 114.133 409.886 110.997 401.515C108.819 395.666 102.056 392.43 100.652 386.319C99.5628 381.265 102.438 376.325 104.006 371.407C105.169 367.67 105.577 363.722 105.202 359.812C104.827 355.902 103.678 352.116 101.828 348.693C100.009 345.342 97.472 342.344 96.3831 338.687C94.6625 333.065 96.2088 326.194 92.4411 321.73C92.8005 327.409 87.8784 331.895 86.3212 337.358C84.4483 343.923 87.6389 351.078 86.3212 357.801C85.4283 362.162 82.7168 365.831 80.6914 369.749C78.6659 373.667 77.283 378.517 79.1995 382.492C80.0271 384.218 81.3774 385.627 82.0635 387.432C84.0236 392.895 78.5462 398.245 78.1868 404.071C77.8275 409.897 82.6406 415.042 82.401 420.902C82.2268 426.331 77.5335 430.874 77.675 436.405C77.7948 441.527 82.0308 445.627 82.8039 450.692C83.7731 457.189 78.7966 463.662 80.3974 470C81.2794 473.532 84.078 476.326 84.7532 479.903C85.4936 484.037 83.2286 488.035 82.4881 492.158C81.7477 496.281 84.0018 501.857 87.9873 501.244L104.681 506.059C106.416 506.491 108.238 506.336 109.883 505.615C111.528 504.894 112.91 503.645 113.828 502.05C114.679 500.425 115.084 498.586 114.997 496.737C114.911 494.887 114.337 493.098 113.338 491.567Z" fill="white"/>
</g>
<path d="M107.468 488.855C106.379 487.606 104.822 484.823 104.789 483.086C104.789 480.644 108.176 477.782 108.372 473.591C108.622 468.151 104.658 459.44 104.615 454.022C104.615 446.652 110.713 440.519 109.09 433.523C108.611 431.467 107.838 425.868 107.261 423.858C104.996 416.066 110.68 409.354 108.208 401.665C106.488 396.293 99.7798 390.955 98.7017 385.311C97.8088 380.643 100.248 375.884 101.577 371.205C103.596 364.188 103.056 356.64 100.063 350.012C98.6146 346.969 96.611 344.277 95.7071 340.927C94.346 335.748 95.7071 329.195 92.6581 325.242C92.8868 330.557 88.8468 334.964 87.5292 340.143C85.9393 346.378 88.4657 352.92 87.2896 359.246C86.5165 363.369 84.2841 366.912 82.5854 370.671C80.8866 374.431 79.7323 379.03 81.246 382.676C81.9102 384.243 83.0209 385.504 83.5327 387.162C85.079 392.182 80.5708 397.44 80.2659 402.903C79.961 408.366 83.7832 412.977 83.5327 418.451C83.2932 423.608 79.9501 431.228 80.0046 436.362C80.0046 441.155 84.6435 443.324 85.2097 448.037C85.9284 454.068 81.5726 462.45 82.814 468.321C83.5001 471.581 86.3204 472.092 86.8105 475.408C87.3658 479.236 85.7215 487.413 85.1117 491.308C84.5019 495.204 85.1117 497.975 87.9865 501.303L106.607 506.573C113.435 501.291 111.628 493.625 107.468 488.855Z" fill="black"/>
<path d="M93.5625 352.988C94.0003 354.965 94.3203 356.967 94.5208 358.985C94.797 361.358 94.7125 363.761 94.2703 366.106C93.9501 367.565 93.4562 368.977 92.8003 370.308C92.136 371.739 91.3302 373.17 90.6224 374.726C89.7952 376.323 89.2668 378.069 89.0652 379.871C88.8796 381.822 89.0345 383.792 89.5225 385.686C90.459 389.661 92.43 393.636 93.8783 397.986C94.6515 400.248 95.0205 402.638 94.9673 405.039C94.9028 406.284 94.6756 407.514 94.2921 408.696C93.83 409.831 93.4265 410.991 93.0834 412.171C92.528 414.59 93.3992 417.089 94.3574 419.44C94.8366 420.632 95.3375 421.836 95.7295 423.108C96.1105 424.398 96.3301 425.734 96.3829 427.083C96.3865 429.74 96.0756 432.388 95.4573 434.965C94.874 437.441 94.4376 439.952 94.1505 442.484C94.036 443.707 94.036 444.94 94.1505 446.163C94.294 447.365 94.5382 448.55 94.8801 449.707C95.6497 451.952 96.1757 454.279 96.4482 456.646C96.4812 458.929 96.1651 461.202 95.5117 463.381C94.8975 465.391 94.5315 467.475 94.4228 469.582C94.4811 471.545 94.8149 473.489 95.4137 475.352C95.9646 477.094 96.4298 478.864 96.8076 480.656C97.097 482.307 97.1739 483.991 97.0362 485.664C96.9382 487.243 96.764 488.719 96.5898 490.093C96.2177 492.431 96.0971 494.804 96.2304 497.169C96.3325 498.66 96.7649 500.106 97.4936 501.394C98.0163 502.257 98.3756 502.655 98.3539 502.677C98.0021 502.3 97.6849 501.89 97.4065 501.451C96.6366 500.162 96.1667 498.704 96.0344 497.192C95.8761 494.811 95.9711 492.419 96.3175 490.059C96.47 488.685 96.6442 487.209 96.7313 485.653C96.8468 484.005 96.759 482.348 96.47 480.724C96.0838 478.947 95.6113 477.192 95.0544 475.465C94.4115 473.572 94.0444 471.589 93.9654 469.582C94.0789 467.439 94.4446 465.318 95.0544 463.268C95.69 461.136 95.9951 458.912 95.9582 456.68C95.6753 454.357 95.1532 452.072 94.401 449.866C94.0444 448.685 93.7929 447.472 93.6496 446.243C93.5298 444.985 93.5298 443.719 93.6496 442.461C93.9318 439.91 94.3683 437.38 94.9564 434.886C95.5659 432.349 95.8731 429.744 95.8711 427.129C95.8203 425.826 95.608 424.536 95.2395 423.29C94.8584 422.052 94.3574 420.859 93.8783 419.656C93.3684 418.465 92.9603 417.23 92.6587 415.964C92.3488 414.692 92.3264 413.363 92.5934 412.08C92.9407 410.88 93.3515 409.701 93.8239 408.548C94.1958 407.411 94.4157 406.227 94.4772 405.027C94.5195 402.687 94.1505 400.358 93.3883 398.156C92.0053 393.795 90.0452 389.854 89.1087 385.811C88.6102 383.869 88.4625 381.847 88.6732 379.848C88.8865 378.005 89.4334 376.221 90.2848 374.59C91.0471 373.023 91.8638 371.592 92.5389 370.195C93.1905 368.889 93.6843 367.504 94.009 366.072C94.4717 363.753 94.5819 361.373 94.3357 359.019C94.1723 357.077 93.9328 355.612 93.7803 354.567C93.715 354.075 93.6605 353.696 93.617 353.431C93.5779 353.287 93.5595 353.138 93.5625 352.988Z" fill="#263238"/>
<path d="M85.4928 504.018C83.2169 505.154 80.8321 502.303 80.5163 499.68C80.2005 497.056 80.8103 494.217 79.6016 491.889C78.5126 489.878 76.3347 488.765 75.1805 486.835C73.0026 483.348 74.8211 478.476 73.0026 474.773C71.6087 471.9 68.3092 470.298 67.2856 467.266C66.1967 464.007 68.1132 460.315 67.2856 456.988C66.3491 453.433 62.5051 451.309 61.6449 447.766C60.7846 444.222 63.0714 439.895 60.8826 437.022C60.0483 436.183 59.1723 435.391 58.2583 434.648C56.3744 432.649 56.2873 429.469 56.7882 426.698C57.2891 423.927 58.2147 421.201 57.9425 418.407C57.5178 414.125 54.2836 410.457 54.1856 406.187C54.1094 402.598 56.2219 398.929 54.9588 395.602C58.0187 397.476 58.3781 401.939 60.4035 404.949C61.7538 406.913 63.8119 408.197 65.5215 409.832C67.2539 411.52 68.6321 413.565 69.5692 415.836C70.5063 418.107 70.982 420.557 70.9663 423.029C70.9663 426.289 70.106 429.844 71.7285 432.626C73.6886 436.034 78.3384 436.579 80.7341 439.634C84.1643 444.018 81.529 451.264 84.8176 455.75C85.667 456.885 86.854 457.771 87.638 458.987C90.295 463.098 87.2242 468.879 88.7269 473.558C89.8812 476.965 93.355 479.237 94.2914 482.769C95.0102 485.472 94.1717 488.765 95.9357 490.889C96.808 491.704 97.7523 492.43 98.7561 493.058C99.6296 493.787 100.295 494.751 100.679 495.847C101.063 496.942 101.151 498.127 100.934 499.271C100.697 500.391 100.131 501.406 99.3157 502.176C98.4999 502.945 97.4746 503.43 96.3822 503.564" fill="black"/>
<g opacity="0.5">
<path d="M98.8538 493.078C97.85 492.45 96.9057 491.723 96.0334 490.909C94.2693 488.785 95.1078 485.491 94.3891 482.788C93.4526 479.268 90.0333 477.03 88.8246 473.578C87.2674 468.898 90.3382 463.117 87.7356 459.006C86.9516 457.791 85.7647 456.928 84.9153 455.769C81.6485 451.283 84.2619 444.037 80.8317 439.653C78.4361 436.598 73.7863 436.019 71.8262 432.646C70.2036 429.852 71.0312 426.308 71.0639 423.049C71.0796 420.576 70.6039 418.127 69.6668 415.856C68.7297 413.584 67.3515 411.54 65.6192 409.852C63.9095 408.216 61.8514 406.933 60.5012 404.968C58.4213 401.958 58.0619 397.495 55.0564 395.621C56.3196 398.949 54.207 402.617 54.2833 406.206C54.3813 410.511 57.6154 414.156 58.0401 418.427C58.3124 421.22 57.3759 423.958 56.8859 426.717C56.3958 429.477 56.4721 432.646 58.3559 434.667C59.27 435.41 60.146 436.202 60.9803 437.041C63.1582 439.915 60.8823 444.219 61.7425 447.785C62.6028 451.351 66.4468 453.464 67.3833 457.007C68.2653 460.335 66.2943 464.026 67.3833 467.286C68.4069 470.318 71.7391 471.919 73.1002 474.793C74.8861 478.495 73.1002 483.368 75.2781 486.854C76.4542 488.785 78.643 489.898 79.6992 491.908C80.908 494.18 80.2873 497.087 80.614 499.699C80.9406 502.311 83.3145 505.196 85.5904 504.038L96.4799 503.549C97.598 503.458 98.6592 502.998 99.5106 502.237C100.362 501.475 100.959 500.452 101.217 499.313C101.417 498.147 101.303 496.947 100.885 495.845C100.468 494.744 99.7643 493.786 98.8538 493.078Z" fill="white"/>
</g>
<path d="M94.8371 492.647C93.7032 491.954 92.7787 490.943 92.1692 489.728C91.6901 488.274 93.2582 485.878 92.5504 483.323C91.6901 480.018 87.7046 475.611 86.6701 472.374C85.2762 467.967 87.8243 463.061 85.5811 459.2C84.906 458.064 83.4032 454.873 82.6845 453.782C79.8968 449.58 82.0529 444.412 79.1454 440.312C77.12 437.439 72.1109 435.599 70.4339 432.442C69.04 429.818 69.6063 426.491 69.541 423.413C69.4473 418.806 67.7255 414.397 64.7061 411.033C63.2795 409.512 61.5808 408.296 60.4265 406.49C58.6515 403.663 58.2486 399.483 55.7005 397.723C56.7894 400.857 55.2104 404.31 55.3847 407.672C55.5916 411.726 58.3139 415.133 58.7822 419.154C59.0871 421.777 58.4011 424.356 58.0853 426.945C57.7695 429.534 57.9219 432.521 59.5118 434.395C60.1978 435.202 61.0908 435.736 61.6897 436.667C63.5409 439.358 61.8095 443.413 62.6153 446.752C63.4211 450.091 66.5899 452.079 67.4502 455.406C68.2669 458.541 67.6789 463.777 68.6589 466.832C69.5845 469.694 72.7316 470.069 73.9403 472.772C75.4866 476.236 74.4303 482.13 76.2597 485.401C77.2834 487.207 79.0583 486.946 79.973 488.808C81.062 490.989 81.5629 496.202 81.9005 498.666C81.9986 499.808 82.3821 500.902 83.0127 501.841C83.6433 502.78 84.4988 503.529 85.494 504.015L97.6139 503.414C100.739 498.848 98.2238 494.657 94.8371 492.647Z" fill="black"/>
<path d="M61.3301 414.137C61.3301 414.137 61.3301 414.193 61.4716 414.341L61.8201 414.977C62.125 415.545 62.5715 416.385 63.0506 417.51C63.6591 418.863 64.0596 420.308 64.2376 421.792C64.2891 423.782 64.0914 425.771 63.6495 427.709C63.4435 428.834 63.4435 429.99 63.6495 431.116C63.8979 432.328 64.3554 433.482 64.9998 434.523C66.2957 436.704 68.2013 438.646 69.8674 441.008C70.759 442.21 71.4309 443.573 71.8493 445.029C72.0478 445.795 72.1431 446.586 72.1324 447.379C72.0607 448.134 72.0352 448.893 72.0562 449.651C72.3237 451.194 73.0516 452.609 74.1361 453.694C74.6479 454.307 75.225 454.932 75.6497 455.625C76.1062 456.329 76.4723 457.093 76.7386 457.896C77.2418 459.493 77.5491 461.149 77.6534 462.825C77.7576 464.42 77.9613 466.006 78.2632 467.573C78.597 469.086 79.2232 470.512 80.1035 471.764C80.9639 472.963 81.6943 474.258 82.2814 475.625C82.7274 476.989 82.959 478.42 82.9674 479.861C82.9855 481.181 83.1611 482.494 83.4901 483.768C84.2524 486.176 85.962 487.936 86.9529 489.913C87.7699 491.707 88.3137 493.622 88.5646 495.591C88.7744 497.063 89.1396 498.507 89.6535 499.896C89.9896 500.761 90.5068 501.537 91.1672 502.167C91.426 502.355 91.6734 502.56 91.9076 502.78C91.627 502.629 91.3608 502.45 91.1127 502.247C90.4045 501.634 89.8449 500.856 89.4793 499.975C88.9479 498.57 88.5681 497.107 88.3468 495.614C88.0804 493.67 87.5257 491.781 86.7025 490.015C85.7333 488.107 83.9801 486.369 83.1525 483.825C82.3249 481.281 82.9021 478.385 81.9111 475.727C81.3186 474.395 80.5883 473.135 79.7332 471.968C78.8457 470.68 78.2127 469.221 77.8711 467.675C77.1633 464.552 77.4247 461.179 76.3575 458.067C76.0871 457.304 75.7209 456.582 75.2686 455.92C74.8221 455.261 74.2994 454.648 73.7876 454.024C72.6367 452.861 71.8734 451.345 71.6097 449.696C71.5903 448.904 71.6158 448.112 71.6859 447.323C71.7066 446.557 71.6223 445.792 71.4355 445.051C71.0287 443.651 70.3832 442.339 69.5298 441.178C67.9073 438.907 66.0017 436.885 64.684 434.648C64.0265 433.575 63.5615 432.385 63.312 431.139C63.105 429.983 63.105 428.797 63.312 427.641C63.7765 425.733 63.9998 423.771 63.9762 421.803C63.8245 420.33 63.4573 418.89 62.8873 417.533C62.4299 416.397 62.0161 415.556 61.7983 414.966C61.6785 414.705 61.5696 414.489 61.4934 414.307C61.434 414.256 61.3793 414.199 61.3301 414.137Z" fill="#263238"/>
<path d="M134.996 480.656H62.3418V494.092H134.996V480.656Z" fill="#455A64"/>
<path d="M67.7656 491.422L76.597 531.559H119.904L129.574 491.422H67.7656Z" fill="#455A64"/>
<path d="M134.953 494.101C134.953 494.249 118.619 494.374 98.3533 494.374C78.0881 494.374 61.7539 494.249 61.7539 494.101C61.7539 493.953 78.0881 493.84 98.3533 493.84C118.619 493.84 134.953 493.953 134.953 494.101Z" fill="#263238"/>
<path d="M464.304 414.375C464.304 414.375 439.716 426.073 415.802 426.073C393.664 426.073 368.891 414.443 368.891 414.443L464.304 414.375Z" fill="#E0E0E0"/>
<path d="M413.297 519.09H422.781V415.489H413.297V519.09Z" fill="#E0E0E0"/>
<path d="M375.522 520.871H459.697V514.795H375.522V520.871Z" fill="#E0E0E0"/>
<path d="M449.832 523.482C449.83 524.808 450.205 526.105 450.91 527.208C451.614 528.312 452.617 529.172 453.791 529.681C454.964 530.19 456.257 530.324 457.504 530.067C458.751 529.81 459.896 529.173 460.796 528.236C461.696 527.299 462.309 526.105 462.557 524.805C462.806 523.505 462.68 522.157 462.194 520.932C461.708 519.707 460.884 518.66 459.827 517.923C458.771 517.186 457.528 516.793 456.257 516.793C454.555 516.793 452.922 517.497 451.718 518.752C450.513 520.006 449.835 521.707 449.832 523.482Z" fill="#263238"/>
<path d="M412.426 523.482C412.424 524.808 412.799 526.105 413.503 527.208C414.208 528.312 415.211 529.172 416.384 529.681C417.558 530.19 418.85 530.324 420.097 530.067C421.344 529.81 422.49 529.173 423.39 528.236C424.289 527.299 424.902 526.105 425.151 524.805C425.4 523.505 425.273 522.157 424.787 520.932C424.301 519.707 423.478 518.66 422.421 517.923C421.364 517.186 420.122 516.793 418.851 516.793C417.148 516.793 415.516 517.497 414.311 518.752C413.107 520.006 412.429 521.707 412.426 523.482Z" fill="#263238"/>
<path d="M369.107 523.482C369.105 524.808 369.48 526.105 370.185 527.208C370.89 528.312 371.892 529.172 373.066 529.681C374.24 530.19 375.532 530.324 376.779 530.067C378.026 529.81 379.172 529.173 380.071 528.236C380.971 527.299 381.584 526.105 381.833 524.805C382.081 523.505 381.955 522.157 381.469 520.932C380.983 519.707 380.16 518.66 379.103 517.923C378.046 517.186 376.803 516.793 375.532 516.793C373.83 516.793 372.198 517.497 370.993 518.752C369.788 520.006 369.11 521.707 369.107 523.482Z" fill="#263238"/>
<path d="M415.813 458.34H428.717V452.775H415.813V458.34Z" fill="#E0E0E0"/>
<path d="M426.365 462.234H431.059V448.867H426.365V462.234Z" fill="#E0E0E0"/>
<path d="M364.666 414.374H472.068C473.96 414.374 475.774 413.59 477.112 412.195C478.45 410.8 479.201 408.908 479.201 406.935C479.201 404.962 478.45 403.07 477.112 401.675C475.774 400.28 473.96 399.496 472.068 399.496H364.666C362.774 399.496 360.96 400.28 359.622 401.675C358.285 403.07 357.533 404.962 357.533 406.935C357.533 408.908 358.285 410.8 359.622 412.195C360.96 413.59 362.774 414.374 364.666 414.374Z" fill="#455A64"/>
<path d="M463.617 218.575C463.617 218.575 472.263 215.054 471.904 207.365C471.545 199.676 461.613 192.067 462.201 180.528C462.757 169.693 447.882 137.518 426.636 148.728C423.073 148.246 419.456 148.454 415.965 149.341C409.115 151.385 406.981 158.222 402.897 164.991C396.658 175.44 392.4 183.674 395.416 190.954C398.433 198.234 399.696 200.369 397.355 206.582C394.306 214.691 391.18 212.34 392.204 219.427L410.716 219.733L412.469 215.009L412.665 220.12L423.555 219.972L463.617 218.575Z" fill="#263238"/>
<path d="M410.771 160.098C411 163.085 409.127 165.776 407.232 168.048C405.337 170.319 403.236 172.591 402.876 175.6C402.179 180.847 407.123 185.697 406.143 190.899C405.62 193.681 403.442 195.93 403.061 198.746C402.68 201.563 404.15 204.118 405.86 206.186C407.57 208.253 409.715 209.956 411.305 212.194C411.305 212.194 414.517 217.634 424.372 214.09" fill="#263238"/>
<path d="M419.199 156.302L443.624 161.708C444.764 161.785 445.836 162.307 446.624 163.17C447.413 164.032 447.862 165.173 447.882 166.365L447.588 221.504C447.567 225.272 446.358 228.928 444.147 231.908L441.816 235.042C436.502 242.186 425.743 241.459 421.682 233.475C421.434 233.023 421.247 232.538 421.126 232.033C421.026 231.622 420.949 231.204 420.898 230.783L420.429 225.411C420.19 220.505 420.157 215.508 420.157 215.553C420.157 215.599 410.161 214.236 407.591 200.789C406.317 194.111 406.24 183.071 406.447 174.042C406.632 165.911 411.413 155.757 419.199 156.302Z" fill="#FFBE9D"/>
<path d="M410.16 184.424C410.174 184.876 410.356 185.304 410.666 185.62C410.977 185.935 411.393 186.113 411.826 186.116C412.043 186.124 412.259 186.085 412.461 186.004C412.663 185.922 412.847 185.798 413.002 185.64C413.156 185.481 413.279 185.292 413.361 185.083C413.444 184.874 413.485 184.65 413.482 184.424C413.468 183.972 413.286 183.543 412.975 183.227C412.665 182.912 412.249 182.734 411.816 182.731C411.599 182.724 411.383 182.762 411.181 182.844C410.979 182.926 410.795 183.05 410.64 183.208C410.486 183.366 410.363 183.555 410.281 183.764C410.198 183.973 410.157 184.198 410.16 184.424Z" fill="#263238"/>
<path d="M408.91 179.689C409.127 179.905 410.347 178.882 412.176 178.814C414.006 178.746 415.313 179.632 415.498 179.393C415.683 179.155 415.367 178.882 414.779 178.474C413.983 177.949 413.052 177.691 412.111 177.735C411.179 177.762 410.281 178.105 409.552 178.712C409.018 179.178 408.844 179.587 408.91 179.689Z" fill="#263238"/>
<path d="M426.189 183.969C426.204 184.421 426.385 184.85 426.696 185.166C427.006 185.481 427.422 185.659 427.856 185.661C428.068 185.671 428.281 185.635 428.481 185.558C428.68 185.48 428.863 185.361 429.018 185.209C429.173 185.057 429.298 184.874 429.384 184.671C429.471 184.467 429.517 184.248 429.522 184.026C429.507 183.573 429.324 183.144 429.011 182.83C428.698 182.516 428.279 182.342 427.845 182.345C427.633 182.336 427.422 182.371 427.224 182.448C427.025 182.525 426.844 182.643 426.69 182.794C426.535 182.945 426.412 183.127 426.326 183.329C426.24 183.531 426.194 183.749 426.189 183.969Z" fill="#263238"/>
<path d="M425.939 179.233C426.146 179.448 427.377 178.426 429.206 178.358C431.035 178.29 432.342 179.176 432.473 178.937C432.604 178.699 432.342 178.426 431.754 178.017C430.96 177.489 430.027 177.231 429.086 177.279C428.154 177.306 427.256 177.649 426.527 178.256C426.004 178.744 425.83 179.13 425.939 179.233Z" fill="#263238"/>
<path d="M420.572 193.419C419.616 193.153 418.632 193.009 417.643 192.988C417.185 192.988 416.75 192.886 416.663 192.568C416.608 192.075 416.695 191.577 416.913 191.136C417.305 190.001 417.708 188.74 418.133 187.457C419.81 182.21 421.007 177.917 420.811 177.848C420.615 177.78 419.08 181.971 417.392 187.207L416.238 190.909C415.974 191.498 415.912 192.164 416.064 192.795C416.14 192.958 416.25 193.101 416.385 193.215C416.521 193.329 416.679 193.41 416.848 193.453C417.101 193.515 417.361 193.542 417.621 193.533C418.605 193.633 419.597 193.595 420.572 193.419Z" fill="#263238"/>
<path d="M420.158 215.543C426.264 215.396 432.209 213.481 437.331 210.012C437.331 210.012 433.324 219.552 420.3 218.814L420.158 215.543Z" fill="#EB996E"/>
<path d="M421.497 197.883C421.824 197.426 422.255 197.061 422.752 196.823C423.248 196.585 423.794 196.481 424.339 196.52C424.734 196.542 425.121 196.647 425.477 196.829C425.832 197.01 426.149 197.264 426.408 197.576C426.66 197.876 426.816 198.249 426.857 198.646C426.898 199.042 426.821 199.442 426.637 199.791C426.361 200.136 425.994 200.388 425.581 200.515C425.168 200.642 424.729 200.639 424.317 200.506C423.46 200.236 422.664 199.788 421.976 199.189C421.77 199.044 421.59 198.863 421.443 198.655C421.376 198.553 421.34 198.432 421.34 198.308C421.34 198.185 421.376 198.064 421.443 197.962" fill="#EB996E"/>
<path d="M425.886 194.496C425.592 194.496 425.658 196.518 424.057 198.017C422.456 199.516 420.376 199.391 420.365 199.664C420.355 199.936 420.845 200.05 421.716 200.039C422.854 200.003 423.944 199.553 424.797 198.767C425.613 198.011 426.12 196.959 426.213 195.825C426.246 194.973 426.017 194.485 425.886 194.496Z" fill="#263238"/>
<path d="M426.038 173.691C426.234 174.191 428.009 173.884 430.121 174.055C432.234 174.225 433.943 174.77 434.205 174.305C434.324 174.078 434.009 173.612 433.312 173.169C432.376 172.595 431.324 172.26 430.241 172.192C429.163 172.098 428.08 172.278 427.083 172.715C426.332 173.067 425.951 173.453 426.038 173.691Z" fill="#263238"/>
<path d="M409.17 171.51C409.496 171.919 410.716 171.431 412.197 171.351C413.678 171.272 414.941 171.521 415.213 171.067C415.333 170.851 415.115 170.431 414.56 170.045C413.805 169.589 412.937 169.38 412.067 169.445C411.197 169.51 410.366 169.846 409.681 170.408C409.17 170.863 409.017 171.306 409.17 171.51Z" fill="#263238"/>
<path d="M454.427 161.71C452.62 156.156 445.324 150.068 438.452 147.331C436.514 146.579 434.432 146.318 432.378 146.569C430.324 146.82 428.357 147.575 426.637 148.774L417.926 154.793C418.379 157.011 419.396 159.06 420.872 160.725C422.348 162.39 424.226 163.609 426.311 164.254C428.489 164.912 431.2 165.049 432.55 167.013C433.901 168.978 433.204 171.977 434.5 174.044C436.285 176.906 441.033 176.667 442.383 179.722C442.982 181.085 442.71 182.721 443.331 184.072C444.148 185.867 448.59 188.07 450.398 187.479C452.206 186.889 452.14 183.606 452.707 181.903C453.416 179.981 453.469 177.864 452.859 175.906C451.977 172.067 455.636 165.378 454.427 161.71Z" fill="#263238"/>
<path d="M445.051 189.149C445.051 188.138 446.042 185.742 446.989 185.526C449.526 185.015 454.122 185.038 454.416 191.784C454.819 200.995 445.857 199.518 445.835 199.257C445.813 198.996 445.171 192.624 445.051 189.149Z" fill="#FFBE9D"/>
<path d="M448.383 195.635C448.383 195.635 448.536 195.737 448.808 195.85C449.178 196.009 449.593 196.009 449.962 195.85C450.877 195.453 451.596 193.874 451.563 192.205C451.553 191.415 451.37 190.638 451.03 189.933C450.929 189.657 450.768 189.41 450.557 189.212C450.347 189.015 450.095 188.873 449.821 188.797C449.641 188.756 449.452 188.783 449.289 188.872C449.126 188.961 448.998 189.108 448.928 189.286C448.83 189.547 448.928 189.729 448.841 189.74C448.754 189.751 448.645 189.604 448.699 189.218C448.741 188.985 448.856 188.773 449.026 188.616C449.262 188.417 449.562 188.32 449.864 188.343C450.229 188.403 450.573 188.558 450.865 188.794C451.156 189.031 451.385 189.341 451.53 189.695C451.945 190.474 452.17 191.348 452.184 192.239C452.184 194.101 451.367 195.884 450.104 196.327C449.87 196.408 449.621 196.434 449.377 196.402C449.132 196.371 448.897 196.283 448.688 196.146C448.405 195.862 448.351 195.657 448.383 195.635Z" fill="#EB996E"/>
<path d="M387.86 258.688L372.233 301.198L342.832 303.151L338.291 316.473L377.101 324.321C377.101 324.321 388.774 327.865 395.428 312.407L406.807 270.124L387.86 258.688Z" fill="#FFBE9D"/>
<path d="M314.923 309.795C315.092 310.156 315.361 310.457 315.694 310.659C316.027 310.861 316.411 310.956 316.796 310.931C316.959 310.917 317.12 310.883 317.275 310.828C318.364 310.454 318.288 308.091 318.288 308.091L323.612 307.183C323.612 307.183 330.538 311.839 333.01 314.928C335.482 318.018 341.722 315.519 341.722 315.519L343.899 303.673L334.099 294.429C334.099 294.429 334.709 294.974 334.023 293.293C333.337 291.612 330.266 292.214 330.266 292.214C329.787 291.362 327.772 291.078 327.772 291.078L319.18 292.112C318.297 292.209 317.446 292.514 316.691 293.004C315.937 293.494 315.299 294.156 314.825 294.94L311.188 300.936C311.188 300.936 309.26 305.263 309.576 306.274C309.721 306.684 310.005 307.026 310.373 307.235C310.742 307.444 311.17 307.506 311.58 307.41C311.58 307.41 312.004 310.249 312.669 310.351C313.42 310.316 314.158 310.135 314.846 309.818L314.923 309.795Z" fill="#FFBE9D"/>
<path d="M331.125 313.021C330.942 312.902 330.77 312.765 330.613 312.612L329.176 311.408C327.367 309.943 325.48 308.585 323.524 307.342H323.644L318.319 308.285L318.504 308.046C318.52 308.503 318.487 308.96 318.406 309.409C318.336 309.906 318.123 310.369 317.796 310.738C317.598 310.923 317.352 311.042 317.088 311.078C316.844 311.136 316.592 311.136 316.348 311.078C315.832 310.999 315.36 310.729 315.019 310.318C314.933 310.215 314.857 310.105 314.791 309.988L314.736 309.897C314.671 309.897 315.324 310.124 315.052 310.011L314.878 310.079C314.66 310.17 314.431 310.261 314.192 310.34C313.952 310.415 313.708 310.476 313.462 310.522C313.332 310.534 313.2 310.534 313.07 310.522C312.902 310.541 312.732 310.51 312.58 310.431C312.34 310.243 312.159 309.987 312.057 309.693C311.952 309.445 311.861 309.191 311.785 308.932C311.644 308.413 311.532 307.886 311.447 307.353L311.763 307.58C311.401 307.663 311.024 307.642 310.673 307.518C310.322 307.393 310.01 307.172 309.771 306.876C309.525 306.554 309.397 306.152 309.411 305.741C309.432 305.378 309.494 305.02 309.596 304.673C309.995 303.306 310.486 301.97 311.066 300.675C311.676 299.653 312.34 298.574 313.005 297.472C313.418 296.791 313.821 296.11 314.235 295.439C314.614 294.737 315.063 294.078 315.575 293.475C316.129 292.899 316.788 292.443 317.513 292.135C318.212 291.864 318.946 291.704 319.691 291.658L327.803 290.715H327.869C328.351 290.797 328.825 290.926 329.284 291.101C329.781 291.257 330.216 291.576 330.526 292.01L330.221 291.907C330.66 291.699 331.141 291.604 331.623 291.632C332.104 291.659 332.572 291.809 332.987 292.066C333.705 292.614 334.195 293.426 334.359 294.338L334.294 294.224L341.045 300.562L342.864 302.311C343.085 302.503 343.289 302.716 343.473 302.947C343.227 302.791 342.997 302.608 342.787 302.402L340.893 300.743L334 294.588V294.52C333.851 293.725 333.419 293.019 332.791 292.543C332.439 292.33 332.044 292.21 331.638 292.192C331.232 292.174 330.828 292.26 330.46 292.441L330.275 292.521L330.166 292.339C329.904 292.014 329.556 291.777 329.165 291.658C328.733 291.498 328.288 291.38 327.836 291.305H327.901L319.8 292.305C319.096 292.346 318.403 292.495 317.742 292.748C317.089 293.028 316.497 293.442 315.999 293.963C315.514 294.541 315.087 295.169 314.725 295.837L313.495 297.87L311.556 301.073C310.993 302.339 310.512 303.645 310.119 304.98C310.026 305.286 309.968 305.602 309.945 305.922C309.936 306.199 310.025 306.47 310.195 306.683C310.372 306.898 310.6 307.058 310.857 307.148C311.114 307.238 311.39 307.254 311.654 307.194H311.916V307.467C311.995 307.973 312.104 308.474 312.242 308.966C312.321 309.412 312.513 309.828 312.798 310.17C312.869 310.189 312.944 310.189 313.016 310.17H313.342C313.567 310.129 313.789 310.072 314.007 310L314.66 309.761L314.823 309.704L315.139 309.829V309.909C315.191 310.003 315.253 310.091 315.324 310.17C315.585 310.492 315.948 310.706 316.348 310.772C316.542 310.811 316.742 310.811 316.936 310.772C317.113 310.755 317.281 310.679 317.415 310.556C317.863 309.896 318.072 309.091 318.003 308.285V308.08H318.188L323.524 307.217H323.589H323.644C325.595 308.493 327.461 309.904 329.23 311.442C329.851 311.987 330.319 312.419 330.613 312.725C330.792 312.807 330.963 312.906 331.125 313.021Z" fill="#EB996E"/>
<path d="M328.839 295.338C327.961 295.749 327.035 296.036 326.084 296.189C323.749 296.688 321.363 296.867 318.984 296.723L319.267 296.53C319.125 296.973 318.973 297.439 318.788 297.893C317.78 300.515 316.302 302.913 314.432 304.957C313.867 305.567 313.263 306.136 312.624 306.661C312.156 307.024 311.895 307.206 311.862 307.172C311.829 307.138 312.799 306.263 314.138 304.673C315.88 302.597 317.279 300.233 318.276 297.677C318.45 297.223 318.603 296.769 318.744 296.348L318.82 296.133H319.027C321.366 296.28 323.714 296.165 326.029 295.792C327.772 295.531 328.817 295.247 328.839 295.338Z" fill="#EB996E"/>
<path d="M320.705 300.564C320.383 302.401 319.635 304.128 318.527 305.595C317.593 307.18 316.289 308.493 314.737 309.411C314.628 309.275 316.436 307.707 318.069 305.254C319.703 302.801 320.519 300.507 320.705 300.564Z" fill="#EB996E"/>
<path d="M343.453 311.922C343.453 311.922 343.366 311.991 343.181 312.081C342.907 312.219 342.623 312.333 342.331 312.422C341.237 312.779 340.088 312.917 338.945 312.831C337.185 312.709 335.494 312.071 334.066 310.991C332.249 309.596 330.949 307.591 330.385 305.312L330.701 305.528C328.652 305.931 326.56 306.034 324.483 305.835C323.712 305.756 322.945 305.635 322.186 305.471C321.426 305.346 320.69 305.092 320.008 304.722C319.629 304.509 319.336 304.163 319.18 303.745C319.118 303.529 319.099 303.301 319.123 303.077C319.148 302.853 319.215 302.636 319.322 302.439C319.535 302.056 319.883 301.775 320.291 301.655L321.282 301.406C323.895 300.747 326.28 300.27 328.284 299.94C330.287 299.611 331.921 299.418 333.053 299.316C333.638 299.235 334.228 299.204 334.817 299.225C334.25 299.383 333.671 299.49 333.086 299.543C331.997 299.713 330.342 299.975 328.349 300.349C326.356 300.724 323.993 301.247 321.412 301.928L320.432 302.201C320.297 302.235 320.171 302.3 320.062 302.39C319.953 302.48 319.864 302.594 319.801 302.723C319.729 302.848 319.683 302.988 319.667 303.132C319.65 303.277 319.662 303.424 319.703 303.563C319.816 303.854 320.03 304.089 320.302 304.222C320.935 304.556 321.615 304.783 322.316 304.892C323.058 305.051 323.806 305.168 324.56 305.244C326.584 305.439 328.625 305.344 330.625 304.96H330.875L330.941 305.222C331.405 307.15 332.428 308.882 333.87 310.183C335.312 311.483 337.103 312.289 338.999 312.49C340.093 312.597 341.197 312.517 342.266 312.252C342.655 312.119 343.052 312.009 343.453 311.922Z" fill="#EB996E"/>
<path d="M333.358 463.947C333.285 463.615 333.285 463.269 333.358 462.937C333.504 462.011 333.838 461.128 334.338 460.347C334.504 460.077 334.701 459.829 334.926 459.609C335.068 459.467 335.244 459.368 335.436 459.322C335.627 459.276 335.827 459.285 336.015 459.348C336.128 459.39 336.23 459.457 336.315 459.546C336.4 459.634 336.465 459.741 336.505 459.859C336.574 460.084 336.574 460.326 336.505 460.552C336.356 460.908 336.185 461.253 335.993 461.585C335.612 462.255 335.296 462.925 334.806 463.675C334.66 463.889 334.462 464.059 334.232 464.167C334.003 464.275 333.75 464.316 333.499 464.288C333.039 464.206 332.605 464.007 332.236 463.709C331.55 463.193 330.925 462.594 330.374 461.926C330.113 461.597 329.873 461.267 329.644 460.926C329.39 460.591 329.205 460.204 329.1 459.791C329.048 459.548 329.075 459.294 329.175 459.068C329.276 458.843 329.444 458.657 329.655 458.541C329.858 458.482 330.073 458.476 330.278 458.526C330.484 458.575 330.674 458.678 330.831 458.825C331.302 459.258 331.719 459.75 332.073 460.29C332.588 461.042 332.995 461.869 333.281 462.744C333.418 463.054 333.492 463.39 333.499 463.732C333.011 462.611 332.42 461.543 331.735 460.54C331.389 460.059 330.99 459.621 330.548 459.234C330.455 459.147 330.343 459.084 330.222 459.051C330.101 459.017 329.974 459.014 329.851 459.041C329.748 459.103 329.669 459.2 329.627 459.316C329.586 459.432 329.584 459.56 329.623 459.677C329.722 460.014 329.885 460.327 330.102 460.597C330.322 460.92 330.558 461.231 330.809 461.528C331.334 462.157 331.926 462.721 332.574 463.209C332.858 463.457 333.2 463.622 333.564 463.686C333.717 463.707 333.873 463.683 334.013 463.617C334.154 463.551 334.274 463.445 334.359 463.311C334.762 462.698 335.154 461.937 335.525 461.301C335.714 461.01 335.878 460.702 336.015 460.381C336.113 460.086 336.015 459.904 335.862 459.813C335.427 459.632 334.991 460.154 334.686 460.597C334.05 461.62 333.6 462.755 333.358 463.947Z" fill="#263238"/>
<path d="M358.6 464.858L371.133 493.183L391.355 483.439L378.386 448.379L358.6 464.858Z" fill="#FFBE9D"/>
<path d="M368.759 491.288L376.076 505.836C376.076 505.836 357.335 526.052 359.1 530.573L403.158 508.539L391.049 479.34L368.759 491.288Z" fill="#455A64"/>
<path d="M388.795 497.044C389.273 496.98 389.758 497.099 390.158 497.378C390.558 497.658 390.848 498.08 390.973 498.565C391.053 499.062 390.951 499.572 390.687 499.993C390.422 500.414 390.015 500.715 389.547 500.837C389.031 500.919 388.505 500.798 388.071 500.498C387.636 500.197 387.324 499.74 387.195 499.213C387.145 498.672 387.299 498.133 387.625 497.709C387.95 497.285 388.42 497.01 388.937 496.941" fill="#E0E0E0"/>
<g opacity="0.6">
<path d="M403.159 508.547L401.286 504.879L359.764 527.412C359.764 527.412 358.218 529.286 359.1 530.615L403.159 508.547Z" fill="white"/>
</g>
<path d="M375.259 505.97C375.368 506.198 376.49 505.755 377.883 505.97C379.277 506.186 380.268 506.822 380.432 506.641C380.595 506.459 379.669 505.312 377.981 505.107C376.294 504.903 375.15 505.834 375.259 505.97Z" fill="#263238"/>
<path d="M371.558 510.276C371.558 510.515 372.712 510.435 373.877 511.015C375.043 511.594 375.718 512.502 375.925 512.389C376.132 512.275 375.696 510.935 374.226 510.231C372.756 509.527 371.46 510.061 371.558 510.276Z" fill="#263238"/>
<path d="M371.58 517.361C371.798 517.361 371.58 516.032 370.491 515.09C369.402 514.147 368.139 514.159 368.139 514.386C368.139 514.613 369.053 514.965 369.957 515.76C370.861 516.555 371.362 517.441 371.58 517.361Z" fill="#263238"/>
<path d="M373.159 500.362C373.344 500.521 374.193 499.726 375.445 499.226C376.698 498.726 377.83 498.624 377.852 498.374C377.874 498.124 376.6 497.784 375.13 498.374C373.659 498.965 372.973 500.237 373.159 500.362Z" fill="#263238"/>
<path d="M364.632 487.504L331.594 401.348C331.594 401.348 332.334 386.583 334.926 381.984C337.518 377.384 416.227 350.24 416.227 350.24C416.227 350.24 436.274 345.209 449.635 350.24C462.997 355.271 476.99 360.337 475.498 370.081C473.298 384.312 461.472 399.076 461.472 399.076L403.606 400.871L372.026 412.864L393.261 476.351L364.632 487.504Z" fill="#263238"/>
<path d="M335.252 428.593L334.512 459.78L356.781 460.348L359.982 422.914L335.252 428.593Z" fill="#FFBE9D"/>
<path d="M333.183 456.997L333.586 473.442C333.586 473.442 308.213 482.948 307.887 487.809L356.737 488.32L358.24 456.52L333.183 456.997Z" fill="#455A64"/>
<path d="M348.712 471.377C349.182 471.532 349.581 471.862 349.832 472.304C350.083 472.746 350.169 473.269 350.074 473.773C349.938 474.261 349.63 474.677 349.211 474.937C348.793 475.196 348.295 475.28 347.82 475.17C347.321 475.007 346.899 474.656 346.635 474.186C346.371 473.715 346.285 473.159 346.393 472.626C346.581 472.127 346.947 471.724 347.413 471.499C347.88 471.275 348.412 471.247 348.898 471.422" fill="#E0E0E0"/>
<g opacity="0.6">
<path d="M356.737 488.31L356.65 484.188L309.825 485.232C309.825 485.232 307.648 486.198 307.876 487.799L356.737 488.31Z" fill="white"/>
</g>
<path d="M332.802 473.161C332.802 473.411 334 473.536 335.165 474.297C336.33 475.058 336.94 476.171 337.169 476.069C337.398 475.967 337.038 474.536 335.612 473.582C334.185 472.628 332.748 472.9 332.802 473.161Z" fill="#263238"/>
<path d="M327.651 475.319C327.596 475.558 328.62 475.989 329.426 477.057C330.231 478.124 330.449 479.226 330.689 479.226C330.928 479.226 331.092 477.806 330.068 476.512C329.044 475.217 327.661 475.081 327.651 475.319Z" fill="#263238"/>
<path d="M324.678 481.676C324.895 481.676 325.244 480.541 324.678 479.132C324.111 477.724 322.968 477.202 322.859 477.406C322.75 477.61 323.436 478.349 323.948 479.484C324.46 480.62 324.438 481.654 324.678 481.676Z" fill="#263238"/>
<path d="M333.292 467.221C333.39 467.448 334.479 467.108 335.829 467.221C337.18 467.335 338.225 467.789 338.356 467.573C338.486 467.357 337.474 466.437 335.884 466.358C334.294 466.278 333.172 466.96 333.292 467.221Z" fill="#263238"/>
<path d="M348.254 342.006C348.254 342.006 334.914 340.87 333.433 355.998C331.952 371.126 330.504 441.552 330.504 441.552L361.691 444.255L366.515 372.25L416.226 350.24C416.226 350.24 357.161 340.075 348.254 342.006Z" fill="#263238"/>
<path d="M403.246 321.633C403.246 321.633 395.156 345.313 396.713 347.948C398.27 350.583 419.08 361.451 419.08 361.451L471.186 382.315C471.186 382.315 476.532 373.445 476.532 359.805C476.532 346.165 458.412 321.633 458.412 321.633H403.246Z" fill="#263238"/>
<path d="M418.709 348.98L418.459 349.117L417.718 349.48L414.833 350.809L404.008 355.738L366.614 372.524L366.777 372.274C366.309 379.384 365.797 387.039 365.264 394.989C364.001 413.569 362.835 430.696 361.91 444.257V444.495H361.681L338.966 442.417L332.715 441.815L331.071 441.633C330.885 441.618 330.699 441.591 330.516 441.554C330.704 441.536 330.893 441.536 331.082 441.554L332.726 441.656L338.988 442.133L361.714 444.007L361.463 444.234C362.356 430.673 363.489 413.569 364.73 394.966C365.264 387.016 365.819 379.338 366.266 372.252V372.081L366.429 372.013L403.9 355.42L414.789 350.65L417.718 349.401L418.47 349.094C418.544 349.045 418.625 349.006 418.709 348.98Z" fill="#455A64"/>
<path d="M460.088 351.377C459.59 351.284 459.102 351.144 458.629 350.957L454.698 349.64C450.437 348.126 446.067 346.968 441.631 346.176C437.172 345.415 432.62 345.476 428.182 346.358C426.363 346.8 424.567 347.342 422.803 347.982C423.223 347.687 423.677 347.447 424.153 347.266C425.429 346.709 426.748 346.265 428.095 345.937C432.573 344.915 437.196 344.791 441.718 345.574C446.206 346.362 450.614 347.586 454.883 349.231C456.527 349.833 457.845 350.367 458.76 350.73C459.223 350.896 459.669 351.113 460.088 351.377Z" fill="#455A64"/>
<path d="M452.772 338.884C451.253 338.784 449.729 338.784 448.21 338.884C446.805 338.986 445.139 339.213 443.277 339.44C441.415 339.667 439.389 339.929 437.277 340.349C433.657 340.951 430.187 342.291 427.063 344.29C425.821 345.199 424.639 346.193 423.523 347.266C423.728 346.888 423.985 346.544 424.286 346.243C425.054 345.393 425.908 344.631 426.834 343.972C429.953 341.824 433.476 340.395 437.168 339.781C439.346 339.361 441.36 339.111 443.222 338.918C445.085 338.725 446.762 338.543 448.188 338.486C449.316 338.437 450.445 338.491 451.564 338.645C451.977 338.653 452.385 338.734 452.772 338.884Z" fill="#455A64"/>
<path d="M383.961 254.317C383.961 254.317 393.271 238.11 395.863 234.828C397.94 232.297 400.549 230.299 403.486 228.99C404.646 228.461 405.864 228.08 407.112 227.854L420.517 224.765C420.517 224.765 420.517 234.305 430.132 234.896C439.748 235.487 447.784 221.562 447.784 221.562C447.784 221.562 463.269 224.061 466.971 226.049C470.674 228.036 476.499 230.592 479.712 247.287L481.955 263.664L455.265 266.197L452.706 307.583L439.464 317.304C439.464 317.304 402.756 327.253 400.415 327.912C398.074 328.571 397.29 266.197 397.29 266.197C397.29 266.197 387.859 259.893 383.961 254.317Z" fill="black"/>
<path d="M401.526 247.355C401.318 247.735 401.147 248.134 401.014 248.548C400.709 249.332 400.317 250.479 399.925 251.955C397.679 259.474 396.753 267.353 397.192 275.215C397.279 276.725 397.388 277.941 397.508 278.77C397.538 279.204 397.611 279.634 397.726 280.053C397.778 279.619 397.778 279.181 397.726 278.747C397.671 277.907 397.617 276.703 397.584 275.204C397.357 267.393 398.272 259.592 400.295 252.069C400.677 250.626 401.014 249.468 401.254 248.662C401.4 248.241 401.492 247.802 401.526 247.355Z" fill="#263238"/>
<path d="M456.234 246.367C456.285 246.79 456.285 247.217 456.234 247.639C456.234 248.571 456.157 249.718 456.103 251.046C455.972 254.079 455.787 258.02 455.591 262.404C455.395 266.788 455.177 270.831 454.96 273.761C454.862 275.203 454.764 276.373 454.676 277.168C454.663 277.591 454.601 278.01 454.491 278.417C454.435 277.999 454.435 277.575 454.491 277.157C454.491 276.214 454.557 275.067 454.6 273.75C454.72 270.706 454.883 266.776 455.058 262.392C455.232 258.008 455.504 253.965 455.733 251.035C455.853 249.581 455.961 248.411 456.049 247.628C456.064 247.202 456.126 246.779 456.234 246.367Z" fill="#263238"/>
<path d="M402.668 315.135L452.945 303.778L455.264 266.299L477.62 264.152C477.62 264.152 476.052 289.718 475.932 297.384C475.606 319.485 468.484 323.29 464.858 326.277C461.232 329.264 400.414 327.912 400.414 327.912L402.668 315.135Z" fill="#FFBE9D"/>
<path d="M374.127 321.928C374.296 322.289 374.565 322.59 374.898 322.792C375.231 322.994 375.615 323.089 376 323.063C376.166 323.042 376.33 323.004 376.49 322.95C377.579 322.586 377.503 320.224 377.503 320.224L382.827 319.316C382.827 319.316 389.753 323.972 392.214 327.061C394.675 330.15 400.926 327.652 400.926 327.652L403.104 315.806L393.303 306.561C393.303 306.561 393.902 307.107 393.227 305.426C392.552 303.745 389.47 304.347 389.47 304.347C388.991 303.495 386.976 303.211 386.976 303.211L378.374 304.244C377.491 304.341 376.641 304.645 375.887 305.133C375.132 305.621 374.494 306.28 374.018 307.061L370.381 313.069C370.381 313.069 368.464 317.396 368.769 318.396C368.913 318.807 369.196 319.15 369.565 319.359C369.934 319.569 370.364 319.63 370.773 319.531C370.773 319.531 371.198 322.382 371.916 322.473C372.65 322.438 373.371 322.257 374.04 321.939L374.127 321.928Z" fill="#FFBE9D"/>
<path d="M392.444 313.421C392.444 313.523 391.29 313.421 389.45 313.489C387.059 313.608 384.695 314.071 382.426 314.863C381.182 315.3 379.973 315.839 378.811 316.476C377.776 317.089 376.687 317.612 376.35 318.373C376.278 318.547 376.25 318.737 376.267 318.925C376.284 319.114 376.346 319.295 376.448 319.452C376.606 319.705 376.833 319.903 377.101 320.02C377.344 320.1 377.598 320.138 377.852 320.133C377.852 320.133 377.58 320.383 377.025 320.224C376.695 320.125 376.405 319.918 376.197 319.633C376.051 319.436 375.955 319.204 375.919 318.957C375.882 318.711 375.907 318.459 375.99 318.225C376.226 317.702 376.605 317.263 377.079 316.965C377.547 316.647 378.037 316.317 378.582 316.01C381.915 314.089 385.663 313.084 389.471 313.092C390.473 313.047 391.474 313.158 392.444 313.421Z" fill="#EB996E"/>
<path d="M393.042 319.143C393.042 319.313 389.536 319.143 385.234 319.427C380.933 319.711 377.47 320.233 377.438 320.063C378.159 319.775 378.913 319.584 379.681 319.495C381.509 319.177 383.352 318.961 385.202 318.847C387.051 318.738 388.906 318.738 390.755 318.847C391.527 318.839 392.296 318.938 393.042 319.143Z" fill="#EB996E"/>
<path d="M374.182 321.699C374.107 321.387 374.07 321.066 374.073 320.745C374.017 319.871 374.017 318.995 374.073 318.121C374.1 317.509 374.18 316.901 374.313 316.304C374.466 315.602 374.751 314.938 375.151 314.351C376.013 313 377.123 311.842 378.418 310.943C379.688 310.027 381.073 309.297 382.534 308.774C383.743 308.416 384.991 308.222 386.247 308.195C387.336 308.195 388.175 308.195 388.763 308.195C389.071 308.18 389.379 308.214 389.678 308.297C388.548 308.468 387.41 308.567 386.269 308.592C385.054 308.682 383.852 308.914 382.686 309.285C381.284 309.81 379.954 310.528 378.734 311.42C377.502 312.293 376.441 313.404 375.608 314.691C374.943 315.734 374.566 316.949 374.519 318.201C374.247 320.325 374.302 321.71 374.182 321.699Z" fill="#EB996E"/>
<path d="M386.606 305.425C386.606 305.516 385.322 305.55 383.263 305.8C381.205 306.05 378.113 306.266 376.316 309.105C374.561 311.232 373.095 313.602 371.96 316.147C371.587 317.253 371.313 318.394 371.144 319.554C371.09 319.238 371.09 318.915 371.144 318.6C371.19 317.731 371.359 316.874 371.644 316.056C372.682 313.412 374.123 310.961 375.913 308.798C376.399 308.14 376.962 307.549 377.59 307.038C378.201 306.578 378.887 306.239 379.615 306.039C380.809 305.713 382.031 305.511 383.263 305.437C384.373 305.285 385.496 305.282 386.606 305.425Z" fill="#EB996E"/>
<path d="M390.396 325.165C390.213 325.047 390.042 324.91 389.884 324.756L388.436 323.552C386.629 322.084 384.742 320.727 382.784 319.486H382.915L377.59 320.44L377.775 320.202C377.788 320.655 377.751 321.109 377.666 321.553C377.603 322.054 377.394 322.521 377.067 322.894C376.868 323.077 376.622 323.195 376.36 323.234C376.112 323.286 375.856 323.286 375.608 323.234C375.096 323.152 374.629 322.882 374.291 322.473C374.205 322.369 374.125 322.259 374.051 322.144V322.053L374.367 322.167L374.193 322.235C373.964 322.326 373.735 322.417 373.507 322.485C373.268 322.566 373.024 322.631 372.777 322.678C372.647 322.689 372.515 322.689 372.385 322.678C372.212 322.698 372.037 322.662 371.884 322.576C371.652 322.386 371.471 322.135 371.361 321.849C371.263 321.588 371.176 321.338 371.1 321.076C370.959 320.561 370.847 320.038 370.762 319.509L371.067 319.736C370.707 319.818 370.332 319.796 369.982 319.672C369.633 319.548 369.323 319.327 369.085 319.032C368.838 318.711 368.706 318.309 368.715 317.896C368.746 317.531 368.812 317.169 368.911 316.817C369.303 315.452 369.795 314.119 370.381 312.831L372.32 309.628L373.55 307.595C373.929 306.891 374.382 306.232 374.9 305.631C375.45 305.053 376.106 304.598 376.828 304.29C377.528 304.022 378.262 303.862 379.006 303.813L387.108 302.859H387.173C387.66 302.934 388.139 303.064 388.599 303.246C389.092 303.398 389.524 303.713 389.83 304.143L389.536 304.052C389.974 303.84 390.456 303.744 390.938 303.772C391.42 303.8 391.888 303.95 392.302 304.211C393.018 304.758 393.505 305.571 393.663 306.482L393.598 306.369L400.197 312.763L402.015 314.512C402.236 314.705 402.44 314.918 402.625 315.148C402.379 314.992 402.149 314.809 401.939 314.603L400.044 312.933C398.367 311.434 396.037 309.322 393.173 306.744V306.664C393.02 305.874 392.589 305.173 391.964 304.699C391.613 304.487 391.218 304.366 390.812 304.347C390.407 304.327 390.003 304.409 389.634 304.586L389.449 304.677L389.34 304.495C389.078 304.169 388.73 303.931 388.338 303.813C387.906 303.656 387.461 303.538 387.01 303.461H387.075L378.962 304.461C378.262 304.496 377.571 304.646 376.915 304.904C376.261 305.18 375.668 305.594 375.173 306.119C374.678 306.689 374.251 307.318 373.899 307.993C373.485 308.663 373.082 309.344 372.668 310.026C372.004 311.162 371.34 312.206 370.73 313.229C370.162 314.491 369.678 315.793 369.282 317.124C369.195 317.436 369.137 317.755 369.107 318.078C369.102 318.357 369.195 318.627 369.369 318.839C369.543 319.054 369.769 319.215 370.025 319.305C370.28 319.395 370.554 319.41 370.817 319.35H371.089V319.623C371.167 320.128 371.273 320.629 371.405 321.122C371.498 321.563 371.688 321.975 371.96 322.326C372.033 322.337 372.106 322.337 372.178 322.326H372.505C372.733 322.326 372.951 322.224 373.18 322.155L373.833 321.917L373.986 321.849C373.714 321.735 374.378 321.996 374.312 321.962V322.03C374.364 322.122 374.422 322.209 374.487 322.292C374.752 322.616 375.118 322.833 375.521 322.905C375.712 322.944 375.908 322.944 376.098 322.905C376.278 322.885 376.449 322.81 376.588 322.689C377.03 322.026 377.238 321.223 377.176 320.418V320.213H377.351L382.686 319.35H382.752H382.806C384.762 320.624 386.632 322.035 388.403 323.575C389.024 324.12 389.492 324.552 389.786 324.858C389.999 324.938 390.204 325.041 390.396 325.165Z" fill="#EB996E"/>
<path d="M437.962 341.324H429.512V343.266L448.024 531.604H457.9L437.962 341.324Z" fill="#455A64"/>
<path d="M437.962 341.324C437.962 341.324 437.962 341.665 438.049 342.312C438.137 342.96 438.213 343.936 438.333 345.197C438.583 347.73 438.964 351.444 439.421 356.225C440.402 365.799 441.828 379.655 443.592 396.827C447.153 431.126 452.086 478.668 457.596 531.638L457.879 531.309H448.002L448.285 531.57C439.574 442.927 432.115 367.923 429.577 343.266C429.577 342.369 429.577 341.835 429.577 341.324L429.501 341.404H435.882H437.44H437.951H437.461H435.926L429.501 341.347H429.414V343.38C431.723 368.071 439.019 443.085 447.73 531.729V532.002H458.173V531.672C452.576 478.634 447.556 431.035 443.93 396.68C442.089 379.553 440.663 365.731 439.574 356.168C439.062 351.409 438.659 347.73 438.387 345.208C438.245 343.97 438.137 343.028 438.071 342.369C438.006 341.71 437.962 341.324 437.962 341.324Z" fill="#263238"/>
<path d="M288.526 341.324H280.064V343.312L297.694 531.559H306.373L288.526 341.324Z" fill="#263238"/>
<path d="M473.298 343.266L171.824 343.607L171.715 335.305H473.298V343.266Z" fill="#455A64"/>
<path d="M214.227 341.324H222.688V343.312L205.069 531.559H196.379L214.227 341.324Z" fill="#455A64"/>
<path d="M213.846 343.789C213.846 343.789 213.846 344.118 213.78 344.766C213.715 345.413 213.639 346.356 213.53 347.594C213.301 350.092 212.974 353.749 212.539 358.463C211.679 367.901 210.415 381.563 208.858 398.486C205.711 432.296 201.355 479.122 196.499 531.366L196.259 531.093H204.971L204.731 531.309C212.964 444.153 219.976 370.32 222.263 345.799V343.8L222.328 343.869H215.947H214.368H215.915H222.328H222.394V343.937C222.394 344.459 222.394 345.004 222.394 345.936C220.118 370.467 213.279 444.312 205.188 531.491V531.707H196.02V531.434C200.952 479.191 205.384 432.285 208.586 398.429C210.198 381.541 211.504 367.901 212.408 358.485C212.866 353.795 213.214 350.149 213.497 347.673C213.617 346.447 213.715 345.515 213.78 344.879L213.846 343.789Z" fill="#263238"/>
<path d="M336.397 342.039H327.936V344.038L345.566 531.558H354.255L336.397 342.039Z" fill="#455A64"/>
<path d="M336.777 344.562C336.777 344.562 336.777 344.892 336.853 345.528C336.93 346.164 336.995 347.118 337.104 348.356C337.333 350.832 337.659 354.477 338.084 359.179C338.955 368.583 340.262 382.189 341.765 399.043C344.912 432.729 349.278 479.408 354.135 531.401L354.375 531.129H345.663L345.892 531.344C337.659 444.518 330.647 370.968 328.371 346.539V344.562H328.327H334.719H336.788H336.298H334.752H328.327H328.262V346.63C330.505 370.934 337.365 444.507 345.445 531.344V531.56H354.603V531.288C349.67 479.249 345.238 432.479 342.037 398.794C340.414 381.962 339.118 368.379 338.215 359.043C337.757 354.364 337.409 350.741 337.126 348.276C336.995 347.05 336.908 346.118 336.843 345.482C336.777 344.846 336.777 344.562 336.777 344.562Z" fill="#263238"/>
<path d="M472.176 343.323C472.176 343.164 411.392 343.039 336.429 343.039C261.466 343.039 200.67 343.164 200.67 343.323C200.67 343.482 261.444 343.607 336.429 343.607C411.413 343.607 472.176 343.482 472.176 343.323Z" fill="#263238"/>
<path d="M283.322 276.996L349.541 277.553C351.719 277.553 353.744 278.632 354.071 280.846L361.301 331.182H395.407C395.936 331.182 396.442 331.401 396.816 331.79C397.19 332.18 397.4 332.709 397.4 333.26C397.4 333.811 397.19 334.34 396.816 334.73C396.442 335.119 395.936 335.338 395.407 335.338H286.513L279.075 282.209C278.983 281.568 279.024 280.914 279.195 280.291C279.365 279.668 279.662 279.091 280.064 278.597C280.466 278.103 280.965 277.705 281.527 277.429C282.089 277.153 282.701 277.005 283.322 276.996Z" fill="#E0E0E0"/>
<path d="M283.321 276.996C282.955 276.972 282.588 277.007 282.232 277.098C281.216 277.347 280.32 277.967 279.705 278.847C279.252 279.493 278.97 280.254 278.889 281.05C278.865 282.003 278.946 282.956 279.128 283.89C279.411 285.923 279.727 288.274 280.087 290.897L286.228 335.361V335.543H286.402L392.095 335.611H394.938C395.455 335.66 395.976 335.558 396.44 335.315C396.912 335.038 397.275 334.595 397.464 334.066C397.647 333.539 397.644 332.96 397.454 332.436C397.264 331.911 396.901 331.474 396.429 331.204C395.971 330.955 395.452 330.852 394.938 330.909H361.18L361.442 331.136C358.828 313.112 356.4 296.292 354.222 281.164C354.159 280.151 353.717 279.205 352.991 278.529C352.271 277.905 351.394 277.511 350.465 277.393C349.579 277.301 348.687 277.271 347.797 277.302H345.195L335.22 277.234L317.503 277.121L292.392 276.984H283.909H285.64L292.392 277.087L317.612 277.382L335.329 277.564L345.303 277.654H347.906C348.775 277.627 349.644 277.658 350.509 277.745C351.359 277.869 352.158 278.239 352.817 278.813C353.139 279.112 353.401 279.475 353.588 279.88C353.775 280.286 353.883 280.726 353.906 281.175L361.05 331.147V331.374H394.97C395.395 331.324 395.825 331.399 396.212 331.59C396.482 331.745 396.707 331.973 396.864 332.249C397.021 332.526 397.104 332.842 397.104 333.163C397.104 333.485 397.021 333.8 396.864 334.077C396.707 334.354 396.482 334.581 396.212 334.736C395.827 334.932 395.396 335.011 394.97 334.963H392.128L286.435 335.031L286.642 335.213C283.985 316.519 281.829 301.323 280.326 290.772L279.313 283.776C279.129 282.857 279.038 281.921 279.041 280.982C279.137 280.059 279.501 279.189 280.085 278.488C280.669 277.788 281.445 277.291 282.308 277.064C282.644 277.021 282.982 276.998 283.321 276.996Z" fill="#263238"/>
<path d="M323.384 305.526C323.384 306.383 323.14 307.22 322.684 307.932C322.227 308.643 321.579 309.198 320.82 309.525C320.061 309.852 319.226 309.937 318.421 309.769C317.616 309.602 316.877 309.188 316.297 308.582C315.717 307.976 315.323 307.204 315.164 306.364C315.005 305.523 315.089 304.653 315.405 303.863C315.721 303.072 316.254 302.397 316.938 301.923C317.621 301.449 318.425 301.197 319.246 301.199C320.344 301.202 321.397 301.659 322.172 302.471C322.948 303.282 323.384 304.381 323.384 305.526Z" fill="white"/>
<path d="M358.621 334.875C358.523 334.875 356.443 322.064 353.906 306.243C351.369 290.423 349.452 277.577 349.55 277.555C349.648 277.532 351.728 290.354 354.266 306.186C356.803 322.018 358.709 334.852 358.621 334.875Z" fill="#263238"/>
</svg>
