<svg width="16" height="16" viewBox="0 0 16 16" fill="none" xmlns="http://www.w3.org/2000/svg">
<path d="M8.85917 12.3933L5.13917 8.66661C5.01501 8.5417 4.94531 8.37274 4.94531 8.19661C4.94531 8.02049 5.01501 7.85152 5.13917 7.72661L8.85917 3.99994C8.95242 3.90593 9.07156 3.84181 9.20139 3.81576C9.33122 3.78971 9.46587 3.80292 9.58816 3.8537C9.71046 3.90448 9.81486 3.99052 9.88806 4.10087C9.96126 4.21122 9.99994 4.34086 9.99917 4.47328V11.9199C9.99994 12.0524 9.96126 12.182 9.88806 12.2924C9.81486 12.4027 9.71046 12.4887 9.58816 12.5395C9.46587 12.5903 9.33122 12.6035 9.20139 12.5775C9.07156 12.5514 8.95242 12.4873 8.85917 12.3933Z" fill="#3F3F46"/>
</svg>
