<svg width="13" height="13" viewBox="0 0 13 13" fill="none" xmlns="http://www.w3.org/2000/svg">
<g clip-path="url(#clip0_1788_7308)">
<path d="M6.33936 2.65136C6.88382 2.65136 7.3252 2.20999 7.3252 1.66552C7.3252 1.12106 6.88382 0.679688 6.33936 0.679688C5.79489 0.679688 5.35352 1.12106 5.35352 1.66552C5.35352 2.20999 5.79489 2.65136 6.33936 2.65136Z" fill="#858D9D"/>
<path d="M6.33936 7.58106C6.88382 7.58106 7.3252 7.13968 7.3252 6.59522C7.3252 6.05075 6.88382 5.60938 6.33936 5.60938C5.79489 5.60938 5.35352 6.05075 5.35352 6.59522C5.35352 7.13968 5.79489 7.58106 6.33936 7.58106Z" fill="#858D9D"/>
<path d="M6.33936 12.5108C6.88382 12.5108 7.3252 12.0694 7.3252 11.5249C7.3252 10.9804 6.88382 10.5391 6.33936 10.5391C5.79489 10.5391 5.35352 10.9804 5.35352 11.5249C5.35352 12.0694 5.79489 12.5108 6.33936 12.5108Z" fill="#858D9D"/>
</g>
<defs>
<clipPath id="clip0_1788_7308">
<rect width="11.8299" height="11.8299" fill="white" transform="translate(0.423828 0.679688)"/>
</clipPath>
</defs>
</svg>
