<svg width="16" height="16" viewBox="0 0 16 16" fill="none" xmlns="http://www.w3.org/2000/svg">
<g clip-path="url(#clip0_2292_11948)">
<path d="M0.66659 3.16715H2.49041C2.85037 4.49158 4.21583 5.27344 5.54026 4.91348C6.39089 4.68228 7.05539 4.01779 7.28659 3.16715H15.3318C15.6999 3.16715 15.9984 2.86871 15.9984 2.50056C15.9984 2.13241 15.6999 1.83397 15.3318 1.83397H7.28659C6.92662 0.509511 5.56116 -0.272348 4.23673 0.0876158C3.3861 0.318812 2.7216 0.983308 2.49041 1.83394H0.66659C0.298439 1.83394 0 2.13238 0 2.50053C0 2.86868 0.298439 3.16715 0.66659 3.16715Z" fill="#71717A"/>
<path d="M15.3318 7.3346H13.508C13.1487 6.01036 11.784 5.22806 10.4598 5.58727C9.60845 5.81822 8.94339 6.48325 8.71244 7.3346H0.66659C0.298439 7.3346 0 7.63304 0 8.00119C0 8.36934 0.298439 8.66778 0.66659 8.66778H8.71244C9.07169 9.99202 10.4364 10.7743 11.7606 10.4151C12.612 10.1842 13.277 9.51913 13.508 8.66778H15.3318C15.6999 8.66778 15.9984 8.36934 15.9984 8.00119C15.9984 7.63304 15.6999 7.3346 15.3318 7.3346Z" fill="#71717A"/>
<path d="M15.3318 12.8339H7.28659C6.92662 11.5095 5.56116 10.7277 4.23673 11.0876C3.3861 11.3188 2.7216 11.9833 2.49041 12.8339H0.66659C0.298439 12.8339 0 13.1324 0 13.5005C0 13.8687 0.298439 14.1671 0.66659 14.1671H2.49041C2.85037 15.4915 4.21583 16.2734 5.54026 15.9134C6.39089 15.6822 7.05539 15.0177 7.28659 14.1671H15.3318C15.6999 14.1671 15.9984 13.8687 15.9984 13.5005C15.9984 13.1324 15.6999 12.8339 15.3318 12.8339Z" fill="#71717A"/>
</g>
<defs>
<clipPath id="clip0_2292_11948">
<rect width="16" height="16" fill="white"/>
</clipPath>
</defs>
</svg>
