<svg width="21" height="21" viewBox="0 0 21 21" fill="none" xmlns="http://www.w3.org/2000/svg">
<rect x="0.166016" y="0.5" width="20" height="20" rx="10" fill="white"/>
<path d="M18.3366 8.86824H17.6654V8.83366H10.1654V12.167H14.8749C14.1879 14.1074 12.3416 15.5003 10.1654 15.5003C7.40411 15.5003 5.16536 13.2616 5.16536 10.5003C5.16536 7.73908 7.40411 5.50033 10.1654 5.50033C11.4399 5.50033 12.5995 5.98116 13.4824 6.76658L15.8395 4.40949C14.3512 3.02241 12.3604 2.16699 10.1654 2.16699C5.56328 2.16699 1.83203 5.89824 1.83203 10.5003C1.83203 15.1024 5.56328 18.8337 10.1654 18.8337C14.7674 18.8337 18.4987 15.1024 18.4987 10.5003C18.4987 9.94158 18.4412 9.39616 18.3366 8.86824Z" fill="#FFC107"/>
<path d="M2.79297 6.62157L5.53089 8.62949C6.27172 6.79533 8.06589 5.50033 10.1655 5.50033C11.4401 5.50033 12.5996 5.98116 13.4826 6.76657L15.8396 4.40949C14.3513 3.02241 12.3605 2.16699 10.1655 2.16699C6.96464 2.16699 4.1888 3.97408 2.79297 6.62157Z" fill="#FF3D00"/>
<path d="M10.1668 18.8336C12.3193 18.8336 14.2751 18.0099 15.7539 16.6703L13.1747 14.4878C12.3099 15.1454 11.2532 15.5011 10.1668 15.5003C7.99929 15.5003 6.15888 14.1182 5.46555 12.1895L2.74805 14.2832C4.12721 16.982 6.92805 18.8336 10.1668 18.8336Z" fill="#4CAF50"/>
<path d="M18.3373 8.86759H17.666V8.83301H10.166V12.1663H14.8756C14.5469 13.0898 13.9549 13.8968 13.1727 14.4876L13.1739 14.4868L15.7531 16.6693C15.5706 16.8351 18.4993 14.6663 18.4993 10.4997C18.4993 9.94092 18.4418 9.39551 18.3373 8.86759Z" fill="#1976D2"/>
</svg>
