<svg width="24" height="25" viewBox="0 0 24 25" fill="none" xmlns="http://www.w3.org/2000/svg">
<path d="M6 5.75C5.20435 5.75 4.44129 6.06607 3.87868 6.62868C3.31607 7.19129 3 7.95435 3 8.75V16.25C3 17.0456 3.31607 17.8087 3.87868 18.3713C4.44129 18.9339 5.20435 19.25 6 19.25H13.5C14.2956 19.25 15.0587 18.9339 15.6213 18.3713C16.1839 17.8087 16.5 17.0456 16.5 16.25V15.5L19.2 17.525C19.3671 17.6504 19.5659 17.7267 19.774 17.7455C19.9821 17.7642 20.1912 17.7247 20.3781 17.6312C20.565 17.5378 20.7221 17.3942 20.832 17.2164C20.9418 17.0387 21 16.8339 21 16.625V8.375C21 8.16607 20.9418 7.96128 20.832 7.78355C20.7221 7.60583 20.565 7.4622 20.3781 7.36877C20.1912 7.27534 19.9821 7.23578 19.774 7.25455C19.5659 7.27331 19.3671 7.34964 19.2 7.475L16.5 9.5V8.75C16.5 7.95435 16.1839 7.19129 15.6213 6.62868C15.0587 6.06607 14.2956 5.75 13.5 5.75H6ZM16.5 11.375L19.5 9.125V15.875L16.5 13.625V11.375ZM15 8.75V16.25C15 16.6478 14.842 17.0294 14.5607 17.3107C14.2794 17.592 13.8978 17.75 13.5 17.75H6C5.60218 17.75 5.22064 17.592 4.93934 17.3107C4.65804 17.0294 4.5 16.6478 4.5 16.25V8.75C4.5 8.35218 4.65804 7.97064 4.93934 7.68934C5.22064 7.40804 5.60218 7.25 6 7.25H13.5C13.8978 7.25 14.2794 7.40804 14.5607 7.68934C14.842 7.97064 15 8.35218 15 8.75Z" fill="black"/>
</svg>
