<svg width="32" height="32" viewBox="0 0 32 32" fill="none" xmlns="http://www.w3.org/2000/svg">
<path d="M18.566 3.33922C19.0887 3.33918 19.6024 3.47572 20.0561 3.73532C20.5098 3.99492 20.8878 4.36856 21.1527 4.81922L22.238 6.66856H24.9994C26.1484 6.66856 27.2504 7.12492 28.063 7.93729C28.8756 8.74966 29.3323 9.85152 29.3327 11.0006V23.6672C29.3327 24.2363 29.2206 24.7998 29.0028 25.3255C28.7851 25.8513 28.4659 26.329 28.0635 26.7314C27.6611 27.1337 27.1834 27.4529 26.6576 27.6707C26.1319 27.8885 25.5684 28.0006 24.9994 28.0006H6.99935C5.85008 28.0006 4.74788 27.544 3.93522 26.7314C3.12256 25.9187 2.66602 24.8165 2.66602 23.6672V11.0006C2.66602 9.85129 3.12256 8.74909 3.93522 7.93643C4.74788 7.12377 5.85008 6.66722 6.99935 6.66722H9.77268L10.9394 4.76856C11.2076 4.33152 11.5834 3.97053 12.0309 3.72007C12.4783 3.46961 12.9826 3.33803 13.4953 3.33789H18.566V3.33922ZM18.566 5.33922H13.4953C13.3494 5.33934 13.2053 5.37139 13.0731 5.43312C12.9409 5.49485 12.8238 5.58477 12.73 5.69656L12.6433 5.81656L11.186 8.18989C11.0967 8.33565 10.9714 8.45607 10.8222 8.53964C10.6731 8.6232 10.505 8.66713 10.334 8.66722H7.00068C6.69415 8.66705 6.39059 8.72727 6.10735 8.84446C5.8241 8.96164 5.56672 9.13348 5.3499 9.35017C5.13309 9.56686 4.9611 9.82414 4.84376 10.1073C4.72641 10.3905 4.66602 10.694 4.66602 11.0006V23.6672C4.66602 24.9552 5.71135 26.0006 6.99935 26.0006H24.9994C25.6182 26.0006 26.2117 25.7547 26.6493 25.3171C27.0869 24.8796 27.3327 24.2861 27.3327 23.6672V11.0006C27.3327 10.3817 27.0869 9.78823 26.6493 9.35064C26.2117 8.91306 25.6182 8.66722 24.9994 8.66722H21.666C21.4917 8.66732 21.3204 8.62184 21.1691 8.5353C21.0177 8.44877 20.8917 8.32418 20.8034 8.17389L19.4274 5.83122C19.3391 5.68113 19.2133 5.55667 19.0622 5.47014C18.9111 5.38362 18.7401 5.33803 18.566 5.33789V5.33922ZM15.9994 10.6672C17.5906 10.6672 19.1168 11.2994 20.242 12.4246C21.3672 13.5498 21.9994 15.0759 21.9994 16.6672C21.9994 18.2585 21.3672 19.7846 20.242 20.9099C19.1168 22.0351 17.5906 22.6672 15.9994 22.6672C14.4081 22.6672 12.8819 22.0351 11.7567 20.9099C10.6315 19.7846 9.99935 18.2585 9.99935 16.6672C9.99935 15.0759 10.6315 13.5498 11.7567 12.4246C12.8819 11.2994 14.4081 10.6672 15.9994 10.6672ZM15.9994 12.6672C15.4741 12.6672 14.9539 12.7707 14.4686 12.9717C13.9833 13.1727 13.5424 13.4674 13.1709 13.8388C12.7995 14.2102 12.5049 14.6512 12.3038 15.1365C12.1028 15.6218 11.9993 16.1419 11.9993 16.6672C11.9993 17.1925 12.1028 17.7127 12.3038 18.198C12.5049 18.6833 12.7995 19.1242 13.1709 19.4957C13.5424 19.8671 13.9833 20.1617 14.4686 20.3627C14.9539 20.5638 15.4741 20.6672 15.9994 20.6672C17.0602 20.6672 18.0776 20.2458 18.8278 19.4957C19.5779 18.7455 19.9994 17.7281 19.9994 16.6672C19.9994 15.6064 19.5779 14.5889 18.8278 13.8388C18.0776 13.0887 17.0602 12.6672 15.9994 12.6672Z" fill="#3F3F46"/>
</svg>
