<svg width="20" height="20" viewBox="0 0 20 20" fill="none" xmlns="http://www.w3.org/2000/svg">
<path d="M7.5 7.5C7.33424 7.5 7.17527 7.56585 7.05806 7.68306C6.94085 7.80027 6.875 7.95924 6.875 8.125C6.875 8.29076 6.80915 8.44973 6.69194 8.56694C6.57473 8.68415 6.41576 8.75 6.25 8.75C6.08424 8.75 5.92527 8.68415 5.80806 8.56694C5.69085 8.44973 5.625 8.29076 5.625 8.125C5.625 7.62772 5.82254 7.15081 6.17417 6.79917C6.52581 6.44754 7.00272 6.25 7.5 6.25C7.99728 6.25 8.47419 6.44754 8.82583 6.79917C9.17746 7.15081 9.375 7.62772 9.375 8.125C9.375 8.29076 9.30915 8.44973 9.19194 8.56694C9.07473 8.68415 8.91576 8.75 8.75 8.75C8.58424 8.75 8.42527 8.68415 8.30806 8.56694C8.19085 8.44973 8.125 8.29076 8.125 8.125C8.125 7.95924 8.05915 7.80027 7.94194 7.68306C7.82473 7.56585 7.66576 7.5 7.5 7.5ZM12.5 7.5C12.3342 7.5 12.1753 7.56585 12.0581 7.68306C11.9408 7.80027 11.875 7.95924 11.875 8.125C11.875 8.29076 11.8092 8.44973 11.6919 8.56694C11.5747 8.68415 11.4158 8.75 11.25 8.75C11.0842 8.75 10.9253 8.68415 10.8081 8.56694C10.6908 8.44973 10.625 8.29076 10.625 8.125C10.625 7.62772 10.8225 7.15081 11.1742 6.79917C11.5258 6.44754 12.0027 6.25 12.5 6.25C12.9973 6.25 13.4742 6.44754 13.8258 6.79917C14.1775 7.15081 14.375 7.62772 14.375 8.125C14.375 8.29076 14.3092 8.44973 14.1919 8.56694C14.0747 8.68415 13.9158 8.75 13.75 8.75C13.5842 8.75 13.4253 8.68415 13.3081 8.56694C13.1908 8.44973 13.125 8.29076 13.125 8.125C13.125 7.95924 13.0592 7.80027 12.9419 7.68306C12.8247 7.56585 12.6658 7.5 12.5 7.5ZM5.66875 10C5.57929 10 5.49087 10.0192 5.40948 10.0564C5.32808 10.0935 5.25561 10.1476 5.19695 10.2152C5.13829 10.2827 5.09482 10.3621 5.06946 10.4479C5.04411 10.5337 5.03748 10.6239 5.05 10.7125C5.21983 11.9043 5.81398 12.9949 6.72332 13.7838C7.63265 14.5728 8.79612 15.0072 10 15.0072C11.2039 15.0072 12.3673 14.5728 13.2767 13.7838C14.186 12.9949 14.7802 11.9043 14.95 10.7125C14.9625 10.6238 14.9559 10.5335 14.9304 10.4476C14.905 10.3617 14.8614 10.2823 14.8026 10.2147C14.7438 10.1472 14.6712 10.093 14.5897 10.056C14.5081 10.0189 14.4196 9.99983 14.33 10H5.66875ZM10 13.75C9.22427 13.75 8.46759 13.5097 7.8341 13.062C7.2006 12.6143 6.72142 11.9812 6.4625 11.25H13.5375C13.2786 11.9812 12.7994 12.6143 12.1659 13.062C11.5324 13.5097 10.7757 13.75 10 13.75V13.75ZM17.5 10C17.5 9.01509 17.306 8.03982 16.9291 7.12987C16.5522 6.21993 15.9997 5.39314 15.3033 4.6967C14.6069 4.00026 13.7801 3.44781 12.8701 3.0709C11.9602 2.69399 10.9849 2.5 10 2.5C9.01509 2.5 8.03982 2.69399 7.12987 3.0709C6.21993 3.44781 5.39314 4.00026 4.6967 4.6967C4.00026 5.39314 3.44781 6.21993 3.0709 7.12987C2.69399 8.03982 2.5 9.01509 2.5 10C2.5 11.9891 3.29018 13.8968 4.6967 15.3033C6.10322 16.7098 8.01088 17.5 10 17.5C11.9891 17.5 13.8968 16.7098 15.3033 15.3033C16.7098 13.8968 17.5 11.9891 17.5 10ZM3.75 10C3.75 8.3424 4.40848 6.75269 5.58058 5.58058C6.75269 4.40848 8.3424 3.75 10 3.75C11.6576 3.75 13.2473 4.40848 14.4194 5.58058C15.5915 6.75269 16.25 8.3424 16.25 10C16.25 11.6576 15.5915 13.2473 14.4194 14.4194C13.2473 15.5915 11.6576 16.25 10 16.25C8.3424 16.25 6.75269 15.5915 5.58058 14.4194C4.40848 13.2473 3.75 11.6576 3.75 10Z" fill="#333333"/>
</svg>
