<svg width="48" height="49" viewBox="0 0 48 49" fill="none" xmlns="http://www.w3.org/2000/svg">
<path d="M12 11C10.4087 11 8.88258 11.6321 7.75736 12.7574C6.63214 13.8826 6 15.4087 6 17V32C6 33.5913 6.63214 35.1174 7.75736 36.2426C8.88258 37.3679 10.4087 38 12 38H27C28.5913 38 30.1174 37.3679 31.2426 36.2426C32.3679 35.1174 33 33.5913 33 32V30.5L38.4 34.55C38.7343 34.8007 39.1318 34.9534 39.5479 34.9909C39.9641 35.0284 40.3825 34.9493 40.7562 34.7625C41.13 34.5756 41.4443 34.2883 41.664 33.9329C41.8836 33.5774 42 33.1679 42 32.75V16.25C42 15.8321 41.8836 15.4226 41.664 15.0671C41.4443 14.7117 41.13 14.4244 40.7562 14.2375C40.3825 14.0507 39.9641 13.9716 39.5479 14.0091C39.1318 14.0466 38.7343 14.1993 38.4 14.45L33 18.5V17C33 15.4087 32.3679 13.8826 31.2426 12.7574C30.1174 11.6321 28.5913 11 27 11H12ZM33 22.25L39 17.75V31.25L33 26.75V22.25ZM30 17V32C30 32.7956 29.6839 33.5587 29.1213 34.1213C28.5587 34.6839 27.7956 35 27 35H12C11.2044 35 10.4413 34.6839 9.87868 34.1213C9.31607 33.5587 9 32.7956 9 32V17C9 16.2044 9.31607 15.4413 9.87868 14.8787C10.4413 14.3161 11.2044 14 12 14H27C27.7956 14 28.5587 14.3161 29.1213 14.8787C29.6839 15.4413 30 16.2044 30 17Z" fill="black"/>
</svg>
