<svg width="20" height="20" viewBox="0 0 20 20" fill="none" xmlns="http://www.w3.org/2000/svg">
<path d="M11.6035 2.08677C11.9302 2.08674 12.2513 2.17208 12.5348 2.33433C12.8184 2.49658 13.0547 2.73011 13.2202 3.01177L13.8985 4.1676H15.6244C16.3425 4.1676 17.0313 4.45283 17.5391 4.96056C18.047 5.46829 18.3325 6.15695 18.3327 6.8751V14.7918C18.3327 15.1474 18.2626 15.4996 18.1265 15.8282C17.9904 16.1568 17.7909 16.4554 17.5394 16.7069C17.2879 16.9583 16.9894 17.1578 16.6608 17.2939C16.3322 17.4301 15.98 17.5001 15.6244 17.5001H4.37435C3.65605 17.5001 2.96718 17.2148 2.45927 16.7069C1.95136 16.1989 1.66602 15.5101 1.66602 14.7918V6.8751C1.66602 6.15681 1.95136 5.46793 2.45927 4.96002C2.96718 4.45211 3.65605 4.16677 4.37435 4.16677H6.10768L6.83685 2.9801C7.00451 2.70695 7.23938 2.48134 7.51905 2.3248C7.79872 2.16826 8.11385 2.08602 8.43435 2.08594H11.6035V2.08677ZM11.6035 3.33677H8.43435C8.34315 3.33685 8.25308 3.35688 8.17045 3.39546C8.08781 3.43404 8.01463 3.49023 7.95602 3.5601L7.90185 3.6351L6.99102 5.11844C6.93517 5.20954 6.85689 5.2848 6.76366 5.33703C6.67044 5.38926 6.56538 5.41671 6.45852 5.41677H4.37518C4.1836 5.41666 3.99388 5.4543 3.81685 5.52754C3.63982 5.60078 3.47895 5.70818 3.34345 5.84361C3.20794 5.97904 3.10044 6.13984 3.0271 6.31683C2.95376 6.49382 2.91602 6.68352 2.91602 6.8751V14.7918C2.91602 15.5968 3.56935 16.2501 4.37435 16.2501H15.6244C16.0111 16.2501 16.3821 16.0965 16.6555 15.823C16.929 15.5495 17.0827 15.1785 17.0827 14.7918V6.8751C17.0827 6.48833 16.929 6.1174 16.6555 5.84391C16.3821 5.57042 16.0111 5.41677 15.6244 5.41677H13.541C13.4321 5.41683 13.325 5.3884 13.2304 5.33432C13.1358 5.28023 13.0571 5.20237 13.0019 5.10844L12.1419 3.64427C12.0867 3.55046 12.0081 3.47267 11.9136 3.4186C11.8192 3.36452 11.7123 3.33603 11.6035 3.33594V3.33677ZM9.99935 6.66677C10.9939 6.66677 11.9477 7.06186 12.651 7.76512C13.3543 8.46838 13.7494 9.42221 13.7494 10.4168C13.7494 11.4113 13.3543 12.3652 12.651 13.0684C11.9477 13.7717 10.9939 14.1668 9.99935 14.1668C9.00479 14.1668 8.05096 13.7717 7.3477 13.0684C6.64444 12.3652 6.24935 11.4113 6.24935 10.4168C6.24935 9.42221 6.64444 8.46838 7.3477 7.76512C8.05096 7.06186 9.00479 6.66677 9.99935 6.66677V6.66677ZM9.99935 7.91677C9.67105 7.91677 9.34596 7.98143 9.04264 8.10707C8.73933 8.23271 8.46373 8.41686 8.23158 8.649C7.99944 8.88115 7.81529 9.15675 7.68965 9.46006C7.56401 9.76338 7.49935 10.0885 7.49935 10.4168C7.49935 10.7451 7.56401 11.0702 7.68965 11.3735C7.81529 11.6768 7.99944 11.9524 8.23158 12.1845C8.46373 12.4167 8.73933 12.6008 9.04264 12.7265C9.34596 12.8521 9.67105 12.9168 9.99935 12.9168C10.6624 12.9168 11.2983 12.6534 11.7671 12.1845C12.236 11.7157 12.4994 11.0798 12.4994 10.4168C12.4994 9.75373 12.236 9.11784 11.7671 8.649C11.2983 8.18016 10.6624 7.91677 9.99935 7.91677V7.91677Z" fill="#333333"/>
</svg>
