<svg width="28" height="29" viewBox="0 0 28 29" fill="none" xmlns="http://www.w3.org/2000/svg">
<path d="M16.2465 3.42304C16.7039 3.423 17.1533 3.54248 17.5503 3.76963C17.9473 3.99677 18.2781 4.32371 18.5098 4.71804L19.4595 6.33621H21.8757C22.8811 6.33621 23.8453 6.73553 24.5564 7.44635C25.2674 8.15717 25.667 9.1213 25.6673 10.1267V21.21C25.6673 21.708 25.5692 22.201 25.3787 22.6611C25.1881 23.1211 24.9089 23.5391 24.5568 23.8912C24.2047 24.2432 23.7867 24.5225 23.3267 24.7131C22.8666 24.9036 22.3736 25.0017 21.8757 25.0017H6.12565C5.12004 25.0017 4.15561 24.6022 3.44454 23.8912C2.73346 23.1801 2.33398 22.2157 2.33398 21.21V10.1267C2.33398 9.1211 2.73346 8.15667 3.44454 7.4456C4.15561 6.73452 5.12004 6.33504 6.12565 6.33504H8.55232L9.57315 4.67371C9.80787 4.2913 10.1367 3.97544 10.5282 3.75628C10.9198 3.53713 11.361 3.42199 11.8097 3.42188H16.2465V3.42304ZM16.2465 5.17304H11.8097C11.682 5.17315 11.5559 5.20119 11.4402 5.2552C11.3245 5.30922 11.222 5.38789 11.14 5.48571L11.0642 5.59071L9.78899 7.66738C9.71079 7.79492 9.6012 7.90028 9.47069 7.9734C9.34017 8.04653 9.19309 8.08496 9.04348 8.08504H6.12682C5.8586 8.08489 5.59299 8.13759 5.34515 8.24012C5.09731 8.34265 4.8721 8.49302 4.68239 8.68262C4.49268 8.87222 4.34219 9.09734 4.23951 9.34513C4.13683 9.59291 4.08398 9.85849 4.08398 10.1267V21.21C4.08398 22.337 4.99865 23.2517 6.12565 23.2517H21.8757C22.4171 23.2517 22.9364 23.0366 23.3193 22.6537C23.7022 22.2708 23.9173 21.7515 23.9173 21.21V10.1267C23.9173 9.58522 23.7022 9.06592 23.3193 8.68303C22.9364 8.30015 22.4171 8.08504 21.8757 8.08504H18.959C18.8065 8.08512 18.6566 8.04533 18.5242 7.96961C18.3917 7.89389 18.2814 7.78488 18.2042 7.65338L17.0002 5.60354C16.923 5.47221 16.8128 5.36331 16.6807 5.2876C16.5485 5.21189 16.3988 5.172 16.2465 5.17187V5.17304ZM14.0007 9.83504C15.393 9.83504 16.7284 10.3882 17.713 11.3727C18.6975 12.3573 19.2507 13.6927 19.2507 15.085C19.2507 16.4774 18.6975 17.8128 17.713 18.7974C16.7284 19.7819 15.393 20.335 14.0007 20.335C12.6083 20.335 11.2729 19.7819 10.2883 18.7974C9.30378 17.8128 8.75065 16.4774 8.75065 15.085C8.75065 13.6927 9.30378 12.3573 10.2883 11.3727C11.2729 10.3882 12.6083 9.83504 14.0007 9.83504ZM14.0007 11.585C13.541 11.585 13.0859 11.6756 12.6613 11.8515C12.2366 12.0274 11.8508 12.2852 11.5258 12.6102C11.2008 12.9352 10.943 13.321 10.7671 13.7457C10.5912 14.1703 10.5007 14.6254 10.5007 15.085C10.5007 15.5447 10.5912 15.9998 10.7671 16.4244C10.943 16.8491 11.2008 17.2349 11.5258 17.5599C11.8508 17.8849 12.2366 18.1427 12.6613 18.3186C13.0859 18.4945 13.541 18.585 14.0007 18.585C14.9289 18.585 15.8191 18.2163 16.4755 17.5599C17.1319 16.9035 17.5007 16.0133 17.5007 15.085C17.5007 14.1568 17.1319 13.2665 16.4755 12.6102C15.8191 11.9538 14.9289 11.585 14.0007 11.585Z" fill="#333333"/>
</svg>
