<svg width="28" height="29" viewBox="0 0 28 29" fill="none" xmlns="http://www.w3.org/2000/svg">
<path d="M10.5 11C10.2679 11 10.0454 11.0922 9.88128 11.2563C9.71719 11.4204 9.625 11.6429 9.625 11.875C9.625 12.1071 9.53281 12.3296 9.36872 12.4937C9.20462 12.6578 8.98206 12.75 8.75 12.75C8.51794 12.75 8.29538 12.6578 8.13128 12.4937C7.96719 12.3296 7.875 12.1071 7.875 11.875C7.875 11.1788 8.15156 10.5111 8.64384 10.0188C9.13613 9.52656 9.80381 9.25 10.5 9.25C11.1962 9.25 11.8639 9.52656 12.3562 10.0188C12.8484 10.5111 13.125 11.1788 13.125 11.875C13.125 12.1071 13.0328 12.3296 12.8687 12.4937C12.7046 12.6578 12.4821 12.75 12.25 12.75C12.0179 12.75 11.7954 12.6578 11.6313 12.4937C11.4672 12.3296 11.375 12.1071 11.375 11.875C11.375 11.6429 11.2828 11.4204 11.1187 11.2563C10.9546 11.0922 10.7321 11 10.5 11ZM17.5 11C17.2679 11 17.0454 11.0922 16.8813 11.2563C16.7172 11.4204 16.625 11.6429 16.625 11.875C16.625 12.1071 16.5328 12.3296 16.3687 12.4937C16.2046 12.6578 15.9821 12.75 15.75 12.75C15.5179 12.75 15.2954 12.6578 15.1313 12.4937C14.9672 12.3296 14.875 12.1071 14.875 11.875C14.875 11.1788 15.1516 10.5111 15.6438 10.0188C16.1361 9.52656 16.8038 9.25 17.5 9.25C18.1962 9.25 18.8639 9.52656 19.3562 10.0188C19.8484 10.5111 20.125 11.1788 20.125 11.875C20.125 12.1071 20.0328 12.3296 19.8687 12.4937C19.7046 12.6578 19.4821 12.75 19.25 12.75C19.0179 12.75 18.7954 12.6578 18.6313 12.4937C18.4672 12.3296 18.375 12.1071 18.375 11.875C18.375 11.6429 18.2828 11.4204 18.1187 11.2563C17.9546 11.0922 17.7321 11 17.5 11ZM7.93625 14.5C7.811 14.5 7.68722 14.5269 7.57327 14.5789C7.45932 14.6309 7.35785 14.7067 7.27573 14.8013C7.19361 14.8958 7.13274 15.0069 7.09725 15.127C7.06176 15.2472 7.05247 15.3735 7.07 15.4975C7.30776 17.1661 8.13957 18.6929 9.41264 19.7974C10.6857 20.9019 12.3146 21.51 14 21.51C15.6854 21.51 17.3143 20.9019 18.5874 19.7974C19.8604 18.6929 20.6922 17.1661 20.93 15.4975C20.9476 15.3733 20.9382 15.2469 20.9026 15.1266C20.867 15.0064 20.806 14.8952 20.7237 14.8006C20.6414 14.706 20.5397 14.6302 20.4255 14.5784C20.3114 14.5265 20.1874 14.4998 20.062 14.5H7.93625ZM14 19.75C12.914 19.7501 11.8546 19.4135 10.9677 18.7868C10.0808 18.16 9.40999 17.2737 9.0475 16.25H18.9525C18.59 17.2737 17.9192 18.16 17.0323 18.7868C16.1454 19.4135 15.086 19.7501 14 19.75ZM24.5 14.5C24.5 13.1211 24.2284 11.7557 23.7007 10.4818C23.1731 9.20791 22.3996 8.05039 21.4246 7.07538C20.4496 6.10036 19.2921 5.32694 18.0182 4.79927C16.7443 4.27159 15.3789 4 14 4C12.6211 4 11.2557 4.27159 9.98182 4.79927C8.70791 5.32694 7.55039 6.10036 6.57538 7.07538C5.60036 8.05039 4.82694 9.20791 4.29926 10.4818C3.77159 11.7557 3.5 13.1211 3.5 14.5C3.5 17.2848 4.60625 19.9555 6.57538 21.9246C8.54451 23.8938 11.2152 25 14 25C16.7848 25 19.4555 23.8938 21.4246 21.9246C23.3938 19.9555 24.5 17.2848 24.5 14.5ZM5.25 14.5C5.25 12.1794 6.17187 9.95376 7.81282 8.31282C9.45376 6.67187 11.6794 5.75 14 5.75C16.3206 5.75 18.5462 6.67187 20.1872 8.31282C21.8281 9.95376 22.75 12.1794 22.75 14.5C22.75 16.8206 21.8281 19.0462 20.1872 20.6872C18.5462 22.3281 16.3206 23.25 14 23.25C11.6794 23.25 9.45376 22.3281 7.81282 20.6872C6.17187 19.0462 5.25 16.8206 5.25 14.5Z" fill="#333333"/>
</svg>
