<svg width="32" height="32" viewBox="0 0 32 32" fill="none" xmlns="http://www.w3.org/2000/svg">
<path d="M12 12C11.7348 12 11.4804 12.1054 11.2929 12.2929C11.1054 12.4804 11 12.7348 11 13C11 13.2652 10.8946 13.5196 10.7071 13.7071C10.5196 13.8946 10.2652 14 10 14C9.73478 14 9.48043 13.8946 9.29289 13.7071C9.10536 13.5196 9 13.2652 9 13C9 12.2044 9.31607 11.4413 9.87868 10.8787C10.4413 10.3161 11.2044 10 12 10C12.7956 10 13.5587 10.3161 14.1213 10.8787C14.6839 11.4413 15 12.2044 15 13C15 13.2652 14.8946 13.5196 14.7071 13.7071C14.5196 13.8946 14.2652 14 14 14C13.7348 14 13.4804 13.8946 13.2929 13.7071C13.1054 13.5196 13 13.2652 13 13C13 12.7348 12.8946 12.4804 12.7071 12.2929C12.5196 12.1054 12.2652 12 12 12ZM20 12C19.7348 12 19.4804 12.1054 19.2929 12.2929C19.1054 12.4804 19 12.7348 19 13C19 13.2652 18.8946 13.5196 18.7071 13.7071C18.5196 13.8946 18.2652 14 18 14C17.7348 14 17.4804 13.8946 17.2929 13.7071C17.1054 13.5196 17 13.2652 17 13C17 12.2044 17.3161 11.4413 17.8787 10.8787C18.4413 10.3161 19.2044 10 20 10C20.7956 10 21.5587 10.3161 22.1213 10.8787C22.6839 11.4413 23 12.2044 23 13C23 13.2652 22.8946 13.5196 22.7071 13.7071C22.5196 13.8946 22.2652 14 22 14C21.7348 14 21.4804 13.8946 21.2929 13.7071C21.1054 13.5196 21 13.2652 21 13C21 12.7348 20.8946 12.4804 20.7071 12.2929C20.5196 12.1054 20.2652 12 20 12ZM9.07 16C8.92686 16 8.7854 16.0308 8.65516 16.0902C8.52493 16.1496 8.40897 16.2362 8.31512 16.3443C8.22126 16.4524 8.15171 16.5794 8.11114 16.7166C8.07058 16.8539 8.05996 16.9983 8.08 17.14C8.35173 19.047 9.30237 20.7918 10.7573 22.0542C12.2122 23.3165 14.0738 24.0115 16 24.0115C17.9262 24.0115 19.7878 23.3165 21.2427 22.0542C22.6976 20.7918 23.6483 19.047 23.92 17.14C23.9401 16.9981 23.9294 16.8536 23.8887 16.7161C23.848 16.5787 23.7783 16.4517 23.6842 16.3436C23.5902 16.2354 23.4739 16.1488 23.3435 16.0896C23.213 16.0303 23.0713 15.9997 22.928 16H9.07ZM16 22C14.7588 22.0001 13.5482 21.6155 12.5346 20.8992C11.521 20.1828 10.7543 19.17 10.34 18H21.66C21.2457 19.17 20.479 20.1828 19.4654 20.8992C18.4518 21.6155 17.2412 22.0001 16 22ZM28 16C28 14.4241 27.6896 12.8637 27.0866 11.4078C26.4835 9.95189 25.5996 8.62902 24.4853 7.51472C23.371 6.40042 22.0481 5.5165 20.5922 4.91345C19.1363 4.31039 17.5759 4 16 4C14.4241 4 12.8637 4.31039 11.4078 4.91345C9.95189 5.5165 8.62902 6.40042 7.51472 7.51472C6.40042 8.62902 5.5165 9.95189 4.91345 11.4078C4.31039 12.8637 4 14.4241 4 16C4 19.1826 5.26428 22.2348 7.51472 24.4853C9.76515 26.7357 12.8174 28 16 28C19.1826 28 22.2348 26.7357 24.4853 24.4853C26.7357 22.2348 28 19.1826 28 16ZM6 16C6 13.3478 7.05357 10.8043 8.92893 8.92893C10.8043 7.05357 13.3478 6 16 6C18.6522 6 21.1957 7.05357 23.0711 8.92893C24.9464 10.8043 26 13.3478 26 16C26 18.6522 24.9464 21.1957 23.0711 23.0711C21.1957 24.9464 18.6522 26 16 26C13.3478 26 10.8043 24.9464 8.92893 23.0711C7.05357 21.1957 6 18.6522 6 16Z" fill="#3F3F46"/>
</svg>
