<svg width="150" height="164" viewBox="0 0 150 164" fill="none" xmlns="http://www.w3.org/2000/svg">
<g opacity="0.25" clip-path="url(#clip0_3929_6592)">
<path d="M92.6679 102.879C92.3145 103.25 91.9258 103.602 91.5371 103.935C91.6078 103.88 91.6961 103.787 91.7668 103.731C92.0495 103.435 92.3498 103.157 92.6679 102.879Z" fill="black"/>
<path d="M92.6679 102.88C92.3145 103.25 91.9258 103.603 91.5371 103.936C91.6078 103.881 91.6961 103.788 91.7668 103.732C92.0495 103.436 92.3498 103.158 92.6679 102.88ZM92.7209 102.824C92.3852 103.102 92.0672 103.399 91.7668 103.714C91.6961 103.788 91.6078 103.862 91.5371 103.936C91.9611 103.584 92.3498 103.213 92.7209 102.824Z" fill="#161616"/>
<path d="M95.2646 99.375C94.8405 100.135 94.3812 100.839 93.8688 101.506C93.1797 102.081 92.5614 102.729 92.0137 103.434C92.155 103.248 92.314 102.97 92.4377 102.766C93.1444 101.506 94.0808 100.357 95.2646 99.375Z" fill="black"/>
<path d="M95.2647 99.3749C94.8406 100.135 94.3813 100.839 93.8689 101.506C93.1798 102.081 92.5615 102.729 92.0138 103.433C92.1551 103.248 92.3141 102.97 92.4378 102.766C93.1445 101.506 94.0809 100.357 95.2647 99.3749ZM95.3 99.3008C94.0986 100.302 93.1445 101.469 92.4555 102.748C92.1728 103.23 92.1728 103.23 91.9961 103.452C92.5261 102.766 93.1268 102.155 93.8159 101.58C94.3636 100.857 94.876 100.098 95.3 99.3008Z" fill="#161616"/>
<path d="M96.9606 95.168C96.7309 96.039 96.4306 96.8729 96.0949 97.6884C94.5755 98.9486 93.4801 100.431 92.791 102.081C92.897 101.784 93.0384 101.395 93.1444 101.098L93.2327 100.765C94.0808 98.2999 94.6638 97.2807 96.9606 95.168Z" fill="black"/>
<path d="M96.9608 95.1708C96.7311 96.0418 96.4308 96.8758 96.0951 97.6912C94.5757 98.9514 93.4802 100.434 92.7912 102.083C92.8972 101.787 93.0385 101.398 93.1446 101.101L93.2329 100.768C94.0809 98.3028 94.664 97.2835 96.9608 95.1708ZM96.9785 95.0781C94.876 97.0426 94.134 98.0248 93.2329 100.712L93.1269 101.083C93.0209 101.398 92.8795 101.805 92.7559 102.102C93.4626 100.471 94.5403 99.007 96.0421 97.7653C96.4131 96.9128 96.7311 96.0047 96.9785 95.0781Z" fill="#161616"/>
<path d="M97.7206 90.4258C97.6676 91.3895 97.5616 92.3161 97.4026 93.2427C95.7771 94.7624 94.24 96.1894 93.5156 99.5252L93.6216 98.8395C93.657 98.3947 93.7276 97.8202 93.763 97.3754C93.9573 95.7075 94.2753 93.4095 97.7206 90.4258Z" fill="black"/>
<path d="M97.7208 90.4247C97.6678 91.3884 97.5617 92.315 97.4027 93.2416C95.7773 94.7613 94.2402 96.1883 93.5158 99.5241L93.6218 98.8384C93.6572 98.3936 93.7278 97.8191 93.7632 97.3743C93.9575 95.7064 94.2755 93.4084 97.7208 90.4247ZM97.7208 90.332C95.1766 92.4633 93.8868 94.8539 93.7455 97.3002C93.7102 97.7635 93.6571 98.3751 93.6041 98.8384L93.4805 99.5797C93.9045 97.3002 95.1766 95.169 97.3674 93.3343C97.5441 92.3521 97.6678 91.3513 97.7208 90.332Z" fill="#161616"/>
<path d="M97.5084 85.3281C97.6497 86.3474 97.7204 87.3482 97.7381 88.3304C95.1762 90.684 93.9218 92.3704 93.7628 95.5765C93.7098 94.7055 93.6215 93.5565 93.5331 92.6855C93.2328 90.3875 94.5049 87.83 97.5084 85.3281Z" fill="black"/>
<path d="M97.5089 85.3299C97.6503 86.3492 97.7209 87.35 97.7386 88.3322C95.1768 90.6858 93.9223 92.3723 93.7633 95.5784C93.7103 94.7073 93.622 93.5583 93.5337 92.6873C93.2333 90.3893 94.5054 87.8318 97.5089 85.3299ZM97.4912 85.2188C94.47 87.7392 93.2156 90.2781 93.516 92.5761C93.6043 93.5027 93.728 94.7259 93.7633 95.6525C93.7103 93.2062 95.0001 90.7043 97.7386 88.4063C97.7209 87.3685 97.6503 86.3122 97.4912 85.2188Z" fill="#161616"/>
<path d="M96.325 80.0117C96.6607 81.0495 96.9257 82.0873 97.1377 83.1066C93.8868 86.0347 92.8797 87.8509 93.1447 90.3528C92.9504 89.5744 92.7207 88.5366 92.491 87.7582L92.226 86.9243C92.0493 85.8865 91.696 83.9591 96.325 80.0117Z" fill="black"/>
<path d="M96.325 80.0096C96.6607 81.0474 96.9257 82.0853 97.1377 83.1045C93.8868 86.0327 92.8797 87.8488 93.1448 90.3507C92.9504 89.5723 92.7207 88.5345 92.491 87.7562L92.226 86.9222C92.0494 85.8844 91.696 83.957 96.325 80.0096ZM96.2896 79.8984C94.5052 81.4737 91.5016 84.1238 92.1907 86.7925L92.491 87.7562C92.7031 88.5716 92.9857 89.6465 93.1624 90.4619C92.7384 88.3492 94.0105 85.8288 97.1554 83.1972C96.9257 82.1223 96.643 81.0104 96.2896 79.8984Z" fill="#161616"/>
<path d="M94.1161 74.6523C94.6461 75.6902 95.1055 76.728 95.5295 77.7658C92.102 80.6383 90.7592 82.8807 91.3069 84.2892L90.8122 83.0846C90.4589 82.3062 89.9818 81.2869 89.6108 80.5271C89.3105 79.341 90.5825 77.6917 94.1161 74.6523Z" fill="black"/>
<path d="M94.1157 74.6542C94.6458 75.692 95.1051 76.7298 95.5291 77.7676C92.1016 80.6401 90.7588 82.8825 91.3065 84.291L90.8118 83.0864C90.4585 82.308 89.9814 81.2888 89.6104 80.5289C89.3101 79.3429 90.5821 77.6935 94.1157 74.6542ZM94.0627 74.543C91.0062 77.1746 89.1864 79.0649 89.5221 80.3992C89.9108 81.1961 90.4408 82.271 90.7942 83.0864L91.3419 84.4022C91.0238 82.9196 91.6246 81.2517 95.5645 77.8603C95.1228 76.7483 94.6281 75.6549 94.0627 74.543Z" fill="#161616"/>
<path d="M91.6261 70.4844C92.2798 71.4295 92.8982 72.4117 93.4636 73.431C89.8947 76.4147 88.3929 78.305 88.7816 79.0278C88.1102 77.8973 87.2092 76.4147 86.4848 75.3213C86.3434 75.0989 88.0219 73.4866 91.6261 70.4844Z" fill="black"/>
<path d="M91.6245 70.4833C92.2782 71.4284 92.8966 72.4107 93.4619 73.4299C89.893 76.4137 88.3912 78.3039 88.7799 79.0267C88.1086 77.8962 87.2075 76.4136 86.4831 75.3202C86.3418 75.0978 88.0202 73.4855 91.6245 70.4833ZM91.5715 70.3906C87.9672 73.4114 86.2711 75.0052 86.4124 75.209C87.1545 76.358 88.1439 77.9148 88.8329 79.1008C88.4266 78.3781 89.9284 76.4692 93.4973 73.4855C92.8966 72.4107 92.2605 71.3728 91.5715 70.3906Z" fill="#161616"/>
<path d="M87.9684 65.9805C88.7281 66.7774 89.4701 67.6113 90.1592 68.5009C86.5549 71.5217 84.7352 72.9301 84.6468 72.8375C83.9754 72.0406 83.092 70.9657 82.3853 70.2059L81.8906 69.6869C82.191 69.8167 82.9684 70.1688 87.9684 65.9805Z" fill="black"/>
<path d="M87.9688 65.9804C88.7285 66.7773 89.4706 67.6112 90.1596 68.5008C86.5554 71.5216 84.7356 72.93 84.6473 72.8374C83.9759 72.0405 83.0925 70.9656 82.3858 70.2058L81.8911 69.6868C82.1914 69.8166 82.9688 70.1687 87.9688 65.9804ZM87.8981 65.9062C84.3116 68.89 82.2798 70.076 81.8027 69.5757L82.3858 70.2058C83.0925 71.0212 84.0466 72.0961 84.7356 72.9485C84.8063 73.0227 86.6261 71.5957 90.2303 68.5934C89.4883 67.6483 88.7109 66.7587 87.8981 65.9062Z" fill="#161616"/>
<path d="M83.8169 62.293C84.6649 62.9231 85.4776 63.6088 86.2727 64.3315C82.7391 67.2782 80.5483 68.316 79.7886 67.6303L78.6402 66.6295L76.8027 65.1655C78.0041 66.0365 80.3893 65.1655 83.8169 62.293Z" fill="black"/>
<path d="M83.8153 62.2939C84.6633 62.924 85.476 63.6097 86.2711 64.3324C82.7375 67.2791 80.5467 68.3169 79.787 67.6312L78.6386 66.6305L76.8011 65.1664C78.0026 66.0374 80.3877 65.1664 83.8153 62.2939ZM83.7446 62.2383C80.317 65.1108 77.9319 65.9818 76.7305 65.0923C77.3135 65.5556 78.0909 66.1486 78.6563 66.6305L79.893 67.7239C80.6351 68.391 82.8082 67.3532 86.3594 64.4066C85.5114 63.6282 84.6457 62.9054 83.7446 62.2383Z" fill="#161616"/>
<path d="M79.3454 59.4922C80.2288 59.937 81.1122 60.4559 81.9779 61.0118C78.621 63.8102 76.1299 64.6071 74.6634 63.662C73.78 63.1431 72.614 62.4388 71.7129 61.9755C73.5503 62.8836 76.1652 62.1423 79.3454 59.4922Z" fill="black"/>
<path d="M79.3458 59.4941C80.2292 59.9389 81.1126 60.4578 81.9784 61.0138C78.6215 63.8121 76.1303 64.609 74.6639 63.6639C73.7805 63.145 72.6144 62.4407 71.7133 61.9774C73.5508 62.8855 76.1656 62.1442 79.3458 59.4941ZM79.2575 59.457C76.0773 62.1072 73.4625 62.8485 71.625 61.9218C72.5791 62.4407 73.8335 63.1635 74.7522 63.7195C76.201 64.6646 78.7098 63.8677 82.0667 61.0694C81.148 60.4763 80.1939 59.9389 79.2575 59.457Z" fill="#161616"/>
<path d="M74.6814 57.6602C75.6002 57.9196 76.5012 58.2347 77.4023 58.6053C74.3811 61.1257 71.7309 61.867 69.6814 61.033C69.0454 60.7921 68.1973 60.4585 67.5436 60.2547L67.0312 60.1064C69.2574 60.7365 71.8899 59.9767 74.6814 57.6602Z" fill="black"/>
<path d="M74.6819 57.6582C75.6006 57.9176 76.5017 58.2327 77.4027 58.6033C74.3815 61.1237 71.7313 61.865 69.6819 61.0311C69.0458 60.7901 68.1978 60.4566 67.5441 60.2527L67.0317 60.1044C69.2578 60.7345 71.8904 59.9747 74.6819 57.6582ZM74.5935 57.6211C71.8197 59.9376 69.2048 60.6789 66.9434 60.0674L67.5441 60.2342C68.2154 60.4751 69.1165 60.7716 69.7702 61.0496C71.802 61.8835 74.4522 61.1608 77.4911 58.6218C76.5193 58.2327 75.5476 57.8991 74.5935 57.6211Z" fill="#161616"/>
<path d="M69.9992 56.8438C70.9003 56.8993 71.8013 57.0105 72.7201 57.1773C70.9533 58.5117 68.7448 60.1796 65.3172 59.6792L64.5045 59.5495C64.1158 59.5124 63.6211 59.4383 63.2324 59.4198C65.4586 59.5309 67.7554 58.7155 69.9992 56.8438Z" fill="black"/>
<path d="M69.9995 56.8438C70.9005 56.8993 71.8016 57.0105 72.7203 57.1773C70.9535 58.5117 68.7451 60.1796 65.3175 59.6792L64.5048 59.5495C64.1161 59.5124 63.6214 59.4383 63.2327 59.4197C65.4588 59.5309 67.7557 58.7155 69.9995 56.8438ZM69.9111 56.8438C67.8263 58.4005 66.2362 59.4197 63.1797 59.4197C63.586 59.4568 64.1161 59.4939 64.5048 59.5495L65.3882 59.6977C67.685 60.1425 70.2292 59.3642 72.8087 57.1959C71.8193 57.0105 70.8652 56.8993 69.9111 56.8438Z" fill="#161616"/>
<path d="M65.4407 57.1588C66.3064 56.992 67.1721 56.8808 68.0555 56.8438C66.0944 58.4931 64.0096 59.3086 61.9425 59.4197C61.5361 59.4568 60.9884 59.5124 60.582 59.5865C61.8188 59.253 63.1969 58.8638 64.4336 57.9372C64.734 57.6962 65.105 57.3071 65.4407 57.1588Z" fill="black"/>
<path d="M65.4409 57.1588C66.3066 56.992 67.1723 56.8808 68.0557 56.8438C66.0946 58.4931 64.0098 59.3086 61.9426 59.4197C61.5363 59.4568 60.9886 59.5124 60.5822 59.5865C61.819 59.253 63.1971 58.8638 64.4338 57.9372C64.7342 57.6962 65.1052 57.3071 65.4409 57.1588ZM65.3702 57.1773C63.8508 58.4375 62.2253 59.2344 60.5469 59.5865C61.4479 59.4383 61.4656 59.4383 61.9956 59.4197C64.0804 59.3271 66.1652 58.4931 68.144 56.8438C67.2077 56.8808 66.2713 56.992 65.3702 57.1773Z" fill="#161616"/>
<path d="M61.2003 58.6404C61.3947 58.5477 61.5713 58.4551 61.7657 58.3624C62.3664 58.0844 62.9848 57.8249 63.6208 57.6211C62.4371 58.6033 61.165 59.3075 59.8576 59.7338C59.6632 59.8079 59.4159 59.9006 59.2215 59.9747L59.0625 60.0488C59.8045 59.6782 60.5289 59.2149 61.2003 58.6404Z" fill="black"/>
<path d="M61.2003 58.6423C61.3947 58.5496 61.5713 58.457 61.7657 58.3643C62.3664 58.0863 62.9848 57.8269 63.6208 57.623C62.4371 58.6052 61.165 59.3094 59.8576 59.7357C59.6632 59.8098 59.4159 59.9025 59.2215 59.9766L59.0625 60.0507C59.8045 59.6801 60.5289 59.2168 61.2003 58.6423ZM61.1296 58.6793C60.4759 59.2353 59.7869 59.6986 59.0625 60.0693L59.2392 59.9766C59.4335 59.9025 59.6985 59.7913 59.8929 59.7172C61.2356 59.2909 62.5254 58.5867 63.7091 57.5859C63.0554 57.7898 62.4017 58.0492 61.7833 58.3458C61.5537 58.4755 61.3417 58.5682 61.1296 58.6793Z" fill="#161616"/>
<path d="M59.6111 59.6055C59.3108 59.8464 59.0104 60.0873 58.7101 60.2912C58.6394 60.3468 58.5511 60.4024 58.498 60.458C58.8337 60.1614 59.2224 59.8835 59.6111 59.6055Z" fill="black"/>
<path d="M59.6111 59.6035C59.3108 59.8444 59.0104 60.0853 58.7101 60.2892C58.6394 60.3448 58.5511 60.4004 58.498 60.456C58.8337 60.1594 59.2224 59.8815 59.6111 59.6035ZM59.6818 59.5664C59.2754 59.8444 58.8691 60.1409 58.498 60.4745C58.5687 60.4189 58.6571 60.3448 58.7277 60.3077C59.0457 60.0668 59.3638 59.8259 59.6818 59.5664Z" fill="#161616"/>
<path d="M125.459 112.309C124.717 113.069 123.958 113.773 123.145 114.459C113.481 102.098 99.3993 97.372 91.5371 103.932C91.9258 103.599 92.3145 103.247 92.6679 102.876C100.53 96.3157 115.141 100.56 125.459 112.309Z" fill="black"/>
<path d="M125.459 112.312C124.717 113.072 123.958 113.776 123.145 114.462C113.481 102.101 99.3993 97.3749 91.5371 103.935C91.9258 103.602 92.3145 103.25 92.6679 102.879C100.53 96.3186 115.141 100.562 125.459 112.312ZM125.813 112.479C115.459 100.544 100.654 96.2074 92.7209 102.823C92.3498 103.213 91.9435 103.583 91.5371 103.935C99.4523 97.3193 113.71 102.175 123.375 114.758C124.223 114.036 125.053 113.276 125.813 112.479Z" fill="#161616"/>
<path d="M130.742 105.156C129.894 106.694 128.94 108.14 127.88 109.511C116.873 98.5399 101.714 94.9446 93.8516 101.505C94.3639 100.838 94.841 100.115 95.2473 99.3739C103.127 92.8134 118.94 95.4079 130.742 105.156Z" fill="black"/>
<path d="M130.742 105.158C129.894 106.696 128.94 108.142 127.88 109.513C116.873 98.542 101.714 94.9467 93.8517 101.507C94.3641 100.84 94.8411 100.117 95.2475 99.376C103.127 92.8155 118.94 95.41 130.742 105.158ZM131.113 105.232C119.258 95.3359 103.233 92.6672 95.3005 99.2833C94.8588 100.08 94.3641 100.84 93.8164 101.563C101.732 94.9467 117.05 98.6903 128.057 109.902C129.187 108.457 130.212 106.9 131.113 105.232Z" fill="#161616"/>
<path d="M134.188 96.5777C133.711 98.3568 133.11 100.062 132.421 101.711C120.142 92.9453 103.958 91.1106 96.0957 97.6711C96.4314 96.8556 96.7317 96.0217 96.9614 95.1507C104.824 88.6087 121.414 89.2574 134.188 96.5777Z" fill="black"/>
<path d="M134.188 96.5776C133.711 98.3567 133.11 100.062 132.421 101.711C120.142 92.9453 103.958 91.1106 96.0959 97.671C96.4316 96.8556 96.7319 96.0217 96.9616 95.1506C104.824 88.6087 121.414 89.2573 134.188 96.5776ZM134.541 96.5776C121.714 89.1461 104.894 88.4604 96.9793 95.0765C96.7319 96.0031 96.4139 96.9112 96.0605 97.7637C103.976 91.1476 120.354 93.0935 132.651 102.082C133.393 100.34 134.029 98.4865 134.541 96.5776Z" fill="#161616"/>
<path d="M135.724 86.9217C135.618 88.8676 135.388 90.7949 135.07 92.6482C122.049 86.4398 105.247 86.6807 97.3848 93.2412C97.5438 92.3331 97.6498 91.388 97.7028 90.4243C105.565 83.8638 122.526 82.3256 135.724 86.9217Z" fill="black"/>
<path d="M135.724 86.9208C135.618 88.8667 135.388 90.7941 135.07 92.6473C122.049 86.439 105.247 86.6799 97.3849 93.2404C97.5439 92.3323 97.6499 91.3871 97.7029 90.4235C105.565 83.863 122.526 82.3248 135.724 86.9208ZM136.06 86.8467C122.791 82.1766 105.636 83.7147 97.7205 90.3308C97.6675 91.3501 97.5439 92.3508 97.3672 93.3145C105.282 86.6985 122.279 86.5502 135.353 92.9624C135.706 90.9794 135.954 88.9409 136.06 86.8467Z" fill="#161616"/>
<path d="M135.319 76.5072C135.584 78.5828 135.761 80.6214 135.796 82.6229C122.563 79.2314 105.602 81.7518 97.7394 88.3123C97.7218 87.3301 97.6334 86.3293 97.5098 85.3101C105.372 78.7496 122.227 74.8578 135.319 76.5072Z" fill="black"/>
<path d="M135.317 76.5046C135.582 78.5802 135.759 80.6188 135.794 82.6203C122.561 79.2288 105.6 81.7493 97.7376 88.3097C97.7199 87.3275 97.6316 86.3267 97.5079 85.3075C105.37 78.747 122.225 74.8552 135.317 76.5046ZM135.6 76.3563C122.473 74.6513 105.423 78.6173 97.4902 85.2333C97.6316 86.3082 97.7199 87.3831 97.7376 88.4209C105.653 81.8048 122.826 79.34 136.112 82.9168C136.077 80.7485 135.9 78.5617 135.6 76.3563Z" fill="#161616"/>
<path d="M132.879 65.6836C133.55 67.7963 134.098 69.909 134.54 72.0031C120.688 71.8734 105.653 76.3397 97.1194 83.104C96.9074 82.0847 96.6423 81.0469 96.3066 80.0091C106.413 72.0217 121.96 67.055 132.879 65.6836Z" fill="black"/>
<path d="M132.879 65.6823C133.551 67.795 134.098 69.9077 134.54 72.0019C120.688 71.8721 105.653 76.3384 97.1195 83.1028C96.9074 82.0835 96.6424 81.0457 96.3067 80.0079C106.413 72.0204 121.96 67.0537 132.879 65.6823ZM133.127 65.4414C120.706 66.8313 104.222 73.2991 96.2891 79.9152C96.6424 81.0271 96.9251 82.1205 97.1548 83.2139C105.07 76.5979 121.96 71.6868 134.893 72.2243C134.434 69.9633 133.851 67.7024 133.127 65.4414Z" fill="#161616"/>
<path d="M128.393 54.75C129.471 56.8627 130.425 58.9754 131.255 61.0881C119.294 63.7753 103.375 71.1882 95.513 77.7487C95.1067 76.7109 94.6296 75.6731 94.0996 74.6352C101.979 68.0933 117.244 59.2348 128.393 54.75Z" fill="black"/>
<path d="M128.393 54.7486C129.471 56.8613 130.425 58.974 131.255 61.0867C119.294 63.7739 103.375 71.1869 95.5132 77.7473C95.1068 76.7095 94.6298 75.6717 94.0998 74.6339C101.98 68.092 117.245 59.2335 128.393 54.7486ZM128.552 54.4336C117.421 58.937 101.98 67.9252 94.0645 74.5412C94.6298 75.6346 95.1245 76.7466 95.5662 77.8585C103.481 71.2425 119.63 63.811 131.644 61.235C130.743 58.9555 129.718 56.6945 128.552 54.4336Z" fill="#161616"/>
<path d="M123.339 46.2461C124.664 48.1735 125.918 50.175 127.084 52.2691C116.307 57.4397 101.342 66.8541 93.48 73.4331C92.9147 72.4138 92.2963 71.4131 91.6426 70.4864C99.4871 63.926 113.621 53.1216 123.339 46.2461Z" fill="black"/>
<path d="M123.339 46.2427C124.664 48.1701 125.919 50.1716 127.085 52.2658C116.307 57.4363 101.343 66.8507 93.4805 73.4297C92.9151 72.4105 92.2967 71.4097 91.643 70.4831C99.4876 63.9226 113.622 53.1183 123.339 46.2427ZM123.427 45.8906C113.745 52.8032 99.4876 63.7558 91.5547 70.3719C92.2437 71.3541 92.8798 72.3919 93.4805 73.4853C101.396 66.8693 116.572 57.3807 127.385 52.2658C126.166 50.0604 124.841 47.9292 123.427 45.8906Z" fill="#161616"/>
<path d="M115.882 37.0898C117.437 38.7022 118.921 40.4257 120.352 42.2233C111.465 50.2293 98.0197 61.9418 90.1752 68.5022C89.4685 67.6127 88.7441 66.7787 87.9844 65.9818C95.8289 59.4214 108.267 46.5414 115.882 37.0898Z" fill="black"/>
<path d="M115.882 37.0884C117.437 38.7007 118.921 40.4242 120.352 42.2219C111.465 50.2279 98.0202 61.9403 90.1756 68.5008C89.4689 67.6112 88.7445 66.7773 87.9848 65.9804C95.8293 59.4199 108.268 46.5399 115.882 37.0884ZM115.9 36.6992C108.338 46.2249 95.8117 59.2902 87.8965 65.9062C88.7092 66.7587 89.4866 67.6483 90.2286 68.5934C98.1438 61.9774 111.783 50.1723 120.688 42.2033C119.169 40.276 117.578 38.4227 115.9 36.6992Z" fill="#161616"/>
<path d="M107.421 29.5664C109.134 30.8451 110.813 32.2351 112.438 33.7177C105.795 44.1143 94.152 57.7542 86.2898 64.3331C85.4948 63.6104 84.6644 62.9247 83.834 62.2946C91.6785 55.7341 102.191 41.1491 107.421 29.5664Z" fill="black"/>
<path d="M107.419 29.565C109.133 30.8437 110.811 32.2336 112.437 33.7162C105.794 44.1129 94.1505 57.7527 86.2883 64.3317C85.4933 63.6089 84.6629 62.9232 83.8325 62.2931C91.677 55.7327 102.189 41.1477 107.419 29.565ZM107.366 29.1758C102.225 40.8326 91.6593 55.6215 83.7441 62.2375C84.6452 62.9047 85.5109 63.6275 86.359 64.4058C94.2742 57.7898 106.094 44.0202 112.755 33.6236C111.006 32.0298 109.221 30.5472 107.366 29.1758Z" fill="#161616"/>
<path d="M98.2681 23.8555C100.088 24.7821 101.89 25.8014 103.639 26.9504C99.4695 39.2559 89.8228 54.4524 81.9606 61.0129C81.0949 60.4569 80.2115 59.9565 79.3281 59.4932C87.1903 52.9328 95.6179 37.0505 98.2681 23.8555Z" fill="black"/>
<path d="M98.2684 23.8569C100.088 24.7835 101.89 25.8028 103.639 26.9518C99.4698 39.2573 89.8232 54.4539 81.961 61.0144C81.0953 60.4584 80.2119 59.958 79.3285 59.4947C87.1907 52.9342 95.6182 37.052 98.2684 23.8569ZM98.1624 23.4492C95.6359 36.7184 87.173 52.8416 79.2578 59.4576C80.2119 59.9395 81.1483 60.4769 82.067 61.0699C89.9822 54.4539 99.7702 39.1091 103.922 26.7665C102.032 25.5434 100.106 24.4314 98.1624 23.4492Z" fill="#161616"/>
<path d="M88.7629 20.1133C90.618 20.6322 92.4731 21.2808 94.3106 22.0406C92.7735 35.7361 85.247 52.0446 77.4025 58.605C76.5014 58.2344 75.5827 57.9193 74.6816 57.6599C82.5262 51.0994 88.7982 34.3461 88.7629 20.1133Z" fill="black"/>
<path d="M88.7634 20.1147C90.6185 20.6336 92.4736 21.2823 94.3111 22.0421C92.774 35.7375 85.2475 52.046 77.4029 58.6065C76.5019 58.2359 75.5831 57.9208 74.6821 57.6613C82.5266 51.1009 88.7987 34.3476 88.7634 20.1147ZM88.5867 19.707C88.7634 34.0326 82.5089 51.0082 74.5938 57.6243C75.5655 57.9023 76.5372 58.2358 77.4913 58.625C85.4065 52.009 93.039 35.5152 94.5407 21.7641C92.5619 20.9672 90.5655 20.2815 88.5867 19.707Z" fill="#161616"/>
<path d="M79.2227 18.4648C81.0602 18.576 82.8976 18.7984 84.7527 19.1505C85.9188 33.6614 80.5655 50.6185 72.7033 57.179C71.8022 57.0122 70.8835 56.901 69.9824 56.8454C77.8446 50.2849 81.9436 33.1796 79.2227 18.4648Z" fill="black"/>
<path d="M79.2211 18.4654C81.0586 18.5766 82.896 18.799 84.7511 19.1511C85.9172 33.6619 80.5639 50.6191 72.7017 57.1795C71.8006 57.0127 70.8819 56.9015 69.9808 56.8459C77.843 50.2855 81.942 33.1801 79.2211 18.4654ZM78.9738 18.1133C81.8713 32.9021 77.8254 50.2484 69.9102 56.8645C70.8642 56.9201 71.836 57.0313 72.8077 57.2166C80.7229 50.6005 86.1469 33.421 84.9102 18.8546C82.9137 18.4469 80.9349 18.2059 78.9738 18.1133Z" fill="#161616"/>
<path d="M69.9467 19.0939C71.6958 18.7418 73.4803 18.538 75.2824 18.4453C79.1163 33.16 75.9184 50.2839 68.0563 56.8444C67.1729 56.8815 66.2895 56.9927 65.4414 57.1594C73.3036 50.599 75.2824 33.6233 69.9467 19.0939Z" fill="black"/>
<path d="M69.9471 19.0945C71.6962 18.7424 73.4806 18.5385 75.2828 18.4459C79.1167 33.1606 75.9188 50.2845 68.0566 56.845C67.1732 56.882 66.2898 56.9932 65.4418 57.16C73.304 50.5995 75.2828 33.6239 69.9471 19.0945ZM69.6467 18.7794C75.1944 33.383 73.2863 50.5625 65.3711 57.1785C66.2898 56.9932 67.2085 56.882 68.1626 56.845C76.0778 50.2289 79.311 32.8826 75.3711 18.0938C73.4276 18.1679 71.5195 18.3903 69.6467 18.7794Z" fill="#161616"/>
<path d="M61.2894 22.1342C61.6781 21.9304 62.0491 21.745 62.4555 21.5597C63.6922 20.9852 64.9467 20.4848 66.2364 20.0586C72.6145 34.31 71.4838 51.0633 63.6392 57.6237C63.0032 57.8276 62.3848 58.0685 61.7841 58.365C61.5898 58.4577 61.3954 58.5503 61.2188 58.643C69.0633 52.0825 69.0633 35.8111 61.2894 22.1342Z" fill="black"/>
<path d="M61.2888 22.1328C61.6775 21.9289 62.0485 21.7436 62.4549 21.5583C63.6916 20.9838 64.9461 20.4834 66.2358 20.0571C72.6139 34.3085 71.4832 51.0618 63.6386 57.6223C63.0026 57.8261 62.3842 58.0671 61.7835 58.3636C61.5892 58.4562 61.3948 58.5489 61.2181 58.6416C69.0627 52.0811 69.0627 35.8097 61.2888 22.1328ZM60.9531 21.8733C68.9567 35.5873 69.045 52.0626 61.1298 58.6786C61.3418 58.5674 61.5538 58.4562 61.7658 58.3636C62.4019 58.0671 63.0379 57.8076 63.6916 57.6037C71.6068 50.9877 72.7376 34.012 66.2181 19.668C64.8754 20.0942 63.5503 20.6131 62.2429 21.2247C61.8188 21.4285 61.3772 21.6509 60.9531 21.8733Z" fill="#161616"/>
<path d="M55.7422 25.8202C56.4666 25.2086 57.244 24.6341 58.039 24.0781C66.7316 37.199 67.4736 53.0442 59.6114 59.6047C59.2228 59.8641 58.8517 60.1607 58.4807 60.4572C66.3429 53.8967 65.0885 38.4592 55.7422 25.8202Z" fill="black"/>
<path d="M55.7413 25.8216C56.4657 25.2101 57.2431 24.6356 58.0381 24.0796C66.7307 37.2005 67.4728 53.0457 59.6106 59.6062C59.2219 59.8656 58.8509 60.1621 58.4798 60.4586C66.342 53.8982 65.0876 38.4607 55.7413 25.8216ZM55.5293 25.5251C65.0699 38.2198 66.4127 53.8426 58.4975 60.4586C58.8862 60.1436 59.2749 59.8471 59.6812 59.5506C67.5964 52.9345 66.819 36.8669 57.9675 23.6719C57.1194 24.2464 56.3067 24.8765 55.5293 25.5251Z" fill="#161616"/>
<path d="M132.048 40.755C133.674 43.2754 135.811 46.6483 137.313 49.2428C136.819 48.3533 133.444 49.2428 127.49 52.0783C126.306 49.9656 125.052 47.927 123.709 45.9811C129.027 42.2376 131.854 40.477 132.048 40.755Z" fill="black"/>
<path d="M132.049 40.7569C133.674 43.2773 135.812 46.6502 137.314 49.2447C136.819 48.3552 133.445 49.2447 127.491 52.0802C126.307 49.9675 125.052 47.9289 123.71 45.983C129.028 42.2395 131.855 40.4789 132.049 40.7569ZM131.855 40.4974C131.696 40.238 128.869 42.0171 123.568 45.7977C124.982 47.8363 126.307 49.9675 127.544 52.2099C133.515 49.393 136.89 48.522 137.385 49.43C135.795 46.7058 133.586 43.129 131.855 40.4974Z" fill="#161616"/>
<path d="M121.555 27.875L122.703 29.0981C124.258 30.8772 126.36 33.2494 127.844 35.1026C127.95 35.2138 125.53 37.5304 120.689 41.9225C119.24 40.1064 117.738 38.3643 116.166 36.7335C120.336 31.4147 121.961 28.7831 121.555 27.875Z" fill="black"/>
<path d="M121.554 27.8786L122.702 29.1018C124.257 30.8809 126.359 33.253 127.843 35.1063C127.949 35.2175 125.529 37.534 120.688 41.9262C119.239 40.11 117.737 38.368 116.165 36.7371C120.334 31.4183 121.96 28.7867 121.554 27.8786ZM121.342 27.6562C121.925 28.2493 120.158 31.3257 116.006 36.5703C117.684 38.3124 119.292 40.1471 120.829 42.093C125.706 37.7379 128.144 35.4398 128.055 35.3472C126.465 33.4569 124.363 30.9179 122.72 29.1018L121.342 27.6562Z" fill="#161616"/>
<path d="M109.523 17.1836L113.993 20.7418L116.697 23.114C117.651 23.9664 116.361 27.5061 112.686 33.3068C111.043 31.8056 109.347 30.3972 107.615 29.0999C110.548 22.5024 111.078 18.3326 109.523 17.1836Z" fill="black"/>
<path d="M109.522 17.1824L113.992 20.7406L116.695 23.1128C117.65 23.9653 116.36 27.5049 112.685 33.3056C111.042 31.8045 109.346 30.396 107.614 29.0987C110.547 22.5012 111.077 18.3314 109.522 17.1824ZM109.275 17.0156C110.847 18.1646 110.353 22.3529 107.438 29.0061C109.293 30.3775 111.095 31.8786 112.844 33.4724C116.536 27.6903 117.844 24.1691 116.907 23.3352L113.975 20.7592C112.579 19.6287 110.724 18.0905 109.275 17.0156Z" fill="#161616"/>
<path d="M96.1484 8.84375C98.5513 10.1595 101.749 11.9572 104.081 13.4027C106.095 14.7 106.166 19.296 103.816 26.468C102.032 25.319 100.212 24.2812 98.3746 23.3361C99.894 15.3671 98.9046 10.2337 96.1484 8.84375Z" fill="black"/>
<path d="M96.1478 8.84457C98.5507 10.1604 101.749 11.958 104.081 13.4035C106.095 14.7008 106.166 19.2968 103.816 26.4689C102.031 25.3199 100.211 24.282 98.374 23.3369C99.8934 15.368 98.904 10.2345 96.1478 8.84457ZM95.8828 8.71484C98.6567 10.1048 99.6814 15.2568 98.1796 23.2628C100.141 24.245 102.067 25.3569 103.975 26.5801C106.36 19.4266 106.325 14.8491 104.328 13.5703C101.837 12.0507 98.4623 10.0862 95.8828 8.71484Z" fill="#161616"/>
<path d="M81.6074 3.13672L83.4272 3.67416C85.459 4.37839 88.1622 5.30501 90.1763 6.1019C93.4979 7.45476 95.2293 12.9403 94.3636 21.5023C92.5085 20.7425 90.6357 20.0753 88.7452 19.5564C88.6216 10.2161 85.777 4.30426 81.6074 3.13672Z" fill="black"/>
<path d="M81.6069 3.13663L83.4267 3.67407C85.4585 4.3783 88.1617 5.30492 90.1758 6.10181C93.4974 7.45467 95.2288 12.9403 94.3631 21.5022C92.508 20.7424 90.6352 20.0752 88.7447 19.5563C88.621 10.216 85.7765 4.30417 81.6069 3.13663ZM81.3242 3.0625C85.5115 4.23004 88.409 10.1604 88.568 19.5193C90.5645 20.0752 92.561 20.7795 94.5398 21.5949C95.4408 13.07 93.7447 7.60293 90.4408 6.23154C88.3384 5.43464 85.5468 4.3783 83.4267 3.67407L81.3242 3.0625Z" fill="#161616"/>
<path d="M66.1133 0.484375C67.8977 0.651166 70.2829 0.83649 72.0673 1.07741L75.2299 1.61485C80.4949 3.04184 83.6751 8.74981 84.7175 18.5905C82.8447 18.2384 80.9719 17.9975 79.1168 17.8863C76.9967 7.23016 71.82 0.780893 66.1133 0.484375Z" fill="black"/>
<path d="M66.1129 0.484375C67.8973 0.651166 70.2825 0.83649 72.0669 1.07741L75.2295 1.61485C80.4945 3.04184 83.6747 8.74982 84.7171 18.5905C82.8443 18.2384 80.9715 17.9975 79.1164 17.8863C76.9962 7.23016 71.8196 0.780893 66.1129 0.484375ZM65.8125 0.484375C73.816 1.46659 77.3673 10.4919 78.922 17.8863C80.9008 17.9975 82.8796 18.2384 84.8761 18.6276C83.9927 8.74982 80.2825 2.57853 75.5121 1.67045L72.0669 1.07741C70.1765 0.892087 67.6853 0.595569 65.8125 0.484375Z" fill="#161616"/>
<path d="M50.0176 1.6157C52.8268 1.17093 56.6077 0.689085 59.4345 0.466697C65.7596 0.170179 72.067 6.71211 75.1412 17.8871C73.3215 17.9798 71.5193 18.1837 69.7526 18.5358C62.4204 0.72615 52.7914 1.07827 50.0176 1.6157Z" fill="black"/>
<path d="M50.0172 1.6164C52.8263 1.17163 56.6073 0.689786 59.4341 0.467397C65.7592 0.170879 72.0666 6.71281 75.1408 17.8878C73.321 17.9805 71.5189 18.1844 69.7521 18.5365C62.42 0.72685 52.791 1.07897 50.0172 1.6164ZM49.7168 1.672C56.8723 0.189411 64.9995 6.71281 69.5755 18.5735C71.4482 18.1844 73.374 17.962 75.3175 17.8693C72.2963 6.71281 66.0419 0.189411 59.7521 0.448865C53.1974 0.967771 53.0737 0.986304 49.7168 1.672Z" fill="#161616"/>
<path d="M34.0273 7.25162L36.2182 6.15821C38.303 5.28719 41.0945 4.11965 43.2323 3.37836C50.8295 0.89502 60.2994 7.27016 65.9885 19.5015C64.6811 19.9278 63.409 20.4281 62.1722 21.0212C61.7835 21.2065 61.3948 21.3918 61.0061 21.5957C53.5856 8.99367 42.0309 3.06331 34.0273 7.25162Z" fill="black"/>
<path d="M34.0288 7.24953L36.2196 6.15612C38.3044 5.2851 41.0959 4.11756 43.2337 3.37627C50.8309 0.892927 60.3009 7.26806 65.9899 19.4994C64.6825 19.9257 63.4104 20.4261 62.1737 21.0191C61.785 21.2044 61.3963 21.3897 61.0076 21.5936C53.5871 8.99157 42.0323 3.06121 34.0288 7.24953ZM33.7461 7.39779C41.7673 3.15388 53.3927 9.0657 60.8486 21.6863C61.2903 21.4639 61.732 21.2415 62.1737 21.0191C63.4811 20.4075 64.8062 19.8886 66.1666 19.4624C60.5482 7.231 51.1313 0.855862 43.5517 3.2836C41.3433 4.09903 38.3927 5.21097 36.2373 6.15612L33.7461 7.39779Z" fill="#161616"/>
<path d="M20.1055 17.3122L23.4094 14.3285C24.7344 13.3092 26.4659 11.9193 27.8263 10.9741C35.9005 5.41442 49.0277 10.8444 57.7026 23.5761C56.9076 24.1321 56.1302 24.7066 55.3882 25.3367C54.7874 25.8371 54.2044 26.356 53.6567 26.8934C43.4977 14.625 28.745 10.0475 20.7945 16.6821C20.5472 16.886 20.3175 17.0898 20.1055 17.3122Z" fill="black"/>
<path d="M20.1066 17.3131L23.4105 14.3294C24.7356 13.3101 26.4671 11.9202 27.8275 10.975C35.9017 5.41532 49.0289 10.8453 57.7038 23.5771C56.9088 24.133 56.1314 24.7075 55.3893 25.3376C54.7886 25.838 54.2056 26.3569 53.6579 26.8944C43.4989 14.6259 28.7462 10.0484 20.7957 16.683C20.5483 16.8869 20.3186 17.0907 20.1066 17.3131ZM19.877 17.5355C20.1066 17.3131 20.354 17.0907 20.6013 16.8869C28.5695 10.2337 43.3399 14.7927 53.5342 27.0241C54.1349 26.4496 54.7533 25.8751 55.3893 25.3376C56.1667 24.689 56.9971 24.0589 57.8451 23.4844C49.2232 10.7526 36.149 5.30413 28.0925 10.7897C26.6791 11.8461 24.7709 13.1989 23.4105 14.3294L19.877 17.5355Z" fill="#161616"/>
<path d="M9.7168 30.582C11.1126 28.3952 13.0384 25.5226 14.5755 23.447L15.2822 22.5575C15.7769 21.9644 16.3246 21.3899 16.9429 20.8895C24.9111 14.2364 40.2292 18.1838 51.1125 29.6739C50.0171 31.0268 49.0101 32.4723 48.1267 33.9919C33.6037 21.9459 16.3776 20.4262 9.7168 30.582Z" fill="black"/>
<path d="M9.7176 30.5806C11.1134 28.3938 13.0392 25.5213 14.5763 23.4456L15.283 22.5561C15.7777 21.963 16.3254 21.3885 16.9438 20.8882C24.912 14.235 40.23 18.1824 51.1134 29.6725C50.018 31.0254 49.0109 32.4709 48.1275 33.9906C33.6045 21.9445 16.3784 20.4249 9.7176 30.5806ZM9.55859 30.8586C10.2476 29.6725 11.1487 28.5976 12.2794 27.6525C20.2476 20.9994 36.2724 23.9089 48.0392 34.1203C48.9756 32.4894 50.0356 30.9512 51.2194 29.5243C40.3713 17.9971 25.0533 14.0312 17.1028 20.6843C16.5021 21.1847 15.972 21.7221 15.495 22.3152L14.5763 23.4456C13.0038 25.6139 10.9897 28.5791 9.55859 30.8586Z" fill="#161616"/>
<path d="M3.17969 45.8143L3.28569 45.4437C4.18675 42.8121 5.45884 39.3465 6.51891 36.7891C7.22562 35.2323 8.2857 33.8239 9.73446 32.6193C17.7027 25.9662 34.1161 28.1159 46.3599 37.4192C45.6179 39.05 44.9818 40.7735 44.4694 42.5526C31.6956 34.6949 14.8228 33.7312 6.8546 40.3843C4.98181 41.9411 3.76273 43.7943 3.17969 45.8143Z" fill="black"/>
<path d="M3.18014 45.8168L3.28614 45.4461C4.1872 42.8145 5.45929 39.349 6.51936 36.7915C7.22607 35.2348 8.28614 33.8263 9.73491 32.6217C17.7031 25.9686 34.1165 28.1183 46.3603 37.4216C45.6183 39.0524 44.9823 40.776 44.4699 42.5551C31.696 34.6973 14.8232 33.7337 6.85505 40.3868C4.98226 41.9435 3.76317 43.7967 3.18014 45.8168ZM3.0918 46.1133C3.67484 44.0933 4.91159 42.2215 6.78438 40.6462C14.7526 33.9931 31.6254 34.9197 44.4169 42.7033C44.9646 40.813 45.636 38.9783 46.431 37.2363C34.2225 27.896 17.8091 25.7091 9.84091 32.3623C8.40982 33.5483 7.34975 34.9568 6.64303 36.495C5.54763 39.1451 4.1872 42.7033 3.28614 45.4276L3.0918 46.1133Z" fill="#161616"/>
<path d="M0.246094 61.903L0.723125 57.3997L1.53585 52.47C1.99521 50.2276 3.24963 48.1335 5.4051 46.3358C13.3733 39.6827 30.4581 39.7383 43.497 46.4656C43.1259 48.3188 42.8609 50.2462 42.7196 52.2106C29.451 47.1142 12.1896 48.3929 4.22136 55.046C1.73019 57.1217 0.44044 59.4753 0.246094 61.903Z" fill="black"/>
<path d="M0.246183 61.903L0.723215 57.3997L1.53594 52.47C1.9953 50.2276 3.24972 48.1335 5.40519 46.3358C13.3734 39.6827 30.4582 39.7383 43.4971 46.4656C43.126 48.3188 42.861 50.2462 42.7197 52.2106C29.4511 47.1142 12.1896 48.3929 4.22145 55.046C1.73028 57.1217 0.44053 59.4753 0.246183 61.903ZM0.228516 62.1995C0.405194 59.7718 1.69495 57.3997 4.20378 55.324C12.172 48.6709 29.4335 47.3551 42.702 52.3959C42.8434 50.3018 43.126 48.2632 43.5324 46.2802C30.4935 39.5159 13.4087 39.4047 5.4582 46.0578C3.32039 47.837 2.06597 49.9311 1.60661 52.155C1.34159 53.7302 0.935229 55.8059 0.740883 57.3811L0.228516 62.1995Z" fill="#161616"/>
<path d="M0.600527 78.2481C0.388513 75.635 0.123495 72.1694 0.0351562 69.5564V68.778C0.830209 57.7142 23.1094 51.302 42.597 56.5281C42.6147 58.5481 42.7383 60.6052 42.968 62.6809C29.7701 60.5682 12.544 64.2561 4.59346 70.8907C1.60759 73.374 0.33551 75.913 0.600527 78.2481Z" fill="black"/>
<path d="M0.600617 78.2473C0.388603 75.6343 0.123585 72.1687 0.035246 69.5557V68.7773C0.830299 57.7135 23.1094 51.3013 42.5971 56.5274C42.6147 58.5474 42.7384 60.6045 42.9681 62.6802C29.7702 60.5675 12.5441 64.2554 4.59355 70.89C1.60768 73.3733 0.335599 75.9123 0.600617 78.2473ZM0.635953 78.5624C0.370935 76.2458 1.64302 73.6884 4.61122 71.205C12.5794 64.5519 29.7879 60.8269 42.9681 62.884C42.7031 60.6601 42.5794 58.4733 42.5617 56.3235C22.9504 51.0603 0.671288 57.417 0.0175781 68.4437L0.035246 69.5371C0.158921 72.2614 0.370935 75.8567 0.635953 78.5624Z" fill="#161616"/>
<path d="M3.92244 94.425L3.7281 93.7393C3.05672 91.1448 2.19099 87.6793 1.64329 85.0477C0.848237 75.9853 23.6221 66.3114 43.6398 67.2195C44.0461 69.3322 44.5585 71.4634 45.1945 73.6132C23.7104 75.6888 2.244 87.7904 3.92244 94.425Z" fill="black"/>
<path d="M3.92234 94.4268L3.728 93.7411C3.05662 91.1466 2.1909 87.681 1.64319 85.0495C0.848139 75.9871 23.622 66.3132 43.6397 67.2213C44.046 69.334 44.5584 71.4652 45.1944 73.615C23.7103 75.6906 2.2439 87.7922 3.92234 94.4268ZM4.01068 94.7234C3.48065 92.9257 4.75273 90.5165 8.07429 87.7552C16.0425 81.1021 32.7209 74.8567 45.2474 73.8003C44.5584 71.5208 44.0107 69.2599 43.5867 66.9989C30.5655 66.1094 13.516 70.7981 5.54779 77.4512C2.43825 80.0642 1.18383 82.5846 1.57252 84.7529C2.17323 87.4587 2.98595 91.0725 3.71033 93.7411L4.01068 94.7234Z" fill="#161616"/>
<path d="M10.1063 110.18L7.96847 105.547L6.16635 101.081C5.61865 99.5798 6.94374 97.3003 10.3536 94.4648C18.3218 87.8117 34.6469 80.5285 46.7671 78.2305C47.5798 80.3802 48.4985 82.5114 49.5409 84.6427C38.2158 88.7569 22.5268 97.5227 14.5586 104.176C11.0427 107.122 9.61158 109.161 10.1063 110.18Z" fill="black"/>
<path d="M10.1057 110.18L7.96788 105.547L6.16576 101.081C5.61805 99.5795 6.94314 97.3 10.353 94.4646C18.3212 87.8114 34.6463 80.5282 46.7665 78.2302C47.5792 80.38 48.4979 82.5112 49.5403 84.6424C38.2152 88.7566 22.5262 97.5224 14.558 104.176C11.0421 107.122 9.61099 109.161 10.1057 110.18ZM10.247 110.458C9.25763 106.288 31.7135 91.6847 49.6463 84.8463C48.5332 82.5853 47.5438 80.3058 46.6958 78.0078C25.6711 82.2332 4.54031 95.1873 6.05975 100.766L7.96788 105.528L10.247 110.458Z" fill="#161616"/>
<path d="M18.9035 124.95C17.2427 122.467 15.0696 119.15 13.5325 116.592C13.1615 115.962 14.6986 114.109 18.2851 111.125C26.2533 104.472 41.377 94.6497 52.0131 89.2383C53.2145 91.3324 54.5042 93.3339 55.8823 95.2428C46.3417 102.378 32.1191 113.571 24.1509 120.224C20.5113 123.245 18.7975 124.802 18.9035 124.95Z" fill="black"/>
<path d="M18.9044 124.951C17.2437 122.468 15.0705 119.15 13.5334 116.593C13.1624 115.963 14.6995 114.109 18.2861 111.126C26.2543 104.473 41.3779 94.6505 52.014 89.239C53.2154 91.3332 54.5052 93.3347 55.8833 95.2435C46.3426 102.378 32.12 113.572 24.1518 120.225C20.5122 123.246 18.7984 124.803 18.9044 124.951ZM19.0811 125.21C18.9928 125.081 20.7066 123.524 24.3108 120.503C32.279 113.85 46.484 102.601 55.9716 95.4288C54.5052 93.3903 53.1447 91.259 51.855 89.0352C41.1836 94.391 26.0423 104.176 18.0741 110.811C14.5228 113.794 12.9857 115.648 13.3567 116.315C15.0352 119.021 17.2967 122.597 19.0811 125.21Z" fill="#161616"/>
<path d="M29.5402 137.627L27.3141 135.292C26.0596 133.865 24.3635 131.993 23.1621 130.51C23.3035 130.677 25.1586 129.287 28.7628 126.285C36.731 119.632 50.2469 107.512 58.9218 99.2461C60.3883 101.044 61.9254 102.749 63.5155 104.342C56.148 114.053 43.6745 127.36 35.7239 134.013C32.1374 137.015 30.0702 138.146 29.5402 137.627Z" fill="black"/>
<path d="M29.5412 137.626L27.315 135.291C26.0606 133.864 24.3645 131.993 23.1631 130.51C23.3044 130.677 25.1596 129.287 28.7638 126.285C36.732 119.632 50.2479 107.511 58.9228 99.2459C60.3892 101.044 61.9263 102.749 63.5165 104.342C56.149 114.053 43.6755 127.36 35.7249 134.013C32.1384 137.015 30.0712 138.145 29.5412 137.626ZM29.7532 137.849C30.3009 138.386 32.368 137.237 35.9369 134.272C43.9051 127.619 56.3256 114.276 63.6578 104.528C61.9617 102.823 60.3362 101.006 58.7815 99.0977C50.0712 107.307 36.52 119.409 28.5518 126.062C24.9475 129.083 23.0924 130.454 22.9688 130.306C24.2762 131.807 25.9723 133.864 27.315 135.328L29.7532 137.849Z" fill="#161616"/>
<path d="M41.7127 148.095C39.9989 146.779 37.7021 145.037 36.0236 143.647L34.4512 142.294C35.2816 143.017 37.49 142.016 41.0236 139.07C48.9918 132.417 60.6349 118.35 67.013 107.676C68.6738 109.14 70.3876 110.511 72.1367 111.771C67.225 123.614 56.748 138.625 48.7798 145.278C45.3699 148.132 42.9671 148.984 41.7127 148.095Z" fill="black"/>
<path d="M41.7137 148.096C40 146.78 37.7031 145.038 36.0247 143.648L34.4522 142.295C35.2826 143.018 37.4911 142.017 41.0247 139.07C48.9929 132.417 60.636 118.351 67.0141 107.677C68.6749 109.141 70.3887 110.512 72.1378 111.772C67.2261 123.614 56.7491 138.626 48.7809 145.279C45.371 148.133 42.9682 148.985 41.7137 148.096ZM41.9611 148.281C43.2155 149.171 45.636 148.318 49.0459 145.483C57.0141 138.83 67.4381 123.781 72.3144 111.921C70.4593 110.586 68.6395 109.122 66.8728 107.547C60.4593 118.166 48.7632 132.213 40.795 138.867C37.2614 141.813 35.053 142.814 34.2402 142.11L36.0424 143.666C37.7915 145.056 40.1236 146.947 41.9611 148.281Z" fill="#161616"/>
<path d="M55.1948 156.194C52.7744 154.915 49.5588 153.192 47.209 151.783C48.7461 152.728 51.2549 151.95 54.5765 149.17C62.5447 142.517 72.1206 126.894 75.9546 114.348C77.7567 115.46 79.5765 116.479 81.4139 117.368C79.1348 130.786 70.8132 147.094 62.845 153.747C59.7178 156.379 57.0853 157.12 55.1948 156.194Z" fill="black"/>
<path d="M55.1942 156.197C52.7737 154.918 49.5581 153.194 47.2083 151.786C48.7454 152.731 51.2542 151.953 54.5758 149.173C62.544 142.52 72.1199 126.897 75.9539 114.35C77.756 115.462 79.5758 116.482 81.4132 117.371C79.1341 130.789 70.8125 147.097 62.8443 153.75C59.7171 156.382 57.0846 157.123 55.1942 156.197ZM55.4592 156.326C57.3496 157.234 59.9821 156.512 63.127 153.88C71.0952 147.227 79.3814 130.9 81.6076 117.464C79.6465 116.519 77.703 115.444 75.7949 114.258C71.9079 126.767 62.279 142.371 54.3284 149.025C51.0069 151.804 48.4804 152.583 46.9609 151.638C49.4874 153.102 52.862 155.029 55.4592 156.326Z" fill="#161616"/>
<path d="M69.8407 161.664L66.5721 160.718C64.9643 160.162 62.8089 159.458 61.2188 158.828C63.3036 159.625 65.9537 158.902 68.9396 156.4C76.9078 149.747 84.3106 133.031 85.4414 119.113C87.3142 119.836 89.187 120.466 91.0597 120.948C91.5191 135.385 85.406 152.527 77.4555 159.18C74.717 161.497 72.1021 162.238 69.8407 161.664Z" fill="black"/>
<path d="M69.8401 161.661L66.5716 160.715C64.9638 160.159 62.8083 159.455 61.2182 158.825C63.303 159.622 65.9532 158.899 68.9391 156.397C76.9073 149.744 84.3101 133.028 85.4408 119.11C87.3136 119.833 89.1864 120.463 91.0592 120.945C91.5186 135.382 85.4055 152.524 77.455 159.177C74.7165 161.494 72.1016 162.235 69.8401 161.661ZM70.1228 161.735C72.3843 162.309 74.9815 161.549 77.72 159.27C85.6882 152.617 91.7483 135.456 91.2359 121.019C89.2394 120.5 87.243 119.852 85.2465 119.055C84.0628 132.935 76.6069 149.652 68.6564 156.305C65.6529 158.807 63.0027 159.529 60.9355 158.732C62.6317 159.344 64.8578 160.178 66.5716 160.715L70.1228 161.735Z" fill="#161616"/>
<path d="M85.4235 163.961C83.1797 163.794 80.1938 163.572 77.95 163.294L76.2539 163.034C78.5507 163.424 81.0596 162.627 83.5861 160.533C91.5543 153.879 96.7133 136.533 95.1055 121.855C96.9783 122.171 98.8511 122.356 100.689 122.43C104.946 144.817 95.7062 164.313 85.4235 163.961Z" fill="black"/>
<path d="M85.423 163.959C83.1792 163.792 80.1933 163.57 77.9495 163.292L76.2534 163.032C78.5502 163.422 81.059 162.625 83.5855 160.531C91.5537 153.877 96.7127 136.531 95.105 121.853C96.9778 122.169 98.8506 122.354 100.688 122.428C104.946 144.815 95.7057 164.311 85.423 163.959ZM85.7234 163.978C98.4089 163.347 104.646 140.608 100.882 122.428C98.9212 122.372 96.9248 122.169 94.9283 121.816C96.4831 136.494 91.2711 153.84 83.3205 160.475C80.7764 162.588 78.2675 163.366 75.9707 162.977L77.9672 163.292C80.2817 163.551 83.3912 163.978 85.7234 163.978Z" fill="#161616"/>
<path d="M101.536 162.46C98.7268 162.978 94.9636 163.553 92.1367 163.849C94.1509 163.701 96.165 162.867 98.0554 161.292C106.024 154.639 108.974 137.181 104.663 122.355C106.483 122.226 108.267 121.966 110.034 121.559C117.649 142.111 111.836 160.087 101.536 162.46Z" fill="black"/>
<path d="M101.538 162.458C98.7284 162.976 94.9651 163.551 92.1382 163.847C94.1524 163.699 96.1665 162.865 98.057 161.29C106.025 154.637 108.976 137.179 104.665 122.353C106.485 122.224 108.269 121.964 110.036 121.557C117.651 142.109 111.838 160.085 101.538 162.458ZM101.838 162.383C113.322 158.881 117.227 139.774 110.195 121.52C108.322 121.946 106.414 122.224 104.488 122.353C108.764 137.179 105.76 154.655 97.792 161.29C95.8838 162.884 93.8697 163.718 91.8379 163.847C97.5269 163.254 99.2407 163.088 101.838 162.383Z" fill="#161616"/>
<path d="M117.456 156.36L113.817 158.232C112.174 158.918 110.001 159.882 108.34 160.493C109.577 160.048 110.743 159.381 111.856 158.455C119.824 151.801 120.672 134.77 113.782 120.482C114.789 120.13 115.796 119.722 116.767 119.259C117.439 118.944 118.075 118.61 118.711 118.258C127.015 131.916 127.28 148.447 119.329 155.082C118.711 155.582 118.092 156.008 117.456 156.36Z" fill="black"/>
<path d="M117.456 156.363L113.817 158.235C112.174 158.921 110 159.884 108.34 160.496C109.576 160.051 110.742 159.384 111.855 158.457C119.824 151.804 120.672 134.773 113.781 120.485C114.788 120.132 115.795 119.725 116.767 119.261C117.439 118.946 118.075 118.613 118.711 118.261C127.014 131.919 127.28 148.45 119.329 155.084C118.711 155.585 118.092 156.011 117.456 156.363ZM117.739 156.196C118.357 155.844 118.958 155.437 119.523 154.955C127.492 148.302 127.174 131.808 118.834 118.168C118.163 118.557 117.456 118.909 116.732 119.243C115.707 119.725 114.647 120.151 113.587 120.522C120.442 134.829 119.541 151.878 111.573 158.531C110.46 159.458 109.258 160.144 108.004 160.589C109.753 159.903 112.085 159.013 113.781 158.235L117.739 156.196Z" fill="#161616"/>
<path d="M131.06 145.945C129.735 147.187 127.986 148.892 126.608 150.06L123.534 152.45C123.746 152.302 123.958 152.135 124.17 151.95C132.138 145.297 131.113 129.248 121.908 116.182C122.456 115.775 123.004 115.367 123.516 114.922C124.329 114.236 125.106 113.514 125.848 112.754C135.777 124.392 137.951 138.922 131.06 145.945Z" fill="black"/>
<path d="M131.059 145.947C129.734 147.189 127.985 148.894 126.607 150.061L123.532 152.452C123.744 152.304 123.956 152.137 124.168 151.952C132.137 145.299 131.112 129.25 121.907 116.184C122.455 115.777 123.002 115.369 123.515 114.924C124.327 114.238 125.105 113.516 125.847 112.756C135.776 124.394 137.949 138.923 131.059 145.947ZM131.289 145.706C138.108 138.664 135.9 124.209 125.971 112.645C125.193 113.441 124.38 114.22 123.515 114.924C122.949 115.387 122.366 115.851 121.766 116.277C130.935 129.379 131.925 145.447 123.956 152.1C123.727 152.285 123.497 152.471 123.267 152.637L126.607 150.043C128.038 148.783 129.946 147.078 131.289 145.706Z" fill="#161616"/>
<path d="M141.077 132.418C139.557 134.92 137.419 138.181 135.723 140.572C141.324 133.307 138.373 120.261 128.303 109.938C129.363 108.567 130.335 107.084 131.183 105.527C141.289 114.089 145.087 125.209 141.077 132.418Z" fill="black"/>
<path d="M141.077 132.418C139.558 134.92 137.42 138.181 135.724 140.572C141.324 133.307 138.374 120.26 128.303 109.938C129.363 108.566 130.335 107.084 131.183 105.527C141.289 114.089 145.088 125.209 141.077 132.418ZM141.236 132.14C145.194 124.931 141.36 113.885 131.289 105.379C130.388 107.028 129.363 108.604 128.215 110.068C138.286 120.427 141.218 133.567 135.547 140.813C139.31 135.587 139.452 135.383 141.236 132.14Z" fill="#161616"/>
<path d="M147.278 117.09L146.748 118.962C146.006 121.149 144.999 124.04 144.151 126.171C147.137 119.184 142.896 109.399 132.914 102.06C133.621 100.392 134.221 98.6687 134.699 96.8711C149.045 105.878 147.949 114.625 147.278 117.09Z" fill="black"/>
<path d="M147.278 117.092L146.748 118.963C146.006 121.15 144.999 124.041 144.151 126.173C147.137 119.186 142.897 109.401 132.915 102.062C133.621 100.394 134.222 98.6705 134.699 96.8728C149.045 105.88 147.95 114.627 147.278 117.092ZM147.349 116.795C149.416 106.584 139.204 99.3376 134.734 96.6875C134.222 98.5963 133.586 100.45 132.826 102.21C142.826 109.605 147.031 119.445 144.01 126.432C144.876 124.208 146.006 121.206 146.731 118.926L147.349 116.795Z" fill="#161616"/>
<path d="M149.875 100.949C149.716 102.765 149.54 105.193 149.31 107.009L148.78 110.382C149.716 101.95 142.119 96.2049 135.582 92.8876C135.918 91.0158 136.13 89.0699 136.253 87.1055C147.861 91.6644 150.07 97.15 149.875 100.949Z" fill="black"/>
<path d="M149.876 100.95C149.716 102.766 149.54 105.194 149.31 107.01L148.78 110.383C149.716 101.951 142.119 96.2056 135.582 92.8883C135.918 91.0165 136.13 89.0706 136.254 87.1062C147.861 91.6652 150.07 97.1508 149.876 100.95ZM149.893 100.635C150.194 95.4643 145.3 90.1455 136.254 86.9023C136.148 89.015 135.9 91.0721 135.547 93.0551C145.035 97.7623 149.823 104.693 148.727 110.679L149.31 106.991C149.487 105.101 149.77 102.544 149.893 100.635Z" fill="#161616"/>
<path d="M149.24 84.5841C149.523 87.4196 149.858 91.2187 149.982 94.0727C149.311 87.6049 142.191 84.3617 136.307 82.7679C136.254 80.7294 136.095 78.6723 135.812 76.5781C144.01 77.7086 148.745 80.8035 149.24 84.5841Z" fill="black"/>
<path d="M149.24 84.5848C149.523 87.4203 149.859 91.2194 149.982 94.0734C149.311 87.6056 142.191 84.3625 136.307 82.7687C136.254 80.7301 136.095 78.673 135.813 76.5789C144.01 77.7093 148.745 80.8042 149.24 84.5848ZM149.187 84.2883C148.692 80.5448 143.957 77.4684 135.795 76.375C136.095 78.5989 136.272 80.8042 136.307 82.9725C145.018 85.3632 149.876 89.7554 149.982 94.3885C149.823 91.3492 149.558 87.2906 149.187 84.2883Z" fill="#161616"/>
<path d="M145.619 68.443L146.29 70.6483C146.838 72.7981 147.598 75.6335 148.075 77.8018C146.979 74.2992 142.598 72.3533 135.036 72.0197C134.594 69.907 134.029 67.7573 133.357 65.6261C136.078 65.4037 144.311 64.718 145.619 68.443Z" fill="black"/>
<path d="M145.617 68.4457L146.289 70.651C146.836 72.8008 147.596 75.6362 148.073 77.8045C146.978 74.3019 142.596 72.356 135.034 72.0224C134.592 69.9097 134.027 67.76 133.356 65.6287C136.077 65.4064 144.31 64.7207 145.617 68.4457ZM145.529 68.1492C144.787 66.5368 142.702 64.5168 133.303 65.4249C134.027 67.7044 134.628 69.9839 135.087 72.2263C142.914 72.5784 147.49 74.8764 148.144 78.101C147.614 75.8586 146.925 72.8564 146.306 70.651L145.529 68.1492Z" fill="#161616"/>
<path d="M139.187 52.7466C140.053 54.5813 141.255 56.9905 142.05 58.8437L143.269 61.8089C142.544 59.9372 138.534 59.5109 131.714 60.9935C130.866 58.8437 129.912 56.7125 128.816 54.5813C135.035 52.135 138.604 51.5976 139.187 52.7466Z" fill="black"/>
<path d="M139.186 52.7477C140.052 54.5824 141.253 56.9916 142.048 58.8449L143.267 61.8101C142.543 59.9383 138.532 59.512 131.713 60.9946C130.864 58.8449 129.91 56.7137 128.815 54.5824C135.034 52.1362 138.603 51.5987 139.186 52.7477ZM139.027 52.4697C138.462 51.3393 134.91 51.8952 128.709 54.3786C129.875 56.6395 130.9 58.919 131.801 61.1985C134.61 60.6611 142.066 59.2155 143.391 62.1066L142.048 58.8449C141.147 56.936 139.999 54.3415 139.027 52.4697Z" fill="#161616"/>
<path d="M54.0273 27.378C54.575 26.8406 55.1581 26.3217 55.7411 25.8398C65.0874 38.4789 66.3418 53.9164 58.4796 60.4769L58.3206 60.6251C65.3878 53.7496 63.568 39.2017 54.0273 27.378Z" fill="black"/>
<path d="M54.0272 27.3767C54.5749 26.8392 55.1579 26.3203 55.741 25.8385C65.0873 38.4776 66.3417 53.915 58.4795 60.4755L58.3205 60.6238C65.3876 53.7482 63.5678 39.2003 54.0272 27.3767ZM53.6738 27.1914C63.4265 39.015 65.3876 53.6926 58.3028 60.6238L58.4795 60.457C66.3947 53.8409 65.0696 38.1996 55.5113 25.5234C54.8752 26.0609 54.2745 26.6168 53.6738 27.1914Z" fill="#161616"/>
<path d="M48.5684 34.3825C49.4518 32.8814 50.4412 31.4359 51.5189 30.1016C61.2362 40.628 63.8687 53.7489 58.056 60.8838L58.0207 60.9394C57.897 61.1062 57.7556 61.3286 57.6496 61.4954C61.8369 54.3604 58.3387 43.1669 48.5684 34.3825Z" fill="black"/>
<path d="M48.5683 34.3801C49.4517 32.879 50.4411 31.4334 51.5188 30.0991C61.2361 40.6255 63.8686 53.7464 58.0559 60.8814L58.0206 60.937C57.8969 61.1038 57.7556 61.3262 57.6496 61.493C61.8368 54.358 58.3386 43.1644 48.5683 34.3801ZM48.1973 34.2874C58.1619 43.0533 61.8015 54.3209 57.6142 61.53C57.7202 61.3447 57.8792 61.1223 58.0029 60.937L58.0559 60.8629C63.9747 53.6908 61.2715 40.329 51.3598 29.6914C50.1937 31.1184 49.1337 32.6566 48.1973 34.2874Z" fill="#161616"/>
<path d="M44.9473 42.8318C45.4596 41.0712 46.0957 39.3848 46.8201 37.7539C56.502 45.3151 60.4773 55.1929 57.3148 62.1425C57.1734 62.4946 56.9967 62.9579 56.8907 63.3101L56.8731 63.3657C58.7812 56.9349 54.3819 48.7992 44.9473 42.8318Z" fill="black"/>
<path d="M44.9471 42.8313C45.4595 41.0708 46.0955 39.3843 46.8199 37.7535C56.5019 45.3147 60.4771 55.1924 57.3146 62.1421C57.1733 62.4942 56.9966 62.9575 56.8906 63.3096L56.8729 63.3652C58.781 56.9345 54.3817 48.7988 44.9471 42.8313ZM44.5938 42.8128C54.2227 48.7432 58.7457 56.9345 56.8552 63.4208L56.8906 63.3096C57.0142 62.939 57.1909 62.4571 57.3323 62.105C60.5655 55.0812 56.5019 45.0182 46.6079 37.3828C45.8128 39.1249 45.1415 40.941 44.5938 42.8128Z" fill="#161616"/>
<path d="M43.2148 52.4131C43.3562 50.4672 43.6212 48.5769 43.9746 46.7422C53.1795 51.6347 57.7732 58.6214 56.5541 64.5889L56.3951 65.5711L56.2891 66.646C56.7131 61.4198 52.0134 55.9157 43.2148 52.4131Z" fill="black"/>
<path d="M43.2145 52.4126C43.3558 50.4667 43.6209 48.5764 43.9742 46.7417C53.1792 51.6343 57.7728 58.621 56.5537 64.5884L56.3947 65.5706L56.2887 66.6455C56.7127 61.4194 52.0131 55.9153 43.2145 52.4126ZM42.8965 52.4682C51.8717 55.9338 56.6951 61.4379 56.3064 66.7011L56.43 65.5521C56.483 65.2371 56.5361 64.8293 56.6067 64.5143C57.8611 58.4542 53.1615 51.3378 43.7445 46.3711C43.3205 48.3541 43.0378 50.3926 42.8965 52.4682Z" fill="#161616"/>
<path d="M43.4452 62.7534C43.2156 60.6963 43.0919 58.6577 43.0742 56.6562C51.5371 59.2322 56.2191 63.7356 56.2544 68.3687V68.5726C56.2898 69.3695 56.3604 70.4073 56.4311 71.2042C56.0071 67.3865 51.4134 64.1433 43.4452 62.7534Z" fill="black"/>
<path d="M43.4449 62.753C43.2152 60.696 43.0915 58.6574 43.0739 56.6559C51.5368 59.2319 56.2188 63.7353 56.2541 68.3684V68.5722C56.2894 69.3691 56.3601 70.4069 56.4308 71.2038C56.0067 67.3861 51.4131 64.143 43.4449 62.753ZM43.1622 62.9013C51.3071 64.2171 55.9891 67.4603 56.4308 71.315C56.3601 70.4996 56.2718 69.4062 56.2364 68.5907V68.2942C56.2364 63.5685 51.4131 58.9724 42.7559 56.3594C42.7735 58.5091 42.8972 60.6959 43.1622 62.9013Z" fill="#161616"/>
<path d="M45.6894 73.5578C45.0534 71.4451 44.541 69.3324 44.1523 67.2383C49.3644 67.7572 55.5128 68.9247 56.7848 73.4837C56.9969 74.4288 57.2796 75.689 57.5446 76.6157L57.6152 76.8751C56.8732 74.4103 52.7212 73.076 45.6894 73.5578Z" fill="black"/>
<path d="M45.6894 73.5586C45.0533 71.4459 44.541 69.3332 44.1523 67.239C49.3643 67.7579 55.5127 68.9255 56.7848 73.4844C56.9968 74.4296 57.2795 75.6898 57.5445 76.6164L57.6152 76.8759C56.8731 74.411 52.7212 73.0767 45.6894 73.5586ZM45.442 73.7995C52.6505 73.225 56.8908 74.5222 57.6328 77.0056L57.5268 76.6349C57.2795 75.6712 56.9438 74.374 56.7494 73.3918C56.1311 70.0559 51.5904 67.5911 43.7812 67.0352C44.2229 69.259 44.7707 71.52 45.442 73.7995Z" fill="#161616"/>
<path d="M49.9827 84.4942C48.9403 82.3815 48.0393 80.2688 47.2266 78.1376C53.8697 76.933 57.7743 77.5446 58.4987 79.4905L59.223 81.2881L60.1241 83.234C59.5234 82.0109 56.0252 82.3445 49.9827 84.4942Z" fill="black"/>
<path d="M49.9827 84.4954C48.9403 82.3827 48.0392 80.27 47.2265 78.1388C53.8696 76.9342 57.7742 77.5458 58.4986 79.4916L59.223 81.2893L60.124 83.2352C59.5233 82.0121 56.0251 82.3456 49.9827 84.4954ZM49.806 84.7919C52.1382 83.9765 59.223 81.4561 60.177 83.3649L59.223 81.3078L58.4456 79.3805C57.9862 78.528 56.7495 76.267 46.8555 77.9905C47.7212 80.27 48.6929 82.531 49.806 84.7919Z" fill="#161616"/>
<path d="M56.2186 94.9644C54.8758 93.0741 53.5861 91.0912 52.4023 89.0155C58.0031 86.1801 61.1479 85.2164 61.5896 85.9762C62.2787 87.0882 63.1974 88.5522 63.9394 89.6271C63.8158 89.4603 61.1833 91.258 56.2186 94.9644Z" fill="black"/>
<path d="M56.2185 94.9633C54.8758 93.073 53.586 91.0901 52.4023 89.0144C58.003 86.179 61.1479 85.2153 61.5896 85.9751C62.2786 87.0871 63.1973 88.5511 63.9394 89.626C63.8157 89.4592 61.1832 91.2568 56.2185 94.9633ZM56.1302 95.3154C61.2362 91.4607 63.904 89.5889 64.0277 89.7557C63.2503 88.6067 62.2433 87.05 61.5189 85.8639C61.0772 85.067 57.8086 86.0492 52.0312 88.9403C53.3033 91.1642 54.6638 93.2954 56.1302 95.3154Z" fill="#161616"/>
<path d="M63.7809 103.989C62.2084 102.395 60.689 100.708 59.2402 98.9478C63.7632 94.6298 65.9717 92.2947 65.795 92.1094C66.3427 92.7395 67.0494 93.592 67.6148 94.2035L68.5865 95.2043C69.2226 95.8159 67.6325 98.8552 63.7809 103.989Z" fill="black"/>
<path d="M63.7807 103.989C62.2083 102.396 60.6888 100.709 59.2401 98.9486C63.763 94.6306 65.9715 92.2955 65.7948 92.1102C66.3426 92.7403 67.0493 93.5928 67.6146 94.2044L68.5864 95.2051C69.2224 95.8167 67.6323 98.856 63.7807 103.989ZM63.763 104.36C67.7206 99.0598 69.3461 95.9279 68.6747 95.2792L67.6146 94.1858C67.0493 93.5187 66.2542 92.6662 65.7065 91.9805C65.8655 92.1658 63.5687 94.5379 58.8867 98.9486C60.4415 100.857 62.0669 102.674 63.763 104.36Z" fill="#161616"/>
<path d="M72.3148 111.328C70.5834 110.067 68.8873 108.715 67.2441 107.269C70.601 101.561 71.6964 98.0771 70.6894 97.1875L71.3607 97.762C72.0498 98.318 72.9685 99.0593 73.6752 99.5782C75.3007 100.746 74.965 104.841 72.3148 111.328Z" fill="black"/>
<path d="M72.3145 111.327C70.583 110.066 68.8869 108.714 67.2438 107.268C70.6007 101.56 71.6961 98.076 70.689 97.1864L71.3604 97.7609C72.0495 98.3169 72.9682 99.0582 73.6749 99.5771C75.3003 100.745 74.9647 104.84 72.3145 111.327ZM72.3675 111.734C75.0883 105.063 75.4417 100.837 73.7632 99.6512C73.0389 99.0952 72.0495 98.3539 71.3427 97.7609L70.583 97.0938C71.5901 97.9833 70.4417 101.542 66.9258 107.379C68.7102 108.954 70.5124 110.4 72.3675 111.734Z" fill="#161616"/>
<path d="M81.519 116.87C79.6992 115.98 77.8971 114.979 76.1127 113.886C78.1975 106.844 77.9501 102.34 75.8477 101.043C76.7134 101.543 77.8971 102.211 78.7805 102.674C81.6074 104.027 82.7558 109.049 81.519 116.87Z" fill="black"/>
<path d="M81.5195 116.868C79.6997 115.978 77.8976 114.977 76.1131 113.884C78.1979 106.842 77.9506 102.338 75.8481 101.041C76.7138 101.541 77.8976 102.209 78.781 102.672C81.6078 104.025 82.7562 109.047 81.5195 116.868ZM81.6432 117.275C82.9329 109.269 81.7668 104.099 78.887 102.727C77.9329 102.227 76.6785 101.541 75.7598 101.004C77.8622 102.301 78.0566 106.916 75.8658 114.088C77.7562 115.255 79.682 116.33 81.6432 117.275Z" fill="#161616"/>
<path d="M91.0423 120.427C89.1871 119.945 87.332 119.334 85.4769 118.611C86.0776 110.234 84.1871 104.86 80.7949 103.562C81.3073 103.748 81.9787 103.989 82.491 104.156L83.4098 104.415C87.6324 105.508 90.6359 111.272 91.0423 120.427Z" fill="black"/>
<path d="M91.0427 120.429C89.1876 119.947 87.3325 119.335 85.4774 118.613C86.0781 110.236 84.1876 104.862 80.7954 103.564C81.3077 103.75 81.9791 103.991 82.4915 104.157L83.4102 104.417C87.6328 105.51 90.6364 111.274 91.0427 120.429ZM91.2371 120.818C90.8661 111.441 87.7918 105.529 83.4809 104.435L82.4915 104.157C81.9614 103.972 81.2371 103.731 80.707 103.527C84.1169 104.862 85.9721 110.329 85.283 118.872C87.2618 119.651 89.2406 120.299 91.2371 120.818Z" fill="#161616"/>
<path d="M100.565 121.853C98.7452 121.798 96.8901 121.594 95.035 121.298C93.8512 111.605 89.929 105.601 85.0703 104.785L85.4943 104.859C85.9714 104.915 86.5897 104.97 87.0668 105.008C95.141 105.823 98.8689 114.626 100.565 121.853Z" fill="black"/>
<path d="M100.565 121.856C98.7455 121.801 96.8904 121.597 95.0352 121.3C93.8515 111.608 89.9292 105.603 85.0706 104.788L85.4946 104.862C85.9716 104.918 86.59 104.973 87.067 105.01C95.1412 105.826 98.8692 114.629 100.565 121.856ZM100.83 122.209C97.3851 108.457 91.5017 105.251 87.1554 104.992C86.6607 104.955 86.007 104.899 85.5123 104.844L85.0176 104.77C89.8939 105.603 93.8162 111.738 94.9116 121.615C96.8904 121.949 98.8692 122.153 100.83 122.209Z" fill="#161616"/>
<path d="M109.804 121.003C108.073 121.392 106.289 121.652 104.504 121.781C101.165 110.829 94.6807 104.509 88.3203 104.973C88.7267 104.936 89.2567 104.861 89.6454 104.787C101.271 102.934 108.002 116.741 109.804 121.003Z" fill="black"/>
<path d="M109.805 121.002C108.073 121.392 106.289 121.651 104.504 121.781C101.165 110.828 94.6811 104.509 88.3207 104.972C88.727 104.935 89.2571 104.861 89.6458 104.787C101.271 102.933 108.003 116.74 109.805 121.002ZM110.105 121.317C102.314 103.601 92.4903 104.175 89.6634 104.787C88.78 104.953 88.78 104.953 88.25 104.99C94.6458 104.564 101.148 111.013 104.416 122.17C106.342 122.022 108.25 121.744 110.105 121.317Z" fill="#161616"/>
<path d="M118.357 117.739C117.739 118.091 117.085 118.424 116.432 118.721C115.46 119.184 114.488 119.573 113.481 119.925C107.509 107.972 97.8803 101.875 90.3008 104.581C90.4421 104.525 90.6365 104.451 90.7778 104.377L91.0252 104.247C98.9757 99.8363 110.672 105.452 118.357 117.739Z" fill="black"/>
<path d="M118.357 117.742C117.739 118.094 117.085 118.427 116.432 118.724C115.46 119.187 114.488 119.576 113.481 119.928C107.509 107.975 97.8804 101.878 90.3009 104.584C90.4422 104.528 90.6366 104.454 90.7779 104.38L91.0253 104.25C98.9758 99.8394 110.672 105.455 118.357 117.742ZM118.711 117.983C110.972 105.455 99.0641 99.7467 91.0606 104.269L90.7956 104.398C90.6366 104.454 90.4422 104.547 90.2832 104.602C97.9157 101.915 107.58 108.16 113.499 120.336C114.559 119.966 115.601 119.539 116.626 119.057C117.333 118.724 118.039 118.353 118.711 117.983Z" fill="#161616"/>
<path d="M123.144 114.46C122.631 114.886 122.101 115.312 121.554 115.701C112.578 103.322 99.3451 98.2439 91.3945 104.044L91.5359 103.933C99.3981 97.3728 113.479 102.099 123.144 114.46Z" fill="black"/>
<path d="M123.144 114.462C122.631 114.888 122.101 115.314 121.554 115.703C112.578 103.324 99.3451 98.2457 91.3946 104.046L91.536 103.935C99.3981 97.3747 113.479 102.1 123.144 114.462ZM123.373 114.758C113.709 102.175 99.4688 97.3191 91.536 103.935L91.377 104.065C99.3982 98.2828 112.72 103.509 121.642 116.111C122.225 115.685 122.808 115.221 123.373 114.758Z" fill="#161616"/>
</g>
<defs>
<clipPath id="clip0_3929_6592">
<rect width="150" height="163.622" fill="white" transform="translate(0 0.375)"/>
</clipPath>
</defs>
</svg>
