<svg width="225" height="243" viewBox="0 0 225 243" fill="none" xmlns="http://www.w3.org/2000/svg">
<g opacity="0.25" clip-path="url(#clip0_3929_6779)">
<path d="M139.001 151.805C138.471 152.354 137.888 152.875 137.305 153.369C137.411 153.287 137.543 153.15 137.649 153.067C138.073 152.628 138.524 152.216 139.001 151.805Z" fill="black"/>
<path d="M139.001 151.805C138.471 152.354 137.888 152.875 137.305 153.369C137.411 153.287 137.543 153.15 137.649 153.068C138.073 152.628 138.524 152.217 139.001 151.805ZM139.08 151.723C138.577 152.134 138.1 152.574 137.649 153.04C137.543 153.15 137.411 153.26 137.305 153.369C137.941 152.848 138.524 152.299 139.08 151.723Z" fill="#161616"/>
<path d="M142.898 146.617C142.262 147.743 141.573 148.785 140.804 149.774C139.771 150.624 138.843 151.585 138.021 152.628C138.233 152.354 138.472 151.942 138.658 151.64C139.718 149.774 141.122 148.072 142.898 146.617Z" fill="black"/>
<path d="M142.897 146.618C142.261 147.743 141.572 148.786 140.803 149.774C139.77 150.625 138.842 151.585 138.021 152.628C138.233 152.354 138.471 151.942 138.657 151.64C139.717 149.774 141.121 148.072 142.897 146.618ZM142.95 146.508C141.148 147.99 139.717 149.719 138.683 151.613C138.259 152.327 138.259 152.327 137.994 152.656C138.789 151.64 139.69 150.735 140.724 149.884C141.545 148.813 142.314 147.688 142.95 146.508Z" fill="#161616"/>
<path d="M145.442 140.387C145.097 141.677 144.647 142.912 144.143 144.119C141.864 145.986 140.221 148.182 139.188 150.624C139.347 150.185 139.559 149.609 139.718 149.17L139.85 148.676C141.122 145.025 141.997 143.516 145.442 140.387Z" fill="black"/>
<path d="M145.442 140.387C145.098 141.677 144.647 142.912 144.144 144.12C141.864 145.986 140.221 148.182 139.188 150.625C139.347 150.186 139.559 149.609 139.718 149.17L139.85 148.676C141.122 145.026 141.997 143.516 145.442 140.387ZM145.469 140.25C142.315 143.159 141.202 144.614 139.85 148.594L139.691 149.143C139.532 149.609 139.32 150.213 139.135 150.652C140.195 148.237 141.811 146.069 144.064 144.23C144.621 142.967 145.098 141.622 145.469 140.25Z" fill="#161616"/>
<path d="M146.581 133.363C146.501 134.791 146.342 136.163 146.104 137.535C143.666 139.786 141.36 141.899 140.273 146.84L140.432 145.824C140.485 145.165 140.591 144.315 140.644 143.656C140.936 141.186 141.413 137.782 146.581 133.363Z" fill="black"/>
<path d="M146.581 133.36C146.502 134.787 146.343 136.159 146.104 137.532C143.666 139.782 141.36 141.896 140.274 146.836L140.433 145.821C140.486 145.162 140.592 144.311 140.645 143.652C140.936 141.182 141.413 137.779 146.581 133.36ZM146.581 133.223C142.765 136.379 140.83 139.92 140.618 143.543C140.565 144.229 140.486 145.135 140.406 145.821L140.221 146.919C140.857 143.543 142.765 140.386 146.051 137.669C146.316 136.214 146.502 134.732 146.581 133.223Z" fill="#161616"/>
<path d="M146.264 125.812C146.476 127.322 146.582 128.804 146.608 130.259C142.765 133.745 140.884 136.242 140.645 140.991C140.566 139.701 140.433 137.999 140.301 136.709C139.85 133.305 141.758 129.518 146.264 125.812Z" fill="black"/>
<path d="M146.263 125.813C146.475 127.323 146.581 128.805 146.608 130.259C142.765 133.745 140.884 136.243 140.645 140.991C140.566 139.701 140.433 137.999 140.3 136.709C139.85 133.306 141.758 129.518 146.263 125.813ZM146.237 125.648C141.705 129.381 139.823 133.141 140.274 136.545C140.406 137.917 140.592 139.729 140.645 141.101C140.566 137.478 142.5 133.773 146.608 130.369C146.581 128.832 146.475 127.268 146.237 125.648Z" fill="#161616"/>
<path d="M144.486 117.938C144.99 119.475 145.388 121.012 145.706 122.521C140.829 126.858 139.319 129.547 139.716 133.253C139.425 132.1 139.08 130.563 138.736 129.41L138.338 128.175C138.073 126.638 137.543 123.784 144.486 117.938Z" fill="black"/>
<path d="M144.487 117.938C144.991 119.475 145.389 121.012 145.707 122.522C140.83 126.858 139.32 129.548 139.717 133.253C139.426 132.101 139.081 130.564 138.737 129.411L138.339 128.176C138.074 126.639 137.544 123.784 144.487 117.938ZM144.434 117.773C141.758 120.106 137.252 124.031 138.286 127.984L138.737 129.411C139.055 130.618 139.479 132.21 139.744 133.418C139.108 130.289 141.016 126.556 145.733 122.659C145.389 121.067 144.964 119.42 144.434 117.773Z" fill="#161616"/>
<path d="M141.175 110.004C141.97 111.541 142.659 113.078 143.295 114.615C138.154 118.869 136.14 122.19 136.961 124.276L136.219 122.492C135.689 121.339 134.974 119.83 134.417 118.705C133.967 116.948 135.875 114.505 141.175 110.004Z" fill="black"/>
<path d="M141.175 110.005C141.97 111.542 142.659 113.079 143.295 114.616C138.153 118.87 136.139 122.191 136.961 124.277L136.219 122.493C135.689 121.34 134.973 119.83 134.417 118.705C133.966 116.949 135.874 114.506 141.175 110.005ZM141.095 109.84C136.51 113.737 133.781 116.537 134.284 118.513C134.867 119.693 135.662 121.285 136.192 122.493L137.014 124.441C136.537 122.246 137.438 119.776 143.348 114.753C142.685 113.106 141.943 111.487 141.095 109.84Z" fill="#161616"/>
<path d="M137.439 103.828C138.42 105.228 139.347 106.683 140.195 108.192C134.842 112.611 132.589 115.411 133.172 116.481C132.165 114.807 130.814 112.611 129.727 110.992C129.515 110.662 132.033 108.274 137.439 103.828Z" fill="black"/>
<path d="M137.44 103.829C138.42 105.228 139.348 106.683 140.196 108.193C134.842 112.612 132.59 115.411 133.173 116.482C132.166 114.807 130.814 112.612 129.728 110.992C129.516 110.663 132.033 108.275 137.44 103.829ZM137.36 103.691C131.954 108.165 129.41 110.526 129.622 110.828C130.735 112.529 132.219 114.835 133.252 116.591C132.643 115.521 134.895 112.694 140.249 108.275C139.348 106.683 138.394 105.146 137.36 103.691Z" fill="#161616"/>
<path d="M131.953 97.1602C133.092 98.3404 134.205 99.5755 135.239 100.893C129.832 105.367 127.103 107.453 126.97 107.315C125.963 106.135 124.638 104.543 123.578 103.418L122.836 102.649C123.286 102.842 124.453 103.363 131.953 97.1602Z" fill="black"/>
<path d="M131.952 97.1606C133.092 98.3408 134.205 99.5759 135.238 100.893C129.832 105.367 127.102 107.453 126.97 107.316C125.963 106.136 124.638 104.544 123.578 103.418L122.836 102.65C123.286 102.842 124.452 103.364 131.952 97.1606ZM131.846 97.0508C126.466 101.47 123.419 103.226 122.703 102.485L123.578 103.418C124.638 104.626 126.069 106.218 127.102 107.481C127.208 107.59 129.938 105.477 135.344 101.031C134.231 99.6308 133.065 98.3133 131.846 97.0508Z" fill="#161616"/>
<path d="M125.724 91.6992C126.996 92.6324 128.215 93.6479 129.408 94.7184C124.108 99.0824 120.821 100.619 119.682 99.6039L117.959 98.1217L115.203 95.9535C117.005 97.2435 120.583 95.9535 125.724 91.6992Z" fill="black"/>
<path d="M125.725 91.6995C126.997 92.6327 128.216 93.6482 129.409 94.7187C124.108 99.0827 120.822 100.62 119.682 99.6042L117.96 98.1221L115.204 95.9538C117.006 97.2438 120.584 95.9538 125.725 91.6995ZM125.619 91.6172C120.478 95.8714 116.9 97.1614 115.098 95.844C115.972 96.5302 117.138 97.4084 117.986 98.1221L119.841 99.7414C120.955 100.729 124.214 99.1925 129.541 94.8285C128.269 93.6757 126.97 92.6053 125.619 91.6172Z" fill="#161616"/>
<path d="M119.021 87.5547C120.346 88.2134 121.671 88.9819 122.97 89.8053C117.934 93.9498 114.198 95.13 111.998 93.7302C110.673 92.9617 108.924 91.9187 107.572 91.2325C110.328 92.5774 114.251 91.4796 119.021 87.5547Z" fill="black"/>
<path d="M119.021 87.5549C120.346 88.2136 121.671 88.9821 122.969 89.8055C117.934 93.95 114.197 95.1302 111.998 93.7304C110.673 92.9619 108.924 91.9189 107.572 91.2328C110.328 92.5776 114.25 91.4798 119.021 87.5549ZM118.888 87.5C114.118 91.4249 110.196 92.5227 107.439 91.1504C108.871 91.9189 110.752 92.9893 112.13 93.8127C114.303 95.2125 118.067 94.0323 123.102 89.8879C121.724 89.0096 120.293 88.2136 118.888 87.5Z" fill="#161616"/>
<path d="M112.024 84.8359C113.402 85.2202 114.754 85.6868 116.105 86.2357C111.574 89.9685 107.598 91.0663 104.524 89.8312C103.57 89.4744 102.298 88.9804 101.317 88.6785L100.549 88.4589C103.888 89.3921 107.837 88.2668 112.024 84.8359Z" fill="black"/>
<path d="M112.024 84.8361C113.402 85.2204 114.753 85.687 116.105 86.2359C111.573 89.9687 107.598 91.0665 104.524 89.8314C103.57 89.4746 102.298 88.9806 101.317 88.6787L100.549 88.4591C103.888 89.3923 107.837 88.267 112.024 84.8361ZM111.891 84.7812C107.731 88.2121 103.808 89.31 100.416 88.4042L101.317 88.6512C102.324 89.008 103.676 89.4472 104.656 89.8589C107.704 91.094 111.679 90.0236 116.238 86.2634C114.78 85.687 113.322 85.193 111.891 84.7812Z" fill="#161616"/>
<path d="M105 83.6289C106.351 83.7112 107.703 83.8759 109.081 84.1229C106.431 86.0991 103.118 88.5693 97.9768 87.8282L96.7577 87.6361C96.1747 87.5812 95.4326 87.4714 94.8496 87.444C98.1888 87.6087 101.634 86.401 105 83.6289Z" fill="black"/>
<path d="M105.001 83.6289C106.353 83.7112 107.704 83.8759 109.082 84.1229C106.432 86.0991 103.12 88.5693 97.9782 87.8282L96.7591 87.6361C96.1761 87.5812 95.434 87.4714 94.851 87.444C98.1902 87.6087 101.635 86.401 105.001 83.6289ZM104.869 83.6289C101.741 85.9344 99.3563 87.444 94.7715 87.444C95.381 87.4989 96.1761 87.5538 96.7591 87.6361L98.0842 87.8557C101.529 88.5144 105.346 87.3617 109.215 84.1504C107.731 83.8759 106.3 83.7112 104.869 83.6289Z" fill="#161616"/>
<path d="M98.163 84.0955C99.4616 83.8485 100.76 83.6838 102.085 83.6289C99.1436 86.0717 96.0163 87.2793 92.9156 87.444C92.3061 87.4989 91.4845 87.5812 90.875 87.691C92.7301 87.197 94.7973 86.6206 96.6524 85.2483C97.1029 84.8915 97.6595 84.3151 98.163 84.0955Z" fill="black"/>
<path d="M98.1632 84.0955C99.4618 83.8485 100.76 83.6838 102.086 83.6289C99.1438 86.0717 96.0166 87.2793 92.9159 87.444C92.3064 87.4989 91.4848 87.5812 90.8753 87.691C92.7304 87.197 94.7975 86.6206 96.6527 85.2483C97.1032 84.8915 97.6597 84.3151 98.1632 84.0955ZM98.0572 84.1229C95.7781 85.9893 93.3399 87.1695 90.8223 87.691C92.1739 87.4714 92.2004 87.4714 92.9954 87.444C96.1226 87.3068 99.2498 86.0717 102.218 83.6289C100.813 83.6838 99.4088 83.8485 98.0572 84.1229Z" fill="#161616"/>
<path d="M91.8024 86.2908C92.0939 86.1536 92.359 86.0164 92.6505 85.8791C93.5515 85.4674 94.4791 85.0832 95.4332 84.7812C93.6575 86.2359 91.7494 87.2789 89.7883 87.9102C89.4968 88.02 89.1257 88.1572 88.8342 88.267L88.5957 88.3768C89.7088 87.8278 90.7953 87.1417 91.8024 86.2908Z" fill="black"/>
<path d="M91.8024 86.291C92.0939 86.1538 92.359 86.0166 92.6505 85.8793C93.5515 85.4676 94.4791 85.0834 95.4332 84.7815C93.6575 86.2361 91.7494 87.2791 89.7883 87.9104C89.4968 88.0202 89.1257 88.1574 88.8342 88.2672L88.5957 88.377C89.7088 87.828 90.7953 87.1419 91.8024 86.291ZM91.6964 86.3459C90.7158 87.1693 89.6823 87.8555 88.5957 88.4044L88.8607 88.2672C89.1522 88.1574 89.5498 87.9927 89.8413 87.8829C91.8554 87.2517 93.79 86.2087 95.5657 84.7266C94.5851 85.0285 93.6045 85.4127 92.677 85.8519C92.3325 86.044 92.0144 86.1812 91.6964 86.3459Z" fill="#161616"/>
<path d="M89.4177 87.7188C88.9671 88.0756 88.5166 88.4324 88.0661 88.7343C87.9601 88.8166 87.8276 88.899 87.748 88.9813C88.2516 88.5422 88.8346 88.1305 89.4177 87.7188Z" fill="black"/>
<path d="M89.4177 87.719C88.9671 88.0758 88.5166 88.4326 88.0661 88.7345C87.9601 88.8168 87.8276 88.8992 87.748 88.9815C88.2516 88.5424 88.8346 88.1307 89.4177 87.719ZM89.5237 87.6641C88.9141 88.0758 88.3046 88.5149 87.748 89.009C87.8541 88.9266 87.9866 88.8168 88.0926 88.7619C88.5696 88.4051 89.0466 88.0483 89.5237 87.6641Z" fill="#161616"/>
<path d="M188.188 165.777C187.075 166.902 185.935 167.945 184.716 168.96C170.22 150.654 149.098 143.655 137.305 153.371C137.888 152.877 138.471 152.355 139.001 151.806C150.794 142.09 172.711 148.376 188.188 165.777Z" fill="black"/>
<path d="M188.188 165.78C187.075 166.905 185.935 167.948 184.716 168.964C170.22 150.657 149.098 143.658 137.305 153.374C137.888 152.88 138.471 152.358 139.001 151.809C150.794 142.093 172.711 148.379 188.188 165.78ZM188.718 166.027C173.188 148.351 150.98 141.929 139.08 151.727C138.524 152.304 137.914 152.852 137.305 153.374C149.177 143.575 170.564 150.767 185.061 169.403C186.333 168.332 187.579 167.207 188.718 166.027Z" fill="#161616"/>
<path d="M196.113 155.184C194.841 157.462 193.41 159.603 191.82 161.634C175.309 145.386 152.571 140.061 140.777 149.777C141.546 148.789 142.261 147.719 142.871 146.621C154.691 136.905 178.41 140.747 196.113 155.184Z" fill="black"/>
<path d="M196.111 155.185C194.839 157.464 193.408 159.604 191.818 161.635C175.307 145.387 152.569 140.062 140.776 149.778C141.544 148.79 142.26 147.72 142.869 146.622C154.689 136.906 178.408 140.748 196.111 155.185ZM196.668 155.295C178.885 140.639 154.848 136.686 142.949 146.485C142.286 147.665 141.544 148.79 140.723 149.861C152.595 140.062 175.572 145.607 192.083 162.212C193.779 160.071 195.316 157.765 196.668 155.295Z" fill="#161616"/>
<path d="M201.28 142.474C200.565 145.109 199.664 147.634 198.63 150.077C180.211 137.095 155.936 134.378 144.143 144.094C144.646 142.886 145.097 141.651 145.441 140.361C157.234 130.672 182.12 131.633 201.28 142.474Z" fill="black"/>
<path d="M201.281 142.476C200.565 145.111 199.664 147.636 198.63 150.079C180.212 137.097 155.936 134.379 144.143 144.096C144.646 142.888 145.097 141.653 145.441 140.363C157.235 130.674 182.12 131.635 201.281 142.476ZM201.811 142.476C182.57 131.47 157.341 130.455 145.468 140.253C145.097 141.625 144.62 142.97 144.09 144.233C155.963 134.434 180.53 137.316 198.975 150.628C200.088 148.048 201.042 145.303 201.811 142.476Z" fill="#161616"/>
<path d="M203.585 128.178C203.426 131.06 203.081 133.914 202.604 136.659C183.073 127.464 157.869 127.821 146.076 137.537C146.315 136.192 146.474 134.793 146.553 133.365C158.346 123.649 183.788 121.371 203.585 128.178Z" fill="black"/>
<path d="M203.586 128.176C203.427 131.058 203.083 133.913 202.606 136.657C183.074 127.463 157.871 127.819 146.077 137.536C146.316 136.191 146.475 134.791 146.554 133.364C158.348 123.648 183.789 121.37 203.586 128.176ZM204.09 128.066C184.187 121.15 158.454 123.428 146.581 133.226C146.501 134.736 146.316 136.218 146.051 137.645C157.924 127.847 183.418 127.627 203.03 137.124C203.56 134.187 203.931 131.168 204.09 128.066Z" fill="#161616"/>
<path d="M202.975 112.752C203.373 115.826 203.638 118.845 203.691 121.809C183.841 116.786 158.4 120.519 146.606 130.235C146.58 128.781 146.447 127.298 146.262 125.789C158.055 116.073 183.338 110.309 202.975 112.752Z" fill="black"/>
<path d="M202.977 112.75C203.374 115.824 203.639 118.844 203.692 121.808C183.842 116.785 158.401 120.518 146.607 130.234C146.581 128.779 146.448 127.297 146.263 125.788C158.056 116.072 183.339 110.308 202.977 112.75ZM203.401 112.531C183.71 110.006 158.136 115.879 146.236 125.678C146.448 127.27 146.581 128.862 146.607 130.399C158.48 120.6 184.24 116.95 204.169 122.247C204.116 119.036 203.851 115.797 203.401 112.531Z" fill="#161616"/>
<path d="M199.32 96.7227C200.327 99.8516 201.148 102.981 201.811 106.082C181.033 105.89 158.48 112.504 145.68 122.523C145.362 121.013 144.964 119.476 144.461 117.939C159.62 106.109 182.941 98.7537 199.32 96.7227Z" fill="black"/>
<path d="M199.319 96.724C200.326 99.8529 201.147 102.982 201.81 106.083C181.033 105.891 158.48 112.506 145.679 122.524C145.361 121.014 144.964 119.477 144.46 117.94C159.619 106.111 182.941 98.755 199.319 96.724ZM199.69 96.3672C181.059 98.4257 156.333 108.005 144.434 117.803C144.964 119.45 145.388 121.069 145.732 122.689C157.605 112.89 182.941 105.617 202.34 106.413C201.651 103.064 200.776 99.7157 199.69 96.3672Z" fill="#161616"/>
<path d="M192.586 80.5273C194.203 83.6563 195.634 86.7852 196.88 89.9141C178.938 93.8939 155.06 104.873 143.267 114.589C142.657 113.052 141.942 111.515 141.146 109.978C152.966 100.289 175.864 87.1694 192.586 80.5273Z" fill="black"/>
<path d="M192.587 80.5291C194.203 83.658 195.634 86.7869 196.88 89.9159C178.938 93.8956 155.06 104.874 143.267 114.59C142.657 113.053 141.942 111.516 141.147 109.979C152.967 100.291 175.864 87.1712 192.587 80.5291ZM192.825 80.0625C176.129 86.732 152.967 100.044 141.094 109.842C141.942 111.462 142.684 113.108 143.346 114.755C155.219 104.957 179.442 93.9505 197.463 90.1354C196.111 86.7595 194.574 83.411 192.825 80.0625Z" fill="#161616"/>
<path d="M185.009 67.9297C186.997 70.7841 188.878 73.7484 190.627 76.8499C174.461 84.5075 152.014 98.4504 140.221 108.194C139.373 106.684 138.445 105.202 137.465 103.83C149.232 94.1138 170.433 78.1124 185.009 67.9297Z" fill="black"/>
<path d="M185.009 67.9316C186.996 70.7861 188.878 73.7503 190.627 76.8518C174.461 84.5094 152.014 98.4524 140.221 108.196C139.373 106.686 138.445 105.204 137.465 103.832C149.231 94.1158 170.433 78.1144 185.009 67.9316ZM185.141 67.4102C170.618 77.6478 149.231 93.8688 137.332 103.667C138.366 105.122 139.32 106.659 140.221 108.278C152.094 98.4798 174.859 84.4271 191.078 76.8518C189.249 73.5857 187.261 70.4293 185.141 67.4102Z" fill="#161616"/>
<path d="M173.825 54.3711C176.157 56.759 178.383 59.3115 180.53 61.9738C167.199 73.8308 147.032 91.1771 135.265 100.893C134.205 99.5758 133.118 98.3407 131.979 97.1605C143.745 87.4444 162.403 68.3689 173.825 54.3711Z" fill="black"/>
<path d="M173.825 54.3694C176.157 56.7572 178.383 59.3098 180.529 61.9721C167.199 73.8291 147.031 91.1754 135.264 100.891C134.204 99.574 133.118 98.3389 131.978 97.1587C143.745 87.4426 162.402 68.3672 173.825 54.3694ZM173.851 53.793C162.508 67.9006 143.718 87.2505 131.846 97.049C133.065 98.3115 134.231 99.6289 135.344 101.029C147.217 91.2303 167.676 73.7467 181.033 61.9446C178.754 59.0902 176.369 56.3455 173.851 53.793Z" fill="#161616"/>
<path d="M161.13 43.2266C163.701 45.1204 166.218 47.1789 168.656 49.3746C158.692 64.7722 141.227 84.973 129.434 94.7165C128.241 93.6461 126.996 92.6306 125.75 91.6974C137.517 81.9813 153.285 60.3807 161.13 43.2266Z" fill="black"/>
<path d="M161.132 43.2287C163.702 45.1225 166.22 47.181 168.658 49.3768C158.693 64.7744 141.229 84.9751 129.435 94.7187C128.243 93.6483 126.997 92.6328 125.752 91.6996C137.518 81.9835 153.287 60.3829 161.132 43.2287ZM161.052 42.6523C153.34 59.9163 137.492 81.8188 125.619 91.6172C126.971 92.6053 128.269 93.6757 129.541 94.8285C141.414 85.03 159.144 64.6371 169.135 49.2395C166.511 46.8791 163.835 44.6834 161.052 42.6523Z" fill="#161616"/>
<path d="M147.402 34.7734C150.132 36.1458 152.835 37.6553 155.459 39.357C149.204 57.5816 134.734 80.0879 122.941 89.8041C121.642 88.9806 120.317 88.2396 118.992 87.5534C130.785 77.8373 143.427 54.3155 147.402 34.7734Z" fill="black"/>
<path d="M147.403 34.7757C150.132 36.148 152.835 37.6576 155.459 39.3593C149.205 57.5839 134.735 80.0902 122.941 89.8063C121.643 88.9829 120.318 88.2418 118.993 87.5557C130.786 77.8396 143.427 54.3177 147.403 34.7757ZM147.244 34.1719C143.454 53.8237 130.76 77.7023 118.887 87.5008C120.318 88.2144 121.722 89.0104 123.1 89.8886C134.973 80.0902 149.655 57.3643 155.883 39.0848C153.047 37.2733 150.159 35.6265 147.244 34.1719Z" fill="#161616"/>
<path d="M133.145 29.2305C135.928 29.999 138.711 30.9596 141.467 32.0849C139.161 52.368 127.871 76.5211 116.105 86.2372C114.753 85.6883 113.375 85.2217 112.023 84.8375C123.79 75.1213 133.198 50.3095 133.145 29.2305Z" fill="black"/>
<path d="M133.145 29.2288C135.928 29.9973 138.71 30.958 141.467 32.0833C139.161 52.3664 127.871 76.5195 116.104 86.2356C114.753 85.6867 113.375 85.2201 112.023 84.8358C123.79 75.1197 133.198 50.3079 133.145 29.2288ZM132.88 28.625C133.145 49.8413 123.763 74.9825 111.891 84.7809C113.348 85.1926 114.806 85.6867 116.237 86.263C128.11 76.4646 139.558 52.037 141.811 31.6716C138.843 30.4914 135.848 29.4758 132.88 28.625Z" fill="#161616"/>
<path d="M118.833 26.7891C121.589 26.9537 124.345 27.2831 127.128 27.8046C128.877 49.2954 120.847 74.4091 109.054 84.1252C107.702 83.8782 106.324 83.7135 104.973 83.6312C116.766 73.915 122.914 48.5817 118.833 26.7891Z" fill="black"/>
<path d="M118.834 26.7871C121.59 26.9518 124.346 27.2812 127.129 27.8026C128.878 49.2934 120.848 74.4071 109.054 84.1232C107.703 83.8762 106.325 83.7115 104.973 83.6292C116.766 73.9131 122.915 48.5798 118.834 26.7871ZM118.463 26.2656C122.809 48.1681 116.74 73.8582 104.867 83.6566C106.298 83.739 107.756 83.9037 109.213 84.1781C121.086 74.3797 129.222 48.9366 127.367 27.3635C124.372 26.7597 121.404 26.4029 118.463 26.2656Z" fill="#161616"/>
<path d="M104.92 27.7224C107.544 27.2009 110.22 26.899 112.924 26.7617C118.674 48.5544 113.878 73.9151 102.084 83.6313C100.759 83.6861 99.4342 83.8508 98.1621 84.0978C109.955 74.3817 112.924 49.2406 104.92 27.7224Z" fill="black"/>
<path d="M104.921 27.7204C107.544 27.1989 110.221 26.897 112.924 26.7598C118.675 48.5524 113.878 73.9132 102.085 83.6293C100.76 83.6842 99.4347 83.8489 98.1626 84.0959C109.956 74.3798 112.924 49.2386 104.921 27.7204ZM104.47 27.2538C112.792 48.8818 109.929 74.3249 98.0566 84.1233C99.4347 83.8489 100.813 83.6842 102.244 83.6293C114.117 73.8308 118.967 48.1407 113.057 26.2383C110.141 26.3481 107.279 26.6774 104.47 27.2538Z" fill="#161616"/>
<path d="M91.9341 32.2225C92.5172 31.9206 93.0737 31.6461 93.6832 31.3716C95.5384 30.5208 97.42 29.7797 99.3546 29.1484C108.922 50.2549 107.226 75.0667 95.4589 84.7829C94.5048 85.0848 93.5772 85.4416 92.6762 85.8807C92.3847 86.018 92.0931 86.1552 91.8281 86.2924C103.595 76.5763 103.595 52.4781 91.9341 32.2225Z" fill="black"/>
<path d="M91.9352 32.2207C92.5182 31.9188 93.0748 31.6443 93.6843 31.3699C95.5394 30.519 97.421 29.778 99.3557 29.1467C108.923 50.2532 107.227 75.065 95.4599 84.7811C94.5059 85.083 93.5783 85.4398 92.6772 85.879C92.3857 86.0162 92.0942 86.1535 91.8292 86.2907C103.596 76.5746 103.596 52.4764 91.9352 32.2207ZM91.4316 31.8365C103.437 52.147 103.569 76.5471 91.6967 86.3456C92.0147 86.1809 92.3327 86.0162 92.6507 85.879C93.6048 85.4398 94.5589 85.0556 95.5394 84.7537C107.412 74.9552 109.108 49.8141 99.3292 28.5703C97.315 29.2016 95.3274 29.9701 93.3663 30.8758C92.7302 31.1777 92.0677 31.5071 91.4316 31.8365Z" fill="#161616"/>
<path d="M83.6133 37.6855C84.6999 36.7797 85.8659 35.9289 87.0585 35.1055C100.097 54.5377 101.21 78.0046 89.4172 87.7208C88.8341 88.105 88.2776 88.5442 87.7211 88.9833C99.5143 79.2672 97.6327 56.4041 83.6133 37.6855Z" fill="black"/>
<path d="M83.6129 37.6838C84.6995 36.7781 85.8656 35.9272 87.0582 35.1038C100.097 54.5361 101.21 78.003 89.4168 87.7191C88.8338 88.1034 88.2773 88.5425 87.7207 88.9817C99.514 79.2655 97.6324 56.4025 83.6129 37.6838ZM83.2949 37.2447C97.6059 56.0456 99.62 79.1832 87.7472 88.9817C88.3303 88.5151 88.9133 88.0759 89.5228 87.6368C101.396 77.8383 100.23 54.042 86.9522 34.5C85.6801 35.3508 84.461 36.284 83.2949 37.2447Z" fill="#161616"/>
<path d="M198.075 59.8039C200.513 63.5366 203.72 68.5319 205.973 72.3744C205.231 71.057 200.169 72.3744 191.238 76.5738C189.462 73.4449 187.581 70.4257 185.566 67.5438C193.543 61.9996 197.784 59.3922 198.075 59.8039Z" fill="black"/>
<path d="M198.074 59.8038C200.513 63.5365 203.719 68.5318 205.972 72.3743C205.23 71.0569 200.168 72.3743 191.237 76.5737C189.461 73.4448 187.58 70.4256 185.566 67.5437C193.543 61.9995 197.783 59.3921 198.074 59.8038ZM197.783 59.4195C197.544 59.0353 193.304 61.6701 185.354 67.2693C187.474 70.2884 189.461 73.4448 191.316 76.7658C200.274 72.5939 205.336 71.3039 206.078 72.6488C203.693 68.6141 200.38 63.3169 197.783 59.4195Z" fill="#161616"/>
<path d="M182.333 40.7305L184.056 42.542C186.388 45.1768 189.542 48.69 191.768 51.4347C191.927 51.5994 188.296 55.0302 181.034 61.5351C178.861 58.8453 176.609 56.2653 174.25 53.85C180.504 45.9728 182.943 42.0754 182.333 40.7305Z" fill="black"/>
<path d="M182.333 40.7317L184.056 42.5432C186.388 45.1781 189.542 48.6912 191.768 51.4359C191.927 51.6006 188.296 55.0314 181.035 61.5363C178.862 58.8465 176.609 56.2665 174.25 53.8512C180.505 45.974 182.943 42.0766 182.333 40.7317ZM182.015 40.4023C182.89 41.2806 180.24 45.8368 174.012 53.6042C176.529 56.1842 178.941 58.9014 181.247 61.7833C188.561 55.3333 192.218 51.93 192.086 51.7927C189.701 48.9932 186.547 45.233 184.082 42.5432L182.015 40.4023Z" fill="#161616"/>
<path d="M164.286 24.8945L170.991 30.1643L175.046 33.6775C176.477 34.94 174.542 40.1823 169.03 48.7731C166.565 46.55 164.021 44.464 161.424 42.5428C165.823 32.7717 166.618 26.5962 164.286 24.8945Z" fill="black"/>
<path d="M164.285 24.8915L170.99 30.1613L175.045 33.6745C176.476 34.937 174.542 40.1794 169.029 48.7702C166.565 46.547 164.02 44.461 161.423 42.5398C165.823 32.7687 166.618 26.5932 164.285 24.8915ZM163.914 24.6445C166.273 26.3462 165.531 32.5492 161.158 42.4025C163.941 44.4336 166.644 46.6568 169.268 49.0172C174.807 40.4538 176.768 35.239 175.363 34.0038L170.964 30.1888C168.87 28.5145 166.088 26.2364 163.914 24.6445Z" fill="#161616"/>
<path d="M144.223 12.543C147.827 14.4917 152.624 17.154 156.122 19.2949C159.143 21.2161 159.249 28.0229 155.724 38.6448C153.048 36.9431 150.318 35.4061 147.562 34.0063C149.841 22.2042 148.357 14.6015 144.223 12.543Z" fill="black"/>
<path d="M144.224 12.5437C147.828 14.4924 152.625 17.1547 156.123 19.2956C159.144 21.2168 159.25 28.0236 155.725 38.6455C153.049 36.9438 150.319 35.4068 147.563 34.007C149.842 22.2049 148.358 14.6022 144.224 12.5437ZM143.826 12.3516C147.987 14.4101 149.524 22.0402 147.271 33.8972C150.213 35.3519 153.102 36.9987 155.964 38.8102C159.542 28.2157 159.489 21.4364 156.494 19.5426C152.757 17.292 147.695 14.3826 143.826 12.3516Z" fill="#161616"/>
<path d="M122.412 4.08984L125.142 4.8858C128.189 5.92877 132.244 7.30111 135.265 8.48131C140.248 10.4849 142.845 18.6091 141.546 31.2895C138.764 30.1642 135.955 29.1761 133.119 28.4076C132.933 14.5745 128.667 5.81898 122.412 4.08984Z" fill="black"/>
<path d="M122.412 4.09026L125.142 4.88621C128.19 5.92918 132.244 7.30152 135.266 8.48173C140.248 10.4853 142.845 18.6096 141.547 31.2899C138.764 30.1646 135.955 29.1765 133.119 28.408C132.934 14.5749 128.667 5.8194 122.412 4.09026ZM121.988 3.98047C128.269 5.70961 132.615 14.4926 132.854 28.3531C135.849 29.1765 138.843 30.2195 141.812 31.4272C143.163 18.8017 140.619 10.7049 135.663 8.67385C132.509 7.49364 128.322 5.92918 125.142 4.88621L121.988 3.98047Z" fill="#161616"/>
<path d="M99.1699 0.164062C101.847 0.411083 105.424 0.685549 108.101 1.04236L112.845 1.83831C120.742 3.9517 125.513 12.4053 127.076 26.9795C124.267 26.458 121.458 26.1012 118.675 25.9365C115.495 10.1547 107.73 0.603209 99.1699 0.164062Z" fill="black"/>
<path d="M99.1712 0.164062C101.848 0.411083 105.426 0.685549 108.102 1.04236L112.846 1.83831C120.744 3.95171 125.514 12.4053 127.078 26.9795C124.268 26.458 121.459 26.1012 118.677 25.9365C115.496 10.1547 107.731 0.603209 99.1712 0.164062ZM98.7207 0.164062C110.726 1.61874 116.053 14.9853 118.385 25.9365C121.353 26.1012 124.321 26.458 127.316 27.0344C125.991 12.4053 120.426 3.26554 113.27 1.92065L108.102 1.04236C105.267 0.76789 101.53 0.328743 98.7207 0.164062Z" fill="#161616"/>
<path d="M75.0273 1.8371C79.2411 1.17838 84.9125 0.464769 89.1528 0.135408C98.6404 -0.303739 108.102 9.38494 112.713 25.9353C109.983 26.0725 107.28 26.3744 104.63 26.8959C93.6316 0.519662 79.1881 1.04115 75.0273 1.8371Z" fill="black"/>
<path d="M75.0267 1.83784C79.2405 1.17912 84.9119 0.465509 89.1521 0.136149C98.6398 -0.302998 108.101 9.38568 112.712 25.936C109.983 26.0733 107.279 26.3752 104.629 26.8967C93.6309 0.520403 79.1875 1.04189 75.0267 1.83784ZM74.5762 1.92018C85.3094 -0.275551 97.5002 9.38568 104.364 26.9516C107.173 26.3752 110.062 26.0458 112.977 25.9086C108.445 9.38568 99.0638 -0.275551 89.6292 0.108702C79.797 0.87721 79.6115 0.904656 74.5762 1.92018Z" fill="#161616"/>
<path d="M51.043 10.1825L54.3292 8.56314C57.4564 7.27314 61.6437 5.544 64.8504 4.44613C76.2461 0.768276 90.4511 10.2099 98.9847 28.3247C97.0235 28.956 95.1154 29.6971 93.2603 30.5754C92.6772 30.8498 92.0942 31.1243 91.5112 31.4262C80.3804 12.7625 63.0483 3.97954 51.043 10.1825Z" fill="black"/>
<path d="M51.0432 10.1799L54.3294 8.56058C57.4566 7.27059 61.6439 5.54144 64.8506 4.44358C76.2463 0.765721 90.4513 10.2074 98.9849 28.3222C97.0237 28.9535 95.1156 29.6945 93.2605 30.5728C92.6774 30.8473 92.0944 31.1218 91.5114 31.4237C80.3806 12.7599 63.0485 3.97698 51.0432 10.1799ZM50.6191 10.3995C62.6509 4.11422 80.0891 12.8697 91.2728 31.5609C91.9354 31.2315 92.5979 30.9022 93.2605 30.5728C95.2216 29.6671 97.2092 28.8986 99.2499 28.2673C90.8223 10.1525 76.6969 0.710827 65.3276 4.30634C62.0149 5.514 57.5891 7.1608 54.3559 8.56058L50.6191 10.3995Z" fill="#161616"/>
<path d="M30.1602 25.086L35.116 20.6671C37.1036 19.1575 39.7008 17.099 41.7414 15.6992C53.8527 7.46522 73.5435 15.5071 86.5559 34.363C85.3633 35.1864 84.1973 36.0372 83.0842 36.9704C82.1831 37.7115 81.3086 38.48 80.487 39.2759C65.2485 21.1062 43.1195 14.3269 31.1937 24.1528C30.8227 24.4547 30.4782 24.7566 30.1602 25.086Z" fill="black"/>
<path d="M30.159 25.0867L35.1148 20.6678C37.1024 19.1582 39.6996 17.0997 41.7402 15.6999C53.8516 7.46592 73.5424 15.5078 86.5547 34.3637C85.3622 35.1871 84.1961 36.0379 83.083 36.9711C82.1819 37.7122 81.3074 38.4807 80.4858 39.2766C65.2473 21.1069 43.1183 14.3276 31.1925 24.1535C30.8215 24.4554 30.477 24.7573 30.159 25.0867ZM29.8145 25.4161C30.159 25.0867 30.53 24.7573 30.901 24.4554C42.8533 14.6021 65.0088 21.3539 80.3003 39.4688C81.2014 38.6179 82.1289 37.7671 83.083 36.9711C84.2491 36.0105 85.4947 35.0773 86.7667 34.2264C73.8339 15.3706 54.2226 7.30124 42.1378 15.4255C40.0176 16.9899 37.1554 18.9935 35.1148 20.6678L29.8145 25.4161Z" fill="#161616"/>
<path d="M14.5762 44.7369C16.6698 41.4982 19.5585 37.244 21.8642 34.17L22.9242 32.8525C23.6663 31.9742 24.4878 31.1234 25.4154 30.3823C37.3677 20.5289 60.3447 26.3751 76.6698 43.392C75.0267 45.3957 73.5161 47.5365 72.191 49.7871C50.4066 31.9468 24.5673 29.6961 14.5762 44.7369Z" fill="black"/>
<path d="M14.5764 44.737C16.67 41.4982 19.5587 37.244 21.8644 34.17L22.9245 32.8525C23.6665 31.9742 24.4881 31.1234 25.4156 30.3823C37.3679 20.529 60.345 26.3751 76.67 43.3921C75.0269 45.3957 73.5163 47.5365 72.1912 49.7871C50.4068 31.9468 24.5676 29.6962 14.5764 44.737ZM14.3379 45.1487C15.3715 43.3921 16.7231 41.8002 18.4192 40.4004C30.3715 30.547 54.4086 34.8561 72.0587 49.9793C73.4633 47.564 75.0534 45.2859 76.8291 43.1725C60.557 26.1007 37.5799 20.2271 25.6541 30.0804C24.7531 30.8215 23.958 31.6174 23.2425 32.4957L21.8644 34.17C19.5057 37.3812 16.4845 41.7727 14.3379 45.1487Z" fill="#161616"/>
<path d="M4.77148 67.298L4.9305 66.749C6.28209 62.8516 8.19021 57.7191 9.78032 53.9314C10.8404 51.6259 12.4305 49.5399 14.6036 47.7559C26.5559 37.9026 51.1761 41.0864 69.5418 54.8646C68.4287 57.2799 67.4747 59.8325 66.7061 62.4673C47.5453 50.8299 22.2361 49.4027 10.2839 59.2561C7.47466 61.5616 5.64604 64.3063 4.77148 67.298Z" fill="black"/>
<path d="M4.77118 67.297L4.93019 66.748C6.28178 62.8506 8.18991 57.7181 9.78002 53.9304C10.8401 51.6249 12.4302 49.539 14.6033 47.7549C26.5556 37.9016 51.1758 41.0854 69.5415 54.8636C68.4284 57.2789 67.4744 59.8315 66.7058 62.4664C47.545 50.829 22.2358 49.4017 10.2835 59.2551C7.47436 61.5606 5.64574 64.3053 4.77118 67.297ZM4.63867 67.7361C5.51323 64.7444 7.36835 61.9723 10.1775 59.6393C22.1298 49.786 47.439 51.1583 66.6263 62.6859C67.4479 59.8864 68.4549 57.1691 69.6475 54.5892C51.3348 40.756 26.7146 37.5173 14.7623 47.3707C12.6157 49.1273 11.0256 51.2132 9.96553 53.4913C8.32242 57.4162 6.28178 62.6859 4.93019 66.7206L4.63867 67.7361Z" fill="#161616"/>
<path d="M0.371094 91.1212L1.08664 84.4516L2.30572 77.1508C2.99477 73.8298 4.87639 70.7283 8.10961 68.066C20.0619 58.2126 45.6891 58.2949 65.2474 68.2581C64.6909 71.0027 64.2934 73.8572 64.0813 76.7666C44.1785 69.2187 18.2863 71.1125 6.33399 80.9659C2.59724 84.0399 0.662613 87.5257 0.371094 91.1212Z" fill="black"/>
<path d="M0.372205 91.1224L1.08775 84.4528L2.30683 77.152C2.99588 73.8309 4.87751 70.7295 8.11072 68.0671C20.063 58.2138 45.6902 58.2961 65.2485 68.2593C64.692 71.0039 64.2945 73.8584 64.0825 76.7677C44.1796 69.2199 18.2874 71.1137 6.3351 80.9671C2.59835 84.0411 0.663724 87.5268 0.372205 91.1224ZM0.345703 91.5615C0.610721 87.966 2.54535 84.4528 6.3086 81.3788C18.2609 71.5254 44.1531 69.5767 64.0559 77.0422C64.268 73.9407 64.692 70.9216 65.3015 67.9848C45.7432 57.9668 20.116 57.8021 8.19023 67.6554C4.98351 70.2903 3.10189 73.3918 2.41284 76.6854C2.01531 79.0184 1.40577 82.0924 1.11425 84.4254L0.345703 91.5615Z" fill="#161616"/>
<path d="M0.902744 115.331C0.584723 111.461 0.187196 106.328 0.0546875 102.458V101.306C1.24727 84.9199 34.666 75.4234 63.8974 83.1633C63.9239 86.155 64.1095 89.2016 64.454 92.2756C44.6572 89.1467 18.8179 94.6086 6.89214 104.435C2.41334 108.112 0.505218 111.873 0.902744 115.331Z" fill="black"/>
<path d="M0.901902 115.329C0.583881 111.459 0.186354 106.327 0.0538455 102.457V101.304C1.24643 84.9183 34.6652 75.4218 63.8966 83.1617C63.9231 86.1534 64.1086 89.2 64.4531 92.274C44.6563 89.1451 18.8171 94.607 6.8913 104.433C2.4125 108.111 0.504376 111.871 0.901902 115.329ZM0.954906 115.796C0.557379 112.365 2.46551 108.577 6.9178 104.899C18.8701 95.0461 44.6828 89.5293 64.4531 92.5759C64.0556 89.2823 63.8701 86.0436 63.8436 82.8598C34.4266 75.0649 1.00791 84.4792 0.0273438 100.81L0.0538455 102.429C0.239358 106.464 0.557379 111.789 0.954906 115.796Z" fill="#161616"/>
<path d="M5.88464 139.29L5.59312 138.274C4.58605 134.432 3.28747 129.299 2.46591 125.402C1.27333 111.98 35.4341 97.6532 65.4606 98.9981C66.0701 102.127 66.8387 105.283 67.7928 108.467C35.5666 111.541 3.36697 129.464 5.88464 139.29Z" fill="black"/>
<path d="M5.88352 139.289L5.592 138.274C4.58493 134.431 3.28634 129.299 2.46479 125.401C1.27221 111.98 35.433 97.6527 65.4595 98.9976C66.069 102.126 66.8376 105.283 67.7916 108.467C35.5655 111.541 3.36585 129.463 5.88352 139.289ZM6.01603 139.728C5.22097 137.066 7.1291 133.498 12.1114 129.408C24.0637 119.555 49.0814 110.306 67.8711 108.741C66.8376 105.365 66.016 102.017 65.38 98.6682C45.8482 97.3508 20.274 104.295 8.32168 114.148C3.65737 118.018 1.77574 121.751 2.35878 124.962C3.25984 128.969 4.47892 134.321 5.5655 138.274L6.01603 139.728Z" fill="#161616"/>
<path d="M15.1594 162.619L11.9527 155.757L9.24953 149.143C8.42798 146.919 10.4156 143.543 15.5304 139.344C27.4827 129.491 51.9704 118.704 70.1506 115.301C71.3697 118.485 72.7478 121.641 74.3114 124.797C57.3237 130.891 33.7902 143.873 21.8379 153.726C16.564 158.09 14.4174 161.109 15.1594 162.619Z" fill="black"/>
<path d="M15.1595 162.62L11.9528 155.758L9.24961 149.144C8.42806 146.921 10.4157 143.545 15.5305 139.345C27.4828 129.492 51.9705 118.705 70.1507 115.302C71.3698 118.486 72.7478 121.642 74.3114 124.799C57.3238 130.892 33.7902 143.874 21.838 153.727C16.5641 158.091 14.4175 161.111 15.1595 162.62ZM15.3715 163.032C13.8874 156.856 47.5712 135.228 74.4705 125.1C72.8008 121.752 71.3167 118.376 70.0447 114.973C38.5076 121.231 6.81145 140.416 9.0906 148.677L11.9528 155.731L15.3715 163.032Z" fill="#161616"/>
<path d="M28.3582 184.495C25.867 180.817 22.6073 175.904 20.3017 172.117C19.7451 171.184 22.0508 168.439 27.4306 164.02C39.3829 154.167 62.0685 139.62 78.0225 131.605C79.8246 134.707 81.7593 137.671 83.8264 140.498C69.5155 151.065 48.1815 167.643 36.2292 177.496C30.7699 181.97 28.1992 184.276 28.3582 184.495Z" fill="black"/>
<path d="M28.3576 184.496C25.8665 180.819 22.6068 175.906 20.3011 172.118C19.7446 171.185 22.0502 168.44 27.4301 164.021C39.3824 154.168 62.0679 139.621 78.022 131.607C79.8241 134.708 81.7587 137.672 83.8258 140.499C69.5149 151.066 48.181 167.644 36.2287 177.497C30.7693 181.971 28.1986 184.277 28.3576 184.496ZM28.6227 184.881C28.4902 184.688 31.0608 182.383 36.4672 177.909C48.4195 168.056 69.7269 151.396 83.9584 140.774C81.7587 137.755 79.7181 134.598 77.7835 131.305C61.7764 139.237 39.0644 153.729 27.1121 163.555C21.7852 167.973 19.4796 170.718 20.0361 171.706C22.5538 175.713 25.946 181.011 28.6227 184.881Z" fill="#161616"/>
<path d="M44.3113 203.268L40.9721 199.81C39.0904 197.696 36.5463 194.924 34.7441 192.728C34.9562 192.975 37.7388 190.917 43.1452 186.471C55.0975 176.617 75.3713 158.667 88.3837 146.426C90.5834 149.088 92.889 151.613 95.2742 153.974C84.2229 168.356 65.5127 188.062 53.5869 197.916C48.207 202.362 45.1063 204.036 44.3113 203.268Z" fill="black"/>
<path d="M44.3118 203.269L40.9726 199.81C39.0909 197.697 36.5468 194.925 34.7446 192.729C34.9567 192.976 37.7393 190.918 43.1457 186.471C55.098 176.618 75.3719 158.668 88.3842 146.427C90.5839 149.089 92.8895 151.614 95.2747 153.974C84.2234 168.357 65.5132 188.063 53.5874 197.917C48.2075 202.363 45.1068 204.037 44.3118 203.269ZM44.6298 203.598C45.4514 204.394 48.5521 202.692 53.9054 198.301C65.8577 188.447 84.4885 168.686 95.4867 154.249C92.9425 151.724 90.5044 149.034 88.1722 146.207C75.1068 158.366 54.78 176.289 42.8277 186.142C37.4213 190.616 34.6386 192.647 34.4531 192.427C36.4143 194.65 38.9584 197.697 40.9726 199.865L44.6298 203.598Z" fill="#161616"/>
<path d="M62.5719 218.775C60.0012 216.827 56.556 214.247 54.0383 212.188L51.6797 210.184C52.9253 211.255 56.238 209.773 61.5383 205.409C73.4906 195.555 90.9553 174.723 100.522 158.914C103.014 161.082 105.584 163.113 108.208 164.98C100.84 182.518 85.1249 204.75 73.1726 214.603C68.0578 218.83 64.4535 220.093 62.5719 218.775Z" fill="black"/>
<path d="M62.5716 218.776C60.0009 216.827 56.5557 214.247 54.038 212.189L51.6793 210.185C52.9249 211.256 56.2377 209.773 61.538 205.409C73.4903 195.556 90.955 174.724 100.522 158.915C103.013 161.083 105.584 163.114 108.208 164.98C100.84 182.519 85.1246 204.751 73.1723 214.604C68.0574 218.831 64.4532 220.093 62.5716 218.776ZM62.9426 219.05C64.8242 220.368 68.455 219.105 73.5698 214.906C85.5221 205.053 101.158 182.766 108.473 165.2C105.69 163.224 102.96 161.056 100.31 158.723C90.69 174.45 73.1458 195.254 61.1935 205.108C55.8931 209.472 52.5804 210.954 51.3613 209.911L54.0645 212.216C56.6882 214.275 60.1864 217.074 62.9426 219.05Z" fill="#161616"/>
<path d="M82.7932 230.771C79.1625 228.878 74.3392 226.325 70.8145 224.239C73.1201 225.639 76.8834 224.486 81.8657 220.369C93.818 210.516 108.182 187.378 113.933 168.797C116.636 170.444 119.366 171.953 122.122 173.271C118.703 193.142 106.221 217.295 94.2685 227.149C89.5777 231.046 85.6289 232.144 82.7932 230.771Z" fill="black"/>
<path d="M82.7932 230.772C79.1624 228.878 74.3391 226.326 70.8144 224.24C73.12 225.639 76.8833 224.487 81.8656 220.37C93.8179 210.516 108.182 187.379 113.933 168.797C116.636 170.444 119.366 171.954 122.122 173.271C118.703 193.143 106.221 217.296 94.2685 227.149C89.5776 231.046 85.6289 232.144 82.7932 230.772ZM83.1907 230.964C86.0264 232.309 89.9752 231.239 94.6925 227.341C106.645 217.488 119.074 193.307 122.413 173.408C119.472 172.009 116.556 170.417 113.694 168.66C107.864 187.187 93.4204 210.297 81.4946 220.15C76.5123 224.267 72.7225 225.42 70.4434 224.02C74.2331 226.188 79.295 229.043 83.1907 230.964Z" fill="#161616"/>
<path d="M104.763 238.869L99.8601 237.469C97.4484 236.646 94.2152 235.603 91.8301 234.67C94.9573 235.85 98.9326 234.78 103.411 231.074C115.364 221.221 126.468 196.464 128.164 175.852C130.973 176.922 133.782 177.855 136.592 178.569C137.281 199.95 128.111 225.338 116.185 235.191C112.077 238.622 108.155 239.72 104.763 238.869Z" fill="black"/>
<path d="M104.763 238.866L99.8603 237.466C97.4487 236.642 94.2154 235.599 91.8303 234.666C94.9575 235.846 98.9328 234.776 103.412 231.071C115.364 221.217 126.468 196.46 128.164 175.848C130.973 176.918 133.783 177.852 136.592 178.565C137.281 199.946 128.111 225.334 116.185 235.188C112.078 238.619 108.155 239.716 104.763 238.866ZM105.187 238.975C108.579 239.826 112.475 238.701 116.583 235.325C128.535 225.472 137.625 200.056 136.857 178.675C133.862 177.906 130.867 176.946 127.873 175.766C126.097 196.323 114.913 221.08 102.988 230.933C98.4822 234.639 94.507 235.709 91.4062 234.529C93.9504 235.435 97.2896 236.67 99.8603 237.466L105.187 238.975Z" fill="#161616"/>
<path d="M128.137 242.269C124.772 242.022 120.293 241.693 116.927 241.281L114.383 240.897C117.828 241.473 121.591 240.293 125.381 237.191C137.333 227.338 145.072 201.648 142.66 179.91C145.469 180.377 148.279 180.651 151.035 180.761C157.422 213.917 143.561 242.791 128.137 242.269Z" fill="black"/>
<path d="M128.137 242.269C124.772 242.022 120.293 241.693 116.927 241.281L114.383 240.897C117.828 241.473 121.591 240.293 125.381 237.192C137.334 227.338 145.072 201.648 142.66 179.91C145.47 180.377 148.279 180.651 151.035 180.761C157.422 213.917 143.561 242.791 128.137 242.269ZM128.588 242.297C147.616 241.363 156.971 207.686 151.326 180.761C148.385 180.679 145.39 180.377 142.395 179.855C144.728 201.593 136.91 227.283 124.984 237.109C121.167 240.238 117.404 241.391 113.959 240.815L116.954 241.281C120.425 241.665 125.09 242.297 128.588 242.297Z" fill="#161616"/>
<path d="M152.306 240.047C148.092 240.816 142.447 241.667 138.207 242.106C141.228 241.886 144.249 240.651 147.085 238.318C159.037 228.465 163.463 202.61 156.997 180.653C159.726 180.461 162.403 180.076 165.053 179.473C176.476 209.911 167.756 236.534 152.306 240.047Z" fill="black"/>
<path d="M152.307 240.048C148.094 240.816 142.449 241.667 138.208 242.106C141.23 241.887 144.251 240.652 147.086 238.319C159.039 228.465 163.465 202.61 156.998 180.653C159.728 180.461 162.404 180.077 165.055 179.473C176.477 209.911 167.758 236.535 152.307 240.048ZM152.758 239.938C169.984 234.75 175.841 206.453 165.293 179.418C162.484 180.049 159.622 180.461 156.733 180.653C163.147 202.61 158.641 228.493 146.689 238.319C143.827 240.679 140.806 241.914 137.758 242.106C146.291 241.228 148.862 240.981 152.758 239.938Z" fill="#161616"/>
<path d="M176.185 231.016L170.725 233.788C168.261 234.804 165.001 236.231 162.51 237.137C164.365 236.478 166.114 235.49 167.784 234.118C179.736 224.264 181.008 199.041 170.672 177.88C172.183 177.358 173.694 176.754 175.151 176.068C176.158 175.601 177.112 175.107 178.066 174.586C190.522 194.814 190.92 219.297 178.994 229.122C178.066 229.864 177.139 230.495 176.185 231.016Z" fill="black"/>
<path d="M176.184 231.017L170.725 233.789C168.26 234.804 165.001 236.232 162.509 237.137C164.365 236.479 166.114 235.491 167.783 234.118C179.736 224.265 181.008 199.041 170.672 177.88C172.183 177.359 173.693 176.755 175.151 176.069C176.158 175.602 177.112 175.108 178.066 174.586C190.522 194.815 190.919 219.297 178.993 229.123C178.066 229.864 177.138 230.495 176.184 231.017ZM176.608 230.77C177.536 230.248 178.437 229.644 179.285 228.931C191.237 219.078 190.76 194.65 178.251 174.449C177.244 175.026 176.184 175.547 175.098 176.041C173.561 176.755 171.971 177.386 170.38 177.935C180.663 199.124 179.312 224.375 167.359 234.228C165.69 235.6 163.887 236.616 162.006 237.275C164.63 236.259 168.128 234.942 170.672 233.789L176.608 230.77Z" fill="#161616"/>
<path d="M196.591 215.595C194.604 217.433 191.98 219.959 189.913 221.688L185.301 225.228C185.619 225.009 185.937 224.762 186.256 224.487C198.208 214.634 196.671 190.865 182.863 171.515C183.685 170.911 184.506 170.307 185.275 169.649C186.494 168.633 187.66 167.563 188.773 166.438C203.667 183.674 206.927 205.192 196.591 215.595Z" fill="black"/>
<path d="M196.59 215.591C194.603 217.43 191.979 219.955 189.912 221.684L185.301 225.225C185.619 225.005 185.937 224.758 186.255 224.484C198.207 214.631 196.67 190.862 182.862 171.512C183.684 170.908 184.506 170.304 185.274 169.645C186.493 168.63 187.659 167.56 188.772 166.434C203.666 183.671 206.926 205.189 196.59 215.591ZM196.935 215.234C207.165 204.805 203.852 183.396 188.958 166.27C187.792 167.45 186.573 168.602 185.274 169.645C184.426 170.332 183.551 171.018 182.65 171.649C196.405 191.054 197.889 214.85 185.937 224.704C185.592 224.978 185.248 225.252 184.903 225.499L189.912 221.657C192.059 219.791 194.921 217.265 196.935 215.234Z" fill="#161616"/>
<path d="M211.618 195.556C209.339 199.261 206.132 204.092 203.588 207.632C211.989 196.873 207.563 177.551 192.457 162.263C194.047 160.232 195.505 158.036 196.777 155.73C211.936 168.411 217.634 184.879 211.618 195.556Z" fill="black"/>
<path d="M211.618 195.556C209.338 199.262 206.132 204.092 203.587 207.633C211.989 196.874 207.563 177.551 192.457 162.264C194.047 160.233 195.504 158.037 196.777 155.731C211.936 168.412 217.633 184.88 211.618 195.556ZM211.856 195.145C217.792 184.468 212.042 168.11 196.936 155.512C195.584 157.954 194.047 160.287 192.324 162.456C207.43 177.798 211.83 197.258 203.322 207.99C208.967 200.25 209.179 199.948 211.856 195.145Z" fill="#161616"/>
<path d="M220.919 172.858L220.124 175.631C219.011 178.869 217.5 183.151 216.228 186.307C220.707 175.96 214.347 161.468 199.373 150.599C200.433 148.129 201.334 145.576 202.05 142.914C223.569 156.253 221.926 169.208 220.919 172.858Z" fill="black"/>
<path d="M220.919 172.859L220.124 175.632C219.011 178.87 217.5 183.152 216.228 186.308C220.707 175.961 214.346 161.469 199.373 150.6C200.433 148.13 201.334 145.577 202.049 142.915C223.569 156.254 221.926 169.209 220.919 172.859ZM221.025 172.42C224.125 157.297 208.807 146.566 202.102 142.641C201.334 145.468 200.38 148.212 199.24 150.82C214.24 161.771 220.548 176.345 216.016 186.693C217.314 183.399 219.011 178.953 220.097 175.577L221.025 172.42Z" fill="#161616"/>
<path d="M224.815 148.952C224.576 151.642 224.311 155.237 223.967 157.927L223.172 162.922C224.576 150.434 213.181 141.926 203.375 137.013C203.879 134.24 204.197 131.359 204.382 128.449C221.794 135.201 225.106 143.325 224.815 148.952Z" fill="black"/>
<path d="M224.815 148.953C224.577 151.643 224.312 155.238 223.967 157.928L223.172 162.923C224.577 150.435 213.181 141.927 203.375 137.014C203.879 134.242 204.197 131.36 204.382 128.45C221.794 135.202 225.107 143.326 224.815 148.953ZM224.842 148.486C225.292 140.829 217.951 132.952 204.382 128.148C204.223 131.277 203.852 134.324 203.322 137.261C217.554 144.232 224.736 154.497 223.093 163.363L223.967 157.901C224.232 155.101 224.656 151.313 224.842 148.486Z" fill="#161616"/>
<path d="M223.862 124.716C224.286 128.916 224.79 134.542 224.975 138.769C223.968 129.19 213.288 124.387 204.463 122.027C204.383 119.007 204.145 115.961 203.721 112.859C216.018 114.534 223.12 119.117 223.862 124.716Z" fill="black"/>
<path d="M223.861 124.717C224.285 128.917 224.789 134.543 224.974 138.77C223.967 129.191 213.287 124.388 204.462 122.028C204.382 119.009 204.144 115.962 203.72 112.861C216.017 114.535 223.119 119.118 223.861 124.717ZM223.782 124.278C223.04 118.734 215.937 114.178 203.693 112.559C204.144 115.852 204.409 119.118 204.462 122.33C217.527 125.87 224.815 132.375 224.974 139.237C224.736 134.736 224.338 128.725 223.782 124.278Z" fill="#161616"/>
<path d="M218.429 100.81L219.436 104.077C220.258 107.26 221.398 111.46 222.113 114.671C220.47 109.484 213.898 106.602 202.555 106.108C201.892 102.979 201.044 99.7949 200.037 96.6385C204.118 96.3091 216.468 95.2936 218.429 100.81Z" fill="black"/>
<path d="M218.429 100.812L219.436 104.078C220.257 107.262 221.397 111.461 222.113 114.673C220.469 109.485 213.897 106.603 202.554 106.109C201.892 102.98 201.044 99.7964 200.037 96.64C204.118 96.3107 216.468 95.2951 218.429 100.812ZM218.296 100.373C217.183 97.9849 214.056 94.9932 199.957 96.3381C201.044 99.7141 201.945 103.09 202.634 106.411C214.374 106.933 221.238 110.336 222.219 115.112C221.423 111.791 220.39 107.344 219.462 104.078L218.296 100.373Z" fill="#161616"/>
<path d="M208.781 77.564C210.08 80.2812 211.882 83.8493 213.074 86.5939L214.903 90.9854C213.816 88.2133 207.801 87.582 197.571 89.7778C196.299 86.5939 194.868 83.4376 193.225 80.2812C202.553 76.6582 207.907 75.8623 208.781 77.564Z" fill="black"/>
<path d="M208.782 77.5647C210.081 80.2819 211.883 83.85 213.075 86.5946L214.904 90.9861C213.817 88.214 207.801 87.5827 197.572 89.7784C196.3 86.5946 194.869 83.4383 193.225 80.2819C202.554 76.6589 207.907 75.863 208.782 77.5647ZM208.543 77.153C207.695 75.4787 202.369 76.3021 193.066 79.98C194.816 83.3285 196.353 86.7044 197.704 90.0804C201.918 89.2844 213.102 87.1436 215.089 91.4252L213.075 86.5946C211.724 83.7676 210.001 79.9251 208.543 77.153Z" fill="#161616"/>
<path d="M81.043 39.989C81.8645 39.1931 82.7391 38.4246 83.6136 37.7109C97.6331 56.4296 99.5147 79.2927 87.7214 89.0088L87.4829 89.2284C98.0836 79.0456 95.3539 57.5 81.043 39.989Z" fill="black"/>
<path d="M81.0437 39.9908C81.8653 39.1948 82.7398 38.4263 83.6144 37.7127C97.6338 56.4313 99.5154 79.2944 87.7222 89.0105L87.4836 89.2301C98.0843 79.0474 95.3547 57.5017 81.0437 39.9908ZM80.5137 39.7163C95.1426 57.2273 98.0843 78.9651 87.4571 89.2301L87.7222 88.9831C99.5949 79.1846 97.6073 56.0196 83.2699 37.2461C82.3158 38.042 81.4147 38.8654 80.5137 39.7163Z" fill="#161616"/>
<path d="M72.8535 50.3675C74.1786 48.1443 75.6627 46.0035 77.2793 44.0273C91.8553 59.6171 95.804 79.0493 87.085 89.6163L87.032 89.6986C86.8464 89.9457 86.6344 90.275 86.4754 90.522C92.7563 79.9551 87.509 63.3773 72.8535 50.3675Z" fill="black"/>
<path d="M72.8534 50.3659C74.1785 48.1427 75.6626 46.0019 77.2792 44.0257C91.8552 59.6154 95.8039 79.0477 87.0849 89.6147L87.0319 89.697C86.8463 89.944 86.6343 90.2734 86.4753 90.5204C92.7562 79.9534 87.5089 63.3756 72.8534 50.3659ZM72.2969 50.2287C87.2439 63.2109 92.7032 79.8985 86.4223 90.5753C86.5813 90.3008 86.8198 89.9715 87.0054 89.697L87.0849 89.5872C95.963 78.9653 91.9082 59.1763 77.0407 43.4219C75.2916 45.5353 73.7015 47.8133 72.2969 50.2287Z" fill="#161616"/>
<path d="M67.4219 62.8798C68.1904 60.2723 69.1445 57.7747 70.2311 55.3594C84.754 66.5576 90.7169 81.1867 85.9731 91.4792C85.7611 92.0007 85.4961 92.6869 85.3371 93.2084L85.3106 93.2907C88.1728 83.7667 81.5738 71.7176 67.4219 62.8798Z" fill="black"/>
<path d="M67.4207 62.8818C68.1892 60.2744 69.1433 57.7767 70.2298 55.3614C84.7528 66.5597 90.7157 81.1888 85.9719 91.4813C85.7599 92.0028 85.4949 92.6889 85.3359 93.2104L85.3094 93.2928C88.1715 83.7688 81.5726 71.7197 67.4207 62.8818ZM66.8906 62.8544C81.3341 71.6373 88.1185 83.7688 85.2829 93.3751L85.3359 93.2104C85.5214 92.6615 85.7864 91.9479 85.9984 91.4264C90.8482 81.0241 84.7528 66.1205 69.9118 54.8125C68.7192 57.3925 67.7122 60.0823 66.8906 62.8544Z" fill="#161616"/>
<path d="M64.8242 77.0706C65.0362 74.1887 65.4338 71.3891 65.9638 68.6719C79.7712 75.9178 86.6617 86.2652 84.8331 95.103L84.5945 96.5577L84.4355 98.1496C85.0716 90.4097 78.0221 82.258 64.8242 77.0706Z" fill="black"/>
<path d="M64.8247 77.0726C65.0367 74.1907 65.4342 71.3912 65.9643 68.6739C79.7717 75.9199 86.6621 86.2673 84.8335 95.1051L84.595 96.5598L84.436 98.1517C85.072 90.4117 78.0226 82.26 64.8247 77.0726ZM64.3477 77.155C77.8105 82.2875 85.0455 90.4392 84.4625 98.234L84.648 96.5323C84.7275 96.0657 84.807 95.4619 84.913 94.9953C86.7946 86.0202 79.7452 75.4807 65.6197 68.125C64.9837 71.0618 64.5597 74.0809 64.3477 77.155Z" fill="#161616"/>
<path d="M65.1679 92.3854C64.8233 89.3388 64.6378 86.3197 64.6113 83.3555C77.3057 87.1706 84.3286 93.8401 84.3816 100.702V101.004C84.4346 102.184 84.5406 103.721 84.6467 104.901C84.0106 99.2471 77.1202 94.4439 65.1679 92.3854Z" fill="black"/>
<path d="M65.1683 92.3871C64.8238 89.3405 64.6383 86.3214 64.6118 83.3571C77.3061 87.1722 84.3291 93.8417 84.3821 100.703V101.005C84.4351 102.186 84.5411 103.723 84.6471 104.903C84.0111 99.2487 77.1206 94.4456 65.1683 92.3871ZM64.7443 92.6066C76.9616 94.5554 83.9846 99.3585 84.6471 105.067C84.5411 103.86 84.4086 102.24 84.3556 101.033V100.594C84.3556 93.5947 77.1206 86.788 64.1348 82.918C64.1613 86.1018 64.3468 89.3405 64.7443 92.6066Z" fill="#161616"/>
<path d="M68.5342 108.387C67.5801 105.258 66.8116 102.129 66.2285 99.0273C74.0465 99.7959 83.2691 101.525 85.1773 108.277C85.4953 109.677 85.9193 111.543 86.3169 112.915L86.4229 113.3C85.3098 109.649 79.0819 107.673 68.5342 108.387Z" fill="black"/>
<path d="M68.5341 108.388C67.58 105.259 66.8114 102.13 66.2284 99.0285C74.0464 99.797 83.269 101.526 85.1772 108.278C85.4952 109.678 85.9192 111.544 86.3167 112.917L86.4228 113.301C85.3097 109.65 79.0818 107.674 68.5341 108.388ZM68.163 108.745C78.9758 107.894 85.3362 109.815 86.4493 113.493L86.2902 112.944C85.9192 111.517 85.4157 109.595 85.1242 108.141C84.1966 103.2 77.3857 99.55 65.6719 98.7266C66.3344 102.02 67.156 105.369 68.163 108.745Z" fill="#161616"/>
<path d="M74.9741 124.58C73.4105 121.451 72.0589 118.322 70.8398 115.165C80.8045 113.381 86.6614 114.287 87.748 117.169L88.8346 119.831L90.1861 122.713C89.2851 120.902 84.0377 121.396 74.9741 124.58Z" fill="black"/>
<path d="M74.974 124.58C73.4104 121.451 72.0588 118.322 70.8397 115.166C80.8044 113.382 86.6613 114.288 87.7479 117.17L88.8344 119.832L90.186 122.714C89.285 120.902 84.0376 121.396 74.974 124.58ZM74.709 125.019C78.2072 123.812 88.8344 120.079 90.2655 122.906L88.8344 119.859L87.6684 117.005C86.9793 115.742 85.1242 112.394 70.2832 114.946C71.5818 118.322 73.0394 121.671 74.709 125.019Z" fill="#161616"/>
<path d="M84.3299 140.088C82.3157 137.288 80.3811 134.351 78.6055 131.277C87.0065 127.078 91.7238 125.651 92.3864 126.776C93.42 128.423 94.798 130.591 95.9111 132.183C95.7256 131.936 91.7769 134.598 84.3299 140.088Z" fill="black"/>
<path d="M84.3298 140.089C82.3156 137.29 80.381 134.353 78.6054 131.279C87.0064 127.08 91.7237 125.652 92.3863 126.778C93.4199 128.425 94.798 130.593 95.911 132.185C95.7255 131.938 91.7768 134.6 84.3298 140.089ZM84.1972 140.611C91.8563 134.902 95.858 132.13 96.0435 132.377C94.8775 130.675 93.3669 128.37 92.2803 126.613C91.6177 125.433 86.7149 126.888 78.0488 131.169C79.957 134.463 81.9976 137.619 84.1972 140.611Z" fill="#161616"/>
<path d="M95.6723 153.457C93.3136 151.096 91.0345 148.599 88.8613 145.991C95.6458 139.596 98.9585 136.138 98.6935 135.863C99.515 136.796 100.575 138.059 101.423 138.965L102.881 140.447C103.835 141.353 101.45 145.854 95.6723 153.457Z" fill="black"/>
<path d="M95.6711 153.453C93.3124 151.093 91.0333 148.595 88.8601 145.988C95.6446 139.593 98.9573 136.135 98.6923 135.86C99.5138 136.793 100.574 138.056 101.422 138.962L102.88 140.444C103.834 141.349 101.448 145.851 95.6711 153.453ZM95.6446 154.002C101.581 146.153 104.019 141.514 103.012 140.553L101.422 138.934C100.574 137.946 99.3813 136.683 98.5598 135.668C98.7983 135.942 95.353 139.456 88.3301 145.988C90.6622 148.815 93.1004 151.505 95.6446 154.002Z" fill="#161616"/>
<path d="M108.473 164.325C105.876 162.458 103.332 160.455 100.867 158.314C105.903 149.86 107.546 144.7 106.035 143.383L107.042 144.234C108.076 145.057 109.454 146.155 110.514 146.923C112.952 148.653 112.448 154.718 108.473 164.325Z" fill="black"/>
<path d="M108.472 164.325C105.875 162.459 103.33 160.455 100.866 158.314C105.901 149.861 107.544 144.701 106.034 143.383L107.041 144.234C108.074 145.058 109.452 146.155 110.512 146.924C112.951 148.653 112.447 154.719 108.472 164.325ZM108.551 164.929C112.632 155.048 113.163 148.79 110.645 147.034C109.558 146.21 108.074 145.112 107.014 144.234L105.875 143.246C107.385 144.564 105.663 149.833 100.389 158.479C103.065 160.812 105.769 162.953 108.551 164.929Z" fill="#161616"/>
<path d="M122.281 172.529C119.551 171.212 116.848 169.73 114.171 168.11C117.298 157.681 116.927 151.011 113.773 149.09C115.072 149.831 116.848 150.819 118.173 151.505C122.413 153.509 124.136 160.947 122.281 172.529Z" fill="black"/>
<path d="M122.28 172.53C119.551 171.212 116.847 169.73 114.171 168.111C117.298 157.681 116.927 151.011 113.773 149.09C115.072 149.831 116.847 150.819 118.172 151.505C122.413 153.509 124.135 160.947 122.28 172.53ZM122.466 173.133C124.4 161.276 122.651 153.619 118.331 151.588C116.9 150.847 115.019 149.831 113.641 149.035C116.794 150.956 117.086 157.791 113.8 168.413C116.635 170.142 119.524 171.734 122.466 173.133Z" fill="#161616"/>
<path d="M136.564 177.801C133.782 177.087 130.999 176.181 128.216 175.111C129.117 162.705 126.282 154.745 121.193 152.824C121.962 153.099 122.969 153.455 123.738 153.703L125.116 154.087C131.45 155.706 135.955 164.242 136.564 177.801Z" fill="black"/>
<path d="M136.564 177.801C133.781 177.087 130.999 176.182 128.216 175.111C129.117 162.705 126.281 154.746 121.193 152.824C121.962 153.099 122.969 153.456 123.737 153.703L125.115 154.087C131.449 155.706 135.955 164.242 136.564 177.801ZM136.856 178.377C136.299 164.489 131.688 155.734 125.221 154.114L123.737 153.703C122.942 153.428 121.856 153.071 121.061 152.77C126.175 154.746 128.958 162.842 127.925 175.495C130.893 176.648 133.861 177.609 136.856 178.377Z" fill="#161616"/>
<path d="M150.849 179.915C148.12 179.833 145.337 179.531 142.554 179.092C140.779 164.737 134.895 155.844 127.607 154.637L128.243 154.746C128.959 154.829 129.887 154.911 130.602 154.966C142.713 156.174 148.305 169.211 150.849 179.915Z" fill="black"/>
<path d="M150.849 179.915C148.119 179.833 145.337 179.531 142.554 179.092C140.778 164.737 134.895 155.844 127.607 154.637L128.243 154.747C128.958 154.829 129.886 154.911 130.602 154.966C142.713 156.174 148.305 169.211 150.849 179.915ZM151.246 180.437C146.079 160.071 137.253 155.323 130.734 154.939C129.992 154.884 129.011 154.802 128.269 154.719L127.527 154.609C134.842 155.844 140.725 164.929 142.368 179.558C145.337 180.052 148.305 180.354 151.246 180.437Z" fill="#161616"/>
<path d="M164.709 178.651C162.111 179.227 159.435 179.611 156.758 179.803C151.749 163.582 142.023 154.223 132.482 154.909C133.092 154.854 133.887 154.745 134.47 154.635C151.908 151.89 162.005 172.338 164.709 178.651Z" fill="black"/>
<path d="M164.709 178.651C162.112 179.227 159.435 179.611 156.759 179.803C151.75 163.582 142.024 154.223 132.483 154.909C133.092 154.854 133.888 154.744 134.471 154.635C151.909 151.89 162.006 172.338 164.709 178.651ZM165.16 179.117C153.472 152.878 138.737 153.729 134.497 154.635C133.172 154.882 133.172 154.882 132.377 154.937C141.971 154.305 151.723 163.857 156.626 180.38C159.515 180.16 162.377 179.748 165.16 179.117Z" fill="#161616"/>
<path d="M177.536 173.821C176.608 174.343 175.628 174.837 174.647 175.276C173.19 175.962 171.732 176.539 170.221 177.06C161.264 159.357 146.82 150.327 135.451 154.334C135.663 154.252 135.955 154.142 136.167 154.032L136.538 153.84C148.464 147.308 166.008 155.624 177.536 173.821Z" fill="black"/>
<path d="M177.535 173.822C176.608 174.343 175.627 174.837 174.646 175.276C173.189 175.962 171.731 176.539 170.221 177.06C161.263 159.357 146.82 150.327 135.45 154.334C135.662 154.252 135.954 154.142 136.166 154.033L136.537 153.84C148.463 147.308 166.007 155.624 177.535 173.822ZM178.065 174.178C166.457 155.624 148.595 147.171 136.59 153.868L136.192 154.06C135.954 154.142 135.662 154.28 135.424 154.362C146.873 150.382 161.369 159.632 170.247 177.664C171.837 177.115 173.401 176.484 174.938 175.77C175.998 175.276 177.058 174.727 178.065 174.178Z" fill="#161616"/>
<path d="M184.717 168.961C183.949 169.592 183.154 170.223 182.332 170.8C168.869 152.465 149.02 144.945 137.094 153.536L137.306 153.371C149.099 143.655 170.221 150.654 184.717 168.961Z" fill="black"/>
<path d="M184.719 168.964C183.95 169.595 183.155 170.226 182.333 170.802C168.87 152.468 149.021 144.948 137.095 153.539L137.307 153.374C149.1 143.658 170.222 150.657 184.719 168.964ZM185.063 169.403C170.567 150.766 149.206 143.575 137.307 153.374L137.068 153.566C149.1 145.003 169.083 152.743 182.466 171.406C183.34 170.775 184.215 170.089 185.063 169.403Z" fill="#161616"/>
</g>
<defs>
<clipPath id="clip0_3929_6779">
<rect width="225" height="242.327" fill="white"/>
</clipPath>
</defs>
</svg>
