<svg width="19" height="19" viewBox="0 0 19 19" fill="none" xmlns="http://www.w3.org/2000/svg">
<g opacity="0.1" clip-path="url(#clip0_2309_8006)">
<path fill-rule="evenodd" clip-rule="evenodd" d="M3.04 9.56027C3.04 6.49652 5.14568 3.92777 7.98 3.23984V0.121094C3.45583 0.853287 0 4.8006 0 9.56027C0 14.3199 3.45583 18.2672 7.98 18.9994V15.8806C5.14568 15.1927 3.04 12.6239 3.04 9.56027ZM19 9.56027C19 14.3199 15.5442 18.2672 11.02 18.9994V15.8806C13.8543 15.1927 15.96 12.6239 15.96 9.56027C15.96 6.49652 13.8543 3.92777 11.02 3.23984V0.121094C15.5442 0.853287 19 4.8006 19 9.56027Z" fill="#3D3D3D"/>
</g>
<defs>
<clipPath id="clip0_2309_8006">
<rect width="19" height="19" fill="white"/>
</clipPath>
</defs>
</svg>
