<svg width="25" height="24" viewBox="0 0 25 24" fill="none" xmlns="http://www.w3.org/2000/svg">
<path d="M12.4997 7.50194C11.6097 7.50194 10.7396 7.76586 9.99962 8.26032C9.2596 8.75479 8.68283 9.45759 8.34223 10.2799C8.00164 11.1021 7.91252 12.0069 8.08616 12.8798C8.25979 13.7528 8.68837 14.5546 9.31771 15.1839C9.94705 15.8133 10.7489 16.2418 11.6218 16.4155C12.4947 16.5891 13.3995 16.5 14.2218 16.1594C15.044 15.8188 15.7468 15.242 16.2413 14.502C16.7358 13.762 16.9997 12.892 16.9997 12.0019C16.9984 10.8088 16.5239 9.66497 15.6803 8.82133C14.8367 7.97768 13.6928 7.50318 12.4997 7.50194ZM12.4997 15.0019C11.9063 15.0019 11.3263 14.826 10.833 14.4963C10.3396 14.1667 9.95511 13.6982 9.72805 13.15C9.50099 12.6018 9.44158 11.9986 9.55733 11.4167C9.67309 10.8347 9.95881 10.3002 10.3784 9.88062C10.7979 9.46106 11.3325 9.17533 11.9144 9.05958C12.4964 8.94382 13.0996 9.00323 13.6477 9.2303C14.1959 9.45736 14.6645 9.84188 14.9941 10.3352C15.3237 10.8286 15.4997 11.4086 15.4997 12.0019C15.4997 12.7976 15.1836 13.5606 14.621 14.1233C14.0584 14.6859 13.2953 15.0019 12.4997 15.0019ZM22.8066 10.0529C22.7857 9.94726 22.7423 9.84738 22.6794 9.76003C22.6164 9.67267 22.5354 9.59989 22.4419 9.54662L19.6453 7.95287L19.6341 4.801C19.6337 4.69245 19.6098 4.58527 19.564 4.48685C19.5182 4.38844 19.4516 4.30115 19.3688 4.231C18.3543 3.3729 17.1861 2.71531 15.9263 2.29319C15.827 2.2596 15.7219 2.24718 15.6176 2.2567C15.5133 2.26623 15.4121 2.2975 15.3206 2.3485L12.4997 3.92537L9.67594 2.34569C9.5844 2.2944 9.48311 2.26289 9.37863 2.2532C9.27414 2.24352 9.16879 2.25586 9.06938 2.28944C7.81045 2.71465 6.64359 3.37475 5.63063 4.23475C5.54791 4.3048 5.48136 4.39194 5.43556 4.49018C5.38975 4.58842 5.36579 4.69542 5.36532 4.80381L5.35125 7.9585L2.55469 9.55225C2.46113 9.60551 2.38013 9.6783 2.3172 9.76565C2.25428 9.85301 2.21089 9.95288 2.19 10.0585C1.93406 11.3446 1.93406 12.6686 2.19 13.9547C2.21089 14.0604 2.25428 14.1602 2.3172 14.2476C2.38013 14.335 2.46113 14.4077 2.55469 14.461L5.35125 16.0547L5.3625 19.2066C5.36284 19.3152 5.38674 19.4224 5.43255 19.5208C5.47835 19.6192 5.54498 19.7065 5.62782 19.7766C6.64226 20.6347 7.81046 21.2923 9.07031 21.7144C9.16953 21.748 9.27468 21.7604 9.37899 21.7509C9.48329 21.7414 9.58445 21.7101 9.67594 21.6591L12.4997 20.0785L15.3234 21.6582C15.4352 21.7204 15.5611 21.7527 15.6891 21.7519C15.771 21.7519 15.8523 21.7386 15.93 21.7126C17.1888 21.2879 18.3556 20.6285 19.3688 19.7691C19.4515 19.6991 19.518 19.6119 19.5638 19.5137C19.6096 19.4155 19.6336 19.3085 19.6341 19.2001L19.6481 16.0454L22.4447 14.4516C22.5383 14.3984 22.6192 14.3256 22.6822 14.2382C22.7451 14.1509 22.7885 14.051 22.8094 13.9454C23.0639 12.6603 23.0629 11.3376 22.8066 10.0529ZM21.4003 13.3257L18.7219 14.8491C18.6045 14.9159 18.5074 15.013 18.4406 15.1304C18.3863 15.2241 18.3291 15.3235 18.2709 15.4172C18.1965 15.5355 18.1569 15.6722 18.1566 15.8119L18.1425 18.8354C17.4226 19.4007 16.6205 19.8528 15.7641 20.176L13.0622 18.6704C12.95 18.6083 12.8238 18.576 12.6956 18.5766H12.6778C12.5644 18.5766 12.45 18.5766 12.3366 18.5766C12.2024 18.5733 12.0697 18.6056 11.9522 18.6704L9.24844 20.1797C8.39017 19.8591 7.5859 19.4092 6.86344 18.8457L6.85313 15.8269C6.85266 15.687 6.81305 15.5499 6.73875 15.4313C6.68063 15.3376 6.62344 15.2438 6.57 15.1444C6.50374 15.0253 6.40659 14.9262 6.28875 14.8576L3.6075 13.3304C3.46875 12.4527 3.46875 11.5587 3.6075 10.681L6.28125 9.15475C6.39861 9.08802 6.49577 8.99085 6.5625 8.8735C6.61688 8.77975 6.67407 8.68037 6.73219 8.58662C6.80659 8.4684 6.84623 8.33162 6.84656 8.19194L6.86063 5.1685C7.58056 4.60313 8.38262 4.15105 9.23907 3.82787L11.9372 5.3335C12.0546 5.39859 12.1874 5.43096 12.3216 5.42725C12.435 5.42725 12.5494 5.42725 12.6628 5.42725C12.797 5.4306 12.9296 5.39825 13.0472 5.3335L15.7509 3.82412C16.6092 4.14482 17.4135 4.59469 18.1359 5.15819L18.1463 8.17693C18.1467 8.3169 18.1863 8.45394 18.2606 8.57256C18.3188 8.66631 18.3759 8.76006 18.4294 8.85944C18.4956 8.9786 18.5928 9.0777 18.7106 9.14631L21.3919 10.6735C21.5325 11.5518 21.5341 12.4468 21.3966 13.3257H21.4003Z" fill="white"/>
</svg>
