<svg width="16" height="16" viewBox="0 0 16 16" fill="none" xmlns="http://www.w3.org/2000/svg">
<path d="M14.25 4.00007C14.25 3.58757 14.1366 3.18301 13.9222 2.8306C13.7078 2.47819 13.4007 2.19149 13.0344 2.00186C12.6681 1.81222 12.2566 1.72694 11.8451 1.75534C11.4336 1.78373 11.0378 1.92471 10.701 2.16286C10.3642 2.40102 10.0993 2.72717 9.93537 3.10569C9.77141 3.48421 9.71467 3.90051 9.77134 4.3091C9.82801 4.71769 9.99591 5.10284 10.2567 5.42245C10.5175 5.74205 10.8611 5.98382 11.25 6.12132V6.50007C11.25 6.69898 11.171 6.88975 11.0303 7.0304C10.8897 7.17105 10.6989 7.25007 10.5 7.25007H6C5.7445 7.24995 5.49084 7.29349 5.25 7.37882V6.12132C5.75042 5.9444 6.17217 5.59627 6.44073 5.13846C6.70929 4.68065 6.80735 4.14264 6.7176 3.61952C6.62785 3.0964 6.35605 2.62185 5.95025 2.27974C5.54445 1.93764 5.03077 1.75 4.5 1.75C3.96924 1.75 3.45556 1.93764 3.04976 2.27974C2.64396 2.62185 2.37216 3.0964 2.28241 3.61952C2.19265 4.14264 2.29072 4.68065 2.55928 5.13846C2.82784 5.59627 3.24959 5.9444 3.75 6.12132V9.87882C3.24959 10.0557 2.82784 10.4039 2.55928 10.8617C2.29072 11.3195 2.19265 11.8575 2.28241 12.3806C2.37216 12.9037 2.64396 13.3783 3.04976 13.7204C3.45556 14.0625 3.96924 14.2501 4.5 14.2501C5.03077 14.2501 5.54445 14.0625 5.95025 13.7204C6.35605 13.3783 6.62785 12.9037 6.7176 12.3806C6.80735 11.8575 6.70929 11.3195 6.44073 10.8617C6.17217 10.4039 5.75042 10.0557 5.25 9.87882V9.50007C5.25 9.30116 5.32902 9.11039 5.46967 8.96974C5.61033 8.82909 5.80109 8.75007 6 8.75007H10.5C11.0967 8.75007 11.669 8.51302 12.091 8.09106C12.513 7.66911 12.75 7.09681 12.75 6.50007V6.12132C13.1883 5.96568 13.5678 5.67827 13.8363 5.2985C14.1048 4.91873 14.2494 4.4652 14.25 4.00007ZM4.5 3.25007C4.64834 3.25007 4.79335 3.29406 4.91668 3.37647C5.04002 3.45888 5.13615 3.57601 5.19291 3.71306C5.24968 3.8501 5.26453 4.0009 5.23559 4.14639C5.20665 4.29188 5.13522 4.42551 5.03033 4.5304C4.92545 4.63529 4.79181 4.70672 4.64632 4.73566C4.50084 4.7646 4.35004 4.74975 4.21299 4.69298C4.07595 4.63622 3.95881 4.54009 3.8764 4.41675C3.79399 4.29341 3.75 4.14841 3.75 4.00007C3.75 3.80116 3.82902 3.61039 3.96967 3.46974C4.11033 3.32909 4.30109 3.25007 4.5 3.25007ZM4.5 12.7501C4.35167 12.7501 4.20666 12.7061 4.08333 12.6237C3.95999 12.5413 3.86386 12.4241 3.80709 12.2871C3.75033 12.15 3.73548 11.9992 3.76442 11.8538C3.79335 11.7083 3.86479 11.5746 3.96967 11.4697C4.07456 11.3649 4.2082 11.2934 4.35369 11.2645C4.49917 11.2355 4.64997 11.2504 4.78702 11.3072C4.92406 11.3639 5.0412 11.4601 5.12361 11.5834C5.20602 11.7067 5.25 11.8517 5.25 12.0001C5.25 12.199 5.17099 12.3898 5.03033 12.5304C4.88968 12.6711 4.69892 12.7501 4.5 12.7501ZM12 4.75007C11.8517 4.75007 11.7067 4.70608 11.5833 4.62367C11.46 4.54126 11.3639 4.42413 11.3071 4.28708C11.2503 4.15004 11.2355 3.99924 11.2644 3.85375C11.2934 3.70827 11.3648 3.57463 11.4697 3.46974C11.5746 3.36485 11.7082 3.29342 11.8537 3.26448C11.9992 3.23554 12.15 3.2504 12.287 3.30716C12.4241 3.36393 12.5412 3.46006 12.6236 3.58339C12.706 3.70673 12.75 3.85174 12.75 4.00007C12.75 4.19898 12.671 4.38975 12.5303 4.5304C12.3897 4.67105 12.1989 4.75007 12 4.75007Z" fill="#71717A"/>
</svg>
