<svg width="50" height="51" viewBox="0 0 50 51" fill="none" xmlns="http://www.w3.org/2000/svg">
<path d="M24.9993 50.2656C23.6565 50.2656 22.3082 50.1585 20.9946 49.9456C15.1964 49.0119 9.88229 46.0314 6.03346 41.5536C2.14289 37.0271 0 31.2427 0 25.2649C0 11.4796 11.2153 0.265625 24.9993 0.265625C38.7833 0.265625 50 11.4809 50 25.2649C50 31.3346 47.7987 37.1871 43.7996 41.7442C39.8394 46.2596 34.3988 49.1998 28.4794 50.0249C27.3342 50.1849 26.1626 50.2656 24.9993 50.2656ZM24.9993 1.9354C12.1351 1.9354 1.66977 12.4007 1.66977 25.2649C1.66977 36.7822 9.90872 46.4697 21.2604 48.2967C23.5494 48.6654 25.9455 48.6919 28.2484 48.3704C39.6961 46.7758 48.3288 36.842 48.3288 25.2649C48.3288 12.4007 37.8635 1.9354 24.9979 1.9354H24.9993Z" fill="white"/>
<path d="M32.5669 10.7578H17.4318C13.2504 10.7578 9.84961 14.1586 9.84961 18.34V32.1866C9.84961 36.368 13.2504 39.7688 17.4318 39.7688H32.5669C36.7483 39.7688 40.1491 36.368 40.1491 32.1866V18.34C40.1491 14.1586 36.7483 10.7578 32.5669 10.7578ZM12.524 18.34C12.524 15.6336 14.7253 13.4322 17.4318 13.4322H32.5669C35.2733 13.4322 37.4746 15.6336 37.4746 18.34V32.1866C37.4746 34.893 35.2733 37.0943 32.5669 37.0943H17.4318C14.7253 37.0943 12.524 34.893 12.524 32.1866V18.34Z" fill="white"/>
<path d="M24.9987 32.3177C28.8879 32.3177 32.0521 29.1535 32.0521 25.2643C32.0521 21.3752 28.8879 18.2109 24.9987 18.2109C21.1096 18.2109 17.9453 21.3752 17.9453 25.2643C17.9453 29.1535 21.1096 32.3177 24.9987 32.3177ZM24.9987 20.8867C27.413 20.8867 29.3763 22.8501 29.3763 25.2643C29.3763 27.6786 27.413 29.6419 24.9987 29.6419C22.5845 29.6419 20.6211 27.6786 20.6211 25.2643C20.6211 22.8501 22.5845 20.8867 24.9987 20.8867Z" fill="white"/>
<path d="M32.7074 19.3484C33.7552 19.3484 34.6081 18.4954 34.6081 17.4476C34.6081 16.3999 33.7552 15.5469 32.7074 15.5469C31.6596 15.5469 30.8066 16.3999 30.8066 17.4476C30.8066 18.4954 31.6596 19.3484 32.7074 19.3484Z" fill="white"/>
</svg>
