<svg width="50" height="51" viewBox="0 0 50 51" fill="none" xmlns="http://www.w3.org/2000/svg">
<path d="M25 50.2642C23.6558 50.2642 22.3088 50.1571 20.9952 49.9456C15.1968 49.0119 9.88254 46.0314 6.0336 41.5536C2.14292 37.0271 0 31.2427 0 25.2649C0 11.4795 11.2156 0.265625 25 0.265625C38.7843 0.265625 50 11.4809 50 25.2649C50 31.3346 47.7986 37.1871 43.7994 41.7442C39.8391 46.2596 34.3983 49.1998 28.4788 50.0249C27.3335 50.1849 26.1619 50.2656 24.9986 50.2656L25 50.2642ZM25 1.93401C12.1354 1.93401 1.66982 12.3993 1.66982 25.2635C1.66982 36.7822 9.909 46.4683 21.261 48.2953C23.5487 48.664 25.9462 48.6905 28.2492 48.3691C39.6972 46.7744 48.3302 36.8406 48.3302 25.2635C48.3302 12.3993 37.8645 1.93401 25 1.93401Z" fill="white"/>
<path d="M32.6555 20.7834C32.6527 21.1118 32.6165 21.4374 32.5873 21.7644C32.5776 21.8729 32.5734 21.9815 32.572 22.09C32.5679 22.2778 32.7182 22.4462 32.9046 22.4351C32.9937 22.4295 33.0841 22.4059 33.1704 22.3766C33.4571 22.2764 33.7395 22.1679 34.0234 22.0594C34.2808 21.9606 34.5424 21.8701 34.8096 21.7978C35.099 21.7185 35.3885 21.66 35.6849 21.7087C36.2846 21.8061 36.6742 22.4532 36.4571 23.0209C36.3959 23.1809 36.3013 23.3173 36.1886 23.4439C36.0342 23.6164 35.856 23.7639 35.664 23.8947C35.4386 24.0478 35.209 24.1967 34.9808 24.347C34.6009 24.5974 34.2196 24.8451 33.8411 25.0984C33.6839 25.2027 33.5308 25.3141 33.3819 25.4295C33.2998 25.4936 33.2219 25.5659 33.1523 25.6438C33.0187 25.7927 32.945 25.9833 32.9561 26.1823C32.9673 26.3924 33.0048 26.5984 33.0618 26.8015C33.2427 27.4319 33.5169 28.0191 33.8523 28.5799C34.7484 30.0757 36.0174 31.2445 37.53 32.1991C37.9447 32.4607 38.39 32.6736 38.8255 32.899C38.8867 32.931 38.948 32.9644 39.0078 32.9992C39.069 33.0354 39.1205 33.0827 39.1609 33.1411C39.2221 33.2288 39.2304 33.3206 39.179 33.418C39.1344 33.5001 39.0704 33.5627 38.9994 33.6212C38.9201 33.6866 38.8339 33.7408 38.7462 33.7909C38.2355 34.0804 37.6873 34.296 37.1195 34.4477C36.8454 34.5201 36.5713 34.5994 36.2986 34.6787C36.1302 34.7288 35.9729 34.8025 35.8171 34.8832C35.5555 35.0196 35.4066 35.2353 35.3509 35.5192C35.3203 35.6764 35.3008 35.8364 35.273 35.995C35.202 36.393 35.0573 36.5405 34.6649 36.6087C34.5271 36.6323 34.3866 36.6462 34.2474 36.6546C33.8981 36.6741 33.5475 36.6838 33.1982 36.7033C33.1885 36.7033 33.1787 36.7033 33.169 36.7047C31.7719 36.7868 30.4208 37.2334 29.2227 37.957C29.1587 37.996 29.0946 38.0336 29.032 38.0725C28.5464 38.3661 28.0538 38.6444 27.5236 38.8504C26.9322 39.0799 26.3213 39.2163 25.6896 39.2734C25.1566 39.3221 24.625 39.3151 24.0963 39.2553C23.3031 39.1662 22.5503 38.9352 21.8393 38.5707C21.5095 38.4009 21.1908 38.2117 20.8736 38.0182C20.8555 38.0071 20.8388 37.9974 20.8207 37.9862C19.5614 37.2195 18.1309 36.7562 16.6586 36.6963C16.6489 36.6963 16.6377 36.6963 16.628 36.6963C16.3205 36.6852 16.0116 36.6713 15.7041 36.6532C15.5232 36.6421 15.3437 36.6198 15.1683 36.5711C14.9443 36.5099 14.7814 36.3137 14.7383 36.0855C14.7147 35.9603 14.6952 35.835 14.6729 35.7098C14.6688 35.682 14.6674 35.6541 14.6632 35.6263C14.6117 35.2603 14.4308 34.9904 14.0857 34.8345C13.8742 34.7399 13.6585 34.662 13.4359 34.5994C13.0518 34.4922 12.665 34.399 12.2893 34.264C11.9595 34.1458 11.6394 34.0052 11.3319 33.8382C11.24 33.7881 11.151 33.7325 11.0634 33.6741C11.0063 33.6351 10.9507 33.5906 10.9033 33.5405C10.7489 33.3804 10.7642 33.169 10.9381 33.0312C11.0397 32.9505 11.1579 32.8976 11.2734 32.842C12.0736 32.4496 12.832 31.989 13.5389 31.4449C14.6048 30.6239 15.5079 29.6527 16.1911 28.481C16.4346 28.0622 16.6364 27.6183 16.8019 27.1633C16.9119 26.8628 17.001 26.5594 17.0232 26.2436C17.0385 26.0112 16.9606 25.7788 16.8006 25.609C16.6865 25.488 16.5515 25.3892 16.4165 25.2918C16.2147 25.1485 16.0116 25.0065 15.8042 24.8702C15.3631 24.5793 14.9179 24.2927 14.4754 24.0033C14.2819 23.8767 14.0955 23.7403 13.9271 23.5803C13.8047 23.4648 13.6961 23.3381 13.6084 23.192C13.4262 22.8873 13.4122 22.5728 13.5486 22.2514C13.6293 22.0594 13.7796 21.8966 13.9688 21.8103C14.2388 21.6865 14.5185 21.6712 14.8024 21.7185C15.1071 21.7686 15.4007 21.8632 15.6902 21.9675C15.9865 22.0747 16.2788 22.1902 16.5738 22.3015C16.7115 22.353 16.8493 22.4045 16.9954 22.4267C17.0302 22.4323 17.065 22.442 17.0984 22.4407C17.2682 22.4351 17.4087 22.3808 17.4073 22.1526C17.4073 22.0427 17.4031 21.9314 17.3976 21.8214C17.3725 21.2732 17.3391 20.725 17.3265 20.1767C17.2959 18.8715 17.3015 17.5593 17.6424 16.2903C17.8512 15.5139 18.2144 14.7917 18.7014 14.1516C19.7144 12.82 21.0517 11.9753 22.6505 11.5245C23.5244 11.2782 24.4177 11.1961 25.3222 11.2239C26.178 11.2504 27.0296 11.3951 27.8367 11.6776C28.7969 12.0129 29.6693 12.4999 30.411 13.1901C31.2543 13.9749 31.9041 14.8919 32.2561 16.0023C32.4148 16.5046 32.5164 17.018 32.5776 17.5399C32.7056 18.6182 32.6708 19.7022 32.6597 20.7848L32.6555 20.7834Z" fill="white"/>
</svg>
