<svg width="50" height="51" viewBox="0 0 50 51" fill="none" xmlns="http://www.w3.org/2000/svg">
<path d="M25 50.2656C23.6572 50.2656 22.3088 50.1585 20.9952 49.9456C15.1968 49.0119 9.88254 46.0314 6.0336 41.5536C2.14292 37.0271 0 31.2427 0 25.2649C0 11.4796 11.2156 0.265625 25 0.265625C38.7843 0.265625 50 11.4809 50 25.2649C50 31.3346 47.7986 37.1871 43.7994 41.7442C39.8391 46.2596 34.3983 49.1998 28.4788 50.0249C27.3335 50.1849 26.1619 50.2656 24.9986 50.2656H25ZM25 1.9354C12.1354 1.9354 1.66982 12.4007 1.66982 25.2649C1.66982 36.7822 9.909 46.4697 21.261 48.2967C23.5501 48.6654 25.9462 48.6905 28.2492 48.3704C39.6972 46.7758 48.3302 36.842 48.3302 25.2649C48.3302 12.4007 37.8645 1.9354 25 1.9354Z" fill="white"/>
<path d="M39.2841 16.4157C38.6134 17.0933 37.6838 17.5122 36.6541 17.5122C36.5233 17.5122 36.3925 17.5052 36.2659 17.4913C37.3402 16.847 38.1695 15.8382 38.5828 14.6346C38.5828 14.6346 38.5841 14.6346 38.5841 14.6332C38.6412 14.4718 38.6899 14.309 38.7289 14.1406C37.8786 15.0493 36.7167 15.6643 35.4129 15.8104C35.2125 15.8341 35.0093 15.8452 34.8034 15.8452C34.738 15.8452 34.6754 15.8438 34.6127 15.8396C34.1716 15.3763 33.6457 14.9936 33.0626 14.7125C32.4128 14.3953 31.6864 14.2088 30.9196 14.1851C30.857 14.181 30.7945 14.1796 30.7291 14.1796C30.0792 14.1796 29.4558 14.2951 28.8797 14.508C28.7322 14.5622 28.5889 14.6207 28.4483 14.6889C26.6227 15.5446 25.3591 17.3995 25.3591 19.5493C25.3591 19.9904 25.4134 20.419 25.5122 20.8281C24.9528 20.8058 24.399 20.7515 23.8563 20.6708C23.6824 20.643 23.5084 20.6138 23.3359 20.5804C21.9513 20.323 20.6308 19.8805 19.4035 19.2794C18.3056 18.7422 17.2814 18.0799 16.3505 17.309C15.5671 16.6634 14.8505 15.9426 14.2104 15.155C14.1825 15.1216 14.1546 15.0868 14.1282 15.0534C14.0906 15.1105 14.0558 15.1675 14.0238 15.2274C13.5758 16.0108 13.3225 16.9166 13.3225 17.8823C13.3225 17.9115 13.3225 17.9435 13.3239 17.9728C13.3351 18.6963 13.4881 19.3851 13.7623 20.0113C13.8791 20.2896 14.021 20.5526 14.1839 20.8016C14.6639 21.5405 15.3194 22.1555 16.093 22.5813C16.1278 22.6036 16.164 22.6217 16.2002 22.6384C16.1445 22.6495 16.0875 22.6593 16.0304 22.6648C15.8718 22.6857 15.7076 22.6968 15.5434 22.6968C14.7196 22.6968 13.9529 22.4394 13.3253 22.0011C13.3211 22.047 13.3212 22.0943 13.3212 22.1416C13.3212 23.675 13.964 25.0582 14.9938 26.0336C15.7953 26.7989 16.8319 27.3124 17.9841 27.4626C17.5694 27.6143 17.1214 27.6964 16.6552 27.6964C16.1501 27.6964 15.6659 27.6004 15.2233 27.4237C15.8829 29.5679 17.8491 31.1403 20.1925 31.2099C18.7606 32.6974 16.7498 33.6213 14.5248 33.6213C13.1416 33.6213 11.842 33.2637 10.7148 32.6375C13.4241 34.9822 16.9572 36.3987 20.8214 36.3987C29.3612 36.3987 36.2826 29.4775 36.2826 20.938C36.2826 20.4677 36.2617 20.0029 36.22 19.5437C37.6324 18.9858 38.7525 17.8461 39.2827 16.4171L39.2841 16.4157Z" fill="white"/>
</svg>
