<svg width="50" height="51" viewBox="0 0 50 51" fill="none" xmlns="http://www.w3.org/2000/svg">
<path d="M24.9993 50.2656C23.6565 50.2656 22.3082 50.1585 20.9946 49.9456C15.1963 49.0119 9.88227 46.0314 6.03343 41.5536C2.14286 37.0271 0 31.2427 0 25.2649C0 11.4796 11.2153 0.265625 24.9993 0.265625C38.7833 0.265625 50 11.4809 50 25.2649C50 31.3346 47.7987 37.1871 43.7996 41.7442C39.8394 46.2596 34.3987 49.1998 28.4794 50.0249C27.3342 50.1849 26.1626 50.2656 24.9993 50.2656ZM24.9993 1.9354C12.1351 1.9354 1.66978 12.4007 1.66978 25.2649C1.66978 36.7822 9.9087 46.4697 21.2604 48.2967C23.5494 48.6654 25.9455 48.6919 28.2484 48.3704C39.6961 46.7758 48.3288 36.842 48.3288 25.2649C48.3288 12.4007 37.8635 1.9354 24.9979 1.9354H24.9993Z" fill="white"/>
<path d="M28.3644 20.5066V25.7706H34.8765L33.8454 32.863H28.3644V49.2017C27.2651 49.3548 26.1408 49.4341 24.9998 49.4341C23.682 49.4341 22.3893 49.3283 21.1287 49.1252V32.863H15.123V25.7706H21.1287V19.3308C21.1287 15.3345 24.368 12.0938 28.3657 12.0938V12.0979C28.3769 12.0979 28.388 12.0938 28.3991 12.0938H34.8779V18.226H30.645C29.3857 18.226 28.3657 19.246 28.3657 20.5052L28.3644 20.5066Z" fill="white"/>
</svg>
