<svg width="385" height="366" viewBox="0 0 385 366" fill="none" xmlns="http://www.w3.org/2000/svg">
<path opacity="0.2" d="M362.521 223.492H328.924V237.091H362.521V223.492Z" fill="black"/>
<path opacity="0.2" d="M253.234 113.703H219.637V127.302H253.234V113.703Z" fill="black"/>
<path opacity="0.2" d="M232.538 134.244H198.941V147.843H232.538V134.244Z" fill="black"/>
<path opacity="0.2" d="M255.298 43.9805H221.701V57.5792H255.298V43.9805Z" fill="black"/>
<path opacity="0.2" d="M228.132 208.9H194.535V222.499H228.132V208.9Z" fill="black"/>
<path opacity="0.2" d="M161.9 87.4746H128.303V101.073H161.9V87.4746Z" fill="black"/>
<path opacity="0.2" d="M198.695 87.4746H165.098V101.073H198.695V87.4746Z" fill="black"/>
<path opacity="0.2" d="M170.538 309.459H136.941V323.058H170.538V309.459Z" fill="black"/>
<path opacity="0.2" d="M152.939 326.26H119.342V339.858H152.939V326.26Z" fill="black"/>
<path opacity="0.1" d="M214.144 153.041H180.547V166.64H214.144V153.041Z" fill="black"/>
<path opacity="0.1" d="M164.441 53.6445H130.844V67.2433H164.441V53.6445Z" fill="black"/>
<path opacity="0.1" d="M381.718 256.096H348.121V269.694H381.718V256.096Z" fill="black"/>
<path opacity="0.1" d="M184.937 276.895H151.34V290.493H184.937V276.895Z" fill="black"/>
<path opacity="0.1" d="M223.333 276.895H189.736V290.493H223.333V276.895Z" fill="black"/>
<path opacity="0.1" d="M226.53 257.697H192.934V271.296H226.53V257.697Z" fill="black"/>
<path opacity="0.1" d="M252.536 153.041H218.939V166.64H252.536V153.041Z" fill="black"/>
<path opacity="0.2" d="M269.73 324.889H236.133V338.487H269.73V324.889Z" fill="black"/>
<path opacity="0.1" d="M251.331 343.689H217.734V357.288H251.331V343.689Z" fill="black"/>
<path opacity="0.1" d="M289.728 343.689H256.131V357.288H289.728V343.689Z" fill="black"/>
<path opacity="0.2" d="M106.855 155.635H73.2578V169.233H106.855V155.635Z" fill="black"/>
<path opacity="0.1" d="M88.4562 174.432H54.8594V188.03H88.4562V174.432Z" fill="black"/>
<path opacity="0.1" d="M126.853 174.432H93.2559V188.03H126.853V174.432Z" fill="black"/>
<path opacity="0.2" d="M93.7453 256.898H60.1484V270.497H93.7453V256.898Z" fill="black"/>
<path opacity="0.1" d="M242.532 191.871H208.936V205.47H242.532V191.871Z" fill="black"/>
<path opacity="0.1" d="M192.136 325.457H158.539V339.056H192.136V325.457Z" fill="black"/>
<path opacity="0.1" d="M181.095 70.6738H147.498V84.2726H181.095V70.6738Z" fill="black"/>
<path opacity="0.2" d="M74.5461 211.869H40.9492V225.468H74.5461V211.869Z" fill="black"/>
<path opacity="0.1" d="M93.7453 195.07H60.1484V208.669H93.7453V195.07Z" fill="black"/>
<path opacity="0.1" d="M179.337 113.311H145.74V126.909H179.337V113.311Z" fill="black"/>
<path opacity="0.1" d="M130.357 121.293H96.7598V134.892H130.357V121.293Z" fill="black"/>
<path opacity="0.2" d="M296.124 223.492H262.527V237.091H296.124V223.492Z" fill="black"/>
<path opacity="0.2" d="M50.9738 298.709H17.377V312.308H50.9738V298.709Z" fill="black"/>
<path opacity="0.1" d="M36.4621 107.637H2.86523V121.235H36.4621V107.637Z" fill="black"/>
<path opacity="0.1" d="M74.8586 107.637H41.2617V121.235H74.8586V107.637Z" fill="black"/>
<path opacity="0.1" d="M78.0598 88.4395H44.4629V102.038H78.0598V88.4395Z" fill="black"/>
<path opacity="0.1" d="M52.9465 143.074H19.3496V156.673H52.9465V143.074Z" fill="black"/>
<path opacity="0.2" d="M96.5695 312.707H62.9727V326.306H96.5695V312.707Z" fill="black"/>
<g opacity="0.3">
<path d="M254.768 3.86914V195.715H375.556V3.86914H254.768ZM371.133 49.9528H317.898V10.8525H371.133V49.9528ZM317.898 102.068H371.133V143.96H317.898V102.068ZM317.898 96.9565V55.0644H371.133V96.9565H317.898ZM259.159 10.8525H312.394V49.9528H259.431V55.0644H312.394V96.9565H259.431V102.068H312.394V143.96H259.431V149.056H312.394V188.732H259.159V10.8525ZM317.898 188.732V149.056H371.133V188.732H317.898Z" stroke="black" stroke-linecap="round" stroke-linejoin="round"/>
<path d="M304.764 22.541L277.91 44.7709" stroke="black" stroke-linecap="round" stroke-linejoin="round"/>
<path d="M358.016 66.0625L331.154 88.2924" stroke="black" stroke-linecap="round" stroke-linejoin="round"/>
<path d="M297.355 160.062L270.502 182.284" stroke="black" stroke-linecap="round" stroke-linejoin="round"/>
<path d="M290.678 29.0273L278.375 39.2104" stroke="black" stroke-linecap="round" stroke-linejoin="round"/>
<path d="M355.967 60.9766L343.656 71.1596" stroke="black" stroke-linecap="round" stroke-linejoin="round"/>
<path d="M295.772 167.008L283.461 177.199" stroke="black" stroke-linecap="round" stroke-linejoin="round"/>
<path d="M292.071 117.922L279.76 128.113" stroke="black" stroke-linecap="round" stroke-linejoin="round"/>
<path d="M355.039 160.99L342.729 171.173" stroke="black" stroke-linecap="round" stroke-linejoin="round"/>
<path d="M383.012 195.588H247.809V212.386H383.012V195.588Z" stroke="black" stroke-linecap="round" stroke-linejoin="round"/>
</g>
<g opacity="0.3">
<path d="M56.0212 77.687L56.5171 72.8555H24.4961L24.992 77.687H56.0212Z" stroke="black" stroke-linecap="round" stroke-linejoin="round"/>
<path d="M54.707 90.3962H26.3017L22.75 56.0234H58.2507L54.707 90.3962Z" stroke="black" stroke-linecap="round" stroke-linejoin="round"/>
<path d="M28.5509 55.7764C25.342 55.145 22.3484 53.7019 19.8557 51.5848C15.6641 48.0412 8.25676 47.0733 5.673 49.0091C3.8669 50.4082 2.14662 51.9148 0.521484 53.5206C0.521484 53.5206 2.4573 46.4333 7.60882 44.8175C12.7603 43.2016 15.984 44.8175 18.8878 46.1053C21.7915 47.3932 23.0794 48.3611 26.3031 50.297C28.0998 51.3671 29.821 52.5591 31.4546 53.8646C31.4546 53.8646 30.4867 49.681 28.5509 47.7452C26.6151 45.8094 15.0241 37.4102 15.0241 37.4102C18.652 38.3221 22.2057 39.5067 25.6551 40.9538C29.8468 42.8896 33.0625 46.4333 33.3904 48.0412C33.8015 49.5856 34.3365 51.0944 34.9903 52.5527L36.2782 55.7524C36.2782 55.7524 35.9582 50.9529 35.6382 47.3772C35.3182 43.8016 34.6703 41.5698 34.9903 38.0261C35.3102 34.4824 35.9582 32.2266 35.9582 30.2988C36.0285 28.9629 36.3658 27.6546 36.9501 26.4512C36.9501 26.4512 38.222 35.4663 38.8699 38.3781C39.5179 41.2898 39.5099 45.1454 39.8298 47.0733C40.1498 49.0011 41.1257 54.8085 41.1257 54.8085C41.1257 54.8085 40.4778 50.009 42.4136 47.4012C44.3494 44.7935 44.9893 42.8896 46.2772 40.9538C47.5651 39.018 49.181 35.7943 49.181 35.7943C49.181 35.7943 49.181 40.9538 47.8851 44.1775C46.5892 47.4012 45.6293 48.9771 45.6293 50.297V54.8085C45.6293 54.8085 48.829 49.0091 50.7888 47.4012C52.7486 45.7934 53.9885 45.8014 54.6524 44.8175C55.3164 43.8336 59.164 41.6178 59.164 41.6178C59.164 41.6178 56.9482 46.7533 56.2683 47.7212C55.0614 49.0903 53.7682 50.3808 52.3967 51.5848C54.6907 50.4538 57.0617 49.4862 59.492 48.6891C62.6917 47.7212 67.5472 46.7533 69.4751 46.7533C71.4029 46.7533 77.8583 45.7854 77.8583 45.7854C77.8583 45.7854 72.0588 48.3611 68.5152 49.657C64.9715 50.9529 62.7077 51.5848 61.4198 51.9128L60.1479 52.2648C63.217 52.7456 66.2368 53.5006 69.1711 54.5206C73.6827 56.1204 74.9705 57.4163 75.6185 58.3842C76.0728 59.1874 76.3993 60.0564 76.5864 60.96C76.5864 60.96 78.5142 62.5598 78.5142 63.8637C78.5142 65.1676 69.803 57.7123 66.5473 56.7443C63.2916 55.7764 58.2201 56.0244 58.2201 56.0244" stroke="black" stroke-linecap="round" stroke-linejoin="round"/>
</g>
<g opacity="0.3">
<path d="M76.1778 102.022L75.8418 98.75H97.5438L97.1998 102.022H76.1778Z" stroke="black" stroke-linecap="round" stroke-linejoin="round"/>
<path d="M77.0718 110.64H96.31L98.7178 87.3457H74.6641L77.0718 110.64Z" stroke="black" stroke-linecap="round" stroke-linejoin="round"/>
<path d="M94.7921 87.177C96.9673 86.7559 98.9959 85.7774 100.68 84.3372C103.519 81.9375 108.543 81.2815 110.279 82.5934C111.505 83.54 112.672 84.5605 113.774 85.6491C113.774 85.6491 112.462 80.8496 108.975 79.7537C105.487 78.6578 103.295 79.7537 101.328 80.6256C99.5905 81.4521 97.9144 82.401 96.312 83.4653C95.0934 84.1845 93.9254 84.9863 92.8163 85.8651C92.8163 85.8651 93.4722 83.0334 94.7841 81.7215C96.096 80.4096 103.951 74.7301 103.951 74.7301C101.495 75.3491 99.0884 76.1512 96.7519 77.1299C93.9122 78.4338 91.7284 80.8416 91.5124 81.9295C91.2331 82.9758 90.8693 83.9977 90.4245 84.9852L89.5446 87.169C89.5446 87.169 89.7686 83.8973 89.9846 81.4895C90.2005 79.0817 90.6405 77.5619 90.4245 75.1621C90.2085 72.7623 89.7686 71.2345 89.7686 69.9226C89.7283 69.0128 89.5052 68.1205 89.1126 67.2988C89.1126 67.2988 88.2407 73.4183 87.8008 75.3781C87.3608 77.3379 87.3688 79.9616 87.1448 81.2735C86.9208 82.5854 86.2729 86.513 86.2729 86.513C86.2729 86.513 86.7129 83.2413 85.401 81.4895C84.0891 79.7377 83.6572 78.4338 82.7772 77.1299C81.8973 75.826 80.8174 73.6342 80.8174 73.6342C80.8187 75.5606 81.1127 77.4756 81.6893 79.3137C82.5613 81.4895 83.2172 82.5854 83.2172 83.4573V86.513C83.2172 86.513 81.0334 82.5854 79.7215 81.4895C78.4096 80.3936 77.5377 80.4016 77.1058 79.7457C76.6738 79.0897 74.05 77.5619 74.05 77.5619C74.05 77.5619 75.5779 81.0575 76.0099 81.7135C76.8279 82.6404 77.7042 83.5141 78.6336 84.3292C77.0815 83.5646 75.4778 82.9097 73.8341 82.3694C71.6276 81.6982 69.3567 81.2612 67.0587 81.0655C65.7468 81.0655 61.3872 80.4096 61.3872 80.4096C61.3872 80.4096 65.3149 82.1534 67.7146 83.0334C70.1144 83.9133 71.6423 84.3372 72.5142 84.5612L73.3861 84.7772C71.3047 85.1026 69.2567 85.614 67.2667 86.3051C64.211 87.393 63.339 88.2729 62.9071 88.9208C62.5957 89.4657 62.3742 90.0572 62.2511 90.6726C62.2511 90.6726 60.9473 91.7606 60.9473 92.6325C60.9473 93.5044 66.8427 88.4889 69.0265 87.8329C70.8758 87.4172 72.7728 87.253 74.666 87.345" stroke="black" stroke-linecap="round" stroke-linejoin="round"/>
</g>
<g opacity="0.3">
<path d="M117.963 46.9159L118.347 43.1562H93.4609L93.8449 46.9159H117.963Z" stroke="black" stroke-linecap="round" stroke-linejoin="round"/>
<path d="M116.937 56.7937H94.8672L92.1074 30.0762H119.697L116.937 56.7937Z" stroke="black" stroke-linecap="round" stroke-linejoin="round"/>
<path d="M92.1477 30.0773C92.1477 30.0773 89.076 27.0616 87.2921 26.2936C85.5083 25.5257 82.1406 24.2698 82.1406 24.2698C82.1406 24.2698 86.2282 24.2698 89.036 25.5497C90.961 26.4602 92.8307 27.4832 94.6355 28.6134C94.6355 28.6134 92.0757 25.0378 90.0359 22.486C87.9961 19.9342 83.3885 15.5826 83.1405 14.3108C82.8926 13.0389 89.268 18.6544 93.6116 21.974C97.9552 25.2937 98.7231 27.5735 98.7231 27.5735C98.7231 27.5735 95.4034 21.4381 92.8436 16.0706C91.3063 12.7377 89.43 9.57198 87.2442 6.62348C86.4442 5.59957 94.6515 15.0547 97.4592 19.6543C100.267 24.2538 102.059 27.0616 102.059 27.0616C102.059 27.0616 98.9951 11.727 98.4831 8.15133L97.4592 1C97.4592 1 102.315 15.0547 103.059 17.6065C103.803 20.1582 105.098 24.7578 105.098 24.7578C105.098 24.7578 106.634 17.3505 107.146 12.7589C107.658 8.16733 109.954 1.55995 109.954 1.55995C109.954 1.55995 108.946 15.8146 108.714 19.3983L108.202 26.5496C108.202 26.5496 110.754 19.9022 113.058 16.8385C115.055 14.3365 117.191 11.949 119.457 9.68719C119.457 9.68719 115.098 17.8704 114.074 20.4142C113.05 22.958 111.778 27.6135 111.778 27.6135C111.778 27.6135 116.889 19.6943 119.185 17.1345C121.126 15.1003 123.368 13.3764 125.833 12.023C127.872 10.7511 119.433 20.9661 118.417 23.2699C117.749 24.7499 116.991 26.1872 116.145 27.5735C116.145 27.5735 117.681 25.5257 121.745 23.9899C125.731 22.5973 129.835 21.5718 134.008 20.9261C135.032 20.9261 127.608 23.9899 125.065 25.0138C122.521 26.0377 119.697 30.0773 119.697 30.0773" stroke="black" stroke-linecap="round" stroke-linejoin="round"/>
</g>
<path d="M302.103 126.359C305.017 114.533 294.742 101.832 279.153 97.9916C263.565 94.1512 248.566 100.625 245.653 112.452C242.739 124.278 253.014 136.979 268.602 140.819C284.191 144.659 299.19 138.185 302.103 126.359Z" fill="black" stroke="#263238" stroke-linecap="round" stroke-linejoin="round"/>
<path d="M257.439 128.95C257.439 128.95 251.672 130.55 249.048 127.35C246.424 124.151 250.36 115.023 254.688 110.824C259.015 106.624 271.214 104.792 277.51 105.448C283.805 106.104 291.276 110.824 292.332 115.847C293.388 120.871 291.276 125.686 291.148 127.254C291.02 128.822 287.341 128.854 286.821 128.054C286.301 127.254 278.43 115.727 276.854 115.199C275.278 114.671 274.23 115.727 272.526 116.639C270.822 117.551 257.839 123.039 257.839 123.039L257.439 128.95Z" fill="#263238" stroke="#263238" stroke-linecap="round" stroke-linejoin="round"/>
<path d="M276.544 260.579L273.952 243.74L268 264.202C266.427 266.77 265.111 269.487 264.073 272.314C262.593 277.001 270.056 291.768 270.544 290.208C271.032 288.648 273.848 268.61 273.848 268.61C274.144 266.576 274.241 264.519 274.136 262.466L276.544 260.579Z" fill="white" stroke="#263238" stroke-linecap="round" stroke-linejoin="round"/>
<path d="M273.089 272.489C273.089 272.489 267.697 274.329 267.697 285.776C267.697 288.896 272.145 321.684 272.145 327.172V349.922H301.934L305.606 328.324L308.365 349.466H338.243C338.243 349.466 341.226 316.149 341.442 312.013C341.658 307.878 343.738 298.911 343.042 286.504C342.346 274.097 339.595 269.265 339.595 269.265L273.729 268.105L273.089 272.489Z" fill="#263238" stroke="#263238" stroke-linecap="round" stroke-linejoin="round"/>
<path d="M278.615 157.187C278.615 157.187 264.576 169.186 261.537 172.426C258.497 175.666 259.689 194.552 263.721 207.455C267.752 220.357 272.04 240.316 272.24 244.347C272.44 248.379 273.088 272.489 273.088 272.489C273.088 272.489 298.141 282.376 313.468 279.952C322.648 278.514 331.514 275.513 339.681 271.081C339.681 271.081 337.282 229.741 337.282 220.685C337.282 211.63 335.266 181.569 333.282 171.09C331.298 160.611 324.211 154.356 318.963 153.748C313.716 153.14 294.054 152.26 294.054 152.26L278.615 157.187Z" fill="white" stroke="#263238" stroke-linecap="round" stroke-linejoin="round"/>
<path d="M271.527 154.356C271.527 154.356 277.863 172.13 278.919 172.306C279.975 172.482 282.79 169.667 282.79 169.667L294.053 152.26L289.574 136.174C289.574 136.174 287.014 144.685 282.086 150.141C277.159 155.596 271.527 154.356 271.527 154.356Z" fill="white" stroke="#263238" stroke-linecap="round" stroke-linejoin="round"/>
<path d="M283.766 150.877L275.455 163.74L271.527 154.357L283.766 150.877Z" fill="#263238" stroke="#263238" stroke-linecap="round" stroke-linejoin="round"/>
<path d="M276.462 110.32C276.462 110.32 269.263 116.096 263.48 118.192C257.696 120.287 254.816 121.063 254.816 121.063C254.816 121.063 256.656 132.734 257.216 136.014C257.776 139.294 258.92 144.813 261.28 147.165C263.64 149.517 269.407 155.164 272.031 156.604C274.655 158.044 279.118 156.868 280.43 156.212C281.742 155.556 289.341 144.013 289.741 142.437C290.141 140.861 289.605 136.142 289.605 136.142C289.605 136.142 293.013 134.31 293.541 132.47C294.069 130.63 292.885 123.815 291.837 122.871C290.789 121.927 289.085 123.007 288.821 124.055C288.545 124.957 288.195 125.835 287.773 126.679C287.69 125.125 287.287 123.606 286.589 122.215C285.542 120.511 285.542 119.815 283.046 117.888C280.55 115.96 276.462 110.32 276.462 110.32Z" fill="white" stroke="#263238" stroke-linecap="round" stroke-linejoin="round"/>
<path d="M267.672 136.156L268.064 139.7C268.064 139.7 272.391 139.572 274.359 137.468" stroke="#263238" stroke-linecap="round" stroke-linejoin="round"/>
<path d="M265.729 143.373C265.729 143.373 268.88 144.42 273.728 142.981C278.575 141.541 279.767 138.125 279.767 138.125" stroke="#263238" stroke-linecap="round" stroke-linejoin="round"/>
<path d="M264.785 127.374C264.785 127.374 259.145 125.534 257.441 128.974" stroke="#263238" stroke-linecap="round" stroke-linejoin="round"/>
<path d="M270.527 125.277C270.527 125.277 274.327 121.469 278.263 122.877" stroke="#263238" stroke-linecap="round" stroke-linejoin="round"/>
<path d="M264.2 132.413C264.576 133.429 264.464 134.413 263.952 134.597C263.44 134.781 262.729 134.109 262.353 133.085C261.977 132.061 262.097 131.085 262.609 130.901C263.121 130.717 263.832 131.389 264.2 132.413Z" fill="#263238"/>
<path d="M276.408 128.663C276.784 129.687 276.672 130.663 276.16 130.855C275.648 131.047 274.936 130.359 274.56 129.343C274.184 128.327 274.296 127.343 274.808 127.159C275.32 126.975 276.032 127.647 276.408 128.663Z" fill="#263238"/>
<path d="M306.205 175.906L317.723 217.054C317.403 218.089 317.334 219.186 317.523 220.253C317.764 220.98 317.965 221.72 318.123 222.469C318.123 222.469 314.924 238.604 312.076 248.483C309.228 258.362 299.173 279.936 299.573 282.36C299.973 284.783 297.557 302.926 298.773 303.734C299.989 304.542 302.813 305.749 303.613 305.749C304.413 305.749 308.052 306.149 309.26 306.149C310.468 306.149 314.908 305.949 315.716 304.334C316.524 302.718 316.324 301.718 315.108 302.118C314.06 302.409 312.99 302.613 311.908 302.726L311.108 301.126C311.108 301.126 312.116 294.07 311.108 288.823C310.1 283.575 309.7 281.768 309.7 281.768C309.7 281.768 334.906 240.835 335.914 233.172C336.922 225.509 338.529 217.038 338.529 213.174C338.529 209.31 334.53 174.866 333.29 171.034C332.05 167.202 331.474 163.371 328.25 160.147C325.027 156.923 322.803 156.947 321.187 156.947" fill="white"/>
<path d="M306.205 175.906L317.723 217.054C317.403 218.089 317.334 219.186 317.523 220.253C317.764 220.98 317.965 221.72 318.123 222.469C318.123 222.469 314.924 238.604 312.076 248.483C309.228 258.362 299.173 279.936 299.573 282.36C299.973 284.783 297.557 302.926 298.773 303.734C299.989 304.541 302.813 305.749 303.613 305.749C304.413 305.749 308.052 306.149 309.26 306.149C310.468 306.149 314.908 305.949 315.716 304.334C316.524 302.718 316.324 301.718 315.108 302.118C314.06 302.409 312.99 302.613 311.908 302.726L311.108 301.126C311.108 301.126 312.116 294.07 311.108 288.823C310.1 283.575 309.7 281.768 309.7 281.768C309.7 281.768 334.906 240.835 335.914 233.172C336.922 225.509 338.529 217.038 338.529 213.174C338.529 209.31 334.53 174.866 333.29 171.034C332.05 167.202 331.474 163.371 328.25 160.147C325.027 156.923 322.803 156.947 321.187 156.947" stroke="#263238" stroke-linecap="round" stroke-linejoin="round"/>
<path d="M319.723 221.383C319.723 221.383 325.642 218.919 330.698 221.143" stroke="#263238" stroke-linecap="round" stroke-linejoin="round"/>
<path d="M323.547 216.943C323.547 216.943 330.33 215.344 334.65 220.399" stroke="#263238" stroke-linecap="round" stroke-linejoin="round"/>
<path d="M313.956 241.219C313.332 243.787 312.684 246.298 312.053 248.498C309.229 258.377 299.15 279.951 299.55 282.375C299.95 284.799 297.534 302.941 298.75 303.749C299.966 304.557 302.789 305.765 303.589 305.765C304.389 305.765 308.029 306.165 309.237 306.165C310.445 306.165 314.884 305.965 315.692 304.349C316.5 302.733 316.3 301.733 315.084 302.133C314.037 302.425 312.966 302.628 311.885 302.741L311.085 301.141C311.085 301.141 312.093 294.086 311.085 288.838C310.077 283.591 309.677 281.783 309.677 281.783C309.677 281.783 321.724 262.097 329.515 247.45C324.491 242.251 318.156 241.219 313.956 241.219Z" fill="white" stroke="#263238" stroke-linecap="round" stroke-linejoin="round"/>
<path d="M306.934 302.43C306.934 302.43 308.933 304.126 309.629 304.661C310.325 305.197 310.549 305.741 311.853 305.893" fill="white"/>
<path d="M306.934 302.43C306.934 302.43 308.933 304.126 309.629 304.661C310.325 305.197 310.549 305.741 311.853 305.893" stroke="#263238" stroke-linecap="round" stroke-linejoin="round"/>
<path d="M303.014 303.445C303.014 303.445 306.013 305.677 307.853 306.141L303.014 303.445Z" fill="white"/>
<path d="M303.014 303.445C303.014 303.445 306.013 305.677 307.853 306.141" stroke="#263238" stroke-linecap="round" stroke-linejoin="round"/>
<path d="M299.711 302.965C300.498 304.006 301.492 304.872 302.631 305.509L299.711 302.965Z" fill="white"/>
<path d="M299.711 302.965C300.498 304.006 301.492 304.872 302.631 305.509" stroke="#263238" stroke-linecap="round" stroke-linejoin="round"/>
<path d="M273.007 267.521C273.007 267.521 273.743 272.937 274.031 273.817C274.319 274.697 273.887 276.305 274.183 279.664C274.479 283.024 275.351 286.544 273.159 285.96C270.967 285.376 269.96 279.664 270.08 278.2C270.2 276.737 267.592 272.353 267.592 272.353" fill="white"/>
<path d="M273.007 267.521C273.007 267.521 273.743 272.937 274.031 273.817C274.319 274.697 273.887 276.305 274.183 279.664C274.479 283.024 275.351 286.544 273.159 285.96C270.968 285.376 269.96 279.664 270.08 278.2C270.2 276.737 267.592 272.353 267.592 272.353" stroke="#263238" stroke-linecap="round" stroke-linejoin="round"/>
<path d="M230.389 237.848C228.342 233.928 213.135 180.021 213.135 180.021C210.271 187.869 208.439 226.561 208.439 226.561L210.103 247.079L209.807 250.927C213.807 248.199 223.518 242.824 229.989 249.983C230.085 249.607 230.165 249.287 230.205 249.039C231.045 243.848 232.437 241.744 230.389 237.848Z" fill="black" stroke="#263238" stroke-linecap="round" stroke-linejoin="round"/>
<path d="M225.486 243.016C226.51 243.183 227.51 243.476 228.462 243.888" stroke="#263238" stroke-linecap="round" stroke-linejoin="round"/>
<path d="M211.221 244.913C214.596 243.672 218.14 242.949 221.732 242.77" stroke="#263238" stroke-linecap="round" stroke-linejoin="round"/>
<path d="M227.46 240.857C227.46 240.857 222.981 238.137 219.381 239.209" stroke="#263238" stroke-linecap="round" stroke-linejoin="round"/>
<path d="M136.629 349.382L137.581 308.282L140.501 285.732L208.486 283.412L214.542 299.579L218.277 349.918H183.865L177.369 316.577L175.505 319.785L174.793 349.206L136.629 349.382Z" fill="#263238" stroke="#263238" stroke-linecap="round" stroke-linejoin="round"/>
<path d="M158.042 172.334C158.042 172.334 128.445 180.174 126.629 181.07C124.813 181.965 128.805 208.883 131.605 218.666C134.404 228.449 141.204 264.486 141.204 264.486L140.748 290.515C140.748 290.515 169.793 291.235 181.416 289.803C189.598 288.701 197.716 287.163 205.734 285.196C205.734 285.196 209.853 262.19 208.438 247.039C207.022 231.889 211.149 194.244 211.205 191.765C211.261 189.285 213.101 179.998 213.101 179.998C213.101 179.998 190.975 173.222 185.288 172.51C176.229 171.638 167.111 171.579 158.042 172.334Z" fill="black" stroke="#263238" stroke-linecap="round" stroke-linejoin="round"/>
<path d="M152.467 178.975C152.467 178.975 156.154 189.142 164.866 195.213" stroke="#263238" stroke-linecap="round" stroke-linejoin="round"/>
<path d="M183.008 177.172C181.832 180.001 180.452 182.741 178.881 185.371" stroke="#263238" stroke-linecap="round" stroke-linejoin="round"/>
<path d="M178.338 187.502L176.811 189.638" stroke="#263238" stroke-linecap="round" stroke-linejoin="round"/>
<path d="M167.674 287.645C174.553 287.237 187.168 286.133 195.359 283.27" stroke="#263238" stroke-linecap="round" stroke-linejoin="round"/>
<path d="M162.777 287.861C162.777 287.861 163.577 287.861 164.913 287.781" stroke="#263238" stroke-linecap="round" stroke-linejoin="round"/>
<path d="M191.112 280.244C182.08 281.42 168.386 282.483 157.723 280.18" stroke="#263238" stroke-linecap="round" stroke-linejoin="round"/>
<path d="M200.719 278.645C200.719 278.645 198.439 279.116 194.775 279.668" stroke="#263238" stroke-linecap="round" stroke-linejoin="round"/>
<path d="M199.966 266.143C194.503 269.342 184.064 274.686 173.721 276.382" stroke="#263238" stroke-linecap="round" stroke-linejoin="round"/>
<path d="M203.872 263.758C203.872 263.758 203.136 264.254 201.824 265.046" stroke="#263238" stroke-linecap="round" stroke-linejoin="round"/>
<path d="M153.859 162.086L155.099 176.397C155.099 176.397 159.475 186.796 169.658 186.1C179.633 185.444 181.113 172.741 181.113 172.741L179.097 157.631C179.097 157.631 170.298 164.95 165.41 164.31C160.523 163.67 153.859 162.086 153.859 162.086Z" fill="white" stroke="#263238" stroke-linecap="round" stroke-linejoin="round"/>
<path d="M143.716 145.138C143.716 145.138 141.9 142.827 140.516 144.914C139.133 147.002 140.772 152.618 143.276 153.834C145.78 155.049 146.436 155.041 146.436 155.041C146.436 155.041 149.276 160.641 150.771 162.305C152.267 163.969 163.21 171.776 165.842 172.256C168.474 172.736 172.241 171.92 173.705 170.384C175.169 168.848 179.833 158.273 180.553 155.745C181.273 153.218 181.401 152.658 181.433 151.122C181.465 149.586 181.393 148.258 181.393 148.258C181.393 148.258 184.016 144.402 184.312 141.323C184.608 138.243 183.896 135.931 182.257 135.491C180.617 135.051 178.769 138.347 178.769 138.347L173.241 121.397C173.241 121.397 171.338 116.733 169.738 116.181C168.138 115.629 156.291 117.069 151.283 119.157C146.276 121.245 141.388 123.452 140.996 125.764C140.604 128.076 143.716 145.138 143.716 145.138Z" fill="white" stroke="#263238" stroke-linecap="round" stroke-linejoin="round"/>
<path d="M152.772 121.411C152.772 121.411 143.317 123.291 142.765 124.827C142.213 126.363 141.462 129.275 142.437 131.498C143.413 133.722 144.501 145.177 144.501 145.177C144.501 145.177 145.949 148.769 144.933 148.249C143.917 147.729 143.173 143.449 142.845 142.953C142.517 142.457 138.27 134.234 136.974 131.155C135.678 128.075 138.486 125.171 139.19 124.483C139.703 123.953 140.174 123.383 140.598 122.779C140.598 122.779 139.862 117.82 142.141 115.58C144.421 113.34 160.916 109.98 162.292 109.421C163.667 108.861 165.107 106.005 166.291 105.317C167.475 104.629 171.091 106.349 173.171 110.62C175.25 114.892 175.09 116.092 174.386 116.948L173.739 117.86C173.739 117.86 176.138 118.204 177.074 121.451C178.01 124.699 179.314 127.771 179.25 130.339C179.186 132.906 178.81 137.834 178.794 138.338C178.778 138.842 178.202 138.338 177.73 136.658C177.258 134.978 172.931 122.467 172.291 121.099C171.752 119.984 171.151 118.9 170.491 117.852C170.139 117.308 156.14 117.86 152.772 121.411Z" fill="#263238" stroke="#263238" stroke-linecap="round" stroke-linejoin="round"/>
<path d="M165.841 172.254C168.472 172.694 172.24 171.918 173.704 170.382C175.168 168.847 179.831 158.272 180.551 155.744C181.271 153.216 181.399 152.656 181.431 151.12C181.463 149.584 181.391 148.256 181.391 148.256L179.071 137.857L178.871 138.169C179.135 141.369 179.615 147.577 179.519 148.464C179.362 149.145 179.012 149.767 178.511 150.255C178.011 150.743 177.38 151.076 176.696 151.216C175.368 151.44 169.12 150.416 166.361 150.672C163.601 150.928 162.705 151.88 160.585 152.984C158.465 154.088 154.106 156.72 153.002 157.056C151.898 157.392 149.802 156.616 148.962 155.512C148.122 154.408 144.499 145.209 144.499 145.209C144.396 145.813 144.19 146.394 143.891 146.929L146.442 155.072C146.442 155.072 149.282 160.671 150.778 162.335C152.274 163.999 163.209 171.774 165.841 172.254Z" fill="#263238" stroke="#263238" stroke-linecap="round" stroke-linejoin="round"/>
<path d="M164.538 135.115C164.538 135.115 162.73 137.211 163.042 137.867C163.354 138.523 167.465 150.666 167.321 151.962C167.177 153.258 165.402 153.937 163.986 153.498C162.57 153.058 161.666 149.098 161.666 149.098" fill="white"/>
<path d="M164.538 135.115C164.538 135.115 162.73 137.211 163.042 137.867C163.354 138.523 167.465 150.666 167.321 151.962C167.177 153.258 165.402 153.937 163.986 153.498C162.57 153.058 161.666 149.098 161.666 149.098" stroke="#263238" stroke-linecap="round" stroke-linejoin="round"/>
<path d="M166.441 134.017C166.441 134.017 170.353 131.265 173.833 133.137" stroke="#263238" stroke-width="3" stroke-linecap="round" stroke-linejoin="round"/>
<path d="M156.138 136.436C156.138 136.436 150.122 135.116 147.475 139.74" stroke="#263238" stroke-width="3" stroke-linecap="round" stroke-linejoin="round"/>
<path d="M155.532 142.057C155.748 142.969 155.468 143.833 154.908 143.977C154.348 144.121 153.716 143.505 153.5 142.593C153.284 141.681 153.556 140.825 154.116 140.673C154.676 140.521 155.34 141.145 155.532 142.057Z" fill="#263238" stroke="#263238" stroke-linecap="round" stroke-linejoin="round"/>
<path d="M169.995 138.268C170.21 139.18 169.931 140.036 169.371 140.18C168.811 140.324 168.179 139.708 167.963 138.796C167.747 137.884 168.019 137.028 168.579 136.884C169.139 136.74 169.779 137.356 169.995 138.268Z" fill="#263238" stroke="#263238" stroke-linecap="round" stroke-linejoin="round"/>
<path d="M159.787 158.784C159.787 158.784 167.45 160.216 171.978 155.152" stroke="#858585" stroke-linecap="round" stroke-linejoin="round"/>
<path d="M230.205 249.047C230.205 249.159 230.157 249.295 230.125 249.431C230.157 249.263 230.181 249.127 230.205 249.047Z" stroke="#263238" stroke-linecap="round" stroke-linejoin="round"/>
<path d="M229.988 249.959C223.516 242.799 213.773 248.175 209.806 250.903L207.742 269.845L206.766 273.412C206.766 273.412 199.439 281.252 198.511 282.86C197.586 284.307 196.407 285.575 195.031 286.603C193.943 287.499 191.607 288.203 191.399 289.275C191.191 290.347 194.751 290.875 195.831 290.347C196.911 289.819 199.663 286.963 199.663 286.963L197.943 291.595L211.877 297.658C211.877 297.658 212.677 293.555 213.109 291.059C213.541 288.563 214.205 282.684 214.413 281.612C214.621 280.54 228.596 255.91 230.108 249.463L229.988 249.959Z" fill="white" stroke="#263238" stroke-linecap="round" stroke-linejoin="round"/>
<path d="M126.63 181.055C126.63 181.055 122.982 184.438 122.19 187.83C121.398 191.222 109.296 233.618 106.464 240.041C103.632 246.465 103.152 251.632 104.696 254.128C106.24 256.624 134.125 276.446 134.125 276.446C134.125 276.446 137.093 286.429 137.917 288.925C138.741 291.42 140.253 295.7 140.253 295.7L151.452 290.524C152.531 291.735 153.694 292.868 154.931 293.916C156.331 294.988 158.131 295.516 158.483 294.452C158.835 293.388 156.803 290.349 156.803 290.349C156.222 289.108 155.834 287.786 155.651 286.429C155.515 284.645 152.915 281.437 151.884 279.829C150.852 278.222 142.284 272.342 142.284 272.342L124.758 244.857L131.645 218.675C131.645 218.675 125.382 188.382 126.63 181.055Z" fill="white" stroke="#263238" stroke-linecap="round" stroke-linejoin="round"/>
<path d="M124.718 244.873L132.653 222.651C132.653 222.651 125.382 188.374 126.63 181.055C126.63 181.055 122.982 184.438 122.19 187.83C121.398 191.222 109.296 233.618 106.464 240.041C103.632 246.465 103.152 251.632 104.696 254.128C106.708 256.83 109.31 259.038 112.303 260.583C113.903 257.48 118.143 250.264 127.294 249.632L124.718 244.873Z" fill="black" stroke="#263238" stroke-linecap="round" stroke-linejoin="round"/>
<path d="M111.551 243.624C115.038 243.253 118.564 243.68 121.862 244.872" stroke="#263238" stroke-linecap="round" stroke-linejoin="round"/>
<path d="M118.729 242.016C118.729 242.016 123.152 243.264 124.72 244.871" stroke="#263238" stroke-linecap="round" stroke-linejoin="round"/>
<path d="M213.503 272.802C213.503 272.802 203.416 301.047 207.175 316.246C210.935 331.444 214.375 349.93 214.375 349.93H266.186C266.186 349.93 272.001 331.116 271.313 319.837C270.626 308.558 269.266 295.896 269.266 295.896L266.53 263.395H214.871L213.503 272.802Z" fill="#263238" stroke="#263238" stroke-linecap="round" stroke-linejoin="round"/>
<path d="M237.957 300.67C237.957 300.67 246.508 318.796 250.268 332.995C254.028 347.194 253.86 349.745 253.86 349.745" stroke="#858585" stroke-linecap="round" stroke-linejoin="round"/>
<path d="M247.531 315.891C247.531 315.891 256.594 308.028 259.33 298.645" stroke="#858585" stroke-linecap="round" stroke-linejoin="round"/>
<path d="M243.594 187.303L219.316 195.302C225.285 205.718 229.229 217.169 230.939 229.051C233.851 248.881 232.651 269.047 232.651 269.047C232.651 269.047 238.979 272.807 250.945 271.447C262.912 270.087 266.528 263.392 266.528 263.392C266.528 263.392 265.672 230.219 261.224 217.052C256.777 203.885 243.594 187.303 243.594 187.303Z" fill="black" stroke="#263238" stroke-linecap="round" stroke-linejoin="round"/>
<path d="M207.47 128.381C207.47 128.381 201.607 127.925 199.143 134.549C196.679 141.172 189.744 164.298 191.144 169.385C192.544 174.473 195.615 176.169 196.847 181.72C198.079 187.272 195.287 190.655 195.287 190.655C195.287 190.655 197.447 193.743 202.687 193.895C207.926 194.047 215.789 189.896 221.029 188.656C226.268 187.416 237.827 186.344 245.075 185.264C252.322 184.184 253.874 178.793 253.874 178.793C253.874 178.793 248.938 179.249 248.634 176.169C248.33 173.089 252.33 161.522 250.634 153.507C248.938 145.492 237.379 137.508 232.292 133.469C227.204 129.429 222.429 126.269 217.029 126.069C211.63 125.87 208.39 126.381 207.47 128.381Z" fill="#263238" stroke="#263238" stroke-linecap="round" stroke-linejoin="round"/>
<path d="M204.847 157.363C204.847 157.363 200.223 165.363 200.847 172.466C201.471 179.569 206.862 180.025 207.934 179.097" stroke="#858585" stroke-linecap="round" stroke-linejoin="round"/>
<path d="M234.443 145.652C234.443 145.652 245.538 155.979 247.242 166.922" stroke="#858585" stroke-linecap="round" stroke-linejoin="round"/>
<path d="M217.893 175.048L223.084 189.27C223.084 189.27 233.955 201.925 238.667 200.141C243.378 198.357 238.835 185.687 238.667 183.903C238.499 182.119 237.067 173.344 237.067 173.344C237.067 173.344 233.819 178.543 231.707 178.543C229.595 178.543 217.893 175.048 217.893 175.048Z" fill="white" stroke="#263238" stroke-linecap="round" stroke-linejoin="round"/>
<path d="M213.829 137.67C213.829 137.67 205.35 153.172 205.35 155.268C205.35 157.364 211.869 170.467 213.669 173.051C215.469 175.634 227.86 181.37 230.635 181.53C233.411 181.69 236.179 178.594 236.827 176.146C237.475 173.699 240.25 167.003 240.066 163.284C239.994 161.892 234.971 146.245 233.499 145.429C232.027 144.613 213.829 137.67 213.829 137.67Z" fill="white" stroke="#263238" stroke-linecap="round" stroke-linejoin="round"/>
<path d="M219.381 159.337C219.381 159.337 216.269 158.049 214.445 160.832" stroke="#263238" stroke-linecap="round" stroke-linejoin="round"/>
<path d="M227.629 156.339C227.629 156.339 228.277 153.011 232.132 153.979" stroke="#263238" stroke-linecap="round" stroke-linejoin="round"/>
<path d="M217.444 154.94C217.444 154.94 212.517 154.62 211.045 158.051" stroke="#263238" stroke-linecap="round" stroke-linejoin="round"/>
<path d="M224.133 151.836C224.133 151.836 226.813 148.189 230.532 149.477" stroke="#263238" stroke-linecap="round" stroke-linejoin="round"/>
<path d="M228.597 163.408C228.597 163.408 226.997 165.768 224.598 165.12" stroke="#263238" stroke-linecap="round" stroke-linejoin="round"/>
<path d="M233.204 164.912C233.204 164.912 230.101 169.52 221.525 170.16C221.525 170.16 227.205 174.231 230.525 173.159C233.844 172.087 233.204 164.912 233.204 164.912Z" fill="white" stroke="#263238" stroke-linecap="round" stroke-linejoin="round"/>
<path d="M208.445 163.514C208.445 163.514 205.653 162.234 205.245 165.657C204.837 169.081 211.997 170.273 211.997 170.273L208.445 163.514Z" fill="white" stroke="#263238" stroke-linecap="round" stroke-linejoin="round"/>
<path d="M236.187 151.155C236.178 150.983 236.21 150.812 236.283 150.655C236.356 150.499 236.466 150.363 236.603 150.26C236.741 150.156 236.902 150.088 237.072 150.061C237.242 150.035 237.416 150.051 237.579 150.107C238.947 150.459 241.243 154.563 240.995 157.019C240.747 159.475 239.139 159.523 239.139 159.523L236.187 151.155Z" fill="white" stroke="#263238" stroke-linecap="round" stroke-linejoin="round"/>
<path d="M214.469 189.096C214.469 189.096 195.471 201.767 194.655 204.038C193.839 206.31 207.645 273.712 207.645 273.712C207.645 273.712 189.295 314.964 193.847 322.107C198.398 329.251 219.02 336.074 219.988 337.37C220.956 338.666 229.251 303.109 232.787 289.63C236.323 276.152 242.242 251.786 242.53 240.251C242.818 228.716 238.147 213.453 236.523 208.414C234.899 203.374 232.011 194.655 232.011 194.655L214.469 189.096Z" fill="#A3A3A3" stroke="#263238" stroke-linecap="round" stroke-linejoin="round"/>
<path d="M219.332 181.057C219.332 181.057 232.698 193.959 232.05 194.607C231.402 195.255 223.763 206.606 223.763 206.606L212.076 189.552L219.332 181.057Z" fill="#A3A3A3" stroke="#263238" stroke-linecap="round" stroke-linejoin="round"/>
<path d="M240.931 193.975C240.931 193.975 252.634 208.254 257.506 218.493C262.377 228.732 264.657 246.914 264.657 254.057V267.536C264.657 267.536 269.729 301.645 271.329 307.332C272.928 313.02 275.552 323.571 275.552 323.571C275.552 323.571 277.496 322.923 277.336 315.772C277.176 308.62 274.576 279.559 272.305 268.024C270.033 256.489 269.105 237.379 267.625 233.971L266.161 230.556L283.511 225.516C283.511 225.516 272.688 215.725 269.177 200.718C267.577 193.887 264.017 190.239 261.905 188.775C259.794 187.312 244.355 185.688 241.731 185.856C239.108 186.024 240.931 193.975 240.931 193.975Z" fill="#A3A3A3" stroke="#263238" stroke-linecap="round" stroke-linejoin="round"/>
<path d="M240.93 193.976C240.93 193.976 241.418 191.864 242.394 192.184C243.37 192.504 251.649 197.224 252.465 196.736C253.281 196.248 244.026 185.057 242.242 183.457C241.146 182.465 239.948 181.593 238.666 180.857V183.945L240.93 193.976Z" fill="#A3A3A3" stroke="#263238" stroke-linecap="round" stroke-linejoin="round"/>
<path d="M256.699 194.137C256.699 194.137 262.379 212.487 263.035 220.446L256.699 194.137Z" fill="white"/>
<path d="M256.699 194.137C256.699 194.137 262.379 212.487 263.035 220.446" stroke="#263238" stroke-linecap="round" stroke-linejoin="round"/>
<path d="M259.936 230.859C259.936 230.859 263.239 217.636 264.031 216.836C264.823 216.036 271.31 213.269 271.838 213.141C272.366 213.013 276.598 216.044 277.254 216.708C277.91 217.372 280.83 219.22 280.302 220.276C279.774 221.332 278.054 220.54 277.102 220.54C276.15 220.54 271.814 223.316 271.55 223.74C271.286 224.164 269.831 227.443 269.303 228.371C268.775 229.299 259.936 230.859 259.936 230.859Z" fill="white" stroke="#263238" stroke-linecap="round" stroke-linejoin="round"/>
<path d="M278.462 217.782C278.462 217.782 276.727 217.086 276.207 217.342C275.687 217.598 269.503 220.477 269.159 220.909C268.815 221.341 268.359 222.045 268.359 222.045" stroke="#263238" stroke-linecap="round" stroke-linejoin="round"/>
<path d="M266.721 220.044C267.305 219.27 268.01 218.595 268.809 218.044C269.856 217.428 273.512 216.036 273.944 215.868C274.637 215.778 275.339 215.778 276.032 215.868" stroke="#263238" stroke-linecap="round" stroke-linejoin="round"/>
<path d="M273.337 214.303C273.337 214.303 266.378 216.823 265.938 217.43L265.506 218.046" stroke="#263238" stroke-linecap="round" stroke-linejoin="round"/>
<path d="M266.6 228.723C266.6 228.723 273.263 224.011 276.199 222.715C279.134 221.42 285.134 223.851 286.27 225.315C287.406 226.779 288.87 233.762 288.67 238.954C288.47 244.145 288.35 246.425 284.774 247.561C281.831 248.366 278.849 249.017 275.839 249.513C275.359 249.673 274.871 239.77 271.783 234.41C268.695 229.051 266.6 228.723 266.6 228.723Z" fill="#A3A3A3" stroke="#263238" stroke-linecap="round" stroke-linejoin="round"/>
<path d="M258.154 231.972C258.154 231.972 259.754 250.49 261.082 252.77C262.41 255.049 265.626 254.554 269.041 253.746C272.457 252.938 277.48 251.794 277.648 250.658C277.816 249.522 277.648 238.659 275.857 234.091C274.065 229.524 270.985 226.3 268.553 226.948C266.122 227.596 258.154 229.212 258.154 231.972Z" fill="#A3A3A3" stroke="#263238" stroke-linecap="round" stroke-linejoin="round"/>
<path d="M243.139 262.463L262.977 245.401L254.65 239.85L238.779 246.857C238.779 246.857 243.011 258.096 243.139 262.463Z" fill="white" stroke="#263238" stroke-linecap="round" stroke-linejoin="round"/>
<path d="M233.49 271.856C233.49 271.856 235.602 271.856 238.514 269.456C241.425 267.056 244.065 265.456 243.273 258.745C242.481 252.034 239.17 241.683 237.586 240.347C236.002 239.011 225.819 240.611 225.587 241.275C225.355 241.939 233.65 253.969 234.314 260.977C234.978 267.984 233.49 271.856 233.49 271.856Z" fill="#A3A3A3" stroke="#263238" stroke-linecap="round" stroke-linejoin="round"/>
<path d="M198.576 204.406C198.576 204.406 197.088 201.558 194.656 204.038C192.224 206.517 190.905 213.533 192.624 221.996C194.344 230.459 199.104 265.904 200.96 270.263C202.815 274.623 204.527 278.727 207.831 278.863C211.135 278.999 221.982 277.535 229.389 274.631C236.796 271.727 236.396 262.992 233.885 255.433C231.373 247.874 226.741 241.674 223.965 239.826C221.19 237.978 219.734 235.595 216.83 230.171C213.926 224.748 207.335 211.021 205.455 209.053" fill="#A3A3A3"/>
<path d="M198.576 204.406C198.576 204.406 197.088 201.558 194.656 204.038C192.224 206.517 190.905 213.533 192.624 221.996C194.344 230.459 199.104 265.904 200.96 270.263C202.815 274.623 204.527 278.727 207.831 278.863C211.135 278.999 221.982 277.535 229.389 274.631C236.796 271.727 236.396 262.992 233.885 255.433C231.373 247.874 226.741 241.674 223.965 239.826C221.19 237.978 219.734 235.595 216.83 230.171C213.926 224.748 207.335 211.021 205.455 209.053" stroke="#263238" stroke-linecap="round" stroke-linejoin="round"/>
<path d="M211.493 253.803C210.851 254.389 210.164 254.924 209.438 255.403" stroke="#263238" stroke-linecap="round" stroke-linejoin="round"/>
<path d="M219.644 242.395C217.89 245.862 215.728 249.109 213.205 252.066" stroke="#263238" stroke-linecap="round" stroke-linejoin="round"/>
<path d="M261.785 234.037C261.785 234.037 242.347 235.885 237.324 235.749C232.3 235.613 225.157 232.973 225.157 232.973C225.157 232.973 216.566 229.405 214.71 228.478C212.854 227.55 208.494 227.55 207.302 228.086C206.111 228.622 203.471 230.725 203.871 232.085C204.271 233.445 205.847 232.477 206.647 231.813C207.298 231.331 208.007 230.933 208.758 230.629L212.99 231.549L213.79 232.613C213.79 232.613 207.974 233.669 207.183 234.069C206.391 234.469 204.143 239.485 203.743 240.548C203.343 241.612 203.743 241.468 204.543 241.468H205.343C205.343 241.468 204.951 243.588 205.743 243.868C206.371 243.985 207.02 243.893 207.59 243.604C207.59 243.604 208.518 244.532 208.918 244.532C210.686 243.752 212.406 242.868 214.07 241.884C214.734 241.484 220.421 242.684 221.877 242.684C223.333 242.684 228.884 242.556 228.884 242.556C228.884 242.556 255.594 250.22 259.17 250.755C262.745 251.291 265.121 251.147 266.441 247.18C267.761 243.212 264.833 234.565 261.785 234.037Z" fill="white" stroke="#263238" stroke-linecap="round" stroke-linejoin="round"/>
<path d="M207.566 243.555C207.566 243.555 211.142 239.555 212.062 239.059C212.964 238.603 213.893 238.205 214.846 237.867" stroke="#263238" stroke-linecap="round" stroke-linejoin="round"/>
<path d="M205.318 241.434L209.022 237.074L212.99 235.482" stroke="#263238" stroke-linecap="round" stroke-linejoin="round"/>
<path d="M110.662 127.51C111.567 128.019 112.512 128.455 113.486 128.814C115.222 129.462 119.565 130.981 121.485 133.157C123.405 135.333 122.789 140.541 122.789 140.541" stroke="#263238" stroke-linecap="round" stroke-linejoin="round"/>
<path d="M85.8658 145.57L84.1699 149.226" stroke="#263238" stroke-linecap="round" stroke-linejoin="round"/>
<path d="M72.1455 134.107C72.1455 134.107 70.9616 139.706 69.7457 140.986C68.5298 142.266 66.65 143.786 67.2819 146.586C67.9139 149.385 71.6015 151.137 71.5855 151.601C71.5696 152.065 64.9462 153.337 65.1061 155.457C65.2661 157.577 67.09 160.12 67.09 160.12C67.09 160.12 62.1544 161.72 61.7385 164.544C61.3225 167.368 63.0023 170.143 62.9783 171.191C62.9544 172.239 59.9786 174.567 60.8665 176.439C61.7545 178.311 63.8583 178.039 63.9703 178.415C64.0822 178.791 62.7544 180.278 62.7304 181.214C62.7622 181.85 62.9915 182.459 63.3863 182.958H102.783L91.5837 124.684L76.7531 130.395L72.1455 134.107Z" fill="black" stroke="#263238" stroke-linecap="round" stroke-linejoin="round"/>
<path d="M125.526 266.368C125.526 266.368 133.645 284.854 134.717 289.397C135.789 293.941 136.317 314.139 134.597 322.01C131.517 336.337 122.686 349.92 122.686 349.92H77.9382L68.707 306.828L82.1858 264.848L125.526 266.368Z" fill="white" stroke="#263238" stroke-linecap="round" stroke-linejoin="round"/>
<path d="M118.102 302.004L114.334 311.755L116.126 349.711" stroke="#263238" stroke-linecap="round" stroke-linejoin="round"/>
<path d="M124.812 254.09C124.812 254.09 132.716 260.817 133.668 263.337C134.62 265.857 135.22 282.535 135.651 285.359C136.083 288.183 134.172 290.91 134.172 290.91L127.34 273.928C127.34 273.928 126.684 266.369 126.54 265.865C126.396 265.361 125.14 261.321 125.14 261.321L124.812 254.09Z" fill="white" stroke="#263238" stroke-linecap="round" stroke-linejoin="round"/>
<path d="M131.339 269.559C131.339 269.559 131.435 272.582 131.723 274.766C132.011 276.95 132.915 280.99 131.043 281.965" fill="white"/>
<path d="M131.339 269.559C131.339 269.559 131.435 272.582 131.723 274.766C132.011 276.95 132.915 280.99 131.043 281.965" stroke="#263238" stroke-linecap="round" stroke-linejoin="round"/>
<path d="M96.1425 182.471L106.894 182.807L114.581 183.063L123.516 190.542C123.516 190.542 131.019 227.866 131.635 230.218C132.251 232.57 125.236 250.216 124.716 251.904C124.196 253.592 125.516 266.367 125.516 266.367C125.516 266.367 122.076 269.567 110.941 271.07C99.8062 272.574 86.9434 267.871 86.9434 267.871C86.9434 267.871 95.3826 245.681 97.1904 233.738C97.1904 233.738 98.7903 210.708 98.2383 204.141C97.6864 197.573 96.1425 182.471 96.1425 182.471Z" fill="black" stroke="#263238" stroke-linecap="round" stroke-linejoin="round"/>
<path d="M122.94 237.713L105.533 246.544" stroke="#263238" stroke-linecap="round" stroke-linejoin="round"/>
<path d="M121.925 240.744L113.854 244.776" stroke="#263238" stroke-linecap="round" stroke-linejoin="round"/>
<path d="M93.1738 170.112C93.1738 170.112 99.6372 192.51 100.477 196.47C101.317 200.43 109.588 205.093 114.668 202.525C119.747 199.958 118.108 195.07 117.252 192.038C116.396 189.007 114.54 183.063 114.54 183.063L116.492 164.881C116.492 164.881 110.364 173.056 108.14 173.976C105.917 174.896 93.1738 170.112 93.1738 170.112Z" fill="white" stroke="#263238" stroke-linecap="round" stroke-linejoin="round"/>
<path d="M105.27 176.01L113.741 184.185L115.829 166.643L105.27 176.01Z" fill="#263238" stroke="#263238" stroke-linecap="round" stroke-linejoin="round"/>
<path d="M114.046 183.287L113.598 191.318" stroke="#263238" stroke-linecap="round" stroke-linejoin="round"/>
<path d="M114.613 181.216C114.613 181.216 126.612 215.429 127.916 223.156C129.22 230.883 129.516 232.571 129.636 235.267C129.756 237.962 127.58 243.834 127.58 243.834C127.58 243.834 136.067 233.435 136.123 224.34C136.179 215.245 130.012 187.839 127.132 186.175C115.693 179.568 114.613 181.216 114.613 181.216Z" fill="#263238" stroke="#263238" stroke-linecap="round" stroke-linejoin="round"/>
<path d="M125.74 198.102C125.74 198.102 130.996 213.436 130.148 224.947" stroke="#A3A3A3" stroke-linecap="round" stroke-linejoin="round"/>
<path d="M85.0957 143.315L90.5272 135.628L115.669 161.153C115.669 161.153 114.141 176.072 114.133 176.536C114.125 177 115.693 179.568 115.693 179.568C116.16 179.986 116.579 180.456 116.941 180.968C117.501 181.767 116.941 181.767 116.773 182.943C116.605 184.119 117.429 184.695 117.997 185.279C118.858 185.908 119.783 186.444 120.756 186.879C121.556 187.343 120.836 188.391 120.228 189.439C119.733 190.19 119.431 191.051 119.348 191.947C119.266 192.843 119.406 193.746 119.756 194.574C120.748 196.67 121.356 196.318 123.052 197.95C124.748 199.582 122.252 201.102 122.252 201.102C122.252 201.102 123.54 200.75 124.596 200.398C124.831 200.332 125.05 200.217 125.237 200.06C125.424 199.903 125.576 199.707 125.681 199.487C125.786 199.266 125.843 199.026 125.848 198.781C125.853 198.537 125.805 198.294 125.708 198.07C125.26 197.27 124.388 194.574 124.756 194.07C125.124 193.566 128.42 191.974 129.38 190.695C130.339 189.415 129.3 189.175 130.131 188.711C130.963 188.247 132.611 187.199 133.003 185.567C133.395 183.935 131.459 181.951 132.051 181.367C132.643 180.784 134.891 177.2 134.915 176.144C134.939 175.088 133.611 173.32 133.611 173.32C133.611 173.32 134.483 172.624 135.027 169.249C135.571 165.873 132.923 164.817 132.731 162.953C132.539 161.089 135.291 158.522 135.331 151.994C135.371 145.467 124.58 143.483 124.252 142.675C123.924 141.867 124.3 140.571 124.108 138.827C123.916 137.084 119.684 134.028 119.684 134.028C119.684 134.028 120.188 132.284 120.564 131.116C120.94 129.948 120.388 128.9 118.333 127.037C116.277 125.173 106.334 116.43 102.182 115.494C98.0305 114.558 90.9831 119.109 90.1832 119.573C89.3833 120.037 82.7519 118.413 80.7361 120.045C78.7203 121.677 78.0643 124.469 77.5364 125.645C77.0084 126.821 75.2886 126.813 74.2167 127.98C73.1448 129.148 71.377 139.283 71.377 139.283" fill="black"/>
<path d="M85.0957 143.315L90.5272 135.628L115.669 161.153C115.669 161.153 114.141 176.072 114.133 176.536C114.125 177 115.693 179.568 115.693 179.568C116.16 179.986 116.579 180.456 116.941 180.968C117.501 181.767 116.941 181.767 116.773 182.943C116.605 184.119 117.429 184.695 117.997 185.279C118.858 185.908 119.783 186.444 120.756 186.879C121.556 187.343 120.836 188.391 120.228 189.439C119.733 190.19 119.431 191.051 119.348 191.947C119.266 192.843 119.406 193.746 119.756 194.574C120.748 196.67 121.356 196.318 123.052 197.95C124.748 199.582 122.252 201.102 122.252 201.102C122.252 201.102 123.54 200.75 124.596 200.398C124.831 200.332 125.05 200.217 125.237 200.06C125.424 199.903 125.576 199.707 125.681 199.487C125.786 199.266 125.843 199.026 125.848 198.781C125.853 198.537 125.805 198.294 125.708 198.07C125.26 197.27 124.388 194.574 124.756 194.07C125.124 193.566 128.42 191.974 129.38 190.695C130.339 189.415 129.3 189.175 130.131 188.711C130.963 188.247 132.611 187.199 133.003 185.567C133.395 183.935 131.459 181.951 132.051 181.367C132.643 180.784 134.891 177.2 134.915 176.144C134.939 175.088 133.611 173.32 133.611 173.32C133.611 173.32 134.483 172.624 135.027 169.249C135.571 165.873 132.923 164.817 132.731 162.953C132.539 161.089 135.291 158.522 135.331 151.994C135.371 145.467 124.58 143.483 124.252 142.675C123.924 141.867 124.3 140.571 124.108 138.827C123.916 137.084 119.684 134.028 119.684 134.028C119.684 134.028 120.188 132.284 120.564 131.116C120.94 129.948 120.388 128.9 118.333 127.037C116.277 125.173 106.334 116.43 102.182 115.494C98.0305 114.558 90.9831 119.109 90.1832 119.573C89.3833 120.037 82.7519 118.413 80.7361 120.045C78.7203 121.677 78.0643 124.469 77.5364 125.645C77.0084 126.821 75.2886 126.813 74.2167 127.98C73.1448 129.148 71.377 139.283 71.377 139.283" stroke="#263238" stroke-linecap="round" stroke-linejoin="round"/>
<path d="M95.4454 178.695C95.4454 178.695 107.612 221.475 108.148 227.027C108.684 232.578 89.646 268.887 85.7503 276.454C81.8547 284.021 73.4075 307.051 72.0396 314.947C70.6717 322.842 69.6398 332.265 69.6398 332.265C69.6398 332.265 59.5048 327.393 52.8414 323.186C46.178 318.978 45.0981 316.634 45.6421 315.787C46.186 314.939 48.9458 304.524 48.9458 304.524C48.9458 304.524 43.2183 298.124 43.5703 297.468C43.9222 296.812 56.945 252.072 56.945 252.072C56.945 252.072 60.3767 180.119 61.7446 180.119C63.1124 180.119 95.4454 178.695 95.4454 178.695Z" fill="#263238" stroke="#263238" stroke-linecap="round" stroke-linejoin="round"/>
<path d="M94.2129 199.125L108.148 227.026" stroke="#A3A3A3" stroke-linecap="round" stroke-linejoin="round"/>
<path d="M69.7454 180.624C69.7454 180.624 59.7063 178.608 57.9625 181.296C56.2186 183.984 40.8201 229.548 39.8762 233.747C38.9323 237.947 67.7936 269.048 67.7936 269.048L82.6562 259.129L65.0578 234.411L74.6569 199.11" fill="#263238"/>
<path d="M69.7454 180.624C69.7454 180.624 59.7063 178.608 57.9625 181.296C56.2186 183.984 40.8201 229.548 39.8762 233.747C38.9323 237.947 67.7936 269.048 67.7936 269.048L82.6562 259.129L65.0578 234.411L74.6569 199.11" stroke="#263238" stroke-linecap="round" stroke-linejoin="round"/>
<path d="M72.1791 210.092L65.0117 232.242L81.0502 256.28" stroke="#A3A3A3" stroke-linecap="round" stroke-linejoin="round"/>
<path d="M74.1374 203.143L73.1055 206.414" stroke="#A3A3A3" stroke-linecap="round" stroke-linejoin="round"/>
<path d="M81.0486 256.281L64.9141 269.728L70.3056 276.287L87.272 263.169L81.0486 256.281Z" fill="white" stroke="#263238" stroke-linecap="round" stroke-linejoin="round"/>
<path d="M86.0711 263.84C86.0711 263.84 99.5018 278.638 100.998 279.31C102.494 279.982 105.445 283.174 106.245 284.686C107.045 286.198 108.181 288.222 109.333 289.061C110.485 289.901 110.637 290.909 108.605 291.413C106.573 291.917 104.725 292.085 103.605 289.733C102.794 288.121 101.815 286.598 100.686 285.19L89.2148 293.765C89.2148 293.765 86.743 284.686 86.455 282.838C86.1671 280.99 85.5591 277.967 85.5591 277.967L77.8398 270.567L86.0711 263.84Z" fill="white" stroke="#263238" stroke-linecap="round" stroke-linejoin="round"/>
<path d="M67.2673 168.377C67.2673 168.377 66.1474 175.832 66.7874 178.4C67.4593 181.119 72.9228 180.631 71.8029 184.239C71.4429 185.399 70.0351 186.639 70.475 187.959C70.915 189.279 72.7068 189.383 73.6747 190.151C75.4905 191.558 74.8426 193.078 75.4585 195.07C75.9065 196.51 77.4424 197.014 77.8583 198.158C78.3463 199.51 77.4024 200.358 78.9062 201.829C81.53 204.397 83.4978 204.861 83.8498 204.629C84.2017 204.397 83.5218 203.829 85.1776 203.029C86.8335 202.229 89.9772 200.694 89.4572 199.414L88.3613 196.862C89.1613 198.63 91.513 196.862 92.169 195.91C93.6568 193.782 91.3691 191.494 91.641 189.191C91.937 186.647 94.8407 185.335 95.1287 182.791C95.4167 180.247 92.8329 178.552 93.4009 176.24C93.6568 175.192 93.8008 174.032 93.8008 174.032C93.8008 174.032 93.0009 171.696 91.897 170.88C90.7931 170.064 90.3692 166.801 90.2972 165.633" fill="black"/>
<path d="M67.2673 168.377C67.2673 168.377 66.1474 175.832 66.7874 178.4C67.4593 181.119 72.9228 180.631 71.8029 184.239C71.4429 185.399 70.0351 186.639 70.475 187.959C70.915 189.279 72.7068 189.383 73.6747 190.151C75.4905 191.558 74.8426 193.078 75.4585 195.07C75.9065 196.51 77.4424 197.014 77.8583 198.158C78.3463 199.51 77.4024 200.358 78.9062 201.829C81.53 204.397 83.4978 204.861 83.8498 204.629C84.2017 204.397 83.5218 203.829 85.1776 203.029C86.8335 202.229 89.9772 200.694 89.4572 199.414L88.3613 196.862C89.1613 198.63 91.513 196.862 92.169 195.91C93.6568 193.782 91.3691 191.494 91.641 189.191C91.937 186.647 94.8407 185.335 95.1287 182.791C95.4167 180.247 92.8329 178.552 93.4009 176.24C93.6568 175.192 93.8008 174.032 93.8008 174.032C93.8008 174.032 93.0009 171.696 91.897 170.88C90.7931 170.064 90.3692 166.801 90.2972 165.633" stroke="#263238" stroke-linecap="round" stroke-linejoin="round"/>
<path d="M88.2327 131.459C88.2327 131.459 78.8095 145.162 79.5295 148.057C80.2494 150.953 87.4407 169.535 89.9285 171.375C92.4163 173.215 102.295 177.567 105.583 177.703C108.871 177.839 111.279 176.519 112.654 174.279C114.03 172.039 119.246 162.944 119.294 160.968C119.342 158.992 115.126 140.026 114.342 139.762C113.558 139.498 88.2327 131.459 88.2327 131.459Z" fill="white" stroke="black" stroke-linecap="round" stroke-linejoin="round"/>
<path d="M102.629 145.98C102.629 145.98 102.357 149.636 102.693 150.828C103.029 152.02 106.125 156.308 106.197 157.043C106.269 157.779 105.069 158.507 103.405 159.147" stroke="#263238" stroke-linecap="round" stroke-linejoin="round"/>
<path d="M81.3671 153.682C81.3671 153.682 79.3033 151.842 78.1674 154.082C77.0315 156.321 77.9115 159.353 81.3671 161.857C84.8228 164.361 85.6547 164.353 85.6547 164.353L81.3671 153.682Z" fill="white" stroke="#263238" stroke-linecap="round" stroke-linejoin="round"/>
<path d="M115.844 144.468C115.844 144.468 117.708 143.54 118.571 145.915C119.435 148.291 118.108 154.347 118.108 154.347L115.844 144.468Z" fill="white" stroke="#263238" stroke-linecap="round" stroke-linejoin="round"/>
<path d="M97.9746 163.928C97.9746 163.928 104.062 163.472 105.55 162.736C107.038 162 109.646 158.992 109.646 158.992C109.646 158.992 109.646 165.592 106.446 166.719C104.142 167.511 97.9746 163.928 97.9746 163.928Z" fill="white" stroke="#263238" stroke-linecap="round" stroke-linejoin="round"/>
<path d="M88.0078 149.545C88.0078 149.545 88.4558 146.066 94.5032 145.426L88.0078 149.545Z" fill="white"/>
<path d="M88.0078 149.545C88.0078 149.545 88.4558 146.066 94.5032 145.426" stroke="#263238" stroke-linecap="round" stroke-linejoin="round"/>
<path d="M102.543 142.988C102.543 142.988 106.255 139.789 110.27 143.692L102.543 142.988Z" fill="white"/>
<path d="M102.543 142.988C102.543 142.988 106.255 139.789 110.27 143.692" stroke="#263238" stroke-linecap="round" stroke-linejoin="round"/>
<path d="M95.5123 151.308C95.8323 152.38 95.5123 153.444 94.7124 153.708C93.9124 153.972 93.1125 153.26 92.7925 152.188C92.4726 151.116 92.7925 150.06 93.5925 149.788C94.3924 149.516 95.1923 150.236 95.5123 151.308Z" fill="#263238"/>
<path d="M107.95 147.868C108.27 148.94 107.95 149.996 107.15 150.268C106.35 150.54 105.55 149.828 105.23 148.756C104.91 147.684 105.23 146.62 106.03 146.356C106.83 146.092 107.63 146.796 107.95 147.868Z" fill="#263238"/>
<path d="M364.753 349.918H6.57812" stroke="#263238" stroke-linecap="round" stroke-linejoin="round"/>
<path d="M383.776 349.918H370.457" stroke="#263238" stroke-linecap="round" stroke-linejoin="round"/>
</svg>
