<svg width="623" height="154" viewBox="0 0 623 154" fill="none" xmlns="http://www.w3.org/2000/svg">
<path d="M0.503906 6.82234C0.503906 3.05447 3.55837 -3.96933e-09 7.32625 -8.86574e-09C11.0941 -1.37621e-08 14.1486 3.05447 14.1486 6.82234L14.1486 146.178C14.1486 149.946 11.0941 153 7.32625 153C3.55837 153 0.503906 149.946 0.503906 146.178L0.503906 6.82234Z" fill="#E4E4E7"/>
<path d="M2.01624e-07 114.822C9.02699e-08 111.054 3.05447 108 6.82234 108C10.5902 108 13.6447 111.054 13.6447 114.822L13.6447 147.178C13.6447 150.946 10.5902 154 6.82235 154C3.05447 154 1.26919e-06 150.946 1.15783e-06 147.178L2.01624e-07 114.822Z" fill="url(#paint0_linear_1950_5365)" fill-opacity="0.8"/>
<path d="M55.4473 6.82234C55.4473 3.05447 58.5017 -3.8934e-09 62.2696 -8.69616e-09C66.0375 -1.34989e-08 69.092 3.05447 69.092 6.82234L69.092 146.178C69.092 149.946 66.0375 153 62.2696 153C58.5017 153 55.4473 149.946 55.4473 146.178L55.4473 6.82234Z" fill="#E4E4E7"/>
<path d="M55.4473 101.822C55.4473 98.0545 58.5017 95 62.2696 95C66.0375 95 69.092 98.0545 69.092 101.822L69.092 147.178C69.092 150.946 66.0375 154 62.2696 154C58.5017 154 55.4473 150.946 55.4473 147.178L55.4473 101.822Z" fill="url(#paint1_linear_1950_5365)" fill-opacity="0.8"/>
<path d="M111.025 6.82234C111.025 3.05447 114.08 -3.90553e-09 117.848 -8.72325e-09C121.616 -1.3541e-08 124.67 3.05447 124.67 6.82234L124.67 146.178C124.67 149.946 121.616 153 117.848 153C114.08 153 111.025 149.946 111.025 146.178L111.025 6.82234Z" fill="#E4E4E7"/>
<path d="M111 101.822C111 98.0545 114.054 95 117.822 95C121.59 95 124.645 98.0545 124.645 101.822L124.645 147.178C124.645 150.946 121.59 154 117.822 154C114.054 154 111 150.946 111 147.178L111 101.822Z" fill="url(#paint2_linear_1950_5365)" fill-opacity="0.8"/>
<path d="M165 6.5C165 2.91015 167.91 -3.74717e-09 171.5 -8.36953e-09C175.09 -1.29919e-08 178 2.91015 178 6.5L178 146.5C178 150.09 175.09 153 171.5 153C167.91 153 165 150.09 165 146.5L165 6.5Z" fill="#E4E4E7"/>
<path d="M165 66.5C165 62.9102 167.91 60 171.5 60C175.09 60 178 62.9101 178 66.5L178 147.5C178 151.09 175.09 154 171.5 154C167.91 154 165 151.09 165 147.5L165 66.5Z" fill="url(#paint3_linear_1950_5365)" fill-opacity="0.8"/>
<path d="M220.184 6.82234C220.184 3.05447 223.238 -3.93993e-09 227.006 -8.80008e-09C230.774 -1.36602e-08 233.828 3.05447 233.828 6.82234L233.828 146.178C233.828 149.946 230.774 153 227.006 153C223.238 153 220.184 149.946 220.184 146.178L220.184 6.82234Z" fill="#E4E4E7"/>
<path d="M220 54.8223C220 51.0545 223.054 48 226.822 48C230.59 48 233.645 51.0545 233.645 54.8223L233.645 147.178C233.645 150.946 230.59 154 226.822 154C223.054 154 220 150.946 220 147.178L220 54.8223Z" fill="url(#paint4_linear_1950_5365)" fill-opacity="0.8"/>
<path d="M277.855 6.82234C277.855 3.05447 280.91 -3.95663e-09 284.678 -8.83738e-09C288.446 -1.37181e-08 291.5 3.05447 291.5 6.82234L291.5 146.178C291.5 149.946 288.446 153 284.678 153C280.91 153 277.855 149.946 277.855 146.178L277.855 6.82234Z" fill="#E4E4E7"/>
<path d="M277.855 78.8223C277.855 75.0545 280.91 72 284.678 72C288.446 72 291.5 75.0545 291.5 78.8223L291.5 147.178C291.5 150.946 288.446 154 284.678 154C280.91 154 277.855 150.946 277.855 147.178L277.855 78.8223Z" fill="url(#paint5_linear_1950_5365)" fill-opacity="0.8"/>
<path d="M332 6.5C332 2.91015 334.91 -1.2909e-09 338.5 -2.88331e-09C342.09 -4.47571e-09 345 2.91015 345 6.5L345 146.5C345 150.09 342.09 153 338.5 153C334.91 153 332 150.09 332 146.5L332 6.5Z" fill="#E4E4E7"/>
<path d="M331.078 66.5076C331.03 62.6504 334.119 59.5003 337.977 59.4719C341.834 59.4434 345 62.5472 345.047 66.4045L346.03 146.613C346.077 150.47 342.988 153.62 339.131 153.649C335.273 153.677 332.108 150.573 332.06 146.716L331.078 66.5076Z" fill="url(#paint6_linear_1950_5365)" fill-opacity="0.8"/>
<path d="M389.012 6.82234C389.012 3.05447 392.066 -3.92608e-09 395.834 -8.76915e-09C399.602 -1.36122e-08 402.656 3.05447 402.656 6.82234L402.656 146.178C402.656 149.946 399.602 153 395.834 153C392.066 153 389.012 149.946 389.012 146.178L389.012 6.82234Z" fill="#E4E4E7"/>
<path d="M389 114.822C389 111.054 392.054 108 395.822 108C399.59 108 402.645 111.054 402.645 114.822L402.645 147.178C402.645 150.946 399.59 154 395.822 154C392.054 154 389 150.946 389 147.178L389 114.822Z" fill="url(#paint7_linear_1950_5365)" fill-opacity="0.8"/>
<path d="M443.592 6.82234C443.592 3.05447 446.646 -3.92114e-09 450.414 -8.75812e-09C454.182 -1.35951e-08 457.236 3.05447 457.236 6.82234L457.236 146.178C457.236 149.946 454.182 153 450.414 153C446.646 153 443.592 149.946 443.592 146.178L443.592 6.82234Z" fill="#E4E4E7"/>
<path d="M444 54.8223C444 51.0545 447.054 48 450.822 48C454.59 48 457.645 51.0545 457.645 54.8223L457.645 147.178C457.645 150.946 454.59 154 450.822 154C447.054 154 444 150.946 444 147.178L444 54.8223Z" fill="url(#paint8_linear_1950_5365)" fill-opacity="0.8"/>
<path d="M499.535 6.82234C499.535 3.05447 502.59 -3.91319e-09 506.358 -8.74035e-09C510.125 -1.35675e-08 513.18 3.05447 513.18 6.82234L513.18 146.178C513.18 149.946 510.125 153 506.358 153C502.59 153 499.535 149.946 499.535 146.178L499.535 6.82234Z" fill="#E4E4E7"/>
<path d="M500 32.8223C500 29.0545 503.054 26 506.822 26C510.59 26 513.645 29.0545 513.645 32.8223L513.645 147.178C513.645 150.946 510.59 154 506.822 154C503.054 154 500 150.946 500 147.178L500 32.8223Z" fill="url(#paint9_linear_1950_5365)" fill-opacity="0.8"/>
<path d="M554.113 6.82234C554.113 3.05447 557.168 -3.90725e-09 560.936 -8.72708e-09C564.704 -1.35469e-08 567.758 3.05447 567.758 6.82234L567.758 146.178C567.758 149.946 564.704 153 560.936 153C557.168 153 554.113 149.946 554.113 146.178L554.113 6.82234Z" fill="#E4E4E7"/>
<path d="M554 20.8223C554 17.0545 557.054 14 560.822 14C564.59 14 567.645 17.0545 567.645 20.8223L567.645 147.178C567.645 150.946 564.59 154 560.822 154C557.054 154 554 150.946 554 147.178L554 20.8223Z" fill="url(#paint10_linear_1950_5365)" fill-opacity="0.8"/>
<path d="M609 6.82234C609 3.05447 612.054 1.78341e-08 615.822 3.98336e-08C619.59 6.1833e-08 622.645 3.05447 622.645 6.82234L622.645 147.178C622.645 150.946 619.59 154 615.822 154C612.054 154 609 150.946 609 147.178L609 6.82234Z" fill="url(#paint11_linear_1950_5365)" fill-opacity="0.8"/>
<defs>
<linearGradient id="paint0_linear_1950_5365" x1="9.25089" y1="131.253" x2="-12.4401" y2="21.7591" gradientUnits="userSpaceOnUse">
<stop/>
<stop offset="1" stop-color="#BDBDBD"/>
</linearGradient>
<linearGradient id="paint1_linear_1950_5365" x1="64.6982" y1="124.825" x2="29.8632" y2="-12.2736" gradientUnits="userSpaceOnUse">
<stop/>
<stop offset="1" stop-color="#BDBDBD"/>
</linearGradient>
<linearGradient id="paint2_linear_1950_5365" x1="120.251" y1="124.825" x2="85.4159" y2="-12.2736" gradientUnits="userSpaceOnUse">
<stop/>
<stop offset="1" stop-color="#BDBDBD"/>
</linearGradient>
<linearGradient id="paint3_linear_1950_5365" x1="173.814" y1="107.518" x2="90.1227" y2="-89.4526" gradientUnits="userSpaceOnUse">
<stop/>
<stop offset="1" stop-color="#BDBDBD"/>
</linearGradient>
<linearGradient id="paint4_linear_1950_5365" x1="229.251" y1="101.584" x2="130.193" y2="-115.412" gradientUnits="userSpaceOnUse">
<stop/>
<stop offset="1" stop-color="#BDBDBD"/>
</linearGradient>
<linearGradient id="paint5_linear_1950_5365" x1="287.106" y1="113.452" x2="223.417" y2="-66.9024" gradientUnits="userSpaceOnUse">
<stop/>
<stop offset="1" stop-color="#BDBDBD"/>
</linearGradient>
<linearGradient id="paint6_linear_1950_5365" x1="341.046" y1="107.061" x2="259.513" y2="-94.0016" gradientUnits="userSpaceOnUse">
<stop/>
<stop offset="1" stop-color="#BDBDBD"/>
</linearGradient>
<linearGradient id="paint7_linear_1950_5365" x1="398.251" y1="131.253" x2="376.56" y2="21.7591" gradientUnits="userSpaceOnUse">
<stop/>
<stop offset="1" stop-color="#BDBDBD"/>
</linearGradient>
<linearGradient id="paint8_linear_1950_5365" x1="453.251" y1="101.584" x2="354.193" y2="-115.412" gradientUnits="userSpaceOnUse">
<stop/>
<stop offset="1" stop-color="#BDBDBD"/>
</linearGradient>
<linearGradient id="paint9_linear_1950_5365" x1="509.251" y1="90.7051" x2="375.385" y2="-152.14" gradientUnits="userSpaceOnUse">
<stop/>
<stop offset="1" stop-color="#BDBDBD"/>
</linearGradient>
<linearGradient id="paint10_linear_1950_5365" x1="563.251" y1="84.7712" x2="410.114" y2="-169.221" gradientUnits="userSpaceOnUse">
<stop/>
<stop offset="1" stop-color="#BDBDBD"/>
</linearGradient>
<linearGradient id="paint11_linear_1950_5365" x1="618.251" y1="77.8483" x2="442.779" y2="-186.731" gradientUnits="userSpaceOnUse">
<stop/>
<stop offset="1" stop-color="#BDBDBD"/>
</linearGradient>
</defs>
</svg>
