<svg width="56" height="56" viewBox="0 0 56 56" fill="none" xmlns="http://www.w3.org/2000/svg">
<circle cx="28" cy="28" r="28" fill="black"/>
<g clip-path="url(#clip0_3929_4677)">
<path fill-rule="evenodd" clip-rule="evenodd" d="M33.4473 29.3203C35.0456 30.4053 36.1656 31.8753 36.1656 33.8353V37.3353H39.6656C40.3073 37.3353 40.8323 36.8103 40.8323 36.1686V33.8353C40.8323 31.292 36.6673 29.787 33.4473 29.3203Z" fill="white"/>
<path d="M24.4987 28.0013C27.076 28.0013 29.1654 25.912 29.1654 23.3346C29.1654 20.7573 27.076 18.668 24.4987 18.668C21.9214 18.668 19.832 20.7573 19.832 23.3346C19.832 25.912 21.9214 28.0013 24.4987 28.0013Z" fill="white"/>
<path fill-rule="evenodd" clip-rule="evenodd" d="M31.4989 28.0013C34.0773 28.0013 36.1656 25.913 36.1656 23.3346C36.1656 20.7563 34.0773 18.668 31.4989 18.668C30.9506 18.668 30.4373 18.7846 29.9473 18.948C30.9156 20.1496 31.4989 21.678 31.4989 23.3346C31.4989 24.9913 30.9156 26.5196 29.9473 27.7213C30.4373 27.8846 30.9506 28.0013 31.4989 28.0013Z" fill="white"/>
<path fill-rule="evenodd" clip-rule="evenodd" d="M24.4993 29.168C21.3843 29.168 15.166 30.7313 15.166 33.8346V36.168C15.166 36.8096 15.691 37.3346 16.3327 37.3346H32.666C33.3077 37.3346 33.8327 36.8096 33.8327 36.168V33.8346C33.8327 30.7313 27.6144 29.168 24.4993 29.168Z" fill="white"/>
</g>
<defs>
<clipPath id="clip0_3929_4677">
<rect width="28" height="28" fill="white" transform="translate(14 14)"/>
</clipPath>
</defs>
</svg>
