<svg width="39" height="38" viewBox="0 0 39 38" fill="none" xmlns="http://www.w3.org/2000/svg">
<path fill-rule="evenodd" clip-rule="evenodd" d="M11.4999 8.75839C12.24 8.26392 13.11 8 14 8C14.5714 8 15.0346 8.46322 15.0346 9.03464C15.0346 9.60606 14.5714 10.0693 14 10.0693C13.5193 10.0693 13.0493 10.2118 12.6496 10.4789C12.2498 10.746 11.9383 11.1256 11.7543 11.5698C11.5703 12.014 11.5222 12.5027 11.616 12.9742C11.7098 13.4457 11.9413 13.8788 12.2812 14.2188C12.6212 14.5587 13.0543 14.7902 13.5258 14.884C13.9973 14.9778 14.486 14.9297 14.9302 14.7457C15.3744 14.5617 15.754 14.2502 16.0211 13.8504C16.2882 13.4507 16.4307 12.9807 16.4307 12.5C16.4307 11.9286 16.8939 11.4654 17.4654 11.4654C18.0368 11.4654 18.5 11.9286 18.5 12.5C18.5 13.39 18.2361 14.26 17.7416 15.0001C17.2471 15.7401 16.5443 16.3169 15.7221 16.6575C14.8998 16.998 13.995 17.0872 13.1221 16.9135C12.2492 16.7399 11.4474 16.3113 10.818 15.682C10.1887 15.0526 9.7601 14.2508 9.58647 13.3779C9.41283 12.505 9.50195 11.6002 9.84254 10.7779C10.1831 9.95566 10.7599 9.25285 11.4999 8.75839Z" fill="#8D98AA" stroke="#A1A1AA" stroke-width="1.5" stroke-linecap="round" stroke-linejoin="round"/>
<path fill-rule="evenodd" clip-rule="evenodd" d="M36.4802 14C37.0434 14 37.5 14.4661 37.5 15.041V23.7574C37.5 28.2164 36.6375 31.6085 34.4439 33.8604C32.2489 36.1136 28.9407 37 24.594 37H14.406C10.0606 37 6.75258 36.114 4.55723 33.861C2.36323 31.6094 1.5 28.2173 1.5 23.7574V20.2528C1.5 19.6779 1.95656 19.2118 2.51975 19.2118C3.08295 19.2118 3.53951 19.6779 3.53951 20.2528V23.7574C3.53951 28.014 4.37587 30.7227 6.00321 32.3928C7.62922 34.0615 10.2643 34.9181 14.406 34.9181H24.594C28.7371 34.9181 31.3721 34.0611 32.9977 32.3923C34.6248 30.7221 35.4605 28.0134 35.4605 23.7574V15.041C35.4605 14.4661 35.9171 14 36.4802 14Z" fill="#8D98AA" stroke="#A1A1AA" stroke-width="1.5" stroke-linecap="round" stroke-linejoin="round"/>
<path fill-rule="evenodd" clip-rule="evenodd" d="M4.59967 4.07527C6.82422 1.86823 10.1763 1 14.5827 1H21.4716C22.0396 1 22.5 1.45681 22.5 2.02031C22.5 2.58381 22.0396 3.04062 21.4716 3.04062H14.5827C10.3792 3.04062 7.70419 3.88106 6.05405 5.51821C4.40392 7.15535 3.55681 9.80935 3.55681 13.9797C3.55681 14.5432 3.09638 15 2.5284 15C1.96043 15 1.5 14.5432 1.5 13.9797C1.5 9.60801 2.37512 6.28231 4.59967 4.07527Z" fill="#8D98AA" stroke="#A1A1AA" stroke-width="1.5" stroke-linecap="round" stroke-linejoin="round"/>
<path fill-rule="evenodd" clip-rule="evenodd" d="M24.5 7C24.5 6.44772 24.9792 6 25.5704 6H35.4296C36.0208 6 36.5 6.44772 36.5 7C36.5 7.55228 36.0208 8 35.4296 8H25.5704C24.9792 8 24.5 7.55228 24.5 7Z" fill="#8D98AA" stroke="#A1A1AA" stroke-width="1.5" stroke-linecap="round"/>
<path fill-rule="evenodd" clip-rule="evenodd" d="M30.5 1C31.0523 1 31.5 1.47924 31.5 2.07041V11.9296C31.5 12.5208 31.0523 13 30.5 13C29.9477 13 29.5 12.5208 29.5 11.9296V2.07041C29.5 1.47924 29.9477 1 30.5 1Z" fill="#8D98AA" stroke="#A1A1AA" stroke-width="1.5" stroke-linecap="round"/>
<path fill-rule="evenodd" clip-rule="evenodd" d="M29.5496 20.675L22.4723 26.8014L22.4535 26.8173C21.5931 27.5267 20.5135 27.9145 19.3993 27.9145C18.2851 27.9145 17.2055 27.5267 16.3451 26.8173C16.3358 26.8096 16.3267 26.8018 16.3177 26.7939L15.7713 26.3101C15.3139 25.941 14.7519 25.7253 14.1651 25.694C13.5746 25.6624 12.9894 25.8191 12.4934 26.1414L4.09721 31.8241C3.62855 32.1413 2.99204 32.0177 2.67551 31.5481C2.35899 31.0784 2.48232 30.4405 2.95097 30.1233L11.3681 24.4264C12.2295 23.8634 13.2473 23.5897 14.2741 23.6445C15.301 23.6994 16.2839 24.0802 17.0806 24.7318C17.0909 24.7402 17.1011 24.7489 17.1111 24.7578L17.6591 25.2429C18.1508 25.6434 18.7653 25.8622 19.3993 25.8622C20.0351 25.8622 20.6512 25.6422 21.1436 25.2396L28.2209 19.1131L28.2397 19.0972C29.1002 18.3878 30.1797 18 31.2939 18C32.4081 18 33.4877 18.3878 34.3481 19.0972L34.367 19.1132L37.1454 21.5185C37.5734 21.889 37.6206 22.537 37.2509 22.9659C36.8812 23.3947 36.2345 23.4421 35.8066 23.0716L33.0382 20.6749C32.5458 20.2723 31.9297 20.0523 31.2939 20.0523C30.6582 20.0523 30.0421 20.2723 29.5496 20.675Z" fill="#8D98AA" stroke="#A1A1AA" stroke-width="1.5" stroke-linecap="round" stroke-linejoin="round"/>
</svg>
