<svg width="46" height="45" viewBox="0 0 46 45" fill="none" xmlns="http://www.w3.org/2000/svg">
<path d="M41.8653 31.6405L35.495 25.2684L29.086 4.1237C28.9039 3.52161 28.576 2.97373 28.1316 2.5286C27.6871 2.08347 27.1397 1.75483 26.5379 1.57178C25.9361 1.38873 25.2984 1.35693 24.6814 1.4792C24.0644 1.60146 23.487 1.87402 23.0005 2.27272C22.5139 1.87402 21.9366 1.60146 21.3195 1.4792C20.7025 1.35693 20.0648 1.38873 19.463 1.57178C18.8612 1.75483 18.3138 2.08347 17.8693 2.5286C17.4249 2.97373 17.097 3.52161 16.9149 4.1237L10.5059 25.2702L4.13561 31.6405C3.60856 32.1679 3.3125 32.883 3.3125 33.6286C3.3125 34.3742 3.60856 35.0893 4.13561 35.6167L9.8819 41.363C10.1431 41.6242 10.4531 41.8314 10.7944 41.9728C11.1357 42.1142 11.5015 42.1869 11.8709 42.1869C12.2403 42.1869 12.606 42.1142 12.9473 41.9728C13.2886 41.8314 13.5987 41.6242 13.8598 41.363L22.3465 32.871C22.5818 32.6351 22.8003 32.3832 23.0005 32.1169C23.2006 32.3832 23.4191 32.6351 23.6544 32.871L32.1411 41.3647C32.4023 41.6259 32.7123 41.8332 33.0536 41.9746C33.3949 42.1159 33.7606 42.1887 34.13 42.1887C34.4994 42.1887 34.8652 42.1159 35.2065 41.9746C35.5478 41.8332 35.8578 41.6259 36.119 41.3647L41.8653 35.6184C42.1265 35.3573 42.3338 35.0472 42.4751 34.7059C42.6165 34.3646 42.6893 33.9989 42.6893 33.6295C42.6893 33.2601 42.6165 32.8943 42.4751 32.553C42.3338 32.2117 42.1265 31.9017 41.8653 31.6405ZM11.87 39.3749L6.12545 33.6303L8.35612 31.3997L14.1024 37.146L11.87 39.3749ZM21.5942 27.9051C21.597 28.4599 21.4897 29.0097 21.2785 29.5226C21.0673 30.0356 20.7563 30.5015 20.3637 30.8934L16.0887 35.1561L10.3442 29.4116L12.7436 27.0104C12.9074 26.8466 13.0281 26.645 13.0952 26.4233L19.5991 4.93932C19.6651 4.70026 19.8162 4.49358 20.024 4.35823C20.2318 4.22288 20.4819 4.16821 20.7273 4.20452C20.9726 4.24084 21.1962 4.36562 21.3559 4.55537C21.5155 4.74511 21.6003 4.98671 21.5942 5.23464V27.9051ZM25.6372 30.8934C25.2446 30.5015 24.9336 30.0356 24.7224 29.5226C24.5112 29.0097 24.4039 28.4599 24.4067 27.9051V5.22936C24.4068 4.98581 24.4943 4.75039 24.6534 4.56597C24.8125 4.38156 25.0325 4.26043 25.2734 4.22464C25.5143 4.18886 25.7601 4.2408 25.9659 4.37101C26.1717 4.50122 26.3239 4.70103 26.3948 4.93405L32.8987 26.418C32.9658 26.6397 33.0865 26.8414 33.2503 27.0051L35.7973 29.5522L29.9262 35.1772L25.6372 30.8934ZM34.1309 39.3749L31.9231 37.1653L37.7924 31.5403L39.8755 33.6303L34.1309 39.3749Z" fill="black"/>
</svg>
