<svg width="10" height="10" viewBox="0 0 10 10" fill="none" xmlns="http://www.w3.org/2000/svg">
<path d="M9.375 3.67188C9.375 6.40625 5.3207 8.61953 5.14805 8.71094C5.10254 8.73542 5.05167 8.74823 5 8.74823C4.94833 8.74823 4.89746 8.73542 4.85195 8.71094C4.6793 8.61953 0.625 6.40625 0.625 3.67188C0.625724 3.02978 0.881117 2.41418 1.33515 1.96015C1.78918 1.50612 2.40478 1.25072 3.04688 1.25C3.85352 1.25 4.55977 1.59688 5 2.1832C5.44023 1.59688 6.14648 1.25 6.95312 1.25C7.59522 1.25072 8.21082 1.50612 8.66485 1.96015C9.11888 2.41418 9.37428 3.02978 9.375 3.67188Z" fill="#EF4444"/>
</svg>
