<svg width="16" height="17" viewBox="0 0 16 17" fill="none" xmlns="http://www.w3.org/2000/svg">
<path d="M6.06065 6.50065C6.21739 6.0551 6.52675 5.67939 6.93395 5.44007C7.34116 5.20076 7.81991 5.11328 8.28544 5.19313C8.75096 5.27297 9.1732 5.515 9.47737 5.87634C9.78154 6.23767 9.94802 6.695 9.94732 7.16732C9.94732 8.50065 7.94732 9.16732 7.94732 9.16732M8.00065 11.834H8.00732M14.6673 8.50065C14.6673 12.1826 11.6826 15.1673 8.00065 15.1673C4.31875 15.1673 1.33398 12.1826 1.33398 8.50065C1.33398 4.81875 4.31875 1.83398 8.00065 1.83398C11.6826 1.83398 14.6673 4.81875 14.6673 8.50065Z" stroke="#98A2B3" stroke-width="1.33333" stroke-linecap="round" stroke-linejoin="round"/>
</svg>
