<svg width="20" height="20" viewBox="0 0 20 20" fill="none" xmlns="http://www.w3.org/2000/svg">
<path d="M4.16602 17.5H15.8327V15.8333H4.16602V17.5ZM9.99935 14.1667C11.3254 14.1667 12.5972 13.6399 13.5349 12.7022C14.4726 11.7645 14.9993 10.4927 14.9993 9.16667V2.5H12.916V9.16667C12.916 9.94021 12.6087 10.6821 12.0617 11.2291C11.5148 11.776 10.7729 12.0833 9.99935 12.0833C9.2258 12.0833 8.48394 11.776 7.93695 11.2291C7.38997 10.6821 7.08268 9.94021 7.08268 9.16667V2.5H4.99935V9.16667C4.99935 10.4927 5.52613 11.7645 6.46382 12.7022C7.4015 13.6399 8.67327 14.1667 9.99935 14.1667Z" fill="#71717A"/>
</svg>
