<svg width="20" height="20" viewBox="0 0 20 20" fill="none" xmlns="http://www.w3.org/2000/svg">
<g clip-path="url(#clip0_3354_33957)">
<path d="M7.57535 16.568C7.47292 16.3367 7.29444 16.3133 7.22222 16.3133C7.15 16.3133 6.97153 16.3363 6.87431 16.5551L6.60799 17.1543C6.38681 17.6535 5.73889 17.5984 5.58438 17.0727L5 15.1012L4.6316 16.3465C4.42708 17.0363 3.85451 17.5 3.20799 17.5H2.77778C2.47083 17.5 2.22222 17.2203 2.22222 16.875C2.22222 16.5297 2.47083 16.25 2.77778 16.25H3.20799C3.37569 16.25 3.52431 16.1297 3.57743 15.9508L4.20903 13.8164C4.32361 13.4332 4.64097 13.1754 5 13.1754C5.35903 13.1754 5.67639 13.4328 5.79063 13.8164L6.27257 15.443C6.95833 14.8105 8.14965 15.0641 8.56424 15.9961C8.62986 16.1437 8.75486 16.2285 8.88924 16.2406V13.0328L13.3337 8.06836V6.25H8.61111C8.15278 6.25 7.77778 5.82812 7.77778 5.3125V0H0.833333C0.371528 0 0 0.417969 0 0.9375V19.0625C0 19.582 0.371528 20 0.833333 20H12.5C12.9618 20 13.3333 19.582 13.3333 19.0625V17.5L8.88889 17.4957C8.32917 17.4836 7.82708 17.1332 7.57535 16.568ZM13.3333 4.76172C13.3333 4.51562 13.2465 4.27734 13.0903 4.10156L9.69097 0.273438C9.53472 0.0976562 9.32292 0 9.10069 0H8.88889V5H13.3333V4.76172ZM10 13.5531V16.25H12.3955L18.0094 9.89141L15.6524 7.23984L10 13.5531ZM19.741 6.53633L18.6344 5.29141C18.2892 4.90313 17.7292 4.90313 17.384 5.29141L16.4378 6.35586L18.7948 9.00742L19.741 7.94297C20.0865 7.55469 20.0865 6.92461 19.741 6.53633Z" fill="#71717A"/>
</g>
<defs>
<clipPath id="clip0_3354_33957">
<rect width="20" height="20" fill="white"/>
</clipPath>
</defs>
</svg>
