<svg width="16" height="16" viewBox="0 0 16 16" fill="none" xmlns="http://www.w3.org/2000/svg">
<path d="M9.82727 0.722657C9.89298 0.72254 9.95806 0.735374 10.0188 0.760425C10.0795 0.785477 10.1348 0.822255 10.1813 0.868657L15.1313 5.81866C15.225 5.91242 15.2777 6.03958 15.2777 6.17216C15.2777 6.30474 15.225 6.43189 15.1313 6.52566C14.6513 7.00566 14.0593 7.11366 13.6283 7.11366C13.4513 7.11366 13.2933 7.09566 13.1683 7.07466L10.0343 10.2087C10.1168 10.5411 10.1703 10.88 10.1943 11.2217C10.2403 11.9237 10.1623 12.9087 9.47427 13.5967C9.38051 13.6904 9.25336 13.7431 9.12077 13.7431C8.98819 13.7431 8.86104 13.6904 8.76727 13.5967L5.93827 10.7687L2.75627 13.9507C2.56127 14.1457 1.53727 14.8527 1.34227 14.6577C1.14727 14.4627 1.85427 13.4377 2.04927 13.2437L5.23127 10.0617L2.40327 7.23266C2.30954 7.13889 2.25688 7.01174 2.25688 6.87916C2.25688 6.74657 2.30954 6.61942 2.40327 6.52566C3.09127 5.83766 4.07627 5.75866 4.77827 5.80566C5.11993 5.8296 5.45887 5.88313 5.79127 5.96566L8.92527 2.83266C8.89911 2.68037 8.88573 2.52617 8.88527 2.37166C8.88527 1.94166 8.99327 1.34966 9.47427 0.868657C9.56798 0.775188 9.69492 0.722685 9.82727 0.722657Z" fill="#A1A1AA"/>
</svg>
