<svg width="20" height="20" viewBox="0 0 20 20" fill="none" xmlns="http://www.w3.org/2000/svg">
<path d="M16.666 6.66536L9.99935 10.832L3.33268 6.66536V4.9987L9.99935 9.16536L16.666 4.9987M16.666 3.33203H3.33268C2.40768 3.33203 1.66602 4.0737 1.66602 4.9987V14.9987C1.66602 15.4407 1.84161 15.8646 2.15417 16.1772C2.46673 16.4898 2.89065 16.6654 3.33268 16.6654H16.666C17.108 16.6654 17.532 16.4898 17.8445 16.1772C18.1571 15.8646 18.3327 15.4407 18.3327 14.9987V4.9987C18.3327 4.55667 18.1571 4.13275 17.8445 3.82019C17.532 3.50763 17.108 3.33203 16.666 3.33203Z" fill="white"/>
</svg>
