<svg width="20" height="20" viewBox="0 0 20 20" fill="none" xmlns="http://www.w3.org/2000/svg">
<path fill-rule="evenodd" clip-rule="evenodd" d="M7.44159 10C7.44159 11.5068 8.66205 12.7273 10.1689 12.7273C11.6689 12.7273 12.8961 11.5068 12.8961 10C12.8961 8.4932 11.6757 7.27274 10.1689 7.27274C8.66205 7.27274 7.44159 8.4932 7.44159 10ZM8.80523 10C8.80523 9.25001 9.41887 8.63638 10.1689 8.63638C10.9189 8.63638 11.5325 9.25001 11.5325 10C11.5325 10.75 10.9189 11.3636 10.1689 11.3636C9.41887 11.3636 8.80523 10.75 8.80523 10Z" fill="#F5F9FF" fill-opacity="0.95"/>
<path fill-rule="evenodd" clip-rule="evenodd" d="M10.0188 17.5H10.3188C10.8643 17.5 11.3756 17.2886 11.7711 16.9C12.1597 16.5114 12.3711 16 12.3711 15.4545V15.325C12.3711 15.2023 12.3984 15.0864 12.4597 14.9841C12.5211 14.8818 12.6029 14.7932 12.712 14.7318L13.0052 14.5614C13.2166 14.4455 13.462 14.4318 13.7075 14.575L13.7893 14.6159C14.2529 14.8818 14.8188 14.9568 15.337 14.8205C15.8688 14.6841 16.3052 14.3432 16.5847 13.8659L16.7279 13.6068C17.0006 13.1364 17.0757 12.5841 16.9325 12.0591C16.7893 11.5341 16.4484 11.0909 15.9575 10.8045L15.8756 10.7636C15.7666 10.7023 15.6847 10.6136 15.6234 10.5114C15.5688 10.4023 15.5347 10.2864 15.5347 10.1636V9.82273C15.5279 9.70682 15.562 9.58409 15.6234 9.48182C15.6847 9.37954 15.7666 9.29773 15.8825 9.22955L15.9847 9.16136C16.4552 8.88864 16.7893 8.44545 16.9325 7.92045C17.0757 7.39545 17.0006 6.84318 16.7279 6.37273L16.5779 6.11364C16.3052 5.64318 15.862 5.30909 15.337 5.16591C14.812 5.02273 14.2529 5.09773 13.8029 5.35682L13.6802 5.425C13.4688 5.54091 13.2029 5.54091 12.9984 5.425L12.7052 5.25455C12.5961 5.2 12.5143 5.11136 12.4529 5.00909C12.3984 4.90682 12.3643 4.78409 12.3643 4.66818V4.54545C12.3643 4 12.1529 3.48864 11.7643 3.1C11.3756 2.71136 10.8643 2.5 10.3188 2.5H10.0188C9.47338 2.5 8.9552 2.71136 8.57338 3.1C8.18474 3.48864 7.97338 4 7.97338 4.54545V4.66818C7.97338 4.78409 7.93929 4.90682 7.88474 5.00909C7.82338 5.11136 7.73474 5.2 7.63247 5.26136L7.33929 5.425C7.12792 5.54773 6.88247 5.56136 6.6302 5.41818L6.54838 5.37727C6.07792 5.10455 5.52565 5.02955 5.00065 5.17273C4.48247 5.30909 4.02565 5.65682 3.75974 6.12045L3.60974 6.37955C3.33701 6.85 3.26883 7.40227 3.4052 7.92727C3.54838 8.45909 3.88247 8.89545 4.32565 9.15455L4.46201 9.24318C4.56429 9.29773 4.65292 9.38636 4.70065 9.48182C4.7552 9.58409 4.78929 9.7 4.78929 9.81591V10.1705C4.78929 10.2864 4.76201 10.4091 4.70065 10.5114C4.63929 10.6205 4.55747 10.7023 4.44156 10.7705L4.35292 10.825C3.88247 11.0977 3.54838 11.5409 3.4052 12.0659C3.26201 12.5977 3.33701 13.1432 3.60974 13.6205L3.76656 13.8727C4.03247 14.3432 4.48929 14.6841 5.00747 14.8273C5.53247 14.9705 6.08474 14.8955 6.53474 14.6364L6.65747 14.5682C6.86883 14.4523 7.13474 14.4523 7.33929 14.5682L7.63247 14.7386C7.74156 14.8 7.82338 14.8886 7.88474 14.9909C7.93929 15.0932 7.97338 15.2159 7.97338 15.3318V15.4545C7.97338 16 8.18474 16.5114 8.57338 16.9C8.96201 17.2886 9.47338 17.5 10.0188 17.5ZM8.02111 13.3886C7.70747 13.2114 7.35974 13.1159 6.99838 13.1159C6.63701 13.1159 6.28247 13.2114 6.00292 13.3818L5.8802 13.45C5.72338 13.5386 5.53929 13.5659 5.36201 13.5182C5.18474 13.4705 5.03474 13.3545 4.94611 13.1977L4.79611 12.9386C4.70747 12.7818 4.6802 12.5977 4.72792 12.4205C4.77565 12.2432 4.88474 12.0932 5.0552 11.9977L5.14383 11.9432C5.45747 11.7659 5.71656 11.5068 5.89383 11.1932C6.07792 10.8795 6.16656 10.525 6.16656 10.1705V9.81591C6.16656 9.46136 6.06429 9.11364 5.88701 8.8C5.70974 8.48636 5.45065 8.23409 5.17792 8.07727L5.04156 7.98864C4.88474 7.9 4.76883 7.75682 4.72111 7.57955C4.6802 7.40227 4.70065 7.21818 4.78929 7.06136L4.94611 6.80227C5.03474 6.64545 5.18474 6.52955 5.3552 6.48864C5.53247 6.44091 5.71656 6.46136 5.89383 6.56364L5.97565 6.60455C6.58929 6.96591 7.39383 6.96591 8.02111 6.60455L8.31429 6.44091C8.62792 6.25682 8.88701 5.99773 9.06429 5.69091C9.24156 5.37727 9.33701 5.02955 9.33701 4.66818V4.54545C9.33701 4.36818 9.41201 4.19091 9.53474 4.06136C9.66429 3.93864 9.84156 3.86364 10.0188 3.86364H10.3188C10.4961 3.86364 10.6734 3.93864 10.8029 4.06136C10.9256 4.19091 11.0006 4.36818 11.0006 4.54545V4.675C11.0006 5.02955 11.0961 5.38409 11.2734 5.69773C11.4507 6.00455 11.7097 6.26364 12.0166 6.44091L12.3097 6.61136C12.9302 6.97273 13.7552 6.96591 14.3347 6.625L14.4575 6.55682C14.6143 6.46818 14.8052 6.44091 14.9756 6.48864C15.1529 6.53636 15.3029 6.64545 15.3916 6.80227L15.5416 7.06136C15.6302 7.21818 15.6575 7.40909 15.6097 7.57955C15.562 7.75 15.4529 7.9 15.2893 7.99545L15.1938 8.05C14.8802 8.22727 14.6211 8.48636 14.4438 8.8C14.2666 9.10682 14.1711 9.46818 14.1711 9.82273V10.1636C14.1711 10.5182 14.2666 10.8727 14.4438 11.1864C14.6211 11.5 14.8802 11.7591 15.2143 11.95L15.2961 11.9909C15.4529 12.0795 15.5688 12.2364 15.6166 12.4068C15.6575 12.5841 15.637 12.7682 15.5416 12.9318L15.3984 13.1909C15.3029 13.3477 15.1597 13.4568 14.9825 13.5045C14.8052 13.5523 14.6143 13.5318 14.4438 13.4295L14.362 13.3886C13.7416 13.0273 12.937 13.0273 12.3166 13.3886L12.0234 13.5591C11.7097 13.7432 11.4507 13.9955 11.2734 14.3091C11.0961 14.6227 11.0006 14.9773 11.0006 15.3318V15.4545C11.0006 15.6386 10.9325 15.8091 10.8029 15.9386C10.6734 16.0682 10.5029 16.1364 10.3188 16.1364H10.0188C9.83474 16.1364 9.66429 16.0682 9.52792 15.9386C9.39838 15.8091 9.3302 15.6386 9.3302 15.4545V15.325C9.3302 14.9636 9.23474 14.6159 9.05747 14.3023C8.8802 13.9955 8.62111 13.7364 8.31429 13.5591L8.02111 13.3886Z" fill="#F5F9FF" fill-opacity="0.95"/>
</svg>
