<svg width="230" height="230" viewBox="0 0 230 230" fill="none" xmlns="http://www.w3.org/2000/svg">
<path d="M115 21.5625C96.5199 21.5625 78.4547 27.0425 63.0889 37.3096C47.7232 47.5766 35.7471 62.1695 28.675 79.243C21.603 96.3165 19.7526 115.104 23.3579 133.229C26.9632 151.354 35.8623 168.003 48.9298 181.07C61.9972 194.138 78.6462 203.037 96.7713 206.642C114.896 210.247 133.684 208.397 150.757 201.325C167.83 194.253 182.423 182.277 192.69 166.911C202.958 151.545 208.438 133.48 208.438 115C208.411 90.2269 198.559 66.4759 181.041 48.9586C163.524 31.4413 139.773 21.5887 115 21.5625ZM156.023 98.5227L105.71 148.835C105.043 149.503 104.25 150.034 103.377 150.395C102.505 150.757 101.57 150.943 100.625 150.943C99.6805 150.943 98.7452 150.757 97.8727 150.395C97.0001 150.034 96.2074 149.503 95.5399 148.835L73.9774 127.273C72.6287 125.924 71.871 124.095 71.871 122.187C71.871 120.28 72.6287 118.451 73.9774 117.102C75.326 115.754 77.1552 114.996 79.0625 114.996C80.9698 114.996 82.799 115.754 84.1477 117.102L100.625 133.589L145.852 88.3523C146.52 87.6845 147.313 87.1548 148.185 86.7934C149.058 86.432 149.993 86.246 150.938 86.246C151.882 86.246 152.817 86.432 153.69 86.7934C154.562 87.1548 155.355 87.6845 156.023 88.3523C156.69 89.0201 157.22 89.8129 157.582 90.6854C157.943 91.5579 158.129 92.4931 158.129 93.4375C158.129 94.3819 157.943 95.317 157.582 96.1896C157.22 97.0621 156.69 97.8549 156.023 98.5227Z" fill="black"/>
</svg>
