<svg width="20" height="20" viewBox="0 0 20 20" fill="none" xmlns="http://www.w3.org/2000/svg">
<path fill-rule="evenodd" clip-rule="evenodd" d="M15.6231 2.16797C15.0844 2.16797 14.5678 2.38198 14.1868 2.76291L8.1412 8.80853L8.13993 8.80979L8.13867 8.81106L7.15371 9.79602C7.11536 9.83292 7.08145 9.87499 7.05319 9.92159C7.02358 9.97025 7.00122 10.0221 6.98612 10.0755L6.11899 12.9234C6.05174 13.1443 6.11171 13.3842 6.27494 13.5474C6.43818 13.7107 6.6781 13.7706 6.89893 13.7034L9.74741 12.8361C9.7978 12.8218 9.84674 12.801 9.89293 12.7739C9.94287 12.7446 9.98775 12.7089 10.0268 12.6682L17.0595 5.63554C17.4404 5.25461 17.6544 4.73795 17.6544 4.19923C17.6544 3.6605 17.4404 3.14385 17.0595 2.76291C16.6785 2.38198 16.1619 2.16797 15.6231 2.16797ZM8.13991 10.5776L8.58188 10.1356L9.68674 11.2405L9.24476 11.6825L7.65622 12.1661L8.13991 10.5776ZM9.46576 9.25174L10.5706 10.3566L16.1756 4.75166C16.3221 4.60515 16.4044 4.40643 16.4044 4.19923C16.4044 3.99202 16.3221 3.79331 16.1756 3.64679C16.0291 3.50028 15.8303 3.41797 15.6231 3.41797C15.4159 3.41797 15.2172 3.50028 15.0707 3.64679L9.46576 9.25174Z" fill="#F5F9FF" fill-opacity="0.95"/>
<path d="M4.375 13.418C3.83628 13.418 3.31962 13.632 2.93869 14.0129C2.55776 14.3938 2.34375 14.9105 2.34375 15.4492C2.34375 15.9879 2.55776 16.5046 2.93869 16.8855C3.31962 17.2665 3.83628 17.4805 4.375 17.4805H14.2188C14.5639 17.4805 14.8438 17.2006 14.8438 16.8555C14.8438 16.5103 14.5639 16.2305 14.2188 16.2305H4.375C4.1678 16.2305 3.96909 16.1482 3.82257 16.0016C3.67606 15.8551 3.59375 15.6564 3.59375 15.4492C3.59375 15.242 3.67606 15.0433 3.82257 14.8968C3.96909 14.7503 4.1678 14.668 4.375 14.668H4.84188C5.18705 14.668 5.46688 14.3881 5.46688 14.043C5.46688 13.6978 5.18705 13.418 4.84188 13.418H4.375Z" fill="#F5F9FF" fill-opacity="0.95"/>
</svg>
