<svg width="33" height="32" viewBox="0 0 33 32" fill="none" xmlns="http://www.w3.org/2000/svg">
<path d="M29.0331 10.6667C29.0331 8.64162 27.3914 7 25.3664 7H8.16667C6.14162 7 4.5 8.64162 4.5 10.6667V20.8537C4.5 22.8788 6.14162 24.5204 8.16666 24.5204H12.2665C12.8188 24.5204 13.2665 24.0727 13.2665 23.5204C13.2665 22.9681 12.8188 22.5204 12.2665 22.5204H8.16666C7.24619 22.5204 6.5 21.7742 6.5 20.8537L6.5 10.6667C6.5 9.74619 7.24619 9 8.16667 9L25.3664 9C26.2869 9 27.0331 9.74619 27.0331 10.6667V20.8537C27.0331 21.7742 26.2869 22.5204 25.3664 22.5204H21.7665C21.2142 22.5204 20.7665 22.9681 20.7665 23.5204C20.7665 24.0727 21.2142 24.5204 21.7665 24.5204H25.3664C27.3914 24.5204 29.0331 22.8788 29.0331 20.8537V10.6667Z" fill="#F5F9FF" fill-opacity="0.95"/>
<path d="M11.4436 17.7427C10.9618 18.2244 10.9618 19.0055 11.4436 19.4873C11.9253 19.969 12.7064 19.969 13.1882 19.4873L15.7083 16.9671V26.0853C15.7083 26.7666 16.2606 27.3189 16.9419 27.3189C17.6232 27.3189 18.1756 26.7666 18.1756 26.0853L18.1756 16.9671L20.6957 19.4873C21.1775 19.969 21.9586 19.969 22.4403 19.4873C22.9221 19.0055 22.9221 18.2244 22.4403 17.7427L17.8142 13.1166C17.5829 12.8852 17.2691 12.7552 16.9419 12.7552C16.6148 12.7552 16.301 12.8852 16.0696 13.1166L11.4436 17.7427Z" fill="#F5F9FF" fill-opacity="0.95"/>
</svg>
