<svg width="21" height="18" viewBox="0 0 21 18" fill="none" xmlns="http://www.w3.org/2000/svg">
<path d="M14.858 16.4395C14.7536 16.4418 14.65 16.4185 14.5591 16.372L10.1966 14.3425L6.35535 16.1695C5.72873 16.4695 4.94418 16.264 4.60455 15.7098C4.60031 15.703 4.59606 15.6963 4.59182 15.6888C4.45851 15.457 4.41181 15.1953 4.45766 14.9388L5.20485 11.0433L2.08194 8.25028C1.57164 7.78528 1.57164 7.04578 2.08194 6.58003C2.28063 6.39553 2.54384 6.27628 2.82913 6.24178L7.11103 5.66728L9.01552 2.16253C9.31184 1.59253 10.0752 1.34203 10.7213 1.60378C11.0015 1.71703 11.2257 1.91578 11.3539 2.16253L13.2669 5.67928L17.5632 6.26053C17.9105 6.30628 18.2221 6.47578 18.4259 6.72853C18.8062 7.21153 18.7485 7.86403 18.2883 8.28928L15.1798 11.0493L15.6129 13.1485C15.6731 13.4635 15.4379 13.7643 15.0822 13.8235C14.7324 13.879 14.3978 13.6735 14.335 13.3638L13.8943 11.2645C13.8205 10.8798 13.9588 10.4868 14.2679 10.2085L17.384 7.42903L13.0877 6.84028C12.6521 6.77803 12.2828 6.52303 12.1087 6.16528L10.1966 2.66353L8.26068 6.22078C8.08662 6.57928 7.71727 6.83353 7.2817 6.89578L2.99979 7.47028L6.09299 10.2453C6.4012 10.519 6.5396 10.9068 6.46658 11.287L5.71939 15.1825L9.55977 13.363C9.94016 13.174 10.4046 13.174 10.785 13.363L15.1416 15.3925C15.4074 15.5208 15.5424 15.7915 15.4702 16.0518C15.404 16.312 15.1442 16.4973 14.8427 16.5018L14.858 16.4395Z" fill="#828282"/>
</svg>
