<svg width="20" height="20" viewBox="0 0 20 20" fill="none" xmlns="http://www.w3.org/2000/svg">
<path d="M5.66602 15.8327V4.16602H10.2702C11.173 4.16602 12.0063 4.44379 12.7702 4.99935C13.5341 5.5549 13.916 6.32574 13.916 7.31185C13.916 8.02018 13.7563 8.56518 13.4368 8.94685C13.1174 9.32907 12.8188 9.60352 12.541 9.77018C12.8882 9.92296 13.2738 10.2077 13.6977 10.6243C14.121 11.041 14.3327 11.666 14.3327 12.4993C14.3327 13.7355 13.8813 14.6002 12.9785 15.0935C12.0757 15.5863 11.2285 15.8327 10.4368 15.8327H5.66602ZM8.18685 13.4993H10.3535C11.0202 13.4993 11.4263 13.3291 11.5718 12.9885C11.718 12.6485 11.791 12.4021 11.791 12.2493C11.791 12.0966 11.718 11.8499 11.5718 11.5093C11.4263 11.1693 10.9993 10.9993 10.291 10.9993H8.18685V13.4993ZM8.18685 8.74935H10.1243C10.5827 8.74935 10.916 8.63129 11.1243 8.39518C11.3327 8.15907 11.4368 7.89518 11.4368 7.60352C11.4368 7.27018 11.3188 6.99935 11.0827 6.79102C10.8466 6.58268 10.541 6.47852 10.166 6.47852H8.18685V8.74935Z" fill="#71717A"/>
</svg>
