<svg width="24" height="24" viewBox="0 0 24 24" fill="none" xmlns="http://www.w3.org/2000/svg">
<path d="M10.875 19.2986L4.275 12.6986C4.175 12.5986 4.104 12.4903 4.062 12.3736C4.02067 12.257 4 12.132 4 11.9986C4 11.8653 4.02067 11.7403 4.062 11.6236C4.104 11.507 4.175 11.3986 4.275 11.2986L10.875 4.69862C11.0583 4.51528 11.2873 4.41928 11.562 4.41062C11.8373 4.40262 12.075 4.49862 12.275 4.69862C12.475 4.88195 12.5793 5.11095 12.588 5.38562C12.596 5.66095 12.5 5.89862 12.3 6.09862L7.4 10.9986H18.575C18.8583 10.9986 19.096 11.0943 19.288 11.2856C19.4793 11.4776 19.575 11.7153 19.575 11.9986C19.575 12.282 19.4793 12.5193 19.288 12.7106C19.096 12.9026 18.8583 12.9986 18.575 12.9986H7.4L12.3 17.8986C12.4833 18.082 12.5793 18.3153 12.588 18.5986C12.596 18.882 12.5 19.1153 12.3 19.2986C12.1167 19.4986 11.8833 19.5986 11.6 19.5986C11.3167 19.5986 11.075 19.4986 10.875 19.2986Z" fill="#F5F5F5"/>
</svg>
