<svg width="48" height="48" viewBox="0 0 48 48" fill="none" xmlns="http://www.w3.org/2000/svg">
<circle cx="24" cy="24" r="24" fill="black"/>
<g clip-path="url(#clip0_1115_16476)">
<path d="M24.0129 11.5C17.1129 11.5 11.5254 17.1 11.5254 24C11.5254 30.9 17.1129 36.5 24.0129 36.5C30.9254 36.5 36.5254 30.9 36.5254 24C36.5254 17.1 30.9254 11.5 24.0129 11.5ZM24.0254 34C18.5004 34 14.0254 29.525 14.0254 24C14.0254 18.475 18.5004 14 24.0254 14C29.5504 14 34.0254 18.475 34.0254 24C34.0254 29.525 29.5504 34 24.0254 34ZM28.4004 22.75C29.4379 22.75 30.2754 21.9125 30.2754 20.875C30.2754 19.8375 29.4379 19 28.4004 19C27.3629 19 26.5254 19.8375 26.5254 20.875C26.5254 21.9125 27.3629 22.75 28.4004 22.75ZM19.6504 22.75C20.6879 22.75 21.5254 21.9125 21.5254 20.875C21.5254 19.8375 20.6879 19 19.6504 19C18.6129 19 17.7754 19.8375 17.7754 20.875C17.7754 21.9125 18.6129 22.75 19.6504 22.75ZM24.0254 30.875C26.5629 30.875 28.7754 29.4875 29.9629 27.4375C30.2004 27.025 29.9004 26.5 29.4129 26.5H18.6379C18.1629 26.5 17.8504 27.025 18.0879 27.4375C19.2754 29.4875 21.4879 30.875 24.0254 30.875Z" fill="white"/>
</g>
<defs>
<clipPath id="clip0_1115_16476">
<rect width="30" height="30" fill="white" transform="translate(9 9)"/>
</clipPath>
</defs>
</svg>
