<svg width="20" height="20" viewBox="0 0 20 20" fill="none" xmlns="http://www.w3.org/2000/svg">
<path d="M12.8007 4.66536C12.4325 4.66536 12.134 4.36689 12.134 3.9987C12.134 3.63051 12.4325 3.33203 12.8007 3.33203H16.0005C16.0909 3.33203 16.1772 3.35002 16.2558 3.38262C16.3339 3.41491 16.4071 3.46267 16.4706 3.52588L16.4735 3.52871C16.5367 3.5923 16.5844 3.66546 16.6167 3.74351C16.6493 3.82211 16.6673 3.9083 16.6673 3.9987V7.1987C16.6673 7.56689 16.3688 7.86536 16.0007 7.86536C15.6325 7.86536 15.334 7.56689 15.334 7.1987V5.60817L12.4721 8.4701C12.2117 8.73045 11.7896 8.73045 11.5293 8.4701C11.2689 8.20975 11.2689 7.78764 11.5293 7.52729L14.3912 4.66536H12.8007Z" fill="#F5F9FF" fill-opacity="0.95"/>
<path d="M8.47206 12.4701C8.73241 12.2097 8.73241 11.7876 8.47206 11.5273C8.21171 11.2669 7.7896 11.2669 7.52925 11.5273L4.66732 14.3892V12.7987C4.66732 12.4305 4.36884 12.132 4.00065 12.132C3.63246 12.132 3.33398 12.4305 3.33398 12.7987V15.9986C3.33398 16.089 3.35197 16.1753 3.38457 16.2539C3.41686 16.3319 3.46462 16.4051 3.52783 16.4687L3.53066 16.4715C3.59425 16.5347 3.66741 16.5825 3.74546 16.6148C3.82407 16.6474 3.91026 16.6653 4.00065 16.6653H7.20065C7.56884 16.6653 7.86732 16.3669 7.86732 15.9987C7.86732 15.6305 7.56884 15.332 7.20065 15.332H5.61013L8.47206 12.4701Z" fill="#F5F9FF" fill-opacity="0.95"/>
<path d="M12.4721 11.5273C12.2117 11.2669 11.7896 11.2669 11.5293 11.5273C11.2689 11.7876 11.2689 12.2097 11.5293 12.4701L14.3912 15.332H12.8007C12.4325 15.332 12.134 15.6305 12.134 15.9987C12.134 16.3669 12.4325 16.6653 12.8007 16.6653H16.0007C16.091 16.6653 16.1772 16.6474 16.2558 16.6148C16.3339 16.5825 16.4071 16.5347 16.4706 16.4715L16.4735 16.4687C16.5367 16.4051 16.5844 16.3319 16.6167 16.2539C16.6493 16.1753 16.6673 16.0891 16.6673 15.9987V12.7987C16.6673 12.4305 16.3688 12.132 16.0007 12.132C15.6325 12.132 15.334 12.4305 15.334 12.7987V14.3892L12.4721 11.5273Z" fill="#F5F9FF" fill-opacity="0.95"/>
<path d="M8.47206 7.52729L5.61013 4.66536H7.20065C7.56884 4.66536 7.86732 4.36689 7.86732 3.9987C7.86732 3.63051 7.56884 3.33203 7.20065 3.33203H4.00077C3.91037 3.33203 3.82407 3.35002 3.74546 3.38262C3.66683 3.41515 3.59316 3.46338 3.52925 3.52729C3.39907 3.65747 3.33398 3.82808 3.33398 3.9987V7.1987C3.33398 7.56689 3.63246 7.86536 4.00065 7.86536C4.36884 7.86536 4.66732 7.56689 4.66732 7.1987V5.60817L7.52925 8.4701C7.7896 8.73045 8.21171 8.73045 8.47206 8.4701C8.73241 8.20975 8.73241 7.78764 8.47206 7.52729Z" fill="#F5F9FF" fill-opacity="0.95"/>
</svg>
