<svg width="56" height="56" viewBox="0 0 56 56" fill="none" xmlns="http://www.w3.org/2000/svg">
<circle cx="28" cy="28" r="28" fill="#E4E4E7"/>
<g clip-path="url(#clip0_3929_4657)">
<rect width="32.8417" height="32.8417" transform="translate(11.5273 11.7227)" fill="#E4E4E7"/>
<path d="M20.2849 24.3137H20.5586C21.6123 24.3137 22.4743 25.1758 22.4743 26.2295V35.8083C22.4743 36.862 21.6123 37.724 20.5586 37.724H20.2849C19.2312 37.724 18.3691 36.862 18.3691 35.8083V26.2295C18.3691 25.1758 19.2312 24.3137 20.2849 24.3137ZM27.948 18.5664C29.0016 18.5664 29.8637 19.4285 29.8637 20.4822V35.8083C29.8637 36.862 29.0016 37.724 27.948 37.724C26.8943 37.724 26.0322 36.862 26.0322 35.8083V20.4822C26.0322 19.4285 26.8943 18.5664 27.948 18.5664ZM35.611 29.5136C36.6647 29.5136 37.5268 30.3757 37.5268 31.4294V35.8083C37.5268 36.862 36.6647 37.724 35.611 37.724C34.5573 37.724 33.6953 36.862 33.6953 35.8083V31.4294C33.6953 30.3757 34.5573 29.5136 35.611 29.5136Z" fill="black"/>
</g>
<defs>
<clipPath id="clip0_3929_4657">
<rect width="32.8417" height="32.8417" fill="white" transform="translate(11.5273 11.7227)"/>
</clipPath>
</defs>
</svg>
