<svg width="16" height="16" viewBox="0 0 16 16" fill="none" xmlns="http://www.w3.org/2000/svg">
<path d="M2.66732 16C2.30065 16 1.98687 15.8696 1.72598 15.6087C1.46465 15.3473 1.33398 15.0333 1.33398 14.6667C1.33398 14.3 1.46465 13.986 1.72598 13.7247C1.98687 13.4638 2.30065 13.3333 2.66732 13.3333H13.334C13.7007 13.3333 14.0147 13.4638 14.276 13.7247C14.5369 13.986 14.6673 14.3 14.6673 14.6667C14.6673 15.0333 14.5369 15.3473 14.276 15.6087C14.0147 15.8696 13.7007 16 13.334 16H2.66732ZM4.76732 11.3333C4.46732 11.3333 4.2451 11.2333 4.10065 11.0333C3.95621 10.8333 3.93954 10.5889 4.05065 10.3L6.88398 2.76667C6.96176 2.55556 7.11176 2.37489 7.33398 2.22467C7.55621 2.07489 7.78398 2 8.01732 2C8.23954 2 8.45887 2.07489 8.67532 2.22467C8.89221 2.37489 9.03954 2.55556 9.11732 2.76667L11.9507 10.3C12.0618 10.5889 12.0451 10.8333 11.9007 11.0333C11.7562 11.2333 11.5284 11.3333 11.2173 11.3333C11.084 11.3333 10.9535 11.2889 10.826 11.2C10.698 11.1111 10.6118 11.0056 10.5673 10.8833L9.90065 8.93333H6.13398L5.43398 10.8833C5.38954 11.0056 5.30354 11.1111 5.17598 11.2C5.04798 11.2889 4.91176 11.3333 4.76732 11.3333ZM6.60065 7.6H9.40065L8.03398 3.73333H7.96732L6.60065 7.6Z" fill="black"/>
</svg>
