<svg width="16" height="16" viewBox="0 0 16 16" fill="none" xmlns="http://www.w3.org/2000/svg">
<path d="M3.33398 14H12.6673V12.6667H3.33398V14ZM8.00065 11.3333C9.06152 11.3333 10.0789 10.9119 10.8291 10.1618C11.5792 9.41161 12.0007 8.3942 12.0007 7.33333V2H10.334V7.33333C10.334 7.95217 10.0882 8.54566 9.65057 8.98325C9.21298 9.42083 8.61949 9.66667 8.00065 9.66667C7.38181 9.66667 6.78832 9.42083 6.35074 8.98325C5.91315 8.54566 5.66732 7.95217 5.66732 7.33333V2H4.00065V7.33333C4.00065 8.3942 4.42208 9.41161 5.17222 10.1618C5.92237 10.9119 6.93979 11.3333 8.00065 11.3333Z" fill="black"/>
</svg>
