<svg width="25" height="24" viewBox="0 0 25 24" fill="none" xmlns="http://www.w3.org/2000/svg">
<path fill-rule="evenodd" clip-rule="evenodd" d="M9.81029 2.97631C10.4354 2.35119 11.2833 2 12.1673 2C13.0514 2 13.8992 2.35119 14.5243 2.97631C15.1495 3.60143 15.5007 4.44928 15.5007 5.33333V12C15.5007 12.8841 15.1495 13.7319 14.5243 14.357C13.8992 14.9821 13.0514 15.3333 12.1673 15.3333C11.2833 15.3333 10.4354 14.9821 9.81029 14.357C9.18517 13.7319 8.83398 12.8841 8.83398 12V5.33333C8.83398 4.44928 9.18517 3.60143 9.81029 2.97631ZM12.1673 3.66667C11.7253 3.66667 11.3014 3.84226 10.9888 4.15482C10.6762 4.46738 10.5007 4.89131 10.5007 5.33333V12C10.5007 12.442 10.6762 12.866 10.9888 13.1785C11.3014 13.4911 11.7253 13.6667 12.1673 13.6667C12.6093 13.6667 13.0333 13.4911 13.3458 13.1785C13.6584 12.866 13.834 12.442 13.834 12V5.33333C13.834 4.89131 13.6584 4.46738 13.3458 4.15482C13.0333 3.84226 12.6093 3.66667 12.1673 3.66667Z" fill="white" fill-opacity="0.98"/>
<path fill-rule="evenodd" clip-rule="evenodd" d="M6.33333 9.5C6.79357 9.5 7.16667 9.8731 7.16667 10.3333V12C7.16667 13.3261 7.69345 14.5979 8.63113 15.5355C9.56881 16.4732 10.8406 17 12.1667 17C13.4927 17 14.7645 16.4732 15.7022 15.5355C16.6399 14.5979 17.1667 13.3261 17.1667 12V10.3333C17.1667 9.8731 17.5398 9.5 18 9.5C18.4602 9.5 18.8333 9.8731 18.8333 10.3333V12C18.8333 13.7681 18.131 15.4638 16.8807 16.714C15.6305 17.9643 13.9348 18.6667 12.1667 18.6667C10.3986 18.6667 8.70286 17.9643 7.45262 16.714C6.20238 15.4638 5.5 13.7681 5.5 12V10.3333C5.5 9.8731 5.8731 9.5 6.33333 9.5Z" fill="white" fill-opacity="0.98"/>
<path fill-rule="evenodd" clip-rule="evenodd" d="M12.1673 17C12.6276 17 13.0007 17.3731 13.0007 17.8333V21.1667C13.0007 21.6269 12.6276 22 12.1673 22C11.7071 22 11.334 21.6269 11.334 21.1667V17.8333C11.334 17.3731 11.7071 17 12.1673 17Z" fill="white" fill-opacity="0.98"/>
<path fill-rule="evenodd" clip-rule="evenodd" d="M8 21.1654C8 20.7051 8.3731 20.332 8.83333 20.332H15.5C15.9602 20.332 16.3333 20.7051 16.3333 21.1654C16.3333 21.6256 15.9602 21.9987 15.5 21.9987H8.83333C8.3731 21.9987 8 21.6256 8 21.1654Z" fill="white" fill-opacity="0.98"/>
</svg>
