<svg width="16" height="16" viewBox="0 0 16 16" fill="none" xmlns="http://www.w3.org/2000/svg">
<g clip-path="url(#clip0_193_3375)">
<path d="M6.06028 13.2544C5.97833 13.0694 5.83556 13.0506 5.77778 13.0506C5.72 13.0506 5.57722 13.0691 5.49944 13.2441L5.28639 13.7234C5.10944 14.1228 4.59111 14.0787 4.4675 13.6581L4 12.0809L3.70528 13.0772C3.54167 13.6291 3.08361 14 2.56639 14H2.22222C1.97667 14 1.77778 13.7762 1.77778 13.5C1.77778 13.2238 1.97667 13 2.22222 13H2.56639C2.70056 13 2.81944 12.9037 2.86194 12.7606L3.36722 11.0531C3.45889 10.7466 3.71278 10.5403 4 10.5403C4.28722 10.5403 4.54111 10.7463 4.6325 11.0531L5.01806 12.3544C5.56667 11.8484 6.51972 12.0513 6.85139 12.7969C6.90389 12.915 7.00389 12.9828 7.11139 12.9925V10.4263L10.6669 6.45469V5H6.88889C6.52222 5 6.22222 4.6625 6.22222 4.25V0H0.666667C0.297222 0 0 0.334375 0 0.75V15.25C0 15.6656 0.297222 16 0.666667 16H10C10.3694 16 10.6667 15.6656 10.6667 15.25V14L7.11111 13.9966C6.66333 13.9869 6.26167 13.7066 6.06028 13.2544ZM10.6667 3.80938C10.6667 3.6125 10.5972 3.42188 10.4722 3.28125L7.75278 0.21875C7.62778 0.078125 7.45833 0 7.28056 0H7.11111V4H10.6667V3.80938ZM8 10.8425V13H9.91639L14.4075 7.91313L12.5219 5.79187L8 10.8425ZM15.7928 5.22906L14.9075 4.23313C14.6314 3.9225 14.1833 3.9225 13.9072 4.23313L13.1503 5.08469L15.0358 7.20594L15.7928 6.35437C16.0692 6.04375 16.0692 5.53969 15.7928 5.22906Z" fill="black"/>
</g>
<defs>
<clipPath id="clip0_193_3375">
<rect width="16" height="16" fill="white"/>
</clipPath>
</defs>
</svg>
