<svg width="20" height="20" viewBox="0 0 20 20" fill="none" xmlns="http://www.w3.org/2000/svg">
<path d="M5.83333 14.1667H14.1667C14.3333 14.1667 14.4583 14.0903 14.5417 13.9375C14.625 13.7847 14.6111 13.6389 14.5 13.5L12.2083 10.4375C12.125 10.3264 12.0139 10.2708 11.875 10.2708C11.7361 10.2708 11.625 10.3264 11.5417 10.4375L9.375 13.3333L7.83333 11.2708C7.75 11.1597 7.63889 11.1042 7.5 11.1042C7.36111 11.1042 7.25 11.1597 7.16667 11.2708L5.5 13.5C5.38889 13.6389 5.375 13.7847 5.45833 13.9375C5.54167 14.0903 5.66667 14.1667 5.83333 14.1667ZM4.16667 17.5C3.70833 17.5 3.31583 17.3369 2.98917 17.0108C2.66306 16.6842 2.5 16.2917 2.5 15.8333V4.16667C2.5 3.70833 2.66306 3.31583 2.98917 2.98917C3.31583 2.66306 3.70833 2.5 4.16667 2.5H15.8333C16.2917 2.5 16.6842 2.66306 17.0108 2.98917C17.3369 3.31583 17.5 3.70833 17.5 4.16667V15.8333C17.5 16.2917 17.3369 16.6842 17.0108 17.0108C16.6842 17.3369 16.2917 17.5 15.8333 17.5H4.16667Z" fill="#71717A"/>
</svg>
