<svg width="20" height="20" viewBox="0 0 20 20" fill="none" xmlns="http://www.w3.org/2000/svg">
<path d="M9.16602 14.1673H5.83268C4.6799 14.1673 3.6974 13.7609 2.88518 12.9482C2.0724 12.1359 1.66602 11.1534 1.66602 10.0007C1.66602 8.84787 2.0724 7.8651 2.88518 7.05232C3.6974 6.2401 4.6799 5.83398 5.83268 5.83398H9.16602V7.50065H5.83268C5.13824 7.50065 4.54796 7.74371 4.06185 8.22982C3.57574 8.71593 3.33268 9.30621 3.33268 10.0007C3.33268 10.6951 3.57574 11.2854 4.06185 11.7715C4.54796 12.2576 5.13824 12.5007 5.83268 12.5007H9.16602V14.1673ZM6.66602 10.834V9.16732H13.3327V10.834H6.66602ZM10.8327 14.1673V12.5007H14.166C14.8605 12.5007 15.4507 12.2576 15.9368 11.7715C16.423 11.2854 16.666 10.6951 16.666 10.0007C16.666 9.30621 16.423 8.71593 15.9368 8.22982C15.4507 7.74371 14.8605 7.50065 14.166 7.50065H10.8327V5.83398H14.166C15.3188 5.83398 16.3016 6.2401 17.1143 7.05232C17.9266 7.8651 18.3327 8.84787 18.3327 10.0007C18.3327 11.1534 17.9266 12.1359 17.1143 12.9482C16.3016 13.7609 15.3188 14.1673 14.166 14.1673H10.8327Z" fill="#71717A"/>
</svg>
