<svg width="20" height="20" viewBox="0 0 20 20" fill="none" xmlns="http://www.w3.org/2000/svg">
<path d="M4.99935 11.666H11.666V9.99935H4.99935V11.666ZM4.99935 9.16602H14.9994V7.49935H4.99935V9.16602ZM4.99935 6.66602H14.9994V4.99935H4.99935V6.66602ZM1.66602 18.3327V3.33268C1.66602 2.87435 1.82935 2.48185 2.15602 2.15518C2.48268 1.82852 2.8749 1.66546 3.33268 1.66602H16.666C17.1244 1.66602 17.5169 1.82935 17.8435 2.15602C18.1702 2.48268 18.3332 2.87491 18.3327 3.33268V13.3327C18.3327 13.791 18.1694 14.1835 17.8427 14.5102C17.516 14.8369 17.1238 14.9999 16.666 14.9994H4.99935L1.66602 18.3327Z" fill="#F5F5F5"/>
</svg>
