<svg width="20" height="20" viewBox="0 0 20 20" fill="none" xmlns="http://www.w3.org/2000/svg">
<path d="M3.33268 20C2.87435 20 2.48213 19.8369 2.15602 19.5108C1.82935 19.1842 1.66602 18.7917 1.66602 18.3333C1.66602 17.875 1.82935 17.4825 2.15602 17.1558C2.48213 16.8297 2.87435 16.6667 3.33268 16.6667H16.666C17.1243 16.6667 17.5168 16.8297 17.8435 17.1558C18.1696 17.4825 18.3327 17.875 18.3327 18.3333C18.3327 18.7917 18.1696 19.1842 17.8435 19.5108C17.5168 19.8369 17.1243 20 16.666 20H3.33268ZM5.95768 14.1667C5.58268 14.1667 5.3049 14.0417 5.12435 13.7917C4.94379 13.5417 4.92296 13.2361 5.06185 12.875L8.60352 3.45833C8.70074 3.19444 8.88824 2.96861 9.16602 2.78083C9.44379 2.59361 9.72852 2.5 10.0202 2.5C10.298 2.5 10.5721 2.59361 10.8427 2.78083C11.1138 2.96861 11.298 3.19444 11.3952 3.45833L14.9368 12.875C15.0757 13.2361 15.0549 13.5417 14.8743 13.7917C14.6938 14.0417 14.4091 14.1667 14.0202 14.1667C13.8535 14.1667 13.6905 14.1111 13.531 14C13.371 13.8889 13.2632 13.7569 13.2077 13.6042L12.3743 11.1667H7.66602L6.79102 13.6042C6.73546 13.7569 6.62796 13.8889 6.46852 14C6.30852 14.1111 6.13824 14.1667 5.95768 14.1667ZM8.24935 9.5H11.7493L10.041 4.66667H9.95768L8.24935 9.5Z" fill="#71717A"/>
</svg>
