<svg width="20" height="20" viewBox="0 0 20 20" fill="none" xmlns="http://www.w3.org/2000/svg">
<g clip-path="url(#clip0_3354_33964)">
<path d="M3.264 8.5792C3.20042 8.644 3.12456 8.69547 3.04085 8.73061C2.95715 8.76574 2.86728 8.78384 2.7765 8.78384C2.68572 8.78384 2.59585 8.76574 2.51215 8.73061C2.42844 8.69547 2.35258 8.644 2.289 8.5792C2.15959 8.44754 2.08707 8.27032 2.08707 8.0857C2.08707 7.90109 2.15959 7.72386 2.289 7.5922L8.32 1.5002C9.68 0.444205 11.048 -0.062795 12.41 0.00620503C14.126 0.094205 15.462 0.748205 16.596 1.8212C17.752 2.9152 18.5 4.4762 18.5 6.3682C18.5 7.8202 18.078 9.0982 17.187 10.2322L8.684 18.9922C7.824 19.6972 6.868 20.0382 5.844 19.9972C4.544 19.9432 3.577 19.5232 2.858 18.8122C2.016 17.9812 1.5 16.9602 1.5 15.5872C1.5 14.4952 1.877 13.4872 2.655 12.5412L10.139 4.9002C10.739 4.2602 11.326 3.8802 11.926 3.7882C12.3265 3.72513 12.7363 3.76095 13.1197 3.89254C13.5032 4.02414 13.8487 4.24751 14.126 4.5432C14.658 5.1062 14.886 5.8082 14.806 6.6072C14.751 7.1522 14.528 7.6542 14.118 8.1352L7.238 15.1832C7.17483 15.2482 7.09935 15.3 7.01596 15.3356C6.93256 15.3712 6.84292 15.3898 6.75226 15.3903C6.6616 15.3909 6.57173 15.3734 6.4879 15.3389C6.40408 15.3043 6.32796 15.2535 6.264 15.1892C6.13378 15.0583 6.06019 14.8815 6.05906 14.6969C6.05794 14.5123 6.12938 14.3346 6.258 14.2022L13.105 7.1902C13.305 6.9552 13.41 6.7182 13.435 6.4662C13.475 6.0662 13.379 5.7712 13.13 5.5082C13.0042 5.37351 12.8471 5.27199 12.6727 5.21267C12.4982 5.15335 12.3118 5.13808 12.13 5.1682C11.887 5.2052 11.547 5.4262 11.128 5.8722L3.675 13.4792C3.138 14.1342 2.878 14.8292 2.878 15.5882C2.878 16.5422 3.223 17.2252 3.82 17.8142C4.295 18.2842 4.94 18.5642 5.9 18.6042C6.58 18.6312 7.21 18.4062 7.758 17.9622L16.155 9.3122C16.8 8.4852 17.122 7.5122 17.122 6.3692C17.122 4.8872 16.545 3.6852 15.654 2.8412C14.744 1.9792 13.704 1.4712 12.341 1.4012C11.333 1.3492 10.276 1.7412 9.224 2.5472L3.264 8.5792Z" fill="#71717A"/>
</g>
<defs>
<clipPath id="clip0_3354_33964">
<rect width="20" height="20" fill="white"/>
</clipPath>
</defs>
</svg>
