<svg width="38" height="38" viewBox="0 0 38 38" fill="none" xmlns="http://www.w3.org/2000/svg">
<circle cx="19" cy="19" r="19" fill="#F4F4F5"/>
<g clip-path="url(#clip0_1115_16481)">
<path d="M26 10H12C10.9 10 10 10.9 10 12V26C10 27.1 10.9 28 12 28H26C27.1 28 28 27.1 28 26V12C28 10.9 27.1 10 26 10ZM17.71 23.29C17.32 23.68 16.69 23.68 16.3 23.29L12.71 19.7C12.32 19.31 12.32 18.68 12.71 18.29C13.1 17.9 13.73 17.9 14.12 18.29L17 21.17L23.88 14.29C24.27 13.9 24.9 13.9 25.29 14.29C25.68 14.68 25.68 15.31 25.29 15.7L17.71 23.29Z" fill="black"/>
</g>
<defs>
<clipPath id="clip0_1115_16481">
<rect width="24" height="24" fill="white" transform="translate(7 7)"/>
</clipPath>
</defs>
</svg>
