<svg width="20" height="20" viewBox="0 0 20 20" fill="none" xmlns="http://www.w3.org/2000/svg">
<path d="M4.99935 11.668H11.666V10.0013H4.99935V11.668ZM4.99935 9.16797H14.9994V7.5013H4.99935V9.16797ZM4.99935 6.66797H14.9994V5.0013H4.99935V6.66797ZM1.66602 18.3346V3.33464C1.66602 2.8763 1.82935 2.4838 2.15602 2.15714C2.48268 1.83047 2.8749 1.66741 3.33268 1.66797H16.666C17.1244 1.66797 17.5169 1.8313 17.8435 2.15797C18.1702 2.48464 18.3332 2.87686 18.3327 3.33464V13.3346C18.3327 13.793 18.1694 14.1855 17.8427 14.5121C17.516 14.8388 17.1238 15.0019 16.666 15.0013H4.99935L1.66602 18.3346Z" fill="white"/>
</svg>
