<svg width="24" height="24" viewBox="0 0 24 24" fill="none" xmlns="http://www.w3.org/2000/svg">
<path fill-rule="evenodd" clip-rule="evenodd" d="M9.31029 2.97631C9.93542 2.35119 10.7833 2 11.6673 2C12.5514 2 13.3992 2.35119 14.0243 2.97631C14.6495 3.60143 15.0007 4.44928 15.0007 5.33333V12C15.0007 12.8841 14.6495 13.7319 14.0243 14.357C13.3992 14.9821 12.5514 15.3333 11.6673 15.3333C10.7833 15.3333 9.93542 14.9821 9.31029 14.357C8.68517 13.7319 8.33398 12.8841 8.33398 12V5.33333C8.33398 4.44928 8.68517 3.60143 9.31029 2.97631ZM11.6673 3.66667C11.2253 3.66667 10.8014 3.84226 10.4888 4.15482C10.1762 4.46738 10.0007 4.89131 10.0007 5.33333V12C10.0007 12.442 10.1762 12.866 10.4888 13.1785C10.8014 13.4911 11.2253 13.6667 11.6673 13.6667C12.1093 13.6667 12.5333 13.4911 12.8458 13.1785C13.1584 12.866 13.334 12.442 13.334 12V5.33333C13.334 4.89131 13.1584 4.46738 12.8458 4.15482C12.5333 3.84226 12.1093 3.66667 11.6673 3.66667Z" fill="white" fill-opacity="0.98"/>
<path fill-rule="evenodd" clip-rule="evenodd" d="M5.83333 9.5C6.29357 9.5 6.66667 9.8731 6.66667 10.3333V12C6.66667 13.3261 7.19345 14.5979 8.13113 15.5355C9.06881 16.4732 10.3406 17 11.6667 17C12.9927 17 14.2645 16.4732 15.2022 15.5355C16.1399 14.5979 16.6667 13.3261 16.6667 12V10.3333C16.6667 9.8731 17.0398 9.5 17.5 9.5C17.9602 9.5 18.3333 9.8731 18.3333 10.3333V12C18.3333 13.7681 17.631 15.4638 16.3807 16.714C15.1305 17.9643 13.4348 18.6667 11.6667 18.6667C9.89856 18.6667 8.20286 17.9643 6.95262 16.714C5.70238 15.4638 5 13.7681 5 12V10.3333C5 9.8731 5.3731 9.5 5.83333 9.5Z" fill="white" fill-opacity="0.98"/>
<path fill-rule="evenodd" clip-rule="evenodd" d="M11.6673 17C12.1276 17 12.5007 17.3731 12.5007 17.8333V21.1667C12.5007 21.6269 12.1276 22 11.6673 22C11.2071 22 10.834 21.6269 10.834 21.1667V17.8333C10.834 17.3731 11.2071 17 11.6673 17Z" fill="white" fill-opacity="0.98"/>
<path fill-rule="evenodd" clip-rule="evenodd" d="M7.5 21.1654C7.5 20.7051 7.8731 20.332 8.33333 20.332H15C15.4602 20.332 15.8333 20.7051 15.8333 21.1654C15.8333 21.6256 15.4602 21.9987 15 21.9987H8.33333C7.8731 21.9987 7.5 21.6256 7.5 21.1654Z" fill="white" fill-opacity="0.98"/>
</svg>
