<svg width="16" height="16" viewBox="0 0 16 16" fill="none" xmlns="http://www.w3.org/2000/svg">
<path d="M7.33398 11.3346H4.66732C3.7451 11.3346 2.9591 11.0095 2.30932 10.3593C1.6591 9.70952 1.33398 8.92352 1.33398 8.0013C1.33398 7.07908 1.6591 6.29286 2.30932 5.64264C2.9591 4.99286 3.7451 4.66797 4.66732 4.66797H7.33398V6.0013H4.66732C4.11176 6.0013 3.63954 6.19575 3.25065 6.58464C2.86176 6.97352 2.66732 7.44575 2.66732 8.0013C2.66732 8.55686 2.86176 9.02908 3.25065 9.41797C3.63954 9.80686 4.11176 10.0013 4.66732 10.0013H7.33398V11.3346ZM5.33398 8.66797V7.33464H10.6673V8.66797H5.33398ZM8.66732 11.3346V10.0013H11.334C11.8895 10.0013 12.3618 9.80686 12.7507 9.41797C13.1395 9.02908 13.334 8.55686 13.334 8.0013C13.334 7.44575 13.1395 6.97352 12.7507 6.58464C12.3618 6.19575 11.8895 6.0013 11.334 6.0013H8.66732V4.66797H11.334C12.2562 4.66797 13.0424 4.99286 13.6927 5.64264C14.3424 6.29286 14.6673 7.07908 14.6673 8.0013C14.6673 8.92352 14.3424 9.70952 13.6927 10.3593C13.0424 11.0095 12.2562 11.3346 11.334 11.3346H8.66732Z" fill="black"/>
</svg>
