<svg width="16" height="16" viewBox="0 0 16 16" fill="none" xmlns="http://www.w3.org/2000/svg">
<path d="M4.5332 12.6654V3.33203H8.21654C8.93876 3.33203 9.60543 3.55425 10.2165 3.9987C10.8276 4.44314 11.1332 5.05981 11.1332 5.8487C11.1332 6.41536 11.0054 6.85137 10.7499 7.1567C10.4943 7.46248 10.2554 7.68203 10.0332 7.81536C10.311 7.93759 10.6194 8.16536 10.9585 8.4987C11.2972 8.83203 11.4665 9.33203 11.4665 9.9987C11.4665 10.9876 11.1054 11.6794 10.3832 12.074C9.66098 12.4683 8.9832 12.6654 8.34987 12.6654H4.5332ZM6.54987 10.7987H8.2832C8.81654 10.7987 9.14143 10.6625 9.25787 10.39C9.37476 10.118 9.4332 9.92092 9.4332 9.7987C9.4332 9.67648 9.37476 9.47914 9.25787 9.2067C9.14143 8.9347 8.79987 8.7987 8.2332 8.7987H6.54987V10.7987ZM6.54987 6.9987H8.09987C8.46654 6.9987 8.7332 6.90425 8.89987 6.71536C9.06654 6.52648 9.14987 6.31536 9.14987 6.08203C9.14987 5.81536 9.05543 5.5987 8.86654 5.43203C8.67765 5.26536 8.4332 5.18203 8.1332 5.18203H6.54987V6.9987Z" fill="black"/>
</svg>
