<svg width="20" height="20" viewBox="0 0 20 20" fill="none" xmlns="http://www.w3.org/2000/svg">
<path d="M16.666 6.66732L9.99935 10.834L3.33268 6.66732V5.00065L9.99935 9.16732L16.666 5.00065M16.666 3.33398H3.33268C2.40768 3.33398 1.66602 4.07565 1.66602 5.00065V15.0007C1.66602 15.4427 1.84161 15.8666 2.15417 16.1792C2.46673 16.4917 2.89065 16.6673 3.33268 16.6673H16.666C17.108 16.6673 17.532 16.4917 17.8445 16.1792C18.1571 15.8666 18.3327 15.4427 18.3327 15.0007V5.00065C18.3327 4.55862 18.1571 4.1347 17.8445 3.82214C17.532 3.50958 17.108 3.33398 16.666 3.33398Z" fill="#F5F5F5"/>
</svg>
