<svg width="21" height="18" viewBox="0 0 21 18" fill="none" xmlns="http://www.w3.org/2000/svg">
<path d="M15.2136 10.74C14.9937 10.9282 14.8927 11.2005 14.9428 11.4675L15.6976 15.1575C15.7613 15.4702 15.6119 15.7868 15.3155 15.9675C15.0251 16.155 14.6388 16.1775 14.3221 16.0275L10.5615 14.295C10.4308 14.2335 10.2856 14.2005 10.137 14.1968H9.9069C9.82709 14.2073 9.74897 14.2297 9.67765 14.2642L5.91623 16.005C5.73028 16.0875 5.51971 16.1168 5.31339 16.0875C4.81073 16.0035 4.47534 15.5805 4.55771 15.1343L5.31339 11.4443C5.36348 11.175 5.26244 10.9012 5.04253 10.71L1.97651 8.085C1.72009 7.86525 1.63093 7.53525 1.7481 7.2375C1.86188 6.9405 2.15227 6.72375 2.50294 6.675L6.72286 6.13425C7.04381 6.105 7.3257 5.9325 7.47004 5.6775L9.32953 2.31C9.37368 2.235 9.43057 2.166 9.49934 2.1075L9.57576 2.055C9.61566 2.016 9.66152 1.98375 9.71246 1.9575L9.80501 1.9275L9.94935 1.875H10.3068C10.6261 1.90425 10.9071 2.073 11.054 2.325L12.9381 5.6775C13.074 5.92275 13.338 6.093 13.6428 6.13425L17.8628 6.675C18.2194 6.72 18.5174 6.9375 18.6354 7.2375C18.7467 7.53825 18.6507 7.86825 18.3892 8.085L15.2136 10.74Z" fill="#FFB800"/>
</svg>
