<svg width="24" height="24" viewBox="0 0 24 24" fill="none" xmlns="http://www.w3.org/2000/svg">
<path d="M21.0006 12.0004C21.0006 12.1993 20.9216 12.3901 20.7809 12.5307C20.6403 12.6714 20.4495 12.7504 20.2506 12.7504H10.5006C10.3017 12.7504 10.1109 12.6714 9.97026 12.5307C9.82961 12.3901 9.75059 12.1993 9.75059 12.0004C9.75059 11.8015 9.82961 11.6107 9.97026 11.4701C10.1109 11.3294 10.3017 11.2504 10.5006 11.2504H20.2506C20.4495 11.2504 20.6403 11.3294 20.7809 11.4701C20.9216 11.6107 21.0006 11.8015 21.0006 12.0004ZM10.5006 6.75042H20.2506C20.4495 6.75042 20.6403 6.6714 20.7809 6.53075C20.9216 6.39009 21.0006 6.19933 21.0006 6.00042C21.0006 5.8015 20.9216 5.61074 20.7809 5.47009C20.6403 5.32943 20.4495 5.25042 20.2506 5.25042H10.5006C10.3017 5.25042 10.1109 5.32943 9.97026 5.47009C9.82961 5.61074 9.75059 5.8015 9.75059 6.00042C9.75059 6.19933 9.82961 6.39009 9.97026 6.53075C10.1109 6.6714 10.3017 6.75042 10.5006 6.75042ZM20.2506 17.2504H3.75059C3.55168 17.2504 3.36091 17.3294 3.22026 17.4701C3.07961 17.6107 3.00059 17.8015 3.00059 18.0004C3.00059 18.1993 3.07961 18.3901 3.22026 18.5307C3.36091 18.6714 3.55168 18.7504 3.75059 18.7504H20.2506C20.4495 18.7504 20.6403 18.6714 20.7809 18.5307C20.9216 18.3901 21.0006 18.1993 21.0006 18.0004C21.0006 17.8015 20.9216 17.6107 20.7809 17.4701C20.6403 17.3294 20.4495 17.2504 20.2506 17.2504ZM3.21996 13.281C3.28962 13.3508 3.37234 13.4061 3.46338 13.4438C3.55443 13.4816 3.65203 13.501 3.75059 13.501C3.84915 13.501 3.94675 13.4816 4.0378 13.4438C4.12884 13.4061 4.21156 13.3508 4.28121 13.281L8.03122 9.53104C8.10095 9.46139 8.15627 9.37867 8.19401 9.28762C8.23175 9.19657 8.25118 9.09898 8.25118 9.00042C8.25118 8.90186 8.23175 8.80426 8.19401 8.71321C8.15627 8.62216 8.10095 8.53945 8.03122 8.46979L4.28121 4.71979C4.14048 4.57906 3.94961 4.5 3.75059 4.5C3.55157 4.5 3.3607 4.57906 3.21996 4.71979C3.07923 4.86052 3.00017 5.05139 3.00017 5.25042C3.00017 5.44944 3.07923 5.64031 3.21996 5.78104L6.44028 9.00042L3.21996 12.2198C3.15023 12.2894 3.09491 12.3722 3.05717 12.4632C3.01943 12.5543 3 12.6519 3 12.7504C3 12.849 3.01943 12.9466 3.05717 13.0376C3.09491 13.1287 3.15023 13.2114 3.21996 13.281Z" fill="black"/>
</svg>
