<svg width="24" height="24" viewBox="0 0 24 24" fill="none" xmlns="http://www.w3.org/2000/svg">
<path fill-rule="evenodd" clip-rule="evenodd" d="M20.5302 7.95255C20.8394 7.61973 21.0077 7.17953 20.9997 6.7247C20.9917 6.26986 20.808 5.83589 20.4873 5.51422C20.1666 5.19255 19.734 5.0083 19.2805 5.00027C18.827 4.99225 18.3882 5.16108 18.0563 5.4712L8.79096 14.7645L5.94366 11.9086C5.61185 11.5985 5.17298 11.4297 4.71951 11.4377C4.26604 11.4457 3.83338 11.63 3.51268 11.9517C3.19197 12.2733 3.00827 12.7073 3.00027 13.1621C2.99227 13.617 3.1606 14.0572 3.46978 14.39L7.55402 18.4865C7.88222 18.8153 8.3271 19 8.79096 19C9.25481 19 9.6997 18.8153 10.0279 18.4865L20.5302 7.95255Z" fill="#EEEEEE"/>
</svg>
