<svg width="21" height="21" viewBox="0 0 21 21" fill="none" xmlns="http://www.w3.org/2000/svg">
<path d="M14.5407 17.4C13.724 18.1917 12.8323 18.0667 11.974 17.6917C11.0657 17.3083 10.2323 17.2917 9.274 17.6917C8.074 18.2083 7.44066 18.0583 6.724 17.4C2.65733 13.2083 3.25733 6.825 7.874 6.59167C8.999 6.65 9.78233 7.20833 10.4407 7.25833C11.424 7.05833 12.3657 6.48333 13.4157 6.55833C14.674 6.65833 15.624 7.15833 16.249 8.05833C13.649 9.61667 14.2657 13.0417 16.649 14C16.174 15.25 15.5573 16.4917 14.5323 17.4083L14.5407 17.4ZM10.3573 6.54167C10.2323 4.68333 11.7407 3.15 13.474 3C13.7157 5.15 11.524 6.75 10.3573 6.54167Z" fill="black"/>
</svg>
