<svg width="21" height="20" viewBox="0 0 21 20" fill="none" xmlns="http://www.w3.org/2000/svg">
<path d="M14.5993 16.9C13.7826 17.6917 12.8909 17.5667 12.0326 17.1917C11.1243 16.8083 10.2909 16.7917 9.33259 17.1917C8.13259 17.7083 7.49926 17.5583 6.78259 16.9C2.71592 12.7083 3.31592 6.325 7.93259 6.09167C9.05759 6.15 9.84092 6.70833 10.4993 6.75833C11.4826 6.55833 12.4243 5.98333 13.4743 6.05833C14.7326 6.15833 15.6826 6.65833 16.3076 7.55833C13.7076 9.11667 14.3243 12.5417 16.7076 13.5C16.2326 14.75 15.6159 15.9917 14.5909 16.9083L14.5993 16.9ZM10.4159 6.04167C10.2909 4.18333 11.7993 2.65 13.5326 2.5C13.7743 4.65 11.5826 6.25 10.4159 6.04167Z" fill="black"/>
</svg>
