<svg width="17" height="16" viewBox="0 0 17 16" fill="none" xmlns="http://www.w3.org/2000/svg">
<path d="M14 2.5H3C2.73478 2.5 2.48043 2.60536 2.29289 2.79289C2.10536 2.98043 2 3.23478 2 3.5V12.5C2 12.7652 2.10536 13.0196 2.29289 13.2071C2.48043 13.3946 2.73478 13.5 3 13.5H14C14.2652 13.5 14.5196 13.3946 14.7071 13.2071C14.8946 13.0196 15 12.7652 15 12.5V3.5C15 3.23478 14.8946 2.98043 14.7071 2.79289C14.5196 2.60536 14.2652 2.5 14 2.5ZM14 3.5V9.92188L12.3706 8.29313C12.2778 8.20024 12.1675 8.12656 12.0462 8.07629C11.9248 8.02602 11.7948 8.00015 11.6634 8.00015C11.5321 8.00015 11.402 8.02602 11.2807 8.07629C11.1594 8.12656 11.0491 8.20024 10.9563 8.29313L9.70625 9.54313L6.95625 6.79313C6.76873 6.60573 6.51448 6.50046 6.24937 6.50046C5.98427 6.50046 5.73002 6.60573 5.5425 6.79313L3 9.33562V3.5H14ZM3 10.75L6.25 7.5L11.25 12.5H3V10.75ZM14 12.5H12.6644L10.4144 10.25L11.6644 9L14 11.3363V12.5ZM9.5 6.25C9.5 6.10166 9.54399 5.95666 9.6264 5.83332C9.70881 5.70999 9.82594 5.61386 9.96299 5.55709C10.1 5.50032 10.2508 5.48547 10.3963 5.51441C10.5418 5.54335 10.6754 5.61478 10.7803 5.71967C10.8852 5.82456 10.9566 5.9582 10.9856 6.10368C11.0145 6.24917 10.9997 6.39997 10.9429 6.53701C10.8861 6.67406 10.79 6.79119 10.6667 6.8736C10.5433 6.95601 10.3983 7 10.25 7C10.0511 7 9.86032 6.92098 9.71967 6.78033C9.57902 6.63968 9.5 6.44891 9.5 6.25Z" fill="#A1A1AA"/>
</svg>
