<svg width="30" height="30" viewBox="0 0 30 30" fill="none" xmlns="http://www.w3.org/2000/svg">
<path d="M25.3125 5.625H4.6875C4.43886 5.625 4.2004 5.72377 4.02459 5.89959C3.84877 6.0754 3.75 6.31386 3.75 6.5625V24.375C3.75 24.8723 3.94754 25.3492 4.29917 25.7008C4.65081 26.0525 5.12772 26.25 5.625 26.25H10.3125C10.8098 26.25 11.2867 26.0525 11.6383 25.7008C11.99 25.3492 12.1875 24.8723 12.1875 24.375V18.75H17.8125V20.625C17.8125 21.1223 18.01 21.5992 18.3617 21.9508C18.7133 22.3025 19.1902 22.5 19.6875 22.5H24.375C24.8723 22.5 25.3492 22.3025 25.7008 21.9508C26.0525 21.5992 26.25 21.1223 26.25 20.625V6.5625C26.25 6.31386 26.1512 6.0754 25.9754 5.89959C25.7996 5.72377 25.5611 5.625 25.3125 5.625ZM10.3125 24.375H5.625V15H10.3125V24.375ZM10.3125 13.125H5.625V7.5H10.3125V13.125ZM17.8125 16.875H12.1875V7.5H17.8125V16.875ZM24.375 20.625H19.6875V15H24.375V20.625ZM24.375 13.125H19.6875V7.5H24.375V13.125Z" fill="black"/>
</svg>
