<svg width="25" height="24" viewBox="0 0 25 24" fill="none" xmlns="http://www.w3.org/2000/svg">
<path d="M12.5 18.5C10.6992 18.5 9.17642 17.8693 7.90355 16.5964C6.63069 15.3236 6 13.8008 6 12C6 10.1992 6.63069 8.67642 7.90355 7.40355C9.17642 6.13069 10.6992 5.5 12.5 5.5C14.3008 5.5 15.8236 6.13069 17.0964 7.40355C18.3693 8.67642 19 10.1992 19 12C19 13.8008 18.3693 15.3236 17.0964 16.5964C15.8236 17.8693 14.3008 18.5 12.5 18.5ZM16.3917 8.10857L16.3914 8.10833C15.322 7.03962 14.0154 6.5 12.5 6.5C10.9846 6.5 9.67826 7.03963 8.60945 8.10845C7.54004 9.17785 7 10.4845 7 12C7 13.5154 7.53997 14.8217 8.60933 15.8904C9.67811 16.96 10.9845 17.5 12.5 17.5C14.0155 17.5 15.3221 16.96 16.3916 15.8906C17.4604 14.8217 18 13.5154 18 12C18 10.4846 17.4604 9.178 16.3917 8.10857Z" fill="black" stroke="#E0E0E0"/>
</svg>
