<svg width="25" height="25" viewBox="0 0 25 25" fill="none" xmlns="http://www.w3.org/2000/svg">
<path d="M12.5 19C10.6992 19 9.17642 18.3693 7.90355 17.0964C6.63069 15.8236 6 14.3008 6 12.5C6 10.6992 6.63069 9.17642 7.90355 7.90355C9.17642 6.63069 10.6992 6 12.5 6C14.3008 6 15.8236 6.63069 17.0964 7.90355C18.3693 9.17642 19 10.6992 19 12.5C19 14.3008 18.3693 15.8236 17.0964 17.0964C15.8236 18.3693 14.3008 19 12.5 19ZM16.3917 8.60857L16.3914 8.60833C15.322 7.53962 14.0154 7 12.5 7C10.9846 7 9.67826 7.53963 8.60945 8.60845C7.54004 9.67785 7 10.9845 7 12.5C7 14.0154 7.53997 15.3217 8.60933 16.3904C9.67811 17.46 10.9845 18 12.5 18C14.0155 18 15.3221 17.46 16.3916 16.3906C17.4604 15.3217 18 14.0154 18 12.5C18 10.9846 17.4604 9.678 16.3917 8.60857Z" fill="black" stroke="#E0E0E0"/>
</svg>
