<svg width="45" height="45" viewBox="0 0 45 45" fill="none" xmlns="http://www.w3.org/2000/svg">
<path d="M30.9377 40.7818C30.9377 41.1548 30.7896 41.5125 30.5259 41.7762C30.2621 42.0399 29.9044 42.1881 29.5315 42.1881H15.469C15.096 42.1881 14.7383 42.0399 14.4746 41.7762C14.2109 41.5125 14.0627 41.1548 14.0627 40.7818C14.0627 40.4089 14.2109 40.0512 14.4746 39.7875C14.7383 39.5237 15.096 39.3756 15.469 39.3756H29.5315C29.9044 39.3756 30.2621 39.5237 30.5259 39.7875C30.7896 40.0512 30.9377 40.4089 30.9377 40.7818ZM37.969 18.2818C37.975 20.6261 37.4455 22.9408 36.4206 25.0493C35.3958 27.1577 33.9029 29.0041 32.0557 30.4477C31.7103 30.7124 31.43 31.0526 31.2363 31.4423C31.0425 31.8319 30.9404 32.2607 30.9377 32.6959V33.7506C30.9377 34.4965 30.6414 35.2119 30.114 35.7393C29.5865 36.2668 28.8712 36.5631 28.1252 36.5631H16.8752C16.1293 36.5631 15.4139 36.2668 14.8865 35.7393C14.359 35.2119 14.0627 34.4965 14.0627 33.7506V32.6959C14.0624 32.2659 13.9636 31.8418 13.7737 31.456C13.5839 31.0702 13.3081 30.7331 12.9676 30.4705C11.1253 29.0357 9.6335 27.2006 8.60507 25.1042C7.57664 23.0077 7.03854 20.7048 7.03148 18.3697C6.98578 9.99023 13.7569 3.01523 22.1276 2.81308C24.1901 2.76338 26.2417 3.12677 28.1617 3.88186C30.0817 4.63696 31.8312 5.7685 33.3073 7.20988C34.7834 8.65127 35.9563 10.3734 36.7569 12.2748C37.5575 14.1763 37.9696 16.2187 37.969 18.2818ZM35.1565 18.2818C35.157 16.5937 34.8198 14.9226 34.1647 13.3668C33.5096 11.811 32.5499 10.4019 31.3421 9.22262C30.1342 8.04329 28.7027 7.1175 27.1317 6.49976C25.5607 5.88201 23.882 5.58479 22.1944 5.62558C15.3389 5.7873 9.80707 11.4949 9.84398 18.3504C9.85027 20.2604 10.291 22.144 11.1327 23.8586C11.9745 25.5731 13.1952 27.0738 14.7026 28.2469C15.3801 28.7736 15.9281 29.4483 16.3047 30.2195C16.6813 30.9906 16.8765 31.8377 16.8752 32.6959V33.7506H21.094V25.8949L15.8803 20.683C15.6164 20.4191 15.4682 20.0613 15.4682 19.6881C15.4682 19.3149 15.6164 18.957 15.8803 18.6932C16.1442 18.4293 16.5021 18.2811 16.8752 18.2811C17.2484 18.2811 17.6063 18.4293 17.8702 18.6932L22.5002 23.325L27.1303 18.6932C27.261 18.5625 27.4161 18.4589 27.5868 18.3882C27.7575 18.3174 27.9405 18.2811 28.1252 18.2811C28.31 18.2811 28.493 18.3174 28.6637 18.3882C28.8344 18.4589 28.9895 18.5625 29.1202 18.6932C29.2508 18.8238 29.3544 18.9789 29.4252 19.1496C29.4959 19.3203 29.5323 19.5033 29.5323 19.6881C29.5323 19.8729 29.4959 20.0558 29.4252 20.2265C29.3544 20.3972 29.2508 20.5524 29.1202 20.683L23.9065 25.8949V33.7506H28.1252V32.6959C28.1268 31.8352 28.3251 30.9863 28.705 30.2139C29.0849 29.4416 29.6364 28.7664 30.3172 28.2398C31.8291 27.0583 33.051 25.5469 33.8897 23.8211C34.7284 22.0953 35.1617 20.2006 35.1565 18.2818Z" fill="black"/>
</svg>
