<svg width="46" height="45" viewBox="0 0 46 45" fill="none" xmlns="http://www.w3.org/2000/svg">
<path d="M31.4377 40.7818C31.4377 41.1548 31.2896 41.5125 31.0259 41.7762C30.7621 42.0399 30.4044 42.1881 30.0315 42.1881H15.969C15.596 42.1881 15.2383 42.0399 14.9746 41.7762C14.7109 41.5125 14.5627 41.1548 14.5627 40.7818C14.5627 40.4089 14.7109 40.0512 14.9746 39.7875C15.2383 39.5237 15.596 39.3756 15.969 39.3756H30.0315C30.4044 39.3756 30.7621 39.5237 31.0259 39.7875C31.2896 40.0512 31.4377 40.4089 31.4377 40.7818ZM38.469 18.2818C38.475 20.6261 37.9455 22.9408 36.9206 25.0493C35.8958 27.1577 34.4029 29.0041 32.5557 30.4477C32.2103 30.7124 31.93 31.0526 31.7363 31.4423C31.5425 31.8319 31.4404 32.2607 31.4377 32.6959V33.7506C31.4377 34.4965 31.1414 35.2119 30.614 35.7393C30.0865 36.2668 29.3712 36.5631 28.6252 36.5631H17.3752C16.6293 36.5631 15.9139 36.2668 15.3865 35.7393C14.859 35.2119 14.5627 34.4965 14.5627 33.7506V32.6959C14.5624 32.2659 14.4636 31.8418 14.2737 31.456C14.0839 31.0702 13.8081 30.7331 13.4676 30.4705C11.6253 29.0357 10.1335 27.2006 9.10507 25.1042C8.07664 23.0077 7.53854 20.7048 7.53148 18.3697C7.48578 9.99023 14.2569 3.01523 22.6276 2.81308C24.6901 2.76338 26.7417 3.12677 28.6617 3.88186C30.5817 4.63696 32.3312 5.7685 33.8073 7.20988C35.2834 8.65127 36.4563 10.3734 37.2569 12.2748C38.0575 14.1763 38.4696 16.2187 38.469 18.2818ZM35.6565 18.2818C35.657 16.5937 35.3198 14.9226 34.6647 13.3668C34.0096 11.811 33.0499 10.4019 31.8421 9.22262C30.6342 8.04329 29.2027 7.1175 27.6317 6.49976C26.0607 5.88201 24.382 5.58479 22.6944 5.62558C15.8389 5.7873 10.3071 11.4949 10.344 18.3504C10.3503 20.2604 10.791 22.144 11.6327 23.8586C12.4745 25.5731 13.6952 27.0738 15.2026 28.2469C15.8801 28.7736 16.4281 29.4483 16.8047 30.2195C17.1813 30.9906 17.3765 31.8377 17.3752 32.6959V33.7506H21.594V25.8949L16.3803 20.683C16.1164 20.4191 15.9682 20.0613 15.9682 19.6881C15.9682 19.3149 16.1164 18.957 16.3803 18.6932C16.6442 18.4293 17.0021 18.2811 17.3752 18.2811C17.7484 18.2811 18.1063 18.4293 18.3702 18.6932L23.0002 23.325L27.6303 18.6932C27.761 18.5625 27.9161 18.4589 28.0868 18.3882C28.2575 18.3174 28.4405 18.2811 28.6252 18.2811C28.81 18.2811 28.993 18.3174 29.1637 18.3882C29.3344 18.4589 29.4895 18.5625 29.6202 18.6932C29.7508 18.8238 29.8544 18.9789 29.9252 19.1496C29.9959 19.3203 30.0323 19.5033 30.0323 19.6881C30.0323 19.8729 29.9959 20.0558 29.9252 20.2265C29.8544 20.3972 29.7508 20.5524 29.6202 20.683L24.4065 25.8949V33.7506H28.6252V32.6959C28.6268 31.8352 28.8251 30.9863 29.205 30.2139C29.5849 29.4416 30.1364 28.7664 30.8172 28.2398C32.3291 27.0583 33.551 25.5469 34.3897 23.8211C35.2284 22.0953 35.6617 20.2006 35.6565 18.2818Z" fill="black"/>
</svg>
