<svg width="24" height="25" viewBox="0 0 24 25" fill="none" xmlns="http://www.w3.org/2000/svg">
<path d="M12 11C11.3696 11.0002 10.7604 11.2273 10.2836 11.6397C9.80684 12.052 9.4944 12.6222 9.40339 13.246C9.31238 13.8698 9.44887 14.5055 9.78793 15.0369C10.127 15.5683 10.646 15.96 11.25 16.1403V17.75C11.25 17.9489 11.329 18.1397 11.4697 18.2803C11.6103 18.421 11.8011 18.5 12 18.5C12.1989 18.5 12.3897 18.421 12.5303 18.2803C12.671 18.1397 12.75 17.9489 12.75 17.75V16.1403C13.354 15.96 13.873 15.5683 14.2121 15.0369C14.5511 14.5055 14.6876 13.8698 14.5966 13.246C14.5056 12.6222 14.1932 12.052 13.7164 11.6397C13.2396 11.2273 12.6304 11.0002 12 11ZM12 14.75C11.7775 14.75 11.56 14.684 11.375 14.5604C11.19 14.4368 11.0458 14.2611 10.9606 14.0555C10.8755 13.85 10.8532 13.6238 10.8966 13.4055C10.94 13.1873 11.0472 12.9868 11.2045 12.8295C11.3618 12.6722 11.5623 12.565 11.7805 12.5216C11.9988 12.4782 12.225 12.5005 12.4305 12.5856C12.6361 12.6708 12.8118 12.815 12.9354 13C13.059 13.185 13.125 13.4025 13.125 13.625C13.125 13.9234 13.0065 14.2095 12.7955 14.4205C12.5845 14.6315 12.2984 14.75 12 14.75ZM19.5 8H16.5V5.75C16.5 4.55653 16.0259 3.41193 15.182 2.56802C14.3381 1.72411 13.1935 1.25 12 1.25C10.8065 1.25 9.66193 1.72411 8.81802 2.56802C7.97411 3.41193 7.5 4.55653 7.5 5.75V8H4.5C4.10218 8 3.72064 8.15804 3.43934 8.43934C3.15804 8.72064 3 9.10218 3 9.5V20C3 20.3978 3.15804 20.7794 3.43934 21.0607C3.72064 21.342 4.10218 21.5 4.5 21.5H19.5C19.8978 21.5 20.2794 21.342 20.5607 21.0607C20.842 20.7794 21 20.3978 21 20V9.5C21 9.10218 20.842 8.72064 20.5607 8.43934C20.2794 8.15804 19.8978 8 19.5 8ZM9 5.75C9 4.95435 9.31607 4.19129 9.87868 3.62868C10.4413 3.06607 11.2044 2.75 12 2.75C12.7956 2.75 13.5587 3.06607 14.1213 3.62868C14.6839 4.19129 15 4.95435 15 5.75V8H9V5.75ZM19.5 20H4.5V9.5H19.5V20Z" fill="black"/>
</svg>
