<svg width="16" height="17" viewBox="0 0 16 17" fill="none" xmlns="http://www.w3.org/2000/svg">
<path d="M14.3539 14.1444L11.2245 11.0157C12.1315 9.92676 12.5838 8.53006 12.4873 7.11615C12.3908 5.70224 11.7528 4.37997 10.7062 3.42442C9.65963 2.46887 8.28492 1.9536 6.86808 1.9858C5.45125 2.018 4.10137 2.59519 3.09926 3.5973C2.09714 4.59942 1.51995 5.9493 1.48775 7.36613C1.45555 8.78297 1.97082 10.1577 2.92637 11.2043C3.88193 12.2509 5.20419 12.8888 6.6181 12.9853C8.03201 13.0819 9.42871 12.6296 10.5176 11.7226L13.6464 14.8519C13.6928 14.8984 13.748 14.9352 13.8087 14.9604C13.8694 14.9855 13.9344 14.9985 14.0001 14.9985C14.0658 14.9985 14.1309 14.9855 14.1916 14.9604C14.2523 14.9352 14.3074 14.8984 14.3539 14.8519C14.4003 14.8055 14.4372 14.7503 14.4623 14.6896C14.4875 14.6289 14.5004 14.5639 14.5004 14.4982C14.5004 14.4325 14.4875 14.3674 14.4623 14.3067C14.4372 14.246 14.4003 14.1909 14.3539 14.1444ZM2.50014 7.49819C2.50014 6.60817 2.76406 5.73814 3.25853 4.99812C3.753 4.2581 4.4558 3.68133 5.27807 3.34073C6.10033 3.00014 7.00513 2.91102 7.87805 3.08466C8.75096 3.25829 9.55279 3.68687 10.1821 4.31621C10.8115 4.94555 11.24 5.74737 11.4137 6.62028C11.5873 7.4932 11.4982 8.398 11.1576 9.22026C10.817 10.0425 10.2402 10.7453 9.50021 11.2398C8.76019 11.7343 7.89016 11.9982 7.00014 11.9982C5.80707 11.9969 4.66325 11.5223 3.81962 10.6787C2.976 9.83508 2.50147 8.69126 2.50014 7.49819Z" fill="black"/>
</svg>
