<svg width="45" height="45" viewBox="0 0 45 45" fill="none" xmlns="http://www.w3.org/2000/svg">
<path d="M40.3697 38.3799L31.5683 29.5803C34.1193 26.5176 35.3914 22.5894 35.1199 18.6128C34.8484 14.6362 33.0542 10.9173 30.1107 8.22982C27.1671 5.54233 23.3007 4.09313 19.3159 4.18369C15.331 4.27425 11.5345 5.8976 8.71605 8.71605C5.8976 11.5345 4.27425 15.331 4.18369 19.3159C4.09313 23.3007 5.54233 27.1671 8.22982 30.1107C10.9173 33.0542 14.6362 34.8484 18.6128 35.1199C22.5894 35.3914 26.5176 34.1193 29.5803 31.5683L38.3799 40.3697C38.5105 40.5004 38.6656 40.604 38.8363 40.6747C39.0071 40.7454 39.19 40.7818 39.3748 40.7818C39.5596 40.7818 39.7425 40.7454 39.9132 40.6747C40.084 40.604 40.2391 40.5004 40.3697 40.3697C40.5004 40.2391 40.604 40.084 40.6747 39.9132C40.7454 39.7425 40.7818 39.5596 40.7818 39.3748C40.7818 39.19 40.7454 39.0071 40.6747 38.8363C40.604 38.6656 40.5004 38.5105 40.3697 38.3799ZM7.03104 19.6873C7.03104 17.1841 7.77332 14.7372 9.164 12.6559C10.5547 10.5745 12.5313 8.95236 14.844 7.99444C17.1566 7.03652 19.7013 6.78588 22.1564 7.27423C24.6115 7.76257 26.8666 8.96796 28.6366 10.738C30.4066 12.508 31.612 14.7631 32.1004 17.2182C32.5887 19.6733 32.3381 22.218 31.3801 24.5306C30.4222 26.8433 28.8 28.8199 26.7187 30.2106C24.6374 31.6013 22.1905 32.3435 19.6873 32.3435C16.3318 32.3398 13.1148 31.0052 10.7421 28.6325C8.36938 26.2598 7.03476 23.0428 7.03104 19.6873Z" fill="black"/>
</svg>
