<svg width="24" height="24" viewBox="0 0 24 24" fill="none" xmlns="http://www.w3.org/2000/svg">
<path d="M21.5299 20.4706L16.8358 15.7774C18.1963 14.144 18.8748 12.049 18.73 9.92813C18.5852 7.80726 17.6283 5.82387 16.0584 4.39054C14.4885 2.95721 12.4264 2.1843 10.3012 2.2326C8.1759 2.2809 6.15108 3.14669 4.64791 4.64986C3.14474 6.15303 2.27895 8.17785 2.23065 10.3031C2.18235 12.4284 2.95526 14.4904 4.38859 16.0603C5.82191 17.6302 7.80531 18.5871 9.92618 18.7319C12.047 18.8767 14.1421 18.1983 15.7755 16.8378L20.4686 21.5318C20.5383 21.6015 20.621 21.6568 20.7121 21.6945C20.8031 21.7322 20.9007 21.7516 20.9992 21.7516C21.0978 21.7516 21.1954 21.7322 21.2864 21.6945C21.3775 21.6568 21.4602 21.6015 21.5299 21.5318C21.5995 21.4621 21.6548 21.3794 21.6925 21.2884C21.7302 21.1973 21.7497 21.0997 21.7497 21.0012C21.7497 20.9026 21.7302 20.8051 21.6925 20.714C21.6548 20.623 21.5995 20.5403 21.5299 20.4706ZM3.74924 10.5012C3.74924 9.16617 4.14512 7.86112 4.88682 6.75109C5.62852 5.64106 6.68272 4.7759 7.91612 4.265C9.14953 3.75411 10.5067 3.62044 11.8161 3.88089C13.1255 4.14134 14.3282 4.78422 15.2722 5.72822C16.2162 6.67222 16.8591 7.87496 17.1195 9.18433C17.38 10.4937 17.2463 11.8509 16.7354 13.0843C16.2245 14.3177 15.3594 15.3719 14.2493 16.1136C13.1393 16.8553 11.8343 17.2512 10.4992 17.2512C8.70964 17.2492 6.9939 16.5374 5.72846 15.272C4.46302 14.0065 3.75122 12.2908 3.74924 10.5012Z" fill="#A1A1AA"/>
</svg>
