<svg width="37" height="36" viewBox="0 0 37 36" fill="none" xmlns="http://www.w3.org/2000/svg">
<path d="M11.75 18V9C11.75 7.20979 12.4612 5.4929 13.727 4.22703C14.9929 2.96116 16.7098 2.25 18.5 2.25C20.2902 2.25 22.0071 2.96116 23.273 4.22703C24.5388 5.4929 25.25 7.20979 25.25 9V18C25.25 19.7902 24.5388 21.5071 23.273 22.773C22.0071 24.0388 20.2902 24.75 18.5 24.75C16.7098 24.75 14.9929 24.0388 13.727 22.773C12.4612 21.5071 11.75 19.7902 11.75 18ZM29.75 18C29.75 17.7016 29.6315 17.4155 29.4205 17.2045C29.2095 16.9935 28.9234 16.875 28.625 16.875C28.3266 16.875 28.0405 16.9935 27.8295 17.2045C27.6185 17.4155 27.5 17.7016 27.5 18C27.5 20.3869 26.5518 22.6761 24.864 24.364C23.1761 26.0518 20.8869 27 18.5 27C16.1131 27 13.8239 26.0518 12.136 24.364C10.4482 22.6761 9.5 20.3869 9.5 18C9.5 17.7016 9.38147 17.4155 9.17049 17.2045C8.95952 16.9935 8.67337 16.875 8.375 16.875C8.07663 16.875 7.79048 16.9935 7.57951 17.2045C7.36853 17.4155 7.25 17.7016 7.25 18C7.25343 20.788 8.29051 23.4756 10.1607 25.5432C12.0309 27.6108 14.6014 28.9115 17.375 29.1938V32.625C17.375 32.9234 17.4935 33.2095 17.7045 33.4205C17.9155 33.6315 18.2016 33.75 18.5 33.75C18.7984 33.75 19.0845 33.6315 19.2955 33.4205C19.5065 33.2095 19.625 32.9234 19.625 32.625V29.1938C22.3986 28.9115 24.9691 27.6108 26.8393 25.5432C28.7095 23.4756 29.7466 20.788 29.75 18Z" fill="black"/>
</svg>
