<svg width="24" height="24" viewBox="0 0 24 24" fill="none" xmlns="http://www.w3.org/2000/svg">
<path d="M20.0552 19.7455L5.05519 3.24554C4.98932 3.1713 4.90938 3.11086 4.81999 3.06774C4.7306 3.02462 4.63354 2.99968 4.53443 2.99434C4.43533 2.98901 4.33615 3.0034 4.24265 3.03668C4.14915 3.06996 4.06318 3.12147 3.98973 3.18822C3.91628 3.25497 3.85681 3.33563 3.81477 3.42554C3.77272 3.51544 3.74894 3.61279 3.74479 3.71195C3.74065 3.81111 3.75623 3.91011 3.79063 4.00321C3.82503 4.0963 3.87756 4.18165 3.94519 4.25429L7.50019 8.1646V11.9999C7.5003 12.8076 7.71776 13.6003 8.12977 14.2949C8.54178 14.9896 9.13315 15.5606 9.84184 15.9479C10.5505 16.3353 11.3504 16.5248 12.1575 16.4966C12.9647 16.4683 13.7494 16.2234 14.4293 15.7874L15.4493 16.9124C14.5502 17.544 13.4951 17.9166 12.3988 17.9896C11.3026 18.0626 10.2073 17.8332 9.23252 17.3264C8.25771 16.8196 7.44077 16.0548 6.87078 15.1156C6.3008 14.1763 5.99965 13.0986 6.00019 11.9999C6.00019 11.801 5.92117 11.6102 5.78052 11.4696C5.63987 11.3289 5.4491 11.2499 5.25019 11.2499C5.05128 11.2499 4.86051 11.3289 4.71986 11.4696C4.57921 11.6102 4.50019 11.801 4.50019 11.9999C4.50247 13.8585 5.19387 15.6503 6.44067 17.0287C7.68747 18.4071 9.4011 19.2743 11.2502 19.4624V21.7499C11.2502 21.9488 11.3292 22.1396 11.4699 22.2802C11.6105 22.4209 11.8013 22.4999 12.0002 22.4999C12.1991 22.4999 12.3899 22.4209 12.5305 22.2802C12.6712 22.1396 12.7502 21.9488 12.7502 21.7499V19.4615C14.0953 19.3277 15.379 18.8316 16.4646 18.0262L18.9452 20.7543C19.0111 20.8285 19.091 20.889 19.1804 20.9321C19.2698 20.9752 19.3668 21.0002 19.4659 21.0055C19.5651 21.0108 19.6642 20.9964 19.7577 20.9631C19.8512 20.9299 19.9372 20.8784 20.0106 20.8116C20.0841 20.7449 20.1436 20.6642 20.1856 20.5743C20.2277 20.4844 20.2514 20.387 20.2556 20.2879C20.2597 20.1887 20.2441 20.0897 20.2097 19.9966C20.1753 19.9035 20.1228 19.8182 20.0552 19.7455ZM12.0002 14.9999C11.2045 14.9999 10.4415 14.6838 9.87887 14.1212C9.31626 13.5586 9.00019 12.7956 9.00019 11.9999V9.8146L13.3989 14.654C12.9677 14.8812 12.4876 14.9999 12.0002 14.9999ZM8.17144 3.63554C8.68594 2.80242 9.45814 2.15984 10.3709 1.80531C11.2836 1.45078 12.2871 1.40365 13.2291 1.67105C14.1711 1.93846 15.0001 2.50582 15.5904 3.28704C16.1808 4.06827 16.5002 5.02073 16.5002 5.99992V11.6652C16.5002 11.8641 16.4212 12.0549 16.2805 12.1956C16.1399 12.3362 15.9491 12.4152 15.7502 12.4152C15.5513 12.4152 15.3605 12.3362 15.2199 12.1956C15.0792 12.0549 15.0002 11.8641 15.0002 11.6652V5.99992C15.0005 5.34677 14.7877 4.71136 14.3941 4.19017C14.0005 3.66898 13.4475 3.2905 12.8191 3.1122C12.1908 2.93391 11.5214 2.96554 10.9127 3.20229C10.304 3.43905 9.78918 3.86799 9.44644 4.42398C9.3965 4.51142 9.32947 4.58791 9.24933 4.64888C9.1692 4.70986 9.0776 4.75407 8.98002 4.77889C8.88243 4.80371 8.78084 4.80862 8.68131 4.79333C8.58178 4.77805 8.48635 4.74287 8.40071 4.68991C8.31507 4.63695 8.24097 4.56729 8.18283 4.48508C8.12468 4.40286 8.08369 4.30978 8.0623 4.21139C8.0409 4.11299 8.03954 4.01129 8.05829 3.91236C8.07704 3.81343 8.11552 3.71928 8.17144 3.63554ZM17.5914 14.1815C17.8628 13.4862 18.0014 12.7463 18.0002 11.9999C18.0002 11.801 18.0792 11.6102 18.2199 11.4696C18.3605 11.3289 18.5513 11.2499 18.7502 11.2499C18.9491 11.2499 19.1399 11.3289 19.2805 11.4696C19.4212 11.6102 19.5002 11.801 19.5002 11.9999C19.5015 12.933 19.3279 13.858 18.9883 14.7271C18.954 14.8209 18.9013 14.9068 18.8333 14.9799C18.7653 15.0531 18.6834 15.1119 18.5924 15.1529C18.5014 15.194 18.4031 15.2165 18.3033 15.219C18.2035 15.2216 18.1042 15.2042 18.0112 15.1679C17.9182 15.1315 17.8333 15.077 17.7617 15.0075C17.69 14.9379 17.633 14.8548 17.5939 14.7629C17.5548 14.671 17.5345 14.5723 17.534 14.4724C17.5336 14.3726 17.5531 14.2737 17.5914 14.1815Z" fill="white"/>
</svg>
