<svg width="48" height="48" viewBox="0 0 48 48" fill="none" xmlns="http://www.w3.org/2000/svg">
<path d="M30.062 27.4613C29.5263 26.9837 29.0572 26.4362 28.6675 25.8335C28.2421 25.0016 27.9871 24.0931 27.9175 23.1613V20.4169C27.9212 18.9533 27.3903 17.5388 26.4246 16.4391C25.4589 15.3394 24.1248 14.6301 22.6731 14.4447V13.728C22.6731 13.5313 22.595 13.3426 22.4559 13.2036C22.3168 13.0645 22.1281 12.9863 21.9314 12.9863C21.7347 12.9863 21.5461 13.0645 21.407 13.2036C21.2679 13.3426 21.1898 13.5313 21.1898 13.728V14.4558C19.751 14.6546 18.4331 15.3681 17.4801 16.4642C16.527 17.5602 16.0035 18.9645 16.0064 20.4169V23.1613C15.9368 24.0931 15.6819 25.0016 15.2564 25.8335C14.8736 26.4349 14.4121 26.9823 13.8842 27.4613C13.8249 27.5134 13.7774 27.5775 13.7449 27.6493C13.7123 27.7212 13.6954 27.7991 13.6953 27.878V28.6335C13.6953 28.7809 13.7538 28.9222 13.858 29.0264C13.9622 29.1306 14.1035 29.1891 14.2509 29.1891H29.6953C29.8427 29.1891 29.984 29.1306 30.0882 29.0264C30.1923 28.9222 30.2509 28.7809 30.2509 28.6335V27.878C30.2508 27.7991 30.2339 27.7212 30.2013 27.6493C30.1687 27.5775 30.1212 27.5134 30.062 27.4613ZM14.8509 28.078C15.3678 27.5787 15.8229 27.0191 16.2064 26.4113C16.7423 25.4066 17.055 24.298 17.1231 23.1613V20.4169C17.1011 19.7658 17.2103 19.1169 17.4442 18.5089C17.6782 17.9009 18.0321 17.3462 18.4849 16.8778C18.9377 16.4094 19.4801 16.037 20.0799 15.7826C20.6796 15.5282 21.3244 15.3971 21.9759 15.3971C22.6273 15.3971 23.2721 15.5282 23.8719 15.7826C24.4716 16.037 25.014 16.4094 25.4668 16.8778C25.9196 17.3462 26.2736 17.9009 26.5075 18.5089C26.7415 19.1169 26.8507 19.7658 26.8286 20.4169V23.1613C26.8967 24.298 27.2094 25.4066 27.7453 26.4113C28.1289 27.0191 28.584 27.5787 29.1009 28.078H14.8509Z" fill="#A1A1AA"/>
<path d="M22.0006 31.044C22.3506 31.036 22.6864 30.9044 22.9487 30.6726C23.211 30.4408 23.3829 30.1237 23.4339 29.7773H20.5117C20.5642 30.1331 20.7441 30.4576 21.018 30.6906C21.2919 30.9236 21.6411 31.0492 22.0006 31.044Z" fill="#A1A1AA"/>
<path d="M27.3333 19.6667C29.1743 19.6667 30.6667 18.1743 30.6667 16.3333C30.6667 14.4924 29.1743 13 27.3333 13C25.4924 13 24 14.4924 24 16.3333C24 18.1743 25.4924 19.6667 27.3333 19.6667Z" fill="#EB5757"/>
</svg>
