<svg width="49" height="48" viewBox="0 0 49 48" fill="none" xmlns="http://www.w3.org/2000/svg">
<rect x="0.5" width="48" height="48" rx="8" fill="#FFFAF1"/>
<path d="M34.1732 30.5536C33.5303 29.9805 32.9675 29.3235 32.4999 28.6003C31.9894 27.602 31.6834 26.5117 31.5999 25.3936V22.1003C31.6043 20.344 30.9672 18.6466 29.8084 17.3269C28.6495 16.0072 27.0486 15.1562 25.3065 14.9336V14.0736C25.3065 13.8376 25.2128 13.6112 25.0459 13.4443C24.879 13.2774 24.6526 13.1836 24.4165 13.1836C24.1805 13.1836 23.9541 13.2774 23.7872 13.4443C23.6203 13.6112 23.5265 13.8376 23.5265 14.0736V14.9469C21.8 15.1855 20.2185 16.0418 19.0749 17.357C17.9313 18.6722 17.303 20.3574 17.3065 22.1003V25.3936C17.223 26.5117 16.9171 27.602 16.4065 28.6003C15.9471 29.3218 15.3933 29.9788 14.7599 30.5536C14.6888 30.6161 14.6318 30.693 14.5927 30.7792C14.5536 30.8654 14.5333 30.9589 14.5332 31.0536V31.9603C14.5332 32.1371 14.6034 32.3066 14.7285 32.4317C14.8535 32.5567 15.0231 32.6269 15.1999 32.6269H33.7332C33.91 32.6269 34.0796 32.5567 34.2046 32.4317C34.3296 32.3066 34.3999 32.1371 34.3999 31.9603V31.0536C34.3997 30.9589 34.3795 30.8654 34.3404 30.7792C34.3013 30.693 34.2443 30.6161 34.1732 30.5536ZM15.9199 31.2936C16.5401 30.6944 17.0863 30.0229 17.5465 29.2936C18.1896 28.0879 18.5648 26.7576 18.6465 25.3936V22.1003C18.6201 21.319 18.7512 20.5403 19.0319 19.8107C19.3126 19.0811 19.7373 18.4155 20.2807 17.8534C20.8241 17.2913 21.475 16.8444 22.1947 16.5391C22.9144 16.2338 23.6881 16.0765 24.4699 16.0765C25.2516 16.0765 26.0254 16.2338 26.7451 16.5391C27.4648 16.8444 28.1157 17.2913 28.659 17.8534C29.2024 18.4155 29.6271 19.0811 29.9078 19.8107C30.1886 20.5403 30.3196 21.319 30.2932 22.1003V25.3936C30.3749 26.7576 30.7501 28.0879 31.3932 29.2936C31.8535 30.0229 32.3996 30.6944 33.0199 31.2936H15.9199Z" fill="black"/>
<path d="M24.4996 34.852C24.9195 34.8424 25.3225 34.6845 25.6373 34.4063C25.9521 34.1281 26.1583 33.7476 26.2196 33.332H22.7129C22.7759 33.7589 22.9918 34.1484 23.3204 34.428C23.6491 34.7076 24.0681 34.8583 24.4996 34.852Z" fill="black"/>
<path d="M38.8333 12.6667C40.6743 12.6667 42.1667 11.1743 42.1667 9.33333C42.1667 7.49238 40.6743 6 38.8333 6C36.9924 6 35.5 7.49238 35.5 9.33333C35.5 11.1743 36.9924 12.6667 38.8333 12.6667Z" fill="black"/>
</svg>
