<svg width="24" height="25" viewBox="0 0 24 25" fill="none" xmlns="http://www.w3.org/2000/svg">
<g clip-path="url(#clip0_1783_5847)">
<path d="M19.2905 17.54L18.0005 16.25V11.25C18.0005 8.18 16.3605 5.61 13.5005 4.93V4.25C13.5005 3.42 12.8305 2.75 12.0005 2.75C11.1705 2.75 10.5005 3.42 10.5005 4.25V4.93C7.63054 5.61 6.00054 8.17 6.00054 11.25V16.25L4.71054 17.54C4.08054 18.17 4.52054 19.25 5.41054 19.25H18.5805C19.4805 19.25 19.9205 18.17 19.2905 17.54ZM16.0005 17.25H8.00054V11.25C8.00054 8.77 9.51054 6.75 12.0005 6.75C14.4905 6.75 16.0005 8.77 16.0005 11.25V17.25ZM12.0005 22.25C13.1005 22.25 14.0005 21.35 14.0005 20.25H10.0005C10.0005 21.35 10.8905 22.25 12.0005 22.25Z" fill="#A1A1AA"/>
</g>
<defs>
<clipPath id="clip0_1783_5847">
<rect width="24" height="24" fill="white" transform="translate(0 0.25)"/>
</clipPath>
</defs>
</svg>
