<svg width="16" height="16" viewBox="0 0 16 16" fill="none" xmlns="http://www.w3.org/2000/svg">
<path d="M13.1035 7.64644C13.15 7.69288 13.1869 7.74802 13.2121 7.80872C13.2372 7.86942 13.2502 7.93449 13.2502 8.00019C13.2502 8.0659 13.2372 8.13097 13.2121 8.19166C13.1869 8.25236 13.15 8.30751 13.1035 8.35394L7.9754 13.4789C7.31891 14.1354 6.42854 14.5041 5.50018 14.504C4.57182 14.504 3.6815 14.1351 3.02509 13.4786C2.36868 12.8221 1.99994 11.9318 2 11.0034C2.00006 10.075 2.36891 9.18473 3.0254 8.52832L9.22915 2.23332C9.69784 1.76413 10.3337 1.50035 10.9969 1.5C11.6601 1.49965 12.2962 1.76276 12.7654 2.23144C13.2346 2.70013 13.4984 3.33601 13.4987 3.99918C13.4991 4.66236 13.236 5.29851 12.7673 5.76769L6.56227 12.0627C6.28048 12.3445 5.89829 12.5028 5.49977 12.5028C5.10126 12.5028 4.71907 12.3445 4.43727 12.0627C4.15548 11.7809 3.99717 11.3987 3.99717 11.0002C3.99717 10.6017 4.15548 10.2195 4.43727 9.93769L9.64353 4.64894C9.68913 4.60029 9.74401 4.56126 9.80493 4.53413C9.86585 4.50701 9.93158 4.49234 9.99825 4.491C10.0649 4.48966 10.1312 4.50166 10.1931 4.52632C10.2551 4.55097 10.3115 4.58776 10.359 4.63454C10.4066 4.68132 10.4443 4.73713 10.4699 4.79869C10.4955 4.86025 10.5086 4.92632 10.5083 4.993C10.508 5.05969 10.4944 5.12564 10.4683 5.18698C10.4421 5.24833 10.4039 5.30382 10.356 5.35019L5.14915 10.6446C5.10253 10.6908 5.06548 10.7458 5.04011 10.8064C5.01473 10.8669 5.00154 10.9319 5.00128 10.9976C5.00102 11.0632 5.01369 11.1283 5.03858 11.1891C5.06347 11.2499 5.10009 11.3051 5.14634 11.3518C5.19259 11.3984 5.24757 11.4354 5.30814 11.4608C5.36871 11.4862 5.43368 11.4994 5.49935 11.4996C5.56502 11.4999 5.63009 11.4872 5.69086 11.4623C5.75163 11.4374 5.80691 11.4008 5.85353 11.3546L12.0579 5.06269C12.3397 4.78148 12.4982 4.39985 12.4986 4.00174C12.4991 3.60364 12.3413 3.22167 12.0601 2.93988C11.7789 2.65809 11.3972 2.49955 10.9991 2.49914C10.601 2.49873 10.2191 2.65648 9.93728 2.93769L3.73477 9.23019C3.50242 9.46218 3.31803 9.73767 3.19214 10.0409C3.06624 10.3442 3.00131 10.6692 3.00105 10.9976C3.00079 11.3259 3.0652 11.6511 3.19061 11.9545C3.31602 12.258 3.49997 12.5338 3.73196 12.7661C3.96395 12.9985 4.23943 13.1829 4.54268 13.3088C4.84593 13.4347 5.17101 13.4996 5.49935 13.4999C5.82769 13.5001 6.15287 13.4357 6.45632 13.3103C6.75977 13.1849 7.03554 13.0009 7.2679 12.7689L12.3967 7.64394C12.4907 7.55058 12.6181 7.49839 12.7506 7.49886C12.8832 7.49933 13.0101 7.55241 13.1035 7.64644Z" fill="black"/>
</svg>
