<svg width="20" height="20" viewBox="0 0 20 20" fill="none" xmlns="http://www.w3.org/2000/svg">
<path d="M10 1.875C8.39303 1.875 6.82214 2.35152 5.486 3.24431C4.14985 4.1371 3.10844 5.40605 2.49348 6.8907C1.87852 8.37535 1.71762 10.009 2.03112 11.5851C2.34463 13.1612 3.11846 14.6089 4.25476 15.7452C5.39106 16.8815 6.8388 17.6554 8.4149 17.9689C9.99099 18.2824 11.6247 18.1215 13.1093 17.5065C14.594 16.8916 15.8629 15.8502 16.7557 14.514C17.6485 13.1779 18.125 11.607 18.125 10C18.1209 7.84639 17.2635 5.78216 15.7407 4.25932C14.2178 2.73648 12.1536 1.87913 10 1.875ZM12.1875 13.75C12.1875 13.9158 12.1217 14.0747 12.0044 14.1919C11.8872 14.3092 11.7283 14.375 11.5625 14.375C11.3967 14.375 11.2378 14.3092 11.1206 14.1919C11.0034 14.0747 10.9375 13.9158 10.9375 13.75V11.875H7.8125C7.71281 11.8744 7.6147 11.85 7.52636 11.8038C7.43802 11.7576 7.36201 11.6909 7.30469 11.6094C7.24631 11.5278 7.20868 11.4333 7.19507 11.3339C7.18145 11.2345 7.19227 11.1333 7.22657 11.0391L9.10157 5.72656C9.16691 5.58426 9.28328 5.47166 9.42767 5.41106C9.57205 5.35046 9.73392 5.34626 9.88126 5.3993C10.0286 5.45234 10.1506 5.55875 10.2233 5.69748C10.2959 5.83621 10.3138 5.99714 10.2734 6.14844L8.69532 10.625H10.9375V8.75C10.9375 8.58424 11.0034 8.42527 11.1206 8.30806C11.2378 8.19085 11.3967 8.125 11.5625 8.125C11.7283 8.125 11.8872 8.19085 12.0044 8.30806C12.1217 8.42527 12.1875 8.58424 12.1875 8.75V13.75Z" fill="black"/>
</svg>
