<svg width="39" height="39" viewBox="0 0 39 39" fill="none" xmlns="http://www.w3.org/2000/svg">
<path d="M35.7231 16.9222L13.7734 3.4961C13.3131 3.21548 12.7866 3.06202 12.2476 3.05137C11.7086 3.04073 11.1764 3.1733 10.7053 3.43553C10.2343 3.69777 9.8413 4.08028 9.5664 4.54404C9.29151 5.00779 9.14458 5.53618 9.14062 6.07528V32.9274C9.14458 33.4665 9.29151 33.9949 9.5664 34.4586C9.8413 34.9224 10.2343 35.3049 10.7053 35.5671C11.1764 35.8294 11.7086 35.9619 12.2476 35.9513C12.7866 35.9406 13.3131 35.7872 13.7734 35.5066L35.7231 22.0805C36.1657 21.8111 36.5315 21.4323 36.7853 20.9806C37.0392 20.5289 37.1725 20.0195 37.1725 19.5013C37.1725 18.9832 37.0392 18.4738 36.7853 18.0221C36.5315 17.5703 36.1657 17.1916 35.7231 16.9222ZM12.7969 31.8183V7.18434L32.9306 19.5013L12.7969 31.8183Z" fill="black"/>
</svg>
