<svg width="290" height="290" viewBox="0 0 290 290" fill="none" xmlns="http://www.w3.org/2000/svg">
<path d="M231.35 194.856C234.359 196.593 238.225 195.57 239.781 192.463C247.146 177.756 251 161.508 251 145.002C251 128.496 247.146 112.248 239.781 97.5405C238.225 94.4337 234.359 93.4102 231.35 95.1474C228.341 96.8847 227.331 100.724 228.862 103.843C235.136 116.628 238.417 130.705 238.417 145.002C238.417 159.299 235.136 173.376 228.862 186.16C227.331 189.279 228.341 193.119 231.35 194.856Z" fill="black"/>
<path d="M237.241 107.142C240.456 105.822 242.009 102.137 240.501 99.0069C233.87 85.2389 224.329 73.0437 212.509 63.2797C199.07 52.1778 183.1 44.5616 166.014 41.1059C148.928 37.6502 131.254 38.4615 114.556 43.468C97.8589 48.4745 82.654 57.5217 70.2882 69.8081C57.9225 82.0946 48.7777 97.241 43.6639 113.906C38.5501 130.571 37.6251 148.24 40.9709 165.347C44.3167 182.455 51.83 198.473 62.8452 211.984C72.533 223.866 84.6666 233.486 98.3916 240.205C101.512 241.733 105.207 240.204 106.547 236.998C107.887 233.792 106.363 230.126 103.255 228.573C91.4337 222.669 80.9772 214.311 72.5972 204.033C62.8896 192.126 56.2681 178.009 53.3195 162.932C50.3709 147.855 51.1861 132.284 55.6929 117.597C60.1996 102.91 68.2589 89.5619 79.1568 78.7339C90.0546 67.9059 103.455 59.9326 118.17 55.5204C132.885 51.1082 148.462 50.3932 163.52 53.4387C178.577 56.4842 192.651 63.1963 204.495 72.9804C214.72 81.4263 223.009 91.9363 228.838 103.795C230.371 106.913 234.027 108.461 237.241 107.142Z" fill="url(#paint0_linear_1115_16467)"/>
<defs>
<linearGradient id="paint0_linear_1115_16467" x1="125.501" y1="51.5021" x2="42.501" y2="159.502" gradientUnits="userSpaceOnUse">
<stop/>
<stop offset="1" stop-opacity="0"/>
</linearGradient>
</defs>
</svg>
