<svg width="25" height="24" viewBox="0 0 25 24" fill="none" xmlns="http://www.w3.org/2000/svg">
<path d="M22.1888 16.1249C22.2879 16.2968 22.3148 16.501 22.2637 16.6927C22.2125 16.8844 22.0875 17.048 21.916 17.1477L12.916 22.3977C12.8013 22.4646 12.671 22.4999 12.5382 22.4999C12.4054 22.4999 12.2751 22.4646 12.1604 22.3977L3.16039 17.1477C2.99135 17.0462 2.86913 16.8821 2.82017 16.6911C2.77122 16.5 2.79948 16.2974 2.89883 16.127C2.99818 15.9567 3.16063 15.8323 3.35101 15.7809C3.54139 15.7294 3.74437 15.755 3.91602 15.8521L12.541 20.8818L21.166 15.8521C21.3379 15.7531 21.5421 15.7261 21.7338 15.7773C21.9255 15.8284 22.0891 15.9534 22.1888 16.1249ZM21.166 11.3521L12.541 16.3818L3.91602 11.3521C3.74524 11.2671 3.54849 11.2503 3.3658 11.3053C3.18311 11.3602 3.02822 11.4827 2.93265 11.6478C2.83707 11.8129 2.80801 12.0082 2.85136 12.1939C2.89472 12.3797 3.00724 12.542 3.16602 12.6477L12.166 17.8977C12.2807 17.9646 12.4111 17.9999 12.5438 17.9999C12.6766 17.9999 12.807 17.9646 12.9216 17.8977L21.9216 12.6477C22.0081 12.5988 22.084 12.5332 22.1448 12.4548C22.2057 12.3763 22.2504 12.2865 22.2763 12.1907C22.3023 12.0948 22.3089 11.9947 22.2958 11.8963C22.2827 11.7978 22.2502 11.7029 22.2002 11.6171C22.1502 11.5313 22.0836 11.4563 22.0043 11.3965C21.9251 11.3366 21.8347 11.2931 21.7385 11.2684C21.6423 11.2438 21.5421 11.2385 21.4439 11.2529C21.3456 11.2672 21.2511 11.301 21.166 11.3521ZM2.79102 7.49993C2.79131 7.36856 2.82611 7.23958 2.89192 7.12589C2.95773 7.0122 3.05225 6.91779 3.16602 6.85211L12.166 1.60211C12.2807 1.53524 12.4111 1.5 12.5438 1.5C12.6766 1.5 12.807 1.53524 12.9216 1.60211L21.9216 6.85211C22.0349 6.91816 22.1288 7.01274 22.1941 7.1264C22.2593 7.24006 22.2937 7.36885 22.2937 7.49993C22.2937 7.631 22.2593 7.75979 22.1941 7.87345C22.1288 7.98712 22.0349 8.08169 21.9216 8.14774L12.9216 13.3977C12.807 13.4646 12.6766 13.4999 12.5438 13.4999C12.4111 13.4999 12.2807 13.4646 12.166 13.3977L3.16602 8.14774C3.05225 8.08206 2.95773 7.98765 2.89192 7.87396C2.82611 7.76027 2.79131 7.63129 2.79102 7.49993ZM5.02977 7.49993L12.541 11.8818L20.0523 7.49993L12.541 3.11805L5.02977 7.49993Z" fill="black"/>
</svg>
