<svg width="25" height="24" viewBox="0 0 25 24" fill="none" xmlns="http://www.w3.org/2000/svg">
<path d="M22.2377 16.1249C22.3367 16.2968 22.3636 16.501 22.3125 16.6927C22.2614 16.8844 22.1364 17.048 21.9648 17.1477L12.9648 22.3977C12.8502 22.4646 12.7198 22.4999 12.587 22.4999C12.4543 22.4999 12.3239 22.4646 12.2092 22.3977L3.20922 17.1477C3.04018 17.0462 2.91795 16.8821 2.869 16.6911C2.82005 16.5 2.8483 16.2974 2.94766 16.127C3.04701 15.9567 3.20946 15.8323 3.39984 15.7809C3.59022 15.7294 3.7932 15.755 3.96484 15.8521L12.5898 20.8818L21.2148 15.8521C21.3867 15.7531 21.5909 15.7261 21.7826 15.7773C21.9743 15.8284 22.1379 15.9534 22.2377 16.1249ZM21.2148 11.3521L12.5898 16.3818L3.96484 11.3521C3.79407 11.2671 3.59732 11.2503 3.41463 11.3053C3.23194 11.3602 3.07705 11.4827 2.98147 11.6478C2.8859 11.8129 2.85684 12.0082 2.90019 12.1939C2.94355 12.3797 3.05606 12.542 3.21484 12.6477L12.2148 17.8977C12.3295 17.9646 12.4599 17.9999 12.5927 17.9999C12.7254 17.9999 12.8558 17.9646 12.9705 17.8977L21.9705 12.6477C22.0569 12.5988 22.1328 12.5332 22.1937 12.4548C22.2546 12.3763 22.2993 12.2865 22.3252 12.1907C22.3511 12.0948 22.3577 11.9947 22.3446 11.8963C22.3316 11.7978 22.2991 11.7029 22.249 11.6171C22.199 11.5313 22.1324 11.4563 22.0531 11.3965C21.9739 11.3366 21.8835 11.2931 21.7873 11.2684C21.6911 11.2438 21.591 11.2385 21.4927 11.2529C21.3944 11.2672 21.3 11.301 21.2148 11.3521ZM2.83984 7.49993C2.84014 7.36856 2.87494 7.23958 2.94075 7.12589C3.00656 7.0122 3.10108 6.91779 3.21484 6.85211L12.2148 1.60211C12.3295 1.53524 12.4599 1.5 12.5927 1.5C12.7254 1.5 12.8558 1.53524 12.9705 1.60211L21.9705 6.85211C22.0837 6.91816 22.1776 7.01274 22.2429 7.1264C22.3082 7.24006 22.3425 7.36885 22.3425 7.49993C22.3425 7.631 22.3082 7.75979 22.2429 7.87345C22.1776 7.98712 22.0837 8.08169 21.9705 8.14774L12.9705 13.3977C12.8558 13.4646 12.7254 13.4999 12.5927 13.4999C12.4599 13.4999 12.3295 13.4646 12.2148 13.3977L3.21484 8.14774C3.10108 8.08206 3.00656 7.98765 2.94075 7.87396C2.87494 7.76027 2.84014 7.63129 2.83984 7.49993ZM5.07859 7.49993L12.5898 11.8818L20.1011 7.49993L12.5898 3.11805L5.07859 7.49993Z" fill="black"/>
</svg>
