<svg width="21" height="20" viewBox="0 0 21 20" fill="none" xmlns="http://www.w3.org/2000/svg">
<path d="M19.4851 7.50587C19.3901 7.21472 19.2117 6.9579 18.972 6.76733C18.7322 6.57677 18.4418 6.46085 18.1367 6.434L13.6836 6.04884L11.9414 1.89728C11.8215 1.61495 11.6213 1.37414 11.3655 1.20486C11.1097 1.03558 10.8098 0.945312 10.5031 0.945312C10.1964 0.945312 9.89646 1.03558 9.6407 1.20486C9.38494 1.37414 9.18466 1.61495 9.06482 1.89728L7.32028 6.04884L2.86716 6.434C2.56043 6.45939 2.26803 6.57481 2.02666 6.76577C1.78528 6.95673 1.60568 7.21472 1.51038 7.50737C1.41508 7.80002 1.40834 8.1143 1.49099 8.41077C1.57364 8.70724 1.74201 8.9727 1.97497 9.17384L5.35935 12.127L4.34372 16.5207C4.27407 16.8199 4.29415 17.133 4.40146 17.4208C4.50877 17.7087 4.69855 17.9585 4.94706 18.139C5.19558 18.3196 5.49181 18.4229 5.79871 18.4361C6.10562 18.4492 6.40959 18.3716 6.67263 18.2129L10.5008 15.8879L14.3289 18.2129C14.5919 18.3713 14.8958 18.4487 15.2025 18.4355C15.5093 18.4222 15.8054 18.3189 16.0537 18.1384C16.3021 17.9578 16.4918 17.7081 16.5991 17.4204C16.7064 17.1327 16.7265 16.8198 16.657 16.5207L15.6414 12.127L19.0258 9.17384C19.2581 8.97197 19.4256 8.70598 19.5074 8.40924C19.5891 8.1125 19.5814 7.79823 19.4851 7.50587ZM14.2703 10.8356C14.056 11.022 13.8966 11.2632 13.8092 11.5334C13.7218 11.8037 13.7097 12.0926 13.7742 12.3692L14.664 16.2223L11.3093 14.1848C11.0657 14.0364 10.786 13.958 10.5008 13.958C10.2155 13.958 9.93578 14.0364 9.69216 14.1848L6.33747 16.2223L7.22731 12.3692C7.2918 12.0926 7.27969 11.8037 7.19228 11.5334C7.10487 11.2632 6.94547 11.022 6.73122 10.8356L3.75544 8.23946L7.67263 7.9004C7.95629 7.87611 8.22785 7.77448 8.45775 7.60656C8.68766 7.43865 8.86709 7.21088 8.97653 6.94806L10.5008 3.31603L12.025 6.94806C12.1344 7.21088 12.3138 7.43865 12.5438 7.60656C12.7737 7.77448 13.0452 7.87611 13.3289 7.9004L17.2461 8.23946L14.2703 10.8356Z" fill="#D4D4D8"/>
</svg>
