<svg width="20" height="20" viewBox="0 0 20 20" fill="none" xmlns="http://www.w3.org/2000/svg">
<path d="M18.6875 7.60063C18.6118 7.36733 18.4692 7.16146 18.2773 7.00865C18.0855 6.85584 17.8529 6.76285 17.6086 6.74125L12.9688 6.34125L11.15 2.01625C11.0553 1.78931 10.8956 1.59546 10.691 1.45911C10.4863 1.32276 10.2459 1.25 10 1.25C9.75411 1.25 9.51371 1.32276 9.30907 1.45911C9.10443 1.59546 8.94471 1.78931 8.85002 2.01625L7.03674 6.34125L2.39142 6.74359C2.14614 6.76421 1.9124 6.85678 1.71952 7.0097C1.52663 7.16262 1.38319 7.36909 1.30718 7.60321C1.23117 7.83733 1.22598 8.08868 1.29225 8.32574C1.35852 8.5628 1.49331 8.77502 1.6797 8.93578L5.20392 12.0155L4.14767 16.5889C4.09182 16.8282 4.10776 17.0787 4.19349 17.309C4.27923 17.5394 4.43095 17.7393 4.6297 17.8839C4.82845 18.0284 5.0654 18.1112 5.31093 18.1218C5.55647 18.1324 5.79968 18.0704 6.01017 17.9436L9.99455 15.5217L13.9875 17.9436C14.198 18.0704 14.4412 18.1324 14.6868 18.1218C14.9323 18.1112 15.1692 18.0284 15.368 17.8839C15.5667 17.7393 15.7185 17.5394 15.8042 17.309C15.8899 17.0787 15.9059 16.8282 15.85 16.5889L14.7945 12.0108L18.318 8.93578C18.5044 8.77446 18.6389 8.56164 18.7046 8.32408C18.7704 8.08651 18.7644 7.83481 18.6875 7.60063ZM17.4985 7.99125L13.975 11.0662C13.8035 11.2154 13.676 11.4085 13.606 11.6248C13.5361 11.841 13.5265 12.0723 13.5781 12.2936L14.6367 16.8748L10.6469 14.453C10.4522 14.3344 10.2287 14.2717 10.0008 14.2717C9.77288 14.2717 9.54936 14.3344 9.3547 14.453L5.37033 16.8748L6.42189 12.2967C6.47357 12.0754 6.46393 11.8442 6.394 11.6279C6.32407 11.4116 6.1965 11.2185 6.02502 11.0694L2.50002 7.99594C2.49973 7.9936 2.49973 7.99124 2.50002 7.98891L7.14377 7.58734C7.37049 7.56736 7.58745 7.48585 7.77125 7.35162C7.95505 7.21738 8.09871 7.03551 8.18674 6.82563L10 2.50609L11.8125 6.82563C11.9005 7.03551 12.0442 7.21738 12.228 7.35162C12.4118 7.48585 12.6288 7.56736 12.8555 7.58734L17.5 7.98891C17.5 7.98891 17.5 7.99359 17.5 7.99438L17.4985 7.99125Z" fill="#71717A"/>
</svg>
