<svg width="12" height="12" viewBox="0 0 12 12" fill="none" xmlns="http://www.w3.org/2000/svg">
<path d="M10.9926 5.36147L8.87852 7.20647L9.51181 9.95334C9.54532 10.0969 9.53576 10.2472 9.48431 10.3854C9.43287 10.5236 9.34184 10.6436 9.22259 10.7303C9.10334 10.8171 8.96117 10.8667 8.81385 10.8731C8.66653 10.8795 8.5206 10.8423 8.39431 10.7662L5.99853 9.31303L3.6079 10.7662C3.48161 10.8423 3.33568 10.8795 3.18836 10.8731C3.04104 10.8667 2.89887 10.8171 2.77962 10.7303C2.66037 10.6436 2.56933 10.5236 2.51789 10.3854C2.46645 10.2472 2.45689 10.0969 2.4904 9.95334L3.12274 7.20928L1.00821 5.36147C0.896374 5.26501 0.815502 5.13768 0.77574 4.99544C0.735977 4.85321 0.739095 4.7024 0.7847 4.56193C0.830306 4.42145 0.91637 4.29757 1.0321 4.20582C1.14783 4.11407 1.28807 4.05852 1.43524 4.04616L4.22243 3.80475L5.3104 1.20975C5.36722 1.07359 5.46305 0.957276 5.58583 0.875465C5.70861 0.793654 5.85286 0.75 6.0004 0.75C6.14794 0.75 6.29219 0.793654 6.41497 0.875465C6.53775 0.957276 6.63359 1.07359 6.6904 1.20975L7.78165 3.80475L10.5679 4.04616C10.7151 4.05852 10.8553 4.11407 10.971 4.20582C11.0868 4.29757 11.1728 4.42145 11.2184 4.56193C11.2641 4.7024 11.2672 4.85321 11.2274 4.99544C11.1876 5.13768 11.1068 5.26501 10.9949 5.36147H10.9926Z" fill="#FFB536"/>
</svg>
