<svg width="12" height="12" viewBox="0 0 12 12" fill="none" xmlns="http://www.w3.org/2000/svg">
<path d="M11.3915 4.50274C11.3345 4.32805 11.2274 4.17396 11.0836 4.05962C10.9397 3.94528 10.7654 3.87573 10.5824 3.85962L7.91053 3.62852L6.86522 1.13759C6.79331 0.96819 6.67314 0.823704 6.51968 0.722135C6.36623 0.620566 6.18627 0.566406 6.00225 0.566406C5.81822 0.566406 5.63827 0.620566 5.48481 0.722135C5.33136 0.823704 5.21119 0.96819 5.13928 1.13759L4.09256 3.62852L1.42069 3.85962C1.23665 3.87485 1.06121 3.94411 0.916386 4.05868C0.77156 4.17325 0.663797 4.32805 0.606619 4.50364C0.54944 4.67923 0.545393 4.8678 0.594984 5.04568C0.644576 5.22356 0.745597 5.38284 0.885373 5.50352L2.916 7.2754L2.30662 9.91165C2.26483 10.0912 2.27688 10.279 2.34127 10.4517C2.40565 10.6244 2.51952 10.7743 2.66863 10.8826C2.81774 10.991 2.99547 11.053 3.17962 11.0609C3.36376 11.0687 3.54615 11.0222 3.70397 10.927L6.00084 9.53196L8.29772 10.927C8.45553 11.022 8.63785 11.0685 8.82191 11.0605C9.00597 11.0526 9.18361 10.9906 9.33263 10.8822C9.48166 10.7739 9.59546 10.6241 9.65984 10.4515C9.72421 10.2789 9.7363 10.0911 9.69459 9.91165L9.08522 7.2754L11.1158 5.50352C11.2552 5.3824 11.3558 5.2228 11.4048 5.04476C11.4538 4.86672 11.4492 4.67816 11.3915 4.50274ZM8.26256 6.50055C8.13401 6.6124 8.03837 6.75716 7.98592 6.91929C7.93348 7.08141 7.92621 7.25477 7.9649 7.42071L8.49881 9.73258L6.486 8.51009C6.33983 8.42107 6.17198 8.37399 6.00084 8.37399C5.8297 8.37399 5.66186 8.42107 5.51569 8.51009L3.50287 9.73258L4.03678 7.42071C4.07547 7.25477 4.0682 7.08141 4.01576 6.91929C3.96331 6.75716 3.86768 6.6124 3.73912 6.50055L1.95365 4.9429L4.30397 4.73946C4.47416 4.72489 4.6371 4.66391 4.77504 4.56316C4.91298 4.46241 5.02065 4.32575 5.08631 4.16805L6.00084 1.98883L6.91537 4.16805C6.98104 4.32575 7.0887 4.46241 7.22664 4.56316C7.36458 4.66391 7.52752 4.72489 7.69772 4.73946L10.048 4.9429L8.26256 6.50055Z" fill="#D4D4D8"/>
</svg>
