<svg width="28" height="24" viewBox="0 0 28 24" fill="none" xmlns="http://www.w3.org/2000/svg">
<path opacity="0.25" d="M2.33203 5C2.33203 3.34315 3.85261 2 5.72834 2H21.5778C23.4535 2 24.9741 3.34315 24.9741 5V14.7574C24.9741 15.553 24.6163 16.3161 23.9794 16.8787L19.1762 21.1213C18.5393 21.6839 17.6755 22 16.7747 22H5.72834C3.85261 22 2.33203 20.6569 2.33203 19V5Z" fill="#3F3F46"/>
<path d="M24.8599 15.5335C24.9454 15.2514 24.6812 15 24.3506 15H18.1829C17.5576 15 17.0508 15.4477 17.0508 16V21.448C17.0508 21.7401 17.3354 21.9734 17.6548 21.8979C18.2259 21.7627 18.7524 21.497 19.1776 21.1213L23.9808 16.8787C24.406 16.503 24.7069 16.038 24.8599 15.5335Z" fill="#3F3F46"/>
</svg>
