<svg width="28" height="24" viewBox="0 0 28 24" fill="none" xmlns="http://www.w3.org/2000/svg">
<path opacity="0.25" d="M2.63086 5C2.63086 3.34315 4.15144 2 6.02717 2H21.8766C23.7524 2 25.2729 3.34315 25.2729 5V14.7574C25.2729 15.553 24.9151 16.3161 24.2782 16.8787L19.4751 21.1213C18.8381 21.6839 17.9743 22 17.0735 22H6.02717C4.15144 22 2.63086 20.6569 2.63086 19V5Z" fill="#2F80ED"/>
<path d="M25.1587 15.5335C25.2443 15.2514 24.9801 15 24.6494 15H18.4817C17.8565 15 17.3496 15.4477 17.3496 16V21.448C17.3496 21.7401 17.6342 21.9734 17.9536 21.8979C18.5247 21.7627 19.0512 21.497 19.4765 21.1213L24.2796 16.8787C24.7049 16.503 25.0057 16.038 25.1587 15.5335Z" fill="#2F80ED"/>
</svg>
