<svg width="201" height="11" viewBox="0 0 201 11" fill="none" xmlns="http://www.w3.org/2000/svg">
<path d="M2.94914 8.45856C1.2945 8.45856 0 7.61594 0 5.72261V0.838482H1.56591V5.50935C1.56591 6.65365 2.17663 7.08017 2.94914 7.08017C3.72688 7.08017 4.34279 6.64845 4.34279 5.50935V0.838482H5.9087V5.72261C5.9087 7.61594 4.60902 8.45856 2.94914 8.45856ZM12.8562 0.838637H14.4169V8.35453H12.6056L9.26502 2.98139V8.35453H7.70434V0.838637H9.49469L12.8562 6.18035V0.838637ZM16.369 8.35453V0.838637H17.9349V8.35453H16.369ZM27.346 8.66662L26.0411 9.16075L25.0754 8.07883C24.543 8.32329 23.9271 8.45853 23.259 8.45853C21.0145 8.45853 19.3547 6.95013 19.3547 4.59385C19.3547 2.23239 21.0145 0.73438 23.259 0.73438C25.5035 0.73438 27.1633 2.23239 27.1633 4.59385C27.1633 5.71215 26.7927 6.63801 26.1612 7.3038L27.346 8.66662ZM20.9153 4.59392C20.9153 6.19595 21.9332 7.10099 23.259 7.10099C24.5848 7.10099 25.6027 6.19595 25.6027 4.59392C25.6027 3.07508 24.5848 2.17004 23.259 2.17004C21.9332 2.17004 20.9153 3.07508 20.9153 4.59392ZM31.4748 8.45856C29.8201 8.45856 28.5256 7.61594 28.5256 5.72261V0.838482H30.0915V5.50935C30.0915 6.65365 30.7023 7.08017 31.4748 7.08017C32.2525 7.08017 32.8684 6.64845 32.8684 5.50935V0.838482H34.4343V5.72261C34.4343 7.61594 33.1346 8.45856 31.4748 8.45856ZM40.6041 2.21175H37.8064V3.9178H40.2857V5.27536H37.8064V6.97625H40.6041V8.35464H36.23V0.838743H40.6041V2.21175ZM50.0415 8.35453L49.4934 6.80448H46.3251L45.777 8.35453H44.1746L46.9514 0.838637H48.8671L51.6439 8.35453H50.0415ZM46.7841 5.49896H49.0338L47.9116 2.3105L46.7841 5.49896ZM55.9134 0.838637C57.3905 0.838637 58.3092 1.93095 58.3092 3.26768C58.3092 4.63568 57.3905 5.66034 55.9134 5.66034H54.3422V8.35469H52.7763V0.838796L55.9134 0.838637ZM55.6524 4.35461C56.4353 4.35461 56.8007 3.92289 56.8007 3.24669C56.8007 2.59652 56.4353 2.144 55.6524 2.144H54.3422V4.35461H55.6524ZM62.7616 0.838637C64.2388 0.838637 65.1574 1.93095 65.1574 3.26768C65.1574 4.63568 64.2387 5.66034 62.7616 5.66034H61.1904V8.35469H59.6245V0.838796L62.7616 0.838637ZM62.5006 4.35461C63.2835 4.35461 63.6489 3.92289 63.6489 3.24669C63.6489 2.59652 63.2835 2.144 62.5006 2.144H61.1904V4.35461H62.5006ZM70.4554 8.35453L68.4928 5.04644H68.0387V8.35453H66.4728V0.838637H69.2079C70.9147 0.838637 71.635 1.84253 71.635 3.08568C71.635 4.09474 71.0609 4.75014 70.0378 4.96862L72.3083 8.35474L70.4554 8.35453ZM68.0387 2.13345V3.92792H68.9626C69.7978 3.92792 70.1371 3.57423 70.1371 3.03327C70.1371 2.4975 69.7978 2.1334 68.9626 2.1334L68.0387 2.13345ZM76.7974 8.45856C74.579 8.45856 72.94 6.95016 72.94 4.59387C72.94 2.23242 74.579 0.734407 76.7974 0.734407C79.0105 0.734407 80.6495 2.23242 80.6495 4.59387C80.6495 6.95011 79.0105 8.45856 76.7974 8.45856ZM76.7974 7.02818C78.0971 7.02818 79.094 6.11792 79.094 4.59392C79.094 3.07508 78.0971 2.17004 76.7974 2.17004C75.4976 2.17004 74.5007 3.07508 74.5007 4.59392C74.5007 6.11792 75.4976 7.02818 76.7974 7.02818ZM87.1378 8.35453L86.5897 6.80448H83.4214L82.8733 8.35453H81.2709L84.0478 0.838637H85.9634L88.7403 8.35453H87.1378ZM83.8805 5.49896H86.1302L85.008 2.3105L83.8805 5.49896ZM93.2133 8.45856C90.9949 8.45856 89.356 6.95533 89.356 4.59387C89.356 2.23242 90.9949 0.734407 93.2133 0.734407C94.894 0.734407 96.2408 1.59263 96.7783 3.01783L95.3168 3.54837C94.9828 2.67455 94.1842 2.16999 93.2133 2.16999C91.9136 2.16999 90.9166 3.07503 90.9166 4.59387C90.9166 6.1127 91.9136 7.02291 93.2133 7.02291C94.1842 7.02291 94.9828 6.51317 95.3168 5.63931L96.7783 6.16985C96.2407 7.59505 94.894 8.45856 93.2133 8.45856ZM102.818 0.838637H104.384V8.35453H102.818V5.26487H99.6285V8.35453H98.0626V0.838637H99.6285V3.90747H102.818V0.838637ZM107.192 10.2687H106.116L106.769 6.86696H108.314L107.192 10.2687ZM115.413 8.45856C113.758 8.45856 112.464 7.61594 112.464 5.72261V0.838482H114.029V5.50935C114.029 6.65365 114.64 7.08017 115.413 7.08017C116.19 7.08017 116.806 6.64845 116.806 5.50935V0.838482H118.372V5.72261C118.372 7.61594 117.073 8.45856 115.413 8.45856ZM125.32 0.838637H126.88V8.35453H125.069L121.729 2.98139V8.35453H120.168V0.838637H121.958L125.32 6.18035V0.838637ZM128.833 8.35453V0.838637H130.398V8.35453H128.833ZM139.809 8.66662L138.505 9.16075L137.539 8.07883C137.007 8.32329 136.391 8.45853 135.723 8.45853C133.478 8.45853 131.818 6.95013 131.818 4.59385C131.818 2.23239 133.478 0.73438 135.723 0.73438C137.967 0.73438 139.627 2.23239 139.627 4.59385C139.627 5.71215 139.256 6.63801 138.625 7.3038L139.809 8.66662ZM133.379 4.59392C133.379 6.19595 134.397 7.10099 135.723 7.10099C137.048 7.10099 138.066 6.19595 138.066 4.59392C138.066 3.07508 137.048 2.17004 135.723 2.17004C134.397 2.17004 133.379 3.07508 133.379 4.59392ZM143.938 8.45856C142.284 8.45856 140.989 7.61594 140.989 5.72261V0.838482H142.555V5.50935C142.555 6.65365 143.166 7.08017 143.938 7.08017C144.716 7.08017 145.332 6.64845 145.332 5.50935V0.838482H146.898V5.72261C146.898 7.61594 145.598 8.45856 143.938 8.45856ZM153.068 2.21175H150.27V3.9178H152.749V5.27536H150.27V6.97625H153.068V8.35464H148.694V0.838743H153.068V2.21175ZM161.44 8.35453L159.477 5.04644H159.023V8.35453H157.457V0.838637H160.192C161.899 0.838637 162.62 1.84253 162.62 3.08568C162.62 4.09474 162.045 4.75014 161.022 4.96862L163.293 8.35474L161.44 8.35453ZM159.023 2.13345V3.92792H159.947C160.782 3.92792 161.122 3.57423 161.122 3.03327C161.122 2.4975 160.782 2.1334 159.947 2.1334L159.023 2.13345ZM168.815 2.21175H166.018V3.9178H168.497V5.27536H166.018V6.97625H168.815V8.35464H164.441V0.838743H168.815V2.21175ZM172.934 8.45856C171.316 8.45856 170.052 7.68353 169.823 6.27394L171.441 5.90463C171.545 6.74725 172.166 7.18416 172.996 7.18416C173.633 7.18416 174.139 6.90329 174.134 6.26868C174.129 5.5613 173.294 5.33765 172.375 5.05675C171.269 4.71345 170.084 4.30771 170.084 2.92416C170.084 1.52495 171.232 0.734375 172.746 0.734375C174.072 0.734375 175.408 1.27014 175.711 2.7109L174.197 3.0854C174.056 2.33637 173.55 2.0087 172.84 2.0087C172.208 2.0087 171.671 2.26877 171.671 2.88775C171.671 3.46511 172.412 3.65755 173.268 3.91241C174.406 4.25571 175.752 4.69261 175.752 6.19062C175.752 7.78743 174.411 8.45856 172.934 8.45856ZM179.991 8.45856C178.336 8.45856 177.042 7.61594 177.042 5.72261V0.838482H178.607V5.50935C178.607 6.65365 179.218 7.08017 179.991 7.08017C180.768 7.08017 181.384 6.64845 181.384 5.50935V0.838482H182.95V5.72261C182.95 7.61594 181.651 8.45856 179.991 8.45856ZM186.312 6.97615H188.676V8.35453H184.746V0.838637H186.312V6.97615ZM194.246 0.838637V2.2118H192.455V8.35458H190.905V2.2118H189.104V0.838637H194.246ZM197.936 8.45856C196.318 8.45856 195.055 7.68353 194.825 6.27394L196.443 5.90463C196.548 6.74725 197.169 7.18416 197.999 7.18416C198.635 7.18416 199.142 6.90329 199.137 6.26868C199.131 5.5613 198.296 5.33765 197.378 5.05675C196.271 4.71345 195.086 4.30771 195.086 2.92416C195.086 1.52495 196.234 0.734375 197.748 0.734375C199.074 0.734375 200.41 1.27014 200.713 2.7109L199.199 3.0854C199.058 2.33637 198.552 2.0087 197.842 2.0087C197.211 2.0087 196.673 2.26877 196.673 2.88775C196.673 3.46511 197.414 3.65755 198.27 3.91241C199.408 4.25571 200.755 4.69261 200.755 6.19062C200.755 7.78743 199.413 8.45856 197.936 8.45856Z" fill="white"/>
</svg>
