<svg width="43" height="42" viewBox="0 0 43 42" fill="none" xmlns="http://www.w3.org/2000/svg">
<path d="M42.696 4.898C41.5734 4.20261 35.2229 0.734375 20.4131 0.734375C6.96324 0.734375 0.635389 3.57786 0.372672 3.69872C0.128116 3.81151 -0.0198092 4.06423 0.00214882 4.33166C1.08366 17.4792 10.9374 34.205 19.4623 41.5779C19.582 41.6816 19.7322 41.7344 19.883 41.7344C20.0049 41.7344 20.1269 41.7 20.2341 41.63C25.1102 38.4551 29.5502 33.4758 34.6307 25.4854C39.0592 18.5204 42.9991 8.47501 42.9991 5.44131C42.9991 5.22014 42.8844 5.01457 42.696 4.898ZM37.8806 4.22616C35.2046 3.9332 31.7673 3.63966 28.7348 3.63966H28.2753C22.295 3.63378 17.1402 3.63467 8.89911 7.5578C8.74232 7.63246 8.62226 7.7674 8.56711 7.9317C8.51196 8.09638 8.52602 8.27597 8.60595 8.42971C13.6708 18.1565 19.5655 24.867 21.0349 26.4706C20.372 27.5169 19.6627 28.5624 18.9008 29.5893C11.4221 23.992 4.43907 11.2346 1.49668 4.62929C3.32045 3.95438 9.50846 2.01395 20.4131 2.01395C28.8937 2.01396 34.4866 3.1515 37.8806 4.22616ZM21.7368 25.3369C20.3382 23.7845 16.5469 19.3628 12.649 12.9759C14.9458 12.4656 21.2127 11.218 28.1352 11.0634C27.4762 13.1912 25.4475 19.1647 21.7368 25.3369ZM1.91779 8.50859C5.53978 15.7521 11.9149 26.2578 18.6647 31.0007C18.777 31.0794 18.9061 31.1176 19.034 31.1176C19.2284 31.1176 19.42 31.0301 19.546 30.8648C25.763 22.7134 28.8272 13.2368 29.4819 11.0467C29.4979 11.0467 29.5138 11.0463 29.5299 11.0463C31.7118 11.0463 33.0909 11.2154 33.7871 11.3328C33.4733 13.2441 32.2425 19.5461 28.8612 25.6803C25.4462 31.8753 21.1091 38.2144 19.7714 40.1365C12.4736 33.531 4.35426 20.2138 1.91779 8.50859ZM33.5461 24.8006C29.6713 30.8943 26.1937 35.1862 22.6189 38.2385C24.5859 35.3054 27.5228 30.7661 29.9866 26.2963C34.1326 18.7751 35.1097 11.2253 35.1492 10.9076C35.1884 10.5949 34.9928 10.3003 34.6884 10.2138C34.6244 10.1953 33.0774 9.76674 29.5299 9.76674C21.4817 9.76674 14.0039 11.3493 11.9565 11.8204C11.3187 10.7389 10.6817 9.60948 10.0556 8.43003C17.687 4.91489 22.5938 4.90491 28.2746 4.91924H28.7348C33.6974 4.91924 39.7836 5.72122 41.6715 5.98814C41.2517 9.15811 37.7047 18.2595 33.5461 24.8006Z" fill="white"/>
</svg>
