<svg width="23" height="22" viewBox="0 0 23 22" fill="none" xmlns="http://www.w3.org/2000/svg">
<path d="M3.25 4.125H7.375V13.0625H3.25C3.06766 13.0625 2.8928 12.9901 2.76386 12.8611C2.63493 12.7322 2.5625 12.5573 2.5625 12.375V4.8125C2.5625 4.63016 2.63493 4.4553 2.76386 4.32636C2.8928 4.19743 3.06766 4.125 3.25 4.125V4.125Z" stroke="#EF4444" stroke-width="2" stroke-linecap="round" stroke-linejoin="round"/>
<path d="M7.375 13.0625L10.8125 19.9375C11.5418 19.9375 12.2413 19.6478 12.757 19.132C13.2728 18.6163 13.5625 17.9168 13.5625 17.1875V15.125H18.882C19.077 15.1255 19.2698 15.0842 19.4475 15.004C19.6252 14.9238 19.7837 14.8065 19.9123 14.66C20.0409 14.5135 20.1367 14.3411 20.1932 14.1545C20.2497 13.9679 20.2656 13.7714 20.2398 13.5781L19.2086 5.32812C19.1669 4.99694 19.0061 4.69224 18.7563 4.47086C18.5064 4.24949 18.1846 4.12655 17.8508 4.125H7.375" stroke="#EF4444" stroke-width="2" stroke-linecap="round" stroke-linejoin="round"/>
</svg>
