<svg width="23" height="22" viewBox="0 0 23 22" fill="none" xmlns="http://www.w3.org/2000/svg">
<path d="M19.0625 4.8125H3.9375" stroke="#EF4444" stroke-width="2" stroke-linecap="round" stroke-linejoin="round"/>
<path d="M9.4375 8.9375V14.4375" stroke="#EF4444" stroke-width="2" stroke-linecap="round" stroke-linejoin="round"/>
<path d="M13.5625 8.9375V14.4375" stroke="#EF4444" stroke-width="2" stroke-linecap="round" stroke-linejoin="round"/>
<path d="M17.6875 4.8125V17.875C17.6875 18.0573 17.6151 18.2322 17.4861 18.3611C17.3572 18.4901 17.1823 18.5625 17 18.5625H6C5.81766 18.5625 5.6428 18.4901 5.51386 18.3611C5.38493 18.2322 5.3125 18.0573 5.3125 17.875V4.8125" stroke="#EF4444" stroke-width="2" stroke-linecap="round" stroke-linejoin="round"/>
<path d="M14.9375 4.8125V3.4375C14.9375 3.07283 14.7926 2.72309 14.5348 2.46523C14.2769 2.20737 13.9272 2.0625 13.5625 2.0625H9.4375C9.07283 2.0625 8.72309 2.20737 8.46523 2.46523C8.20737 2.72309 8.0625 3.07283 8.0625 3.4375V4.8125" stroke="#EF4444" stroke-width="2" stroke-linecap="round" stroke-linejoin="round"/>
</svg>
