<svg width="20" height="20" viewBox="0 0 20 20" fill="none" xmlns="http://www.w3.org/2000/svg">
<path d="M18.0407 16.5607C16.8508 14.5037 15.0172 13.0287 12.8774 12.3295C13.9358 11.6994 14.7582 10.7392 15.2182 9.5965C15.6781 8.45377 15.7503 7.19166 15.4235 6.00397C15.0968 4.81628 14.3892 3.76868 13.4094 3.02207C12.4296 2.27545 11.2318 1.87109 10 1.87109C8.76821 1.87109 7.57044 2.27545 6.59067 3.02207C5.6109 3.76868 4.90331 4.81628 4.57654 6.00397C4.24978 7.19166 4.32193 8.45377 4.78189 9.5965C5.24186 10.7392 6.06422 11.6994 7.12268 12.3295C4.98284 13.0279 3.14925 14.5029 1.9594 16.5607C1.91577 16.6319 1.88683 16.711 1.87429 16.7935C1.86174 16.8761 1.86585 16.9602 1.88638 17.0411C1.9069 17.122 1.94341 17.198 1.99377 17.2646C2.04413 17.3311 2.10731 17.3869 2.17958 17.4287C2.25185 17.4704 2.33175 17.4973 2.41457 17.5076C2.49738 17.518 2.58143 17.5117 2.66176 17.489C2.74209 17.4664 2.81708 17.4279 2.88228 17.3758C2.94749 17.3237 3.00161 17.2591 3.04143 17.1857C4.51331 14.642 7.11487 13.1232 10 13.1232C12.8852 13.1232 15.4867 14.642 16.9586 17.1857C16.9985 17.2591 17.0526 17.3237 17.1178 17.3758C17.183 17.4279 17.258 17.4664 17.3383 17.489C17.4186 17.5117 17.5027 17.518 17.5855 17.5076C17.6683 17.4973 17.7482 17.4704 17.8205 17.4287C17.8927 17.3869 17.9559 17.3311 18.0063 17.2646C18.0566 17.198 18.0932 17.122 18.1137 17.0411C18.1342 16.9602 18.1383 16.8761 18.1258 16.7935C18.1132 16.711 18.0843 16.6319 18.0407 16.5607ZM5.62503 7.49822C5.62503 6.63293 5.88162 5.78706 6.36235 5.0676C6.84308 4.34813 7.52636 3.78738 8.32579 3.45625C9.12522 3.12511 10.0049 3.03847 10.8535 3.20728C11.7022 3.37609 12.4818 3.79277 13.0936 4.40463C13.7055 5.01648 14.1222 5.79603 14.291 6.6447C14.4598 7.49337 14.3731 8.37303 14.042 9.17246C13.7109 9.97189 13.1501 10.6552 12.4306 11.1359C11.7112 11.6166 10.8653 11.8732 10 11.8732C8.84009 11.872 7.72801 11.4106 6.90781 10.5904C6.0876 9.77024 5.62627 8.65816 5.62503 7.49822Z" fill="white"/>
</svg>
