<svg width="20" height="20" viewBox="0 0 20 20" fill="none" xmlns="http://www.w3.org/2000/svg">
<path d="M5.01012 11.5468C5.01224 11.5891 5.00572 11.6314 4.99097 11.6711C4.97621 11.7109 4.95353 11.7472 4.9243 11.7779C4.89507 11.8086 4.8599 11.833 4.82093 11.8497C4.78196 11.8664 4.74 11.8749 4.69762 11.8749H1.25074C1.10967 11.8751 0.972685 11.8276 0.862048 11.7401C0.751411 11.6525 0.673635 11.5302 0.641366 11.3928C0.621273 11.2988 0.622199 11.2016 0.644079 11.108C0.665958 11.0144 0.708249 10.9268 0.767929 10.8514C1.31934 10.1202 2.05097 9.5444 2.89137 9.18034C2.5224 8.84394 2.23942 8.42402 2.06611 7.95576C1.89281 7.4875 1.83423 6.98453 1.89528 6.48898C1.95634 5.99342 2.13524 5.51971 2.41702 5.10752C2.6988 4.69532 3.07524 4.35665 3.51483 4.11986C3.95441 3.88307 4.44433 3.75506 4.94356 3.74655C5.44279 3.73804 5.93679 3.84927 6.38419 4.07094C6.83159 4.29261 7.21936 4.61825 7.51502 5.0206C7.81069 5.42295 8.00564 5.89028 8.08355 6.38347C8.09361 6.44979 8.08173 6.51758 8.04972 6.57653C8.01771 6.63548 7.96732 6.68236 7.90621 6.71003C7.03933 7.11079 6.30517 7.75116 5.79035 8.55556C5.27554 9.35996 5.00156 10.2948 5.00074 11.2499C5.00074 11.3499 5.00074 11.4483 5.01012 11.5468ZM19.2289 10.8507C18.6787 10.1202 17.9488 9.54478 17.1101 9.18034C17.4791 8.84394 17.7621 8.42402 17.9354 7.95576C18.1087 7.4875 18.1673 6.98453 18.1062 6.48898C18.0451 5.99342 17.8662 5.51971 17.5845 5.10752C17.3027 4.69532 16.9262 4.35665 16.4867 4.11986C16.0471 3.88307 15.5572 3.75506 15.0579 3.74655C14.5587 3.73804 14.0647 3.84927 13.6173 4.07094C13.1699 4.29261 12.7821 4.61825 12.4865 5.0206C12.1908 5.42295 11.9958 5.89028 11.9179 6.38347C11.9079 6.44979 11.9197 6.51758 11.9518 6.57653C11.9838 6.63548 12.0342 6.68236 12.0953 6.71003C12.9622 7.11079 13.6963 7.75116 14.2111 8.55556C14.7259 9.35996 14.9999 10.2948 15.0007 11.2499C15.0007 11.3499 15.0007 11.4483 14.9914 11.5468C14.9892 11.5891 14.9958 11.6314 15.0105 11.6711C15.0253 11.7109 15.0479 11.7472 15.0772 11.7779C15.1064 11.8086 15.1416 11.833 15.1806 11.8497C15.2195 11.8664 15.2615 11.8749 15.3039 11.8749H18.7507C18.8918 11.8751 19.0288 11.8276 19.1394 11.7401C19.2501 11.6525 19.3278 11.5302 19.3601 11.3928C19.3803 11.2987 19.3794 11.2012 19.3574 11.1074C19.3354 11.0137 19.2928 10.926 19.2328 10.8507H19.2289ZM12.2757 14.2241C12.898 13.7475 13.3554 13.0879 13.5834 12.338C13.8115 11.588 13.7988 10.7855 13.5472 10.0431C13.2956 9.30079 12.8177 8.65594 12.1807 8.19922C11.5436 7.74251 10.7795 7.49689 9.99566 7.49689C9.21183 7.49689 8.44769 7.74251 7.81066 8.19922C7.17363 8.65594 6.69572 9.30079 6.44411 10.0431C6.1925 10.7855 6.17984 11.588 6.4079 12.338C6.63596 13.0879 7.09328 13.7475 7.71558 14.2241C6.61132 14.7026 5.68923 15.522 5.08433 16.5624C5.02947 16.6574 5.00059 16.7652 5.0006 16.8749C5.00061 16.9846 5.0295 17.0924 5.08437 17.1874C5.13924 17.2825 5.21816 17.3613 5.31319 17.4162C5.40822 17.471 5.51602 17.4999 5.62574 17.4999H14.3757C14.4855 17.4999 14.5933 17.471 14.6883 17.4162C14.7833 17.3613 14.8622 17.2825 14.9171 17.1874C14.972 17.0924 15.0009 16.9846 15.0009 16.8749C15.0009 16.7652 14.972 16.6574 14.9171 16.5624C14.311 15.5213 13.3872 14.7018 12.2812 14.2241H12.2757Z" fill="white"/>
</svg>
