<svg width="15" height="14" viewBox="0 0 15 14" fill="none" xmlns="http://www.w3.org/2000/svg">
<path d="M14.4999 7.43578C14.4999 7.55181 14.4538 7.66309 14.3717 7.74514C14.2897 7.82719 14.1784 7.87328 14.0624 7.87328H13.1874V8.74828C13.1874 8.86431 13.1413 8.97559 13.0592 9.05764C12.9772 9.13969 12.8659 9.18578 12.7499 9.18578C12.6338 9.18578 12.5225 9.13969 12.4405 9.05764C12.3585 8.97559 12.3124 8.86431 12.3124 8.74828V7.87328H11.4374C11.3213 7.87328 11.21 7.82719 11.128 7.74514C11.046 7.66309 10.9999 7.55181 10.9999 7.43578C10.9999 7.31975 11.046 7.20847 11.128 7.12642C11.21 7.04437 11.3213 6.99828 11.4374 6.99828H12.3124V6.12328C12.3124 6.00725 12.3585 5.89597 12.4405 5.81392C12.5225 5.73187 12.6338 5.68578 12.7499 5.68578C12.8659 5.68578 12.9772 5.73187 13.0592 5.81392C13.1413 5.89597 13.1874 6.00725 13.1874 6.12328V6.99828H14.0624C14.1784 6.99828 14.2897 7.04437 14.3717 7.12642C14.4538 7.20847 14.4999 7.31975 14.4999 7.43578ZM11.3351 10.6541C11.4098 10.743 11.4461 10.858 11.4361 10.9737C11.426 11.0894 11.3704 11.1963 11.2815 11.271C11.1926 11.3457 11.0776 11.382 10.962 11.372C10.8463 11.3619 10.7393 11.3063 10.6646 11.2174C9.56431 9.90711 8.05166 9.18578 6.40611 9.18578C4.76056 9.18578 3.2479 9.90711 2.14759 11.2174C2.0729 11.3063 1.96597 11.3618 1.85033 11.3718C1.7347 11.3818 1.61983 11.3454 1.53099 11.2707C1.44215 11.196 1.38663 11.0891 1.37663 10.9735C1.36663 10.8578 1.40297 10.743 1.47767 10.6541C2.2947 9.6818 3.3108 8.99109 4.44009 8.62141C3.75426 8.19424 3.22621 7.55534 2.93582 6.80134C2.64544 6.04734 2.60853 5.21928 2.83067 4.44244C3.05281 3.66559 3.52192 2.98223 4.16702 2.49574C4.81213 2.00925 5.59813 1.74609 6.40611 1.74609C7.21409 1.74609 8.00009 2.00925 8.6452 2.49574C9.2903 2.98223 9.75941 3.66559 9.98155 4.44244C10.2037 5.21928 10.1668 6.04734 9.87639 6.80134C9.58601 7.55534 9.05796 8.19424 8.37212 8.62141C9.50142 8.99109 10.5175 9.6818 11.3351 10.6541ZM6.40611 8.31078C6.96855 8.31078 7.51836 8.144 7.98601 7.83152C8.45366 7.51905 8.81815 7.07491 9.03339 6.55529C9.24863 6.03566 9.30494 5.46388 9.19522 4.91224C9.08549 4.36061 8.81465 3.8539 8.41694 3.4562C8.01924 3.05849 7.51253 2.78765 6.9609 2.67792C6.40926 2.5682 5.83748 2.62451 5.31785 2.83975C4.79822 3.05498 4.35409 3.41948 4.04162 3.88713C3.72914 4.35478 3.56236 4.90459 3.56236 5.46703C3.56323 6.22097 3.86311 6.94379 4.39623 7.47691C4.92935 8.01002 5.65217 8.30991 6.40611 8.31078Z" fill="#3F3F46"/>
</svg>
