<svg width="16" height="16" viewBox="0 0 16 16" fill="none" xmlns="http://www.w3.org/2000/svg">
<path d="M7.32742 9.86957C7.99755 9.42344 8.50632 8.77349 8.77849 8.01585C9.05066 7.25821 9.07178 6.43309 8.83874 5.66251C8.6057 4.89193 8.13086 4.2168 7.48444 3.73696C6.83802 3.25712 6.05435 2.99805 5.2493 2.99805C4.44425 2.99805 3.66057 3.25712 3.01416 3.73696C2.36774 4.2168 1.8929 4.89193 1.65986 5.66251C1.42681 6.43309 1.44794 7.25821 1.72011 8.01585C1.99228 8.77349 2.50105 9.42344 3.17117 9.86957C1.95898 10.3163 0.92374 11.1431 0.219924 12.2264C0.182933 12.2814 0.15724 12.3432 0.144337 12.4082C0.131434 12.4732 0.131578 12.5401 0.144762 12.605C0.157946 12.67 0.183905 12.7316 0.221133 12.7865C0.25836 12.8413 0.306112 12.8882 0.361613 12.9244C0.417114 12.9606 0.479256 12.9854 0.544429 12.9973C0.609601 13.0093 0.676503 13.0082 0.741246 12.9941C0.805989 12.98 0.867281 12.9531 0.92156 12.9151C0.975839 12.8771 1.02202 12.8287 1.05742 12.7727C1.51142 12.0744 2.13265 11.5006 2.8647 11.1034C3.59675 10.7062 4.41643 10.4982 5.2493 10.4982C6.08217 10.4982 6.90185 10.7062 7.6339 11.1034C8.36595 11.5006 8.98718 12.0744 9.44117 12.7727C9.51451 12.8817 9.62779 12.9574 9.75654 12.9836C9.88528 13.0097 10.0191 12.9841 10.1292 12.9124C10.2392 12.8406 10.3166 12.7284 10.3445 12.6001C10.3725 12.4717 10.3489 12.3375 10.2787 12.2264C9.57486 11.1431 8.53962 10.3163 7.32742 9.86957ZM2.4993 6.74957C2.4993 6.20567 2.66058 5.67399 2.96276 5.22175C3.26493 4.76951 3.69442 4.41704 4.19692 4.2089C4.69942 4.00076 5.25235 3.9463 5.7858 4.05241C6.31924 4.15852 6.80925 4.42043 7.19384 4.80502C7.57844 5.18962 7.84035 5.67962 7.94646 6.21307C8.05257 6.74652 7.99811 7.29945 7.78997 7.80195C7.58183 8.30444 7.22935 8.73393 6.77712 9.03611C6.32488 9.33828 5.7932 9.49957 5.2493 9.49957C4.52021 9.49874 3.82121 9.20874 3.30567 8.6932C2.79012 8.17765 2.50013 7.47866 2.4993 6.74957ZM15.633 12.9183C15.522 12.9907 15.3867 13.0161 15.257 12.9888C15.1272 12.9615 15.0136 12.8837 14.9412 12.7727C14.4877 12.074 13.8666 11.5 13.1344 11.1029C12.4022 10.7059 11.5822 10.4985 10.7493 10.4996C10.6167 10.4996 10.4895 10.4469 10.3957 10.3531C10.302 10.2594 10.2493 10.1322 10.2493 9.99957C10.2493 9.86696 10.302 9.73978 10.3957 9.64601C10.4895 9.55225 10.6167 9.49957 10.7493 9.49957C11.1543 9.49919 11.5542 9.40936 11.9204 9.23651C12.2867 9.06367 12.6102 8.81206 12.8679 8.49968C13.1257 8.18729 13.3112 7.82184 13.4113 7.42943C13.5115 7.03702 13.5237 6.62734 13.4471 6.22966C13.3705 5.83198 13.2071 5.45613 12.9684 5.12894C12.7298 4.80176 12.4218 4.53132 12.0665 4.33696C11.7112 4.1426 11.3174 4.02912 10.9131 4.00461C10.5089 3.9801 10.1042 4.04518 9.72805 4.19519C9.66672 4.22171 9.60069 4.23566 9.53387 4.23622C9.46706 4.23679 9.4008 4.22395 9.33903 4.19848C9.27726 4.17301 9.22122 4.13541 9.17422 4.08791C9.12722 4.04041 9.09023 3.98398 9.06541 3.92194C9.04059 3.8599 9.02846 3.79351 9.02974 3.72671C9.03101 3.6599 9.04566 3.59402 9.07283 3.53298C9.09999 3.47193 9.13912 3.41694 9.18789 3.37127C9.23667 3.3256 9.2941 3.29017 9.3568 3.26707C10.2177 2.92373 11.1753 2.91137 12.0448 3.23239C12.9142 3.5534 13.634 4.18504 14.0653 5.00545C14.4966 5.82587 14.6087 6.77692 14.3801 7.67514C14.1515 8.57336 13.5984 9.35511 12.8274 9.86957C14.0396 10.3163 15.0749 11.1431 15.7787 12.2264C15.8511 12.3375 15.8764 12.4728 15.8491 12.6025C15.8218 12.7323 15.7441 12.8459 15.633 12.9183Z" fill="#A1A1AA"/>
</svg>
