<svg width="20" height="20" viewBox="0 0 20 20" fill="none" xmlns="http://www.w3.org/2000/svg">
<path d="M18.3102 16.4047C17.239 14.5248 15.5665 13.06 13.5617 12.2461C14.5587 11.4984 15.2951 10.456 15.6666 9.26646C16.0382 8.07697 16.0261 6.80072 15.632 5.61849C15.2379 4.43626 14.4819 3.408 13.4709 2.67934C12.46 1.95069 11.2454 1.55859 9.99921 1.55859C8.75303 1.55859 7.53845 1.95069 6.52749 2.67934C5.51654 3.408 4.76048 4.43626 4.3664 5.61849C3.97233 6.80072 3.96022 8.07697 4.33179 9.26646C4.70336 10.456 5.43977 11.4984 6.43671 12.2461C4.43196 13.06 2.7594 14.5248 1.68827 16.4047C1.6219 16.5114 1.57767 16.6304 1.5582 16.7545C1.53872 16.8787 1.54442 17.0055 1.57493 17.1274C1.60545 17.2493 1.66016 17.3639 1.73583 17.4642C1.81149 17.5646 1.90656 17.6487 2.01538 17.7115C2.1242 17.7744 2.24455 17.8148 2.36927 17.8302C2.494 17.8456 2.62055 17.8358 2.74141 17.8014C2.86227 17.7669 2.97497 17.7085 3.07281 17.6296C3.17065 17.5507 3.25162 17.453 3.31093 17.3422C4.72655 14.8953 7.22655 13.4359 9.99921 13.4359C12.7719 13.4359 15.2719 14.8961 16.6875 17.3422C16.816 17.5489 17.0199 17.6974 17.256 17.7565C17.4921 17.8156 17.7419 17.7806 17.9526 17.6588C18.1633 17.5371 18.3184 17.3382 18.3852 17.1041C18.4519 16.8701 18.425 16.6193 18.3102 16.4047ZM5.93671 7.49844C5.93671 6.69495 6.17497 5.90951 6.62137 5.24143C7.06776 4.57336 7.70224 4.05266 8.44456 3.74518C9.18688 3.4377 10.0037 3.35724 10.7918 3.514C11.5798 3.67075 12.3037 4.05767 12.8718 4.62582C13.44 5.19397 13.8269 5.91783 13.9837 6.70588C14.1404 7.49393 14.06 8.31076 13.7525 9.05309C13.445 9.79541 12.9243 10.4299 12.2562 10.8763C11.5881 11.3227 10.8027 11.5609 9.99921 11.5609C8.92215 11.5597 7.88956 11.1313 7.12796 10.3697C6.36636 9.60809 5.93795 8.5755 5.93671 7.49844Z" fill="#F5F5F5"/>
</svg>
