<svg width="16" height="16" viewBox="0 0 16 16" fill="none" xmlns="http://www.w3.org/2000/svg">
<path d="M7.82348 9.80809C8.45164 9.28009 8.90221 8.57167 9.11409 7.77891C9.32597 6.98615 9.28891 6.1474 9.00792 5.37642C8.72694 4.60544 8.21563 3.93953 7.54334 3.469C6.87106 2.99847 6.07032 2.74609 5.24973 2.74609C4.42914 2.74609 3.62841 2.99847 2.95612 3.469C2.28383 3.93953 1.77253 4.60544 1.49154 5.37642C1.21056 6.1474 1.17349 6.98615 1.38537 7.77891C1.59725 8.57167 2.04782 9.28009 2.67598 9.80809C1.69509 10.2516 0.845054 10.9404 0.207856 11.8081C0.0901665 11.9685 0.0410049 12.169 0.0711866 12.3656C0.101368 12.5623 0.208421 12.7388 0.368794 12.8565C0.529167 12.9742 0.729724 13.0234 0.926344 12.9932C1.12296 12.963 1.29954 12.856 1.41723 12.6956C1.85832 12.0932 2.43521 11.6032 3.10109 11.2655C3.76697 10.9277 4.50309 10.7517 5.24973 10.7517C5.99637 10.7517 6.73249 10.9277 7.39837 11.2655C8.06426 11.6032 8.64114 12.0932 9.08223 12.6956C9.19992 12.856 9.37653 12.9632 9.57321 12.9934C9.76989 13.0237 9.97053 12.9745 10.131 12.8568C10.2914 12.7391 10.3986 12.5625 10.4288 12.3659C10.459 12.1692 10.4099 11.9685 10.2922 11.8081C9.65465 10.9405 8.80445 10.2518 7.82348 9.80809ZM2.74973 6.74934C2.74973 6.25488 2.89635 5.77154 3.17106 5.36041C3.44576 4.94929 3.83621 4.62886 4.29302 4.43964C4.74984 4.25042 5.2525 4.20091 5.73746 4.29737C6.22241 4.39384 6.66787 4.63194 7.0175 4.98157C7.36713 5.3312 7.60523 5.77666 7.70169 6.26161C7.79816 6.74657 7.74865 7.24923 7.55943 7.70605C7.37021 8.16286 7.04978 8.55331 6.63866 8.82801C6.22753 9.10272 5.74418 9.24934 5.24973 9.24934C4.58669 9.24934 3.95081 8.98595 3.48196 8.51711C3.01312 8.04826 2.74973 7.41238 2.74973 6.74934ZM15.631 12.8537C15.5516 12.9121 15.4615 12.9542 15.3658 12.9777C15.2701 13.0012 15.1707 13.0056 15.0733 12.9907C14.9759 12.9758 14.8824 12.9418 14.7982 12.8908C14.7139 12.8397 14.6405 12.7725 14.5822 12.6931C14.1401 12.0918 13.5629 11.6027 12.8973 11.2651C12.2317 10.9275 11.4961 10.7509 10.7497 10.7493C10.5508 10.7493 10.3601 10.6703 10.2194 10.5297C10.0787 10.389 9.99973 10.1983 9.99973 9.99934C9.99973 9.80043 10.0787 9.60966 10.2194 9.46901C10.3601 9.32836 10.5508 9.24934 10.7497 9.24934C11.1178 9.24891 11.4813 9.16719 11.8142 9.01003C12.147 8.85288 12.4411 8.62415 12.6753 8.34019C12.9096 8.05624 13.0782 7.72406 13.1692 7.36738C13.2602 7.01071 13.2713 6.63834 13.2017 6.27687C13.1322 5.9154 12.9837 5.57375 12.7668 5.27633C12.5499 4.97891 12.27 4.73306 11.9471 4.55633C11.6242 4.37959 11.2662 4.27635 10.8988 4.25397C10.5314 4.23158 10.1636 4.29061 9.82161 4.42684C9.73 4.46435 9.63188 4.48335 9.5329 4.48275C9.43392 4.48216 9.33603 4.46197 9.24488 4.42337C9.15374 4.38476 9.07114 4.32849 9.00184 4.25781C8.93255 4.18712 8.87793 4.10342 8.84114 4.01153C8.80435 3.91963 8.78612 3.82136 8.78749 3.72239C8.78885 3.62341 8.8098 3.52569 8.84912 3.43485C8.88844 3.34401 8.94535 3.26185 9.01658 3.19311C9.0878 3.12437 9.17193 3.07041 9.26411 3.03434C10.1468 2.68093 11.1265 2.65351 12.0276 2.95699C12.9287 3.26048 13.6922 3.87502 14.1812 4.69043C14.6703 5.50584 14.8528 6.46879 14.6962 7.40662C14.5396 8.34445 14.0541 9.19583 13.3266 9.80809C14.3075 10.2516 15.1575 10.9404 15.7947 11.8081C15.9113 11.9686 15.9594 12.1687 15.9288 12.3647C15.8981 12.5607 15.791 12.7365 15.631 12.8537Z" fill="#71717A"/>
</svg>
