<svg width="14" height="17" viewBox="0 0 14 17" fill="none" xmlns="http://www.w3.org/2000/svg">
<path d="M9.34558 2.4999C7.27406 0.0148511 3.91458 0.0148511 1.84306 2.4999C-0.228466 4.98495 -0.228467 9.01505 1.84306 11.5001C3.67816 13.7015 6.52425 13.95 8.58902 12.251L11.1717 15.7166C11.6107 16.3081 12.3741 16.3324 12.8402 15.7733L12.9077 15.6923C13.3738 15.1331 13.3535 14.2174 12.8604 13.6907L9.97154 10.5925C11.3901 8.11287 11.1807 4.70133 9.34558 2.4999ZM8.05763 9.95505C6.69763 11.5865 4.49101 11.5865 3.13101 9.95505C1.771 8.32356 1.771 5.67644 3.13101 4.04495C4.49101 2.41346 6.69763 2.41346 8.05763 4.04495C9.41988 5.67914 9.41763 8.32356 8.05763 9.95505Z" fill="#71717A"/>
</svg>
