<svg width="25" height="9" viewBox="0 0 25 9" fill="none" xmlns="http://www.w3.org/2000/svg">
<path d="M1.78085 8.32727C1.53616 8.10908 1.33906 7.83633 1.20992 7.51511C1.08078 7.19388 0.999219 6.85447 0.97883 6.48475C0.944845 5.86048 1.0468 5.29681 1.29148 4.77557C1.52937 4.26039 1.8828 3.78764 2.35857 3.36338C3.05184 2.74517 3.95582 2.22999 5.07049 1.82997C6.18516 1.42995 7.41537 1.13296 8.75434 0.945074C10.1069 0.757185 11.4798 0.660211 12.8868 0.65415C14.2937 0.660211 15.6667 0.757185 17.0056 0.945073C18.3378 1.13902 19.5612 1.42995 20.6555 1.82391C21.7566 2.22393 22.6605 2.7391 23.3674 3.36944C23.8296 3.78158 24.1898 4.24827 24.4345 4.75739C24.686 5.27257 24.8083 5.84229 24.7879 6.46657C24.7811 7.2363 24.516 7.84845 24.0131 8.29696C23.8228 8.46667 23.5917 8.60001 23.3402 8.6788C23.0819 8.76365 22.8033 8.79396 22.5042 8.74547L18.7048 8.16968C18.4125 8.12726 18.1679 8.06665 17.9572 7.98786C17.7533 7.91513 17.5765 7.81815 17.4474 7.70299C17.2843 7.55753 17.1687 7.36964 17.1076 7.14539C17.0396 6.9272 17.0056 6.66658 17.0056 6.37565L16.9852 5.43621C16.9852 5.30287 16.9308 5.19377 16.8221 5.0968C16.7677 5.04831 16.7134 5.01195 16.6454 4.97558C16.5706 4.94528 16.5095 4.92709 16.4551 4.90285C16.1084 4.81194 15.6055 4.73921 14.953 4.69072C14.2937 4.64829 13.6072 4.61799 12.8936 4.61193C12.1663 4.61799 11.4798 4.63617 10.8138 4.68466C10.1613 4.73315 9.6651 4.81194 9.31167 4.90891C9.26409 4.9271 9.20292 4.94528 9.13496 4.96952C9.06019 4.99983 8.99902 5.04225 8.93785 5.0968C8.8223 5.19984 8.77473 5.31499 8.77473 5.44833L8.76793 6.36353C8.76793 6.66658 8.73394 6.9272 8.65918 7.13933C8.59801 7.36358 8.48926 7.54541 8.31934 7.69693C8.1902 7.81209 8.02708 7.90907 7.81638 7.98786C7.60568 8.06665 7.361 8.12726 7.07553 8.17575L3.22856 8.75759C2.9295 8.80608 2.66443 8.7879 2.41975 8.70305C2.18186 8.61213 1.97116 8.49697 1.78085 8.32727Z" fill="white"/>
</svg>
