<svg width="26" height="25" viewBox="0 0 26 25" fill="none" xmlns="http://www.w3.org/2000/svg">
<g clip-path="url(#clip0_1271_5398)">
<path d="M12.9005 4.6875C15.4234 4.6875 17.1849 6.42608 17.1849 8.91762V16.0824C17.1849 18.5739 15.4234 20.3125 12.9005 20.3125H5.20043C2.67749 20.3125 0.916016 18.5739 0.916016 16.0824V8.91762C0.916016 6.42608 2.67749 4.6875 5.20043 4.6875H12.9005ZM21.2889 7.16561C21.7462 6.93295 22.2827 6.95728 22.7191 7.23223C23.1556 7.50613 23.416 7.98202 23.416 8.50233V16.4983C23.416 17.0197 23.1556 17.4945 22.7191 17.7684C22.4806 17.9175 22.2139 17.9937 21.9452 17.9937C21.7212 17.9937 21.4972 17.9408 21.2879 17.834L19.7451 17.0556C19.1743 16.7659 18.8201 16.1842 18.8201 15.5381V9.46151C18.8201 8.8143 19.1743 8.23266 19.7451 7.94501L21.2889 7.16561Z" fill="#BEBEBE"/>
</g>
<defs>
<clipPath id="clip0_1271_5398">
<rect width="25" height="25" fill="white" transform="translate(0.5)"/>
</clipPath>
</defs>
</svg>
