<svg width="16" height="16" viewBox="0 0 16 16" fill="none" xmlns="http://www.w3.org/2000/svg">
<path d="M13.5 2.25H2.5C2.16848 2.25 1.85054 2.3817 1.61612 2.61612C1.3817 2.85054 1.25 3.16848 1.25 3.5V10C1.25 10.3315 1.3817 10.6495 1.61612 10.8839C1.85054 11.1183 2.16848 11.25 2.5 11.25H13.5C13.8315 11.25 14.1495 11.1183 14.3839 10.8839C14.6183 10.6495 14.75 10.3315 14.75 10V3.5C14.75 3.16848 14.6183 2.85054 14.3839 2.61612C14.1495 2.3817 13.8315 2.25 13.5 2.25ZM13.25 9.75H2.75V3.75H13.25V9.75ZM14.75 13C14.75 13.1989 14.671 13.3897 14.5303 13.5303C14.3897 13.671 14.1989 13.75 14 13.75H2C1.80109 13.75 1.61032 13.671 1.46967 13.5303C1.32902 13.3897 1.25 13.1989 1.25 13C1.25 12.8011 1.32902 12.6103 1.46967 12.4697C1.61032 12.329 1.80109 12.25 2 12.25H14C14.1989 12.25 14.3897 12.329 14.5303 12.4697C14.671 12.6103 14.75 12.8011 14.75 13ZM6.5 8V5.5C6.49996 5.3661 6.53576 5.23463 6.60369 5.11924C6.67162 5.00385 6.76921 4.90876 6.88631 4.84383C7.00342 4.7789 7.13577 4.7465 7.26962 4.75C7.40348 4.75351 7.53395 4.79278 7.6475 4.86375L9.6475 6.11375C9.75548 6.18114 9.84453 6.27491 9.90627 6.38622C9.96801 6.49753 10.0004 6.62272 10.0004 6.75C10.0004 6.87728 9.96801 7.00247 9.90627 7.11378C9.84453 7.22509 9.75548 7.31886 9.6475 7.38625L7.6475 8.63625C7.53395 8.70722 7.40348 8.74649 7.26962 8.75C7.13577 8.7535 7.00342 8.7211 6.88631 8.65617C6.76921 8.59124 6.67162 8.49615 6.60369 8.38076C6.53576 8.26537 6.49996 8.1339 6.5 8Z" fill="#71717A"/>
</svg>
