<svg width="25" height="24" viewBox="0 0 25 24" fill="none" xmlns="http://www.w3.org/2000/svg">
<path d="M16.3398 9.7499C16.3398 9.00823 16.1199 8.2832 15.7079 7.66652C15.2958 7.04983 14.7101 6.56919 14.0249 6.28536C13.3397 6.00153 12.5857 5.92727 11.8583 6.07196C11.1308 6.21665 10.4626 6.57381 9.93819 7.09825C9.41375 7.6227 9.05659 8.29089 8.9119 9.01832C8.7672 9.74575 8.84147 10.4997 9.1253 11.185C9.40912 11.8702 9.88977 12.4559 10.5065 12.8679C11.1231 13.28 11.8482 13.4999 12.5898 13.4999C13.5844 13.4999 14.5382 13.1048 15.2415 12.4016C15.9448 11.6983 16.3398 10.7445 16.3398 9.7499ZM10.3398 9.7499C10.3398 9.3049 10.4718 8.86988 10.719 8.49987C10.9663 8.12986 11.3177 7.84147 11.7288 7.67118C12.1399 7.50088 12.5923 7.45632 13.0288 7.54314C13.4653 7.62995 13.8662 7.84425 14.1808 8.15891C14.4955 8.47358 14.7098 8.87449 14.7966 9.31095C14.8834 9.74741 14.8389 10.1998 14.6686 10.6109C14.4983 11.0221 14.2099 11.3735 13.8399 11.6207C13.4699 11.8679 13.0349 11.9999 12.5898 11.9999C11.9931 11.9999 11.4208 11.7629 10.9989 11.3409C10.5769 10.9189 10.3398 10.3466 10.3398 9.7499ZM21.5898 18.7499H13.3398V17.2124C15.2543 17.02 17.0216 16.0991 18.2762 14.6403C19.5308 13.1815 20.1768 11.2962 20.0804 9.37453C19.9841 7.45282 19.1529 5.64164 17.7587 4.31557C16.3645 2.98951 14.514 2.25 12.5898 2.25C10.6657 2.25 8.8152 2.98951 7.421 4.31557C6.0268 5.64164 5.19558 7.45282 5.09925 9.37453C5.00292 11.2962 5.64886 13.1815 6.90346 14.6403C8.15807 16.0991 9.92537 17.02 11.8398 17.2124V18.7499H3.58984C3.39093 18.7499 3.20017 18.8289 3.05951 18.9696C2.91886 19.1102 2.83984 19.301 2.83984 19.4999C2.83984 19.6988 2.91886 19.8896 3.05951 20.0302C3.20017 20.1709 3.39093 20.2499 3.58984 20.2499H21.5898C21.7888 20.2499 21.9795 20.1709 22.1202 20.0302C22.2608 19.8896 22.3398 19.6988 22.3398 19.4999C22.3398 19.301 22.2608 19.1102 22.1202 18.9696C21.9795 18.8289 21.7888 18.7499 21.5898 18.7499ZM6.58984 9.7499C6.58984 8.56322 6.94174 7.40318 7.60103 6.41648C8.26031 5.42979 9.19739 4.66075 10.2937 4.20663C11.3901 3.7525 12.5965 3.63368 13.7604 3.86519C14.9243 4.09671 15.9934 4.66815 16.8325 5.50727C17.6716 6.34638 18.243 7.41548 18.4746 8.57936C18.7061 9.74325 18.5872 10.9496 18.1331 12.046C17.679 13.1424 16.91 14.0794 15.9233 14.7387C14.9366 15.398 13.7765 15.7499 12.5898 15.7499C10.9991 15.7482 9.47396 15.1155 8.34912 13.9906C7.22428 12.8658 6.59158 11.3407 6.58984 9.7499Z" fill="black"/>
</svg>
