<svg width="25" height="24" viewBox="0 0 25 24" fill="none" xmlns="http://www.w3.org/2000/svg">
<path d="M16.291 9.7499C16.291 9.00823 16.0711 8.2832 15.659 7.66652C15.247 7.04983 14.6613 6.56919 13.9761 6.28536C13.2909 6.00153 12.5369 5.92727 11.8094 6.07196C11.082 6.21665 10.4138 6.57381 9.88937 7.09825C9.36492 7.6227 9.00777 8.29089 8.86307 9.01832C8.71838 9.74575 8.79264 10.4997 9.07647 11.185C9.3603 11.8702 9.84094 12.4559 10.4576 12.8679C11.0743 13.28 11.7993 13.4999 12.541 13.4999C13.5356 13.4999 14.4894 13.1048 15.1927 12.4016C15.8959 11.6983 16.291 10.7445 16.291 9.7499ZM10.291 9.7499C10.291 9.3049 10.423 8.86988 10.6702 8.49987C10.9174 8.12986 11.2688 7.84147 11.68 7.67118C12.0911 7.50088 12.5435 7.45632 12.98 7.54314C13.4164 7.62995 13.8173 7.84425 14.132 8.15891C14.4467 8.47358 14.661 8.87449 14.7478 9.31095C14.8346 9.74741 14.79 10.1998 14.6197 10.6109C14.4494 11.0221 14.1611 11.3735 13.791 11.6207C13.421 11.8679 12.986 11.9999 12.541 11.9999C11.9443 11.9999 11.372 11.7629 10.95 11.3409C10.5281 10.9189 10.291 10.3466 10.291 9.7499ZM21.541 18.7499H13.291V17.2124C15.2055 17.02 16.9728 16.0991 18.2274 14.6403C19.482 13.1815 20.1279 11.2962 20.0316 9.37453C19.9353 7.45282 19.1041 5.64164 17.7099 4.31557C16.3157 2.98951 14.4651 2.25 12.541 2.25C10.6169 2.25 8.76637 2.98951 7.37217 4.31557C5.97797 5.64164 5.14675 7.45282 5.05042 9.37453C4.95409 11.2962 5.60003 13.1815 6.85463 14.6403C8.10924 16.0991 9.87654 17.02 11.791 17.2124V18.7499H3.54102C3.3421 18.7499 3.15134 18.8289 3.01069 18.9696C2.87003 19.1102 2.79102 19.301 2.79102 19.4999C2.79102 19.6988 2.87003 19.8896 3.01069 20.0302C3.15134 20.1709 3.3421 20.2499 3.54102 20.2499H21.541C21.7399 20.2499 21.9307 20.1709 22.0713 20.0302C22.212 19.8896 22.291 19.6988 22.291 19.4999C22.291 19.301 22.212 19.1102 22.0713 18.9696C21.9307 18.8289 21.7399 18.7499 21.541 18.7499ZM6.54102 9.7499C6.54102 8.56322 6.89291 7.40318 7.5522 6.41648C8.21149 5.42979 9.14856 4.66075 10.2449 4.20663C11.3413 3.7525 12.5477 3.63368 13.7116 3.86519C14.8754 4.09671 15.9445 4.66815 16.7837 5.50727C17.6228 6.34638 18.1942 7.41548 18.4257 8.57936C18.6572 9.74325 18.5384 10.9496 18.0843 12.046C17.6302 13.1424 16.8611 14.0794 15.8744 14.7387C14.8877 15.398 13.7277 15.7499 12.541 15.7499C10.9502 15.7482 9.42514 15.1155 8.30029 13.9906C7.17545 12.8658 6.54275 11.3407 6.54102 9.7499Z" fill="black"/>
</svg>
