<svg width="4" height="4" viewBox="0 0 4 4" fill="none" xmlns="http://www.w3.org/2000/svg">
<g clip-path="url(#clip0_1793_7503)">
<path d="M1.07534 1.01562C0.683271 1.01562 0.355469 1.34355 0.355469 1.7355V3.02033C0.355469 3.41216 0.683394 3.74008 1.07534 3.74008H2.85553C3.24736 3.74008 3.57528 3.41216 3.57528 3.02021V1.7355C3.57528 1.34367 3.24736 1.01562 2.85541 1.01562H1.07534ZM1.07534 1.2633H2.85553C3.10754 1.2633 3.32761 1.48336 3.32761 1.7355V1.8825H2.58457C2.51584 1.8825 2.46073 1.82739 2.46073 1.75866C2.46073 1.68993 2.51584 1.63482 2.58457 1.63482C2.61742 1.63482 2.64891 1.62177 2.67214 1.59855C2.69536 1.57532 2.70841 1.54383 2.70841 1.51098C2.70841 1.47814 2.69536 1.44664 2.67214 1.42341C2.64891 1.40019 2.61742 1.38714 2.58457 1.38714C2.38086 1.38714 2.21305 1.55494 2.21305 1.75866C2.21305 1.91866 2.31757 2.05513 2.46073 2.10702V2.72225C2.31237 2.82306 2.21305 2.99222 2.21305 3.18281C2.21305 3.29711 2.24934 3.40337 2.30977 3.49241H1.6211C1.6837 3.40127 1.71737 3.29337 1.7177 3.18281C1.7177 2.99234 1.61838 2.82306 1.47002 2.72225V2.10689C1.61318 2.05513 1.7177 1.91866 1.7177 1.75866C1.7177 1.55494 1.5499 1.38714 1.34618 1.38714H1.0985C1.09462 1.38696 1.09074 1.38696 1.08686 1.38714C1.08303 1.38696 1.07918 1.38696 1.07534 1.38714C1.0425 1.39021 1.01222 1.40621 0.991169 1.4316C0.970116 1.457 0.960014 1.48972 0.963085 1.52256C0.966156 1.5554 0.982148 1.58568 1.00754 1.60674C1.03294 1.62779 1.06566 1.63789 1.0985 1.63482H1.34618C1.41491 1.63482 1.47002 1.68993 1.47002 1.75866C1.47002 1.82739 1.41491 1.8825 1.34618 1.8825H0.603147V1.73538C0.603147 1.48336 0.823209 1.2633 1.07534 1.2633ZM0.603147 2.13018H1.22234V2.62553H0.603147V2.13018ZM2.70841 2.13018H3.32761V2.62553H2.70841V2.13018ZM0.603147 2.87321H1.16042C1.32624 2.87321 1.47002 3.01699 1.47002 3.18281C1.47002 3.34863 1.32624 3.49241 1.16042 3.49241H1.07522C0.823209 3.49241 0.603147 3.27234 0.603147 3.02021V2.87321ZM2.77033 2.87321H3.32761V3.02033C3.32761 3.27234 3.10754 3.49241 2.85541 3.49241H2.77033C2.60451 3.49241 2.46073 3.34863 2.46073 3.18281C2.46073 3.01699 2.60451 2.87321 2.77033 2.87321Z" fill="white"/>
</g>
<defs>
<clipPath id="clip0_1793_7503">
<rect width="3.21981" height="3.21981" fill="white" transform="translate(0.355469 0.767578)"/>
</clipPath>
</defs>
</svg>
