<svg width="21" height="20" viewBox="0 0 21 20" fill="none" xmlns="http://www.w3.org/2000/svg">
<path d="M16.7887 14.961C16.9649 15.1371 17.0638 15.376 17.0638 15.6251C17.0638 15.8741 16.9649 16.113 16.7887 16.2891C16.6126 16.4652 16.3737 16.5642 16.1247 16.5642C15.8756 16.5642 15.6367 16.4652 15.4606 16.2891L10.5005 11.3274L5.53874 16.2876C5.36261 16.4637 5.12374 16.5626 4.87467 16.5626C4.6256 16.5626 4.38673 16.4637 4.21061 16.2876C4.03449 16.1114 3.93555 15.8726 3.93555 15.6235C3.93555 15.3744 4.03449 15.1356 4.21061 14.9594L9.17233 9.99928L4.21217 5.03756C4.03605 4.86144 3.93711 4.62257 3.93711 4.3735C3.93711 4.12443 4.03605 3.88556 4.21217 3.70944C4.38829 3.53332 4.62716 3.43437 4.87624 3.43437C5.12531 3.43437 5.36418 3.53332 5.5403 3.70944L10.5005 8.67116L15.4622 3.70866C15.6383 3.53254 15.8772 3.43359 16.1262 3.43359C16.3753 3.43359 16.6142 3.53254 16.7903 3.70866C16.9664 3.88478 17.0654 4.12365 17.0654 4.37272C17.0654 4.62179 16.9664 4.86066 16.7903 5.03678L11.8286 9.99928L16.7887 14.961Z" fill="black"/>
</svg>
